<svg width="64" height="74" viewBox="0 0 64 74" fill="none" xmlns="http://www.w3.org/2000/svg">
<path fill-rule="evenodd" clip-rule="evenodd" d="M47.9854 31.34C49.9554 31.34 51.8516 31.6762 53.6154 32.29C53.7966 26.6912 53.4166 19.485 53.4166 9.44621C45.7979 5.04871 36.9791 2.51871 27.8341 2.50121C18.6891 2.51871 9.86661 5.04871 2.24786 9.44621C2.24786 44.27 -2.32714 45.0887 27.8341 62.5C30.1691 61.15 32.2991 59.9025 34.2366 58.7262C32.1041 55.87 30.8416 52.3237 30.8416 48.4825C30.8416 39.015 38.5166 31.34 47.9841 31.34H47.9854ZM27.8341 44.1062C26.1091 44.1062 24.6954 42.6925 24.6954 40.9662V29.2662C23.4554 28.32 22.6541 26.8287 22.6541 25.145C22.6541 22.285 24.9716 19.9687 27.8341 19.9687C30.6966 19.9687 33.0104 22.2862 33.0104 25.145C33.0104 26.8275 32.2091 28.32 30.9691 29.2662V40.9662C30.9691 42.6912 29.5591 44.1062 27.8329 44.1062H27.8341ZM47.9854 34.465C40.2429 34.465 33.9679 40.74 33.9679 48.4825C33.9679 56.225 40.2429 62.5 47.9854 62.5C55.7279 62.5 61.9991 56.225 61.9991 48.4825C61.9991 40.74 55.7241 34.465 47.9854 34.465ZM54.4666 45.7575L46.8029 53.4187C46.1929 54.0312 45.2054 54.0312 44.5954 53.4187L41.5016 50.3287C40.8916 49.7162 40.8916 48.7275 41.5016 48.1175C42.1116 47.5075 43.0991 47.5075 43.7129 48.1175L45.7004 50.105L52.2554 43.5462C52.8679 42.9362 53.8566 42.9362 54.4666 43.5462C55.0766 44.1562 55.0766 45.1475 54.4666 45.7575Z" fill="black"/>
<path fill-rule="evenodd" clip-rule="evenodd" d="M47.9854 31.34C49.9554 31.34 51.8516 31.6762 53.6154 32.29C53.7966 26.6912 53.4166 19.485 53.4166 9.44621C45.7979 5.04871 36.9791 2.51871 27.8341 2.50121C18.6891 2.51871 9.86661 5.04871 2.24786 9.44621C2.24786 44.27 -2.32714 45.0887 27.8341 62.5C30.1691 61.15 32.2991 59.9025 34.2366 58.7262C32.1041 55.87 30.8416 52.3237 30.8416 48.4825C30.8416 39.015 38.5166 31.34 47.9841 31.34H47.9854ZM27.8341 44.1062C26.1091 44.1062 24.6954 42.6925 24.6954 40.9662V29.2662C23.4554 28.32 22.6541 26.8287 22.6541 25.145C22.6541 22.285 24.9716 19.9687 27.8341 19.9687C30.6966 19.9687 33.0104 22.2862 33.0104 25.145C33.0104 26.8275 32.2091 28.32 30.9691 29.2662V40.9662C30.9691 42.6912 29.5591 44.1062 27.8329 44.1062H27.8341ZM47.9854 34.465C40.2429 34.465 33.9679 40.74 33.9679 48.4825C33.9679 56.225 40.2429 62.5 47.9854 62.5C55.7279 62.5 61.9991 56.225 61.9991 48.4825C61.9991 40.74 55.7241 34.465 47.9854 34.465ZM54.4666 45.7575L46.8029 53.4187C46.1929 54.0312 45.2054 54.0312 44.5954 53.4187L41.5016 50.3287C40.8916 49.7162 40.8916 48.7275 41.5016 48.1175C42.1116 47.5075 43.0991 47.5075 43.7129 48.1175L45.7004 50.105L52.2554 43.5462C52.8679 42.9362 53.8566 42.9362 54.4666 43.5462C55.0766 44.1562 55.0766 45.1475 54.4666 45.7575Z" fill="url(#paint0_linear_826_10442)"/>
<defs>
<linearGradient id="paint0_linear_826_10442" x1="7.88677" y1="8.16348" x2="55.7646" y2="55.2721" gradientUnits="userSpaceOnUse">
<stop stop-color="#F94229"/>
<stop offset="1" stop-color="#BB0A55"/>
</linearGradient>
</defs>
</svg>
