<svg width="64" height="64" viewBox="0 0 64 64" fill="none" xmlns="http://www.w3.org/2000/svg">
<path d="M59.1045 10.31L50.9445 4.20001C50.772 4.06916 50.5611 3.99886 50.3446 4.00001H13.6646C13.448 3.99886 13.2371 4.06916 13.0646 4.20001L4.90455 10.32C4.34703 14.8898 4.55999 19.5207 5.53455 24.02H18.0746C18.7285 24.0201 19.376 23.8912 19.98 23.6406C20.584 23.3901 21.1327 23.0229 21.5946 22.56L25.4546 18.71C25.0558 17.9726 24.9359 17.1163 25.1166 16.2977C25.2973 15.4791 25.7667 14.7529 26.4388 14.2519C27.1109 13.7509 27.9409 13.5086 28.777 13.5693C29.6131 13.63 30.3995 13.9896 30.9922 14.5823C31.585 15.1751 31.9446 15.9614 32.0053 16.7975C32.0659 17.6336 31.8236 18.4637 31.3226 19.1358C30.8216 19.8079 30.0954 20.2773 29.2768 20.458C28.4583 20.6387 27.602 20.5187 26.8646 20.12L23.0046 23.97C22.3581 24.6193 21.5899 25.1346 20.7439 25.4864C19.8979 25.8382 18.9908 26.0195 18.0746 26.02H5.97455C6.38455 27.68 6.87455 29.35 7.43455 31L29.1746 31.0001C29.4147 30.1976 29.9355 29.5084 30.6418 29.0583C31.3482 28.6082 32.1929 28.4273 33.0217 28.5486C33.8504 28.67 34.6078 29.0854 35.1555 29.7191C35.7032 30.3529 36.0046 31.1625 36.0046 32C36.0046 32.8376 35.7032 33.6472 35.1555 34.2809C34.6078 34.9146 33.8504 35.3301 33.0217 35.4515C32.1929 35.5728 31.3482 35.3919 30.6418 34.9418C29.9355 34.4917 29.4147 33.8024 29.1746 33H8.15455C8.79455 34.68 9.52455 36.35 10.3146 37.98H18.0746C19.9276 37.9828 21.704 38.72 23.0146 40.03L26.8645 43.8801C27.603 43.4803 28.4609 43.3597 29.281 43.5405C30.1012 43.7212 30.8289 44.1912 31.331 44.8644C31.833 45.5377 32.076 46.3692 32.0153 47.2068C31.9546 48.0445 31.5944 48.8323 31.0005 49.4261C30.4067 50.02 29.6189 50.3802 28.7812 50.4409C27.9436 50.5015 27.1121 50.2586 26.4388 49.7565C25.7656 49.2544 25.2956 48.5267 25.1149 47.7066C24.9341 46.8864 25.0547 46.0286 25.4546 45.29L21.5946 41.44C21.1327 40.9771 20.584 40.6099 19.98 40.3594C19.376 40.1089 18.7285 39.9799 18.0746 39.98H11.3446C16.2346 49.12 23.4846 56.86 32.0046 60C49.4246 53.64 61.6045 27.67 59.1045 10.31Z" fill="url(#paint0_linear_826_10457)"/>
<path d="M34.0044 32C33.9989 31.6085 33.8394 31.2349 33.5606 30.96C33.2818 30.6851 32.906 30.531 32.5144 30.531C32.1229 30.531 31.7471 30.6851 31.4682 30.96C31.1894 31.2349 31.03 31.6084 31.0244 32C31.03 32.3915 31.1894 32.7651 31.4682 33.04C31.747 33.3149 32.1228 33.469 32.5144 33.469C32.9059 33.469 33.2818 33.3149 33.5606 33.04C33.8394 32.7651 33.9988 32.3915 34.0044 32Z" fill="url(#paint1_linear_826_10457)"/>
<path d="M30.0142 17.05C30.0142 16.8543 29.9756 16.6606 29.9008 16.4798C29.8259 16.299 29.7161 16.1348 29.5778 15.9964C29.4394 15.858 29.2752 15.7483 29.0944 15.6734C28.9136 15.5985 28.7199 15.56 28.5242 15.56C28.3285 15.56 28.1348 15.5985 27.954 15.6734C27.7732 15.7483 27.609 15.858 27.4706 15.9964C27.3322 16.1347 27.2225 16.299 27.1476 16.4797C27.0727 16.6605 27.0342 16.8543 27.0342 17.0499C27.0342 17.4451 27.1911 17.8241 27.4706 18.1035C27.75 18.383 28.129 18.54 28.5241 18.54C28.9193 18.54 29.2983 18.383 29.5777 18.1036C29.8572 17.8242 30.0142 17.4452 30.0142 17.05Z" fill="url(#paint2_linear_826_10457)"/>
<path d="M30.0142 46.95C30.0086 46.5585 29.8492 46.1849 29.5704 45.91C29.2915 45.6351 28.9157 45.481 28.5242 45.481C28.1326 45.481 27.7568 45.6351 27.478 45.91C27.1992 46.1849 27.0397 46.5585 27.0342 46.95C27.0397 47.3415 27.1992 47.7151 27.478 47.99C27.7568 48.2649 28.1326 48.419 28.5242 48.419C28.9157 48.419 29.2915 48.2649 29.5704 47.99C29.8492 47.7151 30.0086 47.3415 30.0142 46.95Z" fill="url(#paint3_linear_826_10457)"/>
<defs>
<linearGradient id="paint0_linear_826_10457" x1="9.98101" y1="9.28491" x2="54.6427" y2="52.3094" gradientUnits="userSpaceOnUse">
<stop stop-color="#F94229"/>
<stop offset="1" stop-color="#BB0A55"/>
</linearGradient>
<linearGradient id="paint1_linear_826_10457" x1="9.98101" y1="9.28491" x2="54.6427" y2="52.3094" gradientUnits="userSpaceOnUse">
<stop stop-color="#F94229"/>
<stop offset="1" stop-color="#BB0A55"/>
</linearGradient>
<linearGradient id="paint2_linear_826_10457" x1="9.98101" y1="9.28491" x2="54.6427" y2="52.3094" gradientUnits="userSpaceOnUse">
<stop stop-color="#F94229"/>
<stop offset="1" stop-color="#BB0A55"/>
</linearGradient>
<linearGradient id="paint3_linear_826_10457" x1="9.98101" y1="9.28491" x2="54.6427" y2="52.3094" gradientUnits="userSpaceOnUse">
<stop stop-color="#F94229"/>
<stop offset="1" stop-color="#BB0A55"/>
</linearGradient>
</defs>
</svg>
