<svg width="64" height="45" viewBox="0 0 64 45" fill="none" xmlns="http://www.w3.org/2000/svg">
<path d="M44.4434 8.82617C46.6678 8.82777 48.8443 9.47508 50.708 10.6895C52.5715 11.9038 54.0424 13.6329 54.9424 15.667C55.8424 17.7013 56.1333 19.9534 55.7783 22.1494C55.4234 24.3453 54.4383 26.391 52.9434 28.0381L52.3203 28.7246L53.1504 29.1357C55.5389 30.319 57.6614 31.9768 59.3877 34.0078C61.114 36.0389 62.4076 38.4012 63.1904 40.9492L63.1924 40.9531C63.3163 41.3473 63.334 41.7678 63.2432 42.1709C63.1523 42.5741 62.9559 42.946 62.6748 43.249C62.3938 43.552 62.0377 43.7757 61.6426 43.8965C61.2475 44.0172 60.8271 44.0314 60.4248 43.9375L60.4229 43.9365L60.2734 43.8965C59.9287 43.7924 59.6115 43.6103 59.3477 43.3633C59.0461 43.0809 58.8244 42.7236 58.7051 42.3281L58.7041 42.3242L58.5527 41.8633C57.7627 39.5767 56.4289 37.5133 54.6631 35.8525C52.7795 34.081 50.4684 32.828 47.9561 32.2158L47.9551 32.2148L47.7656 32.1611C47.3307 32.0166 46.9462 31.7473 46.6611 31.3848C46.3354 30.9705 46.1586 30.4586 46.1592 29.9316V28.5C46.1589 28.0632 46.2808 27.6351 46.5107 27.2637C46.7405 26.8927 47.0684 26.592 47.459 26.3975L47.46 26.3984C48.8328 25.718 49.9348 24.5931 50.5879 23.207C51.241 21.8209 51.407 20.2546 51.0576 18.7627C50.7083 17.2709 49.8645 15.9412 48.6641 14.9893C47.4634 14.0372 45.9756 13.5186 44.4434 13.5186C43.8211 13.5185 43.2242 13.2711 42.7842 12.8311C42.3443 12.391 42.0967 11.7941 42.0967 11.1719C42.0968 10.5497 42.3442 9.95267 42.7842 9.5127C43.1693 9.12762 43.6747 8.89019 44.2119 8.83691L44.4434 8.82617ZM20.9316 0.750977C23.1635 0.556893 25.4084 0.920823 27.4648 1.80957C29.5214 2.69837 31.3249 4.08414 32.7129 5.84277C34.1009 7.60146 35.0304 9.67793 35.417 11.8848C35.8035 14.0915 35.6352 16.3597 34.9277 18.4854C34.2202 20.6111 32.9952 22.5275 31.3633 24.0625L30.624 24.7588L31.5371 25.2021C34.6721 26.7242 37.3944 28.9799 39.4727 31.7773C41.5504 34.5742 42.9234 37.8304 43.4756 41.2705V41.2715C43.5239 41.5759 43.5123 41.8868 43.4404 42.1865C43.3685 42.4863 43.2378 42.7691 43.0566 43.0186C42.8755 43.2679 42.6475 43.4795 42.3848 43.6406C42.122 43.8017 41.8298 43.9097 41.5254 43.958C41.2209 44.0063 40.9092 43.9938 40.6094 43.9219C40.3099 43.85 40.0275 43.72 39.7783 43.5391C39.5289 43.3579 39.3174 43.129 39.1562 42.8662C38.9951 42.6034 38.8871 42.3113 38.8389 42.0068V42.0059C38.2033 38.0245 36.1689 34.3998 33.1016 31.7832C30.0342 29.1667 26.1343 27.7295 22.1025 27.7295C18.0708 27.7295 14.1709 29.1666 11.1035 31.7832C8.03615 34.3998 6.00175 38.0245 5.36621 42.0059V42.0068C5.3177 42.311 5.20996 42.6027 5.04883 42.8652C4.88754 43.1279 4.67628 43.3571 4.42676 43.5381C4.17716 43.7191 3.89361 43.8492 3.59375 43.9209C3.29403 43.9925 2.98305 44.0045 2.67871 43.9561C2.37422 43.9076 2.08209 43.799 1.81934 43.6377C1.5567 43.4764 1.32842 43.2651 1.14746 43.0156C0.966502 42.7661 0.836389 42.4834 0.764648 42.1836C0.692968 41.8839 0.681111 41.5729 0.729492 41.2686C1.27946 37.8281 2.65207 34.5707 4.73047 31.7744C6.80879 28.9783 9.5314 26.7254 12.667 25.207L13.582 24.7637L12.8418 24.0674C11.4978 22.8032 10.4263 21.2767 9.69434 19.583C8.96249 17.8894 8.58564 16.0637 8.58594 14.2188L8.5918 13.7988C8.65664 11.7034 9.20814 9.64941 10.2051 7.80078C11.2685 5.82898 12.8057 4.15246 14.6777 2.92188C16.55 1.69126 18.6996 0.945152 20.9316 0.750977ZM22.1182 5.39453C20.9433 5.36801 19.7749 5.57667 18.6816 6.00781C17.5882 6.43907 16.5915 7.08468 15.751 7.90625C14.9105 8.72777 14.2422 9.70882 13.7861 10.792C13.33 11.8753 13.095 13.0395 13.0947 14.2148C13.0945 15.3901 13.3296 16.5534 13.7852 17.6367C14.2407 18.7202 14.9079 19.7024 15.748 20.5244C16.5882 21.3463 17.5846 21.9921 18.6777 22.4238C19.7708 22.8555 20.9393 23.0641 22.1143 23.0381C24.4197 22.9871 26.6139 22.036 28.2266 20.3877C29.8393 18.7393 30.7426 16.5248 30.7432 14.2188C30.7437 11.9127 29.8414 9.69799 28.2295 8.04883C26.6176 6.39964 24.4237 5.44667 22.1182 5.39453Z" fill="url(#paint0_linear_696_6805)" stroke="white" stroke-width="1.4"/>
<defs>
<linearGradient id="paint0_linear_696_6805" x1="0" y1="0" x2="71.0088" y2="21.0065" gradientUnits="userSpaceOnUse">
<stop stop-color="#511F5E"/>
<stop offset="1" stop-color="#C01E6C"/>
</linearGradient>
</defs>
</svg>
