<svg width="60" height="59" viewBox="0 0 60 59" fill="none" xmlns="http://www.w3.org/2000/svg">
<path d="M44 53.18L38.82 48L36 50.82L44 58.82L60 42.82L57.18 40L44 53.18ZM30 44L25.722 41.974C24.013 41.1599 22.569 39.8792 21.5566 38.2797C20.5441 36.6801 20.0045 34.827 20 32.934V20H40V32.936C39.9955 34.829 39.4559 36.6821 38.4434 38.2817C37.431 39.8812 35.987 41.1619 34.278 41.976L30 44ZM24 24V32.936C24.0031 34.0713 24.3271 35.1826 24.9347 36.1416C25.5424 37.1007 26.4088 37.8683 27.434 38.356L30 39.572L32.566 38.358C33.5915 37.8702 34.4582 37.1022 35.0658 36.1428C35.6734 35.1834 35.9973 34.0716 36 32.936V24H24ZM6.24 33.312C6.81185 32.9255 7.27395 32.3975 7.58137 31.7795C7.88878 31.1616 8.03105 30.4745 7.99434 29.7853C7.95763 29.096 7.74318 28.428 7.37186 27.8462C7.00054 27.2643 6.48497 26.7885 5.8753 26.4649C5.26562 26.1413 4.58258 25.9809 3.8926 25.9995C3.20262 26.018 2.52917 26.2148 1.93775 26.5706C1.34632 26.9265 0.857043 27.4293 0.517489 28.0303C0.177935 28.6312 -0.000339471 29.3098 4.85293e-07 30C4.85293e-07 31.578 0.920001 32.928 2.248 33.58C2.91216 38.8479 5.06571 43.8169 8.45572 47.9034C11.8457 51.9899 16.3314 55.0242 21.386 56.65L22.614 52.842C18.3205 51.4628 14.5048 48.8971 11.6078 45.4412C8.7107 41.9853 6.84847 37.7803 6.24 33.312ZM57.752 26.42C57.0878 21.1521 54.9343 16.1831 51.5443 12.0966C48.1543 8.0101 43.6686 4.97577 38.614 3.35L37.386 7.158C41.6795 8.53718 45.4952 11.1029 48.3922 14.5588C51.2893 18.0147 53.1495 22.2197 53.758 26.688C53.1865 27.0748 52.7248 27.6028 52.4178 28.2208C52.1107 28.8388 51.9688 29.5258 52.0057 30.2148C52.0427 30.9039 52.2573 31.5717 52.6287 32.1533C53.0001 32.7349 53.5156 33.2106 54.1252 33.534C54.7347 33.8575 55.4176 34.0177 56.1075 33.9992C56.7973 33.9806 57.4706 33.784 58.0619 33.4282C58.6532 33.0725 59.1425 32.5699 59.4821 31.9692C59.8217 31.3684 60.0001 30.6901 60 30C59.9995 29.2526 59.7886 28.5204 59.3914 27.8873C58.9942 27.2541 58.4268 26.7456 57.754 26.42M30 4.77015e-08C28.422 4.77015e-08 27.072 0.92 26.42 2.248C21.1524 2.912 16.1835 5.06525 12.097 8.45489C8.01056 11.8445 4.97609 16.3298 3.35 21.384L7.158 22.616C8.53686 18.3221 11.1025 14.506 14.5584 11.6086C18.0143 8.71116 22.2194 6.85064 26.688 6.242C27.0748 6.81349 27.6028 7.27519 28.2208 7.58223C28.8388 7.88928 29.5258 8.03122 30.2148 7.99426C30.9039 7.9573 31.5717 7.7427 32.1533 7.37132C32.7349 6.99994 33.2106 6.4844 33.534 5.87483C33.8575 5.26525 34.0177 4.58236 33.9992 3.89254C33.9806 3.20272 33.784 2.52942 33.4282 1.9381C33.0725 1.34677 32.5699 0.857531 31.9692 0.517923C31.3684 0.178315 30.6901 -0.00010651 30 4.77015e-08Z" fill="url(#paint0_linear_696_6734)"/>
<defs>
<linearGradient id="paint0_linear_696_6734" x1="0" y1="0" x2="69.3177" y2="14.6092" gradientUnits="userSpaceOnUse">
<stop stop-color="#511F5E"/>
<stop offset="1" stop-color="#C01E6C"/>
</linearGradient>
</defs>
</svg>
