<svg width="58" height="58" viewBox="0 0 58 58" fill="none" xmlns="http://www.w3.org/2000/svg">
<path d="M9.38887 12.2766L10.1308 14.1337L10.1309 14.1337L9.38887 12.2766ZM9.38887 34.3872L8.64652 36.2442L8.64683 36.2443L9.38887 34.3872ZM25.0338 57.0817C26.0013 57.6145 27.2175 57.2621 27.7503 56.2946C28.2831 55.3271 27.9307 54.1109 26.9632 53.5781L25.9985 55.3299L25.0338 57.0817ZM20.8175 52.4767L19.8491 54.2265L19.8528 54.2285L20.8175 52.4767ZM14.3762 45.8026L16.1592 44.8969V44.8969L14.3762 45.8026ZM14.7702 36.9145C14.9083 35.8186 14.1319 34.8183 13.0361 34.6802C11.9403 34.5421 10.9399 35.3185 10.8018 36.4143L12.786 36.6644L14.7702 36.9145ZM55.33 23.3319H53.3301C53.3301 28.9794 52.1813 33.9934 50.4173 37.5215C48.5934 41.1692 46.4438 42.664 44.664 42.664V44.6639V46.6638C48.7749 46.6638 51.9583 43.3832 53.9947 39.3103C56.091 35.1177 57.3299 29.4657 57.3299 23.3319H55.33ZM44.664 44.6639V42.664C42.8843 42.664 40.7346 41.1692 38.9107 37.5215C37.1467 33.9934 35.9979 28.9794 35.9979 23.3319H33.998H31.9981C31.9981 29.4657 33.237 35.1177 35.3333 39.3103C37.3697 43.3832 40.5531 46.6638 44.664 46.6638V44.6639ZM33.998 23.3319H35.9979C35.9979 17.6844 37.1467 12.6704 38.9107 9.14225C40.7346 5.49451 42.8843 3.99975 44.664 3.99975V1.99988V2.86102e-06C40.5531 2.86102e-06 37.3697 3.28058 35.3333 7.3535C33.237 11.5461 31.9981 17.1981 31.9981 23.3319H33.998ZM44.664 1.99988V3.99975C46.4438 3.99975 48.5934 5.49451 50.4173 9.14225C52.1813 12.6704 53.3301 17.6844 53.3301 23.3319H55.33H57.3299C57.3299 17.1981 56.091 11.5461 53.9947 7.3535C51.9583 3.28058 48.7749 2.86102e-06 44.664 2.86102e-06V1.99988ZM44.664 1.99988V2.86102e-06C40.1802 2.86102e-06 33.5519 1.6833 27.0131 3.75592C20.3937 5.85409 13.5928 8.44319 8.64683 10.4195L9.38887 12.2766L10.1309 14.1337C15.035 12.1742 21.7346 9.62495 28.2217 7.56871C34.7894 5.48693 40.8736 3.99975 44.664 3.99975V1.99988ZM9.38887 12.2766L8.64689 10.4194C3.34918 12.536 0.000124931 17.6842 0.000124931 23.3319H2H3.99988C3.99988 19.2628 6.40513 15.6222 10.1308 14.1337L9.38887 12.2766ZM2 23.3319H0.000124931C0.000124931 28.9802 3.35232 34.1278 8.64652 36.2442L9.38887 34.3872L10.1312 32.5302C6.40732 31.0415 3.99988 27.4003 3.99988 23.3319H2ZM9.38887 34.3872L8.64683 36.2443C13.5928 38.2206 20.3937 40.8097 27.0131 42.9078C33.5519 44.9805 40.1802 46.6638 44.664 46.6638V44.6639V42.664C40.8736 42.664 34.7894 41.1768 28.2217 39.095C21.7346 37.0388 15.035 34.4896 10.1309 32.5301L9.38887 34.3872ZM25.9985 55.3299L26.9632 53.5781L21.7822 50.7249L20.8175 52.4767L19.8528 54.2285L25.0338 57.0817L25.9985 55.3299ZM20.8175 52.4767L21.7859 50.7269C19.3697 49.3898 17.4098 47.359 16.1592 44.8969L14.3762 45.8026L12.5931 46.7082C14.2058 49.8833 16.7333 52.5021 19.8491 54.2265L20.8175 52.4767ZM14.3762 45.8026L16.1592 44.8969C14.9087 42.4348 14.4248 39.6543 14.7702 36.9145L12.786 36.6644L10.8018 36.4143C10.3565 39.9475 10.9804 43.5331 12.5931 46.7082L14.3762 45.8026Z" fill="url(#paint0_linear_696_6803)"/>
<defs>
<linearGradient id="paint0_linear_696_6803" x1="2" y1="1.99988" x2="63.7141" y2="14.7507" gradientUnits="userSpaceOnUse">
<stop stop-color="#511F5E"/>
<stop offset="1" stop-color="#C01E6C"/>
</linearGradient>
</defs>
</svg>
