<svg width="54" height="54" viewBox="0 0 54 54" fill="none" xmlns="http://www.w3.org/2000/svg">
<path d="M36.3646 26.6656C36.3646 29.2373 35.343 31.7037 33.5245 33.5221C31.706 35.3406 29.2397 36.3622 26.668 36.3622C24.0963 36.3622 21.6299 35.3406 19.8115 33.5221C17.993 31.7037 16.9714 29.2373 16.9714 26.6656C16.9714 24.0939 17.993 21.6276 19.8115 19.8091C21.6299 17.9906 24.0963 16.969 26.668 16.969C29.2397 16.969 31.706 17.9906 33.5245 19.8091C35.343 21.6276 36.3646 24.0939 36.3646 26.6656ZM32.7283 26.6656C32.7283 25.0583 32.0898 23.5168 30.9533 22.3803C29.8168 21.2437 28.2753 20.6052 26.668 20.6052C25.0607 20.6052 23.5192 21.2437 22.3826 22.3803C21.2461 23.5168 20.6076 25.0583 20.6076 26.6656C20.6076 28.2729 21.2461 29.8144 22.3826 30.9509C23.5192 32.0875 25.0607 32.726 26.668 32.726C28.2753 32.726 29.8168 32.0875 30.9533 30.9509C32.0898 29.8144 32.7283 28.2729 32.7283 26.6656Z" fill="url(#paint0_linear_696_6747)"/>
<path d="M26.6678 0C27.3143 0 27.9583 0.0226254 28.5999 0.0678761C30.4495 0.201204 31.8603 1.56357 32.2652 3.22896L33.1185 6.74397C33.1645 6.93306 33.3366 7.1585 33.6639 7.27971C34.2619 7.49627 34.8501 7.7403 35.4287 8.0118C35.7438 8.15968 36.025 8.11847 36.1923 8.01665L39.2831 6.13551C40.7448 5.24343 42.7035 5.27979 44.1071 6.49186C45.0832 7.3387 45.9947 8.25099 46.8416 9.22872C48.0561 10.6299 48.09 12.5886 47.1979 14.0528L45.3168 17.1411C45.215 17.3084 45.1762 17.5896 45.3216 17.9047C45.5931 18.4817 45.838 19.07 46.0561 19.6695C46.1725 19.9968 46.4004 20.1665 46.5895 20.215L50.1045 21.0683C51.7698 21.4731 53.1322 22.8839 53.2631 24.7336C53.3552 26.0216 53.3552 27.3096 53.2631 28.5977C53.1322 30.4473 51.7698 31.8581 50.1045 32.263L46.5895 33.1163C46.4004 33.1623 46.1749 33.3344 46.0537 33.6617C45.8372 34.2629 45.5931 34.8511 45.3216 35.4265C45.1737 35.7416 45.215 36.0228 45.3168 36.1901L47.1979 39.2809C48.09 40.7426 48.0536 42.7013 46.8416 44.1049C45.9947 45.0827 45.0824 45.9941 44.1047 46.8394C42.7035 48.0538 40.7448 48.0878 39.2806 47.1957L36.1923 45.3146C36.025 45.2127 35.7438 45.174 35.4311 45.3194C34.8531 45.59 34.2634 45.8351 33.6639 46.0539C33.3366 46.1703 33.167 46.3982 33.1185 46.5872L32.2652 50.1022C31.8603 51.7676 30.4495 53.13 28.5999 53.2609C27.3118 53.353 26.0238 53.353 24.7358 53.2609C22.8861 53.13 21.4753 51.7676 21.0705 50.1022L20.2172 46.5872C20.1711 46.3982 19.999 46.1727 19.6717 46.0515C19.0718 45.8366 18.4828 45.5923 17.9069 45.3194C17.5918 45.1715 17.3106 45.2127 17.1433 45.3146L14.0526 47.1957C12.5908 48.0878 10.6321 48.0514 9.22851 46.8394C8.25077 45.9925 7.33929 45.0802 6.49407 44.1025C5.27957 42.7013 5.24564 40.7426 6.13772 39.2784L8.01886 36.1901C8.12068 36.0228 8.15946 35.7416 8.01401 35.4289C7.74344 34.8509 7.49837 34.2612 7.27949 33.6617C7.16314 33.3344 6.93527 33.1647 6.74618 33.1163L3.23117 32.263C1.56578 31.8581 0.203413 30.4473 0.0700848 28.5977C-0.0233616 27.3113 -0.0233616 26.0199 0.0700848 24.7336C0.203413 22.8839 1.56578 21.4731 3.23117 21.0683L6.74618 20.215C6.93527 20.1689 7.16071 19.9968 7.28192 19.6695C7.49848 19.0683 7.74251 18.4801 8.01401 17.9047C8.16188 17.5896 8.12068 17.3084 8.01886 17.1411L6.13772 14.0504C5.24564 12.5886 5.282 10.6299 6.49407 9.2263C7.34091 8.24856 8.25319 7.33708 9.23093 6.49186C10.6321 5.27737 12.5908 5.24343 14.055 6.13551L17.1433 8.01665C17.3106 8.11847 17.5918 8.15725 17.9069 8.0118C18.4839 7.7403 19.0722 7.49546 19.6717 7.27729C19.999 7.16093 20.1687 6.93306 20.2172 6.74397L21.0705 3.22896C21.4753 1.56357 22.8861 0.201204 24.7358 0.0678761C25.3741 0.0226254 26.0181 0 26.6678 0ZM24.9952 3.69682C24.8618 3.70652 24.6679 3.81803 24.6049 4.08711L23.7491 7.60212C23.5683 8.31272 23.2141 8.96742 22.7183 9.50764C22.2225 10.0479 21.6006 10.4568 20.908 10.6978C20.4141 10.8763 19.9288 11.0778 19.4536 11.3014C18.7928 11.6217 18.0629 11.773 17.3292 11.7417C16.5956 11.7104 15.8812 11.4974 15.2501 11.122L12.1617 9.24084C11.9242 9.0954 11.7108 9.15357 11.609 9.24084C10.7668 9.97406 9.97627 10.7646 9.24305 11.6068C9.15578 11.7086 9.0976 11.9244 9.24305 12.1595L11.1242 15.2479C11.8854 16.5303 11.9532 18.1084 11.3036 19.4513C11.08 19.9266 10.8786 20.4119 10.7 20.9058C10.4591 21.5991 10.05 22.2217 9.50927 22.718C8.96858 23.2143 8.31322 23.5686 7.60191 23.7494L4.08689 24.6002C3.82024 24.6657 3.70873 24.8596 3.69903 24.9929C3.622 26.1067 3.622 27.2245 3.69903 28.3383C3.70873 28.4716 3.82024 28.6655 4.08932 28.7286L7.60433 29.5843C8.31493 29.7651 8.96963 30.1193 9.50985 30.6151C10.0501 31.1109 10.459 31.7329 10.7 32.4254C10.8794 32.9199 11.0806 33.4047 11.3036 33.8799C11.9532 35.2204 11.8854 36.7985 11.1242 38.0809L9.24305 41.1717C9.0976 41.4093 9.15578 41.6226 9.24305 41.7244C9.97515 42.5696 10.7638 43.3583 11.609 44.0904C11.7108 44.1776 11.9266 44.2358 12.1617 44.0904L15.2501 42.2092C15.881 41.8334 16.5952 41.62 17.3289 41.5883C18.0625 41.5566 18.7926 41.7075 19.4536 42.0274C19.9287 42.2537 20.4135 42.4557 20.908 42.6335C21.6013 42.8743 22.2239 43.2835 22.7202 43.8242C23.2165 44.3648 23.5708 45.0202 23.7516 45.7315L24.6024 49.2465C24.6679 49.5132 24.8618 49.6247 24.9952 49.6344C26.1089 49.7114 27.2267 49.7114 28.3405 49.6344C28.4738 49.6247 28.6677 49.5132 28.7308 49.2441L29.5865 45.7291C29.767 45.018 30.121 44.3629 30.6168 43.8222C31.1126 43.2815 31.7348 42.8723 32.4276 42.631C32.9215 42.4532 33.4068 42.2526 33.8821 42.0298C34.5425 41.7099 35.272 41.5589 36.0052 41.5902C36.7384 41.6215 37.4523 41.8342 38.0831 42.2092L41.1739 44.0904C41.4115 44.2358 41.6248 44.1776 41.7266 44.0904C42.5718 43.3583 43.3605 42.5696 44.0926 41.7244C44.1798 41.6226 44.238 41.4068 44.0926 41.1717L42.2114 38.0809C41.836 37.4503 41.6229 36.7365 41.5912 36.0033C41.5594 35.2701 41.7101 34.5405 42.0296 33.8799C42.2559 33.4047 42.4579 32.9199 42.6357 32.4254C42.8766 31.7321 43.2857 31.1095 43.8264 30.6132C44.3671 30.1169 45.0224 29.7626 45.7337 29.5819L49.2487 28.731C49.5154 28.6655 49.6269 28.4716 49.6366 28.3383C49.7136 27.2245 49.7136 26.1067 49.6366 24.9929C49.6269 24.8596 49.5154 24.6657 49.2463 24.6027L45.7313 23.7469C44.2138 23.3785 43.1132 22.2318 42.6332 20.9058C42.4555 20.412 42.2548 19.9266 42.0321 19.4513C41.7117 18.7906 41.5604 18.0606 41.5917 17.327C41.623 16.5933 41.836 15.8789 42.2114 15.2479L44.0926 12.1595C44.238 11.9219 44.1798 11.7086 44.0926 11.6068C43.3594 10.7646 42.5688 9.97406 41.7266 9.24084C41.6248 9.15357 41.409 9.0954 41.1739 9.24084L38.0831 11.122C37.4523 11.497 36.7384 11.7097 36.0052 11.741C35.272 11.7723 34.5425 11.6213 33.8821 11.3014C33.4068 11.0778 32.9215 10.8763 32.4276 10.6978C31.7354 10.455 31.1138 10.0452 30.6178 9.50485C30.1218 8.96446 29.7668 8.31009 29.5841 7.5997L28.7332 4.08469C28.6677 3.81803 28.4738 3.70652 28.3405 3.69682C27.2267 3.61979 26.1089 3.61979 24.9952 3.69682Z" fill="url(#paint1_linear_696_6747)"/>
<defs>
<linearGradient id="paint0_linear_696_6747" x1="0" y1="0" x2="61.7165" y2="12.7519" gradientUnits="userSpaceOnUse">
<stop stop-color="#511F5E"/>
<stop offset="1" stop-color="#C01E6C"/>
</linearGradient>
<linearGradient id="paint1_linear_696_6747" x1="0" y1="0" x2="61.7165" y2="12.7519" gradientUnits="userSpaceOnUse">
<stop stop-color="#511F5E"/>
<stop offset="1" stop-color="#C01E6C"/>
</linearGradient>
</defs>
</svg>
