<svg width="64" height="64" viewBox="0 0 64 64" fill="none" xmlns="http://www.w3.org/2000/svg">
<path d="M54.3006 18.1247L57.5998 15.6812L56.3365 12.6393L52.3153 13.2396C51.8565 12.6636 51.3278 12.1644 50.7563 11.7145L51.3611 7.66518L48.3179 6.3999L45.8891 9.68118C45.1781 9.5999 44.4529 9.6159 43.7214 9.69974L41.2779 6.40374L38.236 7.66454L38.8363 11.685C38.2616 12.1439 37.7611 12.6751 37.3112 13.2434L33.2613 12.6393L31.9985 15.6831L35.2785 18.1125C35.1973 18.8229 35.2133 19.5481 35.2971 20.2796L32.0011 22.7231L33.2613 25.765L37.2824 25.1647C37.74 25.7394 38.2712 26.2373 38.8401 26.6898L38.2366 30.7397L41.2811 32.0044L43.7099 28.7212C44.4209 28.8044 45.146 28.7877 45.8776 28.7045L48.3192 31.9999L51.3617 30.7397L50.7614 26.7186C51.3361 26.2604 51.8366 25.7292 52.2865 25.1602L56.3365 25.7644L57.5998 22.7199L54.3192 20.2911C54.4005 19.5807 54.3845 18.8556 54.3006 18.1247ZM44.7992 22.4012C43.0328 22.4012 41.5992 20.9663 41.5992 19.2012C41.5992 17.4322 43.0328 16.0012 44.7992 16.0012C46.5656 16.0012 47.9992 17.4322 47.9992 19.2012C47.9992 20.9663 46.5656 22.4012 44.7992 22.4012Z" fill="url(#paint0_linear_828_17053)"/>
<path d="M19.1991 19.1999C12.129 19.1999 6.39844 24.9311 6.39844 31.9999C6.39844 35.5352 7.83012 38.7352 10.1488 41.0501C10.1488 41.0501 10.7453 41.6466 11.4736 42.3749C12.202 43.1032 12.7991 44.4274 12.7991 45.3164V45.8661H25.5991C25.5991 45.6933 25.5991 45.5122 25.5991 45.3164C25.5991 44.4274 26.1949 43.1039 26.9239 42.3749C27.6528 41.646 28.2487 41.0501 28.2487 41.0501C30.5674 38.7352 31.9978 35.5352 31.9978 31.9999C31.9984 24.9311 26.2685 19.1999 19.1991 19.1999Z" fill="url(#paint1_linear_828_17053)"/>
<path d="M12.7988 49.0661V53.3323C12.7988 54.5061 13.7588 55.4661 14.9319 55.4661H15.9988L17.0651 57.5999H21.3313L22.3988 55.4661H23.4657C24.6382 55.4661 25.5988 54.5061 25.5988 53.3323V49.0661H12.7988Z" fill="url(#paint2_linear_828_17053)"/>
<path d="M31.9984 11.733L23.466 6.3999V9.5999C17.2906 9.59094 11.1152 11.95 6.39844 16.6661L9.41604 19.6825C13.169 15.9327 18.1776 13.8661 23.466 13.8661V17.0661L31.9984 11.733Z" fill="url(#paint3_linear_828_17053)"/>
<path d="M44.7988 33.0661L39.4644 41.5999H42.6651C42.6651 48.0786 36.932 53.3323 29.8657 53.3323V57.5999C39.2884 57.5999 46.9326 50.4351 46.9326 41.5999H50.1313L44.7988 33.0661Z" fill="url(#paint4_linear_828_17053)"/>
<defs>
<linearGradient id="paint0_linear_828_17053" x1="11.422" y1="11.2318" x2="52.2786" y2="51.4329" gradientUnits="userSpaceOnUse">
<stop stop-color="#F94229"/>
<stop offset="1" stop-color="#BB0A55"/>
</linearGradient>
<linearGradient id="paint1_linear_828_17053" x1="11.422" y1="11.2318" x2="52.2786" y2="51.4329" gradientUnits="userSpaceOnUse">
<stop stop-color="#F94229"/>
<stop offset="1" stop-color="#BB0A55"/>
</linearGradient>
<linearGradient id="paint2_linear_828_17053" x1="11.422" y1="11.2318" x2="52.2786" y2="51.4329" gradientUnits="userSpaceOnUse">
<stop stop-color="#F94229"/>
<stop offset="1" stop-color="#BB0A55"/>
</linearGradient>
<linearGradient id="paint3_linear_828_17053" x1="11.422" y1="11.2318" x2="52.2786" y2="51.4329" gradientUnits="userSpaceOnUse">
<stop stop-color="#F94229"/>
<stop offset="1" stop-color="#BB0A55"/>
</linearGradient>
<linearGradient id="paint4_linear_828_17053" x1="11.422" y1="11.2318" x2="52.2786" y2="51.4329" gradientUnits="userSpaceOnUse">
<stop stop-color="#F94229"/>
<stop offset="1" stop-color="#BB0A55"/>
</linearGradient>
</defs>
</svg>
