<svg width="64" height="64" viewBox="0 0 64 64" fill="none" xmlns="http://www.w3.org/2000/svg">
<path d="M14.45 31.0999C14.45 30.5499 14.9 30.0999 15.45 30.0999C16 30.0999 16.45 30.5499 16.45 31.0999V37.2999H25.1125V28.1249C25.1125 27.5749 25.5625 27.1249 26.1125 27.1249H35.6375C36.6125 27.1249 37.4 26.3249 37.4 25.3499C37.4 24.8124 37.375 24.4499 36.95 24.0374C36.65 23.7374 36.275 23.5874 35.85 23.5874C29.6375 23.6374 23.4 23.8499 17.2125 23.8499C13.4125 23.8499 11.375 25.3249 11.375 29.2374V37.2999H14.4625V31.0999H14.45ZM15.65 21.9374C12.325 18.9999 12.1625 13.8874 15.3 10.7499C18.3 7.7499 23.15 7.7499 26.15 10.7499C29.2 13.7999 29.1375 18.7749 26 21.7374L30.0125 21.6624V11.7499C30.0125 9.8874 31.5375 8.3624 33.4125 8.3624H52.3375C54.2 8.3624 55.725 9.8874 55.725 11.7499V29.6749C55.725 31.5374 54.2 33.0624 52.3375 33.0624H33.4C31.5375 33.0624 30 31.5374 30 29.6749V29.1124H27.1125V37.2874H59.125V8.9874C59.125 7.8624 58.75 6.8499 58.15 6.1249C57.5875 5.4499 56.8375 5.0374 56.025 5.0374H7.975C7.1625 5.0374 6.4 5.4499 5.85 6.1249C5.25 6.8499 4.875 7.8624 4.875 8.9874V37.2874H9.3625V29.2249C9.3625 24.8874 11.575 22.4124 15.65 21.9374ZM16.7125 20.1874C17.65 21.1249 18.9125 21.7374 20.3125 21.8374C20.625 21.8374 20.9375 21.8249 21.2375 21.8249C22.6 21.6999 23.8125 21.0999 24.725 20.1874C26.9375 17.9749 26.9375 14.3874 24.725 12.1749C22.5125 9.9624 18.925 9.9624 16.7125 12.1749C14.5 14.3749 14.5 17.9749 16.7125 20.1874ZM32 21.6374C33.2625 21.6124 34.55 21.5999 35.8375 21.5874C37.8125 21.5749 39.4 23.1624 39.4 25.1249V25.3499C39.4 27.4249 37.7125 29.1249 35.6375 29.1249H32C32 29.7249 31.9375 30.1874 32.4125 30.6624C32.6625 30.9124 33.0125 31.0749 33.4 31.0749H52.325C53.0875 31.0749 53.7125 30.4499 53.7125 29.6874V11.7499C53.7125 10.9874 53.0875 10.3624 52.325 10.3624H33.4C32.6375 10.3624 32.0125 10.9874 32.0125 11.7499V21.6374H32ZM49.075 25.2749C49.625 25.2749 50.075 25.7249 50.075 26.2749C50.075 26.8249 49.625 27.2749 49.075 27.2749H44.3375C43.7875 27.2749 43.3375 26.8249 43.3375 26.2749C43.3375 25.7249 43.7875 25.2749 44.3375 25.2749H49.075ZM49.075 20.9999C49.625 20.9999 50.075 21.4499 50.075 21.9999C50.075 22.5499 49.625 22.9999 49.075 22.9999H43.125C42.575 22.9999 42.125 22.5499 42.125 21.9999C42.125 21.4499 42.575 20.9999 43.125 20.9999H49.075ZM49.075 16.7374C49.625 16.7374 50.075 17.1874 50.075 17.7374C50.075 18.2874 49.625 18.7374 49.075 18.7374H36.625C36.075 18.7374 35.625 18.2874 35.625 17.7374C35.625 17.1874 36.075 16.7374 36.625 16.7374H49.075ZM49.075 12.1749C49.625 12.1749 50.075 12.6249 50.075 13.1749C50.075 13.7249 49.625 14.1749 49.075 14.1749H44.125C43.575 14.1749 43.125 13.7249 43.125 13.1749C43.125 12.6249 43.575 12.1749 44.125 12.1749H49.075ZM29.45 46.4874L26.525 54.4499H37.4625L34.5375 46.4874H29.45ZM24.1625 55.0999L25.325 51.9249H20.5625C18.625 51.9249 17.05 53.5124 17.05 55.4374V58.9499H46.9625V55.4374C46.9625 53.5124 45.375 51.9249 43.45 51.9249H38.6875L39.8375 55.0499C40.125 55.7749 39.6 56.4499 38.925 56.4499H25.1C24.425 56.4374 23.925 55.7499 24.1625 55.0999ZM26.0625 49.9249L27.325 46.4874H7.975C4.9625 46.4874 2.875 43.5749 2.875 40.5249V8.9874C2.875 5.9374 4.975 3.0249 7.975 3.0249H56.0125C59.025 3.0249 61.1125 5.9374 61.1125 8.9874V40.5249C61.1125 43.5749 59.0125 46.4874 56.0125 46.4874H36.675L37.9375 49.9249H43.4375C46.475 49.9249 48.95 52.3999 48.95 55.4374V59.9499C48.95 60.4999 48.5 60.9499 47.95 60.9499H16.05C15.5 60.9499 15.05 60.4999 15.05 59.9499V55.4374C15.05 52.3999 17.5375 49.9249 20.575 49.9249H26.0625ZM28.75 44.4874H35.2375H56.025C56.8375 44.4874 57.6 44.0749 58.15 43.3999C58.75 42.6749 59.125 41.6624 59.125 40.5374V39.2999H4.875V40.5374C4.875 41.6624 5.25 42.6749 5.85 43.3999C6.4125 44.0749 7.1625 44.4874 7.975 44.4874H28.75Z" fill="#C01E6C"/>
</svg>
