<svg width="65" height="65" viewBox="0 0 65 65" fill="none" xmlns="http://www.w3.org/2000/svg">
<rect width="65" height="65" rx="8" fill="white" fill-opacity="0.1"/>
<path d="M20.1681 49.2751C19.2161 49.2751 18.4041 48.9399 17.7321 48.2696C17.0604 47.5996 16.7246 46.7914 16.7246 45.8451C16.7246 44.8958 17.0604 44.0843 17.7321 43.4106C18.4041 42.7369 19.2161 42.4001 20.1681 42.4001C20.3528 42.4001 20.5291 42.4124 20.6971 42.4371C20.8648 42.4618 21.0409 42.5074 21.2256 42.5741L29.7421 34.0576C29.5181 33.4593 29.4864 32.8418 29.6471 32.2051C29.8074 31.5684 30.1129 31.0199 30.5636 30.5596C31.0143 30.0989 31.5596 29.7916 32.1996 29.6376C32.8396 29.4836 33.4588 29.5186 34.0571 29.7426L42.5236 21.2771C42.4903 21.0858 42.4613 20.8989 42.4366 20.7166C42.4119 20.5339 42.3996 20.3513 42.3996 20.1686C42.3996 19.2166 42.7338 18.4046 43.4021 17.7326C44.0704 17.0609 44.8793 16.7251 45.8286 16.7251C46.7783 16.7251 47.5899 17.0603 48.2636 17.7306C48.9376 18.4006 49.2746 19.2088 49.2746 20.1551C49.2746 21.1044 48.9388 21.9159 48.2671 22.5896C47.5951 23.2633 46.7831 23.6001 45.8311 23.6001C45.5578 23.6001 45.1719 23.5588 44.6736 23.4761L36.2571 31.8926C36.4478 32.5243 36.4744 33.1601 36.3371 33.8001C36.1998 34.4401 35.9014 34.9898 35.4421 35.4491C34.9614 35.9374 34.4013 36.2419 33.7616 36.3626C33.1216 36.4833 32.4691 36.4483 31.8041 36.2576L23.7301 44.3316H29.8926C30.1683 43.7329 30.5864 43.2614 31.1471 42.9171C31.7078 42.5724 32.3153 42.4001 32.9696 42.4001C33.6549 42.4001 34.2781 42.5724 34.8391 42.9171C35.4004 43.2614 35.8208 43.7329 36.1001 44.3316H42.7376C43.0563 43.7289 43.4889 43.2564 44.0356 42.9141C44.5826 42.5714 45.1811 42.4001 45.8311 42.4001C46.7831 42.4001 47.5951 42.7343 48.2671 43.4026C48.9388 44.0709 49.2746 44.8798 49.2746 45.8291C49.2746 46.7788 48.9388 47.5904 48.2671 48.2641C47.5951 48.9381 46.7831 49.2751 45.8311 49.2751C45.1651 49.2751 44.5521 49.1033 43.9921 48.7596C43.4321 48.4156 43.0139 47.9396 42.7376 47.3316H36.1111C35.8244 47.9303 35.3998 48.4038 34.8371 48.7521C34.2748 49.1008 33.6624 49.2751 33.0001 49.2751C32.3334 49.2751 31.7184 49.1033 31.1551 48.7596C30.5914 48.4156 30.1711 47.9396 29.8941 47.3316H23.2736C22.9909 47.9383 22.5696 48.4138 22.0096 48.7581C21.4493 49.1028 20.8354 49.2751 20.1681 49.2751ZM20.1706 36.4316C19.2243 36.4316 18.4134 36.0983 17.7381 35.4316C17.0624 34.7649 16.7246 33.9581 16.7246 33.0111C16.7246 32.0638 17.0593 31.2533 17.7286 30.5796C18.3976 29.9056 19.2046 29.5686 20.1496 29.5686C21.0946 29.5686 21.9058 29.9024 22.5831 30.5701C23.2608 31.2374 23.5996 32.0443 23.5996 32.9906C23.5996 33.9369 23.2638 34.7469 22.5921 35.4206C21.9208 36.0946 21.1136 36.4316 20.1706 36.4316ZM20.1656 23.6001C19.2206 23.6001 18.4109 23.2659 17.7366 22.5976C17.0619 21.9293 16.7246 21.1204 16.7246 20.1711C16.7246 19.2214 17.0598 18.4098 17.7301 17.7361C18.4001 17.0621 19.2083 16.7251 20.1546 16.7251C21.1039 16.7251 21.9154 17.0596 22.5891 17.7286C23.2628 18.3976 23.5996 19.2044 23.5996 20.1491C23.5996 21.0938 23.2634 21.9051 22.5911 22.5831C21.9188 23.2611 21.1103 23.6001 20.1656 23.6001ZM33.0091 23.6001C32.0628 23.6001 31.2528 23.2643 30.5791 22.5926C29.9051 21.9213 29.5681 21.1141 29.5681 20.1711C29.5681 19.2248 29.9014 18.4139 30.5681 17.7386C31.2348 17.0629 32.0416 16.7251 32.9886 16.7251C33.9359 16.7251 34.7464 17.0598 35.4201 17.7291C36.0941 18.3981 36.4311 19.2051 36.4311 20.1501C36.4311 21.0951 36.0973 21.9063 35.4296 22.5836C34.7623 23.2613 33.9554 23.6001 33.0091 23.6001ZM45.8496 36.4316C44.9046 36.4316 44.0934 36.0978 43.4161 35.4301C42.7384 34.7628 42.3996 33.9559 42.3996 33.0096C42.3996 32.0633 42.7354 31.2533 43.4071 30.5796C44.0784 29.9056 44.8856 29.5686 45.8286 29.5686C46.7749 29.5686 47.5858 29.9019 48.2611 30.5686C48.9368 31.2353 49.2746 32.0421 49.2746 32.9891C49.2746 33.9364 48.9399 34.7469 48.2706 35.4206C47.6016 36.0946 46.7946 36.4316 45.8496 36.4316Z" fill="url(#paint0_linear_155_907)"/>
<defs>
<linearGradient id="paint0_linear_155_907" x1="44.0677" y1="40.1539" x2="19.4615" y2="40.1166" gradientUnits="userSpaceOnUse">
<stop stop-color="#F37A3A"/>
<stop offset="1" stop-color="#CA1C69"/>
</linearGradient>
</defs>
</svg>
