<svg width="64" height="74" viewBox="0 0 64 74" fill="none" xmlns="http://www.w3.org/2000/svg">
<path d="M10.3362 25.3906L7.68977 29.3614L7.41417 29.086C6.63297 28.3048 5.36738 28.3048 4.58597 29.086C3.80457 29.8672 3.80477 31.1328 4.58597 31.9142L6.58597 33.9142C6.96298 34.291 7.47277 34.5 8.00017 34.5C8.06458 34.5 8.13097 34.496 8.19737 34.4902C8.79317 34.4316 9.33217 34.1074 9.66417 33.6094L13.6642 27.6094C14.2774 26.6894 14.0294 25.4492 13.1096 24.836C12.1858 24.2246 10.9474 24.4708 10.3362 25.3906Z" fill="url(#paint0_linear_828_16830)"/>
<path d="M57.8284 29.5L59.4144 27.914C60.1956 27.1328 60.1956 25.8672 59.4144 25.0858C58.6332 24.3044 57.3676 24.3046 56.5862 25.0858L55.0002 26.6718L53.4142 25.0858C52.633 24.3046 51.3674 24.3046 50.586 25.0858C49.8046 25.867 49.8048 27.1326 50.586 27.914L52.172 29.5L50.586 31.086C49.8048 31.8672 49.8048 33.1328 50.586 33.9142C50.9768 34.3046 51.4884 34.5 52.0002 34.5C52.512 34.5 53.0236 34.3046 53.4142 33.914L55.0002 32.328L56.5862 33.914C56.9768 34.3046 57.4884 34.5 58.0002 34.5C58.512 34.5 59.0236 34.3046 59.4142 33.914C60.1954 33.1328 60.1954 31.8672 59.4142 31.0858L57.8284 29.5Z" fill="url(#paint1_linear_828_16830)"/>
<path d="M16 50.5C19.3137 50.5 22 47.8137 22 44.5C22 41.1863 19.3137 38.5 16 38.5C12.6863 38.5 10 41.1863 10 44.5C10 47.8137 12.6863 50.5 16 50.5Z" fill="url(#paint2_linear_828_16830)"/>
<path d="M19.9786 50.5H16H12.0214C7.5976 50.5 4 54.0878 4 58.5C4 59.6054 4.8946 60.5 6 60.5H26C27.1054 60.5 28 59.6054 28 58.5C28 54.0878 24.4024 50.5 19.9786 50.5Z" fill="url(#paint3_linear_828_16830)"/>
<path d="M48 50.5C51.3137 50.5 54 47.8137 54 44.5C54 41.1863 51.3137 38.5 48 38.5C44.6863 38.5 42 41.1863 42 44.5C42 47.8137 44.6863 50.5 48 50.5Z" fill="url(#paint4_linear_828_16830)"/>
<path d="M51.9786 50.5H48H44.0214C39.5976 50.5 36 54.0878 36 58.5C36 59.6054 36.8946 60.5 38 60.5H58C59.1054 60.5 60 59.6054 60 58.5C60 54.0878 56.4024 50.5 51.9786 50.5Z" fill="url(#paint5_linear_828_16830)"/>
<path d="M47.0076 22.3086L45.8464 21.6318C45.8786 21.252 45.8944 20.876 45.8944 20.5C45.8944 20.124 45.8788 19.748 45.8466 19.3682L47.0078 18.6914C47.957 18.1386 48.2812 16.9238 47.7364 15.9706L43.7706 9.0428C43.506 8.58 43.0674 8.242 42.5528 8.1044C42.042 7.9676 41.4902 8.038 41.0294 8.3076L39.878 8.9776C39.2716 8.5568 38.6328 8.1856 37.965 7.8662V6.5C37.965 5.3956 37.0694 4.5 35.965 4.5H28.0354C26.931 4.5 26.0354 5.3956 26.0354 6.5V7.8662C25.3674 8.1856 24.7288 8.5566 24.1224 8.9776L22.971 8.3076C22.511 8.038 21.9592 7.9668 21.4476 8.1044C20.9324 8.2422 20.494 8.58 20.2292 9.043L16.2644 15.9708C15.7186 16.924 16.0436 18.1388 16.993 18.6916L18.1532 19.3684C18.1208 19.748 18.1052 20.124 18.1052 20.5C18.1052 20.876 18.1208 21.252 18.153 21.6318L16.9928 22.3086C16.0436 22.8614 15.7184 24.0762 16.2642 25.0294L20.229 31.9572C20.4936 32.42 20.9322 32.758 21.4468 32.8956C21.9604 33.0362 22.5122 32.962 22.9702 32.6924L24.1216 32.0224C24.728 32.4432 25.3668 32.8144 26.0346 33.1338V34.5H26.0004V42.5H24.0004V46.5H28.0004C29.1058 46.5 30.0004 45.6054 30.0004 44.5V36.5H34.0004V44.5C34.0004 45.6054 34.895 46.5 36.0004 46.5H40.0004V42.5H38.0004V34.5H37.9646V33.1338C38.6326 32.8144 39.2712 32.4434 39.8776 32.0224L41.029 32.6924C41.489 32.962 42.0398 33.0352 42.5524 32.8956C43.067 32.758 43.5056 32.42 43.7702 31.9572L47.736 25.0294C48.281 24.0762 47.9568 22.8614 47.0076 22.3086ZM28.1238 20.5C28.1238 18.2944 29.9182 16.5 32.1238 16.5C34.3294 16.5 36.1238 18.2944 36.1238 20.5C36.1238 22.7056 34.3294 24.5 32.1238 24.5C29.9182 24.5 28.1238 22.7056 28.1238 20.5Z" fill="url(#paint6_linear_828_16830)"/>
<defs>
<linearGradient id="paint0_linear_828_16830" x1="9.49442" y1="9.7849" x2="54.1814" y2="53.7538" gradientUnits="userSpaceOnUse">
<stop stop-color="#F94229"/>
<stop offset="1" stop-color="#BB0A55"/>
</linearGradient>
<linearGradient id="paint1_linear_828_16830" x1="9.49442" y1="9.7849" x2="54.1814" y2="53.7538" gradientUnits="userSpaceOnUse">
<stop stop-color="#F94229"/>
<stop offset="1" stop-color="#BB0A55"/>
</linearGradient>
<linearGradient id="paint2_linear_828_16830" x1="9.49442" y1="9.7849" x2="54.1814" y2="53.7538" gradientUnits="userSpaceOnUse">
<stop stop-color="#F94229"/>
<stop offset="1" stop-color="#BB0A55"/>
</linearGradient>
<linearGradient id="paint3_linear_828_16830" x1="9.49442" y1="9.7849" x2="54.1814" y2="53.7538" gradientUnits="userSpaceOnUse">
<stop stop-color="#F94229"/>
<stop offset="1" stop-color="#BB0A55"/>
</linearGradient>
<linearGradient id="paint4_linear_828_16830" x1="9.49442" y1="9.7849" x2="54.1814" y2="53.7538" gradientUnits="userSpaceOnUse">
<stop stop-color="#F94229"/>
<stop offset="1" stop-color="#BB0A55"/>
</linearGradient>
<linearGradient id="paint5_linear_828_16830" x1="9.49442" y1="9.7849" x2="54.1814" y2="53.7538" gradientUnits="userSpaceOnUse">
<stop stop-color="#F94229"/>
<stop offset="1" stop-color="#BB0A55"/>
</linearGradient>
<linearGradient id="paint6_linear_828_16830" x1="9.49442" y1="9.7849" x2="54.1814" y2="53.7538" gradientUnits="userSpaceOnUse">
<stop stop-color="#F94229"/>
<stop offset="1" stop-color="#BB0A55"/>
</linearGradient>
</defs>
</svg>
