<svg width="64" height="64" viewBox="0 0 64 64" fill="none" xmlns="http://www.w3.org/2000/svg">
<path fill-rule="evenodd" clip-rule="evenodd" d="M20.4797 57.6937L18.1422 61.705C17.9559 62.025 18.2084 62.375 18.5272 62.375H45.4709C45.7909 62.375 46.0422 62.025 45.8559 61.705L43.5184 57.6937H20.4797ZM31.9997 26.1963C28.9022 26.1963 27.3434 29.9575 29.5347 32.1488C31.7247 34.3387 35.4872 32.78 35.4872 29.6838C35.4859 27.7575 33.9259 26.1963 31.9997 26.1963ZM23.1859 16.0763L24.5009 19.205L27.8834 19.4888L25.3147 21.7062L26.0897 25.0112L23.1859 23.2525L20.2822 25.0112L21.0572 21.7062L18.4884 19.4888L21.8709 19.205L23.1859 16.0763ZM40.8134 16.0763L42.1284 19.205L45.5109 19.4888L42.9422 21.7062L43.7172 25.0112L40.8134 23.2525L37.9097 25.0112L38.6847 21.7062L36.1159 19.4888L39.4984 19.205L40.8134 16.0763ZM31.9997 8.35625L30.6847 11.485L27.3022 11.7688L29.8709 13.9862L29.0959 17.2913L31.9997 15.5325L34.9034 17.2913L34.1284 13.9862L36.6972 11.7688L33.3147 11.485L31.9997 8.35625ZM47.3397 9.985V24.525C47.3397 28.8438 45.5672 32.3025 42.0634 34.8213L39.1184 36.9375C38.0722 35.6912 36.7097 34.7262 35.1672 34.1625C37.9384 32.1987 38.2859 28.2112 35.8784 25.8037C33.7359 23.6612 30.2622 23.6612 28.1197 25.8037C25.7109 28.2125 26.0597 32.2 28.8309 34.1625C27.2884 34.7262 25.9259 35.6912 24.8797 36.9375L21.9347 34.8213C18.4309 32.3025 16.6597 28.8438 16.6597 24.525V9.985C28.2247 3.615 35.7734 3.615 47.3397 9.985ZM26.5059 38.1063L31.9997 42.0537L37.4934 38.105C34.5734 34.7687 29.4259 34.77 26.5059 38.1063ZM51.9172 7.33375V24.525C51.9172 30.3088 49.4309 35.1587 44.7334 38.5337L31.9997 47.6862L19.2647 38.5337C14.5684 35.1575 12.0822 30.3088 12.0822 24.525V7.33375C27.1584 -1.61125 36.8409 -1.61125 51.9172 7.33375ZM48.7784 8.49875C49.1109 8.66125 49.3409 9.0025 49.3409 9.3975V24.525C49.3409 29.47 47.2472 33.55 43.2284 36.4375L32.5997 44.0762C32.2609 44.3325 31.7809 44.35 31.4172 44.0887L20.7709 36.4362C16.7522 33.5487 14.6597 29.4688 14.6597 24.5238L14.6609 9.3975C14.6609 9.04875 14.8447 8.70875 15.1709 8.52625C27.7797 1.45125 36.1659 1.43375 48.7784 8.49875ZM59.4759 51.4738H4.52344V52.825C4.52344 54.4025 5.81469 55.6937 7.39219 55.6937H56.6059C58.1834 55.6937 59.4747 54.4025 59.4747 52.825V51.4738H59.4759ZM59.4759 49.4738H32.9409L45.9022 40.1587C51.1222 36.4075 53.9184 30.9525 53.9184 24.525V15.4225H56.6072C58.1847 15.4225 59.4759 16.7138 59.4759 18.2913V49.4738ZM10.0822 15.4225V24.525C10.0822 30.9525 12.8784 36.4075 18.0984 40.1587L31.0597 49.4738H4.52344V18.2913C4.52344 16.7138 5.81469 15.4225 7.39219 15.4225H10.0822Z" fill="url(#paint0_linear_828_16958)"/>
<defs>
<linearGradient id="paint0_linear_828_16958" x1="9.91506" y1="6.45255" x2="58.7653" y2="49.2266" gradientUnits="userSpaceOnUse">
<stop stop-color="#F94229"/>
<stop offset="1" stop-color="#BB0A55"/>
</linearGradient>
</defs>
</svg>
