<svg width="64" height="74" viewBox="0 0 64 74" fill="none" xmlns="http://www.w3.org/2000/svg">
<g clip-path="url(#clip0_828_16834)">
<path d="M22.625 22.4939V28.939C22.625 35.3952 26.278 41.2862 32 44.1755C37.722 41.2864 41.375 35.3954 41.375 28.939V22.4939C35.0784 19.9832 28.9216 19.9832 22.625 22.4939ZM37.3034 28.5225C38.0356 29.2547 38.0356 30.4419 37.3034 31.1741L32 36.4775C31.2677 37.2097 30.0806 37.2097 29.3484 36.4775L26.6968 33.8259C25.9645 33.0936 25.9645 31.9065 26.6968 31.1742C27.429 30.442 28.6161 30.442 29.3484 31.1742L30.6742 32.5L34.6517 28.5225C35.3839 27.7902 36.5711 27.7902 37.3034 28.5225Z" fill="url(#paint0_linear_828_16834)"/>
<path d="M49.5 11.25H14.5C12.4289 11.25 10.75 12.9289 10.75 15V50C10.75 52.0711 12.4289 53.75 14.5 53.75H49.5C51.5711 53.75 53.25 52.0711 53.25 50V15C53.25 12.9289 51.5711 11.25 49.5 11.25ZM45.125 28.939C45.125 37.1579 40.272 44.6254 32.7615 47.9634C32.5191 48.0711 32.2596 48.125 32 48.125C31.7404 48.125 31.4809 48.0711 31.2385 47.9634C23.728 44.6254 18.875 37.1579 18.875 28.939V21.25C18.875 20.509 19.3114 19.8375 19.9885 19.5366C27.9589 15.9942 36.0412 15.9942 44.0116 19.5366C44.6886 19.8375 45.125 20.509 45.125 21.25V28.939Z" fill="url(#paint1_linear_828_16834)"/>
<path d="M22 60.75H21.375V57.5H17.625V60.75H17C15.9645 60.75 15.125 61.5895 15.125 62.625C15.125 63.6605 15.9645 64.5 17 64.5H22C23.0355 64.5 23.875 63.6605 23.875 62.625C23.875 61.5895 23.0355 60.75 22 60.75Z" fill="url(#paint2_linear_828_16834)"/>
<path d="M34.5 60.75H33.875V57.5H30.125V60.75H29.5C28.4645 60.75 27.625 61.5895 27.625 62.625C27.625 63.6605 28.4645 64.5 29.5 64.5H34.5C35.5355 64.5 36.375 63.6605 36.375 62.625C36.375 61.5895 35.5355 60.75 34.5 60.75Z" fill="url(#paint3_linear_828_16834)"/>
<path d="M47 60.75H46.375V57.5H42.625V60.75H42C40.9645 60.75 40.125 61.5895 40.125 62.625C40.125 63.6605 40.9645 64.5 42 64.5H47C48.0355 64.5 48.875 63.6605 48.875 62.625C48.875 61.5895 48.0355 60.75 47 60.75Z" fill="url(#paint4_linear_828_16834)"/>
<path d="M17 4.25H17.625V7.5H21.375V4.25H22C23.0355 4.25 23.875 3.4105 23.875 2.375C23.875 1.3395 23.0355 0.5 22 0.5H17C15.9645 0.5 15.125 1.3395 15.125 2.375C15.125 3.4105 15.9645 4.25 17 4.25Z" fill="url(#paint5_linear_828_16834)"/>
<path d="M29.5 4.25H30.125V7.5H33.875V4.25H34.5C35.5355 4.25 36.375 3.4105 36.375 2.375C36.375 1.3395 35.5355 0.5 34.5 0.5H29.5C28.4645 0.5 27.625 1.3395 27.625 2.375C27.625 3.4105 28.4645 4.25 29.5 4.25Z" fill="url(#paint6_linear_828_16834)"/>
<path d="M42 4.25H42.625V7.5H46.375V4.25H47C48.0355 4.25 48.875 3.4105 48.875 2.375C48.875 1.3395 48.0355 0.5 47 0.5H42C40.9645 0.5 40.125 1.3395 40.125 2.375C40.125 3.4105 40.9645 4.25 42 4.25Z" fill="url(#paint7_linear_828_16834)"/>
<path d="M62.125 40.625C61.0895 40.625 60.25 41.4645 60.25 42.5V43.125H57V46.875H60.25V47.5C60.25 48.5355 61.0895 49.375 62.125 49.375C63.1605 49.375 64 48.5355 64 47.5V42.5C64 41.4645 63.1605 40.625 62.125 40.625Z" fill="url(#paint8_linear_828_16834)"/>
<path d="M62.125 28.125C61.0895 28.125 60.25 28.9645 60.25 30V30.625H57V34.375H60.25V35C60.25 36.0355 61.0895 36.875 62.125 36.875C63.1605 36.875 64 36.0355 64 35V30C64 28.9645 63.1605 28.125 62.125 28.125Z" fill="url(#paint9_linear_828_16834)"/>
<path d="M62.125 15.625C61.0895 15.625 60.25 16.4645 60.25 17.5V18.125H57V21.875H60.25V22.5C60.25 23.5355 61.0895 24.375 62.125 24.375C63.1605 24.375 64 23.5355 64 22.5V17.5C64 16.4645 63.1605 15.625 62.125 15.625Z" fill="url(#paint10_linear_828_16834)"/>
<path d="M3.75 30C3.75 28.9645 2.9105 28.125 1.875 28.125C0.8395 28.125 0 28.9645 0 30V35C0 36.0355 0.8395 36.875 1.875 36.875C2.9105 36.875 3.75 36.0355 3.75 35V34.375H7V30.625H3.75V30Z" fill="url(#paint11_linear_828_16834)"/>
<path d="M3.75 42.5C3.75 41.4645 2.9105 40.625 1.875 40.625C0.8395 40.625 0 41.4645 0 42.5V47.5C0 48.5355 0.8395 49.375 1.875 49.375C2.9105 49.375 3.75 48.5355 3.75 47.5V46.875H7V43.125H3.75V42.5Z" fill="url(#paint12_linear_828_16834)"/>
<path d="M3.75 17.5C3.75 16.4645 2.9105 15.625 1.875 15.625C0.8395 15.625 0 16.4645 0 17.5V22.5C0 23.5355 0.8395 24.375 1.875 24.375C2.9105 24.375 3.75 23.5355 3.75 22.5V21.875H7V18.125H3.75V17.5Z" fill="url(#paint13_linear_828_16834)"/>
</g>
<defs>
<linearGradient id="paint0_linear_828_16834" x1="6.27931" y1="6.53989" x2="57.3501" y2="56.7899" gradientUnits="userSpaceOnUse">
<stop stop-color="#F94229"/>
<stop offset="1" stop-color="#BB0A55"/>
</linearGradient>
<linearGradient id="paint1_linear_828_16834" x1="6.27931" y1="6.53989" x2="57.3501" y2="56.7899" gradientUnits="userSpaceOnUse">
<stop stop-color="#F94229"/>
<stop offset="1" stop-color="#BB0A55"/>
</linearGradient>
<linearGradient id="paint2_linear_828_16834" x1="6.27931" y1="6.53989" x2="57.3501" y2="56.7899" gradientUnits="userSpaceOnUse">
<stop stop-color="#F94229"/>
<stop offset="1" stop-color="#BB0A55"/>
</linearGradient>
<linearGradient id="paint3_linear_828_16834" x1="6.27931" y1="6.53989" x2="57.3501" y2="56.7899" gradientUnits="userSpaceOnUse">
<stop stop-color="#F94229"/>
<stop offset="1" stop-color="#BB0A55"/>
</linearGradient>
<linearGradient id="paint4_linear_828_16834" x1="6.27931" y1="6.53989" x2="57.3501" y2="56.7899" gradientUnits="userSpaceOnUse">
<stop stop-color="#F94229"/>
<stop offset="1" stop-color="#BB0A55"/>
</linearGradient>
<linearGradient id="paint5_linear_828_16834" x1="6.27931" y1="6.53989" x2="57.3501" y2="56.7899" gradientUnits="userSpaceOnUse">
<stop stop-color="#F94229"/>
<stop offset="1" stop-color="#BB0A55"/>
</linearGradient>
<linearGradient id="paint6_linear_828_16834" x1="6.27931" y1="6.53989" x2="57.3501" y2="56.7899" gradientUnits="userSpaceOnUse">
<stop stop-color="#F94229"/>
<stop offset="1" stop-color="#BB0A55"/>
</linearGradient>
<linearGradient id="paint7_linear_828_16834" x1="6.27931" y1="6.53989" x2="57.3501" y2="56.7899" gradientUnits="userSpaceOnUse">
<stop stop-color="#F94229"/>
<stop offset="1" stop-color="#BB0A55"/>
</linearGradient>
<linearGradient id="paint8_linear_828_16834" x1="6.27931" y1="6.53989" x2="57.3501" y2="56.7899" gradientUnits="userSpaceOnUse">
<stop stop-color="#F94229"/>
<stop offset="1" stop-color="#BB0A55"/>
</linearGradient>
<linearGradient id="paint9_linear_828_16834" x1="6.27931" y1="6.53989" x2="57.3501" y2="56.7899" gradientUnits="userSpaceOnUse">
<stop stop-color="#F94229"/>
<stop offset="1" stop-color="#BB0A55"/>
</linearGradient>
<linearGradient id="paint10_linear_828_16834" x1="6.27931" y1="6.53989" x2="57.3501" y2="56.7899" gradientUnits="userSpaceOnUse">
<stop stop-color="#F94229"/>
<stop offset="1" stop-color="#BB0A55"/>
</linearGradient>
<linearGradient id="paint11_linear_828_16834" x1="6.27931" y1="6.53989" x2="57.3501" y2="56.7899" gradientUnits="userSpaceOnUse">
<stop stop-color="#F94229"/>
<stop offset="1" stop-color="#BB0A55"/>
</linearGradient>
<linearGradient id="paint12_linear_828_16834" x1="6.27931" y1="6.53989" x2="57.3501" y2="56.7899" gradientUnits="userSpaceOnUse">
<stop stop-color="#F94229"/>
<stop offset="1" stop-color="#BB0A55"/>
</linearGradient>
<linearGradient id="paint13_linear_828_16834" x1="6.27931" y1="6.53989" x2="57.3501" y2="56.7899" gradientUnits="userSpaceOnUse">
<stop stop-color="#F94229"/>
<stop offset="1" stop-color="#BB0A55"/>
</linearGradient>
<clipPath id="clip0_828_16834">
<rect width="64" height="64" fill="white" transform="translate(0 0.5)"/>
</clipPath>
</defs>
</svg>
