<svg width="32" height="32" viewBox="0 0 32 32" fill="none" xmlns="http://www.w3.org/2000/svg">
<rect opacity="0.4" x="8" y="8" width="16" height="16" rx="8" fill="#C01E6C"/>
<path d="M2.66699 15.9974C2.66699 23.3614 8.63633 29.3307 16.0003 29.3307C23.3643 29.3307 29.3337 23.3614 29.3337 15.9974C29.3337 8.6334 23.3643 2.66406 16.0003 2.66406" stroke="#C01E6C" stroke-width="2" stroke-linecap="round" stroke-linejoin="round"/>
<path d="M24 16C24 11.582 20.418 8 16 8C11.582 8 8 11.582 8 16C8 20.418 11.582 24 16 24" stroke="#C01E6C" stroke-width="2" stroke-linecap="round" stroke-linejoin="round"/>
<path d="M24 16C24 11.582 20.418 8 16 8C11.582 8 8 11.582 8 16C8 20.418 11.582 24 16 24" stroke="#C01E6C" stroke-width="2" stroke-linecap="round" stroke-linejoin="round"/>
</svg>
