<svg width="52" height="58" viewBox="0 0 52 58" fill="none" xmlns="http://www.w3.org/2000/svg">
<path d="M42.6533 36.6667C45.1653 33.5292 46.7399 29.7459 47.1957 25.7526C47.6515 21.7594 46.97 17.7186 45.2296 14.0957C43.4893 10.4729 40.7609 7.41535 37.3588 5.27537C33.9566 3.13539 30.0192 2 26 2C21.9808 2 18.0434 3.13539 14.6413 5.27537C11.2392 7.41535 8.51077 10.4729 6.77041 14.0957C5.03004 17.7186 4.34851 21.7594 4.8043 25.7526C5.2601 29.7459 6.83468 33.5292 9.34668 36.6667M23.3333 44.6667H28.6667M36.3733 14.2933L41.7387 8.93333M20.6667 23.3333C20.6667 24.7478 21.2286 26.1044 22.2288 27.1046C23.229 28.1048 24.5855 28.6667 26 28.6667C27.4145 28.6667 28.771 28.1048 29.7712 27.1046C30.7714 26.1044 31.3333 24.7478 31.3333 23.3333C31.3333 21.9188 30.7714 20.5623 29.7712 19.5621C28.771 18.5619 27.4145 18 26 18C24.5855 18 23.229 18.5619 22.2288 19.5621C21.2286 20.5623 20.6667 21.9188 20.6667 23.3333ZM2 46C2 42.256 2 40.3813 2.808 39.0373C3.16 38.456 3.608 37.9547 4.13333 37.5653C5.344 36.6667 7.02933 36.6667 10.4 36.6667H41.6C44.9707 36.6667 46.656 36.6667 47.8667 37.5653C48.392 37.9547 48.84 38.456 49.192 39.0373C50 40.3813 50 42.256 50 46C50 49.744 50 51.6187 49.192 52.9627C48.84 53.544 48.392 54.0453 47.8667 54.4347C46.656 55.3333 44.9707 55.3333 41.6 55.3333H10.4C7.02933 55.3333 5.344 55.3333 4.13333 54.4347C3.59901 54.036 3.14863 53.5357 2.808 52.9627C2 51.6187 2 49.744 2 46Z" stroke="url(#paint0_linear_696_6729)" stroke-width="4" stroke-linecap="round"/>
<defs>
<linearGradient id="paint0_linear_696_6729" x1="2" y1="2" x2="57.9816" y2="12.4098" gradientUnits="userSpaceOnUse">
<stop stop-color="#511F5E"/>
<stop offset="1" stop-color="#C01E6C"/>
</linearGradient>
</defs>
</svg>
