<svg width="58" height="58" viewBox="0 0 58 58" fill="none" xmlns="http://www.w3.org/2000/svg">
<path d="M15.4988 47.3367C15.3296 46.2452 14.3076 45.4974 13.2161 45.6666C12.1245 45.8357 11.3768 46.8577 11.5459 47.9493L13.5224 47.643L15.4988 47.3367ZM14.2388 51.8253L12.2729 52.1926L12.2735 52.1961L14.2388 51.8253ZM17.3051 54.9705L17.6057 52.9933L17.6033 52.9929L17.3051 54.9705ZM28.0087 54.9997L28.2686 56.9827L28.2691 56.9827L28.0087 54.9997ZM31.4891 51.2181L29.5007 51.0026L29.5007 51.0028L31.4891 51.2181ZM33.8672 47.8366C33.9863 46.7385 33.1925 45.7518 32.0944 45.6328C30.9962 45.5138 30.0095 46.3075 29.8905 47.4057L31.8789 47.6211L33.8672 47.8366ZM42.8316 2.63088L41.0776 1.6699L41.0769 1.67115L42.8316 2.63088ZM43.8966 2V0V2ZM44.9616 2.63088L46.7163 1.67115L46.7156 1.6699L44.9616 2.63088ZM47.3806 7.05364L49.1353 6.09394L49.1353 6.09391L47.3806 7.05364ZM50.2769 9.94993L51.2367 8.19525L51.2366 8.19523L50.2769 9.94993ZM54.6997 12.369L55.6607 10.615L55.6594 10.6143L54.6997 12.369ZM54.6997 14.499L55.6594 16.2537L55.6607 16.253L54.6997 14.499ZM50.2769 16.918L51.2366 18.6727L51.2367 18.6727L50.2769 16.918ZM47.3806 19.8143L49.1353 20.7741L49.1353 20.774L47.3806 19.8143ZM44.9616 24.2371L46.7156 25.1981L46.7163 25.1968L44.9616 24.2371ZM42.8316 24.2371L41.0769 25.1968L41.0776 25.1981L42.8316 24.2371ZM40.4126 19.8143L38.6578 20.774L38.6579 20.7741L40.4126 19.8143ZM37.5163 16.918L36.5565 18.6727L36.5566 18.6727L37.5163 16.918ZM33.0935 14.499L32.1325 16.253L32.1338 16.2537L33.0935 14.499ZM32.4626 13.434H30.4626H32.4626ZM33.0935 12.369L32.1338 10.6143L32.1325 10.615L33.0935 12.369ZM37.5163 9.94993L36.5566 8.19523L36.5565 8.19525L37.5163 9.94993ZM40.4126 7.05364L38.6579 6.09391L38.6578 6.09394L40.4126 7.05364ZM29.7745 7.73763C30.7955 8.15923 31.9649 7.67336 32.3865 6.65241C32.8081 5.63146 32.3222 4.46205 31.3012 4.04046L30.5379 5.88905L29.7745 7.73763ZM22.6444 4.32614V6.32614L22.6458 6.32614L22.6444 4.32614ZM9.91288 41.2226L11.8531 40.7372C11.7453 40.3061 11.4969 39.9232 11.1473 39.649L9.91288 41.2226ZM11.092 45.4486L13.0036 44.8606L13.0033 44.8593L11.092 45.4486ZM13.7333 47.6733L13.5246 49.6624L13.5263 49.6626L13.7333 47.6733ZM31.5555 47.6733L31.7626 49.6626L31.7642 49.6624L31.5555 47.6733ZM34.1956 45.4474L32.284 44.8594L32.2833 44.8616L34.1956 45.4474ZM35.376 41.2226L34.1423 39.6484C33.7911 39.9236 33.5421 40.3083 33.4347 40.7414L35.376 41.2226ZM43.9662 32.6142C44.34 31.5748 43.8004 30.4292 42.761 30.0554C41.7215 29.6817 40.5759 30.2213 40.2022 31.2607L42.0842 31.9374L43.9662 32.6142ZM13.5224 47.643L11.5459 47.9493C11.7963 49.5651 12.0563 51.0336 12.2729 52.1926L14.2388 51.8253L16.2048 51.458C15.9939 50.3292 15.7414 48.9025 15.4988 47.3367L13.5224 47.643ZM14.2388 51.8253L12.2735 52.1961C12.7068 54.4927 14.4076 56.5562 17.0069 56.9482L17.3051 54.9705L17.6033 52.9929C16.9652 52.8967 16.378 52.376 16.2042 51.4545L14.2388 51.8253ZM17.3051 54.9705L17.0046 56.9478C18.3783 57.1567 20.2434 57.33 22.6448 57.33V55.33V53.33C20.4363 53.33 18.7724 53.1706 17.6057 52.9933L17.3051 54.9705ZM22.6448 55.33V57.33C24.9285 57.33 26.8164 57.1731 28.2686 56.9827L28.0087 54.9997L27.7487 53.0167C26.4589 53.1857 24.7449 53.33 22.6448 53.33V55.33ZM28.0087 54.9997L28.2691 56.9827C31.2475 56.5916 33.1853 54.1308 33.4774 51.4335L31.4891 51.2181L29.5007 51.0028C29.3751 52.1623 28.617 52.9026 27.7483 53.0167L28.0087 54.9997ZM31.4891 51.2181L33.4774 51.4336L33.8672 47.8366L31.8789 47.6211L29.8905 47.4057L29.5007 51.0026L31.4891 51.2181ZM42.8316 2.63088L44.5856 3.59186C44.5179 3.71542 44.4182 3.8185 44.297 3.89031L43.2777 2.16956L42.2584 0.448807C41.7624 0.742601 41.3546 1.16436 41.0776 1.6699L42.8316 2.63088ZM43.2777 2.16956L44.297 3.89031C44.1758 3.96211 44.0375 4 43.8966 4V2V0C43.3202 0 42.7543 0.155014 42.2584 0.448807L43.2777 2.16956ZM43.8966 2V4C43.7557 4 43.6174 3.96211 43.4962 3.89031L44.5155 2.16956L45.5348 0.448807C45.0389 0.155014 44.473 0 43.8966 0V2ZM44.5155 2.16956L43.4962 3.89031C43.375 3.81849 43.2753 3.7154 43.2076 3.59186L44.9616 2.63088L46.7156 1.6699C46.4386 1.16437 46.0308 0.742609 45.5348 0.448807L44.5155 2.16956ZM44.9616 2.63088L43.2069 3.59061L45.626 8.01337L47.3806 7.05364L49.1353 6.09391L46.7163 1.67115L44.9616 2.63088ZM47.3806 7.05364L45.6259 8.01334C46.4781 9.57142 47.7592 10.8525 49.3172 11.7046L50.2769 9.94993L51.2366 8.19523C50.3497 7.71013 49.6204 6.98089 49.1353 6.09394L47.3806 7.05364ZM50.2769 9.94993L49.3172 11.7046L53.74 14.1237L54.6997 12.369L55.6594 10.6143L51.2367 8.19525L50.2769 9.94993ZM54.6997 12.369L53.7387 14.123C53.6152 14.0553 53.5121 13.9556 53.4403 13.8344L55.161 12.8151L56.8818 11.7957C56.588 11.2998 56.1662 10.8919 55.6607 10.615L54.6997 12.369ZM55.161 12.8151L53.4403 13.8344C53.3685 13.7132 53.3306 13.5749 53.3306 13.434H55.3306H57.3306C57.3306 12.8576 57.1756 12.2917 56.8818 11.7957L55.161 12.8151ZM55.3306 13.434H53.3306C53.3306 13.2931 53.3685 13.1548 53.4403 13.0336L55.161 14.0529L56.8818 15.0722C57.1756 14.5763 57.3306 14.0104 57.3306 13.434H55.3306ZM55.161 14.0529L53.4403 13.0336C53.5121 12.9124 53.6152 12.8127 53.7387 12.745L54.6997 14.499L55.6607 16.253C56.1662 15.976 56.588 15.5682 56.8818 15.0722L55.161 14.0529ZM54.6997 14.499L53.74 12.7443L49.3172 15.1633L50.2769 16.918L51.2367 18.6727L55.6594 16.2537L54.6997 14.499ZM50.2769 16.918L49.3172 15.1633C47.7592 16.0155 46.4781 17.2965 45.6259 18.8546L47.3806 19.8143L49.1353 20.774C49.6204 19.8871 50.3497 19.1578 51.2366 18.6727L50.2769 16.918ZM47.3806 19.8143L45.626 18.8546L43.2069 23.2774L44.9616 24.2371L46.7163 25.1968L49.1353 20.7741L47.3806 19.8143ZM44.9616 24.2371L43.2076 23.2761C43.2753 23.1526 43.375 23.0495 43.4962 22.9777L44.5155 24.6984L45.5348 26.4192C46.0308 26.1254 46.4386 25.7036 46.7156 25.1981L44.9616 24.2371ZM44.5155 24.6984L43.4962 22.9777C43.6174 22.9059 43.7557 22.868 43.8966 22.868V24.868V26.868C44.4731 26.868 45.0389 26.7129 45.5348 26.4192L44.5155 24.6984ZM43.8966 24.868V22.868C44.0375 22.868 44.1758 22.9059 44.297 22.9777L43.2777 24.6984L42.2584 26.4192C42.7543 26.7129 43.3201 26.868 43.8966 26.868V24.868ZM43.2777 24.6984L44.297 22.9777C44.4182 23.0495 44.5179 23.1525 44.5856 23.2761L42.8316 24.2371L41.0776 25.1981C41.3546 25.7036 41.7624 26.1254 42.2584 26.4192L43.2777 24.6984ZM42.8316 24.2371L44.5863 23.2774L42.1672 18.8546L40.4126 19.8143L38.6579 20.7741L41.0769 25.1968L42.8316 24.2371ZM40.4126 19.8143L42.1673 18.8546C41.3151 17.2965 40.034 16.0155 38.476 15.1633L37.5163 16.918L36.5566 18.6727C37.4435 19.1578 38.1728 19.8871 38.6578 20.774L40.4126 19.8143ZM37.5163 16.918L38.476 15.1633L34.0532 12.7443L33.0935 14.499L32.1338 16.2537L36.5565 18.6727L37.5163 16.918ZM33.0935 14.499L34.0545 12.745C34.178 12.8127 34.2811 12.9124 34.3529 13.0336L32.6322 14.0529L30.9114 15.0722C31.2052 15.5682 31.627 15.976 32.1325 16.253L33.0935 14.499ZM32.6322 14.0529L34.3529 13.0336C34.4247 13.1548 34.4626 13.2931 34.4626 13.434H32.4626H30.4626C30.4626 14.0104 30.6176 14.5763 30.9114 15.0722L32.6322 14.0529ZM32.4626 13.434H34.4626C34.4626 13.5749 34.4247 13.7132 34.3529 13.8344L32.6322 12.8151L30.9114 11.7957C30.6176 12.2917 30.4626 12.8575 30.4626 13.434H32.4626ZM32.6322 12.8151L34.3529 13.8344C34.2811 13.9556 34.178 14.0553 34.0545 14.123L33.0935 12.369L32.1325 10.615C31.627 10.892 31.2052 11.2998 30.9114 11.7957L32.6322 12.8151ZM33.0935 12.369L34.0532 14.1237L38.476 11.7046L37.5163 9.94993L36.5565 8.19525L32.1338 10.6143L33.0935 12.369ZM37.5163 9.94993L38.476 11.7046C40.034 10.8525 41.3151 9.57142 42.1673 8.01334L40.4126 7.05364L38.6578 6.09394C38.1728 6.98089 37.4435 7.71013 36.5566 8.19523L37.5163 9.94993ZM40.4126 7.05364L42.1672 8.01337L44.5863 3.59061L42.8316 2.63088L41.0769 1.67115L38.6579 6.09391L40.4126 7.05364ZM30.5379 5.88905L31.3012 4.04046C28.5556 2.90665 25.6136 2.32415 22.6431 2.32614L22.6444 4.32614L22.6458 6.32614C25.0916 6.3245 27.5138 6.8041 29.7745 7.73763L30.5379 5.88905ZM22.6444 4.32614V2.32614C10.1381 2.32614 0 12.4642 0 24.9706H2H4C4 14.6733 12.3472 6.32614 22.6444 6.32614V4.32614ZM2 24.9706H0C0 32.2085 3.39855 38.6542 8.67845 42.7962L9.91288 41.2226L11.1473 39.649C6.79234 36.2326 4 30.928 4 24.9706H2ZM9.91288 41.2226L7.97268 41.708C8.3364 43.1619 8.73926 44.6057 9.18082 46.0379L11.092 45.4486L13.0033 44.8593C12.5829 43.4959 12.1994 42.1213 11.8531 40.7372L9.91288 41.2226ZM11.092 45.4486L9.18045 46.0366C9.77297 47.9628 11.4133 49.4409 13.5246 49.6624L13.7333 47.6733L13.942 45.6843C13.5299 45.641 13.1567 45.3583 13.0036 44.8606L11.092 45.4486ZM13.7333 47.6733L13.5263 49.6626C15.2966 49.8469 18.2191 50.0437 22.6444 50.0437V48.0437V46.0437C18.3359 46.0437 15.5533 45.852 13.9404 45.6841L13.7333 47.6733ZM22.6444 48.0437V50.0437C27.0697 50.0437 29.9922 49.8469 31.7626 49.6626L31.5555 47.6733L31.3485 45.6841C29.7356 45.852 26.9529 46.0437 22.6444 46.0437V48.0437ZM31.5555 47.6733L31.7642 49.6624C33.8757 49.4409 35.5169 47.9624 36.1079 46.0331L34.1956 45.4474L32.2833 44.8616C32.131 45.3587 31.7588 45.641 31.3469 45.6843L31.5555 47.6733ZM34.1956 45.4474L36.1072 46.0354C36.4627 44.8798 36.9146 43.3281 37.3172 41.7038L35.376 41.2226L33.4347 40.7414C33.0553 42.272 32.6255 43.749 32.284 44.8594L34.1956 45.4474ZM35.376 41.2226L36.6096 42.7968C39.9711 40.1624 42.521 36.633 43.9662 32.6142L42.0842 31.9374L40.2022 31.2607C39.0117 34.5711 36.9113 37.4784 34.1423 39.6484L35.376 41.2226Z" fill="url(#paint0_linear_696_6742)"/>
<defs>
<linearGradient id="paint0_linear_696_6742" x1="2" y1="2" x2="63.7147" y2="14.7511" gradientUnits="userSpaceOnUse">
<stop stop-color="#511F5E"/>
<stop offset="1" stop-color="#C01E6C"/>
</linearGradient>
</defs>
</svg>
