<svg width="59" height="54" viewBox="0 0 59 54" fill="none" xmlns="http://www.w3.org/2000/svg">
<path d="M1.4026 1.4026V0C1.03061 0 0.673849 0.147773 0.410811 0.410811C0.147773 0.673849 0 1.03061 0 1.4026H1.4026ZM32.2597 1.4026H33.6623C33.6623 1.03061 33.5146 0.673849 33.2515 0.410811C32.9885 0.147773 32.6317 0 32.2597 0V1.4026ZM32.2597 18.2338V16.8312C31.8877 16.8312 31.531 16.9789 31.2679 17.242C31.0049 17.505 30.8571 17.8618 30.8571 18.2338H32.2597ZM1.4026 2.80519H32.2597V0H1.4026V2.80519ZM30.8571 1.4026V46.2857H33.6623V1.4026H30.8571ZM2.80519 40.6753V1.4026H0V40.6753H2.80519ZM32.2597 19.6364H46.2857V16.8312H32.2597V19.6364ZM56.1039 29.4545V40.6753H58.9091V29.4545H56.1039ZM33.6623 46.2857V18.2338H30.8571V46.2857H33.6623ZM49.2592 49.2592C48.4702 50.0472 47.4008 50.4898 46.2857 50.4898C45.1706 50.4898 44.1012 50.0472 43.3122 49.2592L41.3261 51.2453C41.9774 51.8967 42.7505 52.4134 43.6015 52.766C44.4525 53.1185 45.3646 53.3 46.2857 53.3C47.2068 53.3 48.1189 53.1185 48.9699 52.766C49.8209 52.4134 50.5941 51.8967 51.2453 51.2453L49.2592 49.2592ZM43.3122 43.3122C44.1012 42.5242 45.1706 42.0816 46.2857 42.0816C47.4008 42.0816 48.4702 42.5242 49.2592 43.3122L51.2453 41.3261C50.5941 40.6747 49.8209 40.158 48.9699 39.8054C48.1189 39.4529 47.2068 39.2714 46.2857 39.2714C45.3646 39.2714 44.4525 39.4529 43.6015 39.8054C42.7505 40.158 41.9774 40.6747 41.3261 41.3261L43.3122 43.3122ZM15.5969 49.2592C14.8079 50.0472 13.7384 50.4898 12.6234 50.4898C11.5083 50.4898 10.4388 50.0472 9.64987 49.2592L7.66379 51.2453C8.31503 51.8967 9.08822 52.4134 9.93919 52.766C10.7902 53.1185 11.7023 53.3 12.6234 53.3C13.5445 53.3 14.4566 53.1185 15.3076 52.766C16.1585 52.4134 16.9317 51.8967 17.583 51.2453L15.5969 49.2592ZM9.64987 43.3122C10.4388 42.5242 11.5083 42.0816 12.6234 42.0816C13.7384 42.0816 14.8079 42.5242 15.5969 43.3122L17.583 41.3261C16.9317 40.6747 16.1585 40.158 15.3076 39.8054C14.4566 39.4529 13.5445 39.2714 12.6234 39.2714C11.7023 39.2714 10.7902 39.4529 9.93919 39.8054C9.08822 40.158 8.31503 40.6747 7.66379 41.3261L9.64987 43.3122ZM49.2592 43.3122C50.0839 44.1313 50.4935 45.2057 50.4935 46.2857H53.2987C53.2987 44.4932 52.6142 42.6951 51.2453 41.3261L49.2592 43.3122ZM50.4935 46.2857C50.4935 47.3657 50.0839 48.4401 49.2592 49.2592L51.2453 51.2453C51.8965 50.5939 52.413 49.8207 52.7653 48.9697C53.1176 48.1188 53.2989 47.2067 53.2987 46.2857H50.4935ZM40.6753 44.8831H32.2597V47.6883H40.6753V44.8831ZM43.3122 49.2592C42.5229 48.4709 42.0789 47.4013 42.0779 46.2857H39.2727C39.2727 48.0782 39.9572 49.8764 41.3261 51.2453L43.3122 49.2592ZM42.0779 46.2857C42.0779 45.2057 42.4875 44.1313 43.3122 43.3122L41.3261 41.3261C40.6749 41.9775 40.1585 42.7507 39.8061 43.6017C39.4538 44.4527 39.2725 45.3647 39.2727 46.2857H42.0779ZM9.64987 49.2592C8.86053 48.4709 8.41656 47.4013 8.41558 46.2857H5.61039C5.61039 48.0782 6.29486 49.8764 7.66379 51.2453L9.64987 49.2592ZM8.41558 46.2857C8.41558 45.2057 8.82514 44.1313 9.64987 43.3122L7.66379 41.3261C7.01262 41.9775 6.49612 42.7507 6.14379 43.6017C5.79147 44.4527 5.61022 45.3647 5.61039 46.2857H8.41558ZM32.2597 44.8831H18.2338V47.6883H32.2597V44.8831ZM15.5969 43.3122C16.4216 44.1313 16.8312 45.2057 16.8312 46.2857H19.6364C19.6364 44.4932 18.9519 42.6951 17.583 41.3261L15.5969 43.3122ZM16.8312 46.2857C16.8312 47.3657 16.4216 48.4401 15.5969 49.2592L17.583 51.2453C18.2341 50.5939 18.7506 49.8207 19.103 48.9697C19.4553 48.1188 19.6365 47.2067 19.6364 46.2857H16.8312ZM56.1039 40.6753C56.1039 41.7913 55.6606 42.8616 54.8715 43.6507C54.0823 44.4398 53.0121 44.8831 51.8961 44.8831V47.6883C53.7561 47.6883 55.5398 46.9494 56.855 45.6342C58.1702 44.3191 58.9091 42.5353 58.9091 40.6753H56.1039ZM46.2857 19.6364C48.8897 19.6364 51.3869 20.6708 53.2282 22.512C55.0695 24.3533 56.1039 26.8506 56.1039 29.4545H58.9091C58.9091 26.1066 57.5791 22.8958 55.2118 20.5285C52.8444 18.1611 49.6336 16.8312 46.2857 16.8312V19.6364ZM0 40.6753C0 42.5353 0.738866 44.3191 2.05406 45.6342C3.36925 46.9494 5.15303 47.6883 7.01299 47.6883V44.8831C5.89701 44.8831 4.82674 44.4398 4.03763 43.6507C3.24851 42.8616 2.80519 41.7913 2.80519 40.6753H0Z" fill="black"/>
<path d="M1.4026 1.4026V0C1.03061 0 0.673849 0.147773 0.410811 0.410811C0.147773 0.673849 0 1.03061 0 1.4026H1.4026ZM32.2597 1.4026H33.6623C33.6623 1.03061 33.5146 0.673849 33.2515 0.410811C32.9885 0.147773 32.6317 0 32.2597 0V1.4026ZM32.2597 18.2338V16.8312C31.8877 16.8312 31.531 16.9789 31.2679 17.242C31.0049 17.505 30.8571 17.8618 30.8571 18.2338H32.2597ZM1.4026 2.80519H32.2597V0H1.4026V2.80519ZM30.8571 1.4026V46.2857H33.6623V1.4026H30.8571ZM2.80519 40.6753V1.4026H0V40.6753H2.80519ZM32.2597 19.6364H46.2857V16.8312H32.2597V19.6364ZM56.1039 29.4545V40.6753H58.9091V29.4545H56.1039ZM33.6623 46.2857V18.2338H30.8571V46.2857H33.6623ZM49.2592 49.2592C48.4702 50.0472 47.4008 50.4898 46.2857 50.4898C45.1706 50.4898 44.1012 50.0472 43.3122 49.2592L41.3261 51.2453C41.9774 51.8967 42.7505 52.4134 43.6015 52.766C44.4525 53.1185 45.3646 53.3 46.2857 53.3C47.2068 53.3 48.1189 53.1185 48.9699 52.766C49.8209 52.4134 50.5941 51.8967 51.2453 51.2453L49.2592 49.2592ZM43.3122 43.3122C44.1012 42.5242 45.1706 42.0816 46.2857 42.0816C47.4008 42.0816 48.4702 42.5242 49.2592 43.3122L51.2453 41.3261C50.5941 40.6747 49.8209 40.158 48.9699 39.8054C48.1189 39.4529 47.2068 39.2714 46.2857 39.2714C45.3646 39.2714 44.4525 39.4529 43.6015 39.8054C42.7505 40.158 41.9774 40.6747 41.3261 41.3261L43.3122 43.3122ZM15.5969 49.2592C14.8079 50.0472 13.7384 50.4898 12.6234 50.4898C11.5083 50.4898 10.4388 50.0472 9.64987 49.2592L7.66379 51.2453C8.31503 51.8967 9.08822 52.4134 9.93919 52.766C10.7902 53.1185 11.7023 53.3 12.6234 53.3C13.5445 53.3 14.4566 53.1185 15.3076 52.766C16.1585 52.4134 16.9317 51.8967 17.583 51.2453L15.5969 49.2592ZM9.64987 43.3122C10.4388 42.5242 11.5083 42.0816 12.6234 42.0816C13.7384 42.0816 14.8079 42.5242 15.5969 43.3122L17.583 41.3261C16.9317 40.6747 16.1585 40.158 15.3076 39.8054C14.4566 39.4529 13.5445 39.2714 12.6234 39.2714C11.7023 39.2714 10.7902 39.4529 9.93919 39.8054C9.08822 40.158 8.31503 40.6747 7.66379 41.3261L9.64987 43.3122ZM49.2592 43.3122C50.0839 44.1313 50.4935 45.2057 50.4935 46.2857H53.2987C53.2987 44.4932 52.6142 42.6951 51.2453 41.3261L49.2592 43.3122ZM50.4935 46.2857C50.4935 47.3657 50.0839 48.4401 49.2592 49.2592L51.2453 51.2453C51.8965 50.5939 52.413 49.8207 52.7653 48.9697C53.1176 48.1188 53.2989 47.2067 53.2987 46.2857H50.4935ZM40.6753 44.8831H32.2597V47.6883H40.6753V44.8831ZM43.3122 49.2592C42.5229 48.4709 42.0789 47.4013 42.0779 46.2857H39.2727C39.2727 48.0782 39.9572 49.8764 41.3261 51.2453L43.3122 49.2592ZM42.0779 46.2857C42.0779 45.2057 42.4875 44.1313 43.3122 43.3122L41.3261 41.3261C40.6749 41.9775 40.1585 42.7507 39.8061 43.6017C39.4538 44.4527 39.2725 45.3647 39.2727 46.2857H42.0779ZM9.64987 49.2592C8.86053 48.4709 8.41656 47.4013 8.41558 46.2857H5.61039C5.61039 48.0782 6.29486 49.8764 7.66379 51.2453L9.64987 49.2592ZM8.41558 46.2857C8.41558 45.2057 8.82514 44.1313 9.64987 43.3122L7.66379 41.3261C7.01262 41.9775 6.49612 42.7507 6.14379 43.6017C5.79147 44.4527 5.61022 45.3647 5.61039 46.2857H8.41558ZM32.2597 44.8831H18.2338V47.6883H32.2597V44.8831ZM15.5969 43.3122C16.4216 44.1313 16.8312 45.2057 16.8312 46.2857H19.6364C19.6364 44.4932 18.9519 42.6951 17.583 41.3261L15.5969 43.3122ZM16.8312 46.2857C16.8312 47.3657 16.4216 48.4401 15.5969 49.2592L17.583 51.2453C18.2341 50.5939 18.7506 49.8207 19.103 48.9697C19.4553 48.1188 19.6365 47.2067 19.6364 46.2857H16.8312ZM56.1039 40.6753C56.1039 41.7913 55.6606 42.8616 54.8715 43.6507C54.0823 44.4398 53.0121 44.8831 51.8961 44.8831V47.6883C53.7561 47.6883 55.5398 46.9494 56.855 45.6342C58.1702 44.3191 58.9091 42.5353 58.9091 40.6753H56.1039ZM46.2857 19.6364C48.8897 19.6364 51.3869 20.6708 53.2282 22.512C55.0695 24.3533 56.1039 26.8506 56.1039 29.4545H58.9091C58.9091 26.1066 57.5791 22.8958 55.2118 20.5285C52.8444 18.1611 49.6336 16.8312 46.2857 16.8312V19.6364ZM0 40.6753C0 42.5353 0.738866 44.3191 2.05406 45.6342C3.36925 46.9494 5.15303 47.6883 7.01299 47.6883V44.8831C5.89701 44.8831 4.82674 44.4398 4.03763 43.6507C3.24851 42.8616 2.80519 41.7913 2.80519 40.6753H0Z" fill="url(#paint0_linear_696_6831)"/>
<path d="M15.4286 25.2467C16.2032 25.2467 16.8312 25.8747 16.8312 26.6493C16.8312 27.424 16.2032 28.0519 15.4286 28.0519H1.4026C0.627964 28.0519 0 27.424 0 26.6493C0 25.8747 0.627964 25.2467 1.4026 25.2467H15.4286ZM9.81818 14.026C10.5928 14.026 11.2208 14.6539 11.2208 15.4286C11.2208 16.2032 10.5928 16.8312 9.81818 16.8312H1.4026C0.627964 16.8312 0 16.2032 0 15.4286C0 14.6539 0.627964 14.026 1.4026 14.026H9.81818Z" fill="black"/>
<path d="M15.4286 25.2467C16.2032 25.2467 16.8312 25.8747 16.8312 26.6493C16.8312 27.424 16.2032 28.0519 15.4286 28.0519H1.4026C0.627964 28.0519 0 27.424 0 26.6493C0 25.8747 0.627964 25.2467 1.4026 25.2467H15.4286ZM9.81818 14.026C10.5928 14.026 11.2208 14.6539 11.2208 15.4286C11.2208 16.2032 10.5928 16.8312 9.81818 16.8312H1.4026C0.627964 16.8312 0 16.2032 0 15.4286C0 14.6539 0.627964 14.026 1.4026 14.026H9.81818Z" fill="url(#paint1_linear_696_6831)"/>
<defs>
<linearGradient id="paint0_linear_696_6831" x1="0" y1="0" x2="67.5575" y2="15.4271" gradientUnits="userSpaceOnUse">
<stop stop-color="#511F5E"/>
<stop offset="1" stop-color="#C01E6C"/>
</linearGradient>
<linearGradient id="paint1_linear_696_6831" x1="0" y1="0" x2="67.5575" y2="15.4271" gradientUnits="userSpaceOnUse">
<stop stop-color="#511F5E"/>
<stop offset="1" stop-color="#C01E6C"/>
</linearGradient>
</defs>
</svg>
