<svg width="24" height="26" viewBox="0 0 24 26" fill="none" xmlns="http://www.w3.org/2000/svg">
<g clip-path="url(#clip0_170_1976)">
<path d="M23.6002 12C23.6002 18.6528 18.0042 23.9948 11.261 23.5772C5.48336 23.2192 0.780958 18.5168 0.423358 12.7392C0.00535831 5.99602 5.34736 0.400024 12.0002 0.400024C13.8274 0.400024 15.5574 0.821624 17.0962 1.57642C17.5086 1.77882 17.6598 2.29242 17.4322 2.69162L17.4306 2.69442C17.2202 3.06322 16.761 3.20042 16.3802 3.01282C14.853 2.26082 13.107 1.89482 11.2642 2.02642C6.42416 2.37162 2.47136 6.25362 2.04056 11.0868C1.50456 17.1024 6.32536 22.1516 12.2658 21.9964C17.353 21.8636 21.5994 17.8292 21.9718 12.754C22.0686 11.4356 21.9098 10.1592 21.5322 8.98242C21.4126 8.60922 21.5866 8.20642 21.937 8.03122C22.3746 7.81242 22.911 8.03122 23.0594 8.49722C23.4106 9.60162 23.6002 10.7784 23.6002 12Z" fill="#CA1C69"/>
<path d="M6.16414 8.98882L12.4897 17.5476C12.9673 18.194 13.9393 18.138 14.3421 17.4412L23.4829 1.61802C23.9589 0.794018 22.8729 -0.0343821 22.2253 0.659218L12.7021 10.86L7.17654 7.80162C6.42974 7.38842 5.65374 8.29802 6.16414 8.98882Z" fill="#F37A3A"/>
</g>
<defs>
<clipPath id="clip0_170_1976">
<rect width="24" height="26" fill="white"/>
</clipPath>
</defs>
</svg>
