<svg width="64" height="74" viewBox="0 0 64 74" fill="none" xmlns="http://www.w3.org/2000/svg">
<g clip-path="url(#clip0_829_18188)">
<path d="M29.5409 18.0513V23.417C29.5409 28.9132 32.4373 33.8832 37.1581 36.5923C41.8789 33.8832 44.7753 28.9133 44.7753 23.417V18.0513C41.9801 17.878 39.3446 16.8715 37.1581 15.1516C34.9716 16.8714 32.3361 17.878 29.5409 18.0513Z" fill="url(#paint0_linear_829_18188)"/>
<path d="M61.7061 30.0329L58.4273 21.8359C58.3292 15.663 55.6075 9.82648 50.9255 5.77742C48.5997 3.76602 45.9344 2.29906 43.0037 1.4177C39.9369 0.495195 36.7395 0.267031 33.5004 0.738945C28.7852 1.42602 24.5388 3.58262 21.2203 6.97531C21.1129 7.085 21.0071 7.19574 20.9025 7.3073L18.1257 4.53066C17.7961 4.20078 17.349 4.01562 16.8828 4.01562H12.2445C11.5189 1.96965 9.56504 0.5 7.27344 0.5C4.36566 0.5 2 2.86566 2 5.77344C2 8.68121 4.36566 11.0469 7.27344 11.0469C9.56504 11.0469 11.5189 9.57723 12.2445 7.53125H16.1547L18.6999 10.0763C16.8744 12.8047 15.7036 15.9171 15.2647 19.25H12.2445C11.5189 17.204 9.56504 15.7344 7.27344 15.7344C4.36566 15.7344 2 18.1 2 21.0078C2 23.9156 4.36566 26.2812 7.27344 26.2812C9.56504 26.2812 11.5189 24.8116 12.2445 22.7656H15.075C15.1627 26.3018 16.1001 29.7058 17.844 32.7951L16.1547 34.4844H12.2445C11.5189 32.4384 9.56504 30.9688 7.27344 30.9688C4.36566 30.9688 2 33.3344 2 36.2422C2 39.15 4.36566 41.5156 7.27344 41.5156C9.56504 41.5156 11.5189 40.046 12.2445 38H16.8828C17.349 38 17.7961 37.8148 18.1257 37.4851L19.5545 36.0563C20.1166 37.69 20.2353 39.4326 19.8808 41.132L16.2796 58.3829C16.0517 59.4746 16.885 60.4999 18.0003 60.4999H43.8377C44.8085 60.4999 45.5955 59.7129 45.5955 58.7421V49.7202H48.408C53.2543 49.7202 57.1971 45.7774 57.1971 40.9311V35.6577H57.8979C59.2605 35.6577 60.5302 34.9839 61.2942 33.8555C62.0582 32.7273 62.2121 31.2982 61.7061 30.0329ZM48.2908 23.417C48.2908 26.8955 47.3241 30.2982 45.4954 33.2573C43.6667 36.2163 41.0555 38.6026 37.9441 40.1582C37.4492 40.4057 36.8668 40.4057 36.3719 40.1582C33.2606 38.6027 30.6494 36.2163 28.8206 33.2573C26.9918 30.2982 26.0252 26.8955 26.0252 23.417V16.3201C26.0252 15.3494 26.8121 14.5625 27.7828 14.5625H28.6708C31.3879 14.5625 33.9938 13.4831 35.915 11.5618C36.6014 10.8754 37.7145 10.8752 38.4009 11.5616C40.3221 13.4829 42.9281 14.5625 45.6452 14.5625H46.5332C47.5039 14.5625 48.2908 15.3494 48.2908 16.3201V23.417Z" fill="url(#paint1_linear_829_18188)"/>
</g>
<defs>
<linearGradient id="paint0_linear_829_18188" x1="7.88685" y1="6.16239" x2="55.7656" y2="53.2717" gradientUnits="userSpaceOnUse">
<stop stop-color="#F94229"/>
<stop offset="1" stop-color="#BB0A55"/>
</linearGradient>
<linearGradient id="paint1_linear_829_18188" x1="7.88685" y1="6.16239" x2="55.7656" y2="53.2717" gradientUnits="userSpaceOnUse">
<stop stop-color="#F94229"/>
<stop offset="1" stop-color="#BB0A55"/>
</linearGradient>
<clipPath id="clip0_829_18188">
<rect width="60" height="60" fill="white" transform="translate(2 0.5)"/>
</clipPath>
</defs>
</svg>
