<svg width="64" height="64" viewBox="0 0 64 64" fill="none" xmlns="http://www.w3.org/2000/svg">
<path d="M46 55.18L42.23 51.41C41.4513 50.6313 40.1887 50.6313 39.41 51.41C38.6313 52.1887 38.6313 53.4513 39.41 54.23L46 60.82L60.59 46.23C61.3687 45.4513 61.3687 44.1887 60.59 43.41C59.8113 42.6313 58.5487 42.6313 57.77 43.41L46 55.18ZM32 46L27.722 43.974C26.013 43.1599 24.569 41.8792 23.5566 40.2797C22.5441 38.6801 22.0045 36.827 22 34.934V25C22 23.3431 23.3431 22 25 22H39C40.6569 22 42 23.3431 42 25V34.936C41.9955 36.829 41.4559 38.6821 40.4434 40.2817C39.431 41.8812 37.987 43.1619 36.278 43.976L32 46ZM27 26C26.4477 26 26 26.4477 26 27V34.936C26.0031 36.0713 26.3271 37.1826 26.9347 38.1416C27.5424 39.1007 28.4088 39.8683 29.434 40.356L32 41.572L34.566 40.358C35.5915 39.8702 36.4582 39.1022 37.0658 38.1428C37.6734 37.1834 37.9973 36.0716 38 34.936V27C38 26.4477 37.5523 26 37 26H27ZM8.24 35.312C8.81185 34.9255 9.27395 34.3975 9.58137 33.7795C9.88878 33.1616 10.031 32.4745 9.99434 31.7853C9.95763 31.096 9.74318 30.428 9.37186 29.8462C9.00054 29.2643 8.48497 28.7885 7.8753 28.4649C7.26562 28.1413 6.58258 27.9809 5.8926 27.9995C5.20262 28.018 4.52917 28.2148 3.93775 28.5706C3.34632 28.9265 2.85704 29.4293 2.51749 30.0303C2.17793 30.6312 1.99966 31.3098 2 32C2 33.578 2.92 34.928 4.248 35.58C4.91216 40.8479 7.06571 45.8169 10.4557 49.9034C13.4194 53.4759 17.2204 56.2443 21.5068 57.9704C22.531 58.3828 23.6606 57.7986 23.9994 56.7478C24.3387 55.6956 23.7559 54.5755 22.7353 54.1505C19.2081 52.6816 16.0749 50.3842 13.6078 47.4412C10.7107 43.9853 8.84847 39.7803 8.24 35.312ZM59.752 28.42C59.0878 23.1521 56.9343 18.1831 53.5443 14.0966C50.5806 10.5241 46.7796 7.7557 42.4932 6.02958C41.469 5.61716 40.3394 6.20141 40.0006 7.2522C39.6613 8.30439 40.2441 9.42452 41.2647 9.84953C44.7919 11.3184 47.9251 13.6158 50.3922 16.5588C53.2893 20.0147 55.1495 24.2197 55.758 28.688C55.1865 29.0748 54.7248 29.6028 54.4178 30.2208C54.1107 30.8388 53.9688 31.5258 54.0057 32.2148C54.0427 32.9039 54.2573 33.5717 54.6287 34.1533C55.0001 34.7349 55.5156 35.2106 56.1252 35.534C56.7347 35.8575 57.4176 36.0177 58.1075 35.9992C58.7973 35.9806 59.4706 35.784 60.0619 35.4282C60.6532 35.0725 61.1425 34.5699 61.4821 33.9692C61.8217 33.3684 62.0001 32.6901 62 32C61.9995 31.2526 61.7886 30.5204 61.3914 29.8873C60.9942 29.2541 60.4268 28.7456 59.754 28.42M32 2C30.422 2 29.072 2.92 28.42 4.248C23.1524 4.912 18.1835 7.06525 14.097 10.4549C10.5242 13.4185 7.75557 17.2195 6.02924 21.5061C5.61695 22.5298 6.20033 23.6591 7.25038 23.9988C8.30326 24.3395 9.4249 23.7565 9.85033 22.7349C11.319 19.2083 13.616 16.0755 16.5584 13.6086C20.0143 10.7112 24.2194 8.85064 28.688 8.242C29.0748 8.81349 29.6028 9.27519 30.2208 9.58223C30.8388 9.88928 31.5258 10.0312 32.2148 9.99426C32.9039 9.9573 33.5717 9.7427 34.1533 9.37132C34.7349 8.99994 35.2106 8.4844 35.534 7.87483C35.8575 7.26525 36.0177 6.58236 35.9992 5.89254C35.9806 5.20272 35.784 4.52942 35.4282 3.9381C35.0725 3.34677 34.5699 2.85753 33.9692 2.51792C33.3684 2.17831 32.6901 1.99989 32 2Z" fill="black"/>
<path d="M46 55.18L42.23 51.41C41.4513 50.6313 40.1887 50.6313 39.41 51.41C38.6313 52.1887 38.6313 53.4513 39.41 54.23L46 60.82L60.59 46.23C61.3687 45.4513 61.3687 44.1887 60.59 43.41C59.8113 42.6313 58.5487 42.6313 57.77 43.41L46 55.18ZM32 46L27.722 43.974C26.013 43.1599 24.569 41.8792 23.5566 40.2797C22.5441 38.6801 22.0045 36.827 22 34.934V25C22 23.3431 23.3431 22 25 22H39C40.6569 22 42 23.3431 42 25V34.936C41.9955 36.829 41.4559 38.6821 40.4434 40.2817C39.431 41.8812 37.987 43.1619 36.278 43.976L32 46ZM27 26C26.4477 26 26 26.4477 26 27V34.936C26.0031 36.0713 26.3271 37.1826 26.9347 38.1416C27.5424 39.1007 28.4088 39.8683 29.434 40.356L32 41.572L34.566 40.358C35.5915 39.8702 36.4582 39.1022 37.0658 38.1428C37.6734 37.1834 37.9973 36.0716 38 34.936V27C38 26.4477 37.5523 26 37 26H27ZM8.24 35.312C8.81185 34.9255 9.27395 34.3975 9.58137 33.7795C9.88878 33.1616 10.031 32.4745 9.99434 31.7853C9.95763 31.096 9.74318 30.428 9.37186 29.8462C9.00054 29.2643 8.48497 28.7885 7.8753 28.4649C7.26562 28.1413 6.58258 27.9809 5.8926 27.9995C5.20262 28.018 4.52917 28.2148 3.93775 28.5706C3.34632 28.9265 2.85704 29.4293 2.51749 30.0303C2.17793 30.6312 1.99966 31.3098 2 32C2 33.578 2.92 34.928 4.248 35.58C4.91216 40.8479 7.06571 45.8169 10.4557 49.9034C13.4194 53.4759 17.2204 56.2443 21.5068 57.9704C22.531 58.3828 23.6606 57.7986 23.9994 56.7478C24.3387 55.6956 23.7559 54.5755 22.7353 54.1505C19.2081 52.6816 16.0749 50.3842 13.6078 47.4412C10.7107 43.9853 8.84847 39.7803 8.24 35.312ZM59.752 28.42C59.0878 23.1521 56.9343 18.1831 53.5443 14.0966C50.5806 10.5241 46.7796 7.7557 42.4932 6.02958C41.469 5.61716 40.3394 6.20141 40.0006 7.2522C39.6613 8.30439 40.2441 9.42452 41.2647 9.84953C44.7919 11.3184 47.9251 13.6158 50.3922 16.5588C53.2893 20.0147 55.1495 24.2197 55.758 28.688C55.1865 29.0748 54.7248 29.6028 54.4178 30.2208C54.1107 30.8388 53.9688 31.5258 54.0057 32.2148C54.0427 32.9039 54.2573 33.5717 54.6287 34.1533C55.0001 34.7349 55.5156 35.2106 56.1252 35.534C56.7347 35.8575 57.4176 36.0177 58.1075 35.9992C58.7973 35.9806 59.4706 35.784 60.0619 35.4282C60.6532 35.0725 61.1425 34.5699 61.4821 33.9692C61.8217 33.3684 62.0001 32.6901 62 32C61.9995 31.2526 61.7886 30.5204 61.3914 29.8873C60.9942 29.2541 60.4268 28.7456 59.754 28.42M32 2C30.422 2 29.072 2.92 28.42 4.248C23.1524 4.912 18.1835 7.06525 14.097 10.4549C10.5242 13.4185 7.75557 17.2195 6.02924 21.5061C5.61695 22.5298 6.20033 23.6591 7.25038 23.9988C8.30326 24.3395 9.4249 23.7565 9.85033 22.7349C11.319 19.2083 13.616 16.0755 16.5584 13.6086C20.0143 10.7112 24.2194 8.85064 28.688 8.242C29.0748 8.81349 29.6028 9.27519 30.2208 9.58223C30.8388 9.88928 31.5258 10.0312 32.2148 9.99426C32.9039 9.9573 33.5717 9.7427 34.1533 9.37132C34.7349 8.99994 35.2106 8.4844 35.534 7.87483C35.8575 7.26525 36.0177 6.58236 35.9992 5.89254C35.9806 5.20272 35.784 4.52942 35.4282 3.9381C35.0725 3.34677 34.5699 2.85753 33.9692 2.51792C33.3684 2.17831 32.6901 1.99989 32 2Z" fill="url(#paint0_linear_382_2936)"/>
<defs>
<linearGradient id="paint0_linear_382_2936" x1="-0.983654" y1="61.5741" x2="70.9048" y2="-25.0894" gradientUnits="userSpaceOnUse">
<stop stop-color="#C01E6C"/>
<stop offset="1" stop-color="#FF9A3C"/>
</linearGradient>
</defs>
</svg>
