<svg width="48" height="48" viewBox="0 0 48 48" fill="none" xmlns="http://www.w3.org/2000/svg">
<path fill-rule="evenodd" clip-rule="evenodd" d="M7.03885 20.9999H9.17186C9.58386 22.1649 10.6959 22.9999 12.0009 22.9999C12.4639 22.9999 12.9029 22.8949 13.2939 22.7069L15.2939 24.7069C15.1059 25.0979 15.0009 25.5369 15.0009 25.9999C15.0009 27.6559 16.3449 28.9999 18.0009 28.9999C19.6569 28.9999 21.0009 27.6559 21.0009 25.9999C21.0009 25.5369 20.8959 25.0979 20.7079 24.7069L22.7079 22.7069C23.0989 22.8949 23.5379 22.9999 24.0009 22.9999C25.3059 22.9999 26.4179 22.1649 26.8299 20.9999H41.1718C41.5838 22.1649 42.6959 22.9999 44.0009 22.9999C45.6569 22.9999 47.0009 21.6559 47.0009 19.9999C47.0009 18.3439 45.6569 16.9999 44.0009 16.9999C42.6959 16.9999 41.5838 17.8349 41.1718 18.9999H26.8299C26.4179 17.8349 25.3059 16.9999 24.0009 16.9999C22.3449 16.9999 21.0009 18.3439 21.0009 19.9999C21.0009 20.4629 21.1059 20.9019 21.2939 21.2929L19.2939 23.2929C18.9029 23.1049 18.4639 22.9999 18.0009 22.9999C17.5379 22.9999 17.0989 23.1049 16.7079 23.2929L14.7079 21.2929C14.8959 20.9019 15.0009 20.4629 15.0009 19.9999C15.0009 18.3439 13.6569 16.9999 12.0009 16.9999C10.6959 16.9999 9.58386 17.8349 9.17186 18.9999H7.03885C7.54985 12.2919 13.1629 6.99988 20.0009 6.99988C25.8849 6.99988 30.8619 10.9179 32.4619 16.2859C32.6199 16.8149 33.1768 17.1159 33.7058 16.9579C34.2348 16.8009 34.5358 16.2429 34.3788 15.7139C32.5318 9.52087 26.7899 4.99988 20.0009 4.99988C11.7219 4.99988 5.00085 11.7209 5.00085 19.9999C5.00085 28.2789 11.7219 34.9999 20.0009 34.9999C26.7899 34.9999 32.5318 30.4789 34.3788 24.2859C34.5358 23.7569 34.2348 23.1989 33.7058 23.0419C33.1768 22.8839 32.6199 23.1849 32.4619 23.7139C30.8619 29.0819 25.8849 32.9999 20.0009 32.9999C13.1629 32.9999 7.54985 27.7079 7.03885 20.9999ZM18.0009 24.9999C18.5529 24.9999 19.0009 25.4479 19.0009 25.9999C19.0009 26.5519 18.5529 26.9999 18.0009 26.9999C17.4489 26.9999 17.0009 26.5519 17.0009 25.9999C17.0009 25.4479 17.4489 24.9999 18.0009 24.9999ZM12.0009 18.9999C12.5529 18.9999 13.0009 19.4479 13.0009 19.9999C13.0009 20.5519 12.5529 20.9999 12.0009 20.9999C11.4489 20.9999 11.0009 20.5519 11.0009 19.9999C11.0009 19.4479 11.4489 18.9999 12.0009 18.9999ZM44.0009 18.9999C44.5529 18.9999 45.0009 19.4479 45.0009 19.9999C45.0009 20.5519 44.5529 20.9999 44.0009 20.9999C43.4489 20.9999 43.0009 20.5519 43.0009 19.9999C43.0009 19.4479 43.4489 18.9999 44.0009 18.9999ZM24.0009 18.9999C24.5529 18.9999 25.0009 19.4479 25.0009 19.9999C25.0009 20.5519 24.5529 20.9999 24.0009 20.9999C23.4489 20.9999 23.0009 20.5519 23.0009 19.9999C23.0009 19.4479 23.4489 18.9999 24.0009 18.9999Z" fill="url(#paint0_linear_244_12831)"/>
<path fill-rule="evenodd" clip-rule="evenodd" d="M30.452 35.866L40.88 46.293C41.442 46.856 42.205 47.172 43.001 47.172C43.797 47.172 44.56 46.855 45.122 46.293C45.503 45.913 45.914 45.502 46.294 45.121C46.856 44.559 47.173 43.796 47.173 43C47.173 42.204 46.857 41.441 46.294 40.879L35.866 30.451C37.103 28.579 38.017 26.477 38.529 24.222C38.652 23.683 38.314 23.147 37.776 23.025C37.238 22.903 36.701 23.24 36.579 23.778C34.859 31.346 28.085 37 20.001 37C10.618 37 3.00098 29.383 3.00098 20C3.00098 10.617 10.618 3 20.001 3C28.085 3 34.859 8.65399 36.579 16.222C36.701 16.76 37.238 17.097 37.776 16.975C38.314 16.853 38.652 16.317 38.529 15.778C36.607 7.32102 29.036 1 20.001 1C9.51498 1 1.00098 9.514 1.00098 20C1.00098 30.486 9.51498 39 20.001 39C23.861 39 27.453 37.846 30.452 35.866ZM38.001 35.414L35.415 38L42.294 44.879C42.481 45.066 42.736 45.172 43.001 45.172C43.266 45.172 43.521 45.066 43.708 44.879L44.88 43.707C45.067 43.52 45.173 43.265 45.173 43C45.173 42.735 45.067 42.48 44.88 42.293L38.001 35.414ZM34.664 32.077C33.887 33.02 33.02 33.886 32.078 34.663L34.001 36.586L36.587 34L34.664 32.077Z" fill="url(#paint1_linear_244_12831)"/>
<defs>
<linearGradient id="paint0_linear_244_12831" x1="-1.29504" y1="47.7639" x2="55.332" y2="-19.1589" gradientUnits="userSpaceOnUse">
<stop stop-color="#C01E6C"/>
<stop offset="1" stop-color="#FF9A3C"/>
</linearGradient>
<linearGradient id="paint1_linear_244_12831" x1="-1.29504" y1="47.7639" x2="55.332" y2="-19.1589" gradientUnits="userSpaceOnUse">
<stop stop-color="#C01E6C"/>
<stop offset="1" stop-color="#FF9A3C"/>
</linearGradient>
</defs>
</svg>
