<svg width="48" height="48" viewBox="0 0 48 48" fill="none" xmlns="http://www.w3.org/2000/svg">
<path d="M7.66699 10C7.66699 6.05851 10.7025 3 14.6144 3H31.9828C35.8947 3 38.9301 6.05851 38.9301 10V18.75C38.9301 19.7165 38.1526 20.5 37.1933 20.5C36.234 20.5 35.4565 19.7165 35.4565 18.75V10C35.4565 7.99149 33.9761 6.5 31.9828 6.5H14.6144C12.621 6.5 11.1407 7.99149 11.1407 10V38C11.1407 40.0085 12.621 41.5 14.6144 41.5H16.3512C17.3104 41.5 18.088 42.2835 18.088 43.25C18.088 44.2165 17.3104 45 16.3512 45H14.6144C10.7025 45 7.66699 41.9415 7.66699 38V10Z" fill="black"/>
<path d="M7.66699 10C7.66699 6.05851 10.7025 3 14.6144 3H31.9828C35.8947 3 38.9301 6.05851 38.9301 10V18.75C38.9301 19.7165 38.1526 20.5 37.1933 20.5C36.234 20.5 35.4565 19.7165 35.4565 18.75V10C35.4565 7.99149 33.9761 6.5 31.9828 6.5H14.6144C12.621 6.5 11.1407 7.99149 11.1407 10V38C11.1407 40.0085 12.621 41.5 14.6144 41.5H16.3512C17.3104 41.5 18.088 42.2835 18.088 43.25C18.088 44.2165 17.3104 45 16.3512 45H14.6144C10.7025 45 7.66699 41.9415 7.66699 38V10Z" fill="url(#paint0_linear_244_12423)"/>
<path d="M14.6144 11.7501C14.6144 10.7836 15.392 10.0001 16.3512 10.0001H30.246C31.2052 10.0001 31.9828 10.7836 31.9828 11.7501C31.9828 12.7165 31.2052 13.5001 30.246 13.5001H16.3512C15.392 13.5001 14.6144 12.7165 14.6144 11.7501Z" fill="black"/>
<path d="M14.6144 11.7501C14.6144 10.7836 15.392 10.0001 16.3512 10.0001H30.246C31.2052 10.0001 31.9828 10.7836 31.9828 11.7501C31.9828 12.7165 31.2052 13.5001 30.246 13.5001H16.3512C15.392 13.5001 14.6144 12.7165 14.6144 11.7501Z" fill="url(#paint1_linear_244_12423)"/>
<path d="M16.3512 16.9999C15.392 16.9999 14.6144 17.7834 14.6144 18.7499C14.6144 19.7165 15.392 20.4999 16.3512 20.4999H23.2986C24.2578 20.4999 25.0354 19.7165 25.0354 18.7499C25.0354 17.7834 24.2578 16.9999 23.2986 16.9999H16.3512Z" fill="black"/>
<path d="M16.3512 16.9999C15.392 16.9999 14.6144 17.7834 14.6144 18.7499C14.6144 19.7165 15.392 20.4999 16.3512 20.4999H23.2986C24.2578 20.4999 25.0354 19.7165 25.0354 18.7499C25.0354 17.7834 24.2578 16.9999 23.2986 16.9999H16.3512Z" fill="url(#paint2_linear_244_12423)"/>
<path d="M33.4042 33.3482C33.924 32.8472 33.9423 32.0163 33.445 31.4925C32.9478 30.9687 32.1233 30.9502 31.6033 31.4512L28.4931 34.4488L27.1347 33.1853C26.606 32.6937 25.7819 32.7268 25.294 33.2595C24.806 33.7922 24.839 34.6225 25.3675 35.1141L27.6254 37.2141C28.131 37.6843 28.9122 37.6773 29.4095 37.1982L33.4042 33.3482Z" fill="black"/>
<path d="M33.4042 33.3482C33.924 32.8472 33.9423 32.0163 33.445 31.4925C32.9478 30.9687 32.1233 30.9502 31.6033 31.4512L28.4931 34.4488L27.1347 33.1853C26.606 32.6937 25.7819 32.7268 25.294 33.2595C24.806 33.7922 24.839 34.6225 25.3675 35.1141L27.6254 37.2141C28.131 37.6843 28.9122 37.6773 29.4095 37.1982L33.4042 33.3482Z" fill="url(#paint3_linear_244_12423)"/>
<path fill-rule="evenodd" clip-rule="evenodd" d="M18.0881 33.6249C18.0881 27.3426 23.1424 22.2499 29.3775 22.2499C35.6126 22.2499 40.667 27.3426 40.667 33.6249C40.667 39.9073 35.6126 44.9999 29.3775 44.9999C23.1424 44.9999 18.0881 39.9073 18.0881 33.6249ZM29.3775 25.7499C25.061 25.7499 21.5617 29.2757 21.5617 33.6249C21.5617 37.9742 25.061 41.4999 29.3775 41.4999C33.6941 41.4999 37.1933 37.9742 37.1933 33.6249C37.1933 29.2757 33.6941 25.7499 29.3775 25.7499Z" fill="black"/>
<path fill-rule="evenodd" clip-rule="evenodd" d="M18.0881 33.6249C18.0881 27.3426 23.1424 22.2499 29.3775 22.2499C35.6126 22.2499 40.667 27.3426 40.667 33.6249C40.667 39.9073 35.6126 44.9999 29.3775 44.9999C23.1424 44.9999 18.0881 39.9073 18.0881 33.6249ZM29.3775 25.7499C25.061 25.7499 21.5617 29.2757 21.5617 33.6249C21.5617 37.9742 25.061 41.4999 29.3775 41.4999C33.6941 41.4999 37.1933 37.9742 37.1933 33.6249C37.1933 29.2757 33.6941 25.7499 29.3775 25.7499Z" fill="url(#paint4_linear_244_12423)"/>
<defs>
<linearGradient id="paint0_linear_244_12423" x1="6.02598" y1="45.5385" x2="58.1136" y2="-2.82867" gradientUnits="userSpaceOnUse">
<stop stop-color="#C01E6C"/>
<stop offset="1" stop-color="#FF9A3C"/>
</linearGradient>
<linearGradient id="paint1_linear_244_12423" x1="6.02598" y1="45.5385" x2="58.1136" y2="-2.82867" gradientUnits="userSpaceOnUse">
<stop stop-color="#C01E6C"/>
<stop offset="1" stop-color="#FF9A3C"/>
</linearGradient>
<linearGradient id="paint2_linear_244_12423" x1="6.02598" y1="45.5385" x2="58.1136" y2="-2.82867" gradientUnits="userSpaceOnUse">
<stop stop-color="#C01E6C"/>
<stop offset="1" stop-color="#FF9A3C"/>
</linearGradient>
<linearGradient id="paint3_linear_244_12423" x1="6.02598" y1="45.5385" x2="58.1136" y2="-2.82867" gradientUnits="userSpaceOnUse">
<stop stop-color="#C01E6C"/>
<stop offset="1" stop-color="#FF9A3C"/>
</linearGradient>
<linearGradient id="paint4_linear_244_12423" x1="6.02598" y1="45.5385" x2="58.1136" y2="-2.82867" gradientUnits="userSpaceOnUse">
<stop stop-color="#C01E6C"/>
<stop offset="1" stop-color="#FF9A3C"/>
</linearGradient>
</defs>
</svg>
