<svg width="48" height="48" viewBox="0 0 48 48" fill="none" xmlns="http://www.w3.org/2000/svg">
<path d="M23.9999 21.8255C26.0981 21.8255 27.7989 20.1247 27.7989 18.0265V16.5901C27.7989 14.492 26.0981 12.7911 23.9999 12.7911C21.9018 12.7911 20.201 14.492 20.201 16.5901V18.0265C20.201 20.1247 21.9018 21.8255 23.9999 21.8255ZM23.9999 21.8255L23.9999 27.0064M15.5608 27.5683V26.5076C15.5608 23.9218 17.657 21.8256 20.2428 21.8256H27.7571C30.3429 21.8256 32.4391 23.9218 32.4391 26.5076V27.5683M29.2774 35.8663L34.9094 45.6213L38.7411 41.3685L44.3399 40.1766L38.1834 29.5132M9.81656 29.5132L3.66003 40.1766L9.25886 41.3685L13.0906 45.6213L18.7226 35.8663M35.9992 19.0382C35.9992 25.6652 30.627 31.0375 23.9999 31.0375C17.3729 31.0375 12.0007 25.6652 12.0007 19.0382C12.0007 12.4112 17.3729 7.03891 23.9999 7.03891C30.627 7.03891 35.9992 12.4112 35.9992 19.0382ZM41.6319 19.0382C41.6319 28.776 33.7378 36.6701 23.9999 36.6701C14.2621 36.6701 6.368 28.776 6.368 19.0382C6.368 9.30034 14.2621 1.40625 23.9999 1.40625C33.7378 1.40625 41.6319 9.30034 41.6319 19.0382Z" stroke="url(#paint0_linear_244_12365)" stroke-width="2.8124" stroke-miterlimit="10"/>
<defs>
<linearGradient id="paint0_linear_244_12365" x1="1.63712" y1="46.1881" x2="56.4303" y2="-13.3901" gradientUnits="userSpaceOnUse">
<stop stop-color="#C01E6C"/>
<stop offset="1" stop-color="#FF9A3C"/>
</linearGradient>
</defs>
</svg>
