<svg width="48" height="48" viewBox="0 0 48 48" fill="none" xmlns="http://www.w3.org/2000/svg">
<g clip-path="url(#clip0_244_12307)">
<path d="M41.9135 0.264758C36.7362 3.71626 30.0455 3.71626 24.8681 0.264758C24.3425 -0.0855858 23.6574 -0.0855858 23.1318 0.264758C17.9544 3.71626 11.2637 3.71626 6.08633 0.264758C5.04674 -0.428148 3.65295 0.320352 3.65295 1.56713V24.2636C3.65295 29.9477 5.67636 35.4668 9.35052 39.8038C13.0246 44.141 18.1358 47.0442 23.7426 47.9787C23.8278 47.9929 23.914 48 24 48C24.086 48 24.1721 47.9929 24.2573 47.9787C29.8641 47.0442 34.9754 44.141 38.6495 39.8038C42.3235 35.4668 44.347 29.9477 44.347 24.2636V1.56713C44.3468 0.317727 42.9511 -0.42693 41.9135 0.264758ZM41.2165 24.2636C41.2165 34.4413 33.992 43.0561 23.9998 44.8465C14.0076 43.0561 6.78317 34.4412 6.78317 24.2636V4.24116C12.2771 6.81554 18.7062 6.54029 23.9999 3.41466C29.2936 6.54029 35.7227 6.81563 41.2166 4.24116V24.2636H41.2165Z" fill="black"/>
<path d="M41.9135 0.264758C36.7362 3.71626 30.0455 3.71626 24.8681 0.264758C24.3425 -0.0855858 23.6574 -0.0855858 23.1318 0.264758C17.9544 3.71626 11.2637 3.71626 6.08633 0.264758C5.04674 -0.428148 3.65295 0.320352 3.65295 1.56713V24.2636C3.65295 29.9477 5.67636 35.4668 9.35052 39.8038C13.0246 44.141 18.1358 47.0442 23.7426 47.9787C23.8278 47.9929 23.914 48 24 48C24.086 48 24.1721 47.9929 24.2573 47.9787C29.8641 47.0442 34.9754 44.141 38.6495 39.8038C42.3235 35.4668 44.347 29.9477 44.347 24.2636V1.56713C44.3468 0.317727 42.9511 -0.42693 41.9135 0.264758ZM41.2165 24.2636C41.2165 34.4413 33.992 43.0561 23.9998 44.8465C14.0076 43.0561 6.78317 34.4412 6.78317 24.2636V4.24116C12.2771 6.81554 18.7062 6.54029 23.9999 3.41466C29.2936 6.54029 35.7227 6.81563 41.2166 4.24116V24.2636H41.2165Z" fill="url(#paint0_linear_244_12307)"/>
<path d="M23.9999 9.39294C16.2327 9.39294 9.91349 15.712 9.91349 23.4794C9.91349 31.2465 16.2326 37.5658 23.9999 37.5658C31.7672 37.5658 38.0863 31.2466 38.0863 23.4794C38.0863 15.7121 31.7671 9.39294 23.9999 9.39294ZM23.9999 34.4353C17.9587 34.4353 13.0438 29.5204 13.0438 23.4793C13.0438 17.4381 17.9586 12.5232 23.9999 12.5232C30.0411 12.5232 34.956 17.4381 34.956 23.4793C34.9559 29.5204 30.041 34.4353 23.9999 34.4353Z" fill="black"/>
<path d="M23.9999 9.39294C16.2327 9.39294 9.91349 15.712 9.91349 23.4794C9.91349 31.2465 16.2326 37.5658 23.9999 37.5658C31.7672 37.5658 38.0863 31.2466 38.0863 23.4794C38.0863 15.7121 31.7671 9.39294 23.9999 9.39294ZM23.9999 34.4353C17.9587 34.4353 13.0438 29.5204 13.0438 23.4793C13.0438 17.4381 17.9586 12.5232 23.9999 12.5232C30.0411 12.5232 34.956 17.4381 34.956 23.4793C34.9559 29.5204 30.041 34.4353 23.9999 34.4353Z" fill="url(#paint1_linear_244_12307)"/>
<path d="M31.3672 19.2421C30.7561 18.6309 29.765 18.6309 29.1538 19.2421L22.4347 25.9611L18.8461 22.3724C18.2349 21.7612 17.2439 21.7612 16.6326 22.3724C16.0214 22.9837 16.0214 23.9746 16.6326 24.5859L21.3281 29.2813C21.9393 29.8926 22.9303 29.8927 23.5415 29.2813L31.3673 21.4556C31.9785 20.8443 31.9785 19.8534 31.3672 19.2421Z" fill="black"/>
<path d="M31.3672 19.2421C30.7561 18.6309 29.765 18.6309 29.1538 19.2421L22.4347 25.9611L18.8461 22.3724C18.2349 21.7612 17.2439 21.7612 16.6326 22.3724C16.0214 22.9837 16.0214 23.9746 16.6326 24.5859L21.3281 29.2813C21.9393 29.8926 22.9303 29.8927 23.5415 29.2813L31.3673 21.4556C31.9785 20.8443 31.9785 19.8534 31.3672 19.2421Z" fill="url(#paint2_linear_244_12307)"/>
</g>
<defs>
<linearGradient id="paint0_linear_244_12307" x1="1.62934" y1="48.6154" x2="61.3215" y2="-11.1924" gradientUnits="userSpaceOnUse">
<stop stop-color="#C01E6C"/>
<stop offset="1" stop-color="#FF9A3C"/>
</linearGradient>
<linearGradient id="paint1_linear_244_12307" x1="1.62934" y1="48.6154" x2="61.3215" y2="-11.1924" gradientUnits="userSpaceOnUse">
<stop stop-color="#C01E6C"/>
<stop offset="1" stop-color="#FF9A3C"/>
</linearGradient>
<linearGradient id="paint2_linear_244_12307" x1="1.62934" y1="48.6154" x2="61.3215" y2="-11.1924" gradientUnits="userSpaceOnUse">
<stop stop-color="#C01E6C"/>
<stop offset="1" stop-color="#FF9A3C"/>
</linearGradient>
<clipPath id="clip0_244_12307">
<rect width="48" height="48" fill="white"/>
</clipPath>
</defs>
</svg>
