<svg width="48" height="48" viewBox="0 0 48 48" fill="none" xmlns="http://www.w3.org/2000/svg">
<g clip-path="url(#clip0_244_12662)">
<mask id="path-1-inside-1_244_12662" fill="white">
<path d="M24.0003 37.3347C16.6484 37.3347 10.667 31.3533 10.667 24.0013C10.667 16.6494 16.6484 10.668 24.0003 10.668C31.3523 10.668 37.3337 16.6494 37.3337 24.0013C37.3337 31.3533 31.3523 37.3347 24.0003 37.3347ZM24.0003 12.9537C17.9088 12.9537 12.9527 17.9098 12.9527 24.0013C12.9527 30.0928 17.9088 35.049 24.0003 35.049C30.0918 35.049 35.048 30.0928 35.048 24.0013C35.048 17.9098 30.0918 12.9537 24.0003 12.9537Z"/>
<path d="M24.0003 37.3347C20.2488 37.3347 18.2852 30.6271 18.2852 24.0013C18.2852 17.3755 20.2488 10.668 24.0003 10.668C27.7518 10.668 29.7137 17.3755 29.7137 24.0013C29.7137 30.6271 27.7518 37.3347 24.0003 37.3347ZM24.0003 12.9537C22.6358 12.9537 20.5709 17.3599 20.5709 24.0013C20.5709 30.6427 22.6358 35.049 24.0003 35.049C25.3649 35.049 27.428 30.6427 27.428 24.0013C27.428 17.3599 25.3649 12.9537 24.0003 12.9537Z"/>
<path d="M35.5351 29.0591H12.4651C11.8342 29.0591 11.3223 28.5472 11.3223 27.9163C11.3223 27.2854 11.8342 26.7734 12.4651 26.7734H35.5351C36.166 26.7734 36.678 27.2854 36.678 27.9163C36.678 28.5472 36.166 29.0591 35.5351 29.0591Z"/>
<path d="M35.5351 21.2271H12.4651C11.8342 21.2271 11.3223 20.7152 11.3223 20.0843C11.3223 19.4534 11.8342 18.9414 12.4651 18.9414H35.5351C36.166 18.9414 36.678 19.4534 36.678 20.0843C36.678 20.7152 36.166 21.2271 35.5351 21.2271Z"/>
<path d="M43.8098 11.4285H37.7146C36.2443 11.4285 35.0479 10.2321 35.0479 8.7618V2.6667C35.048 1.1964 36.2444 0 37.7147 0H43.81C45.2801 0 46.4765 1.1964 46.4765 2.6667V8.76195C46.4765 10.2322 45.2801 11.4285 43.8098 11.4285ZM37.7146 2.2857C37.5047 2.2857 37.3335 2.45685 37.3335 2.6667V8.76195C37.3335 8.9718 37.5047 9.14295 37.7146 9.14295H43.8098C44.0197 9.14295 44.1908 8.9718 44.1908 8.76195V2.6667C44.1908 2.45685 44.0197 2.2857 43.8098 2.2857H37.7146Z"/>
<path d="M24.0003 12.9513C23.3694 12.9513 22.8574 12.4393 22.8574 11.8084V7.23701C22.8574 5.76671 24.0538 4.57031 25.5241 4.57031H36.1908C36.8217 4.57031 37.3336 5.08226 37.3336 5.71316C37.3336 6.34406 36.8217 6.85601 36.1908 6.85601H25.5241C25.3143 6.85601 25.1431 7.02716 25.1431 7.23701V11.8084C25.1431 12.4393 24.6312 12.9513 24.0003 12.9513Z"/>
<path d="M8.76195 12.9519H2.6667C1.1964 12.9519 0 11.7555 0 10.2852V4.19014C0 2.71984 1.1964 1.52344 2.6667 1.52344H8.76195C10.2322 1.52344 11.4286 2.71984 11.4286 4.19014V10.2854C11.4286 11.7557 10.2322 12.9519 8.76195 12.9519ZM2.6667 3.80914C2.45685 3.80914 2.2857 3.98029 2.2857 4.19014V10.2854C2.2857 10.4952 2.45685 10.6664 2.6667 10.6664H8.76195C8.9718 10.6664 9.14295 10.4952 9.14295 10.2854V4.19014C9.14295 3.98029 8.9718 3.80914 8.76195 3.80914H2.6667Z"/>
<path d="M11.8104 25.1442H7.23897C5.76867 25.1442 4.57227 23.9478 4.57227 22.4775V11.8108C4.57227 11.1799 5.08422 10.668 5.71512 10.668C6.34602 10.668 6.85797 11.1799 6.85797 11.8108V22.4775C6.85797 22.6873 7.02912 22.8585 7.23897 22.8585H11.8104C12.4413 22.8585 12.9527 23.3704 12.9527 24.0013C12.9527 24.6322 12.4413 25.1442 11.8104 25.1442Z"/>
<path d="M10.2852 47.999H4.19014C2.71984 47.999 1.52344 46.8026 1.52344 45.3323V39.237C1.52344 37.7667 2.71984 36.5703 4.19014 36.5703H10.2854C11.7557 36.5703 12.9521 37.7667 12.9521 39.237V45.3323C12.9521 46.8026 11.7555 47.999 10.2852 47.999ZM4.18999 38.8562C3.98014 38.8562 3.80899 39.0273 3.80899 39.2372V45.3324C3.80899 45.5423 3.98014 45.7134 4.18999 45.7134H10.2852C10.4951 45.7134 10.6662 45.5423 10.6662 45.3324V39.2372C10.6662 39.0273 10.4951 38.8562 10.2852 38.8562H4.18999Z"/>
<path d="M22.4765 43.4278H11.8098C11.1789 43.4278 10.667 42.9159 10.667 42.285C10.667 41.6541 11.1789 41.1421 11.8098 41.1421H22.4765C22.6863 41.1421 22.8575 40.971 22.8575 40.7611V36.1897C22.8575 35.5588 23.3694 35.0469 24.0003 35.0469C24.6312 35.0469 25.1432 35.5588 25.1432 36.1897V40.7611C25.1432 42.2314 23.9468 43.4278 22.4765 43.4278Z"/>
<path d="M45.3332 46.4755H39.238C37.7677 46.4755 36.5713 45.2791 36.5713 43.8088V37.7136C36.5713 36.2433 37.7677 35.0469 39.238 35.0469H45.3332C46.8035 35.0469 47.9999 36.2433 47.9999 37.7136V43.8088C47.9999 45.2791 46.8035 46.4755 45.3332 46.4755ZM39.238 37.3327C39.0281 37.3327 38.857 37.5039 38.857 37.7137V43.809C38.857 44.0188 39.0281 44.19 39.238 44.19H45.3332C45.5431 44.19 45.7142 44.0188 45.7142 43.809V37.7137C45.7142 37.5039 45.5431 37.3327 45.3332 37.3327H39.238Z"/>
<path d="M42.2859 37.3336C41.655 37.3336 41.1431 36.8217 41.1431 36.1908V25.5241C41.1431 25.3143 40.972 25.1431 40.7621 25.1431H36.1907C35.5598 25.1431 35.0479 24.6312 35.0479 24.0003C35.0479 23.3694 35.5598 22.8574 36.1907 22.8574H40.7621C42.2324 22.8574 43.4288 24.0538 43.4288 25.5241V36.1908C43.4288 36.8217 42.9169 37.3336 42.2859 37.3336Z"/>
</mask>
<path d="M24.0003 37.3347C16.6484 37.3347 10.667 31.3533 10.667 24.0013C10.667 16.6494 16.6484 10.668 24.0003 10.668C31.3523 10.668 37.3337 16.6494 37.3337 24.0013C37.3337 31.3533 31.3523 37.3347 24.0003 37.3347ZM24.0003 12.9537C17.9088 12.9537 12.9527 17.9098 12.9527 24.0013C12.9527 30.0928 17.9088 35.049 24.0003 35.049C30.0918 35.049 35.048 30.0928 35.048 24.0013C35.048 17.9098 30.0918 12.9537 24.0003 12.9537Z" fill="url(#paint0_linear_244_12662)"/>
<path d="M24.0003 37.3347C20.2488 37.3347 18.2852 30.6271 18.2852 24.0013C18.2852 17.3755 20.2488 10.668 24.0003 10.668C27.7518 10.668 29.7137 17.3755 29.7137 24.0013C29.7137 30.6271 27.7518 37.3347 24.0003 37.3347ZM24.0003 12.9537C22.6358 12.9537 20.5709 17.3599 20.5709 24.0013C20.5709 30.6427 22.6358 35.049 24.0003 35.049C25.3649 35.049 27.428 30.6427 27.428 24.0013C27.428 17.3599 25.3649 12.9537 24.0003 12.9537Z" fill="url(#paint1_linear_244_12662)"/>
<path d="M35.5351 29.0591H12.4651C11.8342 29.0591 11.3223 28.5472 11.3223 27.9163C11.3223 27.2854 11.8342 26.7734 12.4651 26.7734H35.5351C36.166 26.7734 36.678 27.2854 36.678 27.9163C36.678 28.5472 36.166 29.0591 35.5351 29.0591Z" fill="url(#paint2_linear_244_12662)"/>
<path d="M35.5351 21.2271H12.4651C11.8342 21.2271 11.3223 20.7152 11.3223 20.0843C11.3223 19.4534 11.8342 18.9414 12.4651 18.9414H35.5351C36.166 18.9414 36.678 19.4534 36.678 20.0843C36.678 20.7152 36.166 21.2271 35.5351 21.2271Z" fill="url(#paint3_linear_244_12662)"/>
<path d="M43.8098 11.4285H37.7146C36.2443 11.4285 35.0479 10.2321 35.0479 8.7618V2.6667C35.048 1.1964 36.2444 0 37.7147 0H43.81C45.2801 0 46.4765 1.1964 46.4765 2.6667V8.76195C46.4765 10.2322 45.2801 11.4285 43.8098 11.4285ZM37.7146 2.2857C37.5047 2.2857 37.3335 2.45685 37.3335 2.6667V8.76195C37.3335 8.9718 37.5047 9.14295 37.7146 9.14295H43.8098C44.0197 9.14295 44.1908 8.9718 44.1908 8.76195V2.6667C44.1908 2.45685 44.0197 2.2857 43.8098 2.2857H37.7146Z" fill="url(#paint4_linear_244_12662)"/>
<path d="M24.0003 12.9513C23.3694 12.9513 22.8574 12.4393 22.8574 11.8084V7.23701C22.8574 5.76671 24.0538 4.57031 25.5241 4.57031H36.1908C36.8217 4.57031 37.3336 5.08226 37.3336 5.71316C37.3336 6.34406 36.8217 6.85601 36.1908 6.85601H25.5241C25.3143 6.85601 25.1431 7.02716 25.1431 7.23701V11.8084C25.1431 12.4393 24.6312 12.9513 24.0003 12.9513Z" fill="url(#paint5_linear_244_12662)"/>
<path d="M8.76195 12.9519H2.6667C1.1964 12.9519 0 11.7555 0 10.2852V4.19014C0 2.71984 1.1964 1.52344 2.6667 1.52344H8.76195C10.2322 1.52344 11.4286 2.71984 11.4286 4.19014V10.2854C11.4286 11.7557 10.2322 12.9519 8.76195 12.9519ZM2.6667 3.80914C2.45685 3.80914 2.2857 3.98029 2.2857 4.19014V10.2854C2.2857 10.4952 2.45685 10.6664 2.6667 10.6664H8.76195C8.9718 10.6664 9.14295 10.4952 9.14295 10.2854V4.19014C9.14295 3.98029 8.9718 3.80914 8.76195 3.80914H2.6667Z" fill="url(#paint6_linear_244_12662)"/>
<path d="M11.8104 25.1442H7.23897C5.76867 25.1442 4.57227 23.9478 4.57227 22.4775V11.8108C4.57227 11.1799 5.08422 10.668 5.71512 10.668C6.34602 10.668 6.85797 11.1799 6.85797 11.8108V22.4775C6.85797 22.6873 7.02912 22.8585 7.23897 22.8585H11.8104C12.4413 22.8585 12.9527 23.3704 12.9527 24.0013C12.9527 24.6322 12.4413 25.1442 11.8104 25.1442Z" fill="url(#paint7_linear_244_12662)"/>
<path d="M10.2852 47.999H4.19014C2.71984 47.999 1.52344 46.8026 1.52344 45.3323V39.237C1.52344 37.7667 2.71984 36.5703 4.19014 36.5703H10.2854C11.7557 36.5703 12.9521 37.7667 12.9521 39.237V45.3323C12.9521 46.8026 11.7555 47.999 10.2852 47.999ZM4.18999 38.8562C3.98014 38.8562 3.80899 39.0273 3.80899 39.2372V45.3324C3.80899 45.5423 3.98014 45.7134 4.18999 45.7134H10.2852C10.4951 45.7134 10.6662 45.5423 10.6662 45.3324V39.2372C10.6662 39.0273 10.4951 38.8562 10.2852 38.8562H4.18999Z" fill="url(#paint8_linear_244_12662)"/>
<path d="M22.4765 43.4278H11.8098C11.1789 43.4278 10.667 42.9159 10.667 42.285C10.667 41.6541 11.1789 41.1421 11.8098 41.1421H22.4765C22.6863 41.1421 22.8575 40.971 22.8575 40.7611V36.1897C22.8575 35.5588 23.3694 35.0469 24.0003 35.0469C24.6312 35.0469 25.1432 35.5588 25.1432 36.1897V40.7611C25.1432 42.2314 23.9468 43.4278 22.4765 43.4278Z" fill="url(#paint9_linear_244_12662)"/>
<path d="M45.3332 46.4755H39.238C37.7677 46.4755 36.5713 45.2791 36.5713 43.8088V37.7136C36.5713 36.2433 37.7677 35.0469 39.238 35.0469H45.3332C46.8035 35.0469 47.9999 36.2433 47.9999 37.7136V43.8088C47.9999 45.2791 46.8035 46.4755 45.3332 46.4755ZM39.238 37.3327C39.0281 37.3327 38.857 37.5039 38.857 37.7137V43.809C38.857 44.0188 39.0281 44.19 39.238 44.19H45.3332C45.5431 44.19 45.7142 44.0188 45.7142 43.809V37.7137C45.7142 37.5039 45.5431 37.3327 45.3332 37.3327H39.238Z" fill="url(#paint10_linear_244_12662)"/>
<path d="M42.2859 37.3336C41.655 37.3336 41.1431 36.8217 41.1431 36.1908V25.5241C41.1431 25.3143 40.972 25.1431 40.7621 25.1431H36.1907C35.5598 25.1431 35.0479 24.6312 35.0479 24.0003C35.0479 23.3694 35.5598 22.8574 36.1907 22.8574H40.7621C42.2324 22.8574 43.4288 24.0538 43.4288 25.5241V36.1908C43.4288 36.8217 42.9169 37.3336 42.2859 37.3336Z" fill="url(#paint11_linear_244_12662)"/>
<path d="M35.0479 2.6667L33.5479 2.66655V2.6667H35.0479ZM24.0003 37.3347V35.8347C17.4768 35.8347 12.167 30.5248 12.167 24.0013H10.667H9.16699C9.16699 32.1817 15.82 38.8347 24.0003 38.8347V37.3347ZM10.667 24.0013H12.167C12.167 17.4778 17.4768 12.168 24.0003 12.168V10.668V9.16797C15.82 9.16797 9.16699 15.8209 9.16699 24.0013H10.667ZM24.0003 10.668V12.168C30.5239 12.168 35.8337 17.4778 35.8337 24.0013H37.3337H38.8337C38.8337 15.8209 32.1807 9.16797 24.0003 9.16797V10.668ZM37.3337 24.0013H35.8337C35.8337 30.5248 30.5239 35.8347 24.0003 35.8347V37.3347V38.8347C32.1807 38.8347 38.8337 32.1817 38.8337 24.0013H37.3337ZM24.0003 12.9537V11.4537C17.0804 11.4537 11.4527 17.0814 11.4527 24.0013H12.9527H14.4527C14.4527 18.7382 18.7373 14.4537 24.0003 14.4537V12.9537ZM12.9527 24.0013H11.4527C11.4527 30.9212 17.0804 36.549 24.0003 36.549V35.049V33.549C18.7373 33.549 14.4527 29.2644 14.4527 24.0013H12.9527ZM24.0003 35.049V36.549C30.9203 36.549 36.548 30.9212 36.548 24.0013H35.048H33.548C33.548 29.2644 29.2634 33.549 24.0003 33.549V35.049ZM35.048 24.0013H36.548C36.548 17.0814 30.9203 11.4537 24.0003 11.4537V12.9537V14.4537C29.2634 14.4537 33.548 18.7382 33.548 24.0013H35.048ZM24.0003 37.3347V35.8347C23.1533 35.8347 22.0689 35.0491 21.1366 32.616C20.2617 30.3324 19.7852 27.1936 19.7852 24.0013H18.2852H16.7852C16.7852 27.4349 17.2905 30.9627 18.3352 33.6894C19.3227 36.2665 21.0959 38.8347 24.0003 38.8347V37.3347ZM18.2852 24.0013H19.7852C19.7852 20.8091 20.2617 17.6702 21.1366 15.3867C22.0689 12.9535 23.1533 12.168 24.0003 12.168V10.668V9.16797C21.0959 9.16797 19.3227 11.7362 18.3352 14.3133C17.2905 17.0399 16.7852 20.5678 16.7852 24.0013H18.2852ZM24.0003 10.668V12.168C24.8472 12.168 25.9312 12.9533 26.863 15.3864C27.7376 17.67 28.2137 20.8089 28.2137 24.0013H29.7137H31.2137C31.2137 20.5679 30.7088 17.0401 29.6646 14.3135C28.6777 11.7365 26.905 9.16797 24.0003 9.16797V10.668ZM29.7137 24.0013H28.2137C28.2137 27.1937 27.7376 30.3326 26.863 32.6162C25.9312 35.0494 24.8472 35.8347 24.0003 35.8347V37.3347V38.8347C26.905 38.8347 28.6777 36.2662 29.6646 33.6891C30.7088 30.9625 31.2137 27.4347 31.2137 24.0013H29.7137ZM24.0003 12.9537V11.4537C23.4206 11.4537 22.9392 11.6858 22.59 11.9349C22.238 12.186 21.9389 12.5106 21.6864 12.8491C21.1814 13.5263 20.7341 14.4339 20.3606 15.4845C19.6082 17.6007 19.0709 20.5359 19.0709 24.0013H20.5709H22.0709C22.0709 20.8253 22.566 18.2367 23.1872 16.4895C23.5005 15.6083 23.8253 14.9993 24.0912 14.6427C24.2242 14.4644 24.3103 14.3928 24.3324 14.3771C24.3573 14.3593 24.2389 14.4537 24.0003 14.4537V12.9537ZM20.5709 24.0013H19.0709C19.0709 27.4667 19.6082 30.4019 20.3606 32.5182C20.7341 33.5687 21.1814 34.4763 21.6864 35.1535C21.9389 35.492 22.238 35.8166 22.59 36.0677C22.9392 36.3169 23.4206 36.549 24.0003 36.549V35.049V33.549C24.2389 33.549 24.3573 33.6434 24.3324 33.6256C24.3103 33.6098 24.2242 33.5383 24.0912 33.36C23.8253 33.0034 23.5005 32.3944 23.1872 31.5132C22.566 29.766 22.0709 27.1773 22.0709 24.0013H20.5709ZM24.0003 35.049V36.549C25.1067 36.549 25.8837 35.7307 26.3142 35.1532C26.819 34.476 27.2661 33.5684 27.6393 32.5179C28.3912 30.4017 28.928 27.4666 28.928 24.0013H27.428H25.928C25.928 27.1774 25.4332 29.7662 24.8124 31.5135C24.4993 32.3947 24.1747 33.0037 23.909 33.3602C23.5688 33.8165 23.5762 33.549 24.0003 33.549V35.049ZM27.428 24.0013H28.928C28.928 20.536 28.3912 17.601 27.6393 15.4848C27.2661 14.4343 26.819 13.5266 26.3142 12.8494C25.8837 12.272 25.1067 11.4537 24.0003 11.4537V12.9537V14.4537C23.5762 14.4537 23.5688 14.1861 23.909 14.6424C24.1747 14.9989 24.4993 15.6079 24.8124 16.4892C25.4332 18.2364 25.928 20.8252 25.928 24.0013H27.428ZM35.5351 29.0591V27.5591H12.4651V29.0591V30.5591H35.5351V29.0591ZM12.4651 29.0591V27.5591C12.6626 27.5591 12.8223 27.7188 12.8223 27.9163H11.3223H9.82227C9.82227 29.3756 11.0058 30.5591 12.4651 30.5591V29.0591ZM11.3223 27.9163H12.8223C12.8223 28.1138 12.6626 28.2734 12.4651 28.2734V26.7734V25.2734C11.0058 25.2734 9.82227 26.457 9.82227 27.9163H11.3223ZM12.4651 26.7734V28.2734H35.5351V26.7734V25.2734H12.4651V26.7734ZM35.5351 26.7734V28.2734C35.3376 28.2734 35.178 28.1138 35.178 27.9163H36.678H38.178C38.178 26.457 36.9944 25.2734 35.5351 25.2734V26.7734ZM36.678 27.9163H35.178C35.178 27.7188 35.3376 27.5591 35.5351 27.5591V29.0591V30.5591C36.9944 30.5591 38.178 29.3756 38.178 27.9163H36.678ZM35.5351 21.2271V19.7271H12.4651V21.2271V22.7271H35.5351V21.2271ZM12.4651 21.2271V19.7271C12.6626 19.7271 12.8223 19.8867 12.8223 20.0843H11.3223H9.82227C9.82227 21.5436 11.0058 22.7271 12.4651 22.7271V21.2271ZM11.3223 20.0843H12.8223C12.8223 20.2818 12.6626 20.4414 12.4651 20.4414V18.9414V17.4414C11.0058 17.4414 9.82227 18.6249 9.82227 20.0843H11.3223ZM12.4651 18.9414V20.4414H35.5351V18.9414V17.4414H12.4651V18.9414ZM35.5351 18.9414V20.4414C35.3376 20.4414 35.178 20.2818 35.178 20.0843H36.678H38.178C38.178 18.6249 36.9944 17.4414 35.5351 17.4414V18.9414ZM36.678 20.0843H35.178C35.178 19.8867 35.3376 19.7271 35.5351 19.7271V21.2271V22.7271C36.9945 22.7271 38.178 21.5436 38.178 20.0843H36.678ZM43.8098 11.4285V9.9285H37.7146V11.4285V12.9285H43.8098V11.4285ZM37.7146 11.4285V9.9285C37.0727 9.9285 36.5479 9.40367 36.5479 8.7618H35.0479H33.5479C33.5479 11.0605 35.4158 12.9285 37.7146 12.9285V11.4285ZM35.0479 8.7618H36.5479V2.6667H35.0479H33.5479V8.7618H35.0479ZM35.0479 2.6667L36.5479 2.66685C36.5479 2.02483 37.0729 1.5 37.7147 1.5V0V-1.5C35.4159 -1.5 33.5481 0.367968 33.5479 2.66655L35.0479 2.6667ZM37.7147 0V1.5H43.81V0V-1.5H37.7147V0ZM43.81 0V1.5C44.4516 1.5 44.9765 2.02477 44.9765 2.6667H46.4765H47.9765C47.9765 0.368028 46.1086 -1.5 43.81 -1.5V0ZM46.4765 2.6667H44.9765V8.76195H46.4765H47.9765V2.6667H46.4765ZM46.4765 8.76195H44.9765C44.9765 9.40371 44.4518 9.9285 43.8098 9.9285V11.4285V12.9285C46.1084 12.9285 47.9765 11.0608 47.9765 8.76195H46.4765ZM37.7146 2.2857V0.7857C36.6763 0.7857 35.8335 1.62842 35.8335 2.6667H37.3335H38.8335C38.8335 3.28528 38.3331 3.7857 37.7146 3.7857V2.2857ZM37.3335 2.6667H35.8335V8.76195H37.3335H38.8335V2.6667H37.3335ZM37.3335 8.76195H35.8335C35.8335 9.80023 36.6763 10.643 37.7146 10.643V9.14295V7.64295C38.3331 7.64295 38.8335 8.14337 38.8335 8.76195H37.3335ZM37.7146 9.14295V10.643H43.8098V9.14295V7.64295H37.7146V9.14295ZM43.8098 9.14295V10.643C44.8481 10.643 45.6908 9.80023 45.6908 8.76195H44.1908H42.6908C42.6908 8.14337 43.1912 7.64295 43.8098 7.64295V9.14295ZM44.1908 8.76195H45.6908V2.6667H44.1908H42.6908V8.76195H44.1908ZM44.1908 2.6667H45.6908C45.6908 1.62842 44.8481 0.7857 43.8098 0.7857V2.2857V3.7857C43.1912 3.7857 42.6908 3.28528 42.6908 2.6667H44.1908ZM43.8098 2.2857V0.7857H37.7146V2.2857V3.7857H43.8098V2.2857ZM24.0003 12.9513V11.4513C24.1978 11.4513 24.3574 11.6109 24.3574 11.8084H22.8574H21.3574C21.3574 13.2677 22.5409 14.4513 24.0003 14.4513V12.9513ZM22.8574 11.8084H24.3574V7.23701H22.8574H21.3574V11.8084H22.8574ZM22.8574 7.23701H24.3574C24.3574 6.59514 24.8822 6.07031 25.5241 6.07031V4.57031V3.07031C23.2254 3.07031 21.3574 4.93829 21.3574 7.23701H22.8574ZM25.5241 4.57031V6.07031H36.1908V4.57031V3.07031H25.5241V4.57031ZM36.1908 4.57031V6.07031C35.9932 6.07031 35.8336 5.91069 35.8336 5.71316H37.3336H38.8336C38.8336 4.25384 37.6501 3.07031 36.1908 3.07031V4.57031ZM37.3336 5.71316H35.8336C35.8336 5.51564 35.9932 5.35601 36.1908 5.35601V6.85601V8.35601C37.6501 8.35601 38.8336 7.17249 38.8336 5.71316H37.3336ZM36.1908 6.85601V5.35601H25.5241V6.85601V8.35601H36.1908V6.85601ZM25.5241 6.85601V5.35601C24.4858 5.35601 23.6431 6.19874 23.6431 7.23701H25.1431H26.6431C26.6431 7.85558 26.1427 8.35601 25.5241 8.35601V6.85601ZM25.1431 7.23701H23.6431V11.8084H25.1431H26.6431V7.23701H25.1431ZM25.1431 11.8084H23.6431C23.6431 11.6109 23.8027 11.4513 24.0003 11.4513V12.9513V14.4513C25.4596 14.4513 26.6431 13.2677 26.6431 11.8084H25.1431ZM8.76195 12.9519V11.4519H2.6667V12.9519V14.4519H8.76195V12.9519ZM2.6667 12.9519V11.4519C2.02483 11.4519 1.5 10.9271 1.5 10.2852H0H-1.5C-1.5 12.584 0.367972 14.4519 2.6667 14.4519V12.9519ZM0 10.2852H1.5V4.19014H0H-1.5V10.2852H0ZM0 4.19014H1.5C1.5 3.54826 2.02483 3.02344 2.6667 3.02344V1.52344V0.0234375C0.367973 0.0234375 -1.5 1.89141 -1.5 4.19014H0ZM2.6667 1.52344V3.02344H8.76195V1.52344V0.0234375H2.6667V1.52344ZM8.76195 1.52344V3.02344C9.40382 3.02344 9.92865 3.54826 9.92865 4.19014H11.4286H12.9286C12.9286 1.89141 11.0607 0.0234375 8.76195 0.0234375V1.52344ZM11.4286 4.19014H9.92865V10.2854H11.4286H12.9286V4.19014H11.4286ZM11.4286 10.2854H9.92865C9.92865 10.9271 9.40393 11.4519 8.76195 11.4519V12.9519V14.4519C11.0606 14.4519 12.9286 12.5842 12.9286 10.2854H11.4286ZM2.6667 3.80914V2.30914C1.62842 2.30914 0.7857 3.15186 0.7857 4.19014H2.2857H3.7857C3.7857 4.80871 3.28528 5.30914 2.6667 5.30914V3.80914ZM2.2857 4.19014H0.7857V10.2854H2.2857H3.7857V4.19014H2.2857ZM2.2857 10.2854H0.7857C0.7857 11.3237 1.62842 12.1664 2.6667 12.1664V10.6664V9.16639C3.28528 9.16639 3.7857 9.66681 3.7857 10.2854H2.2857ZM2.6667 10.6664V12.1664H8.76195V10.6664V9.16639H2.6667V10.6664ZM8.76195 10.6664V12.1664C9.80023 12.1664 10.643 11.3237 10.643 10.2854H9.14295H7.64295C7.64295 9.66681 8.14337 9.16639 8.76195 9.16639V10.6664ZM9.14295 10.2854H10.643V4.19014H9.14295H7.64295V10.2854H9.14295ZM9.14295 4.19014H10.643C10.643 3.15186 9.80022 2.30914 8.76195 2.30914V3.80914V5.30914C8.14338 5.30914 7.64295 4.80872 7.64295 4.19014H9.14295ZM8.76195 3.80914V2.30914H2.6667V3.80914V5.30914H8.76195V3.80914ZM11.8104 25.1442V23.6442H7.23897V25.1442V26.6442H11.8104V25.1442ZM7.23897 25.1442V23.6442C6.59709 23.6442 6.07227 23.1193 6.07227 22.4775H4.57227H3.07227C3.07227 24.7762 4.94024 26.6442 7.23897 26.6442V25.1442ZM4.57227 22.4775H6.07227V11.8108H4.57227H3.07227V22.4775H4.57227ZM4.57227 11.8108H6.07227C6.07227 12.0083 5.91264 12.168 5.71512 12.168V10.668V9.16797C4.25579 9.16797 3.07227 10.3515 3.07227 11.8108H4.57227ZM5.71512 10.668V12.168C5.51759 12.168 5.35797 12.0083 5.35797 11.8108H6.85797H8.35797C8.35797 10.3515 7.17444 9.16797 5.71512 9.16797V10.668ZM6.85797 11.8108H5.35797V22.4775H6.85797H8.35797V11.8108H6.85797ZM6.85797 22.4775H5.35797C5.35797 23.5157 6.20068 24.3585 7.23897 24.3585V22.8585V21.3585C7.85755 21.3585 8.35797 21.8589 8.35797 22.4775H6.85797ZM7.23897 22.8585V24.3585H11.8104V22.8585V21.3585H7.23897V22.8585ZM11.8104 22.8585V24.3585C11.6119 24.3585 11.4527 24.198 11.4527 24.0013H12.9527H14.4527C14.4527 22.5429 13.2706 21.3585 11.8104 21.3585V22.8585ZM12.9527 24.0013H11.4527C11.4527 23.8047 11.6119 23.6442 11.8104 23.6442V25.1442V26.6442C13.2706 26.6442 14.4527 25.4597 14.4527 24.0013H12.9527ZM10.2852 47.999V46.499H4.19014V47.999V49.499H10.2852V47.999ZM4.19014 47.999V46.499C3.54826 46.499 3.02344 45.9741 3.02344 45.3323H1.52344H0.0234375C0.0234375 47.631 1.89141 49.499 4.19014 49.499V47.999ZM1.52344 45.3323H3.02344V39.237H1.52344H0.0234375V45.3323H1.52344ZM1.52344 39.237H3.02344C3.02344 38.5951 3.54827 38.0703 4.19014 38.0703V36.5703V35.0703C1.89141 35.0703 0.0234375 36.9383 0.0234375 39.237H1.52344ZM4.19014 36.5703V38.0703H10.2854V36.5703V35.0703H4.19014V36.5703ZM10.2854 36.5703V38.0703C10.9273 38.0703 11.4521 38.5951 11.4521 39.237H12.9521H14.4521C14.4521 36.9383 12.5841 35.0703 10.2854 35.0703V36.5703ZM12.9521 39.237H11.4521V45.3323H12.9521H14.4521V39.237H12.9521ZM12.9521 45.3323H11.4521C11.4521 45.974 10.9272 46.499 10.2852 46.499V47.999V49.499C12.5839 49.499 14.4521 47.6311 14.4521 45.3323H12.9521ZM4.18999 38.8562V37.3562C3.15171 37.3562 2.30899 38.1989 2.30899 39.2372H3.80899H5.30899C5.30899 39.8557 4.80857 40.3562 4.18999 40.3562V38.8562ZM3.80899 39.2372H2.30899V45.3324H3.80899H5.30899V39.2372H3.80899ZM3.80899 45.3324H2.30899C2.30899 46.3707 3.15171 47.2134 4.18999 47.2134V45.7134V44.2134C4.80857 44.2134 5.30899 44.7138 5.30899 45.3324H3.80899ZM4.18999 45.7134V47.2134H10.2852V45.7134V44.2134H4.18999V45.7134ZM10.2852 45.7134V47.2134C11.3235 47.2134 12.1662 46.3707 12.1662 45.3324H10.6662H9.16624C9.16624 44.7138 9.66666 44.2134 10.2852 44.2134V45.7134ZM10.6662 45.3324H12.1662V39.2372H10.6662H9.16624V45.3324H10.6662ZM10.6662 39.2372H12.1662C12.1662 38.1989 11.3235 37.3562 10.2852 37.3562V38.8562V40.3562C9.66666 40.3562 9.16624 39.8557 9.16624 39.2372H10.6662ZM10.2852 38.8562V37.3562H4.18999V38.8562V40.3562H10.2852V38.8562ZM22.4765 43.4278V41.9278H11.8098V43.4278V44.9278H22.4765V43.4278ZM11.8098 43.4278V41.9278C12.0074 41.9278 12.167 42.0875 12.167 42.285H10.667H9.16699C9.16699 43.7443 10.3505 44.9278 11.8098 44.9278V43.4278ZM10.667 42.285H12.167C12.167 42.4825 12.0074 42.6421 11.8098 42.6421V41.1421V39.6421C10.3505 39.6421 9.16699 40.8256 9.16699 42.285H10.667ZM11.8098 41.1421V42.6421H22.4765V41.1421V39.6421H11.8098V41.1421ZM22.4765 41.1421V42.6421C23.5148 42.6421 24.3575 41.7994 24.3575 40.7611H22.8575H21.3575C21.3575 40.1425 21.8579 39.6421 22.4765 39.6421V41.1421ZM22.8575 40.7611H24.3575V36.1897H22.8575H21.3575V40.7611H22.8575ZM22.8575 36.1897H24.3575C24.3575 36.3873 24.1979 36.5469 24.0003 36.5469V35.0469V33.5469C22.541 33.5469 21.3575 34.7304 21.3575 36.1897H22.8575ZM24.0003 35.0469V36.5469C23.8028 36.5469 23.6432 36.3873 23.6432 36.1897H25.1432H26.6432C26.6432 34.7304 25.4597 33.5469 24.0003 33.5469V35.0469ZM25.1432 36.1897H23.6432V40.7611H25.1432H26.6432V36.1897H25.1432ZM25.1432 40.7611H23.6432C23.6432 41.403 23.1184 41.9278 22.4765 41.9278V43.4278V44.9278C24.7752 44.9278 26.6432 43.0598 26.6432 40.7611H25.1432ZM45.3332 46.4755V44.9755H39.238V46.4755V47.9755H45.3332V46.4755ZM39.238 46.4755V44.9755C38.5961 44.9755 38.0713 44.4507 38.0713 43.8088H36.5713H35.0713C35.0713 46.1076 36.9393 47.9755 39.238 47.9755V46.4755ZM36.5713 43.8088H38.0713V37.7136H36.5713H35.0713V43.8088H36.5713ZM36.5713 37.7136H38.0713C38.0713 37.0717 38.5961 36.5469 39.238 36.5469V35.0469V33.5469C36.9393 33.5469 35.0713 35.4148 35.0713 37.7136H36.5713ZM39.238 35.0469V36.5469H45.3332V35.0469V33.5469H39.238V35.0469ZM45.3332 35.0469V36.5469C45.9751 36.5469 46.4999 37.0717 46.4999 37.7136H47.9999H49.4999C49.4999 35.4148 47.632 33.5469 45.3332 33.5469V35.0469ZM47.9999 37.7136H46.4999V43.8088H47.9999H49.4999V37.7136H47.9999ZM47.9999 43.8088H46.4999C46.4999 44.4507 45.9751 44.9755 45.3332 44.9755V46.4755V47.9755C47.632 47.9755 49.4999 46.1076 49.4999 43.8088H47.9999ZM39.238 37.3327V35.8327C38.1997 35.8327 37.357 36.6754 37.357 37.7137H38.857H40.357C40.357 38.3323 39.8565 38.8327 39.238 38.8327V37.3327ZM38.857 37.7137H37.357V43.809H38.857H40.357V37.7137H38.857ZM38.857 43.809H37.357C37.357 44.8473 38.1997 45.69 39.238 45.69V44.19V42.69C39.8565 42.69 40.357 43.1904 40.357 43.809H38.857ZM39.238 44.19V45.69H45.3332V44.19V42.69H39.238V44.19ZM45.3332 44.19V45.69C46.3715 45.69 47.2142 44.8473 47.2142 43.809H45.7142H44.2142C44.2142 43.1904 44.7147 42.69 45.3332 42.69V44.19ZM45.7142 43.809H47.2142V37.7137H45.7142H44.2142V43.809H45.7142ZM45.7142 37.7137H47.2142C47.2142 36.6754 46.3715 35.8327 45.3332 35.8327V37.3327V38.8327C44.7147 38.8327 44.2142 38.3323 44.2142 37.7137H45.7142ZM45.3332 37.3327V35.8327H39.238V37.3327V38.8327H45.3332V37.3327ZM42.2859 37.3336V35.8336C42.4835 35.8336 42.6431 35.9932 42.6431 36.1908H41.1431H39.6431C39.6431 37.6501 40.8266 38.8336 42.2859 38.8336V37.3336ZM41.1431 36.1908H42.6431V25.5241H41.1431H39.6431V36.1908H41.1431ZM41.1431 25.5241H42.6431C42.6431 24.4858 41.8004 23.6431 40.7621 23.6431V25.1431V26.6431C40.1435 26.6431 39.6431 26.1427 39.6431 25.5241H41.1431ZM40.7621 25.1431V23.6431H36.1907V25.1431V26.6431H40.7621V25.1431ZM36.1907 25.1431V23.6431C36.3882 23.6431 36.5479 23.8027 36.5479 24.0003H35.0479H33.5479C33.5479 25.4596 34.7314 26.6431 36.1907 26.6431V25.1431ZM35.0479 24.0003H36.5479C36.5479 24.1978 36.3882 24.3574 36.1907 24.3574V22.8574V21.3574C34.7314 21.3574 33.5479 22.5409 33.5479 24.0003H35.0479ZM36.1907 22.8574V24.3574H40.7621V22.8574V21.3574H36.1907V22.8574ZM40.7621 22.8574V24.3574C41.404 24.3574 41.9288 24.8822 41.9288 25.5241H43.4288H44.9288C44.9288 23.2254 43.0608 21.3574 40.7621 21.3574V22.8574ZM43.4288 25.5241H41.9288V36.1908H43.4288H44.9288V25.5241H43.4288ZM43.4288 36.1908H41.9288C41.9288 35.9932 42.0884 35.8336 42.2859 35.8336V37.3336V38.8336C43.7453 38.8336 44.9288 37.6501 44.9288 36.1908H43.4288Z" fill="url(#paint12_linear_244_12662)" mask="url(#path-1-inside-1_244_12662)"/>
</g>
<defs>
<linearGradient id="paint0_linear_244_12662" x1="93.1199" y1="-49.1029" x2="-55.7247" y2="108.289" gradientUnits="userSpaceOnUse">
<stop stop-color="#FFF33B"/>
<stop offset="0.04" stop-color="#FEE72E"/>
<stop offset="0.12" stop-color="#FED51B"/>
<stop offset="0.2" stop-color="#FDCA10"/>
<stop offset="0.28" stop-color="#FDC70C"/>
<stop offset="0.67" stop-color="#F3903F"/>
<stop offset="0.89" stop-color="#ED683C"/>
<stop offset="1" stop-color="#E93E3A"/>
</linearGradient>
<linearGradient id="paint1_linear_244_12662" x1="93.1199" y1="-49.1029" x2="-55.7247" y2="108.289" gradientUnits="userSpaceOnUse">
<stop stop-color="#FFF33B"/>
<stop offset="0.04" stop-color="#FEE72E"/>
<stop offset="0.12" stop-color="#FED51B"/>
<stop offset="0.2" stop-color="#FDCA10"/>
<stop offset="0.28" stop-color="#FDC70C"/>
<stop offset="0.67" stop-color="#F3903F"/>
<stop offset="0.89" stop-color="#ED683C"/>
<stop offset="1" stop-color="#E93E3A"/>
</linearGradient>
<linearGradient id="paint2_linear_244_12662" x1="93.1199" y1="-49.1029" x2="-55.7247" y2="108.289" gradientUnits="userSpaceOnUse">
<stop stop-color="#FFF33B"/>
<stop offset="0.04" stop-color="#FEE72E"/>
<stop offset="0.12" stop-color="#FED51B"/>
<stop offset="0.2" stop-color="#FDCA10"/>
<stop offset="0.28" stop-color="#FDC70C"/>
<stop offset="0.67" stop-color="#F3903F"/>
<stop offset="0.89" stop-color="#ED683C"/>
<stop offset="1" stop-color="#E93E3A"/>
</linearGradient>
<linearGradient id="paint3_linear_244_12662" x1="93.1199" y1="-49.1029" x2="-55.7247" y2="108.289" gradientUnits="userSpaceOnUse">
<stop stop-color="#FFF33B"/>
<stop offset="0.04" stop-color="#FEE72E"/>
<stop offset="0.12" stop-color="#FED51B"/>
<stop offset="0.2" stop-color="#FDCA10"/>
<stop offset="0.28" stop-color="#FDC70C"/>
<stop offset="0.67" stop-color="#F3903F"/>
<stop offset="0.89" stop-color="#ED683C"/>
<stop offset="1" stop-color="#E93E3A"/>
</linearGradient>
<linearGradient id="paint4_linear_244_12662" x1="93.1199" y1="-49.1029" x2="-55.7247" y2="108.289" gradientUnits="userSpaceOnUse">
<stop stop-color="#FFF33B"/>
<stop offset="0.04" stop-color="#FEE72E"/>
<stop offset="0.12" stop-color="#FED51B"/>
<stop offset="0.2" stop-color="#FDCA10"/>
<stop offset="0.28" stop-color="#FDC70C"/>
<stop offset="0.67" stop-color="#F3903F"/>
<stop offset="0.89" stop-color="#ED683C"/>
<stop offset="1" stop-color="#E93E3A"/>
</linearGradient>
<linearGradient id="paint5_linear_244_12662" x1="93.1199" y1="-49.1029" x2="-55.7247" y2="108.289" gradientUnits="userSpaceOnUse">
<stop stop-color="#FFF33B"/>
<stop offset="0.04" stop-color="#FEE72E"/>
<stop offset="0.12" stop-color="#FED51B"/>
<stop offset="0.2" stop-color="#FDCA10"/>
<stop offset="0.28" stop-color="#FDC70C"/>
<stop offset="0.67" stop-color="#F3903F"/>
<stop offset="0.89" stop-color="#ED683C"/>
<stop offset="1" stop-color="#E93E3A"/>
</linearGradient>
<linearGradient id="paint6_linear_244_12662" x1="93.1199" y1="-49.1029" x2="-55.7247" y2="108.289" gradientUnits="userSpaceOnUse">
<stop stop-color="#FFF33B"/>
<stop offset="0.04" stop-color="#FEE72E"/>
<stop offset="0.12" stop-color="#FED51B"/>
<stop offset="0.2" stop-color="#FDCA10"/>
<stop offset="0.28" stop-color="#FDC70C"/>
<stop offset="0.67" stop-color="#F3903F"/>
<stop offset="0.89" stop-color="#ED683C"/>
<stop offset="1" stop-color="#E93E3A"/>
</linearGradient>
<linearGradient id="paint7_linear_244_12662" x1="93.1199" y1="-49.1029" x2="-55.7247" y2="108.289" gradientUnits="userSpaceOnUse">
<stop stop-color="#FFF33B"/>
<stop offset="0.04" stop-color="#FEE72E"/>
<stop offset="0.12" stop-color="#FED51B"/>
<stop offset="0.2" stop-color="#FDCA10"/>
<stop offset="0.28" stop-color="#FDC70C"/>
<stop offset="0.67" stop-color="#F3903F"/>
<stop offset="0.89" stop-color="#ED683C"/>
<stop offset="1" stop-color="#E93E3A"/>
</linearGradient>
<linearGradient id="paint8_linear_244_12662" x1="93.1199" y1="-49.1029" x2="-55.7247" y2="108.289" gradientUnits="userSpaceOnUse">
<stop stop-color="#FFF33B"/>
<stop offset="0.04" stop-color="#FEE72E"/>
<stop offset="0.12" stop-color="#FED51B"/>
<stop offset="0.2" stop-color="#FDCA10"/>
<stop offset="0.28" stop-color="#FDC70C"/>
<stop offset="0.67" stop-color="#F3903F"/>
<stop offset="0.89" stop-color="#ED683C"/>
<stop offset="1" stop-color="#E93E3A"/>
</linearGradient>
<linearGradient id="paint9_linear_244_12662" x1="93.1199" y1="-49.1029" x2="-55.7247" y2="108.289" gradientUnits="userSpaceOnUse">
<stop stop-color="#FFF33B"/>
<stop offset="0.04" stop-color="#FEE72E"/>
<stop offset="0.12" stop-color="#FED51B"/>
<stop offset="0.2" stop-color="#FDCA10"/>
<stop offset="0.28" stop-color="#FDC70C"/>
<stop offset="0.67" stop-color="#F3903F"/>
<stop offset="0.89" stop-color="#ED683C"/>
<stop offset="1" stop-color="#E93E3A"/>
</linearGradient>
<linearGradient id="paint10_linear_244_12662" x1="93.1199" y1="-49.1029" x2="-55.7247" y2="108.289" gradientUnits="userSpaceOnUse">
<stop stop-color="#FFF33B"/>
<stop offset="0.04" stop-color="#FEE72E"/>
<stop offset="0.12" stop-color="#FED51B"/>
<stop offset="0.2" stop-color="#FDCA10"/>
<stop offset="0.28" stop-color="#FDC70C"/>
<stop offset="0.67" stop-color="#F3903F"/>
<stop offset="0.89" stop-color="#ED683C"/>
<stop offset="1" stop-color="#E93E3A"/>
</linearGradient>
<linearGradient id="paint11_linear_244_12662" x1="93.1199" y1="-49.1029" x2="-55.7247" y2="108.289" gradientUnits="userSpaceOnUse">
<stop stop-color="#FFF33B"/>
<stop offset="0.04" stop-color="#FEE72E"/>
<stop offset="0.12" stop-color="#FED51B"/>
<stop offset="0.2" stop-color="#FDCA10"/>
<stop offset="0.28" stop-color="#FDC70C"/>
<stop offset="0.67" stop-color="#F3903F"/>
<stop offset="0.89" stop-color="#ED683C"/>
<stop offset="1" stop-color="#E93E3A"/>
</linearGradient>
<linearGradient id="paint12_linear_244_12662" x1="-2.38692" y1="48.6143" x2="56.4806" y2="-20.9578" gradientUnits="userSpaceOnUse">
<stop stop-color="#C01E6C"/>
<stop offset="1" stop-color="#FF9A3C"/>
</linearGradient>
<clipPath id="clip0_244_12662">
<rect width="48" height="48" fill="white"/>
</clipPath>
</defs>
</svg>
