<svg width="48" height="48" viewBox="0 0 48 48" fill="none" xmlns="http://www.w3.org/2000/svg">
<g clip-path="url(#clip0_244_12685)">
<path d="M18.9153 6.6849L21.4852 5.20121M9.03794 12.3876L11.6072 10.9042M6.46328 31.0655V16.9209M21.4286 42.7642L9.0819 35.6359M39.0224 35.5763L26.5751 42.7627M41.5376 16.9209V31.0655M26.6191 5.26084L38.9657 12.3891M35.1184 17.5761L24.0019 23.9941M24.0019 23.9941L13.0867 17.6923M24.0019 23.9941L24.002 36.5449M18.6267 20.6031L29.3769 14.3965M28.2053 29.8709L31.5487 27.9407M24.002 6.55664C25.5511 6.55664 26.8145 5.29317 26.8145 3.74414C26.8145 2.19511 25.5511 0.931641 24.002 0.931641C22.453 0.931641 21.1895 2.19511 21.1895 3.74414C21.1895 5.29317 22.453 6.55664 24.002 6.55664ZM24.002 47.0569C25.5511 47.0569 26.8145 45.7934 26.8145 44.2444C26.8145 42.6954 25.5511 41.4319 24.002 41.4319C22.453 41.4319 21.1895 42.6954 21.1895 44.2444C21.1895 45.7934 22.453 47.0569 24.002 47.0569ZM6.46484 16.6816C8.01397 16.6816 9.27734 15.4182 9.27734 13.8691C9.27734 12.3201 8.01397 11.0566 6.46484 11.0566C4.91581 11.0566 3.65234 12.3201 3.65234 13.8691C3.65234 15.4182 4.91581 16.6816 6.46484 16.6816ZM6.46484 36.9319C8.01397 36.9319 9.27734 35.6684 9.27734 34.1194C9.27734 32.5704 8.01397 31.3069 6.46484 31.3069C4.91581 31.3069 3.65234 32.5704 3.65234 34.1194C3.65234 35.6684 4.91581 36.9319 6.46484 36.9319ZM41.5393 16.6816C43.0883 16.6816 44.3518 15.4182 44.3518 13.8691C44.3518 12.3201 43.0883 11.0566 41.5393 11.0566C39.9903 11.0566 38.7268 12.3201 38.7268 13.8691C38.7268 15.4182 39.9903 16.6816 41.5393 16.6816ZM41.5393 36.9319C43.0883 36.9319 44.3518 35.6684 44.3518 34.1194C44.3518 32.5704 43.0883 31.3069 41.5393 31.3069C39.9903 31.3069 38.7268 32.5704 38.7268 34.1194C38.7268 35.6684 39.9903 36.9319 41.5393 36.9319ZM24.002 11.0041L35.252 17.4992V30.4896L24.002 36.9846L12.752 30.4896V17.4992L24.002 11.0041Z" stroke="url(#paint0_linear_244_12685)" stroke-width="2.5" stroke-miterlimit="2.613" stroke-linecap="round" stroke-linejoin="round"/>
</g>
<defs>
<linearGradient id="paint0_linear_244_12685" x1="1.62846" y1="47.6483" x2="58.939" y2="-12.1151" gradientUnits="userSpaceOnUse">
<stop stop-color="#C01E6C"/>
<stop offset="1" stop-color="#FF9A3C"/>
</linearGradient>
<clipPath id="clip0_244_12685">
<rect width="48" height="48" fill="white"/>
</clipPath>
</defs>
</svg>
