<svg width="48" height="48" viewBox="0 0 48 48" fill="none" xmlns="http://www.w3.org/2000/svg">
<path d="M45 15C45.825 15 46.5 14.325 46.5 13.5C46.5 12.675 45.825 12 45 12H41.8575C41.2725 9.0525 38.9475 6.7275 36 6.1425V3C36 2.175 35.325 1.5 34.5 1.5C33.675 1.5 33 2.175 33 3V6H30.75V3C30.75 2.175 30.075 1.5 29.25 1.5C28.425 1.5 27.75 2.175 27.75 3V6H25.5V3C25.5 2.175 24.825 1.5 24 1.5C23.175 1.5 22.5 2.175 22.5 3V6H20.25V3C20.25 2.175 19.575 1.5 18.75 1.5C17.925 1.5 17.25 2.175 17.25 3V6H15V3C15 2.175 14.325 1.5 13.5 1.5C12.675 1.5 12 2.175 12 3V6.1425C9.0525 6.7275 6.7275 9.0525 6.1425 12H3C2.175 12 1.5 12.675 1.5 13.5C1.5 14.325 2.175 15 3 15H6V17.25H3C2.175 17.25 1.5 17.925 1.5 18.75C1.5 19.575 2.175 20.25 3 20.25H6V22.5H3C2.175 22.5 1.5 23.175 1.5 24C1.5 24.825 2.175 25.5 3 25.5H6V27.75H3C2.175 27.75 1.5 28.425 1.5 29.25C1.5 30.075 2.175 30.75 3 30.75H6V33H3C2.175 33 1.5 33.675 1.5 34.5C1.5 35.325 2.175 36 3 36H6.1425C6.7275 38.9475 9.0525 41.2725 12 41.8575V45C12 45.825 12.675 46.5 13.5 46.5C14.325 46.5 15 45.825 15 45V42H17.25V45C17.25 45.825 17.925 46.5 18.75 46.5C19.575 46.5 20.25 45.825 20.25 45V42H22.5V45C22.5 45.825 23.175 46.5 24 46.5C24.825 46.5 25.5 45.825 25.5 45V42H27.75V45C27.75 45.825 28.425 46.5 29.25 46.5C30.075 46.5 30.75 45.825 30.75 45V42H33V45C33 45.825 33.675 46.5 34.5 46.5C35.325 46.5 36 45.825 36 45V41.8575C38.9475 41.2725 41.2725 38.9475 41.8575 36H45C45.825 36 46.5 35.325 46.5 34.5C46.5 33.675 45.825 33 45 33H42V30.75H45C45.825 30.75 46.5 30.075 46.5 29.25C46.5 28.425 45.825 27.75 45 27.75H42V25.5H45C45.825 25.5 46.5 24.825 46.5 24C46.5 23.175 45.825 22.5 45 22.5H42V20.25H45C45.825 20.25 46.5 19.575 46.5 18.75C46.5 17.925 45.825 17.25 45 17.25H42V15H45ZM39 34.5525C39 37.005 37.005 39 34.5525 39H13.4475C10.995 39 9 37.005 9 34.5525V13.4475C9 10.995 10.995 9 13.4475 9H34.56C37.0125 9 39.0075 10.995 39.0075 13.4475V34.5525H39Z" fill="url(#paint0_linear_17_3812)"/>
<path d="M23.7368 18.8175C23.6318 18.5025 23.4143 18.3525 23.0918 18.3525H20.5718C20.2493 18.3525 20.0318 18.51 19.9268 18.8175L16.1693 29.16C16.1618 29.19 16.1543 29.2425 16.1543 29.3025C16.1543 29.385 16.1918 29.4675 16.2593 29.535C16.3268 29.6025 16.4093 29.64 16.4918 29.64H18.5918C18.8468 29.64 19.0343 29.52 19.1393 29.2875L19.7168 27.72H23.9468L24.5243 29.2875C24.6293 29.5275 24.8168 29.64 25.0718 29.64H27.1718C27.2543 29.64 27.3368 29.6025 27.4043 29.535C27.4718 29.4675 27.5093 29.385 27.5093 29.3025C27.5093 29.235 27.5018 29.19 27.4943 29.16L23.7368 18.8175ZM20.3918 25.305L21.8243 21.1875L23.2568 25.305H20.3918Z" fill="url(#paint1_linear_17_3812)"/>
<path d="M31.4474 18.3525H29.1374C29.0324 18.3525 28.9349 18.39 28.8524 18.465C28.7699 18.54 28.7324 18.6375 28.7324 18.7575V29.2425C28.7324 29.3475 28.7699 29.445 28.8524 29.5275C28.9349 29.61 29.0249 29.6475 29.1374 29.6475H31.4474C31.5674 29.6475 31.6649 29.61 31.7399 29.5275C31.8149 29.445 31.8524 29.355 31.8524 29.2425V18.7575C31.8524 18.6375 31.8149 18.54 31.7399 18.465C31.6574 18.39 31.5599 18.3525 31.4474 18.3525Z" fill="url(#paint2_linear_17_3812)"/>
<defs>
<linearGradient id="paint0_linear_17_3812" x1="2.4668" y1="45" x2="54.4923" y2="25.9361" gradientUnits="userSpaceOnUse">
<stop stop-color="#6549F6"/>
<stop offset="0.79" stop-color="#FF611D"/>
</linearGradient>
<linearGradient id="paint1_linear_17_3812" x1="16.3983" y1="29.2638" x2="29.5074" y2="24.4314" gradientUnits="userSpaceOnUse">
<stop stop-color="#6549F6"/>
<stop offset="0.79" stop-color="#FF611D"/>
</linearGradient>
<linearGradient id="paint2_linear_17_3812" x1="28.7995" y1="29.271" x2="32.8494" y2="28.8611" gradientUnits="userSpaceOnUse">
<stop stop-color="#6549F6"/>
<stop offset="0.79" stop-color="#FF611D"/>
</linearGradient>
</defs>
</svg>
