<svg width="48" height="48" viewBox="0 0 48 48" fill="none" xmlns="http://www.w3.org/2000/svg">
<path d="M18.2123 10.8945C19.4083 7.39448 24.2443 7.28848 25.6623 10.5765L25.7823 10.8965L27.3963 15.6165C27.7661 16.6989 28.3639 17.6895 29.1491 18.5213C29.9344 19.3532 30.8889 20.0069 31.9483 20.4385L32.3823 20.6005L37.1023 22.2125C40.6023 23.4085 40.7083 28.2445 37.4223 29.6625L37.1023 29.7825L32.3823 31.3965C31.2994 31.7661 30.3085 32.3637 29.4763 33.149C28.6441 33.9343 27.99 34.8889 27.5583 35.9485L27.3963 36.3805L25.7843 41.1025C24.5883 44.6025 19.7523 44.7085 18.3363 41.4225L18.2123 41.1025L16.6003 36.3825C16.2306 35.2996 15.633 34.3087 14.8477 33.4765C14.0625 32.6443 13.1078 31.9903 12.0483 31.5585L11.6163 31.3965L6.89626 29.7845C3.39426 28.5885 3.28826 23.7525 6.57626 22.3365L6.89626 22.2125L11.6163 20.6005C12.6987 20.2306 13.6893 19.6329 14.5211 18.8476C15.3529 18.0624 16.0067 17.1079 16.4383 16.0485L16.6003 15.6165L18.2123 10.8945ZM21.9983 12.1865L20.3863 16.9065C19.823 18.5571 18.9068 20.0651 17.7013 21.3255C16.4959 22.5859 15.0301 23.5683 13.4063 24.2045L12.9063 24.3865L8.18626 25.9985L12.9063 27.6105C14.5569 28.1737 16.0649 29.0899 17.3252 30.2954C18.5856 31.5009 19.5681 32.9666 20.2043 34.5905L20.3863 35.0905L21.9983 39.8105L23.6103 35.0905C24.1735 33.4399 25.0897 31.9319 26.2952 30.6715C27.5007 29.4111 28.9664 28.4286 30.5903 27.7925L31.0903 27.6125L35.8103 25.9985L31.0903 24.3865C29.4396 23.8233 27.9317 22.907 26.6713 21.7016C25.4109 20.4961 24.4284 19.0304 23.7923 17.4065L23.6123 16.9065L21.9983 12.1865Z" fill="#F37A3A"/>
<path d="M36 13.2002C36.4774 13.2002 36.9349 13.39 37.2725 13.7275C37.61 14.0651 37.7998 14.5226 37.7998 15C37.7998 15.4774 37.61 15.9349 37.2725 16.2725C36.9349 16.61 36.4774 16.7998 36 16.7998C35.5226 16.7998 35.0651 16.61 34.7275 16.2725C34.39 15.9349 34.2002 15.4774 34.2002 15C34.2002 14.5226 34.39 14.0651 34.7275 13.7275C35.0651 13.39 35.5226 13.2002 36 13.2002ZM36 3.2002C36.4774 3.2002 36.9349 3.38997 37.2725 3.72754C37.61 4.0651 37.7998 4.52261 37.7998 5V9C37.7998 9.47739 37.61 9.9349 37.2725 10.2725C36.9349 10.61 36.4774 10.7998 36 10.7998C35.5226 10.7998 35.0651 10.61 34.7275 10.2725C34.39 9.9349 34.2002 9.47739 34.2002 9V5C34.2002 4.52261 34.39 4.0651 34.7275 3.72754C35.0651 3.38997 35.5226 3.2002 36 3.2002Z" fill="#F37A3A" stroke="white" stroke-width="0.4"/>
</svg>
