<svg xmlns="http://www.w3.org/2000/svg" width="46" height="46" fill="none"><g clip-path="url(#a)"><path fill="url(#b)" d="M40.667 6.136v-1.47a4 4 0 0 0-4-4H10a4 4 0 0 0-4 4v1.47a6.67 6.67 0 0 0-5.333 6.53V34a6.667 6.667 0 0 0 6.667 6.667h8.509l-1.333 2.666h-1.843a1.333 1.333 0 0 0 0 2.667H34a1.333 1.333 0 0 0 0-2.667h-1.842l-1.334-2.666h8.51A6.666 6.666 0 0 0 46 34V12.667a6.666 6.666 0 0 0-5.333-6.53m-32-1.47A1.333 1.333 0 0 1 10 3.334h26.667A1.333 1.333 0 0 1 38 4.667V10a1.333 1.333 0 0 1-1.333 1.333h-8a1.333 1.333 0 0 0-1.333 1.334v1.645l-4.648-2.79a1.3 1.3 0 0 0-.686-.189H10A1.333 1.333 0 0 1 8.667 10zm-5.333 8A4 4 0 0 1 6 8.913V10a4 4 0 0 0 4 4h11.63l.37.221v18.446h-2.666a6.67 6.67 0 0 0-2.934-5.528 5.333 5.333 0 1 0-7.45 0A6.67 6.67 0 0 0 6 32.667H3.334zm9.333 16a4 4 0 0 1 4 4h-8a4 4 0 0 1 4-4M10 23.334a2.667 2.667 0 1 1 5.334 0 2.667 2.667 0 0 1-5.334 0m7.491 20 1.333-2.666h9.019l1.333 2.666zM39.334 38h-32a4 4 0 0 1-3.755-2.667h39.51A4 4 0 0 1 39.333 38M34 28.667a4 4 0 0 1 4 4h-8a4 4 0 0 1 4-4m-2.666-5.334a2.667 2.667 0 1 1 5.333 0 2.667 2.667 0 0 1-5.333 0m12 9.334h-2.667a6.67 6.67 0 0 0-2.933-5.528 5.334 5.334 0 1 0-7.451 0 6.67 6.67 0 0 0-2.95 5.528h-2.666V15.82l3.315 1.99A1.333 1.333 0 0 0 30 16.667V14h6.667a4 4 0 0 0 4-4V8.912a4 4 0 0 1 2.667 3.755zm-32-25.334A1.333 1.333 0 0 1 12.667 6H34a1.333 1.333 0 1 1 0 2.667H12.667a1.333 1.333 0 0 1-1.333-1.334"/></g><defs><linearGradient id="b" x1="1.641" x2="54.052" y1="44.489" y2="25.284" gradientUnits="userSpaceOnUse"><stop stop-color="#6549F6"/><stop offset=".79" stop-color="#FF611D"/></linearGradient><clipPath id="a"><path fill="#fff" d="M0 0h46v46H0z"/></clipPath></defs></svg>