<svg width="64" height="64" viewBox="0 0 64 64" fill="none" xmlns="http://www.w3.org/2000/svg">
<path d="M28.9132 54.9454H28.7632C28.2442 52.9013 28.0619 50.4695 28.0295 49.9818C27.7801 46.2253 26.239 44.3967 24.6106 42.9802C24.6032 42.9737 24.5957 42.9676 24.5882 42.9614C21.7918 40.6965 19.6027 38.8451 17.3326 36.617C14.9153 34.2444 13.1982 35.2443 12.5722 35.7841C12.5596 35.795 12.5478 35.8064 12.5354 35.8175C11.539 34.105 10.0913 31.289 8.93105 28.6258C7.2507 24.7686 5.4088 24.2067 4.45214 24.2155C3.41488 24.2249 2.5219 24.8913 2.06345 25.998C2.00988 26.1273 1.98976 26.268 2.00488 26.407C2.09226 27.2104 2.51964 28.7024 2.90428 29.8247C2.90678 29.8321 2.90952 29.8396 2.91226 29.847L8.35795 44.3792C9.89342 48.4236 11.8095 49.7924 13.6625 51.1162C14.2975 51.5699 14.8973 51.9982 15.4923 52.5385C16.3784 53.343 17.0277 54.1724 17.4874 55.0965C16.5846 55.4329 15.9385 56.3012 15.9385 57.3198V61.6369C15.9385 62.0971 16.3116 62.4702 16.7718 62.4702H30.4542C30.9144 62.4702 31.2875 62.0971 31.2875 61.6369V57.3198C31.2875 56.0106 30.2224 54.9456 28.9133 54.9456L28.9132 54.9454ZM16.6124 51.3043C15.9453 50.6986 15.2772 50.2213 14.6311 49.7598C12.9039 48.5257 11.2723 47.3603 9.91711 43.7908L4.47702 29.2731C4.11868 28.2261 3.80309 27.0806 3.69345 26.4458C3.83666 26.1833 4.08357 25.8852 4.46702 25.8818H4.4738C5.14142 25.8818 6.30617 26.7737 7.40284 29.2912C8.63521 32.12 10.4348 35.6354 11.5565 37.4236C11.5102 37.6265 11.4847 37.8361 11.4815 38.0517C11.4438 40.5266 14.1603 43.2279 16.7096 45.5658C16.9621 45.7972 17.1801 45.9972 17.3493 46.1593C17.6816 46.478 18.2092 46.4665 18.5276 46.1343C18.846 45.8019 18.8348 45.2744 18.5026 44.9561C18.3201 44.7812 18.0958 44.5756 17.8361 44.3374C16.3049 42.9331 13.1186 40.0113 13.1482 38.0772C13.1544 37.6698 13.3172 37.3422 13.6607 37.046C14.2717 36.5191 15.1142 36.7751 16.1651 37.8064C18.4792 40.0777 20.6986 41.9554 23.5277 44.247C25.134 45.6469 26.169 47.1159 26.3666 50.0923C26.3986 50.5744 26.5697 52.857 27.0491 54.9455H19.2484C18.6901 53.5895 17.8418 52.4204 16.6126 51.3044L16.6124 51.3043ZM29.6207 60.8033H17.6051V57.3195C17.6051 56.9294 17.9226 56.612 18.3127 56.612H28.9132C29.3033 56.612 29.6207 56.9294 29.6207 57.3195V60.8033ZM61.9362 25.9977C61.4777 24.891 60.5848 24.2247 59.5475 24.2152C59.5404 24.2152 59.5333 24.2152 59.5262 24.2152C58.5687 24.2152 56.7365 24.7969 55.0687 28.6256C53.9085 31.2889 52.4608 34.1049 51.4643 35.8173C51.4519 35.8063 51.4402 35.795 51.4275 35.784C50.8015 35.244 49.0843 34.2445 46.6672 36.6169C44.397 38.8452 42.2078 40.6965 39.4114 42.9612C39.4038 42.9674 39.3963 42.9736 39.3889 42.9801C37.7607 44.3966 36.2195 46.2253 35.97 49.9817C35.9376 50.4694 35.7556 52.9007 35.2364 54.9452H35.0864C33.7773 54.9452 32.7123 56.0102 32.7123 57.3194V61.6365C32.7123 62.0968 33.0854 62.4699 33.5456 62.4699H47.2279C47.6882 62.4699 48.0612 62.0968 48.0612 61.6365V57.3194C48.0612 56.3008 47.4152 55.4325 46.5123 55.0962C46.9721 54.1721 47.6213 53.3426 48.5074 52.5381C49.1026 51.9979 49.7023 51.5694 50.3373 51.1159C52.1903 49.792 54.1063 48.4232 55.6431 44.3755L61.0875 29.8467C61.0902 29.8393 61.093 29.8319 61.0955 29.8244C61.4801 28.702 61.9074 27.21 61.9949 26.4067C62.01 26.2676 61.9899 26.1269 61.9363 25.9976L61.9362 25.9977ZM46.3945 60.8033H34.3788V57.3195C34.3788 56.9294 34.6962 56.612 35.0863 56.612H45.6869C46.077 56.612 46.3945 56.9294 46.3945 57.3195V60.8033ZM59.5225 29.2732L54.0836 43.7875C52.7271 47.3604 51.0955 48.5259 49.3683 49.7599C48.7222 50.2215 48.0542 50.6987 47.387 51.3044C46.1577 52.4204 45.3095 53.5895 44.7511 54.9455H36.9505C37.4299 52.8567 37.6008 50.5743 37.6328 50.0923C37.8306 47.1159 38.8655 45.6472 40.4718 44.2472C43.3008 41.9557 45.5202 40.078 47.8346 37.8064C48.8854 36.775 49.7279 36.519 50.339 37.046C50.6824 37.3422 50.8453 37.6698 50.8515 38.0772C50.881 40.0113 47.6947 42.9331 46.1635 44.3374C45.9038 44.5756 45.6796 44.7814 45.4971 44.9561C45.1647 45.2746 45.1535 45.8019 45.4721 46.1343C45.7904 46.4665 46.318 46.4778 46.6503 46.1593C46.8196 45.9972 47.0376 45.7972 47.2901 45.5658C49.8392 43.2279 52.5558 40.5266 52.5181 38.0517C52.5148 37.8361 52.4894 37.6265 52.4431 37.4236C53.5648 35.6354 55.3646 32.12 56.5968 29.2912C57.6935 26.7736 58.8582 25.8818 59.5258 25.8818H59.5326C59.9161 25.8852 60.163 26.1833 60.3062 26.4458C60.1966 27.0806 59.881 28.2261 59.5226 29.2731L59.5225 29.2732ZM47.7577 28.6693C52.0358 23.0605 54.1153 18.0946 54.1153 13.4877C54.1153 7.41269 48.9679 2.47045 42.6409 2.47045C37.7802 2.47045 34.3634 4.08152 31.9998 7.5171C29.6361 4.08128 26.2193 2.47021 21.3586 2.47021C15.0316 2.47021 9.88426 7.41258 9.88426 13.4874C9.88426 18.0943 11.9639 23.0604 16.2418 28.669C19.9662 33.5519 24.9555 38.4429 30.1704 43.4415C30.665 43.9155 31.3148 44.1767 31.9998 44.1767C32.6848 44.1767 33.3344 43.9156 33.8292 43.4415C39.044 38.4429 44.0333 33.5519 47.7577 28.669V28.6693ZM31.9998 42.5103C31.7467 42.5103 31.5064 42.4137 31.3236 42.2385C20.1205 31.4999 11.5509 22.5642 11.5509 13.4876C11.5509 8.33162 15.9507 4.13699 21.3586 4.13699C26.1403 4.13699 29.1978 5.79211 31.2723 9.50376C31.4195 9.76733 31.6979 9.93054 31.9996 9.93054C32.3014 9.93054 32.5798 9.76733 32.727 9.50376C34.8015 5.79223 37.859 4.13699 42.6407 4.13699C48.0486 4.13699 52.4484 8.33162 52.4484 13.4876C52.4484 22.5643 43.8788 31.5 32.6757 42.2384C32.4927 42.4137 32.2526 42.5102 31.9995 42.5102L31.9998 42.5103ZM41.8076 8.03281C41.8076 7.57258 42.1807 7.19948 42.6409 7.19948C44.257 7.19948 45.8309 7.7515 47.0729 8.75388C48.5646 9.95792 49.3861 11.639 49.3861 13.4876C49.3861 15.1912 48.9503 17.0687 48.0907 19.0678C47.9549 19.3832 47.6476 19.5722 47.3247 19.5722C47.2148 19.5722 47.1033 19.5503 46.9959 19.5042C46.573 19.3224 46.3777 18.8322 46.5595 18.4094C47.3291 16.6194 47.7195 14.9636 47.7195 13.4876C47.7195 12.1527 47.1182 10.9322 46.0261 10.0509C45.0796 9.28697 43.8775 8.86626 42.6409 8.86626C42.1807 8.86626 41.8076 8.49305 41.8076 8.03281ZM41.9634 23.8493V21.0813C41.9634 19.8318 40.9468 18.8151 39.6972 18.8151H35.6499V14.7679C35.6499 13.5184 34.6332 12.5017 33.3837 12.5017H30.6157C29.3662 12.5017 28.3495 13.5184 28.3495 14.7679V18.815H24.3023C23.0529 18.8151 22.0362 19.8318 22.0362 21.0812V23.8492C22.0362 25.0987 23.0528 26.1152 24.3023 26.1152H28.3495V30.1627C28.3495 31.4122 29.3662 32.4288 30.6157 32.4288H33.3837C34.6332 32.4288 35.6499 31.4122 35.6499 30.1627V26.1152H39.6972C40.9468 26.1152 41.9634 25.0987 41.9634 23.8492V23.8493ZM34.8167 24.4487C34.3564 24.4487 33.9833 24.8218 33.9833 25.282V30.1628C33.9833 30.4933 33.7144 30.7622 33.3838 30.7622H30.6158C30.2852 30.7622 30.0163 30.4933 30.0163 30.1628V25.282C30.0163 24.8218 29.6432 24.4487 29.183 24.4487H24.3024C23.9719 24.4487 23.703 24.1798 23.703 23.8493V21.0813C23.703 20.7507 23.9719 20.4818 24.3024 20.4818H29.183C29.6432 20.4818 30.0163 20.1086 30.0163 19.6485V14.768C30.0163 14.4374 30.2852 14.1685 30.6158 14.1685H33.3838C33.7144 14.1685 33.9833 14.4374 33.9833 14.768V19.6485C33.9833 20.1087 34.3564 20.4818 34.8167 20.4818H39.6974C40.0279 20.4818 40.2969 20.7507 40.2969 21.0813V23.8493C40.2969 24.1798 40.0279 24.4487 39.6974 24.4487H34.8167Z" fill="url(#paint0_linear_24_1216)"/>
<defs>
<linearGradient id="paint0_linear_24_1216" x1="3.28906" y1="60.4702" x2="72.6562" y2="35.0518" gradientUnits="userSpaceOnUse">
<stop stop-color="#6549F6"/>
<stop offset="0.79" stop-color="#FF611D"/>
</linearGradient>
</defs>
</svg>
