<svg width="46" height="46" viewBox="0 0 46 46" fill="none" xmlns="http://www.w3.org/2000/svg">
<g clip-path="url(#clip0_383_1508)">
<path d="M40.6667 39.3346C40.6667 39.6883 40.5262 40.0274 40.2762 40.2775C40.0261 40.5275 39.687 40.668 39.3334 40.668H34C33.6464 40.668 33.3073 40.5275 33.0572 40.2775C32.8072 40.0274 32.6667 39.6883 32.6667 39.3346C32.6667 38.981 32.8072 38.6419 33.0572 38.3918C33.3073 38.1418 33.6464 38.0013 34 38.0013H39.3334C39.687 38.0013 40.0261 38.1418 40.2762 38.3918C40.5262 38.6419 40.6667 38.981 40.6667 39.3346ZM46 39.3346C46 41.1028 45.2976 42.7985 44.0474 44.0487C42.7972 45.2989 41.1015 46.0013 39.3334 46.0013H7.33335C5.68236 45.9997 4.09068 45.3856 2.86651 44.2778C1.64234 43.17 0.872771 41.6474 0.706815 40.0048C0.540859 38.3621 0.990322 36.7164 1.96817 35.3861C2.94603 34.0559 4.3827 33.1358 6.00002 32.804V13.772C6.00343 12.7125 6.42401 11.697 7.17068 10.9453L16.2773 1.83865C16.6478 1.4664 17.0883 1.17128 17.5735 0.97034C18.0587 0.769401 18.5789 0.666634 19.104 0.667982H27.5627C28.0878 0.666634 28.608 0.769401 29.0932 0.97034C29.5784 1.17128 30.0189 1.4664 30.3893 1.83865L34.6133 6.06265C35.4919 6.19598 36.3006 6.61939 36.9107 7.26548C37.5208 7.91156 37.8972 8.74318 37.98 9.62793C38.0628 10.5127 37.8472 11.3997 37.3676 12.1478C36.888 12.8958 36.1719 13.462 35.3334 13.756V14.62L38.1467 16.4866C38.5118 16.7302 38.8111 17.0602 39.0181 17.4472C39.2251 17.8343 39.3334 18.2664 39.3334 18.7053V20.668C39.3334 21.0216 39.1929 21.3607 38.9428 21.6108C38.6928 21.8608 38.3536 22.0013 38 22.0013C37.6464 22.0013 37.3073 21.8608 37.0572 21.6108C36.8072 21.3607 36.6667 21.0216 36.6667 20.668V18.716L34 16.9373L31.3333 18.716V20.668C31.3333 21.0216 31.1929 21.3607 30.9428 21.6108C30.6928 21.8608 30.3536 22.0013 30 22.0013C29.6464 22.0013 29.3073 21.8608 29.0572 21.6108C28.8072 21.3607 28.6667 21.0216 28.6667 20.668V18.716C28.6666 18.2771 28.7749 17.8449 28.9819 17.4579C29.1889 17.0709 29.4882 16.7409 29.8533 16.4973L32.6667 14.62V13.756C32.055 13.5377 31.5057 13.1739 31.0662 12.6958C30.6267 12.2177 30.3102 11.6398 30.144 11.012L24.0107 8.96398L19.44 18.1026L24.2933 32.668H27.4693C27.3996 32.4515 27.3539 32.2279 27.3333 32.0013V28.0013C27.3348 27.1177 27.6864 26.2707 28.3112 25.6459C28.936 25.021 29.7831 24.6694 30.6667 24.668H37.3334C38.217 24.6694 39.064 25.021 39.6888 25.6459C40.3136 26.2707 40.6653 27.1177 40.6667 28.0013V32.0013C40.6477 32.2685 40.5939 32.5321 40.5067 32.7853C42.0446 33.0603 43.4372 33.8667 44.4412 35.0637C45.4452 36.2607 45.9969 37.7723 46 39.3346ZM32.6667 10.0013C32.6667 10.265 32.7449 10.5228 32.8914 10.7421C33.0379 10.9613 33.2461 11.1322 33.4898 11.2332C33.7334 11.3341 34.0015 11.3605 34.2601 11.309C34.5188 11.2576 34.7564 11.1306 34.9428 10.9441C35.1293 10.7577 35.2563 10.5201 35.3077 10.2614C35.3592 10.0028 35.3328 9.73471 35.2319 9.49107C35.1309 9.24744 34.96 9.0392 34.7408 8.89269C34.5215 8.74618 34.2637 8.66798 34 8.66798C33.6464 8.66798 33.3073 8.80846 33.0572 9.05851C32.8072 9.30856 32.6667 9.64769 32.6667 10.0013ZM30 32.0013C30 32.1781 30.0703 32.3477 30.1953 32.4727C30.3203 32.5977 30.4899 32.668 30.6667 32.668H37.3334C37.5102 32.668 37.6797 32.5977 37.8048 32.4727C37.9298 32.3477 38 32.1781 38 32.0013V28.0013C38 27.8245 37.9298 27.6549 37.8048 27.5299C37.6797 27.4049 37.5102 27.3346 37.3334 27.3346H30.6667C30.4899 27.3346 30.3203 27.4049 30.1953 27.5299C30.0703 27.6549 30 27.8245 30 28.0013V32.0013ZM26.5653 7.00665L30.4027 8.28398C30.6804 7.70818 31.0908 7.20645 31.6 6.81998L28.504 3.72398C28.3091 3.56246 28.082 3.44423 27.8379 3.37711C27.5937 3.30998 27.3382 3.29551 27.088 3.33465C27.3144 3.94168 27.3852 4.59574 27.2939 5.23715C27.2026 5.87855 26.9521 6.48689 26.5653 7.00665ZM22 4.66798C22 4.93169 22.0782 5.18948 22.2247 5.40874C22.3712 5.62801 22.5795 5.7989 22.8231 5.89982C23.0667 6.00074 23.3348 6.02714 23.5935 5.9757C23.8521 5.92425 24.0897 5.79726 24.2762 5.61079C24.4626 5.42432 24.5896 5.18674 24.6411 4.9281C24.6925 4.66946 24.6661 4.40137 24.5652 4.15774C24.4643 3.9141 24.2934 3.70586 24.0741 3.55936C23.8548 3.41285 23.5971 3.33465 23.3333 3.33465C22.9797 3.33465 22.6406 3.47512 22.3905 3.72517C22.1405 3.97522 22 4.31436 22 4.66798ZM9.97335 11.916C11.4308 11.2625 13.0755 11.1587 14.6035 11.624C16.1315 12.0892 17.4394 13.0919 18.2854 14.4466L21.4293 8.16398C20.5905 7.71739 19.9412 6.98273 19.6011 6.09531C19.2611 5.20789 19.2531 4.22748 19.5787 3.33465C19.3285 3.29411 19.0726 3.3079 18.8283 3.37508C18.5839 3.44226 18.3569 3.56126 18.1627 3.72398L9.97335 11.916ZM8.66668 18.0013C8.66668 18.7924 8.90128 19.5658 9.3408 20.2236C9.78033 20.8814 10.405 21.3941 11.1359 21.6968C11.8669 21.9996 12.6711 22.0788 13.447 21.9245C14.223 21.7701 14.9357 21.3892 15.4951 20.8297C16.0545 20.2703 16.4355 19.5576 16.5898 18.7817C16.7442 18.0058 16.665 17.2015 16.3622 16.4706C16.0595 15.7397 15.5468 15.115 14.889 14.6754C14.2312 14.2359 13.4578 14.0013 12.6667 14.0013C11.6058 14.0013 10.5884 14.4227 9.83825 15.1729C9.08811 15.923 8.66668 16.9404 8.66668 18.0013ZM8.66668 32.668H21.4827L17.9387 22.0333C17.4169 22.7304 16.7618 23.3169 16.0114 23.7586C15.2611 24.2003 14.4304 24.4884 13.5677 24.6063C12.7049 24.7241 11.8274 24.6693 10.986 24.4451C10.1447 24.2208 9.35629 23.8316 8.66668 23.3V32.668ZM43.3334 39.3346C43.3334 38.2738 42.9119 37.2564 42.1618 36.5062C41.4116 35.7561 40.3942 35.3346 39.3334 35.3346H7.33335C6.27248 35.3346 5.25507 35.7561 4.50492 36.5062C3.75478 37.2564 3.33335 38.2738 3.33335 39.3346C3.33335 40.3955 3.75478 41.4129 4.50492 42.1631C5.25507 42.9132 6.27248 43.3347 7.33335 43.3347H39.3334C40.3942 43.3347 41.4116 42.9132 42.1618 42.1631C42.9119 41.4129 43.3334 40.3955 43.3334 39.3346ZM26 38.0013H20.6667C20.3131 38.0013 19.9739 38.1418 19.7239 38.3918C19.4738 38.6419 19.3333 38.981 19.3333 39.3346C19.3333 39.6883 19.4738 40.0274 19.7239 40.2775C19.9739 40.5275 20.3131 40.668 20.6667 40.668H26C26.3536 40.668 26.6928 40.5275 26.9428 40.2775C27.1929 40.0274 27.3333 39.6883 27.3333 39.3346C27.3333 38.981 27.1929 38.6419 26.9428 38.3918C26.6928 38.1418 26.3536 38.0013 26 38.0013ZM12.6667 38.0013H7.33335C6.97973 38.0013 6.64059 38.1418 6.39054 38.3918C6.14049 38.6419 6.00002 38.981 6.00002 39.3346C6.00002 39.6883 6.14049 40.0274 6.39054 40.2775C6.64059 40.5275 6.97973 40.668 7.33335 40.668H12.6667C13.0203 40.668 13.3594 40.5275 13.6095 40.2775C13.8595 40.0274 14 39.6883 14 39.3346C14 38.981 13.8595 38.6419 13.6095 38.3918C13.3594 38.1418 13.0203 38.0013 12.6667 38.0013Z" fill="url(#paint0_linear_383_82)"/>
</g>
<defs>
<linearGradient id="paint0_linear_383_82" x1="1.67014" y1="43.6346" x2="53.8035" y2="24.1746" gradientUnits="userSpaceOnUse">
<stop stop-color="#6549F6"/>
<stop offset="0.79" stop-color="#FF611D"/>
</linearGradient>
<clipPath id="clip0_383_1508">
<rect width="46" height="46" fill="white"/>
</clipPath>
</defs>
</svg>
