<svg width="267" height="220" viewBox="0 0 267 220" fill="none" xmlns="http://www.w3.org/2000/svg">
<path d="M167.543 69.8125C169.018 68.1602 169.776 65.9895 169.651 63.778C169.526 61.5665 168.527 59.4953 166.875 58.02C165.223 56.5447 163.052 55.7863 160.841 55.9114C158.629 56.0366 156.558 57.0352 155.083 58.6875L121.585 96.2233L111.906 85.3875C110.427 83.753 108.361 82.7702 106.16 82.654C103.958 82.5378 101.8 83.2975 100.157 84.7672C98.5141 86.2369 97.5194 88.2971 97.3904 90.4978C97.2614 92.6985 98.0085 94.8609 99.4686 96.5125L115.355 114.312C116.138 115.189 117.097 115.891 118.17 116.371C119.242 116.851 120.404 117.1 121.58 117.1C122.755 117.1 123.917 116.851 124.99 116.371C126.062 115.891 127.021 115.189 127.804 114.312L167.543 69.8125Z" fill="url(#paint0_linear_851_8876)"/>
<path fill-rule="evenodd" clip-rule="evenodd" d="M133.5 -33.0938C123.076 -33.0938 113.108 -29.6784 97.0434 -24.1826L88.9555 -21.4014C72.4794 -15.7721 59.7524 -11.4111 50.6521 -7.71763C46.0686 -5.85975 42.1192 -4.04638 38.9486 -2.21075C35.8892 -0.430748 32.8299 1.78312 30.7495 4.7535C28.6914 7.67937 27.6234 11.2839 26.9559 14.766C26.255 18.3705 25.8434 22.6981 25.5653 27.671C25.0313 37.5277 25.0312 51.0558 25.0312 68.5888V86.3999C25.0312 154.273 76.2952 186.814 106.778 200.142L107.078 200.264C110.861 201.922 114.421 203.468 118.504 204.514C122.809 205.626 127.392 206.094 133.5 206.094C139.619 206.094 144.18 205.626 148.496 204.514C152.579 203.468 156.139 201.922 159.911 200.264L160.222 200.142C190.705 186.814 241.969 154.273 241.969 86.3999V68.5888C241.969 51.0558 241.969 37.5277 241.435 27.6599C241.251 23.3327 240.786 19.0219 240.044 14.7549C239.377 11.2839 238.309 7.67937 236.262 4.74237C234.17 1.78313 231.111 -0.430748 228.051 -2.21075C224.273 -4.2967 220.364 -6.13616 216.348 -7.71763C207.248 -11.4111 194.521 -15.7721 178.044 -21.4014L169.957 -24.1826C153.892 -29.6784 143.924 -33.0938 133.5 -33.0938ZM101.015 -7.90675C118.982 -14.0478 126.18 -16.4062 133.5 -16.4062C140.82 -16.4062 148.018 -14.0478 165.985 -7.90675L172.348 -5.72625C189.181 0.036499 201.451 4.24175 210.062 7.735C214.368 9.49275 217.483 10.9613 219.674 12.2295C220.742 12.8525 221.514 13.368 221.988 13.7759C222.411 14.1096 222.578 14.3099 222.6 14.3321C222.746 14.5939 222.865 14.8697 222.956 15.1554C223.179 15.7635 223.412 16.6832 223.657 17.9144C224.272 21.4372 224.644 24.9982 224.77 28.5721C225.281 37.9283 225.281 50.989 225.281 68.8891V86.3999C225.281 143.983 182.227 172.318 153.536 184.845C149.409 186.647 147.017 187.671 144.358 188.349C141.821 189.006 138.729 189.406 133.5 189.406C128.271 189.406 125.179 189.006 122.642 188.349C119.972 187.682 117.591 186.647 113.464 184.845C84.7614 172.318 41.7188 143.972 41.7188 86.3999V68.8891C41.7188 50.989 41.7188 37.9283 42.2305 28.5721C42.3562 24.9982 42.7279 21.4372 43.343 17.9144C43.5803 16.6832 43.814 15.7635 44.0439 15.1554C44.2441 14.5991 44.3776 14.3766 44.3999 14.3321C44.5861 14.1281 44.791 13.9419 45.0117 13.7759C45.4864 13.368 46.2578 12.8488 47.3258 12.2184C49.5174 10.9501 52.6324 9.49275 56.9377 7.74612C65.5485 4.24175 77.8194 0.036499 94.6515 -5.71513L101.015 -7.90675Z" fill="url(#paint1_linear_851_8876)"/>
<defs>
<linearGradient id="paint0_linear_851_8876" x1="14.2435" y1="209.16" x2="310.979" y2="-108.906" gradientUnits="userSpaceOnUse">
<stop stop-color="#C01E6C" stop-opacity="0.5"/>
<stop offset="1" stop-color="#FF9A3C" stop-opacity="0"/>
</linearGradient>
<linearGradient id="paint1_linear_851_8876" x1="14.2435" y1="209.16" x2="310.979" y2="-108.906" gradientUnits="userSpaceOnUse">
<stop stop-color="#C01E6C" stop-opacity="0.5"/>
<stop offset="1" stop-color="#FF9A3C" stop-opacity="0"/>
</linearGradient>
</defs>
</svg>
