<svg width="64" height="74" viewBox="0 0 64 74" fill="none" xmlns="http://www.w3.org/2000/svg">
<g clip-path="url(#clip0_828_10546)">
<g clip-path="url(#clip1_828_10546)">
<path d="M49.2712 44.5654C46.9032 48.9814 42.9566 52.4374 38.178 54.1654V64H21.282V55.3814H17.25C11.8098 55.3814 7.4152 50.9868 7.4152 45.5466V37.248L1.25 34.4534L7.4152 25.5148V22.7414C7.4152 10.496 17.0794 0.1494 29.3034 0C21.9008 4.224 16.8874 12.2026 16.8874 21.3334C16.8874 34.8588 27.8954 45.8668 41.4208 45.8668C44.1728 45.8668 46.818 45.4188 49.2712 44.5654Z" fill="url(#paint0_linear_828_10546)"/>
<path d="M48.6899 14.7622C49.0741 16.5116 49.2659 18.9436 48.4979 21.5888C47.0899 26.4528 43.3139 29.1196 41.4153 30.1862C39.5167 29.1196 35.7407 26.4528 34.3327 21.5888C33.5647 18.9434 33.7567 16.5114 34.1407 14.7622L41.4153 12.3516L48.6899 14.7622Z" fill="url(#paint1_linear_828_10546)"/>
<path d="M41.4193 0C29.6433 0 20.0859 9.5572 20.0859 21.3334C20.0859 33.1096 29.6431 42.6668 41.4193 42.6668C53.1955 42.6668 62.7527 33.1096 62.7527 21.3334C62.7527 9.5572 53.1953 0 41.4193 0ZM51.5739 22.4852C49.5899 29.3332 43.8299 32.5974 42.1233 33.4292C41.9099 33.5358 41.6539 33.6 41.4193 33.6C41.1847 33.6 40.9287 33.536 40.7153 33.4292C39.0087 32.5972 33.2487 29.3332 31.2647 22.4852C30.1553 18.6666 30.6461 15.2532 31.2647 13.0772C31.4141 12.5652 31.7981 12.1598 32.2887 11.9892L40.9075 9.1518C41.2487 9.0452 41.5901 9.0452 41.9315 9.1518L50.5503 11.9892C51.0409 12.16 51.4249 12.5652 51.5743 13.0772C52.1929 15.2532 52.6833 18.6666 51.5739 22.4852Z" fill="url(#paint2_linear_828_10546)"/>
</g>
</g>
<defs>
<linearGradient id="paint0_linear_828_10546" x1="7.28429" y1="6.03989" x2="58.2818" y2="54.2598" gradientUnits="userSpaceOnUse">
<stop stop-color="#F94229"/>
<stop offset="1" stop-color="#BB0A55"/>
</linearGradient>
<linearGradient id="paint1_linear_828_10546" x1="7.28429" y1="6.03989" x2="58.2818" y2="54.2598" gradientUnits="userSpaceOnUse">
<stop stop-color="#F94229"/>
<stop offset="1" stop-color="#BB0A55"/>
</linearGradient>
<linearGradient id="paint2_linear_828_10546" x1="7.28429" y1="6.03989" x2="58.2818" y2="54.2598" gradientUnits="userSpaceOnUse">
<stop stop-color="#F94229"/>
<stop offset="1" stop-color="#BB0A55"/>
</linearGradient>
<clipPath id="clip0_828_10546">
<rect width="64" height="74" fill="white"/>
</clipPath>
<clipPath id="clip1_828_10546">
<rect width="64" height="64" fill="white"/>
</clipPath>
</defs>
</svg>
