<svg width="64" height="64" viewBox="0 0 64 64" fill="none" xmlns="http://www.w3.org/2000/svg">
<path d="M46.4425 28.9387C46.4425 25.5337 49.22 22.7587 52.6225 22.7587C56.0275 22.7587 58.8025 25.5337 58.8025 28.9387C58.8025 32.3437 56.0275 35.1187 52.6225 35.1187C49.22 35.1174 46.4425 32.3437 46.4425 28.9387ZM56.0375 37.5837H49.2062C48.0825 37.5837 47.0125 37.8212 46.0425 38.2424C48.3887 40.6124 49.8413 43.8687 49.8413 47.4474V53.5062H62.7875C63.4537 53.5062 63.9987 52.9599 63.9987 52.2949V45.5449C64 41.1662 60.4175 37.5837 56.0375 37.5837ZM14.7937 37.5837H7.9625C3.5825 37.5837 0 41.1662 0 45.5462V52.2962C0 52.9624 0.54625 53.5074 1.21125 53.5074H14.1625V47.4487C14.1625 43.8699 15.6112 40.6137 17.9575 38.2437C16.9875 37.8212 15.9175 37.5837 14.7937 37.5837ZM11.3775 35.1174C14.7825 35.1174 17.5575 32.3424 17.5575 28.9374C17.5575 25.5324 14.7825 22.7574 11.3775 22.7574C7.97625 22.7574 5.1975 25.5324 5.1975 28.9374C5.19875 32.3437 7.97625 35.1174 11.3775 35.1174ZM36.7375 36.4074H33.58L34.54 46.6824C34.5513 46.8174 34.5263 46.9412 34.4588 47.0574L32.5625 50.4162C32.445 50.6249 32.24 50.7462 31.9988 50.7462C31.7613 50.7462 31.5562 50.6262 31.4387 50.4162L29.5425 47.0574C29.475 46.9399 29.4463 46.8162 29.4613 46.6824L30.4175 36.4074H27.2638C21.19 36.4074 16.2225 41.3749 16.2225 47.4487V56.8062C16.2225 57.7274 16.9813 58.4862 17.905 58.4862H23.1912V52.7324C23.1912 52.1624 23.655 51.7012 24.2262 51.7012C24.7975 51.7012 25.2575 52.1624 25.2575 52.7324V58.4862H38.7363V52.7324C38.7363 52.1624 39.2 51.7012 39.7713 51.7012C40.3388 51.7012 40.8025 52.1624 40.8025 52.7324V58.4862H46.0925C47.0175 58.4862 47.7725 57.7274 47.7725 56.8062V47.4487C47.775 41.3749 42.8075 36.4074 36.7375 36.4074ZM32 15.8537C27.28 15.8537 23.4325 19.7012 23.4325 24.4212C23.4325 29.1412 27.28 32.9887 32 32.9887C36.72 32.9887 40.5675 29.1412 40.5675 24.4212C40.5675 19.7012 36.72 15.8537 32 15.8537ZM32 11.1937C32.57 11.1937 33.035 10.7299 33.035 10.1587V6.54867C33.035 5.97867 32.5713 5.51367 32 5.51367C31.4287 5.51367 30.9688 5.97742 30.9688 6.54867V10.1599C30.9688 10.7299 31.43 11.1937 32 11.1937ZM37.8075 12.7462C38.3 13.0337 38.9312 12.8637 39.2137 12.3712L41.0213 9.24242C41.3088 8.74992 41.1388 8.12242 40.6463 7.83617C40.1538 7.55242 39.5263 7.71867 39.24 8.21117L37.4325 11.3399C37.1488 11.8312 37.315 12.4624 37.8075 12.7462ZM43.47 17.3762L46.5988 15.5687C47.0913 15.2812 47.2575 14.6549 46.9738 14.1624C46.6863 13.6699 46.06 13.4999 45.5675 13.7874L42.4388 15.5949C41.9463 15.8787 41.7763 16.5087 42.0638 17.0012C42.3463 17.4937 42.9775 17.6599 43.47 17.3762ZM24.7862 12.3699C25.07 12.8624 25.7 13.0324 26.1925 12.7449C26.685 12.4612 26.8512 11.8312 26.5675 11.3387L24.76 8.20992C24.4762 7.71742 23.8463 7.55117 23.3538 7.83492C22.8612 8.12242 22.695 8.74867 22.9788 9.24117L24.7862 12.3699ZM17.4013 15.5699L20.53 17.3774C21.0225 17.6612 21.6538 17.4949 21.94 17.0024C22.2238 16.5099 22.0575 15.8787 21.565 15.5962L18.4363 13.7887C17.9438 13.5012 17.3125 13.6712 17.0263 14.1637C16.7425 14.6549 16.9088 15.2824 17.4013 15.5699Z" fill="url(#paint0_linear_828_10575)"/>
<defs>
<linearGradient id="paint0_linear_828_10575" x1="6.27919" y1="10.5129" x2="47.9317" y2="60.0266" gradientUnits="userSpaceOnUse">
<stop stop-color="#F94229"/>
<stop offset="1" stop-color="#BB0A55"/>
</linearGradient>
</defs>
</svg>
