<svg width="64" height="74" viewBox="0 0 64 74" fill="none" xmlns="http://www.w3.org/2000/svg">
<g clip-path="url(#clip0_826_10433)">
<g clip-path="url(#clip1_826_10433)">
<path d="M33.875 20.875C34.9105 20.875 35.75 20.0355 35.75 19C35.75 17.9645 34.9105 17.125 33.875 17.125C32.8395 17.125 32 17.9645 32 19C32 20.0355 32.8395 20.875 33.875 20.875Z" fill="url(#paint0_linear_826_10433)"/>
<path d="M30.125 45.875C31.1605 45.875 32 45.0355 32 44C32 42.9645 31.1605 42.125 30.125 42.125C29.0895 42.125 28.25 42.9645 28.25 44C28.25 45.0355 29.0895 45.875 30.125 45.875Z" fill="url(#paint1_linear_826_10433)"/>
<path d="M45.3349 22.4399C46.1965 21.8655 47.3606 22.0982 47.935 22.9599L49.8784 25.875H56.375V11.375C56.375 10.3395 55.5355 9.5 54.5 9.5C50.0199 9.5 46.375 5.85512 46.375 1.375C46.375 0.3395 45.5355 -0.5 44.5 -0.5H19.5C18.4645 -0.5 17.625 0.3395 17.625 1.375C17.625 5.85512 13.9801 9.5 9.5 9.5C8.4645 9.5 7.625 10.3395 7.625 11.375V18.375H18.0984L21.2992 15.1741C22.0315 14.4419 23.2186 14.4419 23.9509 15.1741C24.6831 15.9064 24.6831 17.0935 23.9509 17.8258L20.2009 21.5758C19.8492 21.9275 19.3722 22.125 18.875 22.125H7.625V25.875H23.1705L28.6504 21.0801C28.393 20.4361 28.25 19.7346 28.25 19C28.25 15.8984 30.7734 13.375 33.875 13.375C36.9766 13.375 39.5 15.8984 39.5 19C39.5 22.1016 36.9766 24.625 33.875 24.625C32.8746 24.625 31.9353 24.3614 31.1205 23.9016L25.1098 29.1611C24.7679 29.4601 24.3293 29.625 23.875 29.625H7.625V33.375H15.125C15.7519 33.375 16.3374 33.6882 16.6851 34.2099L19.1851 37.9599C19.7595 38.8215 19.5267 39.9856 18.6651 40.56C17.8035 41.1344 16.6394 40.9016 16.065 40.04L14.1215 37.125H7.83512C8.5035 42.8049 10.76 48.2439 14.3575 52.7285C18.699 58.1408 24.8201 61.9502 31.5933 63.4554C31.8611 63.515 32.1389 63.515 32.4067 63.4554C39.18 61.9502 45.301 58.1408 49.6425 52.7285C51.6113 50.2744 53.1772 47.5339 54.3027 44.625H45.9017L42.701 47.8259C41.9688 48.5581 40.7816 48.5581 40.0494 47.8259C39.3171 47.0936 39.3171 45.9065 40.0494 45.1743L43.7994 41.4243C44.1509 41.0725 44.6278 40.875 45.125 40.875H55.4849C55.7885 39.6421 56.016 38.3896 56.1649 37.125H40.8295L35.3496 41.9199C35.607 42.5639 35.75 43.2654 35.75 44C35.75 47.1016 33.2266 49.625 30.125 49.625C27.0234 49.625 24.5 47.1016 24.5 44C24.5 40.8984 27.0234 38.375 30.125 38.375C31.1254 38.375 32.0648 38.6386 32.8795 39.0984L38.8903 33.8389C39.232 33.5397 39.6707 33.375 40.1249 33.375H56.3749V29.625H48.8749C48.248 29.625 47.6626 29.3118 47.3149 28.7901L44.8149 25.0401C44.2405 24.1784 44.4734 23.0144 45.3349 22.4399Z" fill="url(#paint2_linear_826_10433)"/>
</g>
</g>
<defs>
<linearGradient id="paint0_linear_826_10433" x1="12.4081" y1="5.5399" x2="61.4329" y2="42.2828" gradientUnits="userSpaceOnUse">
<stop stop-color="#F94229"/>
<stop offset="1" stop-color="#BB0A55"/>
</linearGradient>
<linearGradient id="paint1_linear_826_10433" x1="12.4081" y1="5.5399" x2="61.4329" y2="42.2828" gradientUnits="userSpaceOnUse">
<stop stop-color="#F94229"/>
<stop offset="1" stop-color="#BB0A55"/>
</linearGradient>
<linearGradient id="paint2_linear_826_10433" x1="12.4081" y1="5.5399" x2="61.4329" y2="42.2828" gradientUnits="userSpaceOnUse">
<stop stop-color="#F94229"/>
<stop offset="1" stop-color="#BB0A55"/>
</linearGradient>
<clipPath id="clip0_826_10433">
<rect width="64" height="74" fill="white"/>
</clipPath>
<clipPath id="clip1_826_10433">
<rect width="64" height="64" fill="white" transform="translate(0 -0.5)"/>
</clipPath>
</defs>
</svg>
