<svg width="64" height="74" viewBox="0 0 64 74" fill="none" xmlns="http://www.w3.org/2000/svg">
<path d="M28.0555 28.7747H31.7985V31.3377H28.0555V28.7747Z" fill="url(#paint0_linear_872_9111)"/>
<path d="M9.07531 14.3183L12.9918 33.6675C14.3639 40.4429 18.2819 46.2925 24.0255 50.1387L32.0026 55.4814L39.9796 50.1382C45.7228 46.2925 49.6412 40.4429 51.0133 33.6675L54.9083 14.3193C43.5157 13.562 35.8321 10.8198 32.0021 9.0913C28.1695 10.8198 20.4806 13.5615 9.07531 14.3183ZM35.9913 22.3379V19.2886H37.9913V22.3379H38.9913C40.6456 22.3379 41.9913 23.6836 41.9913 25.3379V26.3379H45.0407V28.3379H41.9913V31.3379H45.0407V33.3379H41.9913V36.3379H45.0407V38.3379H41.9913V39.3379C41.9913 40.9922 40.6456 42.3379 38.9913 42.3379H37.9913V45.3877H35.9913V42.3379H32.9913V45.3877H30.9913V42.3379H27.9913V45.3877H25.9913V42.3379H24.9913C23.337 42.3379 21.9913 40.9922 21.9913 39.3379V38.3384H18.9415V36.3384H21.9913V33.3384H18.9415V31.3384H21.9913V28.3384H18.9415V26.3384H21.9913V25.3379C21.9913 23.6836 23.337 22.3379 24.9913 22.3379H25.9913V19.2886H27.9913V22.3379H30.9913V19.2886H32.9913V22.3379H35.9913Z" fill="url(#paint1_linear_872_9111)"/>
<path d="M23.9913 25.3379V39.3379C23.9913 39.8891 24.4401 40.3379 24.9913 40.3379H38.9913C39.5426 40.3379 39.9913 39.8891 39.9913 39.3379V25.3379C39.9913 24.7866 39.5426 24.3379 38.9913 24.3379H24.9913C24.4401 24.3379 23.9913 24.7866 23.9913 25.3379ZM35.9269 27.7749H37.9269V36.9013H35.9269V27.7749ZM26.0553 27.7749C26.0553 27.2226 26.5031 26.7749 27.0553 26.7749H32.798C33.3502 26.7749 33.798 27.2226 33.798 27.7749V36.9013H31.798V33.3379H28.0553V36.9013H26.0553V27.7749Z" fill="url(#paint2_linear_872_9111)"/>
<path d="M60.0944 10.3398C59.1993 9.18408 57.8463 8.47558 56.382 8.39746C40.8214 7.56641 32.6027 2.69385 32.5211 2.64453C32.2028 2.45215 31.8019 2.45117 31.4826 2.64551C31.402 2.69434 23.2365 7.56348 7.62317 8.39746C6.15881 8.47558 4.80579 9.18408 3.91077 10.3398C3.02307 11.4868 2.67884 12.9595 2.96643 14.3804L7.11145 34.8574C8.79895 43.1938 13.6198 50.3911 20.6862 55.124L31.4459 62.3306C31.6144 62.4433 31.8087 62.4995 32.0026 62.4995C32.1964 62.4995 32.3908 62.4434 32.5592 62.3306L43.319 55.124C50.3854 50.3911 55.2062 43.1938 56.8937 34.8574L61.0387 14.3804C61.3263 12.9595 60.9821 11.4868 60.0944 10.3398ZM52.9738 34.063C51.4962 41.3603 47.277 47.6587 41.0929 51.8003L32.5592 57.5161C32.3907 57.6289 32.1964 57.685 32.0026 57.685C31.8087 57.685 31.6144 57.6289 31.4459 57.5161L22.9122 51.8008C16.7282 47.6587 12.5089 41.3599 11.0319 34.064L6.88684 13.5869C6.82922 13.3022 6.89807 13.0063 7.07629 12.7764C7.25402 12.5464 7.52356 12.4058 7.81359 12.3901C19.9655 11.7427 27.92 8.78808 31.5802 7.08447C31.8478 6.96045 32.1569 6.96045 32.4244 7.08447C36.0821 8.78857 44.0314 11.7432 56.1686 12.3916C56.4586 12.4072 56.7277 12.5478 56.9059 12.7773C57.0836 13.0073 57.1529 13.3027 57.0958 13.5874L52.9738 34.063Z" fill="url(#paint3_linear_872_9111)"/>
<defs>
<linearGradient id="paint0_linear_872_9111" x1="8.58438" y1="8.16235" x2="56.4198" y2="53.8728" gradientUnits="userSpaceOnUse">
<stop stop-color="#F94229"/>
<stop offset="1" stop-color="#BB0A55"/>
</linearGradient>
<linearGradient id="paint1_linear_872_9111" x1="8.58438" y1="8.16235" x2="56.4198" y2="53.8728" gradientUnits="userSpaceOnUse">
<stop stop-color="#F94229"/>
<stop offset="1" stop-color="#BB0A55"/>
</linearGradient>
<linearGradient id="paint2_linear_872_9111" x1="8.58438" y1="8.16235" x2="56.4198" y2="53.8728" gradientUnits="userSpaceOnUse">
<stop stop-color="#F94229"/>
<stop offset="1" stop-color="#BB0A55"/>
</linearGradient>
<linearGradient id="paint3_linear_872_9111" x1="8.58438" y1="8.16235" x2="56.4198" y2="53.8728" gradientUnits="userSpaceOnUse">
<stop stop-color="#F94229"/>
<stop offset="1" stop-color="#BB0A55"/>
</linearGradient>
</defs>
</svg>
