<svg width="48" height="48" viewBox="0 0 48 48" fill="none" xmlns="http://www.w3.org/2000/svg">
<path d="M24 18.0024V26.0024M24 34.0024H24.02M20.58 7.72236L3.64004 36.0024C3.29078 36.6072 3.10598 37.293 3.10402 37.9914C3.10206 38.6898 3.28302 39.3766 3.62889 39.9834C3.97477 40.5902 4.47349 41.0959 5.07546 41.4501C5.67742 41.8043 6.36164 41.9947 7.06004 42.0024H40.94C41.6384 41.9947 42.3227 41.8043 42.9246 41.4501C43.5266 41.0959 44.0253 40.5902 44.3712 39.9834C44.7171 39.3766 44.898 38.6898 44.8961 37.9914C44.8941 37.293 44.7093 36.6072 44.36 36.0024L27.42 7.72236C27.0635 7.13458 26.5615 6.6486 25.9624 6.31133C25.3634 5.97406 24.6875 5.79688 24 5.79688C23.3126 5.79688 22.6367 5.97406 22.0377 6.31133C21.4386 6.6486 20.9366 7.13458 20.58 7.72236Z" stroke="#F37A3A" stroke-width="4" stroke-linecap="round" stroke-linejoin="round"/>
</svg>
