<svg width="64" height="64" viewBox="0 0 64 64" fill="none" xmlns="http://www.w3.org/2000/svg">
<path fill-rule="evenodd" clip-rule="evenodd" d="M16 18.292L19.316 16.634C21.006 15.788 22.994 15.788 24.684 16.634L36.684 22.634C38.716 23.65 40 25.728 40 28V38.182C40 44.102 37.096 48.298 33.49 51.14C28.898 54.756 23.16 55.886 23.16 55.886C22.394 56.038 21.606 56.038 20.84 55.886C20.074 55.734 18.706 55.466 16 54.318V56C16 59.312 18.688 62 22 62H50C53.312 62 56 59.312 56 56V8C56 4.688 53.312 2 50 2H22C18.688 2 16 4.688 16 8V18.292ZM32 10H40C41.104 10 42 9.104 42 8C42 6.896 41.104 6 40 6H32C30.896 6 30 6.896 30 8C30 9.104 30.896 10 32 10Z" fill="url(#paint0_linear_828_16890)"/>
<path fill-rule="evenodd" clip-rule="evenodd" d="M36 28C36 27.242 35.572 26.55 34.894 26.212L22.894 20.212C22.332 19.93 21.668 19.93 21.106 20.212L9.106 26.212C8.428 26.55 8 27.242 8 28V38.182C8 42.676 10.248 45.84 12.986 47.998C16.82 51.018 21.614 51.962 21.614 51.962C21.868 52.012 22.132 52.012 22.386 51.962C22.386 51.962 27.18 51.018 31.014 47.998C33.752 45.84 36 42.676 36 38.182V28ZM16.586 39.414L18.586 41.414C19.366 42.196 20.634 42.196 21.414 41.414L27.414 35.414C28.194 34.634 28.194 33.366 27.414 32.586C26.634 31.806 25.366 31.806 24.586 32.586L20 37.172L19.414 36.586C18.634 35.806 17.366 35.806 16.586 36.586C15.806 37.366 15.806 38.634 16.586 39.414Z" fill="url(#paint1_linear_828_16890)"/>
<defs>
<linearGradient id="paint0_linear_828_16890" x1="12.7095" y1="7.6624" x2="59.255" y2="44.3004" gradientUnits="userSpaceOnUse">
<stop stop-color="#F94229"/>
<stop offset="1" stop-color="#BB0A55"/>
</linearGradient>
<linearGradient id="paint1_linear_828_16890" x1="12.7095" y1="7.6624" x2="59.255" y2="44.3004" gradientUnits="userSpaceOnUse">
<stop stop-color="#F94229"/>
<stop offset="1" stop-color="#BB0A55"/>
</linearGradient>
</defs>
</svg>
