<svg width="57" height="54" viewBox="0 0 57 54" fill="none" xmlns="http://www.w3.org/2000/svg">
<path d="M7.63281 34.0234H13.4697V37.6152H7.63281V43.752H46.8457V37.6152H41.0088V34.0234H46.8457V27.8867H7.63281V34.0234ZM34.9336 34.0332V37.625H19.6689V34.0332H34.9336ZM56.2109 2.74316L40.8574 18.0957L33.2871 10.5254L35.8184 7.99414L40.8584 13.0342L40.9648 12.9277L53.6797 0.211914L56.2109 2.74316ZM7.93262 47.3428H7.78223C5.71923 47.3426 4.04102 45.6628 4.04102 43.6016V25.9414H0.150391V22.3496H4.59082L4.62695 22.252L9.51855 9.21094C9.78856 8.49955 10.268 7.88631 10.8936 7.45312C11.441 7.07412 12.0779 6.84805 12.7383 6.7959L13.0225 6.78418H27.0889V10.376H12.918L12.8818 10.4736L7.77441 24.0928L7.69824 24.2949H47.3223L47.3662 24.2207C48.0163 23.1062 49.21 22.3496 50.5869 22.3496H54.3281V25.9414H50.4365V43.6016C50.4365 45.6628 48.7566 47.3428 46.6953 47.3428H46.5449V53.1797H42.9541V47.3428H11.5234V53.1797H7.93262V47.3428Z" fill="url(#paint0_linear_696_6808)" stroke="white" stroke-width="0.3"/>
<defs>
<linearGradient id="paint0_linear_696_6808" x1="0" y1="0" x2="64.9765" y2="14.2036" gradientUnits="userSpaceOnUse">
<stop stop-color="#511F5E"/>
<stop offset="1" stop-color="#C01E6C"/>
</linearGradient>
</defs>
</svg>
