<svg width="48" height="48" viewBox="0 0 48 48" fill="none" xmlns="http://www.w3.org/2000/svg">
<g clip-path="url(#clip0_244_12675)">
<path d="M46.5938 37.6875H45.75V15.5625C45.75 13.2363 43.8575 11.3438 41.5312 11.3438H28.4062V6.75C28.4062 5.97337 27.7766 5.34375 27 5.34375H25.4062V4.07812C25.4062 3.38025 25.974 2.8125 26.6719 2.8125H29.5781C30.276 2.8125 30.8438 3.38025 30.8438 4.07812C30.8438 6.32681 32.6732 8.15625 34.9219 8.15625H38.25C39.0266 8.15625 39.6562 7.52663 39.6562 6.75C39.6562 5.97337 39.0266 5.34375 38.25 5.34375H34.9219C34.224 5.34375 33.6562 4.776 33.6562 4.07812C33.6562 1.82944 31.8268 0 29.5781 0H26.6719C24.4232 0 22.5938 1.82944 22.5938 4.07812V5.34375H21C20.2234 5.34375 19.5938 5.97337 19.5938 6.75V11.3438H6.46875C4.14253 11.3438 2.25 13.2363 2.25 15.5625V37.6875H1.40625C0.629625 37.6875 0 38.3171 0 39.0938V42.375C0 45.4766 2.52338 48 5.625 48H42.375C45.4766 48 48 45.4766 48 42.375V39.0938C48 38.3171 47.3704 37.6875 46.5938 37.6875ZM24 13.4062C29.0143 13.4062 33.0938 17.4857 33.0938 22.5C33.0938 27.5143 29.0143 31.5938 24 31.5938C18.9857 31.5938 14.9062 27.5143 14.9062 22.5C14.9062 17.4857 18.9857 13.4062 24 13.4062ZM25.5938 8.15625V10.7007C24.5366 10.5587 23.4718 10.5576 22.4062 10.7007V8.15625H25.5938ZM5.0625 15.5625C5.0625 14.7871 5.69334 14.1562 6.46875 14.1562H15.5153C13.4006 16.3063 12.0938 19.2532 12.0938 22.5C12.0938 29.0651 17.4349 34.4062 24 34.4062C30.5651 34.4062 35.9062 29.0651 35.9062 22.5C35.9062 19.2532 34.5994 16.3063 32.4847 14.1562H41.5312C42.3067 14.1562 42.9375 14.7871 42.9375 15.5625V37.6875H5.0625V15.5625ZM45.1875 42.375C45.1875 43.9258 43.9258 45.1875 42.375 45.1875H41.9062V44.3438C41.9062 43.5671 41.2766 42.9375 40.5 42.9375C39.7234 42.9375 39.0938 43.5671 39.0938 44.3438V45.1875H36.6562V44.3438C36.6562 43.5671 36.0266 42.9375 35.25 42.9375C34.4734 42.9375 33.8438 43.5671 33.8438 44.3438V45.1875H31.4062V44.3438C31.4062 43.5671 30.7766 42.9375 30 42.9375C29.2234 42.9375 28.5938 43.5671 28.5938 44.3438V45.1875H19.4062V44.3438C19.4062 43.5671 18.7766 42.9375 18 42.9375C17.2234 42.9375 16.5938 43.5671 16.5938 44.3438V45.1875H14.1562V44.3438C14.1562 43.5671 13.5266 42.9375 12.75 42.9375C11.9734 42.9375 11.3438 43.5671 11.3438 44.3438V45.1875H8.90625V44.3438C8.90625 43.5671 8.27662 42.9375 7.5 42.9375C6.72337 42.9375 6.09375 43.5671 6.09375 44.3438V45.1875H5.625C4.07419 45.1875 2.8125 43.9258 2.8125 42.375V40.5H45.1875V42.375Z" fill="url(#paint0_linear_244_12675)"/>
<path d="M24 23.9062C24.7766 23.9062 25.4062 23.2766 25.4062 22.5V17.25C25.4062 16.4734 24.7766 15.8438 24 15.8438C23.2234 15.8438 22.5938 16.4734 22.5938 17.25V22.5C22.5938 23.2766 23.2234 23.9062 24 23.9062Z" fill="url(#paint1_linear_244_12675)"/>
<path d="M24 29.1566C24.7769 29.1566 25.4067 28.5268 25.4067 27.7499C25.4067 26.973 24.7769 26.3432 24 26.3432C23.2231 26.3432 22.5933 26.973 22.5933 27.7499C22.5933 28.5268 23.2231 29.1566 24 29.1566Z" fill="url(#paint2_linear_244_12675)"/>
<path d="M12 32.3438H9C8.22338 32.3438 7.59375 32.9734 7.59375 33.75C7.59375 34.5266 8.22338 35.1562 9 35.1562H12C12.7766 35.1562 13.4062 34.5266 13.4062 33.75C13.4062 32.9734 12.7766 32.3438 12 32.3438Z" fill="url(#paint3_linear_244_12675)"/>
<path d="M39 32.3438H36C35.2234 32.3438 34.5938 32.9734 34.5938 33.75C34.5938 34.5266 35.2234 35.1562 36 35.1562H39C39.7766 35.1562 40.4062 34.5266 40.4062 33.75C40.4062 32.9734 39.7766 32.3438 39 32.3438Z" fill="url(#paint4_linear_244_12675)"/>
</g>
<defs>
<linearGradient id="paint0_linear_244_12675" x1="-2.38692" y1="48.6154" x2="56.482" y2="-20.957" gradientUnits="userSpaceOnUse">
<stop stop-color="#C01E6C"/>
<stop offset="1" stop-color="#FF9A3C"/>
</linearGradient>
<linearGradient id="paint1_linear_244_12675" x1="-2.38692" y1="48.6154" x2="56.482" y2="-20.957" gradientUnits="userSpaceOnUse">
<stop stop-color="#C01E6C"/>
<stop offset="1" stop-color="#FF9A3C"/>
</linearGradient>
<linearGradient id="paint2_linear_244_12675" x1="-2.38692" y1="48.6154" x2="56.482" y2="-20.957" gradientUnits="userSpaceOnUse">
<stop stop-color="#C01E6C"/>
<stop offset="1" stop-color="#FF9A3C"/>
</linearGradient>
<linearGradient id="paint3_linear_244_12675" x1="-2.38692" y1="48.6154" x2="56.482" y2="-20.957" gradientUnits="userSpaceOnUse">
<stop stop-color="#C01E6C"/>
<stop offset="1" stop-color="#FF9A3C"/>
</linearGradient>
<linearGradient id="paint4_linear_244_12675" x1="-2.38692" y1="48.6154" x2="56.482" y2="-20.957" gradientUnits="userSpaceOnUse">
<stop stop-color="#C01E6C"/>
<stop offset="1" stop-color="#FF9A3C"/>
</linearGradient>
<clipPath id="clip0_244_12675">
<rect width="48" height="48" fill="white"/>
</clipPath>
</defs>
</svg>
