<svg width="48" height="48" viewBox="0 0 48 48" fill="none" xmlns="http://www.w3.org/2000/svg">
<path d="M34.8799 36.0576L36.8999 37.9775L41.0799 33.9375M6.33984 14.8789L23.9998 25.0989L41.5398 14.9388M24 43.2181V25.0781M46.0003 35.8181C46.0403 37.3181 45.6403 38.7381 44.9203 39.9581C44.5203 40.6781 43.9803 41.3382 43.3803 41.8782C42.0003 43.1582 40.1803 43.9382 38.1603 43.9982C35.2403 44.0582 32.6603 42.5582 31.2403 40.2582C30.4803 39.0782 30.0203 37.6582 30.0003 36.1582C29.9403 33.6382 31.0603 31.3582 32.8603 29.8582C34.2203 28.7382 35.9404 28.0382 37.8204 27.9982C42.2404 27.8982 45.9003 31.3981 46.0003 35.8181ZM43.2202 18.34V29.6601C43.2202 29.7601 43.2203 29.84 43.2003 29.94C41.8003 28.72 40.0002 28 38.0002 28C36.1202 28 34.3802 28.66 33.0002 29.76C31.1602 31.22 30.0002 33.48 30.0002 36C30.0002 37.5 30.4202 38.92 31.1602 40.12C31.3402 40.44 31.5602 40.7401 31.8002 41.0201L28.1403 43.0401C25.8603 44.3201 22.1402 44.3201 19.8602 43.0401L9.18024 37.12C6.76024 35.78 4.78027 32.4201 4.78027 29.6601V18.34C4.78027 15.58 6.76024 12.22 9.18024 10.88L19.8602 4.96C22.1402 3.68 25.8603 3.68 28.1403 4.96L38.8203 10.88C41.2403 12.22 43.2202 15.58 43.2202 18.34Z" stroke="#292D32" stroke-width="3" stroke-linecap="round" stroke-linejoin="round"/>
<path d="M34.8799 36.0576L36.8999 37.9775L41.0799 33.9375M6.33984 14.8789L23.9998 25.0989L41.5398 14.9388M24 43.2181V25.0781M46.0003 35.8181C46.0403 37.3181 45.6403 38.7381 44.9203 39.9581C44.5203 40.6781 43.9803 41.3382 43.3803 41.8782C42.0003 43.1582 40.1803 43.9382 38.1603 43.9982C35.2403 44.0582 32.6603 42.5582 31.2403 40.2582C30.4803 39.0782 30.0203 37.6582 30.0003 36.1582C29.9403 33.6382 31.0603 31.3582 32.8603 29.8582C34.2203 28.7382 35.9404 28.0382 37.8204 27.9982C42.2404 27.8982 45.9003 31.3981 46.0003 35.8181ZM43.2202 18.34V29.6601C43.2202 29.7601 43.2203 29.84 43.2003 29.94C41.8003 28.72 40.0002 28 38.0002 28C36.1202 28 34.3802 28.66 33.0002 29.76C31.1602 31.22 30.0002 33.48 30.0002 36C30.0002 37.5 30.4202 38.92 31.1602 40.12C31.3402 40.44 31.5602 40.7401 31.8002 41.0201L28.1403 43.0401C25.8603 44.3201 22.1402 44.3201 19.8602 43.0401L9.18024 37.12C6.76024 35.78 4.78027 32.4201 4.78027 29.6601V18.34C4.78027 15.58 6.76024 12.22 9.18024 10.88L19.8602 4.96C22.1402 3.68 25.8603 3.68 28.1403 4.96L38.8203 10.88C41.2403 12.22 43.2202 15.58 43.2202 18.34Z" stroke="url(#paint0_linear_244_12462)" stroke-width="3" stroke-linecap="round" stroke-linejoin="round"/>
<defs>
<linearGradient id="paint0_linear_244_12462" x1="2.73036" y1="44.5129" x2="51.5226" y2="-14.9133" gradientUnits="userSpaceOnUse">
<stop stop-color="#C01E6C"/>
<stop offset="1" stop-color="#FF9A3C"/>
</linearGradient>
</defs>
</svg>
