<svg width="64" height="74" viewBox="0 0 64 74" fill="none" xmlns="http://www.w3.org/2000/svg">
<path fill-rule="evenodd" clip-rule="evenodd" d="M45.052 39.545L52.3412 51.6324C52.3412 51.7433 52.4533 51.7433 52.5655 51.7433C54.3597 51.4106 55.8176 50.4126 56.939 48.9709C58.7332 46.5313 58.7332 43.3154 57.2754 40.6539L43.482 17.8098C43.3698 17.699 43.2577 17.699 43.1455 17.8098L37.6506 26.9031C37.6506 27.014 37.6506 27.014 37.6506 27.1249L41.0149 32.7805L45.052 39.545ZM36.1928 24.7961L41.912 15.3702C41.912 15.2593 41.912 15.2593 41.912 15.1484L39.1085 10.38C38.9963 10.2691 38.8842 10.2691 38.772 10.38L33.2771 19.4733C33.2771 19.5841 33.2771 19.5841 33.2771 19.695L36.1928 24.7961Z" fill="url(#paint0_linear_826_10436)"/>
<path fill-rule="evenodd" clip-rule="evenodd" d="M24.1933 29.6748L31.7068 17.2547L37.3139 8.05055C37.3139 7.93966 37.3139 7.82877 37.3139 7.82877C35.856 6.38715 33.9496 5.5 31.7068 5.5C29.464 5.5 27.4454 6.38715 26.0997 7.93966C25.7633 8.27234 25.539 8.71592 25.2026 9.15949L6.13849 40.7642C4.56851 43.3147 4.56851 46.6415 6.47492 49.0812C7.93276 50.9664 10.0634 51.9644 12.5306 51.9644C26.0997 51.9644 22.6233 43.9801 31.8189 43.9801C40.6781 43.9801 37.7624 51.2991 49.4252 51.8535C49.5373 51.8535 49.6495 51.7426 49.6495 51.5208L40.4538 36.2175C40.4538 36.2175 40.4538 36.1066 40.3417 36.1066C37.7624 34.8868 34.9589 34.3323 31.8189 34.3323C26.7726 34.3323 22.5112 35.7739 18.8105 39.1008L18.4741 39.4334L22.9597 31.8927L24.1933 29.6748Z" fill="url(#paint1_linear_826_10436)"/>
<defs>
<linearGradient id="paint0_linear_826_10436" x1="10.2324" y1="9.885" x2="47.0425" y2="51.4551" gradientUnits="userSpaceOnUse">
<stop stop-color="#F94229"/>
<stop offset="1" stop-color="#BB0A55"/>
</linearGradient>
<linearGradient id="paint1_linear_826_10436" x1="10.2324" y1="9.885" x2="47.0425" y2="51.4551" gradientUnits="userSpaceOnUse">
<stop stop-color="#F94229"/>
<stop offset="1" stop-color="#BB0A55"/>
</linearGradient>
</defs>
</svg>
