<svg width="64" height="64" viewBox="0 0 64 64" fill="none" xmlns="http://www.w3.org/2000/svg">
<path fill-rule="evenodd" clip-rule="evenodd" d="M27.5712 63.9995C27.4681 63.9995 27.365 63.9781 27.269 63.9361C15.7332 58.8582 8.86502 55.0264 5.61414 49.3275C3.351 45.3608 2.8665 40.4685 4.215 33.4545H14.2669V36.6484C10.9193 37.5202 11.544 42.5081 15.0169 42.5081C18.4898 42.5081 19.1142 37.5191 15.7666 36.648V32.7041C15.7666 32.2901 15.4305 31.9541 15.0165 31.9541H4.52401C4.89151 30.279 5.35501 28.4887 5.91564 26.5679H16.3452C17.2171 29.9152 22.2046 29.2897 22.2046 25.8179C22.2046 22.3454 17.2171 21.7199 16.3452 25.0679H6.36526C6.50101 24.6258 6.64089 24.1777 6.78639 23.7221C6.97164 22.4669 6.56776 21.0513 5.90851 19.6818H16.2413C16.6553 19.6818 16.9906 19.3458 16.9913 18.9318V14.9868C20.3386 14.1149 19.7146 9.12775 16.2413 9.12775C12.7684 9.12775 12.144 14.1153 15.4913 14.9868V18.1818H5.08351C2.50875 13.9904 0.561741 13.4575 1.29787 12.4803L10.4813 0.299087C10.7093 -0.00353888 11.1263 -0.0890392 11.4552 0.101087C14.7045 1.97759 17.7233 2.9286 20.4267 2.9286C24.8525 2.9286 26.8943 0.397338 26.9791 0.289712C27.2806 -0.0931642 27.8618 -0.0950393 28.1645 0.292712C28.2474 0.397713 30.29 2.92897 34.715 2.92897C37.418 2.92897 40.4368 1.97759 43.6873 0.101462C44.0162 -0.0882892 44.4335 -0.00241393 44.6608 0.299462L53.8435 12.4806C54.0692 12.7799 54.0392 13.1999 53.7733 13.4639C53.713 13.5243 47.7347 19.5228 48.3553 23.7224C49.5714 27.5339 50.4362 30.807 50.9781 33.6607H39.1269C37.076 33.6607 35.4084 35.3287 35.4084 37.38V56.9104C35.4084 58.0561 35.9285 59.0821 36.7453 59.7646C36.6748 59.8013 28.244 63.9995 27.5712 63.9995ZM16.2421 10.627C14.2977 10.627 14.2977 13.5816 16.2421 13.5816C18.1872 13.5816 18.1861 10.627 16.2421 10.627ZM15.0177 38.0531C13.0733 38.0531 13.0725 41.0077 15.0177 41.0077C16.9632 41.0077 16.9621 38.0531 15.0177 38.0531ZM19.2282 24.3404C17.2838 24.3404 17.2831 27.2951 19.2282 27.2951C21.1733 27.2951 21.1726 24.3404 19.2282 24.3404Z" fill="url(#paint0_linear_826_10474)"/>
<path fill-rule="evenodd" clip-rule="evenodd" d="M60.3772 59.3789H39.1273C37.7664 59.3789 36.6587 58.2711 36.6587 56.9095V37.3791C36.6587 36.0174 37.7664 34.9097 39.1273 34.9097H60.3772C61.738 34.9097 62.8458 36.0174 62.8458 37.3791V56.9095C62.8458 58.2708 61.738 59.3789 60.3772 59.3789ZM54.706 50.6702V43.5853C53.7603 43.5853 52.5239 43.8077 52.5239 42.8353C52.5239 42.4217 52.8603 42.0853 53.2739 42.0853H57.6378C58.6252 42.0853 58.6252 43.5853 57.6378 43.5853H56.206V50.6702C57.1518 50.6702 58.3878 50.4479 58.3878 51.4202C58.3878 51.8339 58.0518 52.1702 57.6378 52.1702C56.1831 52.1702 54.7285 52.1702 53.2739 52.1702C52.2865 52.1702 52.2869 50.6702 53.2739 50.6702H54.706ZM48.718 52.204C48.4206 52.204 48.1394 52.0251 48.0216 51.7326L46.9315 49.0075H43.6536L42.5635 51.7326C42.1967 52.6487 40.8036 52.0922 41.1707 51.1754L44.5963 42.6141C44.8468 41.9878 45.7382 41.9878 45.9887 42.6141L49.4144 51.1754C49.6131 51.6711 49.2381 52.204 48.718 52.204ZM46.3315 47.5075L45.2927 44.911L44.254 47.5075H46.3315Z" fill="url(#paint1_linear_826_10474)"/>
<defs>
<linearGradient id="paint0_linear_826_10474" x1="7.19478" y1="6.04001" x2="58.2008" y2="54.4273" gradientUnits="userSpaceOnUse">
<stop stop-color="#F94229"/>
<stop offset="1" stop-color="#BB0A55"/>
</linearGradient>
<linearGradient id="paint1_linear_826_10474" x1="7.19478" y1="6.04001" x2="58.2008" y2="54.4273" gradientUnits="userSpaceOnUse">
<stop stop-color="#F94229"/>
<stop offset="1" stop-color="#BB0A55"/>
</linearGradient>
</defs>
</svg>
