<svg width="64" height="74" viewBox="0 0 64 74" fill="none" xmlns="http://www.w3.org/2000/svg">
<path fill-rule="evenodd" clip-rule="evenodd" d="M17.6026 19.7002V17.0335C17.6026 11.4371 22.1395 6.90021 27.7359 6.90021H36.2693C41.8658 6.90021 46.4026 11.4371 46.4026 17.0335V19.7002C46.4026 20.2893 46.8802 20.7669 47.4693 20.7669C48.0584 20.7669 48.5359 20.2893 48.5359 19.7002V17.0335H50.6693C55.0874 17.0335 58.6693 20.6152 58.6693 25.0335V26.9781C58.6693 28.0602 58.0154 29.035 57.0143 29.4454L46.3751 33.8075C45.9343 33.2606 45.371 32.8071 44.7126 32.4917L36.3815 28.4996C33.613 27.1729 30.3923 27.1729 27.6237 28.4996L19.2926 32.4917C18.6342 32.8071 18.0709 33.2607 17.6301 33.8075L6.99098 29.4454C5.9898 29.035 5.33594 28.0602 5.33594 26.9781V25.0335C5.33594 20.6152 8.91764 17.0335 13.3359 17.0335H15.4693V19.7002C15.4693 20.2893 15.9468 20.7669 16.5359 20.7669C17.1251 20.7669 17.6026 20.2893 17.6026 19.7002ZM42.1359 19.7002V17.0335C42.1359 13.7935 39.5093 11.1669 36.2693 11.1669H27.7359C24.4959 11.1669 21.8693 13.7935 21.8693 17.0335V19.7002C21.8693 20.2893 22.3468 20.7669 22.9359 20.7669C23.5251 20.7669 24.0026 20.2893 24.0026 19.7002V17.0335H40.0026V19.7002C40.0026 20.2893 40.4802 20.7669 41.0693 20.7669C41.6584 20.7669 42.1359 20.2893 42.1359 19.7002Z" fill="url(#paint0_linear_826_10439)"/>
<path d="M5.33594 30.9695C5.33594 30.9695 10.7669 33.232 16.7007 35.6943C16.6061 36.086 16.5601 36.4934 16.5677 36.9083L16.6821 43.149C16.754 47.078 18.0947 50.8071 20.4091 53.8335H13.3359C8.91764 53.8335 5.33594 50.2518 5.33594 45.8335V30.9695Z" fill="url(#paint1_linear_826_10439)"/>
<path d="M43.5962 53.8335H50.6693C55.0874 53.8335 58.6693 50.2518 58.6693 45.8335V30.9695C58.6693 30.9695 53.2384 33.232 47.3046 35.6942C47.3992 36.086 47.4452 36.4934 47.4376 36.9083L47.3232 43.149C47.2512 47.078 45.9106 50.8071 43.5962 53.8335Z" fill="url(#paint2_linear_826_10439)"/>
<path fill-rule="evenodd" clip-rule="evenodd" d="M45.3045 36.8692C45.3236 35.8255 44.7321 34.8666 43.7907 34.4155L35.4596 30.4235C33.2739 29.3761 30.7313 29.3761 28.5455 30.4235L20.2145 34.4155C19.2731 34.8666 18.6815 35.8255 18.7006 36.8692L18.815 43.1099C18.9173 48.6958 21.9259 53.8238 26.7521 56.6383L27.9725 57.3498C30.4629 58.8021 33.5422 58.8021 36.0327 57.3498L37.2531 56.6383C42.0793 53.8238 45.0878 48.6958 45.1902 43.1099L45.3045 36.8692ZM38.0999 41.2446C38.511 40.8227 38.5022 40.1474 38.0803 39.7362C37.6584 39.3251 36.983 39.3339 36.5719 39.7558L30.5803 45.9051L27.9666 43.2225C27.5554 42.8005 26.8801 42.7918 26.4582 43.2029C26.0362 43.614 26.0275 44.2893 26.4386 44.7112L29.4344 47.7859C30.0624 48.4305 31.0983 48.4305 31.7263 47.7859L38.0999 41.2446Z" fill="url(#paint3_linear_826_10439)"/>
<defs>
<linearGradient id="paint0_linear_826_10439" x1="10.5687" y1="11.7641" x2="51.6944" y2="53.6378" gradientUnits="userSpaceOnUse">
<stop stop-color="#F94229"/>
<stop offset="1" stop-color="#BB0A55"/>
</linearGradient>
<linearGradient id="paint1_linear_826_10439" x1="10.5687" y1="11.7641" x2="51.6944" y2="53.6378" gradientUnits="userSpaceOnUse">
<stop stop-color="#F94229"/>
<stop offset="1" stop-color="#BB0A55"/>
</linearGradient>
<linearGradient id="paint2_linear_826_10439" x1="10.5687" y1="11.7641" x2="51.6944" y2="53.6378" gradientUnits="userSpaceOnUse">
<stop stop-color="#F94229"/>
<stop offset="1" stop-color="#BB0A55"/>
</linearGradient>
<linearGradient id="paint3_linear_826_10439" x1="10.5687" y1="11.7641" x2="51.6944" y2="53.6378" gradientUnits="userSpaceOnUse">
<stop stop-color="#F94229"/>
<stop offset="1" stop-color="#BB0A55"/>
</linearGradient>
</defs>
</svg>
