<svg width="64" height="74" viewBox="0 0 64 74" fill="none" xmlns="http://www.w3.org/2000/svg">
<path d="M14.4209 52.4531C14.4209 56.3379 17.582 59.5 21.4678 59.5H42.5283C46.4141 59.5 49.5752 56.3379 49.5752 52.4531C49.5752 45.1232 45.0635 38.8344 38.674 36.2C40.5682 34.417 41.7686 31.9058 41.7686 29.1055C41.7686 23.7188 37.3857 19.3359 31.998 19.3359C26.6104 19.3359 22.2275 23.7188 22.2275 29.1055C22.2275 31.9058 23.4279 34.417 25.3221 36.2C18.9326 38.8344 14.4209 45.1232 14.4209 52.4531Z" fill="url(#paint0_linear_825_10402)"/>
<path d="M51.6787 46.1191C52.0225 46.3496 52.4111 46.4609 52.7959 46.4609C53.4385 46.4609 54.0693 46.1523 54.4561 45.5801C57.4512 41.1406 59.0352 35.9375 59.0352 30.5371C59.0352 15.6289 46.9062 3.5 31.998 3.5C17.0898 3.5 4.96094 15.6289 4.96094 30.5371C4.96094 35.9375 6.54492 41.1406 9.54004 45.5801C10.1582 46.4941 11.3984 46.7344 12.3174 46.1191C13.2324 45.5 13.4736 44.2578 12.8564 43.3418C10.3076 39.5664 8.96094 35.1387 8.96094 30.5371C8.96094 17.834 19.2949 7.5 31.998 7.5C44.7012 7.5 55.0352 17.834 55.0352 30.5371C55.0352 35.1387 53.6885 39.5664 51.1396 43.3418C50.5225 44.2578 50.7637 45.5 51.6787 46.1191Z" fill="url(#paint1_linear_825_10402)"/>
<path d="M50.6963 30.5371C50.6963 20.2266 42.3086 11.8398 31.998 11.8398C21.6875 11.8398 13.2998 20.2266 13.2998 30.5371C13.2998 32.0879 13.4893 33.6211 13.8623 35.0938C14.1328 36.1621 15.2158 36.8066 16.292 36.541C17.3623 36.2695 18.0107 35.1816 17.7393 34.1094C17.4473 32.959 17.2998 31.7559 17.2998 30.5371C17.2998 22.4336 23.8936 15.8398 31.998 15.8398C40.1025 15.8398 46.6963 22.4336 46.6963 30.5371C46.6963 31.7559 46.5488 32.959 46.2568 34.1094C45.9854 35.1816 46.6338 36.2695 47.7041 36.541C47.8691 36.582 48.0342 36.6016 48.1963 36.6016C49.0908 36.6016 49.9043 35.998 50.1338 35.0938C50.5068 33.6211 50.6963 32.0879 50.6963 30.5371Z" fill="url(#paint2_linear_825_10402)"/>
<defs>
<linearGradient id="paint0_linear_825_10402" x1="10.2664" y1="8.7849" x2="54.9007" y2="51.1916" gradientUnits="userSpaceOnUse">
<stop stop-color="#F94229"/>
<stop offset="1" stop-color="#BB0A55"/>
</linearGradient>
<linearGradient id="paint1_linear_825_10402" x1="10.2664" y1="8.7849" x2="54.9007" y2="51.1916" gradientUnits="userSpaceOnUse">
<stop stop-color="#F94229"/>
<stop offset="1" stop-color="#BB0A55"/>
</linearGradient>
<linearGradient id="paint2_linear_825_10402" x1="10.2664" y1="8.7849" x2="54.9007" y2="51.1916" gradientUnits="userSpaceOnUse">
<stop stop-color="#F94229"/>
<stop offset="1" stop-color="#BB0A55"/>
</linearGradient>
</defs>
</svg>
