<svg width="64" height="74" viewBox="0 0 64 74" fill="none" xmlns="http://www.w3.org/2000/svg">
<path fill-rule="evenodd" clip-rule="evenodd" d="M33.198 16.1942C33.198 16.4308 33.1279 16.6621 32.9965 16.8589C32.8651 17.0557 32.6783 17.209 32.4597 17.2996C32.2411 17.3902 32.0006 17.4139 31.7685 17.3678C31.5365 17.3216 31.3233 17.2077 31.156 17.0404C30.9886 16.8732 30.8747 16.66 30.8285 16.4279C30.7823 16.1959 30.806 15.9554 30.8965 15.7368C30.9871 15.5182 31.1404 15.3313 31.3371 15.1999C31.5338 15.0684 31.7651 14.9982 32.0018 14.9982C32.3189 14.9986 32.6229 15.1247 32.8471 15.3489C33.0714 15.5731 33.1976 15.8771 33.198 16.1942ZM25.5556 16.1942C25.557 17.4392 25.9184 18.6572 26.5963 19.7015C27.2743 20.7457 28.2398 21.5715 29.3765 22.0794V26.1595C29.3765 26.8557 29.6531 27.5234 30.1453 28.0156C30.6376 28.5079 31.3053 28.7845 32.0015 28.7845C32.6977 28.7845 33.3654 28.5079 33.8577 28.0156C34.3499 27.5234 34.6265 26.8557 34.6265 26.1595V22.0794C35.6857 21.6068 36.5978 20.8572 37.2666 19.9096C37.9353 18.962 38.336 17.8515 38.4263 16.6952C38.5166 15.5388 38.2932 14.3796 37.7797 13.3396C37.2662 12.2996 36.4816 11.4175 35.5086 10.7863C34.5356 10.155 33.4102 9.798 32.2513 9.75289C31.0923 9.70779 29.9427 9.97626 28.9235 10.53C27.9044 11.0837 27.0536 11.9022 26.4608 12.8991C25.868 13.896 25.5552 15.0344 25.5554 16.1942H25.5556ZM47.0979 24.0981V7.95923C41.6623 7.52255 36.446 5.62389 32.0015 2.46436C27.5573 5.62363 22.3414 7.52228 16.9063 7.95923V24.0981C21.3008 31.7617 25.5438 34.4692 32.0018 36.6131C38.4606 34.4692 42.7031 31.7617 47.0979 24.0981ZM52.3479 11.917V24.7875C52.3476 25.2342 52.2337 25.6734 52.0169 26.064C49.4331 30.7062 46.788 34.0125 43.6894 36.4702C40.8542 38.7175 37.4944 40.3851 32.7948 41.8737C32.2787 42.0371 31.7248 42.0371 31.2087 41.8737C26.5088 40.3851 23.1491 38.7175 20.3139 36.4702C17.2161 34.0125 14.5703 30.7062 11.9873 26.064C11.7699 25.6737 11.656 25.2342 11.6562 24.7875V8.91698H9.7555C8.16342 8.91883 6.63707 9.55206 5.51124 10.6778C4.38541 11.8035 3.75202 13.3298 3.75 14.9219V46.2206C3.75198 47.8127 4.38536 49.339 5.51119 50.4648C6.63703 51.5905 8.1634 52.2238 9.7555 52.2256H54.248C55.8401 52.2238 57.3664 51.5906 58.4922 50.4648C59.618 49.339 60.2512 47.8127 60.253 46.2206V14.9219C60.2512 13.3298 59.618 11.8034 58.4922 10.6777C57.3664 9.55195 55.8401 8.91873 54.248 8.91698H52.348V11.917H52.3479ZM36.9092 55.2856C37.6054 55.2856 38.2731 55.5622 38.7654 56.0545C39.2577 56.5467 39.5342 57.2144 39.5342 57.9106C39.5342 58.6068 39.2577 59.2745 38.7654 59.7668C38.2731 60.259 37.6054 60.5356 36.9092 60.5356H27.0946C26.3984 60.5356 25.7308 60.259 25.2385 59.7668C24.7462 59.2745 24.4696 58.6068 24.4696 57.9106C24.4696 57.2144 24.7462 56.5467 25.2385 56.0545C25.7308 55.5622 26.3984 55.2856 27.0946 55.2856H36.9092Z" fill="url(#paint0_linear_825_10358)"/>
<defs>
<linearGradient id="paint0_linear_825_10358" x1="9.29375" y1="7.94473" x2="55.5956" y2="52.2721" gradientUnits="userSpaceOnUse">
<stop stop-color="#F94229"/>
<stop offset="1" stop-color="#BB0A55"/>
</linearGradient>
</defs>
</svg>
