<svg width="64" height="74" viewBox="0 0 64 74" fill="none" xmlns="http://www.w3.org/2000/svg">
<g clip-path="url(#clip0_825_10386)">
<path d="M53.6458 34.8242C53.7895 34.4322 53.8809 34.0534 53.9593 33.6615C55.1742 26.3588 51.5817 26.0975 51.5817 26.0975C51.5817 26.0975 50.9807 24.9479 49.4131 24.0856C48.3549 23.4586 46.8917 22.9752 44.9583 23.145C44.3312 23.1712 43.7433 23.3018 43.1816 23.4847C42.4761 23.7198 41.8229 24.0726 41.2351 24.4776C40.5165 24.9348 39.8242 25.4965 39.2232 26.1367C38.2696 27.1034 37.4204 28.3706 37.0546 29.9383C36.7411 31.114 36.8195 32.342 37.0677 33.6484C37.133 34.0273 37.2375 34.4192 37.3812 34.8111C36.6496 34.7719 35.8135 35.1899 36.6104 38.0117C37.1983 40.0758 37.7339 40.6506 38.152 40.6898C38.5308 43.1459 40.4251 46.2551 43.5343 47.3524C44.8146 47.7966 46.2124 47.7966 47.4796 47.3394C50.5365 46.242 52.4961 43.1328 52.875 40.6768C53.28 40.6507 53.8287 40.0628 54.4165 37.9987C55.2134 35.1769 54.3643 34.7588 53.6458 34.8242Z" fill="black"/>
<path d="M53.6458 34.8242C53.7895 34.4322 53.8809 34.0534 53.9593 33.6615C55.1742 26.3588 51.5817 26.0975 51.5817 26.0975C51.5817 26.0975 50.9807 24.9479 49.4131 24.0856C48.3549 23.4586 46.8917 22.9752 44.9583 23.145C44.3312 23.1712 43.7433 23.3018 43.1816 23.4847C42.4761 23.7198 41.8229 24.0726 41.2351 24.4776C40.5165 24.9348 39.8242 25.4965 39.2232 26.1367C38.2696 27.1034 37.4204 28.3706 37.0546 29.9383C36.7411 31.114 36.8195 32.342 37.0677 33.6484C37.133 34.0273 37.2375 34.4192 37.3812 34.8111C36.6496 34.7719 35.8135 35.1899 36.6104 38.0117C37.1983 40.0758 37.7339 40.6506 38.152 40.6898C38.5308 43.1459 40.4251 46.2551 43.5343 47.3524C44.8146 47.7966 46.2124 47.7966 47.4796 47.3394C50.5365 46.242 52.4961 43.1328 52.875 40.6768C53.28 40.6507 53.8287 40.0628 54.4165 37.9987C55.2134 35.1769 54.3643 34.7588 53.6458 34.8242Z" fill="url(#paint0_linear_825_10386)"/>
<path d="M41.6001 6.68453L40.7118 6.58002C39.523 6.43632 38.3995 6.30568 37.3283 6.05746C33.4091 5.19525 29.6336 3.41856 25.427 0.479181C24.7739 0.0219452 24.0292 -0.50061 22.958 -0.50061C21.8867 -0.50061 21.1421 0.0219453 20.502 0.466118C14.8845 4.37222 9.82876 6.31874 4.62933 6.63227C3.25762 6.69759 0.97144 7.28547 0.97144 10.5122L0.958376 15.7378C0.945313 19.252 0.932249 22.7923 0.97144 26.3065C0.97144 27.7174 1.14127 29.2067 1.50706 30.8397C2.30396 34.3539 4.15903 37.5806 7.20292 40.6768C10.9261 44.4392 15.6291 47.3655 21.6646 49.6386C22.0696 49.7692 22.4877 49.8346 22.9188 49.8346C23.5197 49.8346 24.1076 49.7039 24.5126 49.4949L26.041 48.8286C27.2952 48.28 28.5624 47.7313 29.8426 47.0911C31.4626 46.242 32.9388 45.3275 34.3105 44.3608C34.1668 44.0081 34.0231 43.6553 33.9186 43.3026C32.8343 41.944 32.3378 40.2849 32.0896 39.4357C30.7049 40.5069 29.1633 41.4867 27.4389 42.4012C26.2893 42.976 25.1004 43.4855 23.9378 43.995C23.6112 44.1387 23.2846 44.2824 22.9318 44.4392V25.1438H6.24925C6.22312 22.0085 6.23619 18.8731 6.23619 15.7509L6.24925 11.8056C11.8145 11.2308 17.1576 9.11441 22.9318 5.23444V25.1438H34.0231C34.5195 24.36 35.1074 23.6023 35.7998 22.8968C36.6359 22.0085 37.5765 21.2246 38.6085 20.5714C39.5752 19.9052 40.6073 19.3957 41.6524 19.0299H41.6655C42.6322 18.7033 43.625 18.5074 44.6179 18.4551C44.7224 18.442 44.8139 18.4551 44.9184 18.442V10.3555C44.9184 8.34364 43.6904 6.97194 41.6001 6.68453Z" fill="black"/>
<path d="M41.6001 6.68453L40.7118 6.58002C39.523 6.43632 38.3995 6.30568 37.3283 6.05746C33.4091 5.19525 29.6336 3.41856 25.427 0.479181C24.7739 0.0219452 24.0292 -0.50061 22.958 -0.50061C21.8867 -0.50061 21.1421 0.0219453 20.502 0.466118C14.8845 4.37222 9.82876 6.31874 4.62933 6.63227C3.25762 6.69759 0.97144 7.28547 0.97144 10.5122L0.958376 15.7378C0.945313 19.252 0.932249 22.7923 0.97144 26.3065C0.97144 27.7174 1.14127 29.2067 1.50706 30.8397C2.30396 34.3539 4.15903 37.5806 7.20292 40.6768C10.9261 44.4392 15.6291 47.3655 21.6646 49.6386C22.0696 49.7692 22.4877 49.8346 22.9188 49.8346C23.5197 49.8346 24.1076 49.7039 24.5126 49.4949L26.041 48.8286C27.2952 48.28 28.5624 47.7313 29.8426 47.0911C31.4626 46.242 32.9388 45.3275 34.3105 44.3608C34.1668 44.0081 34.0231 43.6553 33.9186 43.3026C32.8343 41.944 32.3378 40.2849 32.0896 39.4357C30.7049 40.5069 29.1633 41.4867 27.4389 42.4012C26.2893 42.976 25.1004 43.4855 23.9378 43.995C23.6112 44.1387 23.2846 44.2824 22.9318 44.4392V25.1438H6.24925C6.22312 22.0085 6.23619 18.8731 6.23619 15.7509L6.24925 11.8056C11.8145 11.2308 17.1576 9.11441 22.9318 5.23444V25.1438H34.0231C34.5195 24.36 35.1074 23.6023 35.7998 22.8968C36.6359 22.0085 37.5765 21.2246 38.6085 20.5714C39.5752 19.9052 40.6073 19.3957 41.6524 19.0299H41.6655C42.6322 18.7033 43.625 18.5074 44.6179 18.4551C44.7224 18.442 44.8139 18.4551 44.9184 18.442V10.3555C44.9184 8.34364 43.6904 6.97194 41.6001 6.68453Z" fill="url(#paint1_linear_825_10386)"/>
<path d="M58.5587 50.6191C54.2737 48.9861 51.7132 47.314 51.7132 47.314L48.408 57.752L47.9508 59.1629L46.4746 54.9694C49.8712 50.2272 46.2133 50.0051 45.5862 50.0051H45.534C44.9069 50.0051 41.249 50.2403 44.6456 54.9694L43.1694 59.1629L42.7122 57.752L39.4201 47.314C39.4201 47.314 36.8596 48.9861 32.5746 50.6191C28.3158 52.1607 28.1459 55.4789 28.0806 61.4491C28.0676 62.5726 28.982 63.5001 30.1055 63.5001H61.0278C62.1512 63.5001 63.0657 62.5726 63.0527 61.4491C62.9873 55.4789 62.8044 52.1607 58.5587 50.6191Z" fill="black"/>
<path d="M58.5587 50.6191C54.2737 48.9861 51.7132 47.314 51.7132 47.314L48.408 57.752L47.9508 59.1629L46.4746 54.9694C49.8712 50.2272 46.2133 50.0051 45.5862 50.0051H45.534C44.9069 50.0051 41.249 50.2403 44.6456 54.9694L43.1694 59.1629L42.7122 57.752L39.4201 47.314C39.4201 47.314 36.8596 48.9861 32.5746 50.6191C28.3158 52.1607 28.1459 55.4789 28.0806 61.4491C28.0676 62.5726 28.982 63.5001 30.1055 63.5001H61.0278C62.1512 63.5001 63.0657 62.5726 63.0527 61.4491C62.9873 55.4789 62.8044 52.1607 58.5587 50.6191Z" fill="url(#paint2_linear_825_10386)"/>
</g>
<defs>
<linearGradient id="paint0_linear_825_10386" x1="7.03894" y1="5.53935" x2="58.0625" y2="54.2577" gradientUnits="userSpaceOnUse">
<stop stop-color="#F94229"/>
<stop offset="1" stop-color="#BB0A55"/>
</linearGradient>
<linearGradient id="paint1_linear_825_10386" x1="7.03894" y1="5.53935" x2="58.0625" y2="54.2577" gradientUnits="userSpaceOnUse">
<stop stop-color="#F94229"/>
<stop offset="1" stop-color="#BB0A55"/>
</linearGradient>
<linearGradient id="paint2_linear_825_10386" x1="7.03894" y1="5.53935" x2="58.0625" y2="54.2577" gradientUnits="userSpaceOnUse">
<stop stop-color="#F94229"/>
<stop offset="1" stop-color="#BB0A55"/>
</linearGradient>
<clipPath id="clip0_825_10386">
<rect width="64" height="74" fill="white"/>
</clipPath>
</defs>
</svg>
