<svg width="48" height="48" viewBox="0 0 48 48" fill="none" xmlns="http://www.w3.org/2000/svg">
<path d="M9 4.5C8.60219 4.50004 8.22068 4.65809 7.93938 4.9394C7.65809 5.2207 7.50004 5.60222 7.5 6.00005V27.0007C7.5 31.6011 9.71565 34.8279 12.7325 37.1582C15.7493 39.4885 19.5348 41.154 23.25 43.2991C23.478 43.4307 23.7367 43.5 24 43.5C24.2633 43.5 24.522 43.4307 24.75 43.2991C27.9944 41.4259 31.7955 39.7497 34.916 37.3633C38.0366 34.9769 40.5 31.6564 40.5 27.0007V6.00005C40.5 5.60222 40.3419 5.2207 40.0606 4.9394C39.7793 4.65809 39.3978 4.50004 39 4.5H9ZM10.5 7.50009H37.5V27.0007C37.5 30.6552 35.8032 32.9064 33.0938 34.9785C30.5909 36.8926 27.2043 38.472 24 40.2638C20.4303 38.2592 16.9595 36.6336 14.5664 34.7851C11.9829 32.7896 10.5 30.7105 10.5 27.0007V7.50009Z" fill="url(#paint0_linear_244_12245)"/>
<path d="M31.4553 16.5094C31.0664 16.5202 30.6969 16.6818 30.425 16.96L22.493 24.8899L17.5581 19.9564C17.419 19.8162 17.2536 19.7048 17.0713 19.6287C16.889 19.5526 16.6935 19.5132 16.496 19.5128C16.2985 19.5125 16.1028 19.5512 15.9203 19.6266C15.7377 19.7021 15.5719 19.8129 15.4323 19.9526C15.2927 20.0924 15.1821 20.2583 15.1069 20.4409C15.0317 20.6235 14.9932 20.8192 14.9939 21.0167C14.9945 21.2141 15.0342 21.4095 15.1106 21.5917C15.1869 21.7738 15.2986 21.939 15.4391 22.0779L21.4335 28.0706C21.7145 28.3514 22.0956 28.5091 22.493 28.5091C22.8903 28.5091 23.2714 28.3514 23.5524 28.0706L32.544 19.0815C32.7605 18.8711 32.9084 18.6001 32.9683 18.3042C33.0282 18.0083 32.9973 17.7012 32.8796 17.4232C32.7619 17.1452 32.563 16.9092 32.3088 16.7461C32.0546 16.5831 31.7572 16.5006 31.4553 16.5094Z" fill="url(#paint1_linear_244_12245)"/>
<defs>
<linearGradient id="paint0_linear_244_12245" x1="5.85899" y1="44" x2="54.359" y2="-4.5" gradientUnits="userSpaceOnUse">
<stop stop-color="#C01E6C"/>
<stop offset="1" stop-color="#FF9A3C"/>
</linearGradient>
<linearGradient id="paint1_linear_244_12245" x1="5.85899" y1="44" x2="54.359" y2="-4.5" gradientUnits="userSpaceOnUse">
<stop stop-color="#C01E6C"/>
<stop offset="1" stop-color="#FF9A3C"/>
</linearGradient>
</defs>
</svg>
