<svg width="24" height="24" viewBox="0 0 24 24" fill="none" xmlns="http://www.w3.org/2000/svg">
<path opacity="0.3" d="M21 12C21 13.78 20.4722 15.5201 19.4832 17.0001C18.4943 18.4802 17.0887 19.6337 15.4442 20.3149C13.7996 20.9961 11.99 21.1743 10.2442 20.8271C8.49836 20.4798 6.89472 19.6226 5.63604 18.364C4.37737 17.1053 3.5202 15.5016 3.17294 13.7558C2.82567 12.01 3.0039 10.2004 3.68509 8.55585C4.36628 6.91131 5.51983 5.50571 6.99987 4.51677C8.47991 3.52784 10.22 3 12 3C14.387 3 16.6761 3.94821 18.364 5.63604C20.0518 7.32387 21 9.61305 21 12Z" fill="url(#paint0_radial_383_382)"/>
<path d="M16.2806 9.21996C16.3503 9.28962 16.4057 9.37234 16.4434 9.46339C16.4812 9.55443 16.5006 9.65203 16.5006 9.75059C16.5006 9.84915 16.4812 9.94675 16.4434 10.0378C16.4057 10.1288 16.3503 10.2116 16.2806 10.2812L11.0306 15.5312C10.961 15.6009 10.8782 15.6563 10.7872 15.694C10.6961 15.7318 10.5986 15.7512 10.5 15.7512C10.4014 15.7512 10.3038 15.7318 10.2128 15.694C10.1217 15.6563 10.039 15.6009 9.96936 15.5312L7.71936 13.2812C7.57863 13.1405 7.49957 12.9496 7.49957 12.7506C7.49957 12.5516 7.57863 12.3607 7.71936 12.22C7.8601 12.0792 8.05097 12.0002 8.24999 12.0002C8.44901 12.0002 8.63988 12.0792 8.78062 12.22L10.5 13.9403L15.2194 9.21996C15.289 9.15023 15.3717 9.09491 15.4628 9.05717C15.5538 9.01943 15.6514 9 15.75 9C15.8486 9 15.9461 9.01943 16.0372 9.05717C16.1282 9.09491 16.211 9.15023 16.2806 9.21996Z" fill="#222222"/>
<defs>
<radialGradient id="paint0_radial_383_382" cx="0" cy="0" r="1" gradientUnits="userSpaceOnUse" gradientTransform="translate(3.06366 11.6044) rotate(-2.26679) scale(17.786)">
<stop stop-color="#FF9A3C"/>
<stop offset="1" stop-color="#C01E6C"/>
</radialGradient>
</defs>
</svg>
