<svg width="36" height="36" viewBox="0 0 36 36" fill="none" xmlns="http://www.w3.org/2000/svg">
<g clip-path="url(#clip0_443_6321)">
<path d="M36 18.0005L31.9246 13.4757L32.5627 7.41824L26.6034 6.1567L23.5636 0.875977L18 3.36252L17.2491 18.0005L18 32.6383L23.5637 35.1249L26.6034 29.8442L32.5627 28.5826L31.9246 22.5251L36 18.0005Z" fill="#CA1C69"/>
<path d="M12.4363 0.875977L9.39657 6.1567L3.43727 7.41831L4.07537 13.4757L0 18.0005L4.07537 22.5251L3.43727 28.5826L9.39657 29.8442L12.4364 35.1249L18 32.6383V3.36252L12.4363 0.875977Z" fill="#F37A3A"/>
<path d="M25.5458 14.0597L23.9703 12.6533L17.9998 19.3423L17.2489 21.0046L17.9998 22.5139L25.5458 14.0597Z" fill="#F7F0EB"/>
<path d="M11.7253 16.4102L10.2321 17.9035L16.5105 24.1821L17.9998 22.5136V19.342L16.4234 21.1081L11.7253 16.4102Z" fill="#FFFBF5"/>
</g>
<defs>
<clipPath id="clip0_443_6321">
<rect width="36" height="36" fill="white"/>
</clipPath>
</defs>
</svg>
