<svg width="64" height="74" viewBox="0 0 64 74" fill="none" xmlns="http://www.w3.org/2000/svg">
<path d="M57.9877 59.4576C56.7271 61.9788 54.2058 63.5303 51.3937 63.5303C47.9998 63.5303 45.6725 61.6879 44.6058 59.2637H19.4907C18.3271 61.6879 15.8058 63.4334 12.7028 63.4334C9.8907 63.4334 7.36948 61.8819 6.10888 59.3606C5.81797 58.6819 6.20585 57.9061 6.9816 57.9061H11.6362L12.8968 55.8697L11.6362 53.8334H6.88463C6.20585 53.8334 5.721 53.0576 6.01191 52.3788C7.27251 49.8576 9.8907 48.3061 12.7028 48.3061C15.6119 48.3061 18.2301 49.9546 19.4907 52.5728H44.6058C45.7695 49.9546 48.1937 48.3061 51.3937 48.3061C54.2058 48.3061 56.7271 49.8576 58.0846 52.3788C58.3755 53.0576 57.9877 53.8334 57.2119 53.8334H52.5574L51.2968 55.8697L52.5574 57.9061H57.2119C57.8907 58.1 58.3755 58.7788 57.9877 59.4576Z" fill="url(#paint0_linear_828_16993)"/>
<path d="M55.4607 18.6334C54.491 13.2031 49.4485 9.71215 45.1819 9.90609C43.2425 4.7667 38.394 1.46973 32.8667 1.46973C27.0485 1.46973 22.297 4.86367 20.4546 10.197C19.6788 10.0031 19 10.0031 18.2243 10.0031C13.0849 10.0031 8.62429 13.8818 7.84853 18.9243C3.96975 20.2818 1.35156 23.8697 1.35156 28.0394C1.35156 33.3728 5.7152 37.6394 10.9516 37.6394H13.6667C13.5697 37.4455 13.5697 37.2515 13.5697 36.9606V31.2394C13.5697 29.5909 14.8304 28.3303 16.4788 28.3303H17.8364C17.8364 28.3303 17.8364 28.2334 17.9334 28.2334L16.9637 27.2637C15.8 26.1 15.8 24.2576 16.9637 23.1909L21.0364 19.1182C22.2001 17.9546 24.0425 17.9546 25.1091 19.1182L26.0788 19.9909H26.1758V18.7303C26.1758 17.1788 27.5334 15.8212 29.0849 15.8212H34.9031C36.4546 15.8212 37.8122 17.1788 37.8122 18.7303V19.894H37.9091L38.7819 19.0212C39.9455 17.8576 41.7879 17.8576 42.9516 19.0212L47.0243 23.094C48.1879 24.3546 48.091 26.1 47.0243 27.2637L46.0546 28.1364V28.2334H47.3152C48.9637 28.2334 50.2243 29.494 50.2243 31.1425V36.8637C50.2243 37.0576 50.2243 37.3485 50.1273 37.5425H52.8425C58.1758 37.5425 62.5394 33.1788 62.5394 27.9425C62.6364 23.5788 59.6304 19.797 55.4607 18.6334Z" fill="url(#paint1_linear_828_16993)"/>
<path d="M47.4135 30.1722H44.6983C44.4074 29.2995 44.1165 28.5237 43.7286 27.748L45.668 25.8086C46.0559 25.4207 46.0559 24.8389 45.668 24.451L41.5953 20.3783C41.2074 19.9904 40.6256 19.9904 40.2377 20.3783L38.3953 22.2207C37.6195 21.8328 36.7468 21.445 35.9711 21.251V18.5359C35.9711 17.954 35.4862 17.5662 35.0014 17.5662H29.1832C28.6014 17.5662 28.2135 17.954 28.2135 18.5359V21.251C27.3408 21.5419 26.565 21.8328 25.7892 22.2207L23.8498 20.3783C23.462 19.9904 22.8801 19.9904 22.4923 20.3783L18.4195 24.451C18.0317 24.8389 18.0317 25.4207 18.4195 25.8086L20.3589 27.748C19.9711 28.5237 19.5832 29.3965 19.2923 30.1722H16.5771C16.0923 30.1722 15.6074 30.5601 15.6074 31.1419V36.8631C15.6074 37.445 16.0923 37.8328 16.5771 37.8328H19.2923C19.5832 38.7056 19.8741 39.4813 20.3589 40.2571L18.4195 42.0995C18.0317 42.4874 18.0317 43.0692 18.4195 43.4571L22.4923 47.5298C23.6559 48.6934 24.8195 46.2692 25.7892 45.5904C26.565 45.9783 27.4377 46.3662 28.2135 46.6571V49.3722C28.2135 49.8571 28.6014 50.3419 29.1832 50.3419H35.0014C35.4862 50.3419 35.9711 49.8571 35.9711 49.3722V46.6571C36.8438 46.3662 37.6195 46.0753 38.3953 45.6874L40.2377 47.5298C40.6256 47.9177 41.2074 47.9177 41.5953 47.5298L45.668 43.4571C46.0559 43.0692 46.0559 42.4874 45.668 42.0995L43.7286 40.2571C44.1165 39.4813 44.5044 38.6086 44.6983 37.8328H47.4135C47.9953 37.8328 48.3832 37.445 48.3832 36.8631V31.1419C48.3832 30.5601 47.9953 30.1722 47.4135 30.1722ZM31.9953 41.9056C27.5347 41.9056 24.0438 38.3177 24.0438 33.954C24.0438 29.5904 27.5347 26.0025 31.9953 26.0025C36.4559 26.0025 39.9468 29.5904 39.9468 33.954C39.9468 38.3177 36.3589 41.9056 31.9953 41.9056Z" fill="url(#paint2_linear_828_16993)"/>
<defs>
<linearGradient id="paint0_linear_828_16993" x1="7.35519" y1="7.32659" x2="56.8621" y2="55.3546" gradientUnits="userSpaceOnUse">
<stop stop-color="#F94229"/>
<stop offset="1" stop-color="#BB0A55"/>
</linearGradient>
<linearGradient id="paint1_linear_828_16993" x1="7.35519" y1="7.32659" x2="56.8621" y2="55.3546" gradientUnits="userSpaceOnUse">
<stop stop-color="#F94229"/>
<stop offset="1" stop-color="#BB0A55"/>
</linearGradient>
<linearGradient id="paint2_linear_828_16993" x1="7.35519" y1="7.32659" x2="56.8621" y2="55.3546" gradientUnits="userSpaceOnUse">
<stop stop-color="#F94229"/>
<stop offset="1" stop-color="#BB0A55"/>
</linearGradient>
</defs>
</svg>
