<svg width="64" height="64" viewBox="0 0 64 64" fill="none" xmlns="http://www.w3.org/2000/svg">
<path d="M44.472 25.9075C43.2675 27.3323 40.9808 26.457 40.9614 25.0903L40.9107 21.2094H37.176C35.5563 21.2094 34.2385 19.8857 34.2385 18.2583V6.24891C32.041 5.10092 30.377 4.04255 29.4578 3.42462C19.4437 12.0025 8.27976 11.5089 4.53801 11.0437C2.34152 28.6443 8.75802 41.0378 15.0104 48.6538C17.288 45.9898 20.2808 43.9706 23.7217 42.8984C20.5198 40.9789 18.3653 37.4843 18.3653 33.4871C18.3653 27.4346 23.2892 22.5107 29.3411 22.5107C35.3936 22.5107 40.3175 27.4346 40.3175 33.4871C40.3175 37.4891 38.1578 40.9874 34.9494 42.9054C38.3164 43.9615 41.3567 45.9561 43.686 48.6811C51.3154 39.1967 53.8204 28.783 54.4956 21.2094H49.4272L44.472 25.9075Z" fill="url(#paint0_linear_829_18143)"/>
<path d="M29.4025 44.4604C29.3817 44.4606 29.3617 44.4635 29.3409 44.4635C29.3193 44.4635 29.2985 44.4604 29.2769 44.4603C24.276 44.4801 19.693 46.7283 16.6084 50.5064C20.5746 54.8741 25.4126 58.6424 29.4706 60.8857C30.631 60.1903 31.7502 59.4593 32.838 58.703C36.3727 56.2467 39.4884 53.4772 42.1071 50.5467C39.0017 46.7324 34.3244 44.4785 29.4025 44.4604Z" fill="url(#paint1_linear_829_18143)"/>
<path d="M29.422 42.0443C34.105 42.0001 37.9023 38.1803 37.9023 33.4871C37.9023 28.7666 34.0615 24.9258 29.341 24.9258C24.6205 24.9258 20.7803 28.7666 20.7803 33.4871C20.7803 38.186 24.5861 42.0102 29.277 42.0452C29.2993 42.0451 29.321 42.0419 29.3434 42.0419C29.3697 42.0419 29.3957 42.0441 29.422 42.0443Z" fill="url(#paint2_linear_829_18143)"/>
<path d="M59.3673 3.11328H37.1762C36.8932 3.11328 36.6538 3.35267 36.6538 3.63628V18.2583C36.6538 18.5537 36.8879 18.7943 37.1762 18.7943H42.1031C42.7641 18.7943 43.3018 19.3255 43.3106 19.9859L43.3578 23.6363L48.1149 19.1257C48.339 18.9128 48.6367 18.7943 48.9457 18.7943H59.3673C59.6627 18.7943 59.9032 18.5537 59.9032 18.2583V3.63628C59.9032 3.34795 59.6627 3.11328 59.3673 3.11328ZM41.1762 12.3432C40.5094 12.3432 39.9026 11.7365 39.9026 11.0696C39.9026 10.4028 40.5094 9.79606 41.1762 9.79606C41.8431 9.79606 42.4498 10.4028 42.4498 11.0696C42.4498 11.7365 41.8431 12.3432 41.1762 12.3432ZM45.9109 12.3432C45.244 12.3432 44.6373 11.7365 44.6373 11.0696C44.6373 10.4028 45.244 9.79606 45.9109 9.79606C46.5777 9.79606 47.1845 10.4028 47.1845 11.0696C47.1845 11.7365 46.5777 12.3432 45.9109 12.3432ZM50.6461 12.3432C49.9793 12.3432 49.3726 11.7365 49.3726 11.0696C49.3726 10.4028 49.9793 9.79606 50.6461 9.79606C51.313 9.79606 51.9197 10.4028 51.9197 11.0696C51.9197 11.7365 51.313 12.3432 50.6461 12.3432ZM55.3808 12.3432C54.714 12.3432 54.1072 11.7365 54.1072 11.0696C54.1072 10.4028 54.714 9.79606 55.3808 9.79606C56.0477 9.79606 56.6544 10.4028 56.6544 11.0696C56.6544 11.7365 56.0477 12.3432 55.3808 12.3432Z" fill="url(#paint3_linear_829_18143)"/>
<defs>
<linearGradient id="paint0_linear_829_18143" x1="9.57298" y1="8.56545" x2="55.6208" y2="52.3307" gradientUnits="userSpaceOnUse">
<stop stop-color="#F94229"/>
<stop offset="1" stop-color="#BB0A55"/>
</linearGradient>
<linearGradient id="paint1_linear_829_18143" x1="9.57298" y1="8.56545" x2="55.6208" y2="52.3307" gradientUnits="userSpaceOnUse">
<stop stop-color="#F94229"/>
<stop offset="1" stop-color="#BB0A55"/>
</linearGradient>
<linearGradient id="paint2_linear_829_18143" x1="9.57298" y1="8.56545" x2="55.6208" y2="52.3307" gradientUnits="userSpaceOnUse">
<stop stop-color="#F94229"/>
<stop offset="1" stop-color="#BB0A55"/>
</linearGradient>
<linearGradient id="paint3_linear_829_18143" x1="9.57298" y1="8.56545" x2="55.6208" y2="52.3307" gradientUnits="userSpaceOnUse">
<stop stop-color="#F94229"/>
<stop offset="1" stop-color="#BB0A55"/>
</linearGradient>
</defs>
</svg>
