<svg width="64" height="64" viewBox="0 0 64 64" fill="none" xmlns="http://www.w3.org/2000/svg">
<path d="M51.5653 18.0714H51.471C52.2614 12.401 47.9844 7.35712 42.4349 7.35712C39.035 7.35712 35.8609 9.10825 34.8105 12.6375C34.6145 13.2959 33.9207 13.6768 33.2559 13.479C32.5942 13.2821 32.2175 12.5861 32.4144 11.9244C32.9802 10.0229 34.1302 8.30175 35.6709 7.039C33.2809 3.96837 29.6041 2 25.4783 2C17.2689 2 11.0457 9.72462 12.6959 18.0714H12.4347C6.67187 18.0714 2 22.8684 2 28.7857C2 34.703 6.67187 39.5 12.4347 39.5H17.5876C16.4146 37.2549 15.75 34.7038 15.75 32C15.75 23.0397 23.0397 15.75 32 15.75C40.9604 15.75 48.25 23.0397 48.25 32C48.25 34.7038 47.5854 37.2549 46.4123 39.5H51.5651C57.3281 39.5 62 34.703 62 28.7857C62 22.8684 57.3281 18.0714 51.5653 18.0714Z" fill="url(#paint0_linear_829_18166)"/>
<path d="M32 25.75C28.5537 25.75 25.75 28.5537 25.75 32C25.75 35.4463 28.5537 38.25 32 38.25C35.4463 38.25 38.25 35.4463 38.25 32C38.25 28.5537 35.4463 25.75 32 25.75Z" fill="url(#paint1_linear_829_18166)"/>
<path d="M32 18.25C24.4183 18.25 18.25 24.4183 18.25 32C18.25 39.1604 23.7519 45.0589 30.75 45.6926V48.25H28.25C27.5596 48.25 27 48.8097 27 49.5V57C27 59.757 29.243 62 32 62C34.757 62 37 59.757 37 57V49.5C37 48.8097 36.4403 48.25 35.75 48.25H33.25V45.6926C40.2481 45.059 45.75 39.1604 45.75 32C45.75 24.4183 39.5817 18.25 32 18.25ZM32 40.75C27.1753 40.75 23.25 36.8247 23.25 32C23.25 27.1753 27.1753 23.25 32 23.25C36.8247 23.25 40.75 27.1753 40.75 32C40.75 36.8247 36.8247 40.75 32 40.75Z" fill="url(#paint2_linear_829_18166)"/>
<defs>
<linearGradient id="paint0_linear_829_18166" x1="7.88685" y1="7.6624" x2="55.7657" y2="54.7717" gradientUnits="userSpaceOnUse">
<stop stop-color="#F94229"/>
<stop offset="1" stop-color="#BB0A55"/>
</linearGradient>
<linearGradient id="paint1_linear_829_18166" x1="7.88685" y1="7.6624" x2="55.7657" y2="54.7717" gradientUnits="userSpaceOnUse">
<stop stop-color="#F94229"/>
<stop offset="1" stop-color="#BB0A55"/>
</linearGradient>
<linearGradient id="paint2_linear_829_18166" x1="7.88685" y1="7.6624" x2="55.7657" y2="54.7717" gradientUnits="userSpaceOnUse">
<stop stop-color="#F94229"/>
<stop offset="1" stop-color="#BB0A55"/>
</linearGradient>
</defs>
</svg>
