<svg width="60" height="60" viewBox="0 0 60 60" fill="none" xmlns="http://www.w3.org/2000/svg">
<g clip-path="url(#clip0_829_18163)">
<path fill-rule="evenodd" clip-rule="evenodd" d="M7.1038 11.7559C6.50431 12.3539 6.02891 13.0645 5.70493 13.8468C5.38094 14.6291 5.21475 15.4678 5.21591 16.3145L5.21532 16.4434C5.21658 16.6843 5.16155 16.9222 5.05461 17.1381C4.94767 17.354 4.79179 17.5419 4.59938 17.6869C3.17004 18.7694 2.00918 20.1665 1.2068 21.7699C0.129159 23.9313 -0.239746 26.3774 0.152529 28.7605C0.544805 31.1436 1.6783 33.3424 3.39188 35.0443C4.46039 36.1185 5.7305 36.9712 7.12934 37.5533C8.52818 38.1354 10.0282 38.4356 11.5433 38.4366H15.4725C15.1971 34.1241 15.411 29.5996 15.6689 25.1052H15.6722C15.6886 24.8074 15.7909 24.5206 15.9667 24.2797C16.1425 24.0387 16.3844 23.8538 16.663 23.7474L33.0516 17.4525C33.4066 17.3161 33.7996 17.3161 34.1547 17.4525L50.4423 23.7087C50.7459 23.8012 51.0138 23.9847 51.2096 24.2345C51.4055 24.4843 51.5198 24.7882 51.5372 25.1051C51.7794 29.3257 51.9825 33.5729 51.7786 37.646C53.6333 36.9121 55.2685 35.7142 56.5276 34.1672C58.0343 32.328 58.9324 30.0662 59.0979 27.6944C59.2635 25.3227 58.6882 22.958 57.4517 20.9274H57.4524C57.2617 20.6148 57.188 20.2448 57.2445 19.883C57.301 19.5213 57.4839 19.1913 57.7608 18.9518C58.4115 18.3944 58.9447 17.7129 59.3291 16.9471C59.7135 16.1814 59.9415 15.3467 59.9998 14.4919C60.058 13.637 59.9454 12.7791 59.6684 11.9683C59.3915 11.1574 58.9557 10.4099 58.3866 9.76935C57.8176 9.12878 57.1266 8.60802 56.354 8.23748C55.5814 7.86693 54.7428 7.65402 53.887 7.61119C53.0313 7.56836 52.1755 7.69646 51.3698 7.98802C50.5641 8.27957 49.8246 8.72873 49.1944 9.30927C49.0226 9.47664 48.8143 9.60185 48.5859 9.67504C48.3575 9.74823 48.1152 9.76741 47.8781 9.73106C47.641 9.69471 47.4156 9.60382 47.2196 9.46556C47.0237 9.32729 46.8624 9.14542 46.7487 8.93427C45.3677 6.38888 43.326 4.26288 40.8386 2.78005C38.8646 1.60758 36.6619 0.872629 34.3795 0.624888C32.097 0.377147 29.7879 0.622393 27.6084 1.34404C25.4289 2.06569 23.4297 3.24692 21.7461 4.80786C20.0624 6.36879 18.7336 8.27304 17.8494 10.3918C17.7676 10.6181 17.6341 10.8222 17.4597 10.9879C17.2852 11.1536 17.0746 11.2764 16.8444 11.3466C16.6142 11.4167 16.3709 11.4322 16.1337 11.3919C15.8965 11.3516 15.6719 11.2566 15.4778 11.1144C14.235 10.2046 12.7079 9.76922 11.1722 9.88686C9.63649 10.0045 8.19348 10.6674 7.1038 11.7559ZM39.2341 36.297C39.2336 37.5199 38.8353 38.7095 38.0994 39.6862C37.3635 40.663 36.33 41.3739 35.1546 41.7117V47.4076C35.1511 47.8168 34.986 48.2081 34.6954 48.4962C34.4048 48.7843 34.0121 48.9459 33.6029 48.9459C33.1937 48.9459 32.801 48.7843 32.5104 48.4962C32.2197 48.2081 32.0547 47.8168 32.0511 47.4076V41.7117C31.0446 41.4233 30.1384 40.86 29.4343 40.085C28.7302 39.3101 28.2561 38.3543 28.0651 37.3248C27.8742 36.2953 27.974 35.233 28.3533 34.2571C28.7327 33.2812 29.3765 32.4304 30.2126 31.8002C31.0488 31.1699 32.044 30.7852 33.0866 30.6893C34.1292 30.5934 35.178 30.7899 36.1151 31.257C37.0521 31.7241 37.8405 32.4431 38.3915 33.3334C38.9426 34.2237 39.2346 35.2499 39.2347 36.297H39.2341ZM33.6031 20.5497L48.5023 26.2725C48.8959 33.3871 49.0931 40.5095 47.2549 46.4053C45.4328 52.2499 41.5269 56.9882 33.6026 59.4631C25.6793 56.9885 21.7732 52.25 19.9512 46.4054C18.113 40.5095 18.3106 33.3871 18.704 26.2726L33.6031 20.5498V20.5497ZM35.3904 38.0845C34.9768 38.4983 34.4326 38.7558 33.8504 38.8132C33.2683 38.8706 32.6842 38.7244 32.1978 38.3994C31.7113 38.0745 31.3526 37.5909 31.1827 37.0312C31.0129 36.4714 31.0424 35.87 31.2662 35.3295C31.49 34.7891 31.8943 34.3429 32.4102 34.0671C32.9261 33.7914 33.5217 33.703 34.0954 33.8171C34.6692 33.9312 35.1856 34.2407 35.5567 34.6929C35.9278 35.1451 36.1307 35.712 36.1307 36.297C36.1312 36.629 36.066 36.9579 35.939 37.2646C35.8119 37.5714 35.6255 37.8501 35.3904 38.0845Z" fill="url(#paint0_linear_829_18163)"/>
</g>
<defs>
<linearGradient id="paint0_linear_829_18163" x1="5.8883" y1="6.09284" x2="52.9208" y2="53.2198" gradientUnits="userSpaceOnUse">
<stop stop-color="#F94229"/>
<stop offset="1" stop-color="#BB0A55"/>
</linearGradient>
<clipPath id="clip0_829_18163">
<rect width="60" height="60" fill="white"/>
</clipPath>
</defs>
</svg>
