<svg width="56" height="54" viewBox="0 0 56 54" fill="none" xmlns="http://www.w3.org/2000/svg">
<path d="M45.833 0.25C46.3986 0.25 46.9414 0.290028 47.4609 0.370117H47.4629C47.8626 0.429607 48.2581 0.540589 48.6514 0.699219L42.0117 7.33984L41.835 7.5166L48.0557 13.7373L48.2324 13.5605L54.8779 6.91797C55.0436 7.31082 55.1557 7.70585 55.2119 8.10449C55.2857 8.62985 55.3223 9.1749 55.3223 9.73926C55.3222 12.2294 54.5146 14.3529 52.8975 16.123L52.5635 16.4727C50.7278 18.3126 48.4891 19.2314 45.833 19.2314C44.9268 19.2314 44.0994 19.1341 43.3496 18.9424C42.6111 18.7535 41.8844 18.4029 41.1689 17.8857L40.9961 17.7617L40.8457 17.9121L5.78027 52.9766L2.5957 49.7939L25.6025 26.7881L25.7793 26.6113L25.6016 26.4346L15.7061 16.6055L15.5293 16.4297L15.3535 16.6055L13.7119 18.2461L10.7305 15.2051L10.3018 14.7676V21.2734L8.73242 22.8428L0.353516 14.4639L1.92285 12.8945H8.42871L7.99121 12.4658L4.96973 9.5L12.0049 2.46582C12.7523 1.71845 13.5669 1.16701 14.4482 0.807617C15.3295 0.4496 16.2712 0.269577 17.2754 0.269531C18.2774 0.269531 19.2197 0.449452 20.1035 0.807617C20.9144 1.1363 21.6666 1.63127 22.3623 2.29199L17.0586 7.59668L16.8818 7.77344L20.5332 11.4248L18.8916 13.0674L18.7139 13.2451L18.8926 13.4219L28.7881 23.251L28.9648 23.4258L29.1406 23.25L37.6602 14.7266L37.8096 14.5781L37.6875 14.4062C37.1807 13.6903 36.8333 12.9619 36.6396 12.2217C36.4437 11.4723 36.3438 10.6451 36.3438 9.73926C36.3438 7.08313 37.2619 4.84372 39.0996 3.00586C40.9374 1.16802 43.1769 0.250062 45.833 0.25ZM55.2617 49.7939L52.0801 52.9756L33.9346 34.8311L37.1162 31.6494L55.2617 49.7939Z" fill="url(#paint0_linear_696_6752)" stroke="white" stroke-width="0.5"/>
<defs>
<linearGradient id="paint0_linear_696_6752" x1="0" y1="0" x2="64.1292" y2="13.8177" gradientUnits="userSpaceOnUse">
<stop stop-color="#511F5E"/>
<stop offset="1" stop-color="#C01E6C"/>
</linearGradient>
</defs>
</svg>
