<svg width="64" height="64" viewBox="0 0 64 64" fill="none" xmlns="http://www.w3.org/2000/svg">
<path d="M11.2674 51.416C8.69416 48.8801 6.65109 45.8576 5.25721 42.5246C3.86333 39.1915 3.14649 35.6144 3.14844 32.0016C3.14844 19.7666 11.2311 9.38421 22.3372 5.91271C21.914 6.51693 21.7284 7.256 21.8161 7.98848C21.9037 8.72095 22.2584 9.39539 22.8122 9.88271L24.5569 11.4202C15.6182 13.9936 9.06094 22.246 9.06094 32.0016C9.06259 35.6317 9.98691 39.2019 11.7471 42.3768C13.5072 45.5517 16.0455 48.2271 19.1234 50.1517C18.9533 50.5337 18.8651 50.9472 18.8647 51.3653V51.416H11.2674ZM57.8009 32.0016C57.8009 17.2688 46.0808 5.22409 31.4748 4.69571V2.62484C31.4748 2.43242 31.4192 2.24411 31.3149 2.08247C31.2105 1.92084 31.0617 1.79275 30.8863 1.71358C30.7109 1.63441 30.5164 1.60751 30.3262 1.63611C30.1359 1.66471 29.9579 1.7476 29.8136 1.87484L24.1338 6.88133C24.0274 6.97518 23.9422 7.09059 23.8838 7.2199C23.8254 7.34921 23.7953 7.48946 23.7953 7.63133C23.7953 7.77321 23.8254 7.91346 23.8838 8.04277C23.9422 8.17208 24.0274 8.28749 24.1338 8.38134L29.8137 13.3842C29.958 13.5113 30.136 13.5941 30.3262 13.6226C30.5164 13.6512 30.7108 13.6243 30.8861 13.5451C31.0614 13.4659 31.2102 13.3379 31.3145 13.1763C31.4189 13.0148 31.4745 12.8266 31.4746 12.6342V10.6113C42.8201 11.1356 51.8889 20.529 51.8889 32.0016C51.8889 43.8096 42.2826 53.416 30.4746 53.416C29.8582 53.416 29.2481 53.3883 28.6447 53.337L29.5302 54.1165C29.8499 54.3979 30.106 54.7442 30.2815 55.1324C30.457 55.5205 30.5478 55.9416 30.5479 56.3675C30.548 56.7935 30.4573 57.2146 30.282 57.6028C30.1067 57.991 29.8508 58.3375 29.5312 58.6191L28.7914 59.2708C29.3484 59.3048 29.9092 59.3242 30.4746 59.3242C45.5424 59.3248 57.8009 47.0673 57.8009 32.0016ZM28.2089 55.6177L22.5256 50.6147C22.3812 50.4876 22.2033 50.4049 22.0131 50.3764C21.8229 50.3479 21.6285 50.3748 21.4532 50.4539C21.278 50.5331 21.1292 50.6611 21.0249 50.8227C20.9205 50.9842 20.8649 51.1724 20.8648 51.3647V53.4153H4.14844C3.88322 53.4153 3.62887 53.5207 3.44133 53.7082C3.2538 53.8958 3.14844 54.1501 3.14844 54.4153V58.3235C3.14844 58.5887 3.2538 58.843 3.44133 59.0306C3.62887 59.2181 3.88322 59.3235 4.14844 59.3235H20.8648V61.3748C20.8649 61.5672 20.9204 61.7555 21.0248 61.917C21.1292 62.0786 21.278 62.2067 21.4533 62.2858C21.6286 62.365 21.823 62.3919 22.0133 62.3634C22.2035 62.3348 22.3815 62.252 22.5258 62.1248L28.2092 57.1182C28.3157 57.0244 28.4011 56.9089 28.4596 56.7795C28.518 56.6501 28.5483 56.5098 28.5483 56.3678C28.5483 56.2258 28.518 56.0854 28.4596 55.956C28.4011 55.8266 28.3157 55.7112 28.2092 55.6173L28.2089 55.6177ZM30.4748 32.0256C30.8541 32.0256 31.1558 31.7047 31.1768 31.2791L31.4852 25.275C31.4889 25.1597 31.4692 25.0448 31.4272 24.9374C31.3852 24.83 31.3219 24.7322 31.2409 24.65C31.1428 24.5459 31.0244 24.463 30.893 24.4062C30.7616 24.3495 30.6201 24.3203 30.477 24.3202C30.3339 24.3201 30.1923 24.3493 30.0609 24.4058C29.9295 24.4624 29.811 24.5452 29.7127 24.6492C29.6318 24.7314 29.5684 24.8292 29.5263 24.9366C29.4843 25.0441 29.4644 25.1589 29.4681 25.2742L29.7728 31.2772C29.7921 31.6391 30.0447 32.0256 30.4748 32.0256ZM30.4748 36.9523C30.336 36.9527 30.2005 36.9942 30.0852 37.0715C29.97 37.1489 29.8802 37.2586 29.8273 37.3869C29.7744 37.5152 29.7606 37.6563 29.7878 37.7924C29.815 37.9285 29.8818 38.0535 29.98 38.1516C30.0781 38.2497 30.2032 38.3166 30.3393 38.3438C30.4754 38.3709 30.6165 38.3571 30.7447 38.3042C30.873 38.2512 30.9828 38.1615 31.0601 38.0462C31.1374 37.9309 31.1788 37.7954 31.1792 37.6566C31.1793 37.5641 31.1612 37.4724 31.1258 37.3869C31.0904 37.3014 31.0386 37.2237 30.9731 37.1583C30.9077 37.0929 30.83 37.041 30.7445 37.0057C30.659 36.9703 30.5673 36.9522 30.4748 36.9523ZM16.6096 36.872L21.6152 28.1961L26.6256 19.522C27.0161 18.8464 27.5775 18.2855 28.2533 17.8955C28.9292 17.5056 29.6957 17.3002 30.476 17.3001C31.2563 17.3 32.0229 17.5051 32.6988 17.8949C33.3748 18.2847 33.9363 18.8454 34.3271 19.5208L34.3278 19.5222L44.3444 36.8732C44.735 37.5493 44.9406 38.3163 44.9406 39.097C44.9406 39.8778 44.7349 40.6448 44.3444 41.3208C43.9538 41.9969 43.3921 42.5581 42.7158 42.9482C42.0395 43.3382 41.2723 43.5433 40.4916 43.5427H20.4582C19.6776 43.5427 18.9108 43.3371 18.2349 42.9467C17.559 42.5563 16.9977 41.9948 16.6077 41.3187C16.2176 40.6425 16.0124 39.8756 16.0127 39.0951C16.0131 38.3145 16.2189 37.5477 16.6096 36.872ZM33.1792 37.6566C33.1796 37.1221 33.0214 36.5994 32.7247 36.1548C32.4281 35.7101 32.0062 35.3634 31.5125 35.1585C31.0188 34.9536 30.4754 34.8997 29.9511 35.0037C29.4268 35.1076 28.945 35.3647 28.5668 35.7424C28.1886 36.1201 27.9309 36.6015 27.8262 37.1257C27.7216 37.6499 27.7748 38.1933 27.979 38.6873C28.1832 39.1813 28.5293 39.6036 28.9736 39.9009C29.4179 40.1981 29.9403 40.357 30.4748 40.3573C31.1912 40.3565 31.878 40.0719 32.3849 39.5657C32.8918 39.0594 33.1774 38.373 33.1792 37.6566ZM27.4707 25.377L27.7756 31.3816C27.8544 32.8642 29.0402 34.0256 30.4748 34.0256C31.9152 34.0256 33.1009 32.8631 33.1748 31.3797L33.4831 25.3777C33.5023 24.9914 33.4419 24.6053 33.3058 24.2433C33.1696 23.8813 32.9606 23.5511 32.6916 23.2732C32.4065 22.9724 32.0632 22.7329 31.6826 22.5691C31.3019 22.4054 30.8919 22.3209 30.4775 22.3208C30.0631 22.3207 29.653 22.4051 29.2723 22.5687C28.8916 22.7323 28.5482 22.9718 28.2631 23.2725C27.9939 23.5503 27.7848 23.8805 27.6485 24.2425C27.5122 24.6045 27.4517 24.9906 27.4707 25.377ZM60.5091 55.618L54.8293 50.615C54.685 50.4878 54.507 50.405 54.3168 50.3764C54.1265 50.3479 53.9321 50.3748 53.7568 50.4539C53.5815 50.5331 53.4327 50.6612 53.3283 50.8228C53.2239 50.9843 53.1684 51.1726 53.1683 51.365V53.4156H50.4859C47.7667 55.9606 44.5886 57.9655 41.1207 59.3237H53.1689V61.3748C53.169 61.5672 53.2245 61.7556 53.3289 61.9172C53.4333 62.0788 53.5821 62.2069 53.7575 62.2861C53.9328 62.3653 54.1273 62.3922 54.3176 62.3636C54.5079 62.335 54.6858 62.2521 54.8302 62.1248L60.5099 57.1183C60.6163 57.0245 60.7016 56.9091 60.7599 56.7798C60.8183 56.6505 60.8485 56.5102 60.8485 56.3683C60.8485 56.2265 60.8183 56.0862 60.7599 55.9569C60.7016 55.8276 60.6163 55.7122 60.5099 55.6183L60.5091 55.618Z" fill="url(#paint0_linear_828_17011)"/>
<defs>
<linearGradient id="paint0_linear_828_17011" x1="8.80963" y1="7.35815" x2="57.1822" y2="52.564" gradientUnits="userSpaceOnUse">
<stop stop-color="#F94229"/>
<stop offset="1" stop-color="#BB0A55"/>
</linearGradient>
</defs>
</svg>
