<svg width="64" height="74" viewBox="0 0 64 74" fill="none" xmlns="http://www.w3.org/2000/svg">
<path d="M18.1328 62.3666H45.8661C45.8647 61.8013 45.6395 61.2594 45.2397 60.8597C44.84 60.4599 44.2982 60.2347 43.7328 60.2333H20.2661C19.7003 60.2333 19.1577 60.458 18.7577 60.8581C18.3576 61.2582 18.1328 61.8008 18.1328 62.3666Z" fill="url(#paint0_linear_828_16997)"/>
<path d="M60.7995 4.7666H45.0971C45.9983 5.41384 46.8504 6.1269 47.6464 6.89993H57.5995C58.1653 6.89993 58.7079 7.1247 59.108 7.52477C59.5081 7.92485 59.7328 8.46747 59.7328 9.03327V43.1666C59.7328 43.7324 59.5081 44.275 59.108 44.6751C58.7079 45.0752 58.1653 45.2999 57.5995 45.2999H6.39948C5.83368 45.2999 5.29106 45.0752 4.89098 44.6751C4.49091 44.275 4.26615 43.7324 4.26615 43.1666V9.03327C4.26615 8.46747 4.49091 7.92485 4.89098 7.52477C5.29106 7.1247 5.83368 6.89993 6.39948 6.89993H16.3525C17.1485 6.1269 18.0006 5.41384 18.9019 4.7666H3.19948C2.91658 4.7666 2.64527 4.87898 2.44523 5.07902C2.24519 5.27906 2.13281 5.55037 2.13281 5.83327V47.4333H61.8661V5.83327C61.8661 5.55037 61.7538 5.27906 61.5537 5.07902C61.3537 4.87898 61.0824 4.7666 60.7995 4.7666Z" fill="url(#paint1_linear_828_16997)"/>
<path d="M41.478 43.1666H57.5996V9.03326H49.558C51.6576 11.6776 53.1302 14.7638 53.8648 18.0594C54.5994 21.3551 54.5769 24.7745 53.7991 28.0602C53.0213 31.346 51.5084 34.4125 49.3743 37.0291C47.2402 39.6457 44.5403 41.7442 41.478 43.1666Z" fill="url(#paint2_linear_828_16997)"/>
<path d="M2.13281 52.7666C2.13281 53.0495 2.24519 53.3208 2.44523 53.5208C2.64527 53.7209 2.91658 53.8333 3.19948 53.8333H60.7995C61.0824 53.8333 61.3537 53.7209 61.5537 53.5208C61.7538 53.3208 61.8661 53.0495 61.8661 52.7666V49.5666H2.13281V52.7666Z" fill="url(#paint3_linear_828_16997)"/>
<path d="M26.3793 55.9666C26.0899 56.7558 25.6485 57.4806 25.0801 58.0999H38.919C38.3506 57.4806 37.9092 56.7558 37.6198 55.9666H26.3793Z" fill="url(#paint4_linear_828_16997)"/>
<path d="M9.59941 22.8999C9.59908 17.8633 11.3058 12.9751 14.441 9.03326H6.39941V43.1666H22.521C18.6647 41.3645 15.4015 38.5014 13.1131 34.9123C10.8248 31.3232 9.60598 27.1565 9.59941 22.8999Z" fill="url(#paint5_linear_828_16997)"/>
<path d="M31.9996 2.6333C27.9912 2.6333 24.0729 3.82192 20.74 6.04885C17.4072 8.27578 14.8096 11.441 13.2756 15.1442C11.7417 18.8475 11.3403 22.9225 12.1223 26.8538C12.9043 30.7851 14.8345 34.3963 17.6689 37.2307C20.5032 40.065 24.1144 41.9952 28.0458 42.7772C31.9771 43.5592 36.0521 43.1579 39.7553 41.6239C43.4586 40.09 46.6238 37.4924 48.8507 34.1595C51.0776 30.8267 52.2663 26.9083 52.2663 22.9C52.2603 17.5267 50.1232 12.3753 46.3237 8.57582C42.5243 4.77637 37.3728 2.63923 31.9996 2.6333ZM21.3329 30.3666C21.3329 30.0837 21.4453 29.8124 21.6453 29.6124C21.8454 29.4123 22.1167 29.3 22.3996 29.3C22.4572 29.3 28.1489 29.2381 29.8556 25.556C29.9745 25.2992 30.1906 25.1003 30.4563 25.0029C30.7219 24.9054 31.0154 24.9175 31.2721 25.0365C31.5288 25.1555 31.7278 25.3715 31.8252 25.6372C31.9226 25.9028 31.9105 26.1963 31.7916 26.453C29.5068 31.3768 22.6887 31.4333 22.3996 31.4333C22.1167 31.4333 21.8454 31.3209 21.6453 31.1209C21.4453 30.9208 21.3329 30.6495 21.3329 30.3666ZM23.4663 35.7C23.1834 35.7 22.912 35.5876 22.712 35.3876C22.512 35.1875 22.3996 34.9162 22.3996 34.6333C22.3996 34.3504 22.512 34.0791 22.712 33.8791C22.912 33.679 23.1834 33.5666 23.4663 33.5666H24.5329C27.0781 33.5638 29.5183 32.5515 31.318 30.7517C33.1178 28.952 34.1301 26.5118 34.1329 23.9666V17.5666C34.1336 17.2739 34.074 16.9842 33.9579 16.7156C33.8418 16.4469 33.6717 16.205 33.4581 16.0049C33.2444 15.8048 32.9919 15.6507 32.7163 15.5524C32.4406 15.4541 32.1476 15.4135 31.8556 15.4333C31.2898 15.5071 30.7721 15.7897 30.404 16.2257C30.036 16.6617 29.8442 17.2194 29.8663 17.7896C29.75 27.0696 22.4871 27.1666 22.3996 27.1666C22.1167 27.1666 21.8454 27.0543 21.6453 26.8542C21.4453 26.6542 21.3329 26.3829 21.3329 26.1C21.3329 25.8171 21.4453 25.5458 21.6453 25.3457C21.8454 25.1457 22.1167 25.0333 22.3996 25.0333C22.9415 25.0333 27.6476 24.7709 27.7329 17.764C27.7195 16.6573 28.1214 15.5858 28.8594 14.7609C29.5973 13.9361 30.6177 13.4178 31.7191 13.3085C32.3027 13.2673 32.8886 13.3478 33.4394 13.5451C33.9903 13.7423 34.4942 14.0518 34.9191 14.4541C35.3438 14.8538 35.6824 15.336 35.9141 15.8712C36.1457 16.4065 36.2656 16.9834 36.2663 17.5666V23.9666C36.2626 27.0774 35.0252 30.0597 32.8256 32.2593C30.626 34.4589 27.6437 35.6963 24.5329 35.7H23.4663ZM42.0796 34.0925C40.7936 36.3562 39.0127 38.3001 36.87 39.7789C36.6367 39.9304 36.3536 39.9848 36.0808 39.9305C35.808 39.8762 35.5672 39.7175 35.4098 39.4883C35.2523 39.259 35.1906 38.9774 35.2378 38.7033C35.285 38.4292 35.4374 38.1844 35.6625 38.021C37.5383 36.7253 39.0974 35.023 40.2236 33.0408C40.2921 32.9179 40.3842 32.8097 40.4947 32.7225C40.6052 32.6354 40.7318 32.571 40.8673 32.533C41.0028 32.495 41.1445 32.4842 41.2842 32.5011C41.4238 32.5181 41.5588 32.5626 41.6812 32.632C41.8037 32.7014 41.9111 32.7943 41.9975 32.9054C42.0839 33.0165 42.1474 33.1436 42.1844 33.2793C42.2214 33.4151 42.2312 33.5568 42.2133 33.6964C42.1953 33.8359 42.1498 33.9706 42.0796 34.0925ZM42.5521 29.781C42.4246 30.0335 42.2021 30.2249 41.9335 30.3134C41.6648 30.4018 41.3721 30.3799 41.1196 30.2525C40.5855 29.9814 40.0844 29.6496 39.6263 29.2637C38.6506 32.0191 36.9424 34.4565 34.6852 36.3137C32.428 38.171 29.7073 39.3778 26.8156 39.8045C26.7646 39.8108 26.7133 39.814 26.662 39.8141C26.3921 39.8144 26.1321 39.7123 25.9344 39.5284C25.7368 39.3445 25.6162 39.0926 25.597 38.8234C25.5778 38.5541 25.6614 38.2876 25.8309 38.0775C26.0004 37.8675 26.2433 37.7295 26.5105 37.6914C29.2976 37.2831 31.895 36.0384 33.9594 34.1219C36.0238 32.2055 37.4579 29.7077 38.0721 26.9586C38.1156 26.7601 38.2149 26.5781 38.3584 26.4341C38.5018 26.2901 38.6834 26.1901 38.8817 26.1458C39.0801 26.1016 39.287 26.1149 39.478 26.1843C39.6691 26.2536 39.8363 26.3761 39.9601 26.5373C40.5241 27.2908 41.2479 27.91 42.0796 28.3506C42.3316 28.4779 42.5229 28.7 42.6115 28.9682C42.7001 29.2363 42.6787 29.5286 42.5521 29.781ZM43.5484 24.5618C43.391 24.7952 43.1477 24.9569 42.8715 25.0117C42.5954 25.0664 42.3088 25.0098 42.0743 24.8541C40.9334 24.0124 40.0065 22.9143 39.3682 21.6484C38.7299 20.3826 38.3981 18.9843 38.3996 17.5666C38.3996 15.8692 37.7253 14.2414 36.5251 13.0412C35.3248 11.8409 33.697 11.1666 31.9996 11.1666C30.3022 11.1666 28.6743 11.8409 27.4741 13.0412C26.2739 14.2414 25.5996 15.8692 25.5996 17.5666C25.5996 21.4898 21.8311 22.7933 21.67 22.8456C21.4012 22.935 21.108 22.9139 20.8547 22.7871C20.6015 22.6603 20.409 22.4381 20.3196 22.1693C20.2302 21.9005 20.2512 21.6073 20.378 21.354C20.5049 21.1008 20.7271 20.9083 20.9959 20.8189C21.6838 20.5831 22.2861 20.1479 22.726 19.5688C23.166 18.9896 23.4236 18.2927 23.4663 17.5666C23.4663 15.3035 24.3653 13.133 25.9656 11.5327C27.5659 9.93235 29.7364 9.0333 31.9996 9.0333C34.2628 9.0333 36.4333 9.93235 38.0336 11.5327C39.6339 13.133 40.5329 15.3035 40.5329 17.5666C40.5287 18.6348 40.7732 19.6892 41.2469 20.6466C41.7207 21.6039 42.4108 22.4378 43.2625 23.0824C43.4964 23.2409 43.6578 23.4856 43.7114 23.763C43.765 24.0403 43.7064 24.3276 43.5484 24.5618ZM43.7329 18.6333C43.45 18.6333 43.1787 18.5209 42.9787 18.3209C42.7786 18.1208 42.6663 17.8495 42.6663 17.5666C42.6663 14.7377 41.5424 12.0246 39.5421 10.0242C37.5417 8.02377 34.8286 6.89997 31.9996 6.89997C29.1706 6.89997 26.4575 8.02377 24.4571 10.0242C22.4567 12.0246 21.3329 14.7377 21.3329 17.5666C21.3329 17.8495 21.2205 18.1208 21.0205 18.3209C20.8205 18.5209 20.5492 18.6333 20.2663 18.6333C19.9834 18.6333 19.712 18.5209 19.512 18.3209C19.312 18.1208 19.1996 17.8495 19.1996 17.5666C19.1996 14.1719 20.5482 10.9161 22.9486 8.51567C25.3491 6.1152 28.6048 4.76663 31.9996 4.76663C35.3944 4.76663 38.6501 6.1152 41.0506 8.51567C43.451 10.9161 44.7996 14.1719 44.7996 17.5666C44.7996 17.8495 44.6872 18.1208 44.4872 18.3209C44.2871 18.5209 44.0158 18.6333 43.7329 18.6333Z" fill="url(#paint6_linear_828_16997)"/>
<defs>
<linearGradient id="paint0_linear_828_16997" x1="7.9935" y1="8.27053" x2="55.6596" y2="55.1705" gradientUnits="userSpaceOnUse">
<stop stop-color="#F94229"/>
<stop offset="1" stop-color="#BB0A55"/>
</linearGradient>
<linearGradient id="paint1_linear_828_16997" x1="7.9935" y1="8.27053" x2="55.6596" y2="55.1705" gradientUnits="userSpaceOnUse">
<stop stop-color="#F94229"/>
<stop offset="1" stop-color="#BB0A55"/>
</linearGradient>
<linearGradient id="paint2_linear_828_16997" x1="7.9935" y1="8.27053" x2="55.6596" y2="55.1705" gradientUnits="userSpaceOnUse">
<stop stop-color="#F94229"/>
<stop offset="1" stop-color="#BB0A55"/>
</linearGradient>
<linearGradient id="paint3_linear_828_16997" x1="7.9935" y1="8.27053" x2="55.6596" y2="55.1705" gradientUnits="userSpaceOnUse">
<stop stop-color="#F94229"/>
<stop offset="1" stop-color="#BB0A55"/>
</linearGradient>
<linearGradient id="paint4_linear_828_16997" x1="7.9935" y1="8.27053" x2="55.6596" y2="55.1705" gradientUnits="userSpaceOnUse">
<stop stop-color="#F94229"/>
<stop offset="1" stop-color="#BB0A55"/>
</linearGradient>
<linearGradient id="paint5_linear_828_16997" x1="7.9935" y1="8.27053" x2="55.6596" y2="55.1705" gradientUnits="userSpaceOnUse">
<stop stop-color="#F94229"/>
<stop offset="1" stop-color="#BB0A55"/>
</linearGradient>
<linearGradient id="paint6_linear_828_16997" x1="7.9935" y1="8.27053" x2="55.6596" y2="55.1705" gradientUnits="userSpaceOnUse">
<stop stop-color="#F94229"/>
<stop offset="1" stop-color="#BB0A55"/>
</linearGradient>
</defs>
</svg>
