<svg width="48" height="48" viewBox="0 0 48 48" fill="none" xmlns="http://www.w3.org/2000/svg">
<g clip-path="url(#clip0_244_12786)">
<path d="M39.5625 9C39.045 9 38.625 9.42 38.625 9.9375C38.625 10.455 39.045 10.875 39.5625 10.875C40.08 10.875 40.5 10.455 40.5 9.9375C40.5 9.42 40.08 9 39.5625 9Z" fill="url(#paint0_linear_244_12786)"/>
<path d="M39.5625 27.75C39.045 27.75 38.625 28.17 38.625 28.6875C38.625 29.205 39.045 29.625 39.5625 29.625C40.08 29.625 40.5 29.205 40.5 28.6875C40.5 28.17 40.08 27.75 39.5625 27.75Z" fill="url(#paint1_linear_244_12786)"/>
<path d="M6.5625 18.375C6.045 18.375 5.625 18.795 5.625 19.3125C5.625 19.83 6.045 20.25 6.5625 20.25C7.08 20.25 7.5 19.83 7.5 19.3125C7.5 18.795 7.08 18.375 6.5625 18.375Z" fill="url(#paint2_linear_244_12786)"/>
<path d="M47.6626 27.9673L42.0376 23.2798C41.8691 23.1394 41.6569 23.0625 41.4375 23.0625H26.8125V15.5625H41.4375C41.6569 15.5625 41.8691 15.4856 42.0376 15.3452L47.6626 10.6577C47.8763 10.4796 48 10.2157 48 9.9375C48 9.65925 47.8764 9.39544 47.6626 9.21731L42.0376 4.52981C41.8691 4.38938 41.6569 4.3125 41.4375 4.3125H26.8125V2.8125C26.8125 2.06156 26.5199 1.35534 25.9884 0.823875C25.4571 0.292594 24.7509 0 24 0C22.4492 0 21.1875 1.26169 21.1875 2.8125V13.6875H6.5625C6.34322 13.6875 6.13088 13.7644 5.96231 13.9048L0.337313 18.5923C0.123563 18.7704 0 19.0343 0 19.3125C0 19.5907 0.123563 19.8546 0.337313 20.0327L5.96231 24.7202C6.13088 24.8606 6.34322 24.9375 6.5625 24.9375H21.1875V40.5H15.9769C14.7637 40.5 13.6912 41.2732 13.3081 42.4236L12.0743 46.125H9C8.48222 46.125 8.0625 46.5447 8.0625 47.0625C8.0625 47.5803 8.48222 48 9 48C9.24009 48 39.5768 48 39.75 48C40.2677 48 40.6875 47.5803 40.6875 47.0625C40.6875 46.5447 40.2677 46.125 39.75 46.125H35.9257L34.692 42.4239C34.3089 41.2732 33.2363 40.5 32.0231 40.5H26.8125V34.3125H41.4375C41.6569 34.3125 41.8691 34.2356 42.0376 34.0952L47.6626 29.4077C47.8763 29.2296 48 28.9657 48 28.6875C48 28.4093 47.8764 28.1454 47.6626 27.9673ZM26.8125 6.1875H41.0981L45.5981 9.9375L41.0981 13.6875H26.8125V6.1875ZM23.0625 2.8125C23.0625 2.29556 23.4831 1.875 24 1.875C24.2501 1.875 24.4855 1.97259 24.6626 2.14978C24.8399 2.32697 24.9375 2.56228 24.9375 2.8125V40.5H23.0625V2.8125ZM6.90197 23.0625L2.40197 19.3125L6.90197 15.5625H21.1875V23.0625H6.90197ZM32.0231 42.375C32.4277 42.375 32.7853 42.6326 32.9131 43.0165L33.9493 46.125H14.0507L15.087 43.0162C15.2147 42.6327 15.5723 42.375 15.9769 42.375H32.0231ZM41.0981 32.4375H26.8125V24.9375H41.0981L45.5981 28.6875L41.0981 32.4375Z" fill="url(#paint3_linear_244_12786)"/>
<path d="M35.8125 9H29.625C29.1073 9 28.6875 9.41972 28.6875 9.9375C28.6875 10.4553 29.1073 10.875 29.625 10.875H35.8125C36.3302 10.875 36.75 10.4553 36.75 9.9375C36.75 9.41972 36.3302 9 35.8125 9Z" fill="url(#paint4_linear_244_12786)"/>
<path d="M35.8125 27.75H29.625C29.1073 27.75 28.6875 28.1697 28.6875 28.6875C28.6875 29.2053 29.1073 29.625 29.625 29.625H35.8125C36.3302 29.625 36.75 29.2053 36.75 28.6875C36.75 28.1697 36.3302 27.75 35.8125 27.75Z" fill="url(#paint5_linear_244_12786)"/>
<path d="M18.375 18.375H10.3125C9.79472 18.375 9.375 18.7947 9.375 19.3125C9.375 19.8303 9.79472 20.25 10.3125 20.25H18.375C18.8928 20.25 19.3125 19.8303 19.3125 19.3125C19.3125 18.7947 18.8928 18.375 18.375 18.375Z" fill="url(#paint6_linear_244_12786)"/>
<path d="M39.5625 9C39.045 9 38.625 9.42 38.625 9.9375C38.625 10.455 39.045 10.875 39.5625 10.875C40.08 10.875 40.5 10.455 40.5 9.9375C40.5 9.42 40.08 9 39.5625 9Z" stroke="url(#paint7_linear_244_12786)"/>
<path d="M39.5625 27.75C39.045 27.75 38.625 28.17 38.625 28.6875C38.625 29.205 39.045 29.625 39.5625 29.625C40.08 29.625 40.5 29.205 40.5 28.6875C40.5 28.17 40.08 27.75 39.5625 27.75Z" stroke="url(#paint8_linear_244_12786)"/>
<path d="M6.5625 18.375C6.045 18.375 5.625 18.795 5.625 19.3125C5.625 19.83 6.045 20.25 6.5625 20.25C7.08 20.25 7.5 19.83 7.5 19.3125C7.5 18.795 7.08 18.375 6.5625 18.375Z" stroke="url(#paint9_linear_244_12786)"/>
<path d="M47.6626 27.9673L42.0376 23.2798C41.8691 23.1394 41.6569 23.0625 41.4375 23.0625H26.8125V15.5625H41.4375C41.6569 15.5625 41.8691 15.4856 42.0376 15.3452L47.6626 10.6577C47.8763 10.4796 48 10.2157 48 9.9375C48 9.65925 47.8764 9.39544 47.6626 9.21731L42.0376 4.52981C41.8691 4.38938 41.6569 4.3125 41.4375 4.3125H26.8125V2.8125C26.8125 2.06156 26.5199 1.35534 25.9884 0.823875C25.4571 0.292594 24.7509 0 24 0C22.4492 0 21.1875 1.26169 21.1875 2.8125V13.6875H6.5625C6.34322 13.6875 6.13088 13.7644 5.96231 13.9048L0.337313 18.5923C0.123563 18.7704 0 19.0343 0 19.3125C0 19.5907 0.123563 19.8546 0.337313 20.0327L5.96231 24.7202C6.13088 24.8606 6.34322 24.9375 6.5625 24.9375H21.1875V40.5H15.9769C14.7637 40.5 13.6912 41.2732 13.3081 42.4236L12.0743 46.125H9C8.48222 46.125 8.0625 46.5447 8.0625 47.0625C8.0625 47.5803 8.48222 48 9 48C9.24009 48 39.5768 48 39.75 48C40.2677 48 40.6875 47.5803 40.6875 47.0625C40.6875 46.5447 40.2677 46.125 39.75 46.125H35.9257L34.692 42.4239C34.3089 41.2732 33.2363 40.5 32.0231 40.5H26.8125V34.3125H41.4375C41.6569 34.3125 41.8691 34.2356 42.0376 34.0952L47.6626 29.4077C47.8763 29.2296 48 28.9657 48 28.6875C48 28.4093 47.8764 28.1454 47.6626 27.9673ZM26.8125 6.1875H41.0981L45.5981 9.9375L41.0981 13.6875H26.8125V6.1875ZM23.0625 2.8125C23.0625 2.29556 23.4831 1.875 24 1.875C24.2501 1.875 24.4855 1.97259 24.6626 2.14978C24.8399 2.32697 24.9375 2.56228 24.9375 2.8125V40.5H23.0625V2.8125ZM6.90197 23.0625L2.40197 19.3125L6.90197 15.5625H21.1875V23.0625H6.90197ZM32.0231 42.375C32.4277 42.375 32.7853 42.6326 32.9131 43.0165L33.9493 46.125H14.0507L15.087 43.0162C15.2147 42.6327 15.5723 42.375 15.9769 42.375H32.0231ZM41.0981 32.4375H26.8125V24.9375H41.0981L45.5981 28.6875L41.0981 32.4375Z" stroke="url(#paint10_linear_244_12786)"/>
<path d="M35.8125 9H29.625C29.1073 9 28.6875 9.41972 28.6875 9.9375C28.6875 10.4553 29.1073 10.875 29.625 10.875H35.8125C36.3302 10.875 36.75 10.4553 36.75 9.9375C36.75 9.41972 36.3302 9 35.8125 9Z" stroke="url(#paint11_linear_244_12786)"/>
<path d="M35.8125 27.75H29.625C29.1073 27.75 28.6875 28.1697 28.6875 28.6875C28.6875 29.2053 29.1073 29.625 29.625 29.625H35.8125C36.3302 29.625 36.75 29.2053 36.75 28.6875C36.75 28.1697 36.3302 27.75 35.8125 27.75Z" stroke="url(#paint12_linear_244_12786)"/>
<path d="M18.375 18.375H10.3125C9.79472 18.375 9.375 18.7947 9.375 19.3125C9.375 19.8303 9.79472 20.25 10.3125 20.25H18.375C18.8928 20.25 19.3125 19.8303 19.3125 19.3125C19.3125 18.7947 18.8928 18.375 18.375 18.375Z" stroke="url(#paint13_linear_244_12786)"/>
</g>
<defs>
<linearGradient id="paint0_linear_244_12786" x1="-2.38692" y1="48.6154" x2="56.482" y2="-20.957" gradientUnits="userSpaceOnUse">
<stop stop-color="#C01E6C"/>
<stop offset="1" stop-color="#FF9A3C"/>
</linearGradient>
<linearGradient id="paint1_linear_244_12786" x1="-2.38692" y1="48.6154" x2="56.482" y2="-20.957" gradientUnits="userSpaceOnUse">
<stop stop-color="#C01E6C"/>
<stop offset="1" stop-color="#FF9A3C"/>
</linearGradient>
<linearGradient id="paint2_linear_244_12786" x1="-2.38692" y1="48.6154" x2="56.482" y2="-20.957" gradientUnits="userSpaceOnUse">
<stop stop-color="#C01E6C"/>
<stop offset="1" stop-color="#FF9A3C"/>
</linearGradient>
<linearGradient id="paint3_linear_244_12786" x1="-2.38692" y1="48.6154" x2="56.482" y2="-20.957" gradientUnits="userSpaceOnUse">
<stop stop-color="#C01E6C"/>
<stop offset="1" stop-color="#FF9A3C"/>
</linearGradient>
<linearGradient id="paint4_linear_244_12786" x1="-2.38692" y1="48.6154" x2="56.482" y2="-20.957" gradientUnits="userSpaceOnUse">
<stop stop-color="#C01E6C"/>
<stop offset="1" stop-color="#FF9A3C"/>
</linearGradient>
<linearGradient id="paint5_linear_244_12786" x1="-2.38692" y1="48.6154" x2="56.482" y2="-20.957" gradientUnits="userSpaceOnUse">
<stop stop-color="#C01E6C"/>
<stop offset="1" stop-color="#FF9A3C"/>
</linearGradient>
<linearGradient id="paint6_linear_244_12786" x1="-2.38692" y1="48.6154" x2="56.482" y2="-20.957" gradientUnits="userSpaceOnUse">
<stop stop-color="#C01E6C"/>
<stop offset="1" stop-color="#FF9A3C"/>
</linearGradient>
<linearGradient id="paint7_linear_244_12786" x1="-2.38692" y1="48.6154" x2="56.482" y2="-20.957" gradientUnits="userSpaceOnUse">
<stop stop-color="#C01E6C"/>
<stop offset="1" stop-color="#FF9A3C"/>
</linearGradient>
<linearGradient id="paint8_linear_244_12786" x1="-2.38692" y1="48.6154" x2="56.482" y2="-20.957" gradientUnits="userSpaceOnUse">
<stop stop-color="#C01E6C"/>
<stop offset="1" stop-color="#FF9A3C"/>
</linearGradient>
<linearGradient id="paint9_linear_244_12786" x1="-2.38692" y1="48.6154" x2="56.482" y2="-20.957" gradientUnits="userSpaceOnUse">
<stop stop-color="#C01E6C"/>
<stop offset="1" stop-color="#FF9A3C"/>
</linearGradient>
<linearGradient id="paint10_linear_244_12786" x1="-2.38692" y1="48.6154" x2="56.482" y2="-20.957" gradientUnits="userSpaceOnUse">
<stop stop-color="#C01E6C"/>
<stop offset="1" stop-color="#FF9A3C"/>
</linearGradient>
<linearGradient id="paint11_linear_244_12786" x1="-2.38692" y1="48.6154" x2="56.482" y2="-20.957" gradientUnits="userSpaceOnUse">
<stop stop-color="#C01E6C"/>
<stop offset="1" stop-color="#FF9A3C"/>
</linearGradient>
<linearGradient id="paint12_linear_244_12786" x1="-2.38692" y1="48.6154" x2="56.482" y2="-20.957" gradientUnits="userSpaceOnUse">
<stop stop-color="#C01E6C"/>
<stop offset="1" stop-color="#FF9A3C"/>
</linearGradient>
<linearGradient id="paint13_linear_244_12786" x1="-2.38692" y1="48.6154" x2="56.482" y2="-20.957" gradientUnits="userSpaceOnUse">
<stop stop-color="#C01E6C"/>
<stop offset="1" stop-color="#FF9A3C"/>
</linearGradient>
<clipPath id="clip0_244_12786">
<rect width="48" height="48" fill="white"/>
</clipPath>
</defs>
</svg>
