<svg width="54" height="54" viewBox="0 0 54 54" fill="none" xmlns="http://www.w3.org/2000/svg">
<path d="M25.1416 0.299805H46.4736C48.2125 0.299897 49.8798 0.991162 51.1094 2.2207C52.3389 3.45026 53.0302 5.11761 53.0303 6.85645V51.0439C53.0303 51.5706 52.8206 52.0759 52.4482 52.4482C52.0759 52.8206 51.5706 53.0303 51.0439 53.0303H2.28516C1.1894 53.03 0.299805 52.1398 0.299805 51.0439V20.5703C0.299805 18.8314 0.991081 17.1632 2.2207 15.9336C3.45024 14.7042 5.11772 14.0137 6.85645 14.0137H18.585V6.85645C18.585 5.11769 19.2754 3.45024 20.5049 2.2207C21.7345 0.991081 23.4027 0.299805 25.1416 0.299805ZM6.85645 17.9844C6.17081 17.9844 5.51315 18.2574 5.02832 18.7422C4.54357 19.2271 4.27148 19.8847 4.27148 20.5703V49.0586H18.585V41.6025H13.7314C13.205 41.6025 12.7004 41.3927 12.3281 41.0205C11.9558 40.6481 11.7461 40.1428 11.7461 39.6162C11.7462 39.0897 11.9558 38.5852 12.3281 38.2129C12.7004 37.8406 13.205 37.6309 13.7314 37.6309H18.585V29.4121H13.7314C13.2051 29.412 12.7004 29.2032 12.3281 28.8311C11.9558 28.4587 11.7461 27.9534 11.7461 27.4268C11.7461 26.9002 11.9558 26.3948 12.3281 26.0225C12.7004 25.6504 13.2051 25.4415 13.7314 25.4414H18.585V17.9844H6.85645ZM25.1416 4.27148C24.456 4.27148 23.7983 4.54361 23.3135 5.02832C22.8286 5.51315 22.5557 6.17081 22.5557 6.85645V49.0586H49.0586V6.85645C49.0585 6.17082 48.7866 5.51314 48.3018 5.02832C47.817 4.54351 47.1592 4.27158 46.4736 4.27148H25.1416ZM31.2363 32.8066H40.3789C40.9053 32.8068 41.41 33.0164 41.7822 33.3887C42.1546 33.761 42.3643 34.2664 42.3643 34.793C42.3641 35.3194 42.1545 35.824 41.7822 36.1963C41.41 36.5685 40.9053 36.7782 40.3789 36.7783H31.2363C30.7097 36.7783 30.2044 36.5687 29.832 36.1963C29.4599 35.824 29.2511 35.3193 29.251 34.793C29.251 34.2664 29.4598 33.761 29.832 33.3887C30.2044 33.0163 30.7097 32.8066 31.2363 32.8066ZM31.2363 16.5518H40.3789C40.9053 16.5519 41.41 16.7615 41.7822 17.1338C42.1545 17.5061 42.3642 18.0107 42.3643 18.5371C42.3643 19.0637 42.1546 19.569 41.7822 19.9414C41.41 20.3136 40.9053 20.5233 40.3789 20.5234H31.2363C30.7097 20.5234 30.2044 20.3138 29.832 19.9414C29.4597 19.569 29.251 19.0637 29.251 18.5371C29.2511 18.0107 29.4599 17.506 29.832 17.1338C30.2044 16.7614 30.7097 16.5518 31.2363 16.5518Z" fill="url(#paint0_linear_696_6815)" stroke="white" stroke-width="0.6"/>
<defs>
<linearGradient id="paint0_linear_696_6815" x1="0" y1="0" x2="61.7141" y2="12.7509" gradientUnits="userSpaceOnUse">
<stop stop-color="#511F5E"/>
<stop offset="1" stop-color="#C01E6C"/>
</linearGradient>
</defs>
</svg>
