<svg width="64" height="54" viewBox="0 0 64 54" fill="none" xmlns="http://www.w3.org/2000/svg">
<path d="M46.502 26.8945L31.999 34.8115L17.4971 26.8945L16.5361 26.3691V38.9023L16.875 39.0869L31.6895 47.1455L32 47.3145L32.3105 47.1455L47.124 39.0869L47.4639 38.9023V26.3691L46.502 26.8945ZM11.4824 17.2061L10.4365 17.7764L11.4824 18.3477L32 29.5391L32.3105 29.3691L52.5176 18.3477L53.5635 17.7764L52.5176 17.2061L32.3105 6.18457L32 6.01465L11.4824 17.2061ZM11.9102 23.8496L11.5713 23.665L0.766602 17.7764L31.999 0.739258L63.9404 18.1621V40.8291H59.3145V19.9111L58.3535 20.4355L52.4277 23.665L52.0889 23.8496V41.626L31.999 52.5889L11.9102 41.626V23.8496Z" fill="black"/>
<path d="M46.502 26.8945L31.999 34.8115L17.4971 26.8945L16.5361 26.3691V38.9023L16.875 39.0869L31.6895 47.1455L32 47.3145L32.3105 47.1455L47.124 39.0869L47.4639 38.9023V26.3691L46.502 26.8945ZM11.4824 17.2061L10.4365 17.7764L11.4824 18.3477L32 29.5391L32.3105 29.3691L52.5176 18.3477L53.5635 17.7764L52.5176 17.2061L32.3105 6.18457L32 6.01465L11.4824 17.2061ZM11.9102 23.8496L11.5713 23.665L0.766602 17.7764L31.999 0.739258L63.9404 18.1621V40.8291H59.3145V19.9111L58.3535 20.4355L52.4277 23.665L52.0889 23.8496V41.626L31.999 52.5889L11.9102 41.626V23.8496Z" fill="url(#paint0_linear_696_6794)"/>
<path d="M46.502 26.8945L31.999 34.8115L17.4971 26.8945L16.5361 26.3691V38.9023L16.875 39.0869L31.6895 47.1455L32 47.3145L32.3105 47.1455L47.124 39.0869L47.4639 38.9023V26.3691L46.502 26.8945ZM11.4824 17.2061L10.4365 17.7764L11.4824 18.3477L32 29.5391L32.3105 29.3691L52.5176 18.3477L53.5635 17.7764L52.5176 17.2061L32.3105 6.18457L32 6.01465L11.4824 17.2061ZM11.9102 23.8496L11.5713 23.665L0.766602 17.7764L31.999 0.739258L63.9404 18.1621V40.8291H59.3145V19.9111L58.3535 20.4355L52.4277 23.665L52.0889 23.8496V41.626L31.999 52.5889L11.9102 41.626V23.8496Z" stroke="white" stroke-width="1.3"/>
<defs>
<linearGradient id="paint0_linear_696_6794" x1="-0.59082" y1="0" x2="73.3428" y2="18.6701" gradientUnits="userSpaceOnUse">
<stop stop-color="#511F5E"/>
<stop offset="1" stop-color="#C01E6C"/>
</linearGradient>
</defs>
</svg>
