<svg width="36" height="54" viewBox="0 0 36 54" fill="none" xmlns="http://www.w3.org/2000/svg">
<path d="M21.9225 3.33792L18.1566 23.124L31.7993 23.1699L13.229 49.9929L16.995 28.225L3.35314 28.1775L21.9225 3.33792ZM21.925 0.00010431C21.8349 0.00010431 21.7448 0.00339002 21.6564 0.0100136C21.0672 0.0576303 20.6767 0.254564 20.2136 0.56582C19.9528 0.739668 19.7177 0.949211 19.5151 1.18833C19.4543 1.26011 19.3969 1.33474 19.3432 1.41197L0.64029 26.1647C-0.0982122 27.1769 -0.206693 28.513 0.360744 29.6295C0.927347 30.746 2.07307 31.4536 3.32894 31.4628L12.9637 31.5329L9.93458 49.3796C9.64668 50.9134 10.4645 52.4421 11.9039 53.058C12.3222 53.2377 12.7728 53.3303 13.2282 53.33C14.2771 53.33 15.1391 52.8393 15.7859 51.9531L34.5121 25.13C35.2506 24.1177 35.3583 22.7801 34.7916 21.6652C34.225 20.5487 33.0793 19.8411 31.8235 19.8319L22.1887 19.8152L25.1853 4.1231C25.2488 3.86619 25.2807 3.6025 25.2805 3.33786C25.2805 1.53208 23.8426 0.0600816 22.0435 0.00166893C22.0035 1.94289e-10 21.9642 0 21.9251 0L21.925 0.00010431Z" fill="url(#paint0_linear_696_6798)"/>
<defs>
<linearGradient id="paint0_linear_696_6798" x1="0" y1="0" x2="41.6426" y2="5.67115" gradientUnits="userSpaceOnUse">
<stop stop-color="#511F5E"/>
<stop offset="1" stop-color="#C01E6C"/>
</linearGradient>
</defs>
</svg>
