<svg width="48" height="48" viewBox="0 0 48 48" fill="none" xmlns="http://www.w3.org/2000/svg">
<path d="M24.0001 21.8255C26.0982 21.8255 27.799 20.1247 27.799 18.0265V16.5901C27.799 14.492 26.0982 12.7911 24.0001 12.7911C21.9019 12.7911 20.2011 14.492 20.2011 16.5901V18.0265C20.2011 20.1247 21.9019 21.8255 24.0001 21.8255ZM24.0001 21.8255L24.0001 27.0064M15.5609 27.5683V26.5076C15.5609 23.9218 17.6571 21.8256 20.2429 21.8256H27.7572C30.343 21.8256 32.4392 23.9218 32.4392 26.5076V27.5683M29.2775 35.8663L34.9095 45.6213L38.7412 41.3685L44.34 40.1766L38.1835 29.5132M9.81668 29.5132L3.66016 40.1766L9.25898 41.3685L13.0907 45.6213L18.7227 35.8663M35.9993 19.0382C35.9993 25.6652 30.6271 31.0375 24.0001 31.0375C17.373 31.0375 12.0008 25.6652 12.0008 19.0382C12.0008 12.4112 17.373 7.03891 24.0001 7.03891C30.6271 7.03891 35.9993 12.4112 35.9993 19.0382ZM41.632 19.0382C41.632 28.776 33.7379 36.6701 24.0001 36.6701C14.2622 36.6701 6.36812 28.776 6.36812 19.0382C6.36812 9.30034 14.2622 1.40625 24.0001 1.40625C33.7379 1.40625 41.632 9.30034 41.632 19.0382Z" stroke="url(#paint0_linear_817_5726)" stroke-width="2.8124" stroke-miterlimit="10"/>
<defs>
<linearGradient id="paint0_linear_817_5726" x1="1.63724" y1="46.1881" x2="56.4304" y2="-13.3901" gradientUnits="userSpaceOnUse">
<stop stop-color="#C01E6C"/>
<stop offset="1" stop-color="#FF9A3C"/>
</linearGradient>
</defs>
</svg>
