<svg width="24" height="24" viewBox="0 0 24 24" fill="none" xmlns="http://www.w3.org/2000/svg">
<g clip-path="url(#clip0_815_6930)">
<path d="M23.3082 9.00771C23.2359 9.02507 23.1735 9.07031 23.1345 9.13354C23.0955 9.19678 23.0831 9.27287 23.1 9.34521C23.305 10.2153 23.4089 11.1062 23.4094 12.0002C23.4058 15.0251 22.2026 17.925 20.0637 20.0639C17.9248 22.2027 15.0249 23.406 12 23.4096C9.51566 23.4183 7.09795 22.6062 5.12255 21.0996C5.38778 20.7041 5.49375 20.223 5.41923 19.7527C5.34471 19.2824 5.0952 18.8576 4.7207 18.5635C4.3462 18.2694 3.87439 18.1276 3.39981 18.1667C2.92523 18.2058 2.48296 18.4228 2.16162 18.7742C1.84028 19.1256 1.66362 19.5855 1.66704 20.0617C1.67046 20.5379 1.85372 20.9951 2.18007 21.3419C2.50643 21.6887 2.95178 21.8993 3.42687 21.9315C3.90196 21.9638 4.37169 21.8153 4.74192 21.5158C6.82184 23.1171 9.37518 23.9811 12 23.9721C13.8083 23.9701 15.5928 23.559 17.2196 22.7695C18.8465 21.98 20.2736 20.8327 21.394 19.4133C22.5145 17.994 23.2992 16.3395 23.6895 14.5738C24.0798 12.8082 24.0654 10.9771 23.6475 9.21771C23.6392 9.18157 23.6237 9.14745 23.6021 9.11731C23.5805 9.08717 23.5531 9.0616 23.5216 9.04208C23.49 9.02257 23.4549 9.00948 23.4183 9.00358C23.3817 8.99768 23.3442 8.99908 23.3082 9.00771Z" fill="#C01E6C"/>
<path d="M0.590832 12.0032C0.590954 9.9737 1.13237 7.98099 2.15926 6.23048C3.18614 4.47998 4.66133 3.03505 6.43274 2.04465C8.20414 1.05425 10.2076 0.554243 12.2367 0.596169C14.2657 0.638096 16.2469 1.22044 17.9758 2.28317C17.7974 2.66497 17.7688 3.09987 17.8958 3.50173C18.0228 3.90359 18.2961 4.2431 18.6615 4.45301C19.027 4.66293 19.4579 4.72795 19.8691 4.63518C20.2802 4.54242 20.6414 4.29863 20.8813 3.95212C21.1212 3.60561 21.2222 3.18164 21.1644 2.76419C21.1065 2.34674 20.8939 1.96624 20.5688 1.69807C20.2437 1.42991 19.8297 1.29362 19.4089 1.31621C18.988 1.3388 18.591 1.51861 18.2965 1.82004C16.4829 0.698923 14.4028 0.0824391 12.2713 0.0343024C10.1397 -0.0138342 8.03392 0.508123 6.1716 1.54623C4.30927 2.58434 2.75794 4.10094 1.67795 5.93929C0.597947 7.77764 0.0284575 9.87105 0.0283316 12.0032C0.0273233 12.734 0.0938562 13.4633 0.227082 14.1819C0.238517 14.2467 0.272432 14.3053 0.322852 14.3475C0.373273 14.3897 0.436964 14.4127 0.502707 14.4125C0.519737 14.4125 0.536713 14.4106 0.553332 14.4069C0.626648 14.3937 0.691714 14.3519 0.73425 14.2907C0.776785 14.2296 0.793313 14.154 0.780207 14.0807C0.653816 13.3954 0.590426 12.7 0.590832 12.0032Z" fill="#C01E6C"/>
<path d="M10.3125 10.1475V10.3163H13.6875V10.1475C13.6613 7.8675 10.3388 7.8675 10.3125 10.1475Z" fill="#C01E6C"/>
<path d="M19.8654 6.16076C16.7004 6.19264 13.6554 4.23701 12.491 3.39326C12.348 3.28997 12.1761 3.23437 11.9998 3.23438C11.8234 3.23437 11.6515 3.28997 11.5085 3.39326C10.3441 4.23701 7.29164 6.18514 4.13414 6.16076C4.022 6.15965 3.91076 6.18073 3.8068 6.22278C3.70284 6.26484 3.60823 6.32705 3.52841 6.40582C3.4486 6.48459 3.38515 6.57837 3.34172 6.68177C3.2983 6.78516 3.27576 6.89612 3.27539 7.00826C3.27727 11.3376 4.14352 17.5308 11.6191 21.3145C11.737 21.3746 11.8675 21.4059 11.9998 21.4059C12.1321 21.4059 12.2625 21.3746 12.3804 21.3145C19.856 17.5308 20.7223 11.3376 20.7241 7.00826C20.7225 6.78206 20.6311 6.56577 20.4701 6.40687C20.3091 6.24798 20.0916 6.15946 19.8654 6.16076ZM15.0935 14.722C15.0935 15.095 14.9454 15.4527 14.6816 15.7164C14.4179 15.9801 14.0602 16.1283 13.6873 16.1283H10.3123C9.9393 16.1283 9.58162 15.9801 9.3179 15.7164C9.05417 15.4527 8.90602 15.095 8.90602 14.722V11.722C8.90616 11.4485 8.98605 11.181 9.13591 10.9522C9.28577 10.7234 9.4991 10.5433 9.74977 10.4339V10.1433C9.78352 7.13389 14.216 7.13389 14.2498 10.1433V10.4339C14.5004 10.5433 14.7138 10.7234 14.8636 10.9522C15.0135 11.181 15.0934 11.4485 15.0935 11.722V14.722Z" fill="#C01E6C"/>
<path d="M12.4607 12.8974C12.4566 12.8723 12.4577 12.8465 12.4642 12.8218C12.4707 12.7971 12.4823 12.7741 12.4982 12.7542C12.561 12.6634 12.5978 12.5571 12.6045 12.4469C12.6113 12.3367 12.5877 12.2267 12.5365 12.1289C12.4852 12.0311 12.4081 11.9492 12.3136 11.892C12.2192 11.8349 12.1108 11.8047 12.0004 11.8047C11.89 11.8047 11.7817 11.8349 11.6872 11.892C11.5927 11.9492 11.5156 12.0311 11.4644 12.1289C11.4131 12.2267 11.3896 12.3367 11.3963 12.4469C11.403 12.5571 11.4398 12.6634 11.5026 12.7542C11.5185 12.7739 11.5301 12.7967 11.5365 12.8212C11.543 12.8456 11.5442 12.8712 11.5401 12.8961C11.496 13.1157 11.3714 13.7434 11.2834 14.1792C11.2727 14.2335 11.2742 14.2896 11.2878 14.3433C11.3013 14.397 11.3266 14.447 11.3618 14.4898C11.397 14.5326 11.4412 14.567 11.4913 14.5907C11.5414 14.6143 11.5961 14.6266 11.6515 14.6266H12.349C12.4045 14.6266 12.4593 14.6143 12.5094 14.5906C12.5596 14.5669 12.6039 14.5323 12.6391 14.4894C12.6743 14.4465 12.6995 14.3963 12.7129 14.3425C12.7264 14.2886 12.7277 14.2325 12.7169 14.1781L12.4607 12.8974Z" fill="#C01E6C"/>
</g>
<defs>
<clipPath id="clip0_815_6930">
<rect width="24" height="24" fill="white"/>
</clipPath>
</defs>
</svg>
