<svg width="64" height="64" viewBox="0 0 64 64" fill="none" xmlns="http://www.w3.org/2000/svg">
<path d="M48.001 60.6654H16.001C13.3499 60.6618 10.8084 59.6071 8.9338 57.7325C7.05921 55.8579 6.0045 53.3164 6.00098 50.6654V13.332C6.0045 10.6809 7.05921 8.13946 8.9338 6.26486C10.8084 4.39026 13.3499 3.33556 16.001 3.33203H48.001C50.6521 3.33556 53.1935 4.39026 55.0681 6.26486C56.9427 8.13946 57.9974 10.6809 58.001 13.332V50.6654C57.9974 53.3164 56.9427 55.8579 55.0681 57.7325C53.1935 59.6071 50.6521 60.6618 48.001 60.6654ZM16.001 7.33203C14.4103 7.33415 12.8854 7.96697 11.7607 9.09173C10.6359 10.2165 10.0031 11.7414 10.001 13.332V50.6654C10.0031 52.256 10.6359 53.7809 11.7607 54.9057C12.8854 56.0304 14.4103 56.6632 16.001 56.6654H48.001C49.5916 56.6632 51.1165 56.0304 52.2413 54.9057C53.366 53.7809 53.9989 52.256 54.001 50.6654V13.332C53.9989 11.7414 53.366 10.2165 52.2413 9.09173C51.1165 7.96697 49.5916 7.33415 48.001 7.33203H16.001Z" fill="url(#paint0_linear_244_12849)"/>
<path d="M45.3343 37.9988H18.6677C18.1372 37.9988 17.6285 37.7881 17.2534 37.413C16.8784 37.0379 16.6677 36.5292 16.6677 35.9988C16.6677 35.4683 16.8784 34.9596 17.2534 34.5846C17.6285 34.2095 18.1372 33.9988 18.6677 33.9988H45.3343C45.8648 33.9988 46.3735 34.2095 46.7485 34.5846C47.1236 34.9596 47.3343 35.4683 47.3343 35.9988C47.3343 36.5292 47.1236 37.0379 46.7485 37.413C46.3735 37.7881 45.8648 37.9988 45.3343 37.9988Z" fill="url(#paint1_linear_244_12849)"/>
<path d="M45.3343 28.6653H18.6677C18.1372 28.6653 17.6285 28.4546 17.2534 28.0795C16.8784 27.7044 16.6677 27.1957 16.6677 26.6653C16.6677 26.1348 16.8784 25.6261 17.2534 25.2511C17.6285 24.876 18.1372 24.6653 18.6677 24.6653H45.3343C45.8648 24.6653 46.3735 24.876 46.7485 25.2511C47.1236 25.6261 47.3343 26.1348 47.3343 26.6653C47.3343 27.1957 47.1236 27.7044 46.7485 28.0795C46.3735 28.4546 45.8648 28.6653 45.3343 28.6653Z" fill="url(#paint2_linear_244_12849)"/>
<path d="M34.6677 19.332H18.6677C18.1372 19.332 17.6285 19.1213 17.2534 18.7462C16.8784 18.3712 16.6677 17.8625 16.6677 17.332C16.6677 16.8016 16.8784 16.2929 17.2534 15.9178C17.6285 15.5427 18.1372 15.332 18.6677 15.332H34.6677C35.1981 15.332 35.7068 15.5427 36.0819 15.9178C36.4569 16.2929 36.6677 16.8016 36.6677 17.332C36.6677 17.8625 36.4569 18.3712 36.0819 18.7462C35.7068 19.1213 35.1981 19.332 34.6677 19.332Z" fill="url(#paint3_linear_244_12849)"/>
<path d="M38.2223 52.6652C37.9596 52.6654 37.6996 52.6136 37.457 52.513C37.2144 52.4123 36.9942 52.2646 36.8089 52.0785L33.2543 48.5318C33.0631 48.3474 32.9107 48.1268 32.8057 47.8828C32.7008 47.6389 32.6455 47.3765 32.6431 47.1109C32.6407 46.8454 32.6911 46.582 32.7916 46.3361C32.892 46.0903 33.0404 45.8669 33.2281 45.6791C33.4158 45.4912 33.6391 45.3426 33.8848 45.2419C34.1305 45.1412 34.3939 45.0905 34.6594 45.0927C34.925 45.0948 35.1875 45.1499 35.4315 45.2546C35.6756 45.3593 35.8963 45.5116 36.0809 45.7025L38.2143 47.8358L43.9209 42.1318C44.2983 41.7677 44.8036 41.5663 45.328 41.5711C45.8524 41.5759 46.3539 41.7865 46.7246 42.1575C47.0952 42.5285 47.3053 43.0302 47.3096 43.5546C47.3139 44.079 47.1121 44.5841 46.7476 44.9612L39.6356 52.0785C39.4503 52.2646 39.2301 52.4123 38.9875 52.513C38.7449 52.6136 38.4849 52.6654 38.2223 52.6652Z" fill="url(#paint4_linear_244_12849)"/>
<defs>
<linearGradient id="paint0_linear_244_12849" x1="7.11816" y1="58.7543" x2="68.5261" y2="38.3455" gradientUnits="userSpaceOnUse">
<stop stop-color="#6549F6"/>
<stop offset="0.79" stop-color="#FF611D"/>
</linearGradient>
<linearGradient id="paint1_linear_244_12849" x1="7.11816" y1="58.7543" x2="68.5261" y2="38.3455" gradientUnits="userSpaceOnUse">
<stop stop-color="#6549F6"/>
<stop offset="0.79" stop-color="#FF611D"/>
</linearGradient>
<linearGradient id="paint2_linear_244_12849" x1="7.11816" y1="58.7543" x2="68.5261" y2="38.3455" gradientUnits="userSpaceOnUse">
<stop stop-color="#6549F6"/>
<stop offset="0.79" stop-color="#FF611D"/>
</linearGradient>
<linearGradient id="paint3_linear_244_12849" x1="7.11816" y1="58.7543" x2="68.5261" y2="38.3455" gradientUnits="userSpaceOnUse">
<stop stop-color="#6549F6"/>
<stop offset="0.79" stop-color="#FF611D"/>
</linearGradient>
<linearGradient id="paint4_linear_244_12849" x1="7.11816" y1="58.7543" x2="68.5261" y2="38.3455" gradientUnits="userSpaceOnUse">
<stop stop-color="#6549F6"/>
<stop offset="0.79" stop-color="#FF611D"/>
</linearGradient>
</defs>
</svg>
