<svg width="55" height="58" viewBox="0 0 55 58" fill="none" xmlns="http://www.w3.org/2000/svg">
<path d="M2 2V22.1789C2 24.4725 2.91114 26.6722 4.53297 28.2941C6.15481 29.9159 8.35449 30.827 10.6481 30.827H13.5308M13.5308 30.827H16.4135C18.7071 30.827 20.9068 29.9159 22.5286 28.2941C24.1505 26.6722 25.0616 24.4725 25.0616 22.1789V2M13.5308 30.827V2M13.5308 30.827V55.33M52.4473 55.33V36.5924M52.4473 36.5924V3.54513C52.4473 3.13534 52.2845 2.74233 51.9947 2.45256C51.705 2.16279 51.312 2 50.9022 2C47.4893 2 44.2161 3.35577 41.8028 5.76906C39.3896 8.18235 38.0338 11.4555 38.0338 14.8684V30.827C38.0338 32.3561 38.6412 33.8226 39.7224 34.9038C40.8037 35.985 42.2701 36.5924 43.7992 36.5924H52.4473Z" stroke="url(#paint0_linear_696_6800)" stroke-width="4" stroke-linecap="round" stroke-linejoin="round"/>
<defs>
<linearGradient id="paint0_linear_696_6800" x1="2" y1="2" x2="60.6307" y2="13.459" gradientUnits="userSpaceOnUse">
<stop stop-color="#511F5E"/>
<stop offset="1" stop-color="#C01E6C"/>
</linearGradient>
</defs>
</svg>
