<svg xmlns="http://www.w3.org/2000/svg" width="218" height="430" fill="none"><g clip-path="url(#a)"><path fill="url(#b)" d="m56.269 313.295 52.772 30.277.111 19.218-52.863-30.228z"/><path fill="url(#c)" d="m108.935 282.831-52.666 30.465 52.772 30.276 52.671-30.464z"/><path fill="url(#d)" d="m161.711 313.108-52.67 30.465.111 19.218 52.58-30.412z"/><path fill="url(#e)" d="m56.269 296.511 52.772 30.277.111 14.015-52.863-30.227z"/><path fill="url(#f)" d="m108.935 266.051-52.666 30.46 52.772 30.277 52.671-30.46z"/><path fill="url(#g)" d="m161.711 296.328-52.67 30.46.111 14.015 52.58-30.411z"/><path fill="url(#h)" d="m161.712 271.707-52.777-30.277-52.666 30.461.02 19.271 52.863 30.228 52.58-30.412z"/><path fill="url(#i)" d="m56.269 271.891 52.772 30.28.111 19.218-52.863-30.227z"/><path fill="url(#j)" d="m108.935 241.43-52.666 30.461 52.772 30.281 52.671-30.465z"/><path fill="url(#k)" d="m161.711 271.707-52.67 30.465.111 19.218 52.58-30.412z"/><path fill="url(#l)" d="m112.536 347.292 52.773 30.277.106 19.222-52.858-30.232z"/><path fill="url(#m)" d="m165.202 316.832-52.666 30.461 52.773 30.276 52.67-30.46z"/><path fill="url(#n)" d="m217.979 347.109-52.67 30.46.106 19.223 52.584-30.416z"/><path fill="url(#o)" d="m112.536 330.512 52.773 30.277.106 14.015-52.858-30.227z"/><path fill="url(#p)" d="m165.202 300.052-52.666 30.46 52.773 30.277 52.67-30.46z"/><path fill="url(#q)" d="m217.979 330.329-52.67 30.46.106 14.015 52.584-30.411z"/><path fill="url(#r)" d="m217.979 305.708-52.777-30.277-52.666 30.461.021 19.267 52.858 30.227L218 324.975z"/><path fill="url(#s)" d="m112.536 305.892 52.773 30.276.106 19.218-52.858-30.227z"/><path fill="url(#t)" d="m165.202 275.431-52.666 30.461 52.773 30.276 52.67-30.46z"/><path fill="url(#u)" d="m217.979 305.708-52.67 30.461.106 19.218 52.584-30.412z"/><path fill="url(#v)" d="m0 346.504 52.777 30.277.106 19.218L.02 365.771z"/><path fill="url(#w)" d="M52.67 316.04 0 346.505l52.777 30.276 52.666-30.46z"/><path fill="url(#x)" d="m105.443 346.321-52.667 30.46.107 19.218 52.58-30.411z"/><path fill="url(#y)" d="m0 329.72 52.777 30.277.106 14.015L.02 343.785z"/><path fill="url(#z)" d="M52.67 299.26 0 329.72l52.777 30.277 52.666-30.46z"/><path fill="url(#A)" d="m105.443 329.537-52.667 30.46.107 14.015 52.58-30.411z"/><path fill="url(#B)" d="M105.443 304.916 52.67 274.639 0 305.1l.02 19.271 52.863 30.228 52.581-30.412z"/><path fill="url(#C)" d="m0 305.1 52.777 30.28.106 19.218L.02 324.371z"/><path fill="url(#D)" d="M52.67 274.639 0 305.1l52.777 30.281 52.666-30.465z"/><path fill="url(#E)" d="m105.443 304.916-52.667 30.465.107 19.218 52.58-30.412z"/><path fill="url(#F)" d="m56.269 380.501 52.772 30.277.111 19.222-52.863-30.232z"/><path fill="url(#G)" d="m108.935 350.041-52.666 30.461 52.772 30.276 52.671-30.46z"/><path fill="url(#H)" d="m161.711 380.318-52.67 30.46.111 19.222 52.58-30.415z"/><path fill="url(#I)" d="m56.269 363.721 52.772 30.277.111 14.015-52.863-30.227z"/><path fill="url(#J)" d="m108.935 333.261-52.666 30.46 52.772 30.277 52.671-30.461z"/><path fill="url(#K)" d="m161.711 363.538-52.67 30.46.111 14.015 52.58-30.411z"/><path fill="url(#L)" d="m161.712 338.917-52.777-30.277-52.666 30.461.02 19.267 52.863 30.227 52.58-30.411z"/><path fill="url(#M)" d="m56.269 339.101 52.772 30.276.111 19.218-52.863-30.227z"/><path fill="url(#N)" d="m108.935 308.64-52.666 30.461 52.772 30.276 52.671-30.46z"/><path fill="url(#O)" d="m161.711 338.917-52.67 30.461.111 19.218 52.58-30.412z"/><path fill="url(#P)" d="m56.269 246.085 52.772 30.277.111 19.218-52.863-30.228z"/><path fill="url(#Q)" d="m108.935 215.625-52.666 30.461 52.772 30.276 52.671-30.46z"/><path fill="url(#R)" d="m161.711 245.902-52.67 30.46.111 19.218 52.58-30.411z"/><path fill="url(#S)" d="m56.269 229.301 52.772 30.277.111 14.019-52.863-30.227z"/><path fill="url(#T)" d="m108.935 198.841-52.666 30.46 52.772 30.277 52.671-30.46z"/><path fill="url(#U)" d="m161.711 229.118-52.67 30.46.111 14.02 52.58-30.412z"/><path fill="url(#V)" d="m161.712 204.501-52.777-30.277-52.666 30.461.02 19.267 52.863 30.227 52.58-30.411z"/><path fill="url(#W)" d="m56.269 204.685 52.772 30.276.111 19.218-52.863-30.227z"/><path fill="url(#X)" d="m108.935 174.224-52.666 30.461 52.772 30.276 52.671-30.46z"/><path fill="url(#Y)" d="m161.711 204.501-52.67 30.46.111 19.219 52.58-30.412z"/><path fill="url(#Z)" d="m112.536 280.086 52.773 30.277.106 19.218-52.858-30.228z"/><path fill="url(#aa)" d="m165.202 249.622-52.666 30.465 52.773 30.276 52.67-30.464z"/><path fill="url(#ab)" d="m217.979 279.899-52.67 30.465.106 19.218 52.584-30.412z"/><path fill="url(#ac)" d="m112.536 263.302 52.773 30.277.106 14.015-52.858-30.227z"/><path fill="url(#ad)" d="m165.202 232.842-52.666 30.46 52.773 30.277 52.67-30.46z"/><path fill="url(#ae)" d="m217.979 263.119-52.67 30.46.106 14.016 52.584-30.412z"/><path fill="url(#af)" d="m217.979 238.498-52.777-30.277-52.666 30.461.021 19.271 52.858 30.228L218 257.769z"/><path fill="url(#ag)" d="m112.536 238.682 52.773 30.276.106 19.222-52.858-30.227z"/><path fill="url(#ah)" d="m165.202 208.221-52.666 30.461 52.773 30.276 52.67-30.46z"/><path fill="url(#ai)" d="m217.979 238.498-52.67 30.461.106 19.222 52.584-30.412z"/><path fill="url(#aj)" d="m0 279.294 52.777 30.277.106 19.218L.02 298.561z"/><path fill="url(#ak)" d="M52.67 248.834 0 279.294l52.777 30.277 52.666-30.46z"/><path fill="url(#al)" d="m105.443 279.111-52.667 30.46.107 19.218 52.58-30.411z"/><path fill="url(#am)" d="m0 262.51 52.777 30.277.106 14.019L.02 276.579z"/><path fill="url(#an)" d="M52.67 232.05 0 262.51l52.777 30.277 52.666-30.46z"/><path fill="url(#ao)" d="m105.443 262.327-52.667 30.46.107 14.02 52.58-30.412z"/><path fill="url(#ap)" d="M105.443 237.71 52.67 207.433 0 237.894l.02 19.267 52.863 30.227 52.581-30.411z"/><path fill="url(#aq)" d="m0 237.894 52.777 30.276.106 19.218L.02 257.161z"/><path fill="url(#ar)" d="M52.67 207.433 0 237.894l52.777 30.276 52.666-30.46z"/><path fill="url(#as)" d="m105.443 237.71-52.667 30.46.107 19.218 52.58-30.411z"/><path fill="url(#at)" d="m56.269 313.295 52.772 30.277.111 19.218-52.863-30.228z"/><path fill="url(#au)" d="m108.935 282.831-52.666 30.465 52.772 30.276 52.671-30.464z"/><path fill="url(#av)" d="m161.711 313.108-52.67 30.465.111 19.218 52.58-30.412z"/><path fill="url(#aw)" d="m56.269 296.511 52.772 30.277.111 14.015-52.863-30.227z"/><path fill="url(#ax)" d="m108.935 266.051-52.666 30.46 52.772 30.277 52.671-30.46z"/><path fill="url(#ay)" d="m161.711 296.328-52.67 30.46.111 14.015 52.58-30.411z"/><path fill="url(#az)" d="m161.712 271.707-52.777-30.277-52.666 30.461.02 19.271 52.863 30.228 52.58-30.412z"/><path fill="url(#aA)" d="m56.269 271.891 52.772 30.28.111 19.218-52.863-30.227z"/><path fill="url(#aB)" d="m108.935 241.43-52.666 30.461 52.772 30.281 52.671-30.465z"/><path fill="url(#aC)" d="m161.711 271.707-52.67 30.465.111 19.218 52.58-30.412z"/><path fill="url(#aD)" d="M29.446 1.009c27.379 13.954 44.615 12.9 55.122 8.07 2.018-.928 1.138-2.86 1.138-2.86L96.03 0l7.634 4.37c8.276 17.286 29.532 53.566 72.137 80.804.999 75.337 13.155 143.956-63.018 133.028-9.799.976-20.568-9.985-25.422-15.964-63.427-78.08-68.24-195.01-68.24-195.01s6.184-3.43 10.326-6.22"/><path fill="#E6E6E6" d="M19.12 7.228c41.708 21.26 59.878 7.678 66.582-1.008l7.634 4.37c8.276 17.286 29.532 53.566 72.137 80.804.999 75.337 13.155 143.955-63.018 133.027C22.893 144.454 27.293 86.036 19.119 7.228"/><path fill="url(#aE)" d="M35.52 35.157c20.548 10.475 33.482 9.678 41.37 6.056 1.514-.698.851-2.144.851-2.144l7.749-4.668 5.73 3.28c6.21 12.974 22.164 40.2 54.14 60.643.581 43.855 6.52 84.717-17.658 97.005-.61.31-6.864 4.116-9.68 5.26-4.691 1.907-10.556 2.429-17.871 1.38-7.355.731-17.522-11.296-21.165-15.784-47.603-58.605-51.213-146.36-51.213-146.36s4.641-2.573 7.748-4.668"/><path fill="url(#aF)" d="M27.764 39.824c31.304 15.956 44.938 5.763 49.973-.755l5.73 3.28c6.21 12.969 22.164 40.2 54.14 60.642.749 56.54 9.872 108.039-47.292 99.839-59.719-60.018-56.42-103.857-62.551-163.006"/><path fill="#fff" d="m94.228 113.397-.099-.053v-6.232c0-7.395-5.48-16.543-12.222-20.386-6.737-3.843-12.222-.951-12.222 6.448v6.232l-.094-.053c-2.849-1.625-5.161-.408-5.161 2.724v27.038c0 3.128 2.312 6.984 5.161 8.609l24.633 14.048c2.852 1.625 5.161.408 5.161-2.724V122.01c.004-3.133-2.309-6.988-5.157-8.613m-10.11 14.342v9.585l-4.413-2.516v-9.584c-1.318-1.589-2.206-3.655-2.206-5.448 0-2.675 1.977-3.716 4.412-2.328 2.436 1.389 4.413 4.684 4.413 7.359 0 1.793-.892 2.846-2.206 2.932m6.692-16.29-17.797-10.148v-6.232c0-5.386 3.99-7.49 8.898-4.692s8.899 9.454 8.899 14.844z"/><path fill="#EC0082" d="m77.847 39.6 5.313 3.042c3.131 6.522 8.677 16.547 17.404 27.484 10.396 13.03 22.721 24.163 36.646 33.094.09 6.534.29 13.027.483 19.304.97 31.387 1.805 58.491-11.252 71.922-5.78 5.946-13.933 8.838-24.919 8.838-3.381 0-7.082-.282-11.007-.842-24.117-24.257-39.466-47.318-48.307-72.563-8.01-22.877-10.024-45.795-12.156-70.06-.549-6.24-1.114-12.685-1.793-19.292 10.859 5.447 20.547 8.212 28.803 8.212 11.105 0 17.408-4.904 20.785-9.14m-.106-.531c-3.054 3.957-9.271 9.262-20.683 9.262-7.396 0-16.978-2.23-29.29-8.507C33.903 98.97 30.6 142.812 90.315 202.83c4.06.584 7.78.862 11.198.862 44.706 0 36.79-48.176 36.094-100.701-31.976-20.443-47.93-47.673-54.14-60.643z"/></g><defs><linearGradient id="b" x1="97.423" x2="69.239" y1="316.68" y2="357.786" gradientUnits="userSpaceOnUse"><stop offset=".005" stop-color="#E265A6"/><stop offset=".478" stop-color="#9A3C82"/><stop offset=".501" stop-color="#93397D"/><stop offset=".661" stop-color="#65255F"/><stop offset=".804" stop-color="#431749"/><stop offset=".921" stop-color="#2E0E3C"/><stop offset="1" stop-color="#270B37"/></linearGradient><linearGradient id="c" x1="139.598" x2="4.257" y1="301.04" y2="355.064" gradientUnits="userSpaceOnUse"><stop stop-color="#F38FBB"/><stop offset="1" stop-color="#9A3C82"/></linearGradient><linearGradient id="d" x1="148.257" x2="62.524" y1="319.438" y2="443.496" gradientUnits="userSpaceOnUse"><stop offset=".005" stop-color="#E265A6"/><stop offset=".478" stop-color="#9A3C82"/><stop offset=".501" stop-color="#93397D"/><stop offset=".661" stop-color="#65255F"/><stop offset=".804" stop-color="#431749"/><stop offset=".921" stop-color="#2E0E3C"/><stop offset="1" stop-color="#270B37"/></linearGradient><linearGradient id="e" x1="94.376" x2="72.019" y1="301.721" y2="334.328" gradientUnits="userSpaceOnUse"><stop offset=".005" stop-color="#E265A6"/><stop offset=".478" stop-color="#9A3C82"/><stop offset=".501" stop-color="#93397D"/><stop offset=".661" stop-color="#65255F"/><stop offset=".804" stop-color="#431749"/><stop offset=".921" stop-color="#2E0E3C"/><stop offset="1" stop-color="#270B37"/></linearGradient><linearGradient id="f" x1="139.598" x2="4.257" y1="284.258" y2="338.281" gradientUnits="userSpaceOnUse"><stop stop-color="#F38FBB"/><stop offset="1" stop-color="#9A3C82"/></linearGradient><linearGradient id="g" x1="147.48" x2="66.933" y1="301.173" y2="417.727" gradientUnits="userSpaceOnUse"><stop offset=".005" stop-color="#E265A6"/><stop offset=".478" stop-color="#9A3C82"/><stop offset=".501" stop-color="#93397D"/><stop offset=".661" stop-color="#65255F"/><stop offset=".804" stop-color="#431749"/><stop offset=".921" stop-color="#2E0E3C"/><stop offset="1" stop-color="#270B37"/></linearGradient><linearGradient id="h" x1="122.847" x2="30.426" y1="261.568" y2="394.789" gradientUnits="userSpaceOnUse"><stop offset=".005" stop-color="#E265A6"/><stop offset=".478" stop-color="#9A3C82"/><stop offset=".501" stop-color="#93397D"/><stop offset=".661" stop-color="#65255F"/><stop offset=".804" stop-color="#431749"/><stop offset=".921" stop-color="#2E0E3C"/><stop offset="1" stop-color="#270B37"/></linearGradient><linearGradient id="i" x1="97.423" x2="69.239" y1="275.279" y2="316.385" gradientUnits="userSpaceOnUse"><stop offset=".005" stop-color="#E265A6"/><stop offset=".478" stop-color="#9A3C82"/><stop offset=".501" stop-color="#93397D"/><stop offset=".661" stop-color="#65255F"/><stop offset=".804" stop-color="#431749"/><stop offset=".921" stop-color="#2E0E3C"/><stop offset="1" stop-color="#270B37"/></linearGradient><linearGradient id="j" x1="139.598" x2="4.257" y1="259.639" y2="313.663" gradientUnits="userSpaceOnUse"><stop stop-color="#F38FBB"/><stop offset="1" stop-color="#9A3C82"/></linearGradient><linearGradient id="k" x1="148.257" x2="62.524" y1="278.037" y2="402.095" gradientUnits="userSpaceOnUse"><stop offset=".005" stop-color="#E265A6"/><stop offset=".478" stop-color="#9A3C82"/><stop offset=".501" stop-color="#93397D"/><stop offset=".661" stop-color="#65255F"/><stop offset=".804" stop-color="#431749"/><stop offset=".921" stop-color="#2E0E3C"/><stop offset="1" stop-color="#270B37"/></linearGradient><linearGradient id="l" x1="153.691" x2="125.506" y1="350.679" y2="391.786" gradientUnits="userSpaceOnUse"><stop offset=".005" stop-color="#E265A6"/><stop offset=".478" stop-color="#9A3C82"/><stop offset=".501" stop-color="#93397D"/><stop offset=".661" stop-color="#65255F"/><stop offset=".804" stop-color="#431749"/><stop offset=".921" stop-color="#2E0E3C"/><stop offset="1" stop-color="#270B37"/></linearGradient><linearGradient id="m" x1="195.865" x2="60.524" y1="335.04" y2="389.063" gradientUnits="userSpaceOnUse"><stop stop-color="#F38FBB"/><stop offset="1" stop-color="#9A3C82"/></linearGradient><linearGradient id="n" x1="204.525" x2="118.792" y1="353.437" y2="477.495" gradientUnits="userSpaceOnUse"><stop offset=".005" stop-color="#E265A6"/><stop offset=".478" stop-color="#9A3C82"/><stop offset=".501" stop-color="#93397D"/><stop offset=".661" stop-color="#65255F"/><stop offset=".804" stop-color="#431749"/><stop offset=".921" stop-color="#2E0E3C"/><stop offset="1" stop-color="#270B37"/></linearGradient><linearGradient id="o" x1="150.643" x2="128.286" y1="335.72" y2="368.328" gradientUnits="userSpaceOnUse"><stop offset=".005" stop-color="#E265A6"/><stop offset=".478" stop-color="#9A3C82"/><stop offset=".501" stop-color="#93397D"/><stop offset=".661" stop-color="#65255F"/><stop offset=".804" stop-color="#431749"/><stop offset=".921" stop-color="#2E0E3C"/><stop offset="1" stop-color="#270B37"/></linearGradient><linearGradient id="p" x1="195.865" x2="60.525" y1="318.257" y2="372.281" gradientUnits="userSpaceOnUse"><stop stop-color="#F38FBB"/><stop offset="1" stop-color="#9A3C82"/></linearGradient><linearGradient id="q" x1="203.748" x2="123.201" y1="335.173" y2="451.727" gradientUnits="userSpaceOnUse"><stop offset=".005" stop-color="#E265A6"/><stop offset=".478" stop-color="#9A3C82"/><stop offset=".501" stop-color="#93397D"/><stop offset=".661" stop-color="#65255F"/><stop offset=".804" stop-color="#431749"/><stop offset=".921" stop-color="#2E0E3C"/><stop offset="1" stop-color="#270B37"/></linearGradient><linearGradient id="r" x1="179.114" x2="86.694" y1="295.568" y2="428.789" gradientUnits="userSpaceOnUse"><stop offset=".005" stop-color="#E265A6"/><stop offset=".478" stop-color="#9A3C82"/><stop offset=".501" stop-color="#93397D"/><stop offset=".661" stop-color="#65255F"/><stop offset=".804" stop-color="#431749"/><stop offset=".921" stop-color="#2E0E3C"/><stop offset="1" stop-color="#270B37"/></linearGradient><linearGradient id="s" x1="153.691" x2="125.506" y1="309.278" y2="350.385" gradientUnits="userSpaceOnUse"><stop offset=".005" stop-color="#E265A6"/><stop offset=".478" stop-color="#9A3C82"/><stop offset=".501" stop-color="#93397D"/><stop offset=".661" stop-color="#65255F"/><stop offset=".804" stop-color="#431749"/><stop offset=".921" stop-color="#2E0E3C"/><stop offset="1" stop-color="#270B37"/></linearGradient><linearGradient id="t" x1="195.865" x2="60.524" y1="293.638" y2="347.662" gradientUnits="userSpaceOnUse"><stop stop-color="#F38FBB"/><stop offset="1" stop-color="#9A3C82"/></linearGradient><linearGradient id="u" x1="204.525" x2="118.792" y1="312.036" y2="436.094" gradientUnits="userSpaceOnUse"><stop offset=".005" stop-color="#E265A6"/><stop offset=".478" stop-color="#9A3C82"/><stop offset=".501" stop-color="#93397D"/><stop offset=".661" stop-color="#65255F"/><stop offset=".804" stop-color="#431749"/><stop offset=".921" stop-color="#2E0E3C"/><stop offset="1" stop-color="#270B37"/></linearGradient><linearGradient id="v" x1="41.155" x2="12.97" y1="349.889" y2="390.996" gradientUnits="userSpaceOnUse"><stop offset=".005" stop-color="#E265A6"/><stop offset=".478" stop-color="#9A3C82"/><stop offset=".501" stop-color="#93397D"/><stop offset=".661" stop-color="#65255F"/><stop offset=".804" stop-color="#431749"/><stop offset=".921" stop-color="#2E0E3C"/><stop offset="1" stop-color="#270B37"/></linearGradient><linearGradient id="w" x1="83.329" x2="-52.011" y1="334.249" y2="388.273" gradientUnits="userSpaceOnUse"><stop stop-color="#F38FBB"/><stop offset="1" stop-color="#9A3C82"/></linearGradient><linearGradient id="x" x1="91.989" x2="6.255" y1="352.647" y2="476.705" gradientUnits="userSpaceOnUse"><stop offset=".005" stop-color="#E265A6"/><stop offset=".478" stop-color="#9A3C82"/><stop offset=".501" stop-color="#93397D"/><stop offset=".661" stop-color="#65255F"/><stop offset=".804" stop-color="#431749"/><stop offset=".921" stop-color="#2E0E3C"/><stop offset="1" stop-color="#270B37"/></linearGradient><linearGradient id="y" x1="38.107" x2="15.751" y1="334.93" y2="367.537" gradientUnits="userSpaceOnUse"><stop offset=".005" stop-color="#E265A6"/><stop offset=".478" stop-color="#9A3C82"/><stop offset=".501" stop-color="#93397D"/><stop offset=".661" stop-color="#65255F"/><stop offset=".804" stop-color="#431749"/><stop offset=".921" stop-color="#2E0E3C"/><stop offset="1" stop-color="#270B37"/></linearGradient><linearGradient id="z" x1="83.329" x2="-52.011" y1="317.467" y2="371.49" gradientUnits="userSpaceOnUse"><stop stop-color="#F38FBB"/><stop offset="1" stop-color="#9A3C82"/></linearGradient><linearGradient id="A" x1="91.212" x2="10.665" y1="334.382" y2="450.936" gradientUnits="userSpaceOnUse"><stop offset=".005" stop-color="#E265A6"/><stop offset=".478" stop-color="#9A3C82"/><stop offset=".501" stop-color="#93397D"/><stop offset=".661" stop-color="#65255F"/><stop offset=".804" stop-color="#431749"/><stop offset=".921" stop-color="#2E0E3C"/><stop offset="1" stop-color="#270B37"/></linearGradient><linearGradient id="B" x1="66.578" x2="-25.842" y1="294.777" y2="427.998" gradientUnits="userSpaceOnUse"><stop offset=".005" stop-color="#E265A6"/><stop offset=".478" stop-color="#9A3C82"/><stop offset=".501" stop-color="#93397D"/><stop offset=".661" stop-color="#65255F"/><stop offset=".804" stop-color="#431749"/><stop offset=".921" stop-color="#2E0E3C"/><stop offset="1" stop-color="#270B37"/></linearGradient><linearGradient id="C" x1="41.155" x2="12.97" y1="308.488" y2="349.595" gradientUnits="userSpaceOnUse"><stop offset=".005" stop-color="#E265A6"/><stop offset=".478" stop-color="#9A3C82"/><stop offset=".501" stop-color="#93397D"/><stop offset=".661" stop-color="#65255F"/><stop offset=".804" stop-color="#431749"/><stop offset=".921" stop-color="#2E0E3C"/><stop offset="1" stop-color="#270B37"/></linearGradient><linearGradient id="D" x1="83.329" x2="-52.012" y1="292.848" y2="346.872" gradientUnits="userSpaceOnUse"><stop stop-color="#F38FBB"/><stop offset="1" stop-color="#9A3C82"/></linearGradient><linearGradient id="E" x1="91.989" x2="6.255" y1="311.246" y2="435.304" gradientUnits="userSpaceOnUse"><stop offset=".005" stop-color="#E265A6"/><stop offset=".478" stop-color="#9A3C82"/><stop offset=".501" stop-color="#93397D"/><stop offset=".661" stop-color="#65255F"/><stop offset=".804" stop-color="#431749"/><stop offset=".921" stop-color="#2E0E3C"/><stop offset="1" stop-color="#270B37"/></linearGradient><linearGradient id="F" x1="97.423" x2="69.239" y1="383.888" y2="424.995" gradientUnits="userSpaceOnUse"><stop offset=".005" stop-color="#E265A6"/><stop offset=".478" stop-color="#9A3C82"/><stop offset=".501" stop-color="#93397D"/><stop offset=".661" stop-color="#65255F"/><stop offset=".804" stop-color="#431749"/><stop offset=".921" stop-color="#2E0E3C"/><stop offset="1" stop-color="#270B37"/></linearGradient><linearGradient id="G" x1="139.598" x2="4.257" y1="368.249" y2="422.272" gradientUnits="userSpaceOnUse"><stop stop-color="#F38FBB"/><stop offset="1" stop-color="#9A3C82"/></linearGradient><linearGradient id="H" x1="148.257" x2="62.524" y1="386.646" y2="510.704" gradientUnits="userSpaceOnUse"><stop offset=".005" stop-color="#E265A6"/><stop offset=".478" stop-color="#9A3C82"/><stop offset=".501" stop-color="#93397D"/><stop offset=".661" stop-color="#65255F"/><stop offset=".804" stop-color="#431749"/><stop offset=".921" stop-color="#2E0E3C"/><stop offset="1" stop-color="#270B37"/></linearGradient><linearGradient id="I" x1="94.376" x2="72.019" y1="368.929" y2="401.537" gradientUnits="userSpaceOnUse"><stop offset=".005" stop-color="#E265A6"/><stop offset=".478" stop-color="#9A3C82"/><stop offset=".501" stop-color="#93397D"/><stop offset=".661" stop-color="#65255F"/><stop offset=".804" stop-color="#431749"/><stop offset=".921" stop-color="#2E0E3C"/><stop offset="1" stop-color="#270B37"/></linearGradient><linearGradient id="J" x1="139.598" x2="4.257" y1="351.466" y2="405.49" gradientUnits="userSpaceOnUse"><stop stop-color="#F38FBB"/><stop offset="1" stop-color="#9A3C82"/></linearGradient><linearGradient id="K" x1="147.48" x2="66.933" y1="368.382" y2="484.936" gradientUnits="userSpaceOnUse"><stop offset=".005" stop-color="#E265A6"/><stop offset=".478" stop-color="#9A3C82"/><stop offset=".501" stop-color="#93397D"/><stop offset=".661" stop-color="#65255F"/><stop offset=".804" stop-color="#431749"/><stop offset=".921" stop-color="#2E0E3C"/><stop offset="1" stop-color="#270B37"/></linearGradient><linearGradient id="L" x1="122.847" x2="30.427" y1="328.777" y2="461.998" gradientUnits="userSpaceOnUse"><stop offset=".005" stop-color="#E265A6"/><stop offset=".478" stop-color="#9A3C82"/><stop offset=".501" stop-color="#93397D"/><stop offset=".661" stop-color="#65255F"/><stop offset=".804" stop-color="#431749"/><stop offset=".921" stop-color="#2E0E3C"/><stop offset="1" stop-color="#270B37"/></linearGradient><linearGradient id="M" x1="97.423" x2="69.239" y1="342.487" y2="383.594" gradientUnits="userSpaceOnUse"><stop offset=".005" stop-color="#E265A6"/><stop offset=".478" stop-color="#9A3C82"/><stop offset=".501" stop-color="#93397D"/><stop offset=".661" stop-color="#65255F"/><stop offset=".804" stop-color="#431749"/><stop offset=".921" stop-color="#2E0E3C"/><stop offset="1" stop-color="#270B37"/></linearGradient><linearGradient id="N" x1="139.598" x2="4.257" y1="326.848" y2="380.871" gradientUnits="userSpaceOnUse"><stop stop-color="#F38FBB"/><stop offset="1" stop-color="#9A3C82"/></linearGradient><linearGradient id="O" x1="148.257" x2="62.524" y1="345.245" y2="469.303" gradientUnits="userSpaceOnUse"><stop offset=".005" stop-color="#E265A6"/><stop offset=".478" stop-color="#9A3C82"/><stop offset=".501" stop-color="#93397D"/><stop offset=".661" stop-color="#65255F"/><stop offset=".804" stop-color="#431749"/><stop offset=".921" stop-color="#2E0E3C"/><stop offset="1" stop-color="#270B37"/></linearGradient><linearGradient id="P" x1="97.423" x2="69.239" y1="249.471" y2="290.578" gradientUnits="userSpaceOnUse"><stop offset=".005" stop-color="#E265A6"/><stop offset=".478" stop-color="#9A3C82"/><stop offset=".501" stop-color="#93397D"/><stop offset=".661" stop-color="#65255F"/><stop offset=".804" stop-color="#431749"/><stop offset=".921" stop-color="#2E0E3C"/><stop offset="1" stop-color="#270B37"/></linearGradient><linearGradient id="Q" x1="139.598" x2="4.257" y1="233.831" y2="287.855" gradientUnits="userSpaceOnUse"><stop stop-color="#F38FBB"/><stop offset="1" stop-color="#9A3C82"/></linearGradient><linearGradient id="R" x1="148.257" x2="62.524" y1="252.229" y2="376.287" gradientUnits="userSpaceOnUse"><stop offset=".005" stop-color="#E265A6"/><stop offset=".478" stop-color="#9A3C82"/><stop offset=".501" stop-color="#93397D"/><stop offset=".661" stop-color="#65255F"/><stop offset=".804" stop-color="#431749"/><stop offset=".921" stop-color="#2E0E3C"/><stop offset="1" stop-color="#270B37"/></linearGradient><linearGradient id="S" x1="94.376" x2="72.019" y1="234.512" y2="267.119" gradientUnits="userSpaceOnUse"><stop offset=".005" stop-color="#E265A6"/><stop offset=".478" stop-color="#9A3C82"/><stop offset=".501" stop-color="#93397D"/><stop offset=".661" stop-color="#65255F"/><stop offset=".804" stop-color="#431749"/><stop offset=".921" stop-color="#2E0E3C"/><stop offset="1" stop-color="#270B37"/></linearGradient><linearGradient id="T" x1="139.598" x2="4.257" y1="217.049" y2="271.073" gradientUnits="userSpaceOnUse"><stop stop-color="#F38FBB"/><stop offset="1" stop-color="#9A3C82"/></linearGradient><linearGradient id="U" x1="147.48" x2="66.933" y1="233.965" y2="350.519" gradientUnits="userSpaceOnUse"><stop offset=".005" stop-color="#E265A6"/><stop offset=".478" stop-color="#9A3C82"/><stop offset=".501" stop-color="#93397D"/><stop offset=".661" stop-color="#65255F"/><stop offset=".804" stop-color="#431749"/><stop offset=".921" stop-color="#2E0E3C"/><stop offset="1" stop-color="#270B37"/></linearGradient><linearGradient id="V" x1="122.847" x2="30.427" y1="194.359" y2="327.581" gradientUnits="userSpaceOnUse"><stop offset=".005" stop-color="#E265A6"/><stop offset=".478" stop-color="#9A3C82"/><stop offset=".501" stop-color="#93397D"/><stop offset=".661" stop-color="#65255F"/><stop offset=".804" stop-color="#431749"/><stop offset=".921" stop-color="#2E0E3C"/><stop offset="1" stop-color="#270B37"/></linearGradient><linearGradient id="W" x1="97.423" x2="69.239" y1="208.07" y2="249.177" gradientUnits="userSpaceOnUse"><stop offset=".005" stop-color="#E265A6"/><stop offset=".478" stop-color="#9A3C82"/><stop offset=".501" stop-color="#93397D"/><stop offset=".661" stop-color="#65255F"/><stop offset=".804" stop-color="#431749"/><stop offset=".921" stop-color="#2E0E3C"/><stop offset="1" stop-color="#270B37"/></linearGradient><linearGradient id="X" x1="139.598" x2="4.257" y1="192.43" y2="246.454" gradientUnits="userSpaceOnUse"><stop stop-color="#F38FBB"/><stop offset="1" stop-color="#9A3C82"/></linearGradient><linearGradient id="Y" x1="148.257" x2="62.524" y1="210.828" y2="334.886" gradientUnits="userSpaceOnUse"><stop offset=".005" stop-color="#E265A6"/><stop offset=".478" stop-color="#9A3C82"/><stop offset=".501" stop-color="#93397D"/><stop offset=".661" stop-color="#65255F"/><stop offset=".804" stop-color="#431749"/><stop offset=".921" stop-color="#2E0E3C"/><stop offset="1" stop-color="#270B37"/></linearGradient><linearGradient id="Z" x1="153.691" x2="125.506" y1="283.47" y2="324.577" gradientUnits="userSpaceOnUse"><stop offset=".005" stop-color="#E265A6"/><stop offset=".478" stop-color="#9A3C82"/><stop offset=".501" stop-color="#93397D"/><stop offset=".661" stop-color="#65255F"/><stop offset=".804" stop-color="#431749"/><stop offset=".921" stop-color="#2E0E3C"/><stop offset="1" stop-color="#270B37"/></linearGradient><linearGradient id="aa" x1="195.865" x2="60.524" y1="267.831" y2="321.855" gradientUnits="userSpaceOnUse"><stop stop-color="#F38FBB"/><stop offset="1" stop-color="#9A3C82"/></linearGradient><linearGradient id="ab" x1="204.525" x2="118.792" y1="286.229" y2="410.287" gradientUnits="userSpaceOnUse"><stop offset=".005" stop-color="#E265A6"/><stop offset=".478" stop-color="#9A3C82"/><stop offset=".501" stop-color="#93397D"/><stop offset=".661" stop-color="#65255F"/><stop offset=".804" stop-color="#431749"/><stop offset=".921" stop-color="#2E0E3C"/><stop offset="1" stop-color="#270B37"/></linearGradient><linearGradient id="ac" x1="150.643" x2="128.286" y1="268.512" y2="301.119" gradientUnits="userSpaceOnUse"><stop offset=".005" stop-color="#E265A6"/><stop offset=".478" stop-color="#9A3C82"/><stop offset=".501" stop-color="#93397D"/><stop offset=".661" stop-color="#65255F"/><stop offset=".804" stop-color="#431749"/><stop offset=".921" stop-color="#2E0E3C"/><stop offset="1" stop-color="#270B37"/></linearGradient><linearGradient id="ad" x1="195.865" x2="60.524" y1="251.049" y2="305.072" gradientUnits="userSpaceOnUse"><stop stop-color="#F38FBB"/><stop offset="1" stop-color="#9A3C82"/></linearGradient><linearGradient id="ae" x1="203.748" x2="123.201" y1="267.964" y2="384.518" gradientUnits="userSpaceOnUse"><stop offset=".005" stop-color="#E265A6"/><stop offset=".478" stop-color="#9A3C82"/><stop offset=".501" stop-color="#93397D"/><stop offset=".661" stop-color="#65255F"/><stop offset=".804" stop-color="#431749"/><stop offset=".921" stop-color="#2E0E3C"/><stop offset="1" stop-color="#270B37"/></linearGradient><linearGradient id="af" x1="179.114" x2="86.694" y1="228.359" y2="361.58" gradientUnits="userSpaceOnUse"><stop offset=".005" stop-color="#E265A6"/><stop offset=".478" stop-color="#9A3C82"/><stop offset=".501" stop-color="#93397D"/><stop offset=".661" stop-color="#65255F"/><stop offset=".804" stop-color="#431749"/><stop offset=".921" stop-color="#2E0E3C"/><stop offset="1" stop-color="#270B37"/></linearGradient><linearGradient id="ag" x1="153.691" x2="125.506" y1="242.07" y2="283.176" gradientUnits="userSpaceOnUse"><stop offset=".005" stop-color="#E265A6"/><stop offset=".478" stop-color="#9A3C82"/><stop offset=".501" stop-color="#93397D"/><stop offset=".661" stop-color="#65255F"/><stop offset=".804" stop-color="#431749"/><stop offset=".921" stop-color="#2E0E3C"/><stop offset="1" stop-color="#270B37"/></linearGradient><linearGradient id="ah" x1="195.865" x2="60.524" y1="226.43" y2="280.454" gradientUnits="userSpaceOnUse"><stop stop-color="#F38FBB"/><stop offset="1" stop-color="#9A3C82"/></linearGradient><linearGradient id="ai" x1="204.525" x2="118.792" y1="244.827" y2="368.886" gradientUnits="userSpaceOnUse"><stop offset=".005" stop-color="#E265A6"/><stop offset=".478" stop-color="#9A3C82"/><stop offset=".501" stop-color="#93397D"/><stop offset=".661" stop-color="#65255F"/><stop offset=".804" stop-color="#431749"/><stop offset=".921" stop-color="#2E0E3C"/><stop offset="1" stop-color="#270B37"/></linearGradient><linearGradient id="aj" x1="41.155" x2="12.97" y1="282.68" y2="323.787" gradientUnits="userSpaceOnUse"><stop offset=".005" stop-color="#E265A6"/><stop offset=".478" stop-color="#9A3C82"/><stop offset=".501" stop-color="#93397D"/><stop offset=".661" stop-color="#65255F"/><stop offset=".804" stop-color="#431749"/><stop offset=".921" stop-color="#2E0E3C"/><stop offset="1" stop-color="#270B37"/></linearGradient><linearGradient id="ak" x1="83.329" x2="-52.011" y1="267.04" y2="321.064" gradientUnits="userSpaceOnUse"><stop stop-color="#F38FBB"/><stop offset="1" stop-color="#9A3C82"/></linearGradient><linearGradient id="al" x1="91.989" x2="6.255" y1="285.438" y2="409.496" gradientUnits="userSpaceOnUse"><stop offset=".005" stop-color="#E265A6"/><stop offset=".478" stop-color="#9A3C82"/><stop offset=".501" stop-color="#93397D"/><stop offset=".661" stop-color="#65255F"/><stop offset=".804" stop-color="#431749"/><stop offset=".921" stop-color="#2E0E3C"/><stop offset="1" stop-color="#270B37"/></linearGradient><linearGradient id="am" x1="38.107" x2="15.75" y1="267.721" y2="300.329" gradientUnits="userSpaceOnUse"><stop offset=".005" stop-color="#E265A6"/><stop offset=".478" stop-color="#9A3C82"/><stop offset=".501" stop-color="#93397D"/><stop offset=".661" stop-color="#65255F"/><stop offset=".804" stop-color="#431749"/><stop offset=".921" stop-color="#2E0E3C"/><stop offset="1" stop-color="#270B37"/></linearGradient><linearGradient id="an" x1="83.329" x2="-52.011" y1="250.258" y2="304.282" gradientUnits="userSpaceOnUse"><stop stop-color="#F38FBB"/><stop offset="1" stop-color="#9A3C82"/></linearGradient><linearGradient id="ao" x1="91.212" x2="10.665" y1="267.174" y2="383.728" gradientUnits="userSpaceOnUse"><stop offset=".005" stop-color="#E265A6"/><stop offset=".478" stop-color="#9A3C82"/><stop offset=".501" stop-color="#93397D"/><stop offset=".661" stop-color="#65255F"/><stop offset=".804" stop-color="#431749"/><stop offset=".921" stop-color="#2E0E3C"/><stop offset="1" stop-color="#270B37"/></linearGradient><linearGradient id="ap" x1="66.578" x2="-25.842" y1="227.568" y2="360.79" gradientUnits="userSpaceOnUse"><stop offset=".005" stop-color="#E265A6"/><stop offset=".478" stop-color="#9A3C82"/><stop offset=".501" stop-color="#93397D"/><stop offset=".661" stop-color="#65255F"/><stop offset=".804" stop-color="#431749"/><stop offset=".921" stop-color="#2E0E3C"/><stop offset="1" stop-color="#270B37"/></linearGradient><linearGradient id="aq" x1="41.155" x2="12.97" y1="241.279" y2="282.386" gradientUnits="userSpaceOnUse"><stop offset=".005" stop-color="#E265A6"/><stop offset=".478" stop-color="#9A3C82"/><stop offset=".501" stop-color="#93397D"/><stop offset=".661" stop-color="#65255F"/><stop offset=".804" stop-color="#431749"/><stop offset=".921" stop-color="#2E0E3C"/><stop offset="1" stop-color="#270B37"/></linearGradient><linearGradient id="ar" x1="83.329" x2="-52.011" y1="225.639" y2="279.663" gradientUnits="userSpaceOnUse"><stop stop-color="#F38FBB"/><stop offset="1" stop-color="#9A3C82"/></linearGradient><linearGradient id="as" x1="91.989" x2="6.255" y1="244.037" y2="368.095" gradientUnits="userSpaceOnUse"><stop offset=".005" stop-color="#E265A6"/><stop offset=".478" stop-color="#9A3C82"/><stop offset=".501" stop-color="#93397D"/><stop offset=".661" stop-color="#65255F"/><stop offset=".804" stop-color="#431749"/><stop offset=".921" stop-color="#2E0E3C"/><stop offset="1" stop-color="#270B37"/></linearGradient><linearGradient id="at" x1="97.423" x2="69.239" y1="316.68" y2="357.786" gradientUnits="userSpaceOnUse"><stop offset=".005" stop-color="#E265A6"/><stop offset=".478" stop-color="#9A3C82"/><stop offset=".501" stop-color="#93397D"/><stop offset=".661" stop-color="#65255F"/><stop offset=".804" stop-color="#431749"/><stop offset=".921" stop-color="#2E0E3C"/><stop offset="1" stop-color="#270B37"/></linearGradient><linearGradient id="au" x1="139.598" x2="4.257" y1="301.04" y2="355.064" gradientUnits="userSpaceOnUse"><stop stop-color="#F38FBB"/><stop offset="1" stop-color="#9A3C82"/></linearGradient><linearGradient id="av" x1="148.257" x2="62.524" y1="319.438" y2="443.496" gradientUnits="userSpaceOnUse"><stop offset=".005" stop-color="#E265A6"/><stop offset=".478" stop-color="#9A3C82"/><stop offset=".501" stop-color="#93397D"/><stop offset=".661" stop-color="#65255F"/><stop offset=".804" stop-color="#431749"/><stop offset=".921" stop-color="#2E0E3C"/><stop offset="1" stop-color="#270B37"/></linearGradient><linearGradient id="aw" x1="94.376" x2="72.019" y1="301.721" y2="334.328" gradientUnits="userSpaceOnUse"><stop offset=".005" stop-color="#E265A6"/><stop offset=".478" stop-color="#9A3C82"/><stop offset=".501" stop-color="#93397D"/><stop offset=".661" stop-color="#65255F"/><stop offset=".804" stop-color="#431749"/><stop offset=".921" stop-color="#2E0E3C"/><stop offset="1" stop-color="#270B37"/></linearGradient><linearGradient id="ax" x1="139.598" x2="4.257" y1="284.258" y2="338.281" gradientUnits="userSpaceOnUse"><stop stop-color="#F38FBB"/><stop offset="1" stop-color="#9A3C82"/></linearGradient><linearGradient id="ay" x1="147.48" x2="66.933" y1="301.173" y2="417.727" gradientUnits="userSpaceOnUse"><stop offset=".005" stop-color="#E265A6"/><stop offset=".478" stop-color="#9A3C82"/><stop offset=".501" stop-color="#93397D"/><stop offset=".661" stop-color="#65255F"/><stop offset=".804" stop-color="#431749"/><stop offset=".921" stop-color="#2E0E3C"/><stop offset="1" stop-color="#270B37"/></linearGradient><linearGradient id="az" x1="122.847" x2="30.426" y1="261.568" y2="394.789" gradientUnits="userSpaceOnUse"><stop offset=".005" stop-color="#E265A6"/><stop offset=".478" stop-color="#9A3C82"/><stop offset=".501" stop-color="#93397D"/><stop offset=".661" stop-color="#65255F"/><stop offset=".804" stop-color="#431749"/><stop offset=".921" stop-color="#2E0E3C"/><stop offset="1" stop-color="#270B37"/></linearGradient><linearGradient id="aA" x1="97.423" x2="69.239" y1="275.279" y2="316.385" gradientUnits="userSpaceOnUse"><stop offset=".005" stop-color="#E265A6"/><stop offset=".478" stop-color="#9A3C82"/><stop offset=".501" stop-color="#93397D"/><stop offset=".661" stop-color="#65255F"/><stop offset=".804" stop-color="#431749"/><stop offset=".921" stop-color="#2E0E3C"/><stop offset="1" stop-color="#270B37"/></linearGradient><linearGradient id="aB" x1="139.598" x2="4.257" y1="259.639" y2="313.663" gradientUnits="userSpaceOnUse"><stop stop-color="#F38FBB"/><stop offset="1" stop-color="#9A3C82"/></linearGradient><linearGradient id="aC" x1="148.257" x2="62.524" y1="278.037" y2="402.095" gradientUnits="userSpaceOnUse"><stop offset=".005" stop-color="#E265A6"/><stop offset=".478" stop-color="#9A3C82"/><stop offset=".501" stop-color="#93397D"/><stop offset=".661" stop-color="#65255F"/><stop offset=".804" stop-color="#431749"/><stop offset=".921" stop-color="#2E0E3C"/><stop offset="1" stop-color="#270B37"/></linearGradient><linearGradient id="aD" x1="-5.705" x2="150.756" y1="-83.79" y2="192.256" gradientUnits="userSpaceOnUse"><stop stop-color="#9CC6DB"/><stop offset="1" stop-color="#D0D0CE"/></linearGradient><linearGradient id="aE" x1="-.007" x2="128.623" y1="-37.036" y2="179.699" gradientUnits="userSpaceOnUse"><stop stop-color="#5449BF"/><stop offset=".43" stop-color="#21137F"/><stop offset=".937" stop-color="#211C53"/></linearGradient><linearGradient id="aF" x1="34.063" x2="179.861" y1="-10.732" y2="365.094" gradientUnits="userSpaceOnUse"><stop stop-color="#5449BF"/><stop offset=".43" stop-color="#21137F"/><stop offset=".937" stop-color="#211C53"/></linearGradient><clipPath id="a"><path fill="#fff" d="M0 0h218v430H0z"/></clipPath></defs></svg>