<svg width="60" height="60" viewBox="0 0 60 60" fill="none" xmlns="http://www.w3.org/2000/svg">
<g clip-path="url(#clip0_828_17066)">
<path d="M14.6573 20.6854L18.1729 26.776C18.6705 27.6357 19.7513 27.8893 20.5748 27.4196L23.1717 25.919C23.7041 26.2866 24.2621 26.6107 24.8421 26.889V29.8828C24.8421 30.8542 25.6285 31.6406 26.5999 31.6406H33.6311C34.6025 31.6406 35.3889 30.8542 35.3889 29.8828V26.889C35.9689 26.6107 36.5269 26.2866 37.0593 25.919L39.6562 27.4196C40.4797 27.8893 41.5605 27.6357 42.0581 26.776L45.5737 20.6854C46.0594 19.8441 45.771 18.7692 44.9296 18.2835L42.3739 16.8073C42.4353 16.1234 42.4357 15.52 42.3739 14.8334L44.9296 13.3571C45.771 12.8709 46.0594 11.7966 45.5737 10.9552L42.0581 4.86465C41.5719 4.02512 40.4962 3.73489 39.6562 4.22104L37.0593 5.72159C36.5269 5.354 35.9689 5.02991 35.3889 4.75159V1.75781C35.3889 0.786438 34.6025 0 33.6311 0H26.5999C25.6285 0 24.8421 0.786438 24.8421 1.75781V4.75159C24.2621 5.02991 23.7041 5.354 23.1717 5.72159L20.5748 4.22104C19.7311 3.73306 18.6572 4.02832 18.1729 4.86465L14.6573 10.9552C14.1716 11.7966 14.46 12.8714 15.3013 13.3571L17.857 14.8334C17.7957 15.5173 17.7952 16.1206 17.857 16.8073L15.3013 18.2835C14.46 18.7692 14.1716 19.8441 14.6573 20.6854ZM30.1155 10.5469C33.0232 10.5469 35.3889 12.9126 35.3889 15.8203C35.3889 18.728 33.0232 21.0938 30.1155 21.0938C27.2078 21.0938 24.8421 18.728 24.8421 15.8203C24.8421 12.9126 27.2078 10.5469 30.1155 10.5469Z" fill="url(#paint0_linear_828_17066)"/>
<path d="M16.761 34.1478C15.3882 32.775 13.1621 32.775 11.7892 34.1473C10.4164 35.5202 10.416 37.7458 11.7888 39.1191L15.0032 42.3344C15.6898 43.0211 15.6898 44.1335 15.0032 44.8201C14.3166 45.5067 13.2042 45.5067 12.5175 44.8201L8.5762 40.8769C7.58698 39.8872 7.03125 38.5451 7.03125 37.1457V21.3281C7.03125 19.3863 5.45746 17.8125 3.51562 17.8125C1.57379 17.8125 0 19.3863 0 21.3281V43.3264C0 43.7933 0.184936 44.241 0.514984 44.5711L10.5469 54.6167V58.2422C10.5469 59.2131 11.331 60 12.3015 60C15.087 60 20.4529 60 22.8882 59.9995C23.6467 59.9995 24.3077 59.4809 24.5334 58.7572C27.9405 47.8271 28.1154 46.6383 28.1245 46.29C28.1351 45.8922 27.952 45.3387 27.6704 45.0572L16.761 34.1478Z" fill="url(#paint1_linear_828_17066)"/>
<path d="M56.4843 17.8125C54.5425 17.8125 52.9687 19.3863 52.9687 21.3281V37.1457C52.9687 38.5451 52.413 39.8872 51.4238 40.8769L47.4824 44.8201C46.7958 45.5067 45.6834 45.5067 44.9968 44.8201C44.3101 44.1335 44.3101 43.0206 44.9968 42.3344L48.2112 39.1191C49.584 37.7458 49.5836 35.5197 48.2103 34.1473C46.8374 32.7745 44.6118 32.775 43.239 34.1478L32.3295 45.0572C32.048 45.3383 31.8649 45.8922 31.8754 46.29C31.8841 46.6379 32.0595 47.8267 35.4666 58.7567C35.6923 59.4804 36.3533 59.9991 37.1118 59.9995C39.5471 60 44.913 60 47.6985 60C48.6689 60 49.4531 59.2131 49.4531 58.2422V54.6167L59.485 44.5711C59.8146 44.2406 60 43.7929 60 43.3264V21.3281C60 19.3863 58.4262 17.8125 56.4843 17.8125Z" fill="url(#paint2_linear_828_17066)"/>
</g>
<defs>
<linearGradient id="paint0_linear_828_17066" x1="5.88685" y1="5.6624" x2="53.7657" y2="52.7717" gradientUnits="userSpaceOnUse">
<stop stop-color="#F94229"/>
<stop offset="1" stop-color="#BB0A55"/>
</linearGradient>
<linearGradient id="paint1_linear_828_17066" x1="5.88685" y1="5.6624" x2="53.7657" y2="52.7717" gradientUnits="userSpaceOnUse">
<stop stop-color="#F94229"/>
<stop offset="1" stop-color="#BB0A55"/>
</linearGradient>
<linearGradient id="paint2_linear_828_17066" x1="5.88685" y1="5.6624" x2="53.7657" y2="52.7717" gradientUnits="userSpaceOnUse">
<stop stop-color="#F94229"/>
<stop offset="1" stop-color="#BB0A55"/>
</linearGradient>
<clipPath id="clip0_828_17066">
<rect width="60" height="60" fill="white"/>
</clipPath>
</defs>
</svg>
