<svg width="43" height="43" viewBox="0 0 43 43" fill="none" xmlns="http://www.w3.org/2000/svg">
<path d="M27.1953 18.9551C28.3121 16.7223 31.4985 16.7221 32.6152 18.9551L41.9883 37.7021C42.9957 39.7167 41.5306 42.0869 39.2783 42.0869H20.5312C18.2793 42.0866 16.8142 39.7165 17.8213 37.7021L27.1953 18.9551ZM15.249 23.6328C15.8593 23.5769 16.3999 24.0263 16.4561 24.6367C16.5121 25.2471 16.0625 25.7877 15.4521 25.8438C11.0549 26.2477 6.7182 27.516 2.70508 29.6484C2.49879 29.7582 2.37012 29.9731 2.37012 30.207V37.2568C2.37016 37.7042 2.73239 38.0663 3.17969 38.0664H11.665C12.2781 38.0664 12.7754 38.5638 12.7754 39.1768C12.7754 39.7899 12.2781 40.2871 11.665 40.2871H3.17969C1.50634 40.287 0.149455 38.9303 0.149414 37.2568V30.207C0.149414 29.1518 0.732386 28.1826 1.66406 27.6875C5.94093 25.4148 10.5625 24.0631 15.249 23.6328ZM30.6299 19.9482C30.3313 19.3512 29.479 19.3513 29.1807 19.9482L19.8076 38.6953C19.5386 39.2338 19.9294 39.8669 20.5312 39.8672H39.2783C39.8802 39.8672 40.2719 39.2339 40.0029 38.6953L30.6299 19.9482ZM29.9053 34.1045C30.5047 34.1047 30.9917 34.5805 31.0127 35.1748H31.0146V35.2148H31.0127C30.9915 35.809 30.5045 36.2839 29.9053 36.2842C29.3058 36.2842 28.8181 35.8092 28.7969 35.2148H28.7949V35.1748H28.7969C28.8179 34.5803 29.3057 34.1045 29.9053 34.1045ZM29.9053 26.4639C30.518 26.4641 31.0146 26.9614 31.0146 27.5742V31.4141C31.0146 32.0268 30.518 32.5242 29.9053 32.5244C29.2923 32.5244 28.7949 32.027 28.7949 31.4141V27.5742C28.7949 26.9613 29.2923 26.4639 29.9053 26.4639ZM18.6895 0.146484C24.0741 0.146484 28.4392 4.51189 28.4395 9.89648C28.4395 15.2813 24.0742 19.6465 18.6895 19.6465C13.3047 19.6464 8.93945 15.2812 8.93945 9.89648C8.93966 4.51196 13.3049 0.146595 18.6895 0.146484ZM18.6895 2.36719C14.5309 2.3673 11.1594 5.73803 11.1592 9.89648C11.1592 14.0551 14.5308 17.4266 18.6895 17.4268C22.8481 17.4268 26.2197 14.0552 26.2197 9.89648C26.2195 5.73796 22.848 2.36719 18.6895 2.36719Z" fill="black"/>
<path d="M27.1953 18.9551C28.3121 16.7223 31.4985 16.7221 32.6152 18.9551L41.9883 37.7021C42.9957 39.7167 41.5306 42.0869 39.2783 42.0869H20.5312C18.2793 42.0866 16.8142 39.7165 17.8213 37.7021L27.1953 18.9551ZM15.249 23.6328C15.8593 23.5769 16.3999 24.0263 16.4561 24.6367C16.5121 25.2471 16.0625 25.7877 15.4521 25.8438C11.0549 26.2477 6.7182 27.516 2.70508 29.6484C2.49879 29.7582 2.37012 29.9731 2.37012 30.207V37.2568C2.37016 37.7042 2.73239 38.0663 3.17969 38.0664H11.665C12.2781 38.0664 12.7754 38.5638 12.7754 39.1768C12.7754 39.7899 12.2781 40.2871 11.665 40.2871H3.17969C1.50634 40.287 0.149455 38.9303 0.149414 37.2568V30.207C0.149414 29.1518 0.732386 28.1826 1.66406 27.6875C5.94093 25.4148 10.5625 24.0631 15.249 23.6328ZM30.6299 19.9482C30.3313 19.3512 29.479 19.3513 29.1807 19.9482L19.8076 38.6953C19.5386 39.2338 19.9294 39.8669 20.5312 39.8672H39.2783C39.8802 39.8672 40.2719 39.2339 40.0029 38.6953L30.6299 19.9482ZM29.9053 34.1045C30.5047 34.1047 30.9917 34.5805 31.0127 35.1748H31.0146V35.2148H31.0127C30.9915 35.809 30.5045 36.2839 29.9053 36.2842C29.3058 36.2842 28.8181 35.8092 28.7969 35.2148H28.7949V35.1748H28.7969C28.8179 34.5803 29.3057 34.1045 29.9053 34.1045ZM29.9053 26.4639C30.518 26.4641 31.0146 26.9614 31.0146 27.5742V31.4141C31.0146 32.0268 30.518 32.5242 29.9053 32.5244C29.2923 32.5244 28.7949 32.027 28.7949 31.4141V27.5742C28.7949 26.9613 29.2923 26.4639 29.9053 26.4639ZM18.6895 0.146484C24.0741 0.146484 28.4392 4.51189 28.4395 9.89648C28.4395 15.2813 24.0742 19.6465 18.6895 19.6465C13.3047 19.6464 8.93945 15.2812 8.93945 9.89648C8.93966 4.51196 13.3049 0.146595 18.6895 0.146484ZM18.6895 2.36719C14.5309 2.3673 11.1594 5.73803 11.1592 9.89648C11.1592 14.0551 14.5308 17.4266 18.6895 17.4268C22.8481 17.4268 26.2197 14.0552 26.2197 9.89648C26.2195 5.73796 22.848 2.36719 18.6895 2.36719Z" fill="url(#paint0_linear_815_7042)"/>
<path d="M27.1953 18.9551C28.3121 16.7223 31.4985 16.7221 32.6152 18.9551L41.9883 37.7021C42.9957 39.7167 41.5306 42.0869 39.2783 42.0869H20.5312C18.2793 42.0866 16.8142 39.7165 17.8213 37.7021L27.1953 18.9551ZM15.249 23.6328C15.8593 23.5769 16.3999 24.0263 16.4561 24.6367C16.5121 25.2471 16.0625 25.7877 15.4521 25.8438C11.0549 26.2477 6.7182 27.516 2.70508 29.6484C2.49879 29.7582 2.37012 29.9731 2.37012 30.207V37.2568C2.37016 37.7042 2.73239 38.0663 3.17969 38.0664H11.665C12.2781 38.0664 12.7754 38.5638 12.7754 39.1768C12.7754 39.7899 12.2781 40.2871 11.665 40.2871H3.17969C1.50634 40.287 0.149455 38.9303 0.149414 37.2568V30.207C0.149414 29.1518 0.732386 28.1826 1.66406 27.6875C5.94093 25.4148 10.5625 24.0631 15.249 23.6328ZM30.6299 19.9482C30.3313 19.3512 29.479 19.3513 29.1807 19.9482L19.8076 38.6953C19.5386 39.2338 19.9294 39.8669 20.5312 39.8672H39.2783C39.8802 39.8672 40.2719 39.2339 40.0029 38.6953L30.6299 19.9482ZM29.9053 34.1045C30.5047 34.1047 30.9917 34.5805 31.0127 35.1748H31.0146V35.2148H31.0127C30.9915 35.809 30.5045 36.2839 29.9053 36.2842C29.3058 36.2842 28.8181 35.8092 28.7969 35.2148H28.7949V35.1748H28.7969C28.8179 34.5803 29.3057 34.1045 29.9053 34.1045ZM29.9053 26.4639C30.518 26.4641 31.0146 26.9614 31.0146 27.5742V31.4141C31.0146 32.0268 30.518 32.5242 29.9053 32.5244C29.2923 32.5244 28.7949 32.027 28.7949 31.4141V27.5742C28.7949 26.9613 29.2923 26.4639 29.9053 26.4639ZM18.6895 0.146484C24.0741 0.146484 28.4392 4.51189 28.4395 9.89648C28.4395 15.2813 24.0742 19.6465 18.6895 19.6465C13.3047 19.6464 8.93945 15.2812 8.93945 9.89648C8.93966 4.51196 13.3049 0.146595 18.6895 0.146484ZM18.6895 2.36719C14.5309 2.3673 11.1594 5.73803 11.1592 9.89648C11.1592 14.0551 14.5308 17.4266 18.6895 17.4268C22.8481 17.4268 26.2197 14.0552 26.2197 9.89648C26.2195 5.73796 22.848 2.36719 18.6895 2.36719Z" stroke="black" stroke-width="0.3"/>
<path d="M27.1953 18.9551C28.3121 16.7223 31.4985 16.7221 32.6152 18.9551L41.9883 37.7021C42.9957 39.7167 41.5306 42.0869 39.2783 42.0869H20.5312C18.2793 42.0866 16.8142 39.7165 17.8213 37.7021L27.1953 18.9551ZM15.249 23.6328C15.8593 23.5769 16.3999 24.0263 16.4561 24.6367C16.5121 25.2471 16.0625 25.7877 15.4521 25.8438C11.0549 26.2477 6.7182 27.516 2.70508 29.6484C2.49879 29.7582 2.37012 29.9731 2.37012 30.207V37.2568C2.37016 37.7042 2.73239 38.0663 3.17969 38.0664H11.665C12.2781 38.0664 12.7754 38.5638 12.7754 39.1768C12.7754 39.7899 12.2781 40.2871 11.665 40.2871H3.17969C1.50634 40.287 0.149455 38.9303 0.149414 37.2568V30.207C0.149414 29.1518 0.732386 28.1826 1.66406 27.6875C5.94093 25.4148 10.5625 24.0631 15.249 23.6328ZM30.6299 19.9482C30.3313 19.3512 29.479 19.3513 29.1807 19.9482L19.8076 38.6953C19.5386 39.2338 19.9294 39.8669 20.5312 39.8672H39.2783C39.8802 39.8672 40.2719 39.2339 40.0029 38.6953L30.6299 19.9482ZM29.9053 34.1045C30.5047 34.1047 30.9917 34.5805 31.0127 35.1748H31.0146V35.2148H31.0127C30.9915 35.809 30.5045 36.2839 29.9053 36.2842C29.3058 36.2842 28.8181 35.8092 28.7969 35.2148H28.7949V35.1748H28.7969C28.8179 34.5803 29.3057 34.1045 29.9053 34.1045ZM29.9053 26.4639C30.518 26.4641 31.0146 26.9614 31.0146 27.5742V31.4141C31.0146 32.0268 30.518 32.5242 29.9053 32.5244C29.2923 32.5244 28.7949 32.027 28.7949 31.4141V27.5742C28.7949 26.9613 29.2923 26.4639 29.9053 26.4639ZM18.6895 0.146484C24.0741 0.146484 28.4392 4.51189 28.4395 9.89648C28.4395 15.2813 24.0742 19.6465 18.6895 19.6465C13.3047 19.6464 8.93945 15.2812 8.93945 9.89648C8.93966 4.51196 13.3049 0.146595 18.6895 0.146484ZM18.6895 2.36719C14.5309 2.3673 11.1594 5.73803 11.1592 9.89648C11.1592 14.0551 14.5308 17.4266 18.6895 17.4268C22.8481 17.4268 26.2197 14.0552 26.2197 9.89648C26.2195 5.73796 22.848 2.36719 18.6895 2.36719Z" stroke="url(#paint1_linear_815_7042)" stroke-width="0.3"/>
<defs>
<linearGradient id="paint0_linear_815_7042" x1="-1.78191" y1="42.471" x2="49.2415" y2="-18.1512" gradientUnits="userSpaceOnUse">
<stop stop-color="#C01E6C"/>
<stop offset="1" stop-color="#FF9A3C"/>
</linearGradient>
<linearGradient id="paint1_linear_815_7042" x1="-1.78191" y1="42.471" x2="49.2415" y2="-18.1512" gradientUnits="userSpaceOnUse">
<stop stop-color="#C01E6C"/>
<stop offset="1" stop-color="#FF9A3C"/>
</linearGradient>
</defs>
</svg>
