<svg width="65" height="65" viewBox="0 0 65 65" fill="none" xmlns="http://www.w3.org/2000/svg">
<rect width="65" height="65" rx="8" fill="white" fill-opacity="0.1"/>
<path d="M35.5712 53C35.2045 53 34.8628 52.9083 34.5462 52.725C34.2295 52.5416 33.9878 52.3 33.8212 52C33.6545 51.7 33.5712 51.3666 33.5712 51C33.5712 50.6333 33.6712 50.2833 33.8712 49.95L42.3712 35.95C42.5712 35.6166 42.8212 35.3666 43.1212 35.2C43.4212 35.0333 43.7378 34.95 44.0712 34.95C44.4045 34.95 44.7212 35.0333 45.0212 35.2C45.3212 35.3666 45.5712 35.6166 45.7712 35.95L54.2712 49.95C54.4712 50.2833 54.5712 50.6333 54.5712 51C54.5712 51.3666 54.4878 51.7 54.3212 52C54.1545 52.3 53.9212 52.5416 53.6212 52.725C53.3212 52.9083 52.9712 53 52.5712 53H35.5712ZM44.0787 51.3215C44.4643 51.3215 44.7945 51.1816 45.0692 50.902C45.3438 50.622 45.4812 50.2913 45.4812 49.91C45.4812 49.5286 45.3407 49.2006 45.0597 48.926C44.7787 48.6513 44.4468 48.514 44.0642 48.514C43.6785 48.514 43.3503 48.6533 43.0797 48.932C42.809 49.2106 42.6737 49.5396 42.6737 49.919C42.6737 50.3016 42.8113 50.6311 43.0867 50.9075C43.362 51.1835 43.6927 51.3215 44.0787 51.3215ZM24.8017 49.299C24.4933 49.299 24.2047 49.2235 23.9357 49.0725C23.6667 48.9218 23.4623 48.7115 23.3227 48.4415L19.0747 40.8695H22.6752L24.8442 44.9535H29.3562V43.4535H25.7587L23.5847 39.3695H18.2747L15.1247 33.8455C15.0587 33.7028 15.0028 33.56 14.9572 33.417C14.9115 33.274 14.8887 33.131 14.8887 32.988C14.8887 32.8973 14.9673 32.6155 15.1247 32.1425L18.2747 26.6305H23.5847L25.7587 22.5465H29.3562V21.0465H24.8492L22.6727 25.1305H19.0747L23.3227 17.5465C23.4623 17.2845 23.6667 17.0761 23.9357 16.9215C24.2047 16.7665 24.4933 16.689 24.8017 16.689H30.5582C31.0392 16.689 31.4413 16.855 31.7647 17.187C32.088 17.5186 32.2497 17.9245 32.2497 18.4045V27.1545H27.9282L26.4282 28.6545H32.2497V35.3575H27.2422L25.2517 31.286H20.3442L18.8442 32.786H24.2442L26.2917 36.8575H32.2497V46.8195L31.5477 47.998C31.4047 48.2046 31.2862 48.4195 31.1922 48.6425C31.0982 48.8651 31.0062 49.084 30.9162 49.299H24.8017ZM42.8237 46.926H45.3312V39.423H42.8237V46.926ZM33.7497 44.3695V28.6545H39.5712L38.0712 27.1545H33.7497V18.4045C33.7497 17.9245 33.9133 17.5186 34.2407 17.187C34.568 16.855 34.9722 16.689 35.4532 16.689H41.2097C41.518 16.689 41.8067 16.7665 42.0757 16.9215C42.3447 17.0761 42.549 17.2885 42.6887 17.5585L46.9247 25.1305H43.3312L41.1672 21.0465H36.6432V22.5465H40.2527L42.4147 26.6305H47.7247L50.8747 32.1545C50.9707 32.2955 51.034 32.4356 51.0647 32.575C51.0953 32.7146 51.1107 32.8563 51.1107 33C51.1107 33.0906 51.032 33.3725 50.8747 33.8455L49.5147 36.277L48.1072 33.936C47.6992 33.2533 47.1632 32.7516 46.4992 32.431C45.8348 32.1103 45.0255 31.95 44.0712 31.95C43.1172 31.95 42.3183 32.1083 41.6747 32.425C41.0313 32.7416 40.5062 33.2441 40.0992 33.9325L33.7497 44.3695Z" fill="url(#paint0_linear_155_884)"/>
<defs>
<linearGradient id="paint0_linear_155_884" x1="48.2232" y1="42.8249" x2="18.2253" y2="42.7752" gradientUnits="userSpaceOnUse">
<stop stop-color="#F37A3A"/>
<stop offset="1" stop-color="#CA1C69"/>
</linearGradient>
</defs>
</svg>
