<svg width="48" height="48" viewBox="0 0 48 48" fill="none" xmlns="http://www.w3.org/2000/svg">
<g clip-path="url(#clip0_244_12335)">
<path d="M35.3438 11.25C34.5671 11.25 33.9375 11.8796 33.9375 12.6562V18.2812C33.9375 19.0579 34.5671 19.6875 35.3438 19.6875C36.1204 19.6875 36.75 19.0579 36.75 18.2812V12.6562C36.75 11.8796 36.1204 11.25 35.3438 11.25Z" fill="black"/>
<path d="M35.3438 11.25C34.5671 11.25 33.9375 11.8796 33.9375 12.6562V18.2812C33.9375 19.0579 34.5671 19.6875 35.3438 19.6875C36.1204 19.6875 36.75 19.0579 36.75 18.2812V12.6562C36.75 11.8796 36.1204 11.25 35.3438 11.25Z" fill="url(#paint0_linear_244_12335)"/>
<path d="M35.3437 0C28.3024 0 22.6875 5.71678 22.6875 12.6562C22.6875 15.7306 23.7704 18.6266 25.7582 20.9224L22.7802 26.1127C22.1339 27.2392 23.2353 28.5576 24.4529 28.1438L33.27 25.1446C41.1234 26.3802 48 20.3796 48 12.6562C48 5.67759 42.3224 0 35.3437 0ZM33.4135 22.3158C33.1761 22.2713 32.9312 22.289 32.7026 22.3668L27.0733 24.2816L28.7165 21.4176C29.036 20.8607 28.9378 20.158 28.4778 19.7101C26.5575 17.8407 25.5 15.3356 25.5 12.6562C25.5 7.25972 29.8631 2.8125 35.3437 2.8125C40.7716 2.8125 45.1875 7.22841 45.1875 12.6562C45.1875 18.7561 39.6705 23.4832 33.4135 22.3158Z" fill="black"/>
<path d="M35.3437 0C28.3024 0 22.6875 5.71678 22.6875 12.6562C22.6875 15.7306 23.7704 18.6266 25.7582 20.9224L22.7802 26.1127C22.1339 27.2392 23.2353 28.5576 24.4529 28.1438L33.27 25.1446C41.1234 26.3802 48 20.3796 48 12.6562C48 5.67759 42.3224 0 35.3437 0ZM33.4135 22.3158C33.1761 22.2713 32.9312 22.289 32.7026 22.3668L27.0733 24.2816L28.7165 21.4176C29.036 20.8607 28.9378 20.158 28.4778 19.7101C26.5575 17.8407 25.5 15.3356 25.5 12.6562C25.5 7.25972 29.8631 2.8125 35.3437 2.8125C40.7716 2.8125 45.1875 7.22841 45.1875 12.6562C45.1875 18.7561 39.6705 23.4832 33.4135 22.3158Z" fill="url(#paint1_linear_244_12335)"/>
<path d="M16.5245 29.2034C16.7762 29.0055 17.0197 28.7943 17.2516 28.5666C18.8828 26.9648 19.7812 24.8436 19.7812 22.5938C19.7812 17.9366 15.9093 14.1562 11.25 14.1562C6.59756 14.1562 2.8125 17.9413 2.8125 22.5938C2.8125 25.2784 4.07288 27.674 6.03291 29.2205C2.47069 30.9039 0 34.5315 0 38.7258V46.5938C0 47.3704 0.629625 48 1.40625 48H21.1875C21.9641 48 22.5938 47.3704 22.5938 46.5938V38.7258C22.5938 34.5172 20.1062 30.8793 16.5245 29.2034ZM5.625 22.5938C5.625 19.4921 8.14837 16.9688 11.25 16.9688C14.3498 16.9688 16.9688 19.5447 16.9688 22.5938C16.9688 25.6428 14.3498 28.2188 11.25 28.2188C8.14837 28.2188 5.625 25.6954 5.625 22.5938ZM19.7812 45.1875H2.8125V38.7258C2.8125 34.483 6.26419 31.0312 10.507 31.0312H12.0867C16.3296 31.0312 19.7812 34.483 19.7812 38.7258V45.1875Z" fill="black"/>
<path d="M16.5245 29.2034C16.7762 29.0055 17.0197 28.7943 17.2516 28.5666C18.8828 26.9648 19.7812 24.8436 19.7812 22.5938C19.7812 17.9366 15.9093 14.1562 11.25 14.1562C6.59756 14.1562 2.8125 17.9413 2.8125 22.5938C2.8125 25.2784 4.07288 27.674 6.03291 29.2205C2.47069 30.9039 0 34.5315 0 38.7258V46.5938C0 47.3704 0.629625 48 1.40625 48H21.1875C21.9641 48 22.5938 47.3704 22.5938 46.5938V38.7258C22.5938 34.5172 20.1062 30.8793 16.5245 29.2034ZM5.625 22.5938C5.625 19.4921 8.14837 16.9688 11.25 16.9688C14.3498 16.9688 16.9688 19.5447 16.9688 22.5938C16.9688 25.6428 14.3498 28.2188 11.25 28.2188C8.14837 28.2188 5.625 25.6954 5.625 22.5938ZM19.7812 45.1875H2.8125V38.7258C2.8125 34.483 6.26419 31.0312 10.507 31.0312H12.0867C16.3296 31.0312 19.7812 34.483 19.7812 38.7258V45.1875Z" fill="url(#paint2_linear_244_12335)"/>
<path d="M35.3438 8.4375C36.1204 8.4375 36.75 7.8079 36.75 7.03125C36.75 6.2546 36.1204 5.625 35.3438 5.625C34.5671 5.625 33.9375 6.2546 33.9375 7.03125C33.9375 7.8079 34.5671 8.4375 35.3438 8.4375Z" fill="black"/>
<path d="M35.3438 8.4375C36.1204 8.4375 36.75 7.8079 36.75 7.03125C36.75 6.2546 36.1204 5.625 35.3438 5.625C34.5671 5.625 33.9375 6.2546 33.9375 7.03125C33.9375 7.8079 34.5671 8.4375 35.3438 8.4375Z" fill="url(#paint3_linear_244_12335)"/>
</g>
<defs>
<linearGradient id="paint0_linear_244_12335" x1="-2.38692" y1="48.6154" x2="56.482" y2="-20.957" gradientUnits="userSpaceOnUse">
<stop stop-color="#C01E6C"/>
<stop offset="1" stop-color="#FF9A3C"/>
</linearGradient>
<linearGradient id="paint1_linear_244_12335" x1="-2.38692" y1="48.6154" x2="56.482" y2="-20.957" gradientUnits="userSpaceOnUse">
<stop stop-color="#C01E6C"/>
<stop offset="1" stop-color="#FF9A3C"/>
</linearGradient>
<linearGradient id="paint2_linear_244_12335" x1="-2.38692" y1="48.6154" x2="56.482" y2="-20.957" gradientUnits="userSpaceOnUse">
<stop stop-color="#C01E6C"/>
<stop offset="1" stop-color="#FF9A3C"/>
</linearGradient>
<linearGradient id="paint3_linear_244_12335" x1="-2.38692" y1="48.6154" x2="56.482" y2="-20.957" gradientUnits="userSpaceOnUse">
<stop stop-color="#C01E6C"/>
<stop offset="1" stop-color="#FF9A3C"/>
</linearGradient>
<clipPath id="clip0_244_12335">
<rect width="48" height="48" fill="white"/>
</clipPath>
</defs>
</svg>
