<svg width="48" height="48" viewBox="0 0 48 48" fill="none" xmlns="http://www.w3.org/2000/svg">
<path d="M24 44.2995C21.1537 44.2995 18.7316 43.2968 16.7336 41.2915C14.7359 39.2861 13.737 36.8558 13.737 34.0005V16.2995C12.621 16.2435 11.6694 15.818 10.882 15.023C10.0947 14.2276 9.70105 13.272 9.70105 12.156V7.88195C9.70105 6.72529 10.1162 5.73745 10.9465 4.91845C11.7765 4.09912 12.7744 3.68945 13.94 3.68945H34.0715C35.2332 3.68945 36.2302 4.09912 37.0625 4.91845C37.8949 5.73745 38.311 6.72529 38.311 7.88195V12.156C38.311 13.272 37.9154 14.2276 37.124 15.023C36.3327 15.818 35.383 16.2435 34.275 16.2995V34.0005C34.275 36.8558 33.2742 39.2861 31.2725 41.2915C29.2705 43.2968 26.8464 44.2995 24 44.2995ZM13.0241 13.0125H34.988V7.01245H13.0241V13.0125ZM23.987 40.9765C25.9154 40.9765 27.5582 40.298 28.9155 38.941C30.2732 37.5836 30.952 35.9368 30.952 34.0005V33.0005H25.488C25.031 33.0005 24.6489 32.8431 24.3415 32.5285C24.0342 32.2138 23.8805 31.8276 23.8805 31.37C23.8805 30.912 24.0342 30.5293 24.3415 30.222C24.6489 29.915 25.031 29.7615 25.488 29.7615H30.952V25.0365H25.488C25.031 25.0365 24.6489 24.8791 24.3415 24.5645C24.0342 24.2498 23.8805 23.8635 23.8805 23.4055C23.8805 22.9478 24.0342 22.5653 24.3415 22.258C24.6489 21.9506 25.031 21.797 25.488 21.797H30.952V16.3355H17.0601V33.9965C17.0601 35.9355 17.7324 37.5836 19.0771 38.941C20.4221 40.298 22.0587 40.9765 23.987 40.9765Z" fill="url(#paint0_linear_238_8085)"/>
<defs>
<linearGradient id="paint0_linear_238_8085" x1="8.27834" y1="44.8201" x2="57.9447" y2="3.46796" gradientUnits="userSpaceOnUse">
<stop stop-color="#C01E6C"/>
<stop offset="1" stop-color="#FF9A3C"/>
</linearGradient>
</defs>
</svg>
