<svg width="64" height="64" viewBox="0 0 64 64" fill="none" xmlns="http://www.w3.org/2000/svg">
<path d="M35 19.001H43V21.001H35V19.001Z" fill="#C01E6C"/>
<path d="M35 15.001H43V17.001H35V15.001Z" fill="#C01E6C"/>
<path d="M35 13.001H43V5.00098H35V13.001ZM37 7.00098H41V11.001H37V7.00098Z" fill="#C01E6C"/>
<path d="M21 5.00098H29V7.00098H21V5.00098Z" fill="#C01E6C"/>
<path d="M21 9.00098H29V11.001H21V9.00098Z" fill="#C01E6C"/>
<path d="M21 21.001H29V13.001H21V21.001ZM23 15.001H27V19.001H23V15.001Z" fill="#C01E6C"/>
<path d="M44.303 61.001L43.667 60.577C42.678 59.918 41.804 59.121 41.037 58.234C42.258 57.736 43.44 57.138 44.567 56.443L47.036 57.733L53.731 51.038L52.442 48.569C53.784 46.393 54.759 44.043 55.346 41.567L58 40.735V31.266L55.348 30.433C54.715 27.768 53.636 25.251 52.159 22.984L51 20.955V7.00098H47V1.00098H36C34.359 1.00098 32.912 1.80698 32 3.03198C31.088 1.80698 29.641 1.00098 28 1.00098H17V7.00098H13V21.284L11.872 22.936C10.367 25.249 9.285 27.769 8.652 30.435L6 31.267V40.736L8.653 41.568C9.24 44.044 10.216 46.394 11.557 48.57L10.268 51.039L16.963 57.734L19.432 56.444C20.558 57.138 21.74 57.737 22.963 58.235C22.196 59.121 21.322 59.919 20.333 60.578L19.697 61.001H1V63.001H63V61.001H44.303ZM51 26.001V24.96C52.177 26.977 53.037 29.14 53.52 31.423L53.641 31.995L56 32.735V39.266L53.641 40.006L53.52 40.578C52.962 43.214 51.93 45.703 50.452 47.975L50.133 48.464L51.28 50.661L46.661 55.278L44.465 54.131L43.975 54.45C42.66 55.306 41.257 56.007 39.8 56.561C39.114 55.457 38.588 54.254 38.252 52.986C43.649 52.853 48 48.43 48 43.001V41.001H49C51.757 41.001 54 38.758 54 36.001C54 33.244 51.757 31.001 49 31.001H48V29.001C49.654 29.001 51 27.655 51 26.001ZM38 51.001H26C21.589 51.001 18 47.412 18 43.001V29.001H27.101C27.565 31.28 29.586 33.001 32 33.001C34.414 33.001 36.435 31.28 36.899 29.001H46V43.001C46 47.412 42.411 51.001 38 51.001ZM48 39.001V33.001H49C50.654 33.001 52 34.347 52 36.001C52 37.655 50.654 39.001 49 39.001H48ZM33 6.00098C33 4.34698 34.346 3.00098 36 3.00098H45V23.001H33V6.00098ZM19 3.00098H28C29.654 3.00098 31 4.34698 31 6.00098V23.001H19V3.00098ZM15 9.00098H17V25.001H47V9.00098H49V26.001C49 26.552 48.551 27.001 48 27.001H35V28.001C35 29.655 33.654 31.001 32 31.001C30.346 31.001 29 29.655 29 28.001V27.001H16C15.449 27.001 15 26.552 15 26.001V9.00098ZM20.025 54.452L19.535 54.133L17.339 55.28L12.72 50.663L13.867 48.466L13.548 47.977C12.069 45.705 11.037 43.215 10.48 40.58L10.359 40.008L8 39.267V32.736L10.359 31.995L10.48 31.423C10.964 29.134 11.827 26.967 13 24.958V26.001C13 27.655 14.346 29.001 16 29.001V31.001H15C12.243 31.001 10 33.244 10 36.001C10 38.758 12.243 41.001 15 41.001H16V43.001C16 48.43 20.351 52.853 25.748 52.988C25.413 54.256 24.886 55.458 24.201 56.562C22.742 56.008 21.338 55.306 20.025 54.452ZM16 33.001V39.001H15C13.346 39.001 12 37.655 12 36.001C12 34.347 13.346 33.001 15 33.001H16ZM23.03 61.001C25.407 58.907 27.081 56.103 27.79 53.001H36.21C36.92 56.103 38.593 58.907 40.97 61.001H23.03Z" fill="#C01E6C"/>
<path d="M32 47.001C29.794 47.001 28 45.207 28 43.001H26C26 46.31 28.691 49.001 32 49.001C35.309 49.001 38 46.31 38 43.001H36C36 45.207 34.206 47.001 32 47.001Z" fill="#C01E6C"/>
<path d="M39 36.001C38.449 36.001 38 35.553 38 35.001H36C36 36.655 37.346 38.001 39 38.001C40.654 38.001 42 36.655 42 35.001H40C40 35.553 39.551 36.001 39 36.001Z" fill="#C01E6C"/>
<path d="M28 35.001H26C26 35.553 25.551 36.001 25 36.001C24.449 36.001 24 35.553 24 35.001H22C22 36.655 23.346 38.001 25 38.001C26.654 38.001 28 36.655 28 35.001Z" fill="#C01E6C"/>
</svg>
