<svg width="55" height="54" viewBox="0 0 55 54" fill="none" xmlns="http://www.w3.org/2000/svg">
<path d="M3.30163 53.33V47.9946H13.2792L4.73784 20.0463C3.29393 19.3485 2.14386 18.3492 1.28764 17.0484C0.429212 15.7497 0 14.2563 0 12.5681C0 10.2811 0.804497 8.33318 2.41349 6.72419C4.02249 5.11519 5.97045 4.3118 8.25738 4.314C10.2758 4.314 12.008 4.9325 13.4541 6.16951C14.9003 7.40653 15.8687 8.98911 16.3596 10.9173H28.4435V5.96481C28.4435 5.49378 28.602 5.10089 28.919 4.78613C29.2359 4.47137 29.6288 4.314 30.0977 4.314C30.4652 4.314 30.7877 4.42405 31.065 4.64416C31.3424 4.86427 31.5185 5.15151 31.5933 5.50589V6.39733L37.5891 0.857191C38.0425 0.403767 38.5487 0.129731 39.1078 0.0350845C39.6713 -0.0595622 40.2194 0.0372858 40.752 0.325628L53.2454 6.1398C53.6526 6.3445 53.9585 6.63614 54.1632 7.01473C54.3679 7.39332 54.3757 7.77851 54.1864 8.1703C53.9839 8.5775 53.6933 8.83503 53.3147 8.94288C52.9361 9.05074 52.5487 9.01002 52.1525 8.82072L39.6328 2.99004L31.7485 10.2536V14.8759L39.6328 21.9744L52.1525 16.147C52.5465 15.9577 52.9361 15.9203 53.3213 16.0348C53.7043 16.147 53.9916 16.4002 54.1831 16.7942C54.3856 17.2014 54.3811 17.591 54.1698 17.9629C53.9585 18.3371 53.6504 18.6255 53.2454 18.828L40.7487 24.6818C40.2139 24.9679 39.6669 25.0537 39.1078 24.9393C38.5465 24.8226 38.0392 24.5585 37.5858 24.1469L31.5933 18.7388V19.627C31.5163 19.9571 31.3391 20.2389 31.0617 20.4722C30.7844 20.7055 30.4619 20.8222 30.0944 20.8222C29.6233 20.8222 29.2304 20.6637 28.9157 20.3467C28.6009 20.032 28.4435 19.6402 28.4435 19.1713V14.2189H16.353C16.1879 14.9541 15.9139 15.6837 15.5309 16.4079C15.1479 17.132 14.7275 17.7351 14.2696 18.2172L30.2726 47.9979H42.9179V53.3267L3.30163 53.33ZM11.7439 16.0612C12.7168 15.0905 13.2032 13.925 13.2032 12.5648C13.2032 11.2045 12.7168 10.0401 11.7439 9.07165C10.771 8.10317 9.60664 7.61673 8.25077 7.61233C6.8949 7.60792 5.72833 8.09437 4.75105 9.07165C3.78257 10.0423 3.29833 11.2067 3.29833 12.5648C3.29833 13.925 3.78257 15.0905 4.75105 16.0612C5.72393 17.0341 6.8905 17.5205 8.25077 17.5205C9.61105 17.5205 10.7754 17.0341 11.7439 16.0612ZM16.7459 47.9946H26.4857L11.5293 20.1849C11.1903 20.3962 10.7116 20.5767 10.0931 20.7264C9.47458 20.8761 8.9122 20.908 8.40595 20.8222L16.7459 47.9946Z" fill="url(#paint0_linear_696_6750)"/>
<defs>
<linearGradient id="paint0_linear_696_6750" x1="0" y1="0" x2="62.7758" y2="13.2138" gradientUnits="userSpaceOnUse">
<stop stop-color="#511F5E"/>
<stop offset="1" stop-color="#C01E6C"/>
</linearGradient>
</defs>
</svg>
