<svg xmlns="http://www.w3.org/2000/svg" width="27" height="36" fill="none"><path fill="url(#a)" d="M11.8 17.922a.58.58 0 0 1-.408-.17L8.5 14.863a.578.578 0 1 1 .817-.818l2.482 2.482 5.373-5.372a.577.577 0 1 1 .817.817l-5.781 5.782a.58.58 0 0 1-.409.169m14.212-1.464c.726 1.428.616 3.722-.25 5.221-.8 1.387-2.509 2.56-4.025 2.82l3.9 6.76a.58.58 0 0 1-.009.593.57.57 0 0 1-.528.273l-4.073-.26-1.812 3.657a.58.58 0 0 1-.5.321h-.018a.58.58 0 0 1-.5-.289l-3.91-6.77a5 5 0 0 1-1.041.122c-.34 0-.69-.05-1.042-.122l-3.91 6.77a.58.58 0 0 1-.5.29h-.019a.58.58 0 0 1-.5-.322l-1.811-3.656-4.073.26a.579.579 0 0 1-.538-.866l3.901-6.76C3.238 24.24 1.53 23.067.73 21.68c-.865-1.5-.975-3.794-.25-5.221.552-1.087.552-2.923 0-4.01-.725-1.428-.615-3.72.25-5.22.864-1.497 2.79-2.761 4.385-2.879 1.224-.089 2.821-1.01 3.489-2.01C9.476 1.026 11.515 0 13.246 0s3.77 1.027 4.643 2.339c.666 1 2.264 1.922 3.488 2.01 1.596.118 3.523 1.381 4.385 2.878.866 1.502.976 3.794.25 5.22-.551 1.088-.551 2.924 0 4.011M11.07 28.435c-1.026-.424-1.952-1.093-2.468-1.867-.521-.783-1.611-1.51-2.647-1.836l-3.562 6.17 3.38-.215a.575.575 0 0 1 .555.32l1.504 3.035zm13.028 2.468-3.563-6.17c-1.036.325-2.126 1.052-2.646 1.835-.517.774-1.442 1.443-2.468 1.866l3.238 5.608 1.503-3.034a.575.575 0 0 1 .555-.32zm.884-18.98c.547-1.075.446-2.961-.22-4.118-.669-1.158-2.258-2.213-3.47-2.301-1.582-.116-3.5-1.225-4.366-2.524-.657-.989-2.343-1.824-3.68-1.824s-3.023.835-3.681 1.824c-.867 1.3-2.785 2.408-4.367 2.523-1.21.089-2.799 1.143-3.468 2.302-.667 1.156-.768 3.042-.22 4.119.72 1.418.72 3.64 0 5.058-.548 1.077-.447 2.963.22 4.12.669 1.158 2.257 2.212 3.468 2.3 1.582.117 3.5 1.225 4.366 2.524.659.99 2.345 1.824 3.682 1.824s3.023-.835 3.68-1.823c.865-1.3 2.783-2.408 4.367-2.524 1.212-.088 2.8-1.142 3.468-2.3.666-1.157.768-3.044.22-4.121-.72-1.418-.72-3.64 0-5.058m-2.486 2.53c0 5.1-4.15 9.25-9.25 9.25s-9.25-4.15-9.25-9.25 4.15-9.25 9.25-9.25 9.25 4.15 9.25 9.25m-1.157 0c0-4.463-3.63-8.094-8.093-8.094-4.464 0-8.094 3.631-8.094 8.094s3.63 8.094 8.094 8.094 8.093-3.63 8.093-8.094"/><defs><linearGradient id="a" x1="13.246" x2="13.245" y1="0" y2="35.844" gradientUnits="userSpaceOnUse"><stop stop-color="#C01E6C"/><stop offset="1" stop-color="#461148"/></linearGradient></defs></svg>