<svg width="53" height="53" viewBox="0 0 53 53" fill="none" xmlns="http://www.w3.org/2000/svg">
<path d="M11.7778 10.3056L23.5556 17.6667L11.7778 25.0278V10.3056Z" fill="url(#paint0_linear_696_6755)"/>
<path fill-rule="evenodd" clip-rule="evenodd" d="M5.88889 0C4.32706 0 2.8292 0.620434 1.72482 1.72482C0.620434 2.8292 0 4.32706 0 5.88889V47.1111C0 48.6729 0.620434 50.1708 1.72482 51.2752C2.8292 52.3796 4.32706 53 5.88889 53H47.1111C48.6729 53 50.1708 52.3796 51.2752 51.2752C52.3796 50.1708 53 48.6729 53 47.1111V5.88889C53 4.32706 52.3796 2.8292 51.2752 1.72482C50.1708 0.620434 48.6729 0 47.1111 0H5.88889ZM47.1111 4.41667H5.88889C5.49843 4.41667 5.12397 4.57178 4.84787 4.84787C4.57178 5.12397 4.41667 5.49843 4.41667 5.88889V37.4151L15.105 29.6241C15.466 29.3603 15.8985 29.2124 16.3454 29.1998C16.7923 29.1871 17.2325 29.3104 17.6078 29.5534L26.2232 35.139L36.7378 24.9159C37.1501 24.5148 37.7026 24.2904 38.2778 24.2904C38.853 24.2904 39.4055 24.5148 39.8177 24.9159L48.5833 33.4401V5.88889C48.5833 5.49843 48.4282 5.12397 48.1521 4.84787C47.876 4.57178 47.5016 4.41667 47.1111 4.41667ZM4.41667 47.1111V42.8829L16.4771 34.0878L25.2987 39.803C25.7181 40.0748 26.2173 40.1963 26.7147 40.1476C27.2121 40.0989 27.6782 39.883 28.037 39.5351L38.2778 29.5799L48.5156 39.5321L48.5833 39.4644V47.1111C48.5833 47.5016 48.4282 47.876 48.1521 48.1521C47.876 48.4282 47.5016 48.5833 47.1111 48.5833H5.88889C5.49843 48.5833 5.12397 48.4282 4.84787 48.1521C4.57178 47.876 4.41667 47.5016 4.41667 47.1111Z" fill="url(#paint1_linear_696_6755)"/>
<defs>
<linearGradient id="paint0_linear_696_6755" x1="0" y1="0" x2="61.3322" y2="12.6719" gradientUnits="userSpaceOnUse">
<stop stop-color="#511F5E"/>
<stop offset="1" stop-color="#C01E6C"/>
</linearGradient>
<linearGradient id="paint1_linear_696_6755" x1="0" y1="0" x2="61.3322" y2="12.6719" gradientUnits="userSpaceOnUse">
<stop stop-color="#511F5E"/>
<stop offset="1" stop-color="#C01E6C"/>
</linearGradient>
</defs>
</svg>
