<svg width="48" height="48" viewBox="0 0 48 48" fill="none" xmlns="http://www.w3.org/2000/svg">
<path d="M18.2123 10.896C19.4083 7.396 24.2443 7.29 25.6623 10.578L25.7823 10.898L27.3963 15.618C27.7661 16.7005 28.3639 17.691 29.1491 18.5228C29.9344 19.3547 30.8889 20.0084 31.9483 20.44L32.3823 20.602L37.1023 22.214C40.6023 23.41 40.7083 28.246 37.4223 29.664L37.1023 29.784L32.3823 31.398C31.2994 31.7676 30.3085 32.3653 29.4763 33.1505C28.6441 33.9358 27.99 34.8904 27.5583 35.95L27.3963 36.382L25.7843 41.104C24.5883 44.604 19.7523 44.71 18.3363 41.424L18.2123 41.104L16.6003 36.384C16.2306 35.3012 15.633 34.3102 14.8477 33.478C14.0625 32.6459 13.1078 31.9918 12.0483 31.56L11.6163 31.398L6.89626 29.786C3.39426 28.59 3.28826 23.754 6.57626 22.338L6.89626 22.214L11.6163 20.602C12.6987 20.2321 13.6893 19.6344 14.5211 18.8491C15.3529 18.0639 16.0067 17.1094 16.4383 16.05L16.6003 15.618L18.2123 10.896ZM21.9983 12.188L20.3863 16.908C19.823 18.5586 18.9068 20.0666 17.7013 21.327C16.4959 22.5874 15.0301 23.5699 13.4063 24.206L12.9063 24.388L8.18626 26L12.9063 27.612C14.5569 28.1752 16.0649 29.0915 17.3252 30.2969C18.5856 31.5024 19.5681 32.9681 20.2043 34.592L20.3863 35.092L21.9983 39.812L23.6103 35.092C24.1735 33.4414 25.0897 31.9334 26.2952 30.673C27.5007 29.4126 28.9664 28.4301 30.5903 27.794L31.0903 27.614L35.8103 26L31.0903 24.388C29.4396 23.8248 27.9317 22.9085 26.6713 21.7031C25.4109 20.4976 24.4284 19.0319 23.7923 17.408L23.6123 16.908L21.9983 12.188ZM37.9983 4C38.3724 4 38.7391 4.10496 39.0566 4.30294C39.374 4.50093 39.6296 4.78401 39.7943 5.12L39.8903 5.354L40.5903 7.406L42.6443 8.106C43.0192 8.23339 43.3479 8.46923 43.5887 8.78363C43.8295 9.09803 43.9715 9.47684 43.9968 9.87204C44.0221 10.2672 43.9295 10.6611 43.7307 11.0036C43.5319 11.3461 43.2359 11.6219 42.8803 11.796L42.6443 11.892L40.5923 12.592L39.8923 14.646C39.7646 15.0209 39.5286 15.3494 39.2141 15.59C38.8996 15.8306 38.5207 15.9724 38.1255 15.9974C37.7303 16.0225 37.3366 15.9297 36.9942 15.7308C36.6518 15.5318 36.3762 15.2357 36.2023 14.88L36.1063 14.646L35.4063 12.594L33.3523 11.894C32.9773 11.7666 32.6486 11.5308 32.4078 11.2164C32.167 10.902 32.025 10.5232 31.9997 10.128C31.9744 9.73275 32.067 9.33894 32.2658 8.99643C32.4646 8.65391 32.7606 8.37812 33.1163 8.204L33.3523 8.108L35.4043 7.408L36.1043 5.354C36.2391 4.95885 36.4943 4.61582 36.8339 4.373C37.1736 4.13018 37.5807 3.99975 37.9983 4Z" fill="#C01E6C"/>
</svg>
