<svg width="48" height="48" viewBox="0 0 48 48" fill="none" xmlns="http://www.w3.org/2000/svg">
<path d="M12 4.2002H27.1719C28.1796 4.20041 29.1459 4.60081 29.8584 5.31348L38.6865 14.1416C39.3992 14.8541 39.7996 15.8204 39.7998 16.8281V40C39.7998 41.0078 39.3992 41.9739 38.6865 42.6865C37.9739 43.3992 37.0078 43.7998 36 43.7998H12C10.9922 43.7998 10.0261 43.3992 9.31348 42.6865C8.60084 41.9739 8.2002 41.0078 8.2002 40V8C8.2002 6.99218 8.60084 6.02611 9.31348 5.31348C10.0261 4.60084 10.9922 4.2002 12 4.2002ZM11.7998 40.2002H36.2002V19.7998H27C26.2574 19.7998 25.5456 19.5046 25.0205 18.9795C24.4954 18.4544 24.2002 17.7426 24.2002 17V7.7998H11.7998V40.2002ZM24 32.2002C24.4774 32.2002 24.9349 32.39 25.2725 32.7275C25.61 33.0651 25.7998 33.5226 25.7998 34C25.7998 34.4774 25.61 34.9349 25.2725 35.2725C24.9349 35.61 24.4774 35.7998 24 35.7998C23.5226 35.7998 23.0651 35.61 22.7275 35.2725C22.39 34.9349 22.2002 34.4774 22.2002 34C22.2002 33.5226 22.39 33.0651 22.7275 32.7275C23.0651 32.39 23.5226 32.2002 24 32.2002ZM24 22.2002C24.4774 22.2002 24.9349 22.39 25.2725 22.7275C25.61 23.0651 25.7998 23.5226 25.7998 24V28C25.7998 28.4774 25.61 28.9349 25.2725 29.2725C24.9349 29.61 24.4774 29.7998 24 29.7998C23.5226 29.7998 23.0651 29.61 22.7275 29.2725C22.39 28.9349 22.2002 28.4774 22.2002 28V24C22.2002 23.5226 22.39 23.0651 22.7275 22.7275C23.0651 22.39 23.5226 22.2002 24 22.2002ZM27.7998 16.2002H35.6553L27.7998 8.34473V16.2002Z" fill="#F37A3A" stroke="white" stroke-width="0.4"/>
</svg>
