<svg width="48" height="48" viewBox="0 0 48 48" fill="none" xmlns="http://www.w3.org/2000/svg">
<mask id="mask0_836_9534" style="mask-type:luminance" maskUnits="userSpaceOnUse" x="0" y="0" width="48" height="48">
<path d="M0 0H48V48H0V0Z" fill="white"/>
</mask>
<g mask="url(#mask0_836_9534)">
<path d="M29.6269 7.00744V29.6949C29.6269 32.8015 27.1085 35.3199 24.0019 35.3199C20.8953 35.3199 18.3769 32.8015 18.3769 29.6949V24.0699L24.0019 29.6949M29.6269 7.00744C31.1802 7.00744 32.4394 5.74865 32.4394 4.19531C32.4394 2.64196 31.1802 1.38281 29.6269 1.38281C28.0737 1.38281 26.8144 2.64196 26.8144 4.19531C26.8144 5.74865 28.0737 7.00744 29.6269 7.00744ZM43.7829 40.9477H4.22037V15.6352H43.7829V40.9477ZM40.9707 46.5699H7.0332C3.92661 46.5699 1.4082 44.0515 1.4082 40.9449H46.5957C46.5957 44.0515 44.0773 46.5699 40.9707 46.5699Z" stroke="url(#paint0_linear_836_9534)" stroke-width="2" stroke-miterlimit="10" stroke-linecap="round"/>
</g>
<defs>
<linearGradient id="paint0_linear_836_9534" x1="-0.838861" y1="47.1493" x2="54.5802" y2="-18.3466" gradientUnits="userSpaceOnUse">
<stop stop-color="#C01E6C"/>
<stop offset="1" stop-color="#FF9A3C"/>
</linearGradient>
</defs>
</svg>
