<svg width="48" height="48" viewBox="0 0 48 48" fill="none" xmlns="http://www.w3.org/2000/svg">
<g clip-path="url(#clip0_244_12590)">
<path d="M27.8705 46.5938H2.81445C2.29667 46.5938 1.87695 46.174 1.87695 45.6562V10.8787L11.4039 1.40625H34.8834C35.4012 1.40625 35.8209 1.82597 35.8209 2.34375V21.2825M11.4039 1.875V10.8777H2.3457M8.10446 27.8429H23.0401M8.10446 33.4683H20.3346M8.10446 39.0933H20.3346M8.10446 22.2194H23.0401M25.5405 8.88757V14.3454M28.2853 11.6164H22.7955M43.2558 28.0524H27.9146M43.2558 28.0524L45.1412 31.7483C45.788 33.0163 46.1252 34.4195 46.1252 35.8429V46.5931H25.0453V35.8429C25.0453 34.4194 25.3825 33.0162 26.0293 31.7483L27.9146 28.0524M43.2558 28.0524L43.2558 23.9062C43.2558 22.8706 42.4163 22.0312 41.3808 22.0312H29.7896C28.754 22.0312 27.9146 22.8706 27.9146 23.9062L27.9146 28.0524M35.5853 34.5959V40.0538M38.3302 37.3248H32.8404" stroke="url(#paint0_linear_244_12590)" stroke-width="2.5" stroke-miterlimit="10" stroke-linecap="round" stroke-linejoin="round"/>
</g>
<defs>
<linearGradient id="paint0_linear_244_12590" x1="-0.323404" y1="47.1731" x2="55.2772" y2="-17.171" gradientUnits="userSpaceOnUse">
<stop stop-color="#C01E6C"/>
<stop offset="1" stop-color="#FF9A3C"/>
</linearGradient>
<clipPath id="clip0_244_12590">
<rect width="48" height="48" fill="white"/>
</clipPath>
</defs>
</svg>
