<svg width="64" height="54" viewBox="0 0 64 54" fill="none" xmlns="http://www.w3.org/2000/svg">
<path d="M14.9141 0.25H48.6943C50.1421 0.250033 51.5148 0.894593 52.4404 2.00879L62.9023 14.6328V14.6338C64.742 16.8493 63.1662 20.2051 60.2832 20.2051H57.8535V46.0244C57.8535 47.8956 57.1103 49.6905 55.7871 51.0137C54.464 52.3368 52.669 53.0801 50.7979 53.0801H12.8096C10.9384 53.08 9.14344 52.3368 7.82031 51.0137C6.49723 49.6905 5.75391 47.8956 5.75391 46.0244V20.2051H3.32422C0.44453 20.205 -1.13166 16.8488 0.706055 14.6299L11.1699 2.00977C11.6263 1.45938 12.1986 1.016 12.8457 0.711914C13.412 0.445832 14.0234 0.292151 14.6465 0.257812L14.9141 0.25ZM9.6377 46.0244C9.6377 46.8657 9.97158 47.6727 10.5664 48.2676C11.1613 48.8625 11.9683 49.1963 12.8096 49.1963H50.7979C51.6391 49.1963 52.4461 48.8624 53.041 48.2676C53.6359 47.6727 53.9707 46.8657 53.9707 46.0244V20.2051H9.6377V46.0244ZM19.3848 30.9326C20.2872 30.9327 21.1529 31.2916 21.791 31.9297C22.4291 32.5678 22.7871 33.4335 22.7871 34.3359C22.7871 35.2383 22.4291 36.1041 21.791 36.7422C21.1529 37.3803 20.2872 37.7382 19.3848 37.7383C18.4824 37.7383 17.6166 37.3802 16.9785 36.7422C16.3404 36.1041 15.9815 35.2383 15.9814 34.3359C15.9814 33.4335 16.3404 32.5678 16.9785 31.9297C17.6167 31.2915 18.4823 30.9326 19.3848 30.9326ZM31.8037 30.9326C32.7062 30.9326 33.5718 31.2916 34.21 31.9297C34.8481 32.5678 35.207 33.4335 35.207 34.3359C35.207 35.2383 34.8481 36.1041 34.21 36.7422C33.5718 37.3802 32.7061 37.7383 31.8037 37.7383C30.9013 37.7382 30.0355 37.3803 29.3975 36.7422C28.7594 36.1041 28.4014 35.2383 28.4014 34.3359C28.4014 33.4336 28.7595 32.5678 29.3975 31.9297C30.0355 31.2916 30.9013 30.9327 31.8037 30.9326ZM44.2236 30.9326C45.1259 30.9327 45.9909 31.2918 46.6289 31.9297C47.267 32.5678 47.626 33.4335 47.626 34.3359C47.6259 35.2383 47.267 36.1041 46.6289 36.7422C45.9909 37.38 45.1258 37.7382 44.2236 37.7383C43.3213 37.7383 42.4555 37.3802 41.8174 36.7422C41.1793 36.1041 40.8204 35.2383 40.8203 34.3359C40.8203 33.4335 41.1792 32.5678 41.8174 31.9297C42.4555 31.2916 43.3212 30.9326 44.2236 30.9326ZM14.9141 4.13281C14.7705 4.13287 14.6281 4.1647 14.498 4.22559C14.4005 4.27133 14.3107 4.33279 14.2334 4.40723L14.1602 4.48633L4.68652 15.9121L4.34668 16.3223H59.2607L58.9219 15.9121L49.4502 4.48633L49.377 4.40723C49.2993 4.3325 49.2094 4.27136 49.1113 4.22559C48.9808 4.16471 48.8384 4.13244 48.6943 4.13281H14.9141Z" fill="url(#paint0_linear_696_6810)" stroke="white" stroke-width="0.5"/>
<defs>
<linearGradient id="paint0_linear_696_6810" x1="-0.333984" y1="0" x2="72.6954" y2="18.1862" gradientUnits="userSpaceOnUse">
<stop stop-color="#511F5E"/>
<stop offset="1" stop-color="#C01E6C"/>
</linearGradient>
</defs>
</svg>
