<svg xmlns="http://www.w3.org/2000/svg" width="46" height="46" fill="none"><g clip-path="url(#sca_a)"><path fill="url(#sca_b)" d="M4.88 45.021h19.514c.37 0 .725-.137.986-.382s.408-.577.408-.923-.147-.678-.408-.922a1.44 1.44 0 0 0-.986-.383H4.88c-.37 0-.724-.137-.986-.382a1.26 1.26 0 0 1-.408-.923V4.567c0-.346.147-.678.408-.922.262-.245.616-.382.986-.382h6.97V5.22c.001.865.369 1.694 1.022 2.305a3.61 3.61 0 0 0 2.463.957h6.97a3.62 3.62 0 0 0 2.462-.957 3.17 3.17 0 0 0 1.022-2.305V3.263h6.97c.37 0 .724.137.985.382.262.244.409.576.409.922v14.355c0 .346.147.678.408.923s.616.382.986.382.724-.137.985-.382c.262-.245.409-.577.409-.923V4.567c0-1.038-.44-2.034-1.225-2.768A4.33 4.33 0 0 0 32.758.653H4.879a4.33 4.33 0 0 0-2.957 1.146A3.8 3.8 0 0 0 .697 4.567v36.54c0 1.038.44 2.034 1.225 2.768A4.33 4.33 0 0 0 4.88 45.02M23 5.22a.63.63 0 0 1-.204.461.72.72 0 0 1-.493.191h-6.97a.72.72 0 0 1-.492-.19.63.63 0 0 1-.204-.462V3.263H23zm-12.545 7.177c0 .346-.147.678-.408.923a1.44 1.44 0 0 1-.986.382H7.667c-.37 0-.724-.137-.986-.382a1.26 1.26 0 0 1-.408-.923c0-.346.147-.678.408-.922.262-.245.616-.383.986-.383h1.394c.37 0 .724.138.986.383.261.244.408.576.408.922m2.788 0c0-.346.147-.678.408-.922.261-.245.616-.383.986-.383h13.94c.369 0 .723.138.985.383.261.244.408.576.408.922s-.147.678-.408.923a1.44 1.44 0 0 1-.986.382h-13.94c-.369 0-.724-.137-.985-.382a1.26 1.26 0 0 1-.408-.923m0 5.22c0-.346.147-.678.408-.923.261-.244.616-.382.986-.382H23c.37 0 .724.138.986.382.261.245.408.577.408.923s-.147.678-.408.923a1.44 1.44 0 0 1-.986.382h-8.363c-.37 0-.725-.137-.986-.382a1.26 1.26 0 0 1-.408-.923m-2.788 5.22c0 .346-.147.678-.408.923a1.44 1.44 0 0 1-.986.382H7.667c-.37 0-.724-.137-.986-.382a1.26 1.26 0 0 1-.408-.923c0-.346.147-.678.408-.923.262-.245.616-.382.986-.382h1.394c.37 0 .724.137.986.382.261.245.408.577.408.923m18.121 1.305h-13.94c-.369 0-.724-.137-.985-.382a1.26 1.26 0 0 1-.408-.923c0-.346.147-.678.408-.923s.616-.382.986-.382h13.94c.369 0 .723.137.985.382.261.245.408.577.408.923s-.147.678-.408.923a1.44 1.44 0 0 1-.986.382M23 26.752c.37 0 .724.137.986.382.261.245.408.577.408.923s-.147.678-.408.923a1.44 1.44 0 0 1-.986.382h-8.363c-.37 0-.724-.138-.986-.382a1.26 1.26 0 0 1-.408-.923c0-.346.147-.678.408-.923s.616-.382.986-.382zm13.94.133v-1.438c.37 0 .724-.138.985-.382.262-.245.409-.577.409-.923s-.147-.678-.409-.923a1.44 1.44 0 0 0-.985-.382h-2.788c-.37 0-.724.137-.986.382a1.26 1.26 0 0 0-.408.923c0 .346.147.678.408.923.262.244.616.382.986.382v1.438c-2.126.28-4.094 1.208-5.601 2.638-1.508 1.431-2.47 3.287-2.74 5.28a8.68 8.68 0 0 0 1.245 5.753c1.078 1.738 2.736 3.096 4.72 3.865a10.4 10.4 0 0 0 6.256.389c2.075-.517 3.91-1.657 5.224-3.247s2.033-3.538 2.047-5.548-.679-3.968-1.97-5.573l.635-.595c.258.134.556.184.848.144a1.38 1.38 0 0 0 1.07-.792 1.23 1.23 0 0 0 0-1 1.3 1.3 0 0 0-.304-.424l-1.394-1.305a1.4 1.4 0 0 0-.453-.284 1.48 1.48 0 0 0-1.068 0q-.257.1-.453.284a1.27 1.27 0 0 0-.378.726c-.042.273.011.552.15.796l-.636.595a10 10 0 0 0-4.41-1.702m-1.394 15.526a7.3 7.3 0 0 1-3.872-1.1 6.64 6.64 0 0 1-2.567-2.927 6.14 6.14 0 0 1-.397-3.77 6.4 6.4 0 0 1 1.907-3.341 7.13 7.13 0 0 1 3.569-1.786 7.4 7.4 0 0 1 4.027.372 6.9 6.9 0 0 1 3.128 2.403 6.23 6.23 0 0 1 1.175 3.625c0 1.73-.735 3.39-2.042 4.613s-3.08 1.911-4.928 1.911m1.394-9.134v2.61c0 .346-.147.678-.409.922a1.44 1.44 0 0 1-.985.383c-.37 0-.724-.138-.986-.383a1.26 1.26 0 0 1-.408-.922v-2.61c0-.346.147-.678.408-.923s.616-.382.986-.382.724.137.985.382c.262.245.409.577.409.923"/></g><defs><linearGradient id="sca_b" x1="1.67" x2="53.804" y1="43.635" y2="24.175" gradientUnits="userSpaceOnUse"><stop stop-color="#6549F6"/><stop offset=".79" stop-color="#FF611D"/></linearGradient><clipPath id="sca_a"><path fill="#fff" d="M0 0h46v46H0z"/></clipPath></defs></svg>