<svg width="64" height="64" viewBox="0 0 64 64" fill="none" xmlns="http://www.w3.org/2000/svg">
<path d="M16.4187 32C16.4187 22.2454 24.3547 14.3094 34.1094 14.3094H35.9844V10.9514H40.9701C41.7641 13.4142 44.0771 15.2016 46.8008 15.2016C50.1782 15.2016 52.926 12.4539 52.926 9.07638C52.926 5.69875 50.1782 2.951 46.8008 2.951C44.0771 2.951 41.7641 4.73837 40.9701 7.20138H35.9844V1.875C35.9844 0.8395 35.1449 0 34.1094 0H30.1314C28.1259 0 26.4905 1.61563 26.4581 3.61363C24.008 4.27238 21.6504 5.24963 19.4486 6.51875C18.0133 5.12738 15.7136 5.14113 14.2949 6.55963L8.66912 12.1854C7.97525 12.8794 7.59313 13.8019 7.59313 14.7831C7.59313 15.7449 7.96025 16.6504 8.62813 17.3391C7.359 19.5409 6.38188 21.8986 5.723 24.3486C3.72487 24.3808 2.10938 26.0163 2.10938 28.0219V35.9779C2.10938 37.9835 3.72487 39.619 5.723 39.6511C6.38188 42.1015 7.35913 44.4594 8.62813 46.6605C7.96025 47.3495 7.593 48.2549 7.593 49.2166C7.593 50.198 7.97512 51.1204 8.669 51.8144L14.2948 57.4403C15.713 58.8585 18.0119 58.872 19.4485 57.481C21.6501 58.7501 24.0077 59.7273 26.458 60.386C26.4901 62.3843 28.1256 63.9997 30.1313 63.9997H34.1093C35.1448 63.9997 35.9843 63.1602 35.9843 62.1247V56.7984H40.97C41.764 59.2614 44.077 61.0488 46.8006 61.0488C50.1781 61.0488 52.9259 58.301 52.9259 54.9234C52.9259 51.5459 50.1781 48.7981 46.8006 48.7981C44.077 48.7981 41.764 50.5855 40.97 53.0484H35.9843V49.6905H34.1093C24.3548 49.6906 16.4187 41.7546 16.4187 32Z" fill="url(#paint0_linear_828_17034)"/>
<path d="M55.7623 33.4221C53.0387 33.4221 50.7257 35.2095 49.9317 37.6724H35.9841V26.3276H49.9317C50.7257 28.7905 53.0387 30.5779 55.7623 30.5779C59.1398 30.5779 61.8876 27.8301 61.8876 24.4526C61.8876 21.075 59.1398 18.3273 55.7623 18.3273C53.0387 18.3273 50.7257 20.1146 49.9317 22.5776H35.9841V18.0594H34.1091C26.4222 18.0594 20.1685 24.3131 20.1685 32C20.1685 39.6869 26.4222 45.9406 34.1091 45.9406H35.9841V41.4224H49.9317C50.7257 43.8854 53.0387 45.6728 55.7623 45.6728C59.1398 45.6728 61.8876 42.925 61.8876 39.5474C61.8876 36.1699 59.1398 33.4221 55.7623 33.4221Z" fill="url(#paint1_linear_828_17034)"/>
<defs>
<linearGradient id="paint0_linear_828_17034" x1="7.97447" y1="6.03987" x2="58.8702" y2="52.8144" gradientUnits="userSpaceOnUse">
<stop stop-color="#F94229"/>
<stop offset="1" stop-color="#BB0A55"/>
</linearGradient>
<linearGradient id="paint1_linear_828_17034" x1="7.97447" y1="6.03987" x2="58.8702" y2="52.8144" gradientUnits="userSpaceOnUse">
<stop stop-color="#F94229"/>
<stop offset="1" stop-color="#BB0A55"/>
</linearGradient>
</defs>
</svg>
