<svg width="48" height="48" viewBox="0 0 48 48" fill="none" xmlns="http://www.w3.org/2000/svg">
<g clip-path="url(#clip0_244_12615)">
<mask id="mask0_244_12615" style="mask-type:luminance" maskUnits="userSpaceOnUse" x="0" y="0" width="48" height="48">
<path d="M0 3.8147e-06H48V48H0V3.8147e-06Z" fill="white"/>
</mask>
<g mask="url(#mask0_244_12615)">
<path d="M23.9999 30.3905L12.0569 42.3333L1.40625 46.5938L5.66634 35.9427L17.6092 23.9999" stroke="url(#paint0_linear_244_12615)" stroke-width="2.8125" stroke-miterlimit="10" stroke-linecap="round" stroke-linejoin="round"/>
<path d="M24 17.6094L40.2032 1.40635L46.5937 7.79672L30.3904 24" stroke="url(#paint1_linear_244_12615)" stroke-width="2.8125" stroke-miterlimit="10" stroke-linecap="round" stroke-linejoin="round"/>
</g>
<path d="M40.204 14.1855L33.8135 7.79517" stroke="black" stroke-width="2.8125" stroke-miterlimit="10" stroke-linecap="round" stroke-linejoin="round"/>
<path d="M40.204 14.1855L33.8135 7.79517" stroke="url(#paint2_linear_244_12615)" stroke-width="2.8125" stroke-miterlimit="10" stroke-linecap="round" stroke-linejoin="round"/>
<path d="M5.98633 36.2625L11.7377 42.0137" stroke="black" stroke-width="2.8125" stroke-miterlimit="10" stroke-linecap="round" stroke-linejoin="round"/>
<path d="M5.98633 36.2625L11.7377 42.0137" stroke="url(#paint3_linear_244_12615)" stroke-width="2.8125" stroke-miterlimit="10" stroke-linecap="round" stroke-linejoin="round"/>
<mask id="mask1_244_12615" style="mask-type:luminance" maskUnits="userSpaceOnUse" x="0" y="0" width="48" height="48">
<path d="M47.9531 47.9531V0.046875H0.046875V47.9531H47.9531Z" fill="white"/>
<path d="M47.9531 47.9531V0.046875H0.046875V47.9531H47.9531Z" stroke="white" stroke-width="0.09375"/>
</mask>
<g mask="url(#mask1_244_12615)">
<path d="M45.7127 41.4528C47.3174 38.0936 46.7304 33.9494 43.9478 31.167C41.5829 28.8021 38.2342 28.0243 35.2193 28.829L19.1714 12.7809C19.9758 9.76646 19.1979 6.41724 16.8329 4.05211C14.0506 1.2698 9.90639 0.682739 6.54732 2.28708L12.5726 8.3124L8.31235 12.5727L2.28685 6.54746C0.682698 9.90671 1.26967 14.0509 4.05217 16.8331C6.41701 19.198 9.76595 19.9758 12.7807 19.1715L28.8291 35.2194C28.0243 38.2338 28.802 41.5829 31.1666 43.9478C33.9494 46.7303 38.0935 47.3175 41.4528 45.7129L35.4273 39.6877L39.6876 35.4274L45.7127 41.4528Z" stroke="black" stroke-width="2.8125" stroke-miterlimit="10" stroke-linecap="round" stroke-linejoin="round"/>
<path d="M45.7127 41.4528C47.3174 38.0936 46.7304 33.9494 43.9478 31.167C41.5829 28.8021 38.2342 28.0243 35.2193 28.829L19.1714 12.7809C19.9758 9.76646 19.1979 6.41724 16.8329 4.05211C14.0506 1.2698 9.90639 0.682739 6.54732 2.28708L12.5726 8.3124L8.31235 12.5727L2.28685 6.54746C0.682698 9.90671 1.26967 14.0509 4.05217 16.8331C6.41701 19.198 9.76595 19.9758 12.7807 19.1715L28.8291 35.2194C28.0243 38.2338 28.802 41.5829 31.1666 43.9478C33.9494 46.7303 38.0935 47.3175 41.4528 45.7129L35.4273 39.6877L39.6876 35.4274L45.7127 41.4528Z" stroke="url(#paint4_linear_244_12615)" stroke-width="2.8125" stroke-miterlimit="10" stroke-linecap="round" stroke-linejoin="round"/>
</g>
</g>
<defs>
<linearGradient id="paint0_linear_244_12615" x1="0.282723" y1="23.7102" x2="27.9927" y2="56.4581" gradientUnits="userSpaceOnUse">
<stop stop-color="#C01E6C"/>
<stop offset="1" stop-color="#FF9A3C"/>
</linearGradient>
<linearGradient id="paint1_linear_244_12615" x1="22.8765" y1="1.11669" x2="50.5861" y2="33.8646" gradientUnits="userSpaceOnUse">
<stop stop-color="#C01E6C"/>
<stop offset="1" stop-color="#FF9A3C"/>
</linearGradient>
<linearGradient id="paint2_linear_244_12615" x1="33.4957" y1="7.71325" x2="41.333" y2="16.9758" gradientUnits="userSpaceOnUse">
<stop stop-color="#C01E6C"/>
<stop offset="1" stop-color="#FF9A3C"/>
</linearGradient>
<linearGradient id="paint3_linear_244_12615" x1="5.70033" y1="36.1888" x2="12.7538" y2="44.5249" gradientUnits="userSpaceOnUse">
<stop stop-color="#C01E6C"/>
<stop offset="1" stop-color="#FF9A3C"/>
</linearGradient>
<linearGradient id="paint4_linear_244_12615" x1="-0.840811" y1="0.827039" x2="54.5786" y2="66.3228" gradientUnits="userSpaceOnUse">
<stop stop-color="#C01E6C"/>
<stop offset="1" stop-color="#FF9A3C"/>
</linearGradient>
<clipPath id="clip0_244_12615">
<rect width="48" height="48" fill="white"/>
</clipPath>
</defs>
</svg>
