<svg width="64" height="64" viewBox="0 0 64 64" fill="none" xmlns="http://www.w3.org/2000/svg">
<path d="M34.9277 21.7886C35.3592 22.3321 35.7556 23.0021 36.1064 23.7913C37.0192 25.8451 37.5491 28.5183 37.6169 31.375H42.6047C42.3384 26.8076 39.174 23.0081 34.9277 21.7886Z" fill="black"/>
<path d="M34.9277 21.7886C35.3592 22.3321 35.7556 23.0021 36.1064 23.7913C37.0192 25.8451 37.5491 28.5183 37.6169 31.375H42.6047C42.3384 26.8076 39.174 23.0081 34.9277 21.7886Z" fill="url(#paint0_linear_851_9243)"/>
<path d="M36.1072 40.2089C35.7565 40.998 35.3602 41.6679 34.9287 42.2115C39.1748 40.9919 42.3392 37.1925 42.6056 32.6251H37.6177C37.55 35.4819 37.02 38.155 36.1072 40.2089Z" fill="black"/>
<path d="M36.1072 40.2089C35.7565 40.998 35.3602 41.6679 34.9287 42.2115C39.1748 40.9919 42.3392 37.1925 42.6056 32.6251H37.6177C37.55 35.4819 37.02 38.155 36.1072 40.2089Z" fill="url(#paint1_linear_851_9243)"/>
<path d="M34.5001 32.625C34.1548 32.625 33.8751 32.3452 33.8751 32C33.8751 31.6549 34.1548 31.375 34.5001 31.375H36.3673C36.2247 25.3662 34.0427 21.375 32.0001 21.375C29.9573 21.375 27.7753 25.3662 27.6328 31.375H29.5001C29.8452 31.375 30.1251 31.6549 30.1251 32C30.1251 32.3452 29.8452 32.625 29.5001 32.625H27.6328C27.7753 38.6336 29.9573 42.625 32.0001 42.625C34.0428 42.625 36.2248 38.6336 36.3673 32.625H34.5001ZM33.2501 38.25H30.7501V35.75H33.2501V38.25ZM33.2501 28.25H30.7501V25.75H33.2501V28.25Z" fill="black"/>
<path d="M34.5001 32.625C34.1548 32.625 33.8751 32.3452 33.8751 32C33.8751 31.6549 34.1548 31.375 34.5001 31.375H36.3673C36.2247 25.3662 34.0427 21.375 32.0001 21.375C29.9573 21.375 27.7753 25.3662 27.6328 31.375H29.5001C29.8452 31.375 30.1251 31.6549 30.1251 32C30.1251 32.3452 29.8452 32.625 29.5001 32.625H27.6328C27.7753 38.6336 29.9573 42.625 32.0001 42.625C34.0428 42.625 36.2248 38.6336 36.3673 32.625H34.5001ZM33.2501 38.25H30.7501V35.75H33.2501V38.25ZM33.2501 28.25H30.7501V25.75H33.2501V28.25Z" fill="url(#paint2_linear_851_9243)"/>
<path d="M26.3825 32.625H21.3945C21.6609 37.1924 24.8253 40.9919 29.0715 42.2114C28.64 41.6678 28.2437 40.9979 27.893 40.2088C26.9802 38.155 26.4502 35.4819 26.3825 32.625Z" fill="black"/>
<path d="M26.3825 32.625H21.3945C21.6609 37.1924 24.8253 40.9919 29.0715 42.2114C28.64 41.6678 28.2437 40.9979 27.893 40.2088C26.9802 38.155 26.4502 35.4819 26.3825 32.625Z" fill="url(#paint3_linear_851_9243)"/>
<path d="M55.0641 27.1534C54.7944 27.1309 54.5698 26.9374 54.5078 26.6739C53.9393 24.2623 52.9879 21.9673 51.6799 19.8529C51.5374 19.6226 51.5594 19.327 51.7342 19.1204L55.0164 15.2416L48.7585 8.98375L44.8796 12.2659C44.6729 12.4408 44.3773 12.4627 44.1471 12.3202C42.0329 11.0124 39.738 10.0609 37.3261 9.49238C37.0628 9.43025 36.8692 9.20575 36.8467 8.93587L36.4249 3.875H27.575L27.1532 8.93587C27.1308 9.20563 26.9373 9.43025 26.6737 9.49238C24.2619 10.0609 21.967 11.0124 19.8528 12.3202C19.6225 12.4627 19.3269 12.4406 19.1203 12.2659L15.2415 8.98375L8.98375 15.2415L12.2659 19.1203C12.4408 19.3269 12.4627 19.6226 12.3202 19.8528C11.0124 21.967 10.0609 24.2619 9.49238 26.6737C9.43025 26.9373 9.20575 27.1308 8.93587 27.1532L3.875 27.5751V36.425L8.93587 36.8467C9.20563 36.8692 9.43025 37.0628 9.49238 37.3261C10.0609 39.738 11.0124 42.0329 12.3202 44.1471C12.4627 44.3774 12.4408 44.6731 12.2659 44.8796L8.98375 48.7585L15.2416 55.0163L19.1204 51.7341C19.327 51.5594 19.6225 51.5371 19.8529 51.6797C21.9674 52.9877 24.2623 53.9391 26.6739 54.5076C26.9374 54.5696 27.1309 54.7943 27.1534 55.064L27.5751 60.125H36.425L36.8467 55.0641C36.8692 54.7944 37.0628 54.5698 37.3261 54.5078C39.7379 53.9393 42.0328 52.9879 44.1473 51.6799C44.3774 51.5374 44.6731 51.5594 44.8796 51.7342L48.7585 55.0164L55.0163 48.7586L51.7341 44.8797C51.5594 44.6732 51.5374 44.3774 51.6797 44.1474C52.9877 42.0329 53.9391 39.738 54.5076 37.3262C54.5696 37.0629 54.7943 36.8694 55.064 36.8469L60.125 36.4249V27.575L55.0641 27.1534ZM32 50.125C22.0059 50.125 13.875 41.9941 13.875 32C13.875 22.0059 22.0059 13.875 32 13.875C41.9941 13.875 50.125 22.0059 50.125 32C50.125 41.9941 41.9941 50.125 32 50.125Z" fill="black"/>
<path d="M55.0641 27.1534C54.7944 27.1309 54.5698 26.9374 54.5078 26.6739C53.9393 24.2623 52.9879 21.9673 51.6799 19.8529C51.5374 19.6226 51.5594 19.327 51.7342 19.1204L55.0164 15.2416L48.7585 8.98375L44.8796 12.2659C44.6729 12.4408 44.3773 12.4627 44.1471 12.3202C42.0329 11.0124 39.738 10.0609 37.3261 9.49238C37.0628 9.43025 36.8692 9.20575 36.8467 8.93587L36.4249 3.875H27.575L27.1532 8.93587C27.1308 9.20563 26.9373 9.43025 26.6737 9.49238C24.2619 10.0609 21.967 11.0124 19.8528 12.3202C19.6225 12.4627 19.3269 12.4406 19.1203 12.2659L15.2415 8.98375L8.98375 15.2415L12.2659 19.1203C12.4408 19.3269 12.4627 19.6226 12.3202 19.8528C11.0124 21.967 10.0609 24.2619 9.49238 26.6737C9.43025 26.9373 9.20575 27.1308 8.93587 27.1532L3.875 27.5751V36.425L8.93587 36.8467C9.20563 36.8692 9.43025 37.0628 9.49238 37.3261C10.0609 39.738 11.0124 42.0329 12.3202 44.1471C12.4627 44.3774 12.4408 44.6731 12.2659 44.8796L8.98375 48.7585L15.2416 55.0163L19.1204 51.7341C19.327 51.5594 19.6225 51.5371 19.8529 51.6797C21.9674 52.9877 24.2623 53.9391 26.6739 54.5076C26.9374 54.5696 27.1309 54.7943 27.1534 55.064L27.5751 60.125H36.425L36.8467 55.0641C36.8692 54.7944 37.0628 54.5698 37.3261 54.5078C39.7379 53.9393 42.0328 52.9879 44.1473 51.6799C44.3774 51.5374 44.6731 51.5594 44.8796 51.7342L48.7585 55.0164L55.0163 48.7586L51.7341 44.8797C51.5594 44.6732 51.5374 44.3774 51.6797 44.1474C52.9877 42.0329 53.9391 39.738 54.5076 37.3262C54.5696 37.0629 54.7943 36.8694 55.064 36.8469L60.125 36.4249V27.575L55.0641 27.1534ZM32 50.125C22.0059 50.125 13.875 41.9941 13.875 32C13.875 22.0059 22.0059 13.875 32 13.875C41.9941 13.875 50.125 22.0059 50.125 32C50.125 41.9941 41.9941 50.125 32 50.125Z" fill="url(#paint4_linear_851_9243)"/>
<path d="M32 15.125C22.6951 15.125 15.125 22.6951 15.125 32C15.125 41.3049 22.6951 48.875 32 48.875C41.3049 48.875 48.875 41.3049 48.875 32C48.875 22.6951 41.3049 15.125 32 15.125ZM32 43.875C25.4521 43.875 20.125 38.5479 20.125 32C20.125 25.4521 25.4521 20.125 32 20.125C38.5479 20.125 43.875 25.4521 43.875 32C43.875 38.5479 38.5479 43.875 32 43.875Z" fill="black"/>
<path d="M32 15.125C22.6951 15.125 15.125 22.6951 15.125 32C15.125 41.3049 22.6951 48.875 32 48.875C41.3049 48.875 48.875 41.3049 48.875 32C48.875 22.6951 41.3049 15.125 32 15.125ZM32 43.875C25.4521 43.875 20.125 38.5479 20.125 32C20.125 25.4521 25.4521 20.125 32 20.125C38.5479 20.125 43.875 25.4521 43.875 32C43.875 38.5479 38.5479 43.875 32 43.875Z" fill="url(#paint5_linear_851_9243)"/>
<path d="M27.8929 23.7913C28.2437 23.0021 28.6399 22.3323 29.0715 21.7886C24.8253 23.0081 21.6609 26.8076 21.3945 31.375H26.3825C26.4502 28.5183 26.9802 25.845 27.8929 23.7913Z" fill="black"/>
<path d="M27.8929 23.7913C28.2437 23.0021 28.6399 22.3323 29.0715 21.7886C24.8253 23.0081 21.6609 26.8076 21.3945 31.375H26.3825C26.4502 28.5183 26.9802 25.845 27.8929 23.7913Z" fill="url(#paint6_linear_851_9243)"/>
<defs>
<linearGradient id="paint0_linear_851_9243" x1="9.39392" y1="9.1835" x2="54.2804" y2="53.3485" gradientUnits="userSpaceOnUse">
<stop stop-color="#F94229"/>
<stop offset="1" stop-color="#BB0A55"/>
</linearGradient>
<linearGradient id="paint1_linear_851_9243" x1="9.39392" y1="9.1835" x2="54.2804" y2="53.3485" gradientUnits="userSpaceOnUse">
<stop stop-color="#F94229"/>
<stop offset="1" stop-color="#BB0A55"/>
</linearGradient>
<linearGradient id="paint2_linear_851_9243" x1="9.39392" y1="9.1835" x2="54.2804" y2="53.3485" gradientUnits="userSpaceOnUse">
<stop stop-color="#F94229"/>
<stop offset="1" stop-color="#BB0A55"/>
</linearGradient>
<linearGradient id="paint3_linear_851_9243" x1="9.39392" y1="9.1835" x2="54.2804" y2="53.3485" gradientUnits="userSpaceOnUse">
<stop stop-color="#F94229"/>
<stop offset="1" stop-color="#BB0A55"/>
</linearGradient>
<linearGradient id="paint4_linear_851_9243" x1="9.39392" y1="9.1835" x2="54.2804" y2="53.3485" gradientUnits="userSpaceOnUse">
<stop stop-color="#F94229"/>
<stop offset="1" stop-color="#BB0A55"/>
</linearGradient>
<linearGradient id="paint5_linear_851_9243" x1="9.39392" y1="9.1835" x2="54.2804" y2="53.3485" gradientUnits="userSpaceOnUse">
<stop stop-color="#F94229"/>
<stop offset="1" stop-color="#BB0A55"/>
</linearGradient>
<linearGradient id="paint6_linear_851_9243" x1="9.39392" y1="9.1835" x2="54.2804" y2="53.3485" gradientUnits="userSpaceOnUse">
<stop stop-color="#F94229"/>
<stop offset="1" stop-color="#BB0A55"/>
</linearGradient>
</defs>
</svg>
