<svg width="48" height="48" viewBox="0 0 48 48" fill="none" xmlns="http://www.w3.org/2000/svg">
<path d="M38 30H36V30H38ZM38 23.876H40V23.875L38 23.876ZM30.126 16L30.1275 14H30.126V16ZM17.872 16V14L17.87 14L17.872 16ZM10 23.876L8 23.875V23.876H10ZM10 30H12V30H10ZM24 44V46V44ZM30.364 8.63604L28.9497 10.0503V10.0503L30.364 8.63604ZM17.636 8.63604L19.0503 10.0503H19.0503L17.636 8.63604ZM38 26C36.8954 26 36 26.8954 36 28C36 29.1046 36.8954 30 38 30V28V26ZM44 30C45.1046 30 46 29.1046 46 28C46 26.8954 45.1046 26 44 26V28V30ZM10 30C11.1046 30 12 29.1046 12 28C12 26.8954 11.1046 26 10 26V28V30ZM4 26C2.89543 26 2 26.8954 2 28C2 29.1046 2.89543 30 4 30V28V26ZM27.971 5.28501C27.0238 5.85331 26.7167 7.08183 27.285 8.02899C27.8533 8.97615 29.0818 9.28328 30.029 8.71499L29 7L27.971 5.28501ZM35.029 5.71499C35.9762 5.14669 36.2833 3.91817 35.715 2.97101C35.1467 2.02385 33.9182 1.71672 32.971 2.28501L34 4L35.029 5.71499ZM17.971 8.71499C18.9182 9.28328 20.1467 8.97615 20.715 8.02899C21.2833 7.08183 20.9762 5.85331 20.029 5.28501L19 7L17.971 8.71499ZM15.029 2.28501C14.0818 1.71672 12.8533 2.02385 12.285 2.97101C11.7167 3.91817 12.0238 5.14669 12.971 5.71499L14 4L15.029 2.28501ZM40.2572 41.857C41.2828 42.2672 42.4467 41.7683 42.857 40.7428C43.2672 39.7172 42.7683 38.5533 41.7428 38.143L41 40L40.2572 41.857ZM37.7428 36.543C36.7172 36.1328 35.5533 36.6317 35.143 37.6572C34.7328 38.6828 35.2317 39.8467 36.2572 40.257L37 38.4L37.7428 36.543ZM41.7428 17.857C42.7683 17.4467 43.2672 16.2828 42.857 15.2572C42.4467 14.2317 41.2828 13.7328 40.2572 14.143L41 16L41.7428 17.857ZM36.2572 15.743C35.2317 16.1533 34.7328 17.3172 35.143 18.3428C35.5533 19.3683 36.7172 19.8672 37.7428 19.457L37 17.6L36.2572 15.743ZM6.25722 38.143C5.23165 38.5533 4.73282 39.7172 5.14305 40.7428C5.55327 41.7683 6.71721 42.2672 7.74278 41.857L7 40L6.25722 38.143ZM11.7428 40.257C12.7683 39.8467 13.2672 38.6828 12.857 37.6572C12.4467 36.6317 11.2828 36.1328 10.2572 36.543L11 38.4L11.7428 40.257ZM7.74278 14.143C6.71721 13.7328 5.55327 14.2317 5.14305 15.2572C4.73282 16.2828 5.23165 17.4467 6.25722 17.857L7 16L7.74278 14.143ZM10.2572 19.457C11.2828 19.8672 12.4467 19.3683 12.857 18.3428C13.2672 17.3172 12.7683 16.1533 11.7428 15.743L11 17.6L10.2572 19.457ZM22 43C22 44.1046 22.8954 45 24 45C25.1046 45 26 44.1046 26 43H24H22ZM26 30C26 28.8954 25.1046 28 24 28C22.8954 28 22 28.8954 22 30H24H26ZM38 30H40V23.876H38H36V30H38ZM38 23.876L40 23.875C39.9987 21.2568 38.9582 18.7462 37.1071 16.8947L35.6927 18.3087L34.2783 19.7227C35.38 20.8247 35.9992 22.3188 36 23.877L38 23.876ZM35.6927 18.3087L37.1071 16.8947C35.256 15.0431 32.7457 14.002 30.1275 14L30.126 16L30.1245 18C31.6827 18.0012 33.1767 18.6208 34.2783 19.7227L35.6927 18.3087ZM30.126 16V14H17.872V16V18H30.126V16ZM17.872 16L17.87 14C15.2522 14.0027 12.7426 15.0441 10.892 16.8956L12.3066 18.3094L13.7212 19.7233C14.8225 18.6214 16.3161 18.0016 17.874 18L17.872 16ZM12.3066 18.3094L10.892 16.8956C9.04146 18.747 8.00133 21.2573 8 23.875L10 23.876L12 23.877C12.0008 22.3191 12.6198 20.8252 13.7212 19.7233L12.3066 18.3094ZM10 23.876H8V30H10H12V23.876H10ZM10 30H8C8 32.1012 8.41385 34.1817 9.21793 36.1229L11.0657 35.3576L12.9134 34.5922C12.3104 33.1363 12 31.5759 12 30H10ZM11.0657 35.3576L9.21793 36.1229C10.022 38.0641 11.2006 39.828 12.6863 41.3137L14.1005 39.8995L15.5147 38.4853C14.4004 37.371 13.5165 36.0481 12.9134 34.5922L11.0657 35.3576ZM14.1005 39.8995L12.6863 41.3137C14.172 42.7994 15.9359 43.978 17.8771 44.7821L18.6424 42.9343L19.4078 41.0866C17.9519 40.4835 16.629 39.5996 15.5147 38.4853L14.1005 39.8995ZM18.6424 42.9343L17.8771 44.7821C19.8183 45.5862 21.8989 46 24 46V44V42C22.4241 42 20.8637 41.6896 19.4078 41.0866L18.6424 42.9343ZM24 44V46C26.1011 46 28.1817 45.5862 30.1229 44.7821L29.3576 42.9343L28.5922 41.0866C27.1363 41.6896 25.5759 42 24 42V44ZM29.3576 42.9343L30.1229 44.7821C32.0641 43.978 33.828 42.7994 35.3137 41.3137L33.8995 39.8995L32.4853 38.4853C31.371 39.5996 30.0481 40.4835 28.5922 41.0866L29.3576 42.9343ZM33.8995 39.8995L35.3137 41.3137C36.7994 39.828 37.978 38.0641 38.7821 36.1229L36.9343 35.3576L35.0866 34.5922C34.4835 36.0481 33.5996 37.371 32.4853 38.4853L33.8995 39.8995ZM36.9343 35.3576L38.7821 36.1229C39.5862 34.1817 40 32.1011 40 30H38H36C36 31.5759 35.6896 33.1363 35.0866 34.5922L36.9343 35.3576ZM33 17H35V15H33H31V17H33ZM33 15H35C35 12.0826 33.8411 9.28472 31.7782 7.22182L30.364 8.63604L28.9497 10.0503C30.2625 11.363 31 13.1435 31 15H33ZM30.364 8.63604L31.7782 7.22183C29.7153 5.15893 26.9174 4 24 4V6V8C25.8565 8 27.637 8.7375 28.9497 10.0503L30.364 8.63604ZM24 6V4C21.0826 4 18.2847 5.15893 16.2218 7.22183L17.636 8.63604L19.0503 10.0503C20.363 8.7375 22.1435 8 24 8V6ZM17.636 8.63604L16.2218 7.22183C14.1589 9.28472 13 12.0826 13 15H15H17C17 13.1435 17.7375 11.363 19.0503 10.0503L17.636 8.63604ZM15 15H13V17H15H17V15H15ZM38 28V30H44V28V26H38V28ZM10 28V26H4V28V30H10V28ZM29 7L30.029 8.71499L35.029 5.71499L34 4L32.971 2.28501L27.971 5.28501L29 7ZM19 7L20.029 5.28501L15.029 2.28501L14 4L12.971 5.71499L17.971 8.71499L19 7ZM41 40L41.7428 38.143L37.7428 36.543L37 38.4L36.2572 40.257L40.2572 41.857L41 40ZM41 16L40.2572 14.143L36.2572 15.743L37 17.6L37.7428 19.457L41.7428 17.857L41 16ZM7 40L7.74278 41.857L11.7428 40.257L11 38.4L10.2572 36.543L6.25722 38.143L7 40ZM7 16L6.25722 17.857L10.2572 19.457L11 17.6L11.7428 15.743L7.74278 14.143L7 16ZM24 43H26V30H24H22V43H24Z" fill="#C01E6C"/>
</svg>
