<svg width="64" height="64" viewBox="0 0 64 64" fill="none" xmlns="http://www.w3.org/2000/svg">
<path d="M40.1797 45.8527C38.8772 42.5236 35.6693 40.2891 32 40.2891C28.3308 40.2891 25.1224 42.5231 23.8198 45.8521C23.8201 45.8523 23.8205 45.8528 23.8208 45.853C26.2339 47.2335 29.0264 48.0234 32 48.0234C34.9739 48.0234 37.7666 47.2334 40.1797 45.8527Z" fill="url(#paint0_linear_828_17021)"/>
<path d="M32 33.2578C31.5501 33.2578 31.1002 33.0861 30.7571 32.7429C30.0706 32.0565 30.0706 30.9435 30.7571 30.257L34.2723 26.7418C33.5837 26.4118 32.813 26.2266 32 26.2266C29.0922 26.2266 26.7266 28.5922 26.7266 31.5C26.7266 34.4078 29.0922 36.7734 32 36.7734C34.9078 36.7734 37.2734 34.4078 37.2734 31.5C37.2734 30.6868 37.0882 29.9163 36.758 29.2278L33.243 32.7429C32.8998 33.0861 32.4499 33.2578 32 33.2578Z" fill="url(#paint1_linear_828_17021)"/>
<path d="M39.672 19.0165L39.4827 16.7704C37.2348 15.6238 34.6916 14.9766 32 14.9766C22.8889 14.9766 15.4766 22.3889 15.4766 31.5C15.4766 36.3493 17.5766 40.7171 20.9146 43.7426C21.7121 42.092 22.8753 40.6199 24.3199 39.4644C24.9371 38.9707 25.6006 38.5426 26.2966 38.1791C24.4101 36.5659 23.2109 34.1711 23.2109 31.5C23.2109 26.6537 27.1537 22.7109 32 22.7109C33.7887 22.7109 35.4536 23.2493 36.8434 24.1709L40.1664 20.8478C39.899 20.2862 39.7271 19.6691 39.672 19.0165Z" fill="url(#paint2_linear_828_17021)"/>
<path d="M46.7295 24.0175L44.4835 23.8281C43.8308 23.773 43.2137 23.601 42.6521 23.3337L39.329 26.6568C40.2505 28.0465 40.7889 29.7112 40.7889 31.5C40.7889 34.1711 39.5898 36.5658 37.7033 38.1791C38.3993 38.5425 39.0629 38.9707 39.6801 39.4644C41.1247 40.6199 42.2879 42.092 43.0854 43.7426C46.4233 40.7171 48.5233 36.3493 48.5233 31.5C48.5233 28.8083 47.8761 26.2652 46.7295 24.0175Z" fill="url(#paint3_linear_828_17021)"/>
<path d="M51.8047 24.4267C51.6587 24.4267 51.5107 24.4205 51.3646 24.4084L50.7211 24.3541C51.5715 26.5748 52.0391 28.9836 52.0391 31.5C52.0391 42.5496 43.0496 51.5391 32 51.5391C20.9504 51.5391 11.9609 42.5496 11.9609 31.5C11.9609 20.4504 20.9504 11.4609 32 11.4609C34.5164 11.4609 36.9252 11.9285 39.146 12.7791L39.092 12.1388C38.9611 10.5878 39.5173 9.0668 40.6182 7.96629L44.4118 4.1727C40.5642 2.42297 36.3533 1.5 32 1.5C23.9867 1.5 16.4531 4.62059 10.7867 10.2867C5.12059 15.9531 2 23.4867 2 31.5C2 39.5133 5.12059 47.0469 10.7867 52.7133C16.4531 58.3794 23.9867 61.5 32 61.5C40.0133 61.5 47.5469 58.3794 53.2133 52.7133C58.8794 47.0469 62 39.5133 62 31.5C62 27.1467 61.077 22.9358 59.3273 19.0882L55.5334 22.882C54.5373 23.8781 53.2132 24.4267 51.8047 24.4267Z" fill="url(#paint4_linear_828_17021)"/>
<path d="M51.8048 20.911C51.7557 20.911 44.7793 20.3249 44.7793 20.3249C43.9251 20.2528 43.2474 19.5752 43.1753 18.7209L42.5952 11.8433C42.5516 11.3275 42.7377 10.8186 43.1038 10.4526L50.5616 2.99483C51.0454 2.51097 51.766 2.35159 52.4084 2.58702C53.0509 2.82198 53.4987 3.40839 53.5561 4.09007L54.0114 9.48854L59.41 9.94394C60.0917 10.0015 60.6781 10.4494 60.9132 11.0918C61.1482 11.7342 60.989 12.4548 60.5052 12.9385L53.0474 20.3962C52.7166 20.7271 52.2687 20.911 51.8048 20.911Z" fill="url(#paint5_linear_828_17021)"/>
<defs>
<linearGradient id="paint0_linear_828_17021" x1="7.88685" y1="7.1624" x2="55.7657" y2="54.2717" gradientUnits="userSpaceOnUse">
<stop stop-color="#F94229"/>
<stop offset="1" stop-color="#BB0A55"/>
</linearGradient>
<linearGradient id="paint1_linear_828_17021" x1="7.88685" y1="7.1624" x2="55.7657" y2="54.2717" gradientUnits="userSpaceOnUse">
<stop stop-color="#F94229"/>
<stop offset="1" stop-color="#BB0A55"/>
</linearGradient>
<linearGradient id="paint2_linear_828_17021" x1="7.88685" y1="7.1624" x2="55.7657" y2="54.2717" gradientUnits="userSpaceOnUse">
<stop stop-color="#F94229"/>
<stop offset="1" stop-color="#BB0A55"/>
</linearGradient>
<linearGradient id="paint3_linear_828_17021" x1="7.88685" y1="7.1624" x2="55.7657" y2="54.2717" gradientUnits="userSpaceOnUse">
<stop stop-color="#F94229"/>
<stop offset="1" stop-color="#BB0A55"/>
</linearGradient>
<linearGradient id="paint4_linear_828_17021" x1="7.88685" y1="7.1624" x2="55.7657" y2="54.2717" gradientUnits="userSpaceOnUse">
<stop stop-color="#F94229"/>
<stop offset="1" stop-color="#BB0A55"/>
</linearGradient>
<linearGradient id="paint5_linear_828_17021" x1="7.88685" y1="7.1624" x2="55.7657" y2="54.2717" gradientUnits="userSpaceOnUse">
<stop stop-color="#F94229"/>
<stop offset="1" stop-color="#BB0A55"/>
</linearGradient>
</defs>
</svg>
