<svg width="48" height="48" viewBox="0 0 48 48" fill="none" xmlns="http://www.w3.org/2000/svg">
<path d="M36.7619 39.149L34.7554 41.1055C34.4154 41.4118 34.0176 41.5733 33.5619 41.59C33.1063 41.6067 32.7084 41.4452 32.3684 41.1055C32.0284 40.7655 31.8648 40.3677 31.8774 39.912C31.8901 39.4563 32.0498 39.0585 32.3564 38.7185L34.3249 36.712L32.3684 34.7555C32.0284 34.4155 31.8584 34.0177 31.8584 33.562C31.8584 33.1063 32.0284 32.7085 32.3684 32.3685C32.7004 32.0285 33.0963 31.8565 33.5559 31.8525C34.0156 31.8485 34.4154 32.0165 34.7554 32.3565L36.7619 34.313L38.7184 32.3685C39.0584 32.0285 39.4563 31.8502 39.9119 31.8335C40.3676 31.8168 40.7694 31.9785 41.1174 32.3185C41.4571 32.6585 41.6249 33.0647 41.6209 33.537C41.6169 34.0093 41.4451 34.4155 41.1054 34.7555L39.1609 36.712L41.1054 38.7065C41.4451 39.0465 41.6149 39.4463 41.6149 39.906C41.6149 40.3657 41.4451 40.7655 41.1054 41.1055C40.7654 41.4452 40.3656 41.613 39.9059 41.609C39.4463 41.6053 39.0504 41.4375 38.7184 41.1055L36.7619 39.149ZM11.4044 38.976C12.0724 38.976 12.6361 38.7463 13.0954 38.287C13.5551 37.8277 13.7849 37.2638 13.7849 36.5955C13.7849 35.9275 13.5551 35.3638 13.0954 34.9045C12.6361 34.4448 12.0724 34.215 11.4044 34.215C10.7361 34.215 10.1723 34.4448 9.71293 34.9045C9.25359 35.3638 9.02393 35.9275 9.02393 36.5955C9.02393 37.2638 9.25359 37.8277 9.71293 38.287C10.1723 38.7463 10.7361 38.976 11.4044 38.976ZM11.4044 42.299C9.80709 42.299 8.45726 41.7477 7.35493 40.645C6.25226 39.5426 5.70093 38.1928 5.70093 36.5955C5.70093 35.0065 6.25226 33.6587 7.35493 32.552C8.45726 31.4457 9.80709 30.8925 11.4044 30.8925C12.6631 30.8925 13.7798 31.2575 14.7544 31.9875C15.7291 32.7175 16.4029 33.6705 16.7759 34.8465C18.3123 34.7958 19.6164 34.2152 20.6884 33.1045C21.7604 31.9935 22.2964 30.6698 22.2964 29.1335V19.9045C22.2964 17.2392 23.2314 14.9715 25.1014 13.1015C26.9714 11.2315 29.2431 10.2965 31.9164 10.2965H35.7099L33.4204 8.00749C33.0968 7.68349 32.9433 7.29765 32.9599 6.84998C32.9766 6.40232 33.1588 6.00449 33.5064 5.65649C33.8464 5.31648 34.2463 5.14648 34.7059 5.14648C35.1656 5.14648 35.5654 5.31648 35.9054 5.65649L41.1054 10.7945C41.4451 11.1345 41.6149 11.5363 41.6149 12C41.6149 12.4637 41.4451 12.8655 41.1054 13.2055L35.9054 18.3935C35.5654 18.7335 35.1636 18.9015 34.6999 18.8975C34.2363 18.8935 33.8264 18.7135 33.4704 18.3575C33.1388 18.0258 32.9646 17.6317 32.9479 17.175C32.9313 16.7183 33.0928 16.3242 33.4324 15.9925L35.7214 13.7035H31.9164C30.1881 13.7035 28.7204 14.3068 27.5134 15.5135C26.3068 16.7205 25.7034 18.1842 25.7034 19.9045V29.1335C25.7034 31.5988 24.8498 33.7145 23.1424 35.4805C21.4351 37.2465 19.3528 38.1668 16.8954 38.2415C16.5128 39.4478 15.8203 40.4257 14.8179 41.175C13.8153 41.9243 12.6774 42.299 11.4044 42.299ZM11.2879 13.725L9.28143 15.6815C8.93376 15.9962 8.53393 16.1598 8.08193 16.1725C7.63026 16.1852 7.23443 16.0215 6.89443 15.6815C6.54676 15.3415 6.37926 14.9437 6.39193 14.488C6.40459 14.0323 6.56809 13.6345 6.88243 13.2945L8.85093 11.288L6.89443 9.33149C6.54676 8.99149 6.37293 8.59365 6.37293 8.13799C6.37293 7.68232 6.54676 7.28449 6.89443 6.94449C7.22643 6.60482 7.62026 6.43299 8.07593 6.42899C8.53193 6.42499 8.93376 6.59282 9.28143 6.93249L11.2879 8.88899L13.2444 6.94449C13.5844 6.60482 13.9823 6.42665 14.4379 6.40999C14.8936 6.39332 15.2914 6.55482 15.6314 6.89449C15.9714 7.23449 16.1414 7.64265 16.1414 8.11898C16.1414 8.59532 15.9714 9.00348 15.6314 9.34348L13.6749 11.288L15.6314 13.2825C15.9714 13.6305 16.1414 14.0323 16.1414 14.488C16.1414 14.9437 15.9714 15.3415 15.6314 15.6815C15.2838 16.0215 14.8819 16.1915 14.4259 16.1915C13.9703 16.1915 13.5764 16.0215 13.2444 15.6815L11.2879 13.725Z" fill="black"/>
<path d="M36.7619 39.149L34.7554 41.1055C34.4154 41.4118 34.0176 41.5733 33.5619 41.59C33.1063 41.6067 32.7084 41.4452 32.3684 41.1055C32.0284 40.7655 31.8648 40.3677 31.8774 39.912C31.8901 39.4563 32.0498 39.0585 32.3564 38.7185L34.3249 36.712L32.3684 34.7555C32.0284 34.4155 31.8584 34.0177 31.8584 33.562C31.8584 33.1063 32.0284 32.7085 32.3684 32.3685C32.7004 32.0285 33.0963 31.8565 33.5559 31.8525C34.0156 31.8485 34.4154 32.0165 34.7554 32.3565L36.7619 34.313L38.7184 32.3685C39.0584 32.0285 39.4563 31.8502 39.9119 31.8335C40.3676 31.8168 40.7694 31.9785 41.1174 32.3185C41.4571 32.6585 41.6249 33.0647 41.6209 33.537C41.6169 34.0093 41.4451 34.4155 41.1054 34.7555L39.1609 36.712L41.1054 38.7065C41.4451 39.0465 41.6149 39.4463 41.6149 39.906C41.6149 40.3657 41.4451 40.7655 41.1054 41.1055C40.7654 41.4452 40.3656 41.613 39.9059 41.609C39.4463 41.6053 39.0504 41.4375 38.7184 41.1055L36.7619 39.149ZM11.4044 38.976C12.0724 38.976 12.6361 38.7463 13.0954 38.287C13.5551 37.8277 13.7849 37.2638 13.7849 36.5955C13.7849 35.9275 13.5551 35.3638 13.0954 34.9045C12.6361 34.4448 12.0724 34.215 11.4044 34.215C10.7361 34.215 10.1723 34.4448 9.71293 34.9045C9.25359 35.3638 9.02393 35.9275 9.02393 36.5955C9.02393 37.2638 9.25359 37.8277 9.71293 38.287C10.1723 38.7463 10.7361 38.976 11.4044 38.976ZM11.4044 42.299C9.80709 42.299 8.45726 41.7477 7.35493 40.645C6.25226 39.5426 5.70093 38.1928 5.70093 36.5955C5.70093 35.0065 6.25226 33.6587 7.35493 32.552C8.45726 31.4457 9.80709 30.8925 11.4044 30.8925C12.6631 30.8925 13.7798 31.2575 14.7544 31.9875C15.7291 32.7175 16.4029 33.6705 16.7759 34.8465C18.3123 34.7958 19.6164 34.2152 20.6884 33.1045C21.7604 31.9935 22.2964 30.6698 22.2964 29.1335V19.9045C22.2964 17.2392 23.2314 14.9715 25.1014 13.1015C26.9714 11.2315 29.2431 10.2965 31.9164 10.2965H35.7099L33.4204 8.00749C33.0968 7.68349 32.9433 7.29765 32.9599 6.84998C32.9766 6.40232 33.1588 6.00449 33.5064 5.65649C33.8464 5.31648 34.2463 5.14648 34.7059 5.14648C35.1656 5.14648 35.5654 5.31648 35.9054 5.65649L41.1054 10.7945C41.4451 11.1345 41.6149 11.5363 41.6149 12C41.6149 12.4637 41.4451 12.8655 41.1054 13.2055L35.9054 18.3935C35.5654 18.7335 35.1636 18.9015 34.6999 18.8975C34.2363 18.8935 33.8264 18.7135 33.4704 18.3575C33.1388 18.0258 32.9646 17.6317 32.9479 17.175C32.9313 16.7183 33.0928 16.3242 33.4324 15.9925L35.7214 13.7035H31.9164C30.1881 13.7035 28.7204 14.3068 27.5134 15.5135C26.3068 16.7205 25.7034 18.1842 25.7034 19.9045V29.1335C25.7034 31.5988 24.8498 33.7145 23.1424 35.4805C21.4351 37.2465 19.3528 38.1668 16.8954 38.2415C16.5128 39.4478 15.8203 40.4257 14.8179 41.175C13.8153 41.9243 12.6774 42.299 11.4044 42.299ZM11.2879 13.725L9.28143 15.6815C8.93376 15.9962 8.53393 16.1598 8.08193 16.1725C7.63026 16.1852 7.23443 16.0215 6.89443 15.6815C6.54676 15.3415 6.37926 14.9437 6.39193 14.488C6.40459 14.0323 6.56809 13.6345 6.88243 13.2945L8.85093 11.288L6.89443 9.33149C6.54676 8.99149 6.37293 8.59365 6.37293 8.13799C6.37293 7.68232 6.54676 7.28449 6.89443 6.94449C7.22643 6.60482 7.62026 6.43299 8.07593 6.42899C8.53193 6.42499 8.93376 6.59282 9.28143 6.93249L11.2879 8.88899L13.2444 6.94449C13.5844 6.60482 13.9823 6.42665 14.4379 6.40999C14.8936 6.39332 15.2914 6.55482 15.6314 6.89449C15.9714 7.23449 16.1414 7.64265 16.1414 8.11898C16.1414 8.59532 15.9714 9.00348 15.6314 9.34348L13.6749 11.288L15.6314 13.2825C15.9714 13.6305 16.1414 14.0323 16.1414 14.488C16.1414 14.9437 15.9714 15.3415 15.6314 15.6815C15.2838 16.0215 14.8819 16.1915 14.4259 16.1915C13.9703 16.1915 13.5764 16.0215 13.2444 15.6815L11.2879 13.725Z" fill="url(#paint0_linear_244_8412)"/>
<defs>
<linearGradient id="paint0_linear_244_8412" x1="3.91471" y1="42.7753" x2="49.7096" y2="-9.55062" gradientUnits="userSpaceOnUse">
<stop stop-color="#C01E6C"/>
<stop offset="1" stop-color="#FF9A3C"/>
</linearGradient>
</defs>
</svg>
