<svg width="62" height="54" viewBox="0 0 62 54" fill="none" xmlns="http://www.w3.org/2000/svg">
<path d="M30.927 3.86475C25.5755 3.86436 20.344 5.4507 15.8939 8.42323C11.4438 11.3957 7.97504 15.621 5.92604 20.5647C3.87705 25.5085 3.33987 30.9487 4.38241 36.1977C5.42496 41.4467 8.00043 46.2688 11.7832 50.0542C12.1353 50.4188 12.3301 50.907 12.3257 51.4139C12.3213 51.9207 12.118 52.4055 11.7597 52.7639C11.4013 53.1222 10.9165 53.3255 10.4097 53.3299C9.90285 53.3343 9.41459 53.1395 9.05003 52.7874C4.72716 48.4613 1.78398 42.9505 0.592552 36.9519C-0.598871 30.9533 0.0149559 24.7361 2.35644 19.0863C4.69792 13.4365 8.66192 8.60778 13.7473 5.21051C18.8327 1.81325 24.8112 0 30.927 0C37.0428 0 43.0213 1.81325 48.1067 5.21051C53.1921 8.60778 57.1561 13.4365 59.4976 19.0863C61.8391 24.7361 62.4529 30.9533 61.2615 36.9519C60.0701 42.9505 57.1269 48.4613 52.804 52.7874C52.4395 53.1395 51.9512 53.3343 51.4444 53.3299C50.9376 53.3255 50.4528 53.1222 50.0944 52.7639C49.736 52.4055 49.5327 51.9207 49.5283 51.4139C49.5239 50.907 49.7187 50.4188 50.0708 50.0542C53.8536 46.2688 56.4291 41.4467 57.4716 36.1977C58.5142 30.9487 57.977 25.5085 55.928 20.5647C53.879 15.621 50.4102 11.3957 45.9601 8.42323C41.5101 5.4507 36.2786 3.86436 30.927 3.86475ZM30.927 15.4624C27.8702 15.4623 24.8819 16.3681 22.3396 18.0656C19.7974 19.7631 17.8153 22.1759 16.6437 24.9993C15.4722 27.8228 15.1637 30.9301 15.7573 33.9287C16.3509 36.9274 17.82 39.6828 19.9789 41.847C20.1632 42.0255 20.3101 42.239 20.4111 42.475C20.5121 42.711 20.565 42.9647 20.5669 43.2213C20.5687 43.478 20.5195 43.7324 20.4219 43.9698C20.3244 44.2072 20.1806 44.4228 19.9988 44.6041C19.8171 44.7853 19.6011 44.9285 19.3634 45.0254C19.1257 45.1222 18.8711 45.1708 18.6145 45.1682C18.3579 45.1656 18.1043 45.1119 17.8686 45.0103C17.6329 44.9087 17.4199 44.7611 17.2418 44.5763C14.5431 41.8708 12.7069 38.426 11.9652 34.6773C11.2235 30.9286 11.6096 27.0442 13.0747 23.5148C14.5398 19.9854 17.0182 16.9695 20.1967 14.8482C23.3751 12.7268 27.1111 11.5952 30.9325 11.5963C34.7538 11.5973 38.4892 12.7311 41.6664 14.8542C44.8437 16.9774 47.3204 19.9947 48.7835 23.5249C50.2466 27.0551 50.6305 30.9397 49.8867 34.688C49.1429 38.4363 47.3047 41.88 44.6045 44.584C44.2404 44.9367 43.7524 45.1322 43.2456 45.1285C42.7388 45.1249 42.2537 44.9223 41.8947 44.5644C41.5358 44.2065 41.3319 43.722 41.3268 43.2151C41.3217 42.7083 41.5158 42.2198 41.8674 41.8547C44.0285 39.6914 45.4997 36.936 46.0951 33.9368C46.6905 30.9375 46.3833 27.8291 45.2124 25.0044C44.0415 22.1797 42.0594 19.7655 39.5167 18.0671C36.974 16.3687 33.9848 15.4623 30.927 15.4624ZM30.927 23.1941C28.8764 23.1941 26.9098 24.0087 25.4598 25.4587C24.0099 26.9087 23.1953 28.8753 23.1953 30.9259C23.1953 32.9765 24.0099 34.9431 25.4598 36.3931C26.9098 37.843 28.8764 38.6576 30.927 38.6576C32.9776 38.6576 34.9442 37.843 36.3942 36.3931C37.8442 34.9431 38.6588 32.9765 38.6588 30.9259C38.6588 28.8753 37.8442 26.9087 36.3942 25.4587C34.9442 24.0087 32.9776 23.1941 30.927 23.1941ZM27.0611 30.9259C27.0611 29.9006 27.4684 28.9173 28.1934 28.1923C28.9184 27.4673 29.9017 27.06 30.927 27.06C31.9523 27.06 32.9356 27.4673 33.6606 28.1923C34.3856 28.9173 34.7929 29.9006 34.7929 30.9259C34.7929 31.9512 34.3856 32.9345 33.6606 33.6595C32.9356 34.3845 31.9523 34.7918 30.927 34.7918C29.9017 34.7918 28.9184 34.3845 28.1934 33.6595C27.4684 32.9345 27.0611 31.9512 27.0611 30.9259Z" fill="url(#paint0_linear_696_6792)"/>
<defs>
<linearGradient id="paint0_linear_696_6792" x1="0" y1="0" x2="70.5807" y2="16.9136" gradientUnits="userSpaceOnUse">
<stop stop-color="#511F5E"/>
<stop offset="1" stop-color="#C01E6C"/>
</linearGradient>
</defs>
</svg>
