<svg width="64" height="54" viewBox="0 0 64 54" fill="none" xmlns="http://www.w3.org/2000/svg">
<path d="M59.5723 48.1426L59.7881 48.1523C60.2876 48.2007 60.7591 48.4144 61.127 48.7617C61.5474 49.1587 61.8011 49.7011 61.835 50.2783C61.8688 50.8555 61.6806 51.4238 61.3096 51.8672C60.9398 52.309 60.4155 52.5925 59.8438 52.6621L59.5664 52.6797H7.0332C6.4549 52.679 5.89805 52.4575 5.47754 52.0605C5.0573 51.6636 4.80439 51.121 4.77051 50.5439C4.73665 49.9667 4.92477 49.3985 5.2959 48.9551C5.66558 48.5134 6.18917 48.2289 6.76074 48.1592L7.03906 48.1426H59.5723ZM19.6406 0.750977C20.0426 0.643391 20.4628 0.622 20.874 0.685547C21.28 0.74832 21.6693 0.893138 22.0166 1.1123L22.3447 1.35254L40.373 16.1953L40.6055 16.3867L40.9023 16.333L52.0879 14.3135C53.9302 13.9808 55.8276 14.1276 57.5967 14.7402C59.3657 15.353 60.9475 16.4106 62.1895 17.8115V17.8125C63.3949 19.1711 63.8736 20.923 63.3008 22.6162H63.2998C62.8321 24.0017 62.0506 25.2609 61.0156 26.2939C59.9831 27.3245 58.7262 28.1019 57.3438 28.5674L56.7568 28.7461L12.7607 40.5361C12.3175 40.6548 11.8501 40.652 11.4082 40.5283C10.9709 40.4059 10.5745 40.169 10.2588 39.8428L10.0322 39.5732L0.775391 27.2012H0.774414C0.563531 26.9196 0.420355 26.5929 0.355469 26.2471C0.290617 25.9012 0.305877 25.545 0.400391 25.2061C0.49492 24.8671 0.665938 24.5543 0.900391 24.292C1.13091 24.0341 1.41678 23.8313 1.73633 23.6992L2.04102 23.5986L8.64844 21.8291C9.07106 21.7158 9.51342 21.6967 9.94434 21.7725C10.3715 21.8476 10.7774 22.0146 11.1338 22.2617L11.4209 22.4834L13.7314 24.5156L14.0283 24.7764L14.3965 24.6328L21.3877 21.9004L22.2041 21.5811L21.6621 20.8926L10.374 6.55273C10.153 6.27185 10.0005 5.94293 9.92871 5.59277C9.85692 5.2425 9.86815 4.87948 9.96094 4.53418C10.0538 4.18903 10.2263 3.87052 10.4639 3.60352C10.6987 3.33962 10.991 3.13345 11.3184 3.00098L11.5957 2.90918L19.6406 0.750977ZM19.7256 5.42773L16.9961 6.15723L16.043 6.41211L16.6533 7.18652L27.6367 21.1514C28.528 22.283 28.1624 23.9181 26.9336 24.585L26.6396 24.7217L14.4082 29.499C14.061 29.6348 13.6859 29.6841 13.3154 29.6426C12.9503 29.6016 12.6003 29.4726 12.2949 29.2686L12.0371 29.0684L9.29199 26.6533L9.03027 26.4229L8.69336 26.5137L7.31836 26.8848L6.39355 27.1338L6.9668 27.9014L12.6152 35.4531L12.8789 35.8057L13.3037 35.6914L55.5957 24.3604C57.0871 23.9606 58.3006 22.8921 58.8887 21.4775L59.0459 21.0986L58.7725 20.7939C58.1086 20.0537 57.2802 19.4791 56.3545 19.1162C55.4289 18.7534 54.4313 18.6124 53.4414 18.7041L53.4268 18.7051L53.4131 18.707L52.9248 18.7744L52.9121 18.7764L52.8984 18.7783L40.3936 21.0381H40.3916C39.8319 21.1415 39.2541 21.0301 38.7725 20.7275L38.5156 20.5391L20.3125 5.55371L20.1318 5.40527H19.8076L19.7256 5.42773Z" fill="url(#paint0_linear_696_6796)" stroke="white" stroke-width="1.3"/>
<defs>
<linearGradient id="paint0_linear_696_6796" x1="-0.333984" y1="0" x2="72.9444" y2="18.3187" gradientUnits="userSpaceOnUse">
<stop stop-color="#511F5E"/>
<stop offset="1" stop-color="#C01E6C"/>
</linearGradient>
</defs>
</svg>
