<svg width="40" height="64" viewBox="0 0 40 64" fill="none" xmlns="http://www.w3.org/2000/svg">
<path d="M6.64258 0.200195H32.874C36.426 0.20046 39.3164 3.09062 39.3164 6.64258V57.3584C39.3161 60.9101 36.4258 63.7995 32.874 63.7998H6.64258C3.0906 63.7998 0.20046 60.9103 0.200195 57.3584V6.64258C0.200195 3.09044 3.09044 0.200195 6.64258 0.200195ZM3.59961 57.3584C3.59987 59.036 4.9649 60.4004 6.64258 60.4004H32.874C34.5515 60.4001 35.9158 59.0359 35.916 57.3584V52.8018H3.59961V57.3584ZM16.8457 54.8604H22.6719C23.6105 54.8606 24.3711 55.6219 24.3711 56.5605C24.3709 57.4991 23.6104 58.2595 22.6719 58.2598H16.8457C15.9075 58.2598 15.1457 57.4993 15.1455 56.5605C15.1455 55.6217 15.9074 54.8604 16.8457 54.8604ZM3.59961 49.4023H35.916V14.5977H3.59961V49.4023ZM9.49902 37.8359H22.4814C23.4203 37.836 24.1816 38.5969 24.1816 39.5352C24.1816 40.474 23.4203 41.2353 22.4814 41.2354H9.49902C8.56016 41.2354 7.79883 40.474 7.79883 39.5352C7.79889 38.5969 8.56017 37.8359 9.49902 37.8359ZM9.49902 30.2998H30.0166C30.9555 30.2998 31.7168 31.0611 31.7168 32C31.7167 32.9388 30.9554 33.7002 30.0166 33.7002H9.49902C8.5602 33.7002 7.79889 32.9388 7.79883 32C7.79883 31.0611 8.56016 30.2998 9.49902 30.2998ZM9.49902 22.7646H30.0166C30.9555 22.7646 31.7168 23.526 31.7168 24.4648C31.7167 25.4036 30.9554 26.165 30.0166 26.165H9.49902C8.5602 26.165 7.79889 25.4036 7.79883 24.4648C7.79883 23.526 8.56016 22.7646 9.49902 22.7646ZM6.64258 3.59961C4.96474 3.59961 3.59961 4.96474 3.59961 6.64258V11.1982H35.916V6.64258C35.916 4.9649 34.5516 3.59987 32.874 3.59961H6.64258Z" fill="url(#paint0_linear_266_5766)" stroke="white" stroke-width="0.4"/>
<defs>
<linearGradient id="paint0_linear_266_5766" x1="0.848978" y1="61.8667" x2="50.1454" y2="50.7133" gradientUnits="userSpaceOnUse">
<stop stop-color="#6549F6"/>
<stop offset="0.79" stop-color="#FF611D"/>
</linearGradient>
</defs>
</svg>
