<svg width="59" height="63" viewBox="0 0 59 63" fill="none" xmlns="http://www.w3.org/2000/svg">
<path d="M53.5 63H17.5C14.4668 63 12 60.5332 12 57.5V53.5C12 52.6718 12.6718 52 13.5 52C14.3282 52 15 52.6718 15 53.5V57.5C15 58.879 16.121 60 17.5 60H53.5C54.879 60 56 58.879 56 57.5V12.121L46.879 3H17.5C16.121 3 15 4.121 15 5.5V9.5C15 10.3282 14.3282 11 13.5 11C12.6718 11 12 10.3282 12 9.5V5.5C12 2.4668 14.4668 0 17.5 0H47.5C47.8984 0 48.2792 0.1582 48.5606 0.4394L58.5606 10.4394C58.8418 10.7206 59 11.1024 59 11.5V57.5C59 60.5332 56.5332 63 53.5 63Z" fill="url(#paint0_linear_266_5756)"/>
<path d="M57.5 13H47.5C46.6718 13 46 12.3282 46 11.5V1.5C46 0.6718 46.6718 0 47.5 0C48.3282 0 49 0.6718 49 1.5V10H57.5C58.3282 10 59 10.6718 59 11.5C59 12.3282 58.3282 13 57.5 13Z" fill="url(#paint1_linear_266_5756)"/>
<path d="M25.5 13H21.5C20.6718 13 20 12.3282 20 11.5C20 10.6718 20.6718 10 21.5 10H25.5C26.3282 10 27 10.6718 27 11.5C27 12.3282 26.3282 13 25.5 13Z" fill="url(#paint2_linear_266_5756)"/>
<path d="M49.5 21H45.5C44.6718 21 44 20.3282 44 19.5C44 18.6718 44.6718 18 45.5 18H49.5C50.3282 18 51 18.6718 51 19.5C51 20.3282 50.3282 21 49.5 21Z" fill="url(#paint3_linear_266_5756)"/>
<path d="M39.5 13H31.5C30.6718 13 30 12.3282 30 11.5C30 10.6718 30.6718 10 31.5 10H39.5C40.3282 10 41 10.6718 41 11.5C41 12.3282 40.3282 13 39.5 13Z" fill="url(#paint4_linear_266_5756)"/>
<path d="M49.5 53H45.5C44.6718 53 44 52.3282 44 51.5C44 50.6718 44.6718 50 45.5 50H49.5C50.3282 50 51 50.6718 51 51.5C51 52.3282 50.3282 53 49.5 53Z" fill="url(#paint5_linear_266_5756)"/>
<path d="M49.5 45H31.5C30.6718 45 30 44.3282 30 43.5C30 42.6718 30.6718 42 31.5 42H49.5C50.3282 42 51 42.6718 51 43.5C51 44.3282 50.3282 45 49.5 45Z" fill="url(#paint6_linear_266_5756)"/>
<path d="M39.4999 21H26.9199C26.0917 21 25.4199 20.3282 25.4199 19.5C25.4199 18.6718 26.0917 18 26.9199 18H39.4999C40.3281 18 40.9999 18.6718 40.9999 19.5C40.9999 20.3282 40.3281 21 39.4999 21Z" fill="url(#paint7_linear_266_5756)"/>
<path d="M39.5 53H27.5C26.6718 53 26 52.3282 26 51.5C26 50.6718 26.6718 50 27.5 50H39.5C40.3282 50 41 50.6718 41 51.5C41 52.3282 40.3282 53 39.5 53Z" fill="url(#paint8_linear_266_5756)"/>
<path d="M49.5001 29H30.6797C29.8515 29 29.1797 28.3282 29.1797 27.5C29.1797 26.6718 29.8515 26 30.6797 26H49.5001C50.3283 26 51.0001 26.6718 51.0001 27.5C51.0001 28.3282 50.3283 29 49.5001 29Z" fill="url(#paint9_linear_266_5756)"/>
<path d="M49.5 37H31.5C30.6718 37 30 36.3282 30 35.5C30 34.6718 30.6718 34 31.5 34H49.5C50.3282 34 51 34.6718 51 35.5C51 36.3282 50.3282 37 49.5 37Z" fill="url(#paint10_linear_266_5756)"/>
<path d="M21.5 49H5.5C2.4668 49 0 46.5332 0 43.5V31.5C0 28.4668 2.4668 26 5.5 26H21.5C24.5332 26 27 28.4668 27 31.5V43.5C27 46.5332 24.5332 49 21.5 49ZM5.5 29C4.121 29 3 30.121 3 31.5V43.5C3 44.879 4.121 46 5.5 46H21.5C22.879 46 24 44.879 24 43.5V31.5C24 30.121 22.879 29 21.5 29H5.5Z" fill="url(#paint11_linear_266_5756)"/>
<path d="M21.5 29H5.5C4.6718 29 4 28.3282 4 27.5V23.5C4 18.2618 8.2618 14 13.5 14C18.7382 14 23 18.2618 23 23.5V27.5C23 28.3282 22.3282 29 21.5 29ZM7 26H20V23.5C20 19.916 17.084 17 13.5 17C9.916 17 7 19.916 7 23.5V26Z" fill="url(#paint12_linear_266_5756)"/>
<defs>
<linearGradient id="paint0_linear_266_5756" x1="1.26758" y1="60.9" x2="70.4863" y2="37.1463" gradientUnits="userSpaceOnUse">
<stop stop-color="#6549F6"/>
<stop offset="0.79" stop-color="#FF611D"/>
</linearGradient>
<linearGradient id="paint1_linear_266_5756" x1="1.26758" y1="60.9" x2="70.4863" y2="37.1463" gradientUnits="userSpaceOnUse">
<stop stop-color="#6549F6"/>
<stop offset="0.79" stop-color="#FF611D"/>
</linearGradient>
<linearGradient id="paint2_linear_266_5756" x1="1.26758" y1="60.9" x2="70.4863" y2="37.1463" gradientUnits="userSpaceOnUse">
<stop stop-color="#6549F6"/>
<stop offset="0.79" stop-color="#FF611D"/>
</linearGradient>
<linearGradient id="paint3_linear_266_5756" x1="1.26758" y1="60.9" x2="70.4863" y2="37.1463" gradientUnits="userSpaceOnUse">
<stop stop-color="#6549F6"/>
<stop offset="0.79" stop-color="#FF611D"/>
</linearGradient>
<linearGradient id="paint4_linear_266_5756" x1="1.26758" y1="60.9" x2="70.4863" y2="37.1463" gradientUnits="userSpaceOnUse">
<stop stop-color="#6549F6"/>
<stop offset="0.79" stop-color="#FF611D"/>
</linearGradient>
<linearGradient id="paint5_linear_266_5756" x1="1.26758" y1="60.9" x2="70.4863" y2="37.1463" gradientUnits="userSpaceOnUse">
<stop stop-color="#6549F6"/>
<stop offset="0.79" stop-color="#FF611D"/>
</linearGradient>
<linearGradient id="paint6_linear_266_5756" x1="1.26758" y1="60.9" x2="70.4863" y2="37.1463" gradientUnits="userSpaceOnUse">
<stop stop-color="#6549F6"/>
<stop offset="0.79" stop-color="#FF611D"/>
</linearGradient>
<linearGradient id="paint7_linear_266_5756" x1="1.26758" y1="60.9" x2="70.4863" y2="37.1463" gradientUnits="userSpaceOnUse">
<stop stop-color="#6549F6"/>
<stop offset="0.79" stop-color="#FF611D"/>
</linearGradient>
<linearGradient id="paint8_linear_266_5756" x1="1.26758" y1="60.9" x2="70.4863" y2="37.1463" gradientUnits="userSpaceOnUse">
<stop stop-color="#6549F6"/>
<stop offset="0.79" stop-color="#FF611D"/>
</linearGradient>
<linearGradient id="paint9_linear_266_5756" x1="1.26758" y1="60.9" x2="70.4863" y2="37.1463" gradientUnits="userSpaceOnUse">
<stop stop-color="#6549F6"/>
<stop offset="0.79" stop-color="#FF611D"/>
</linearGradient>
<linearGradient id="paint10_linear_266_5756" x1="1.26758" y1="60.9" x2="70.4863" y2="37.1463" gradientUnits="userSpaceOnUse">
<stop stop-color="#6549F6"/>
<stop offset="0.79" stop-color="#FF611D"/>
</linearGradient>
<linearGradient id="paint11_linear_266_5756" x1="1.26758" y1="60.9" x2="70.4863" y2="37.1463" gradientUnits="userSpaceOnUse">
<stop stop-color="#6549F6"/>
<stop offset="0.79" stop-color="#FF611D"/>
</linearGradient>
<linearGradient id="paint12_linear_266_5756" x1="1.26758" y1="60.9" x2="70.4863" y2="37.1463" gradientUnits="userSpaceOnUse">
<stop stop-color="#6549F6"/>
<stop offset="0.79" stop-color="#FF611D"/>
</linearGradient>
</defs>
</svg>
