<svg width="24" height="24" viewBox="0 0 24 24" fill="none" xmlns="http://www.w3.org/2000/svg">
<path fill-rule="evenodd" clip-rule="evenodd" d="M12 0C18.6168 0 24 5.38308 24 12C24 18.6169 18.6168 24 12 24C5.38317 24 0 18.6168 0 12C0 5.38322 5.38317 0 12 0ZM12.4881 4.73273C12.2458 4.73275 12.0089 4.80462 11.8075 4.93924C11.6061 5.07387 11.4491 5.2652 11.3564 5.48906C11.2637 5.71291 11.2394 5.95922 11.2867 6.19685C11.334 6.43447 11.4507 6.65273 11.6221 6.82403C11.7934 6.99533 12.0117 7.11197 12.2494 7.1592C12.487 7.20643 12.7333 7.18214 12.9571 7.08938C13.1809 6.99663 13.3722 6.83958 13.5068 6.6381C13.6414 6.43663 13.7132 6.19977 13.7131 5.95748C13.7128 5.63272 13.5836 5.32136 13.3539 5.09175C13.1242 4.86214 12.8128 4.73302 12.4881 4.73273ZM12.4881 7.74497C12.8416 7.74496 13.1872 7.64012 13.4811 7.4437C13.7751 7.24728 14.0042 6.96811 14.1394 6.64149C14.2747 6.31487 14.3101 5.95547 14.2411 5.60873C14.1722 5.262 14.0019 4.9435 13.7519 4.69353C13.502 4.44355 13.1835 4.27331 12.8367 4.20434C12.49 4.13538 12.1306 4.17078 11.804 4.30607C11.4773 4.44136 11.1982 4.67047 11.0018 4.96442C10.8054 5.25837 10.7005 5.60396 10.7005 5.95748C10.701 6.43141 10.8895 6.88577 11.2247 7.22088C11.5598 7.55599 12.0141 7.74447 12.4881 7.74497ZM13.9843 18.1389C14.1136 18.0131 14.2463 17.8837 14.381 17.7595C14.3634 17.6991 14.3311 17.6441 14.2871 17.5993C14.243 17.5545 14.1885 17.5213 14.1284 17.5028C13.7129 17.7657 13.1617 18.0361 12.7896 17.769C12.3823 17.476 12.5135 16.7636 12.6476 16.2535C12.8355 15.4984 13.0029 14.7985 13.1411 13.9125C13.1422 13.9059 13.1434 13.8995 13.1449 13.8929C13.5584 12.0852 13.6628 10.9801 13.4838 10.3103C13.4791 10.2926 13.4761 10.2743 13.4749 10.256C13.4571 9.98602 13.3755 9.72415 13.2367 9.49194C13.0979 9.25972 12.9059 9.0638 12.6766 8.92031C11.5879 8.24105 10.8592 8.95059 10.0156 9.77227C9.88631 9.89831 9.75366 10.0275 9.61898 10.1517C9.63654 10.2121 9.6688 10.2671 9.71286 10.3119C9.75692 10.3567 9.81142 10.3899 9.87145 10.4084C10.1659 10.2222 10.5283 10.0323 10.8471 10.0323C10.9769 10.0291 11.1042 10.0678 11.2103 10.1426C11.6177 10.4352 11.4864 11.1476 11.3522 11.658C11.1645 12.413 10.997 13.1131 10.8588 13.9989C10.8577 14.0055 10.8565 14.0117 10.8551 14.0181C10.4416 15.8262 10.3371 16.9315 10.5162 17.6008C10.5208 17.6186 10.5238 17.6369 10.5251 17.6552C10.5429 17.9252 10.6245 18.187 10.7633 18.4192C10.9021 18.6514 11.0941 18.8473 11.3234 18.9907C12.4123 19.6698 13.1408 18.9602 13.9844 18.1386L13.9843 18.1389ZM14.0896 16.9265C14.0275 16.9218 13.9656 16.9378 13.9136 16.9721C13.2944 17.3794 13.1191 17.3128 13.1181 17.3124C13.1167 17.3111 12.9877 17.1722 13.1926 16.3927C13.3839 15.6235 13.554 14.9129 13.6954 14.0087C14.1293 12.1089 14.2312 10.9635 14.0341 10.1918C14.0064 9.83785 13.8961 9.49529 13.712 9.19165C13.528 8.888 13.2753 8.63173 12.9743 8.44341C11.5113 7.53047 10.5082 8.50753 9.62311 9.36966C9.46373 9.52514 9.29859 9.68564 9.13594 9.83048C9.10668 9.85657 9.0832 9.88846 9.06697 9.92414C9.05075 9.95982 9.04215 9.99848 9.04172 10.0377C9.03971 10.2762 9.12823 10.5066 9.28942 10.6824C9.45061 10.8582 9.67248 10.9663 9.91027 10.9849C9.97232 10.9897 10.0342 10.9738 10.0862 10.9396C10.7055 10.5323 10.8807 10.5986 10.8818 10.5993C10.8829 10.5999 11.0122 10.7395 10.8073 11.5189C10.616 12.288 10.446 12.9984 10.3045 13.9028C9.87056 15.8025 9.76866 16.9482 9.96567 17.7196C9.99349 18.0736 10.1039 18.4161 10.2879 18.7198C10.472 19.0234 10.7246 19.2797 11.0256 19.4681C11.4417 19.7277 11.8206 19.8347 12.1702 19.8347C13.0497 19.8347 13.7436 19.1587 14.3768 18.5418C14.5362 18.3862 14.7013 18.2258 14.8639 18.081C14.8931 18.0549 14.9166 18.023 14.9328 17.9873C14.9491 17.9517 14.9577 17.913 14.9582 17.8738C14.9601 17.6353 14.8715 17.405 14.7104 17.2292C14.5492 17.0535 14.3274 16.9453 14.0896 16.9266L14.0896 16.9265Z" fill="white"/>
</svg>
