<svg width="43" height="43" viewBox="0 0 43 43" fill="none" xmlns="http://www.w3.org/2000/svg">
<path d="M11.5018 25.4992C10.6288 25.5005 9.76652 25.6923 8.97527 26.0612C8.18402 26.4301 7.4828 26.9673 6.92057 27.6352C6.35834 28.3031 5.94863 29.0856 5.72004 29.9282C5.49145 30.7708 5.44949 31.6531 5.59708 32.5135C5.74467 33.374 6.07827 34.1919 6.57458 34.9101C7.07088 35.6283 7.71795 36.2296 8.47062 36.672C9.22329 37.1143 10.0634 37.3871 10.9324 37.4712C11.8014 37.5554 12.6782 37.4489 13.5018 37.1592M6.02978 28.7092C4.83291 28.133 3.79835 27.2678 3.01948 26.1917C2.24062 25.1157 1.74195 23.8626 1.5685 22.5457C1.39504 21.2287 1.55226 19.8892 2.02595 18.6482C2.49965 17.4072 3.27491 16.3036 4.28178 15.4372M4.34178 15.2752C3.68587 14.2937 3.39838 13.1118 3.53022 11.9386C3.66206 10.7655 4.20472 9.67691 5.06213 8.86548C5.91954 8.05405 7.0364 7.57216 8.21499 7.50512C9.39359 7.43808 10.5579 7.79022 11.5018 8.49918M11.9778 8.62918C11.6587 7.95127 11.4961 7.21033 11.5019 6.46111C11.5078 5.71189 11.6819 4.97357 12.0114 4.3007C12.341 3.62784 12.8176 3.03764 13.4059 2.57373C13.9943 2.10982 14.6793 1.78406 15.4105 1.62054C16.1417 1.45702 16.9003 1.4599 17.6302 1.62899C18.3601 1.79808 19.0427 2.12904 19.6275 2.59742C20.2122 3.06579 20.6843 3.6596 21.0087 4.33496C21.3332 5.01031 21.5017 5.74995 21.5018 6.49918M21.5018 6.49918V11.4992M21.5018 6.49918C21.5019 5.74995 21.6704 5.01031 21.9948 4.33496C22.3193 3.6596 22.7913 3.06579 23.3761 2.59742C23.9609 2.12904 24.6435 1.79808 25.3734 1.62899C26.1033 1.4599 26.8619 1.45702 27.593 1.62054C28.3242 1.78406 29.0093 2.10982 29.5976 2.57373C30.186 3.03764 30.6626 3.62784 30.9921 4.3007C31.3217 4.97357 31.4958 5.71189 31.5016 6.46111C31.5075 7.21033 31.3448 7.95127 31.0258 8.62918M21.5018 11.4992V37.4992M21.5018 11.4992C21.5018 13.0905 22.1339 14.6166 23.2591 15.7418C24.3844 16.867 25.9105 17.4992 27.5018 17.4992M21.5018 37.4992C21.5018 38.5601 21.0804 39.5775 20.3302 40.3276C19.5801 41.0778 18.5626 41.4992 17.5018 41.4992C16.4409 41.4992 15.4235 41.0778 14.6734 40.3276C13.9232 39.5775 13.5018 38.5601 13.5018 37.4992M21.5018 37.4992C21.5018 38.5601 21.9232 39.5775 22.6734 40.3276C23.4235 41.0778 24.4409 41.4992 25.5018 41.4992C26.5626 41.4992 27.5801 41.0778 28.3302 40.3276C29.0804 39.5775 29.5018 38.5601 29.5018 37.4992M31.5018 25.4992C32.3748 25.5005 33.237 25.6923 34.0283 26.0612C34.8195 26.4301 35.5208 26.9673 36.083 27.6352C36.6452 28.3031 37.0549 29.0856 37.2835 29.9282C37.5121 30.7708 37.5541 31.6531 37.4065 32.5135C37.2589 33.374 36.9253 34.1919 36.429 34.9101C35.9327 35.6283 35.2856 36.2296 34.5329 36.672C33.7803 37.1143 32.9401 37.3871 32.0712 37.4712C31.2022 37.5554 30.3253 37.4489 29.5018 37.1592M36.9738 28.7092C38.1707 28.133 39.2052 27.2678 39.9841 26.1917C40.7629 25.1157 41.2616 23.8626 41.4351 22.5457C41.6085 21.2287 41.4513 19.8892 40.9776 18.6482C40.5039 17.4072 39.7286 16.3036 38.7218 15.4372M38.6618 15.2752C39.3177 14.2937 39.6052 13.1118 39.4733 11.9386C39.3415 10.7655 38.7988 9.67691 37.9414 8.86548C37.084 8.05405 35.9672 7.57216 34.7886 7.50512C33.61 7.43808 32.4457 7.79022 31.5018 8.49918" stroke="url(#paint0_linear_836_9309)" stroke-width="3" stroke-linecap="round" stroke-linejoin="round"/>
<defs>
<linearGradient id="paint0_linear_836_9309" x1="-0.489279" y1="42.012" x2="48.5663" y2="-15.9691" gradientUnits="userSpaceOnUse">
<stop stop-color="#C01E6C"/>
<stop offset="1" stop-color="#FF9A3C"/>
</linearGradient>
</defs>
</svg>
