<svg width="64" height="64" viewBox="0 0 64 64" fill="none" xmlns="http://www.w3.org/2000/svg">
<path d="M32 22.9626C34.773 22.9626 37.0209 20.7147 37.0209 17.9418C37.0209 15.1688 34.773 12.9209 32 12.9209C29.227 12.9209 26.9791 15.1688 26.9791 17.9418C26.9791 20.7147 29.227 22.9626 32 22.9626Z" stroke="url(#paint0_linear_251_4503)" stroke-width="3.75" stroke-miterlimit="10" stroke-linecap="round" stroke-linejoin="round"/>
<path d="M35.4466 5.34825L35.0125 1.875H28.9875L28.5534 5.34825C27.4865 5.63987 26.4739 6.06375 25.534 6.60112L22.7692 4.45075L18.509 8.711L20.6594 11.4757C20.1222 12.415 19.6982 13.4279 19.4065 14.4951L15.9332 14.9292V20.9543L19.4065 21.3884C19.6981 22.4552 20.122 23.4679 20.6594 24.4077L18.509 27.1725L22.7692 31.4328L25.534 29.2824C26.4732 29.8195 27.4861 30.2435 28.5534 30.5352L28.9875 34.0085H35.0125L35.4466 30.5352C36.5135 30.2436 37.5261 29.8198 38.466 29.2824L41.2307 31.4328L45.491 27.1725L43.3406 24.4077C43.8777 23.4685 44.3017 22.4556 44.5935 21.3884L48.0667 20.9543V14.9292L44.5935 14.4951C44.3019 13.4282 43.878 12.4156 43.3406 11.4757L45.491 8.711L41.2307 4.45075L38.466 6.60112C37.5266 6.064 36.5139 5.64 35.4466 5.34825Z" stroke="url(#paint1_linear_251_4503)" stroke-width="3.75" stroke-miterlimit="10" stroke-linecap="round" stroke-linejoin="round"/>
<path d="M1.875 21.9585C6.31175 21.9585 9.90837 25.5551 9.90837 29.9919C9.90837 35.5836 9.90837 42.0419 9.90837 42.0419L14.9292 47.0627C14.9292 47.0627 13.0194 45.1529 11.5555 43.689C10.5009 42.6344 9.9085 41.2041 9.9085 39.7127V39.7075C9.9085 38.0064 10.9119 36.4652 12.4676 35.777C14.0234 35.0889 15.8386 35.383 17.0974 36.5274C19.1719 38.4132 21.4539 40.4877 23.5952 42.4345C25.787 44.427 27.067 47.23 27.1375 50.1911C27.208 53.1522 26.0626 56.0131 23.9683 58.1075L23.967 58.1087V62.1251H11.917V58.1085L1.875 48.0667V21.9585Z" stroke="url(#paint2_linear_251_4503)" stroke-width="3.75" stroke-miterlimit="10" stroke-linecap="round" stroke-linejoin="round"/>
<path d="M62.1249 21.9585C57.6882 21.9585 54.0916 25.5551 54.0916 29.9919C54.0916 35.5836 54.0916 42.0419 54.0916 42.0419L49.0708 47.0626C49.0708 47.0626 50.9807 45.1527 52.4446 43.6889C53.4992 42.6342 54.0916 41.204 54.0916 39.7126V39.7074C54.0916 38.0062 53.0882 36.4651 51.5324 35.7769C49.9767 35.0887 48.1614 35.3829 46.9027 36.5272C44.8282 38.4131 42.5462 40.4876 40.4048 42.4344C38.2131 44.4269 36.9331 47.2299 36.8626 50.191C36.7921 53.1521 37.9374 56.013 40.0318 58.1074L40.0331 58.1086V62.1251H52.0831V58.1085L62.1249 48.0667V21.9585Z" stroke="url(#paint3_linear_251_4503)" stroke-width="3.75" stroke-miterlimit="10" stroke-linecap="round" stroke-linejoin="round"/>
<defs>
<linearGradient id="paint0_linear_251_4503" x1="3.16943" y1="60.1168" x2="72.8258" y2="34.5924" gradientUnits="userSpaceOnUse">
<stop stop-color="#6549F6"/>
<stop offset="0.79" stop-color="#FF611D"/>
</linearGradient>
<linearGradient id="paint1_linear_251_4503" x1="3.16943" y1="60.1168" x2="72.8258" y2="34.5924" gradientUnits="userSpaceOnUse">
<stop stop-color="#6549F6"/>
<stop offset="0.79" stop-color="#FF611D"/>
</linearGradient>
<linearGradient id="paint2_linear_251_4503" x1="3.16943" y1="60.1168" x2="72.8258" y2="34.5924" gradientUnits="userSpaceOnUse">
<stop stop-color="#6549F6"/>
<stop offset="0.79" stop-color="#FF611D"/>
</linearGradient>
<linearGradient id="paint3_linear_251_4503" x1="3.16943" y1="60.1168" x2="72.8258" y2="34.5924" gradientUnits="userSpaceOnUse">
<stop stop-color="#6549F6"/>
<stop offset="0.79" stop-color="#FF611D"/>
</linearGradient>
</defs>
</svg>
