<svg width="64" height="64" viewBox="0 0 64 64" fill="none" xmlns="http://www.w3.org/2000/svg">
<path d="M26.375 25.1493V39.3729C26.375 40.4081 27.2143 41.2479 28.25 41.2479C29.2856 41.2479 30.125 40.4081 30.125 39.3729V26.2479H33.875V39.3729C33.875 40.4081 34.7143 41.2479 35.75 41.2479C36.7856 41.2479 37.625 40.4081 37.625 39.3729V25.1493L40.8257 21.9486C41.5581 21.2162 41.5581 20.0292 40.8257 19.2968C40.0937 18.5648 38.9062 18.5648 38.1743 19.2968L34.9731 22.4979H29.0268L25.8257 19.2968C25.0937 18.5648 23.9067 18.5648 23.1743 19.2968C22.4419 20.0292 22.4419 21.2162 23.1743 21.9486L26.375 25.1493Z" fill="url(#paint0_linear_251_4504)"/>
<path d="M32 63.998C35.1016 63.998 37.625 61.4745 37.625 58.373V56.1752C39.8076 55.4013 41.375 53.3173 41.375 50.873V48.6649C42.1675 48.3739 42.8946 47.8983 43.5069 47.2572C44.5503 46.1659 45.125 44.7421 45.125 43.2479V38.87C45.125 37.4135 45.7051 36.018 46.7578 34.9398C50.5415 31.0678 52.625 25.9828 52.625 20.6229C52.625 7.63613 40.7442 -2.27354 27.6016 0.454486C19.5908 2.1166 13.2114 8.67714 11.7276 16.7797C10.5039 23.4618 12.5029 30.0702 17.2129 34.9101C18.2847 36.0116 18.875 37.4188 18.875 38.8734V43.2479C18.875 44.7421 19.4497 46.1659 20.4932 47.2572C21.1055 47.8983 21.8325 48.3739 22.625 48.6649V50.873C22.625 53.3173 24.1924 55.4013 26.375 56.1752V58.373C26.375 61.4745 28.8985 63.998 32 63.998ZM32 60.248C30.9663 60.248 30.125 59.4066 30.125 58.373V56.498H33.875V58.373C33.875 59.4066 33.0337 60.248 32 60.248ZM35.75 52.748H28.25C27.2163 52.748 26.375 51.9066 26.375 50.873V48.998H37.625V50.873C37.625 51.9066 36.7837 52.748 35.75 52.748ZM19.9004 32.2948C16.0484 28.3363 14.4141 22.9276 15.4165 17.4555C16.6284 10.8383 21.8316 5.48134 28.3633 4.12587C39.2022 1.87685 48.875 10.0385 48.875 20.6229C48.875 24.9979 47.1704 29.1518 44.0757 32.3192C42.334 34.102 41.375 36.4281 41.375 38.87V43.2479C41.375 44.3129 40.4986 45.2479 39.5 45.2479H24.5C23.5015 45.2479 22.625 44.3129 22.625 43.2479V38.8734C22.625 36.4369 21.6572 34.1005 19.9004 32.2948Z" fill="url(#paint1_linear_251_4504)"/>
<path d="M7.625 20.6228C7.625 19.5872 6.78564 18.7478 5.75 18.7478H1.875C0.839355 18.7478 0 19.5872 0 20.6228C0 21.658 0.839355 22.4978 1.875 22.4978H5.75C6.78564 22.4978 7.625 21.658 7.625 20.6228Z" fill="url(#paint2_linear_251_4504)"/>
<path d="M62.125 18.7478H58.25C57.2143 18.7478 56.375 19.5872 56.375 20.6228C56.375 21.658 57.2143 22.4978 58.25 22.4978H62.125C63.1606 22.4978 64 21.658 64 20.6228C64 19.5872 63.1606 18.7478 62.125 18.7478Z" fill="url(#paint3_linear_251_4504)"/>
<path d="M6.95654 37.2464L10.2041 35.3714C11.1011 34.8538 11.4082 33.7069 10.8906 32.8104C10.3726 31.9134 9.22607 31.6063 8.3291 32.1238L5.08154 33.9988C4.18506 34.5169 3.87744 35.6634 4.39551 36.5604C4.91504 37.4598 6.0625 37.7625 6.95654 37.2464Z" fill="url(#paint4_linear_251_4504)"/>
<path d="M59.6045 4.68537C59.0864 3.7884 57.9399 3.48127 57.0435 3.99885L53.7959 5.87385C52.8989 6.39143 52.5918 7.5384 53.1094 8.43537C53.6289 9.33479 54.7764 9.63752 55.6709 9.12141L58.9185 7.24641C59.8149 6.72883 60.1226 5.58186 59.6045 4.68537Z" fill="url(#paint5_linear_251_4504)"/>
<path d="M10.2046 5.8737L6.95707 3.9987C6.0601 3.48063 4.91312 3.78825 4.39555 4.68522C3.87797 5.58171 4.1851 6.72868 5.08207 7.24626L8.32963 9.12126C9.22221 9.63688 10.3706 9.33561 10.8907 8.43522C11.4087 7.53825 11.1011 6.39128 10.2046 5.8737Z" fill="url(#paint6_linear_251_4504)"/>
<path d="M53.1093 32.8102C52.5913 33.7067 52.8989 34.8537 53.7954 35.3713L57.0429 37.2463C57.936 37.7619 59.0844 37.4606 59.6045 36.5602C60.122 35.6632 59.8149 34.5163 58.9179 33.9987L55.6704 32.1237C54.7734 31.6056 53.6274 31.9132 53.1093 32.8102Z" fill="url(#paint7_linear_251_4504)"/>
<defs>
<linearGradient id="paint0_linear_251_4504" x1="1.375" y1="61.8647" x2="75.3663" y2="34.7509" gradientUnits="userSpaceOnUse">
<stop stop-color="#6549F6"/>
<stop offset="0.79" stop-color="#FF611D"/>
</linearGradient>
<linearGradient id="paint1_linear_251_4504" x1="1.375" y1="61.8647" x2="75.3663" y2="34.7509" gradientUnits="userSpaceOnUse">
<stop stop-color="#6549F6"/>
<stop offset="0.79" stop-color="#FF611D"/>
</linearGradient>
<linearGradient id="paint2_linear_251_4504" x1="1.375" y1="61.8647" x2="75.3663" y2="34.7509" gradientUnits="userSpaceOnUse">
<stop stop-color="#6549F6"/>
<stop offset="0.79" stop-color="#FF611D"/>
</linearGradient>
<linearGradient id="paint3_linear_251_4504" x1="1.375" y1="61.8647" x2="75.3663" y2="34.7509" gradientUnits="userSpaceOnUse">
<stop stop-color="#6549F6"/>
<stop offset="0.79" stop-color="#FF611D"/>
</linearGradient>
<linearGradient id="paint4_linear_251_4504" x1="1.375" y1="61.8647" x2="75.3663" y2="34.7509" gradientUnits="userSpaceOnUse">
<stop stop-color="#6549F6"/>
<stop offset="0.79" stop-color="#FF611D"/>
</linearGradient>
<linearGradient id="paint5_linear_251_4504" x1="1.375" y1="61.8647" x2="75.3663" y2="34.7509" gradientUnits="userSpaceOnUse">
<stop stop-color="#6549F6"/>
<stop offset="0.79" stop-color="#FF611D"/>
</linearGradient>
<linearGradient id="paint6_linear_251_4504" x1="1.375" y1="61.8647" x2="75.3663" y2="34.7509" gradientUnits="userSpaceOnUse">
<stop stop-color="#6549F6"/>
<stop offset="0.79" stop-color="#FF611D"/>
</linearGradient>
<linearGradient id="paint7_linear_251_4504" x1="1.375" y1="61.8647" x2="75.3663" y2="34.7509" gradientUnits="userSpaceOnUse">
<stop stop-color="#6549F6"/>
<stop offset="0.79" stop-color="#FF611D"/>
</linearGradient>
</defs>
</svg>
