<svg width="59" height="58" viewBox="0 0 59 58" fill="none" xmlns="http://www.w3.org/2000/svg">
<path fill-rule="evenodd" clip-rule="evenodd" d="M22.6213 28.5628C22.6213 29.5056 22.8422 30.4044 23.2797 31.2347C23.5859 31.8172 23.1589 32.5125 22.5086 32.5125C22.1948 32.5125 21.8912 32.3438 21.7353 32.0476C21.1741 30.9802 20.8778 29.7743 20.8778 28.5629C20.8778 24.0455 24.8611 20.5458 29.3501 21.1366C29.4255 20.3897 30.3855 20.0672 30.8873 20.668L32.1911 22.2493C32.5473 22.866 32.0865 23.4942 31.6248 23.5552L29.7519 23.9563C29.0799 24.098 28.5294 23.4534 28.7436 22.8271C25.3702 22.6427 22.6213 25.2683 22.6213 28.5628ZM35.0012 25.0781C34.7765 24.6515 34.249 24.4884 33.8232 24.7129C33.3967 24.936 33.2335 25.4639 33.4574 25.8909C35.5121 29.7998 32.5321 34.5643 28.0133 34.2983C28.1903 33.6659 27.6445 33.0794 27.0095 33.2033L25.0217 33.594C24.5029 33.7552 24.2526 34.3818 24.5381 34.8613C24.6621 35.0698 25.5942 36.199 25.8089 36.4668C26.3025 37.083 27.304 36.7754 27.3584 35.9844C31.8589 36.5943 35.8593 33.088 35.8593 28.5629C35.8594 27.3499 35.5625 26.1452 35.0012 25.0781ZM39.7173 33.0159L37.7449 30.8253C37.5671 30.6274 37.4895 30.3614 37.532 30.0997C37.7001 29.0784 37.7001 28.0684 37.532 27.0488C37.4896 26.787 37.5672 26.5211 37.7449 26.3232L39.7173 24.1326L37.889 20.9666L35.0035 21.5794C34.7445 21.635 34.473 21.5687 34.2689 21.4002C33.4744 20.7468 32.5868 20.2331 31.6307 19.8749C31.3818 19.7806 31.1888 19.5794 31.1068 19.3273L30.1966 16.5252H26.5399L25.6298 19.3273C25.5485 19.5795 25.3554 19.7806 25.1066 19.8749C24.1497 20.2329 23.2622 20.7468 22.4684 21.4002C22.2635 21.5689 21.9929 21.635 21.7331 21.5794L18.8476 20.9666L17.02 24.1326L18.9917 26.3232C19.1695 26.5211 19.2478 26.787 19.2046 27.0488C19.0368 28.0626 19.0368 29.0858 19.2046 30.0997C19.2477 30.3614 19.1695 30.6287 18.9917 30.8253L17.02 33.0159L18.8476 36.1819L21.7331 35.5691C21.9928 35.5134 22.2635 35.5795 22.4684 35.7481C23.2623 36.4016 24.1497 36.9156 25.1066 37.2747C25.3554 37.3675 25.5485 37.5687 25.6298 37.8212L26.5399 40.6233H30.1966L31.1068 37.8223C31.1887 37.5687 31.3818 37.3676 31.6307 37.2747C32.5884 36.9154 33.4758 36.4016 34.2689 35.7491C34.4745 35.5794 34.7452 35.5133 35.0049 35.569L37.889 36.1817L39.7173 33.0159ZM27.4961 53.5004V42.3676H26.1149C25.6108 42.3676 25.1682 42.0467 25.0138 41.5677L24.0971 38.7503C23.2418 38.3899 22.4371 37.9247 21.6952 37.3596L18.7943 37.9769C18.3011 38.0804 17.8016 37.8583 17.5498 37.4224L15.2971 33.5191C15.0447 33.083 15.101 32.5391 15.4383 32.1644L17.4226 29.9625C17.3057 29.0428 17.3054 28.1063 17.4226 27.187L15.4383 24.9835C15.101 24.6091 15.0447 24.065 15.2971 23.6292L17.5498 19.7258C17.8014 19.2897 18.3011 19.0675 18.7943 19.1724L21.6952 19.7886C22.4371 19.2236 23.2418 18.7584 24.0971 18.3991L25.0138 15.5805C25.1682 15.1027 25.6108 14.7806 26.1149 14.7806H27.4961V3.64823C27.4961 3.24247 27.2817 2.91696 26.9072 2.75747C22.6665 0.945634 17.9403 4.12618 17.9403 8.69526V12.4985C18.7525 12.0905 19.6135 11.7824 20.5098 11.5823C20.9802 11.4776 21.4462 11.774 21.5509 12.2439C21.6555 12.7148 21.3592 13.1799 20.8896 13.2844C18.7017 13.7717 16.7875 15.0176 15.436 16.8062C15.2641 17.0332 15.0036 17.153 14.7388 17.153C14.0412 17.153 13.6046 16.3375 14.043 15.7563C14.6627 14.9346 15.3808 14.2104 16.1969 13.5902V8.69526C16.1969 8.27453 16.2292 7.85699 16.2928 7.44432C11.4817 7.84074 7.68661 11.8802 7.68661 16.7915C7.68661 18.497 8.14613 20.1648 9.02626 21.6249C9.27509 22.0376 9.14261 22.5737 8.72994 22.8224C8.32213 23.0661 7.78389 22.9423 7.53301 22.5248C7.1709 21.9236 6.86792 21.29 6.62652 20.6341C0.790868 24.2941 0.790612 32.8549 6.62652 36.5144C6.86792 35.8588 7.1709 35.2252 7.53301 34.624C7.78108 34.2113 8.31663 34.0787 8.72994 34.3276C9.14261 34.5752 9.27496 35.1113 9.02626 35.5239C8.14588 36.9856 7.68661 38.6507 7.68661 40.3573C7.68661 45.2676 11.4794 49.307 16.2899 49.7045C16.2225 49.2779 16.1897 48.8545 16.1969 48.4408L16.2745 43.6178C15.4297 42.9853 14.6808 42.2386 14.0431 41.3922C13.7527 41.0076 13.8302 40.4609 14.2144 40.1714C14.5991 39.8818 15.1457 39.9588 15.4361 40.3422C16.7829 42.1257 18.7015 43.3764 20.8897 43.8643C21.3593 43.9689 21.6556 44.435 21.5511 44.9049C21.4451 45.3799 20.9771 45.6684 20.5099 45.5666C19.6363 45.3723 18.795 45.0724 18.0011 44.6791L17.9403 48.4684C17.9301 49.0721 18.0267 49.7045 18.2264 50.3475C19.3478 53.9654 23.3899 55.8939 26.9072 54.3915C27.2817 54.2318 27.4961 53.9063 27.4961 53.5004ZM53.2451 42.3465C53.2451 43.3662 52.4162 44.1953 51.3963 44.1953C50.3779 44.1953 49.5489 43.3662 49.5489 42.3465C49.5489 41.328 50.3778 40.4992 51.3963 40.4992C52.4162 40.4992 53.2451 41.328 53.2451 42.3465ZM45.7628 50.646C45.7628 51.6645 44.9346 52.4937 43.9147 52.4937C42.8948 52.4937 42.0659 51.6646 42.0659 50.646C42.0659 49.6262 42.8948 48.7974 43.9147 48.7974C44.9346 48.7974 45.7628 49.6262 45.7628 50.646ZM43.9147 4.65495C44.9346 4.65495 45.7628 5.48375 45.7628 6.50237C45.7628 7.52215 44.9346 8.3512 43.9147 8.3512C42.8948 8.3512 42.0659 7.52215 42.0659 6.50237C42.0659 5.48375 42.8948 4.65495 43.9147 4.65495ZM51.3963 12.9533C52.4162 12.9533 53.2451 13.7821 53.2451 14.8019C53.2451 15.8205 52.4162 16.6496 51.3963 16.6496C50.3779 16.6496 49.5489 15.8205 49.5489 14.8019C49.549 13.7821 50.3779 12.9533 51.3963 12.9533ZM54.4641 26.7256C55.4832 26.7256 56.3129 27.5558 56.3129 28.5742C56.3129 29.594 55.4832 30.423 54.4641 30.423C53.445 30.423 52.616 29.594 52.616 28.5742C52.616 27.5559 53.4448 26.7256 54.4641 26.7256ZM50.9793 29.4464C51.3699 31.0066 52.7834 32.1671 54.464 32.1671C56.4453 32.1671 58.0563 30.5556 58.0563 28.5742C58.0563 26.5931 56.4453 24.9815 54.464 24.9815C52.7834 24.9815 51.3699 26.1418 50.9793 27.7022H39.3661C39.3523 27.5302 39.3354 27.3582 39.3149 27.1873L41.2984 24.9838C41.6357 24.6094 41.6928 24.0652 41.4403 23.6294L41.0702 22.9898L46.3233 22.9932C46.6101 22.9932 46.8786 22.8539 47.041 22.6188L50.1292 18.1621C52.4458 19.0432 54.9894 17.3287 54.9894 14.8018C54.9894 12.8207 53.3776 11.2091 51.3963 11.2091C49.4165 11.2091 47.8048 12.8207 47.8048 14.8018C47.8048 15.7066 48.142 16.5342 48.6965 17.1669L45.8681 21.2492L40.0633 21.2444L39.1869 19.726C38.9359 19.29 38.4355 19.0677 37.9424 19.1727L35.0421 19.7889C34.9506 19.7203 34.8606 19.6528 34.7677 19.5865L42.4521 9.78237C44.811 10.8384 47.5069 9.10986 47.5069 6.50237C47.5069 4.52247 45.8959 2.91095 43.9146 2.91095C40.9301 2.91095 39.2517 6.35671 41.0795 8.70602L33.2606 18.6834C33.0557 18.5822 32.8487 18.4879 32.6394 18.3996L31.7235 15.581C31.5691 15.1032 31.1257 14.7812 30.6224 14.7812H29.2396V3.64823C29.2396 2.54359 28.6097 1.58768 27.5934 1.15299C23.3617 -0.656798 18.4747 1.43869 16.7792 5.66883C9.93737 5.84496 4.8564 12.1304 6.1414 18.8935C0.598997 22.0407 -1.17521 29.1938 2.24034 34.5483C3.223 36.0877 4.56252 37.3584 6.1414 38.2551C4.85756 45.0233 9.94005 51.3034 16.7793 51.4796C18.4743 55.7092 23.3587 57.8053 27.5936 55.9957C28.6098 55.5608 29.2398 54.605 29.2398 53.5005V42.3677H30.6225C31.1258 42.3677 31.5692 42.0468 31.7236 41.5678L32.6389 38.7504C32.8489 38.6621 33.056 38.5678 33.2609 38.4667L41.0798 48.4427C39.2519 50.792 40.9305 54.2378 43.9148 54.2378C45.8961 54.2378 47.5072 52.6261 47.5072 50.646C47.5072 48.0393 44.8119 46.3101 42.4523 47.3662L34.7687 37.5632C34.8609 37.4969 34.9524 37.4295 35.0432 37.3598L37.944 37.9772C38.4357 38.082 38.9361 37.8585 39.187 37.4227L40.0634 35.9041L45.8682 35.8995L48.6967 39.9818C48.142 40.6142 47.8049 41.4421 47.8049 42.3467C47.8049 44.3282 49.4167 45.9398 51.3964 45.9398C53.3778 45.9398 54.9895 44.3282 54.9895 42.3467C54.9895 39.832 52.4643 38.1051 50.1294 38.9866L47.0411 34.53C46.8787 34.2951 46.6101 34.1556 46.3234 34.1556L41.0703 34.1602L41.4405 33.5195C41.6929 33.0834 41.6358 32.5395 41.2985 32.1648L39.315 29.9617C39.3355 29.7908 39.3523 29.6188 39.3662 29.4468H50.9793V29.4464Z" fill="url(#paint0_linear_266_5741)" stroke="url(#paint1_linear_266_5741)"/>
<defs>
<linearGradient id="paint0_linear_266_5741" x1="1.73656" y1="54.7769" x2="67.8811" y2="29.9316" gradientUnits="userSpaceOnUse">
<stop stop-color="#6549F6"/>
<stop offset="0.79" stop-color="#FF611D"/>
</linearGradient>
<linearGradient id="paint1_linear_266_5741" x1="1.73656" y1="54.7769" x2="67.8811" y2="29.9316" gradientUnits="userSpaceOnUse">
<stop stop-color="#6549F6"/>
<stop offset="0.79" stop-color="#FF611D"/>
</linearGradient>
</defs>
</svg>
