<svg width="48" height="48" viewBox="0 0 48 48" fill="none" xmlns="http://www.w3.org/2000/svg">
<g clip-path="url(#clip0_815_7053)">
<path d="M12.8447 32.325C13.3022 32.7825 13.3022 33.525 12.8447 33.9825L9.96937 36.8578C9.75 37.0772 9.45187 37.2009 9.14062 37.2009C8.82938 37.2009 8.53125 37.0772 8.31188 36.8578L6.86625 35.4122C6.40875 34.9547 6.40875 34.2122 6.86625 33.7547C7.32375 33.2972 8.06625 33.2972 8.52375 33.7547L9.14062 34.3716L11.1872 32.325C11.6447 31.8675 12.3872 31.8675 12.8447 32.325ZM22.8825 21.3947H16.8844C16.2375 21.3947 15.7125 21.9197 15.7125 22.5666C15.7125 23.2134 16.2375 23.7384 16.8844 23.7384H22.8825C23.5294 23.7384 24.0544 23.2134 24.0544 22.5666C24.0544 21.9197 23.5294 21.3947 22.8825 21.3947ZM22.8825 33.6403H16.8844C16.2375 33.6403 15.7125 34.1653 15.7125 34.8122C15.7125 35.4591 16.2375 35.9841 16.8844 35.9841H22.8825C23.5294 35.9841 24.0544 35.4591 24.0544 34.8122C24.0544 34.1653 23.5294 33.6403 22.8825 33.6403ZM47.6606 34.2994C47.6334 36.1059 47.5406 38.1731 46.7747 39.8344C46.0359 41.4281 44.685 42.6103 43.5891 43.4625C41.6241 44.9963 39.3394 46.3575 37.3519 47.5134C37.17 47.6194 36.9666 47.6719 36.7631 47.6719C36.5597 47.6719 36.3562 47.6194 36.1744 47.5134C34.7897 46.7091 33.2597 45.8044 31.7878 44.8041H1.5C0.853125 44.8041 0.328125 44.2791 0.328125 43.6322V1.5C0.328125 0.853125 0.853125 0.328125 1.5 0.328125H25.9463C25.9856 0.328125 26.0241 0.33 26.0634 0.33375C26.0925 0.336562 26.1206 0.34125 26.1488 0.346875C26.1581 0.34875 26.1675 0.349687 26.1769 0.351562C26.2106 0.358125 26.2434 0.366562 26.2762 0.376875C26.28 0.377812 26.2837 0.37875 26.2875 0.379688C26.3212 0.39 26.3541 0.402187 26.3859 0.415312C26.3888 0.41625 26.3925 0.417187 26.3953 0.419062C26.4262 0.432187 26.4553 0.44625 26.4853 0.46125C26.49 0.464063 26.4947 0.465937 26.4994 0.467812C26.5266 0.482812 26.5528 0.49875 26.5791 0.515625C26.5856 0.519375 26.5922 0.523125 26.5978 0.526875C26.6222 0.54375 26.6466 0.561563 26.67 0.580312C26.6766 0.585938 26.6841 0.589687 26.6906 0.595312C26.7206 0.619687 26.7487 0.645937 26.7759 0.673125L33.5381 7.4325C33.5653 7.45969 33.5916 7.48875 33.6159 7.51875C33.6206 7.52437 33.6244 7.53094 33.6291 7.53656C33.6478 7.56094 33.6675 7.58531 33.6844 7.61156C33.6881 7.61719 33.6919 7.62375 33.6956 7.63031C33.7125 7.65656 33.7284 7.68281 33.7434 7.71C33.7453 7.71469 33.7472 7.71844 33.75 7.72312C33.765 7.75219 33.78 7.78312 33.7931 7.81406C33.7941 7.81687 33.795 7.81969 33.7959 7.8225C33.8091 7.85531 33.8213 7.88812 33.8316 7.92188C33.8325 7.92562 33.8334 7.92844 33.8344 7.93219C33.8438 7.965 33.8531 7.99875 33.8597 8.0325C33.8616 8.04187 33.8625 8.05031 33.8634 8.05969C33.8681 8.08781 33.8737 8.11688 33.8766 8.14594C33.8803 8.18437 33.8822 8.22375 33.8822 8.26312V22.4212C38.2791 21.8644 42.7828 22.5844 46.9003 24.5859C47.2987 24.78 47.5537 25.1812 47.5594 25.6247C47.5716 26.535 47.5903 27.4641 47.6091 28.3622C47.6494 30.3094 47.6916 32.3222 47.6606 34.3003V34.2994ZM27.1181 7.08938H29.8791L27.1181 4.32938V7.08938ZM2.67281 42.4603H28.7494C27.9816 41.745 27.2325 40.8778 26.7516 39.8344C25.9828 38.175 25.89 36.1069 25.8628 34.2984C25.8328 32.295 25.8759 30.2559 25.9172 28.2834C25.935 27.4097 25.9547 26.5069 25.9669 25.6228C25.9734 25.1803 26.2284 24.7791 26.6259 24.585C28.215 23.8125 29.8631 23.2312 31.5394 22.8394V9.43313H25.9481C25.3013 9.43313 24.7762 8.90812 24.7762 8.26125V2.67281H2.67281V42.4603ZM45.2663 28.41C45.2522 27.7472 45.2381 27.0684 45.2269 26.3906C39.8091 23.9775 33.7153 23.9775 28.2975 26.3906C28.2862 27.0422 28.2722 27.6947 28.2591 28.3322C28.2178 30.2841 28.1756 32.3016 28.2047 34.2628C28.2281 35.8303 28.3013 37.6059 28.8778 38.85C29.4 39.9825 30.4866 40.9209 31.3753 41.6119C33.0516 42.9206 34.9969 44.1084 36.7622 45.1425C38.535 44.1037 40.485 42.9113 42.1481 41.6128C43.0359 40.9219 44.1206 39.9853 44.6466 38.85C45.2203 37.6069 45.2934 35.8303 45.3169 34.2628C45.3478 32.3259 45.3056 30.3347 45.2663 28.4091V28.41ZM11.1872 20.2997L9.14062 22.3463L8.52375 21.7294C8.06625 21.2719 7.32375 21.2719 6.86625 21.7294C6.40875 22.1869 6.40875 22.9294 6.86625 23.3869L8.31188 24.8325C8.53125 25.0519 8.82938 25.1756 9.14062 25.1756C9.45187 25.1756 9.75 25.0519 9.96937 24.8325L12.8447 21.9572C13.3022 21.4997 13.3022 20.7572 12.8447 20.2997C12.3872 19.8422 11.6447 19.8422 11.1872 20.2997ZM39.9647 29.4516L35.0475 34.3688L33.5559 32.8791C33.0975 32.4216 32.3559 32.4216 31.8984 32.88C31.4409 33.3375 31.4409 34.08 31.8984 34.5375L34.2188 36.855C34.4475 37.0837 34.7475 37.1981 35.0466 37.1981C35.3456 37.1981 35.6466 37.0837 35.8753 36.855L41.6213 31.1091C42.0788 30.6516 42.0788 29.9091 41.6213 29.4516C41.1637 28.9941 40.4212 28.9941 39.9637 29.4516H39.9647Z" fill="url(#paint0_linear_815_7053)"/>
</g>
<defs>
<linearGradient id="paint0_linear_815_7053" x1="-2.02614" y1="48.2788" x2="56.0381" y2="-20.3417" gradientUnits="userSpaceOnUse">
<stop stop-color="#C01E6C"/>
<stop offset="1" stop-color="#FF9A3C"/>
</linearGradient>
<clipPath id="clip0_815_7053">
<rect width="48" height="48" fill="white"/>
</clipPath>
</defs>
</svg>
