<svg width="32" height="32" viewBox="0 0 32 32" fill="none" xmlns="http://www.w3.org/2000/svg">
<g clip-path="url(#clip0_817_6057)">
<path opacity="0.2" d="M10 16C10 14.0222 10.5865 12.0888 11.6853 10.4443C12.7841 8.79981 14.3459 7.51809 16.1732 6.76121C18.0005 6.00433 20.0111 5.8063 21.9509 6.19215C23.8907 6.578 25.6726 7.53041 27.0711 8.92894C28.4696 10.3275 29.422 12.1093 29.8079 14.0491C30.1937 15.9889 29.9957 17.9996 29.2388 19.8268C28.482 21.6541 27.2002 23.2159 25.5557 24.3147C23.9112 25.4135 21.9778 26 20 26H9.00003C8.00733 25.999 7.02618 25.7869 6.12172 25.3778C5.21725 24.9686 4.41016 24.3718 3.754 23.6269C3.09785 22.8819 2.60764 22.006 2.31591 21.0571C2.02419 20.1082 1.93762 19.1081 2.06196 18.1233C2.1863 17.1384 2.51869 16.1912 3.03708 15.3446C3.55548 14.498 4.24801 13.7713 5.06871 13.2129C5.88942 12.6544 6.81952 12.2768 7.79729 12.1053C8.77506 11.9338 9.77814 11.9722 10.7399 12.2179" fill="#C01E6C"/>
<path d="M11.9991 26H8.99906C8.00635 25.999 7.02521 25.7869 6.12074 25.3778C5.21628 24.9686 4.40918 24.3718 3.75303 23.6269C3.09687 22.8819 2.60666 22.0059 2.31494 21.0571C2.02321 20.1082 1.93665 19.1081 2.06098 18.1233C2.18532 17.1384 2.51771 16.1912 3.03611 15.3446C3.5545 14.498 4.24703 13.7713 5.06773 13.2128C5.88844 12.6544 6.81855 12.2768 7.79632 12.1053C8.77409 11.9338 9.77716 11.9722 10.739 12.2179" stroke="#C01E6C" stroke-width="2" stroke-linecap="round" stroke-linejoin="round"/>
<path d="M9.99902 15.999C9.99918 14.4146 10.3758 12.8528 11.098 11.4425C11.8201 10.0322 12.867 8.81359 14.1524 7.88722C15.4378 6.96085 16.925 6.35319 18.4914 6.11431C20.0577 5.87542 21.6584 6.01216 23.1615 6.51324C24.6647 7.01433 26.0272 7.86542 27.1369 8.99639C28.2466 10.1274 29.0717 11.5058 29.5441 13.0182C30.0166 14.5306 30.1229 16.1336 29.8543 17.6951C29.5857 19.2566 28.9499 20.732 27.9993 21.9996" stroke="#C01E6C" stroke-width="2" stroke-linecap="round" stroke-linejoin="round"/>
<path d="M14.7568 20.2427L18.9995 16L23.2421 20.2427" stroke="#C01E6C" stroke-width="2" stroke-linecap="round" stroke-linejoin="round"/>
<path d="M18.999 26V16" stroke="#C01E6C" stroke-width="2" stroke-linecap="round" stroke-linejoin="round"/>
</g>
<defs>
<clipPath id="clip0_817_6057">
<rect width="32" height="32" fill="white"/>
</clipPath>
</defs>
</svg>
