<svg width="48" height="48" viewBox="0 0 48 48" fill="none" xmlns="http://www.w3.org/2000/svg">
<mask id="mask0_817_5617" style="mask-type:luminance" maskUnits="userSpaceOnUse" x="0" y="0" width="48" height="48">
<path d="M0 0H48V48H0V0Z" fill="white"/>
</mask>
<g mask="url(#mask0_817_5617)">
<path d="M29.9771 8.22791V29.3152C29.9771 32.2027 27.5249 34.5435 24.5 34.5435C21.475 34.5435 19.0228 32.2027 19.0228 29.3152V24.087L24.5 29.3152M29.9771 8.22791C31.4896 8.22791 32.7157 7.05791 32.7157 5.61413C32.7157 4.17034 31.4896 3 29.9771 3C28.4647 3 27.2385 4.17034 27.2385 5.61413C27.2385 7.05791 28.4647 8.22791 29.9771 8.22791ZM43.7611 39.7743H5.23826V16.2472H43.7611V39.7743ZM41.0228 45H7.97718C4.95222 45 2.5 42.6592 2.5 39.7717H46.5C46.5 42.6592 44.0478 45 41.0228 45Z" stroke="#C01E6C" stroke-width="3.18675" stroke-miterlimit="10" stroke-linecap="round"/>
</g>
</svg>
