<svg width="48" height="48" viewBox="0 0 48 48" fill="none" xmlns="http://www.w3.org/2000/svg">
<path d="M44 24C44 35.0457 35.0457 44 24 44M44 24C44 12.9543 35.0457 4 24 4M44 24H4M24 44C12.9543 44 4 35.0457 4 24M24 44C29.0026 38.5233 31.8455 31.4159 32 24C31.8455 16.5841 29.0026 9.47671 24 4M24 44C18.9974 38.5233 16.1545 31.4159 16 24C16.1545 16.5841 18.9974 9.47671 24 4M4 24C4 12.9543 12.9543 4 24 4" stroke="url(#paint0_linear_817_5722)" stroke-width="3" stroke-linecap="round" stroke-linejoin="round"/>
<defs>
<linearGradient id="paint0_linear_817_5722" x1="2.0109" y1="44.5128" x2="51.0684" y2="-13.4642" gradientUnits="userSpaceOnUse">
<stop stop-color="#C01E6C"/>
<stop offset="1" stop-color="#FF9A3C"/>
</linearGradient>
</defs>
</svg>
