<svg width="32" height="32" viewBox="0 0 32 32" fill="none" xmlns="http://www.w3.org/2000/svg">
<path d="M28.7506 8.6171L23.4962 3.36267C23.2639 3.13045 22.9489 3 22.6204 3C22.292 3 21.977 3.13045 21.7447 3.36267L2.47595 22.6314C2.24373 22.8637 2.11328 23.1787 2.11328 23.5072C2.11328 23.8356 2.24373 24.1506 2.47595 24.3829L7.73038 29.6373C7.96267 29.8695 8.27767 30 8.60613 30C8.93458 30 9.24958 29.8695 9.48186 29.6373L28.7506 10.3686C28.9828 10.1363 29.1133 9.8213 29.1133 9.49284C29.1133 9.16439 28.9828 8.84939 28.7506 8.6171Z" fill="#C01E6C" fill-opacity="0.4"/>
<path d="M6.5809 18.6156L10.2969 22.3317M10.2969 14.8996L14.0129 18.6156M17.7289 7.46762L21.4449 11.1836M14.0129 11.1836L17.7289 14.8996M23.4962 3.36267L28.7506 8.6171C28.9828 8.84939 29.1133 9.16439 29.1133 9.49284C29.1133 9.8213 28.9828 10.1363 28.7506 10.3686L9.48186 29.6373C9.24958 29.8695 8.93458 30 8.60613 30C8.27767 30 7.96267 29.8695 7.73038 29.6373L2.47595 24.3829C2.24373 24.1506 2.11328 23.8356 2.11328 23.5072C2.11328 23.1787 2.24373 22.8637 2.47595 22.6314L21.7447 3.36267C21.977 3.13045 22.292 3 22.6204 3C22.9489 3 23.2639 3.13045 23.4962 3.36267Z" stroke="#C01E6C" stroke-width="2"/>
</svg>
