<svg width="48" height="48" viewBox="0 0 48 48" fill="none" xmlns="http://www.w3.org/2000/svg">
<path d="M11.7035 38.8295C12.3715 38.8295 12.9352 38.5998 13.3945 38.1405C13.8542 37.6812 14.084 37.1173 14.084 36.449C14.084 35.781 13.8542 35.2173 13.3945 34.758C12.9352 34.2983 12.3715 34.0685 11.7035 34.0685C11.0352 34.0685 10.4713 34.2983 10.012 34.758C9.55267 35.2173 9.323 35.781 9.323 36.449C9.323 37.1173 9.55267 37.6812 10.012 38.1405C10.4713 38.5998 11.0352 38.8295 11.7035 38.8295ZM11.7035 42.1525C10.1062 42.1525 8.75633 41.6012 7.654 40.4985C6.55133 39.3962 6 38.0463 6 36.449C6 34.86 6.55133 33.5122 7.654 32.4055C8.75633 31.2992 10.1062 30.746 11.7035 30.746C12.9622 30.746 14.0788 31.111 15.0535 31.841C16.0282 32.571 16.702 33.524 17.075 34.7C18.6113 34.6493 19.9155 34.0687 20.9875 32.958C22.0595 31.847 22.5955 30.5233 22.5955 28.987V19.758C22.5955 17.0927 23.5305 14.825 25.4005 12.955C27.2705 11.085 29.5422 10.15 32.2155 10.15H36.009L33.7195 7.861C33.3958 7.537 33.2423 7.15117 33.259 6.7035C33.2757 6.25583 33.4578 5.858 33.8055 5.51C34.1455 5.17 34.5453 5 35.005 5C35.4647 5 35.8645 5.17 36.2045 5.51L41.4045 10.648C41.7442 10.988 41.914 11.3898 41.914 11.8535C41.914 12.3172 41.7442 12.719 41.4045 13.059L36.2045 18.247C35.8645 18.587 35.4627 18.755 34.999 18.751C34.5353 18.747 34.1255 18.567 33.7695 18.211C33.4378 17.8793 33.2637 17.4852 33.247 17.0285C33.2303 16.5718 33.3918 16.1777 33.7315 15.846L36.0205 13.557H32.2155C30.4872 13.557 29.0195 14.1603 27.8125 15.367C26.6058 16.574 26.0025 18.0377 26.0025 19.758V28.987C26.0025 31.4523 25.1488 33.568 23.4415 35.334C21.7342 37.1 19.6518 38.0203 17.1945 38.095C16.8118 39.3013 16.1193 40.2792 15.117 41.0285C14.1143 41.7778 12.9765 42.1525 11.7035 42.1525ZM11.587 13.5785L9.5805 15.535C9.23283 15.8497 8.833 16.0133 8.381 16.026C7.92933 16.0387 7.5335 15.875 7.1935 15.535C6.84583 15.195 6.67833 14.7972 6.691 14.3415C6.70367 13.8858 6.86717 13.488 7.1815 13.148L9.15 11.1415L7.1935 9.185C6.84583 8.845 6.672 8.44717 6.672 7.9915C6.672 7.53583 6.84583 7.138 7.1935 6.798C7.5255 6.45833 7.91933 6.2865 8.375 6.2825C8.831 6.2785 9.23283 6.44633 9.5805 6.786L11.587 8.7425L13.5435 6.798C13.8835 6.45833 14.2813 6.28017 14.737 6.2635C15.1927 6.24683 15.5905 6.40833 15.9305 6.748C16.2705 7.088 16.4405 7.49617 16.4405 7.9725C16.4405 8.44883 16.2705 8.857 15.9305 9.197L13.974 11.1415L15.9305 13.136C16.2705 13.484 16.4405 13.8858 16.4405 14.3415C16.4405 14.7972 16.2705 15.195 15.9305 15.535C15.5828 15.875 15.181 16.045 14.725 16.045C14.2693 16.045 13.8755 15.875 13.5435 15.535L11.587 13.5785Z" fill="black"/>
<path d="M11.7035 38.8295C12.3715 38.8295 12.9352 38.5998 13.3945 38.1405C13.8542 37.6812 14.084 37.1173 14.084 36.449C14.084 35.781 13.8542 35.2173 13.3945 34.758C12.9352 34.2983 12.3715 34.0685 11.7035 34.0685C11.0352 34.0685 10.4713 34.2983 10.012 34.758C9.55267 35.2173 9.323 35.781 9.323 36.449C9.323 37.1173 9.55267 37.6812 10.012 38.1405C10.4713 38.5998 11.0352 38.8295 11.7035 38.8295ZM11.7035 42.1525C10.1062 42.1525 8.75633 41.6012 7.654 40.4985C6.55133 39.3962 6 38.0463 6 36.449C6 34.86 6.55133 33.5122 7.654 32.4055C8.75633 31.2992 10.1062 30.746 11.7035 30.746C12.9622 30.746 14.0788 31.111 15.0535 31.841C16.0282 32.571 16.702 33.524 17.075 34.7C18.6113 34.6493 19.9155 34.0687 20.9875 32.958C22.0595 31.847 22.5955 30.5233 22.5955 28.987V19.758C22.5955 17.0927 23.5305 14.825 25.4005 12.955C27.2705 11.085 29.5422 10.15 32.2155 10.15H36.009L33.7195 7.861C33.3958 7.537 33.2423 7.15117 33.259 6.7035C33.2757 6.25583 33.4578 5.858 33.8055 5.51C34.1455 5.17 34.5453 5 35.005 5C35.4647 5 35.8645 5.17 36.2045 5.51L41.4045 10.648C41.7442 10.988 41.914 11.3898 41.914 11.8535C41.914 12.3172 41.7442 12.719 41.4045 13.059L36.2045 18.247C35.8645 18.587 35.4627 18.755 34.999 18.751C34.5353 18.747 34.1255 18.567 33.7695 18.211C33.4378 17.8793 33.2637 17.4852 33.247 17.0285C33.2303 16.5718 33.3918 16.1777 33.7315 15.846L36.0205 13.557H32.2155C30.4872 13.557 29.0195 14.1603 27.8125 15.367C26.6058 16.574 26.0025 18.0377 26.0025 19.758V28.987C26.0025 31.4523 25.1488 33.568 23.4415 35.334C21.7342 37.1 19.6518 38.0203 17.1945 38.095C16.8118 39.3013 16.1193 40.2792 15.117 41.0285C14.1143 41.7778 12.9765 42.1525 11.7035 42.1525ZM11.587 13.5785L9.5805 15.535C9.23283 15.8497 8.833 16.0133 8.381 16.026C7.92933 16.0387 7.5335 15.875 7.1935 15.535C6.84583 15.195 6.67833 14.7972 6.691 14.3415C6.70367 13.8858 6.86717 13.488 7.1815 13.148L9.15 11.1415L7.1935 9.185C6.84583 8.845 6.672 8.44717 6.672 7.9915C6.672 7.53583 6.84583 7.138 7.1935 6.798C7.5255 6.45833 7.91933 6.2865 8.375 6.2825C8.831 6.2785 9.23283 6.44633 9.5805 6.786L11.587 8.7425L13.5435 6.798C13.8835 6.45833 14.2813 6.28017 14.737 6.2635C15.1927 6.24683 15.5905 6.40833 15.9305 6.748C16.2705 7.088 16.4405 7.49617 16.4405 7.9725C16.4405 8.44883 16.2705 8.857 15.9305 9.197L13.974 11.1415L15.9305 13.136C16.2705 13.484 16.4405 13.8858 16.4405 14.3415C16.4405 14.7972 16.2705 15.195 15.9305 15.535C15.5828 15.875 15.181 16.045 14.725 16.045C14.2693 16.045 13.8755 15.875 13.5435 15.535L11.587 13.5785Z" fill="url(#paint0_linear_817_5734)"/>
<path d="M40.8 29.8379V37.86C40.8 38.9585 39.7255 39.849 38.4 39.849C37.0745 39.849 35 38.9585 35 37.86V33.8711L37 35.849M40.8 29.8379C41.4627 29.8379 42 29.3928 42 28.8435C42 28.2942 41.4627 27.5547 40.8 27.5547C40.1373 27.5547 39.6 28.2942 39.6 28.8435C39.6 29.3928 40.1373 29.8379 40.8 29.8379Z" stroke="url(#paint1_linear_817_5734)" stroke-width="2.5" stroke-miterlimit="10" stroke-linecap="round"/>
<defs>
<linearGradient id="paint0_linear_817_5734" x1="4.21378" y1="42.6288" x2="50.0087" y2="-9.6971" gradientUnits="userSpaceOnUse">
<stop stop-color="#C01E6C"/>
<stop offset="1" stop-color="#FF9A3C"/>
</linearGradient>
<linearGradient id="paint1_linear_817_5734" x1="27.8013" y1="44.0343" x2="46.4823" y2="17.3941" gradientUnits="userSpaceOnUse">
<stop stop-color="#C01E6C"/>
<stop offset="1" stop-color="#FF9A3C"/>
</linearGradient>
</defs>
</svg>
