<svg xmlns="http://www.w3.org/2000/svg" width="480" height="1234" fill="none"><g clip-path="url(#a)"><rect width="480" height="1234" fill="#FDEEEE" rx="10"/><g filter="url(#b)"><g clip-path="url(#c)"><path fill="#C01E6C" d="M-439.061 701.947-562 1160.76l1796.62 481.41 115.56-431.29c-41.26-17.27-165.02-59.13-329.86-88.39-206.053-36.57-338.166 95.22-614.904 21.07S142.331 964.364-1.014 819.321C-115.688 703.287-340.825 692.724-439.06 701.947"/><path fill="#FF6C04" d="M-269 1155.5v475h1860V1184c-44.33-6-174.7-14.4-341.5 0-208.5 18-302 179.5-588.5 179.5s-300.5-105-476.5-208c-140.8-82.4-361-34.34-453.5 0"/><path fill="#461148" d="M-314 1231.5v475h1860V1260c-44.33-6-174.7-14.4-341.5 0-208.5 18-302 179.5-588.5 179.5s-300.5-105-476.5-208c-140.8-82.4-361-34.34-453.5 0"/></g></g><path fill="#C01E6C" d="M479.809 578.134a1.9 1.9 0 0 0-.705-.134h-3.062a2.04 2.04 0 0 0-2.042 2.042v3.062a2.04 2.04 0 0 0 2.042 2.042h2.082a1.022 1.022 0 0 0 0-2.042h-2.082v-3.062l3.011-.012a1.02 1.02 0 0 0 1.319-.573 1.023 1.023 0 0 0-.563-1.323"/></g><rect width="479" height="1233" x=".5" y=".5" stroke="#fff" stroke-opacity=".1" rx="9.5"/><defs><clipPath id="a"><rect width="480" height="1234" fill="#fff" rx="10"/></clipPath><clipPath id="c"><path fill="#fff" d="M-182 1010h896v446h-896z"/></clipPath><filter id="b" width="1196" height="746" x="-332" y="860" color-interpolation-filters="sRGB" filterUnits="userSpaceOnUse"><feFlood flood-opacity="0" result="BackgroundImageFix"/><feBlend in="SourceGraphic" in2="BackgroundImageFix" result="shape"/><feGaussianBlur result="effect1_foregroundBlur_290_1719" stdDeviation="75"/></filter></defs></svg>