<svg width="24" height="26" viewBox="0 0 24 26" fill="none" xmlns="http://www.w3.org/2000/svg">
<path d="M18.3301 6.67L6.59009 18.41C6.15009 18.85 5.41008 18.79 5.05008 18.27C3.81008 16.46 3.08008 14.32 3.08008 12.12V7.73C3.08008 6.91 3.70008 5.98 4.46008 5.67L10.0301 3.39C11.2901 2.87 12.6901 2.87 13.9501 3.39L17.9901 5.03999C18.6601 5.30999 18.8301 6.17 18.3301 6.67Z" fill="#F37A3A"/>
<path d="M19.27 8.03963C19.92 7.48963 20.91 7.95962 20.91 8.80962V12.1196C20.91 17.0096 17.36 21.5896 12.51 22.9296C12.18 23.0196 11.82 23.0196 11.48 22.9296C10.06 22.5296 8.74 21.8596 7.61 20.9796C7.13 20.6096 7.08001 19.9096 7.50001 19.4796C9.68001 17.2496 16.06 10.7496 19.27 8.03963Z" fill="#CA1C69"/>
</svg>
