<svg xmlns="http://www.w3.org/2000/svg" width="480" height="374" fill="none"><g filter="url(#a)"><g clip-path="url(#b)"><path fill="#C01E6C" d="M-439.061-158.053-562 300.762l1796.62 481.403 115.56-431.286c-41.26-17.27-165.02-59.125-329.86-88.386-206.053-36.577-338.166 95.22-614.904 21.068C128.678 209.41 142.331 104.364-1.014-40.679-115.688-156.712-340.825-167.275-439.06-158.052"/><path fill="#FF6C04" d="M-269 295.497v475h1860v-446.5c-44.33-6-174.7-14.4-341.5 0-208.5 18-302 179.5-588.5 179.5s-300.5-105-476.5-208c-140.8-82.4-361-34.333-453.5 0"/><path fill="#461148" d="M-314 371.497v475h1860v-446.5c-44.33-6-174.7-14.4-341.5 0-208.5 18-302 179.5-588.5 179.5s-300.5-105-476.5-208c-140.8-82.4-361-34.333-453.5 0"/></g></g><defs><clipPath id="b"><path fill="#fff" d="M-182 150h896v446h-896z"/></clipPath><filter id="a" width="1196" height="746" x="-332" y="0" color-interpolation-filters="sRGB" filterUnits="userSpaceOnUse"><feFlood flood-opacity="0" result="BackgroundImageFix"/><feBlend in="SourceGraphic" in2="BackgroundImageFix" result="shape"/><feGaussianBlur result="effect1_foregroundBlur_290_1720" stdDeviation="75"/></filter></defs></svg>