<svg width="64" height="64" viewBox="0 0 64 64" fill="none" xmlns="http://www.w3.org/2000/svg">
<g clip-path="url(#clip0_156_1440)">
<path d="M14.0902 12.5188C17.5402 12.5188 20.3477 9.71 20.3477 6.2575C20.3477 2.8075 17.5402 0 14.0902 0C10.6402 0 7.83273 2.8075 7.83273 6.2575C7.83273 9.71 10.6402 12.5188 14.0902 12.5188ZM14.0902 1.99875C16.439 1.99875 18.349 3.90875 18.349 6.2575C18.349 8.6075 16.4377 10.52 14.0902 10.52C11.7427 10.52 9.83148 8.6075 9.83148 6.2575C9.83148 3.91 11.7427 1.99875 14.0902 1.99875ZM60.6077 5.6875C61.3815 5.6875 62.0115 5.05625 62.0115 4.28125V1.4075C62.0115 0.63125 61.3815 0.00125 60.6077 0.00125H26.3152C25.5415 0.00125 24.9115 0.6325 24.9115 1.4075V4.28125C24.9115 5.0575 25.5415 5.6875 26.3152 5.6875H26.524V13.89H9.22273C5.23523 13.89 1.99023 17.1338 1.99023 21.1213V27.5175C1.99023 29.6225 3.70273 31.335 5.79773 31.3463C5.80523 31.3463 5.81273 31.3475 5.82023 31.3475H5.83898H5.85648V32.8363C5.85648 34.0475 6.84148 35.0325 8.05273 35.0325H20.1252C21.339 35.0325 22.3252 34.0475 22.3252 32.8363V22.4688C22.3252 21.9625 22.7365 21.5513 23.2427 21.5513H26.524V29.35H26.3152C25.5415 29.35 24.9115 29.98 24.9115 30.7537V33.6312C24.9115 34.405 25.5415 35.035 26.3152 35.035H60.6077C61.3815 35.035 62.0115 34.405 62.0115 33.6312V30.7537C62.0115 29.98 61.3815 29.35 60.6077 29.35H60.3952V5.6875H60.6077ZM26.9102 1.99875H60.0115V3.68875H26.9102V1.99875ZM20.3265 22.4688V32.8363C20.3265 32.9437 20.234 33.035 20.124 33.035H8.05273C7.94523 33.035 7.85398 32.9437 7.85398 32.8363V30.7612C8.93148 30.0825 9.65023 28.8825 9.65023 27.5175V22.0788C9.65023 21.5263 9.20273 21.08 8.65148 21.08C8.10023 21.08 7.65273 21.5275 7.65273 22.0788V27.5175C7.65273 28.28 7.18398 28.935 6.51898 29.21C6.50898 29.2137 6.49898 29.2162 6.48773 29.22C6.38148 29.2625 6.27273 29.2938 6.16273 29.315C6.14898 29.3175 6.13523 29.3188 6.12273 29.3213C6.08148 29.3288 6.03898 29.335 5.99648 29.3388C5.93898 29.3438 5.88023 29.3475 5.82148 29.3475C4.81148 29.3475 3.98898 28.5262 3.98898 27.515V21.1187C3.98898 18.2325 6.33648 15.885 9.22273 15.885H29.5965C30.6065 15.885 31.4277 16.7062 31.4277 17.7162C31.4277 18.7262 30.6065 19.5487 29.5965 19.5487H23.2427C21.6352 19.5525 20.3265 20.86 20.3265 22.4688ZM60.0115 33.035H26.9102V31.3487H60.0115V33.035ZM58.3965 29.35H28.5227V21.5513H29.5965C31.709 21.5513 33.4265 19.8325 33.4265 17.7213C33.4265 15.6088 31.7077 13.8912 29.5965 13.8912H28.5227V5.6875H58.3965V29.35ZM16.614 42.4137C16.614 39.2663 14.0527 36.705 10.9052 36.705C7.75523 36.705 5.19398 39.2663 5.19398 42.4137C5.19398 45.5638 7.75648 48.125 10.9052 48.125C14.0527 48.125 16.614 45.5638 16.614 42.4137ZM7.19148 42.4137C7.19148 40.3675 8.85773 38.7038 10.9052 38.7038C12.9502 38.7038 14.6152 40.3675 14.6152 42.4137C14.6152 44.4613 12.9515 46.1275 10.9052 46.1275C8.85773 46.1275 7.19148 44.4613 7.19148 42.4137ZM12.1027 48.575H9.70398C5.45023 48.575 1.99023 52.0337 1.99023 56.285V61.845C1.99023 63.0325 2.95648 63.9987 4.14398 63.9987H17.6627C18.8502 63.9987 19.8165 63.0325 19.8165 61.845V56.285C19.8165 52.035 16.3565 48.575 12.1027 48.575ZM17.8177 61.845C17.8177 61.9275 17.7452 62.0013 17.6615 62.0013H4.14398C4.06148 62.0013 3.98773 61.9288 3.98773 61.845V56.285C3.98773 53.135 6.55149 50.5737 9.70273 50.5737H12.1015C15.2527 50.5737 17.8165 53.1362 17.8165 56.285V61.845H17.8177ZM37.7102 42.4137C37.7102 39.2663 35.1477 36.705 31.999 36.705C28.8515 36.705 26.2902 39.2663 26.2902 42.4137C26.2902 45.5638 28.8515 48.125 31.999 48.125C35.1477 48.125 37.7102 45.5638 37.7102 42.4137ZM28.289 42.4137C28.289 40.3675 29.9527 38.7038 31.999 38.7038C34.0465 38.7038 35.7127 40.3675 35.7127 42.4137C35.7127 44.4613 34.0465 46.1275 31.999 46.1275C29.9527 46.1275 28.289 44.4613 28.289 42.4137ZM33.2002 48.575H30.7977C26.5465 48.575 23.0877 52.0337 23.0877 56.285V61.845C23.0877 63.0325 24.054 63.9987 25.2415 63.9987H38.759C39.9465 63.9987 40.9127 63.0325 40.9127 61.845V56.285C40.914 52.035 37.4527 48.575 33.2002 48.575ZM38.9152 61.845C38.9152 61.9275 38.8427 62.0013 38.759 62.0013H25.2415C25.1565 62.0013 25.0852 61.93 25.0852 61.845V56.285C25.0852 53.135 27.6477 50.5737 30.7965 50.5737H33.199C36.3502 50.5737 38.914 53.1362 38.914 56.285V61.845H38.9152ZM58.804 42.4137C58.804 39.2663 56.2427 36.705 53.0952 36.705C49.9477 36.705 47.3865 39.2663 47.3865 42.4137C47.3865 45.5638 49.9477 48.125 53.0952 48.125C56.2427 48.125 58.804 45.5638 58.804 42.4137ZM49.3852 42.4137C49.3852 40.3675 51.049 38.7038 53.0952 38.7038C55.1415 38.7038 56.8052 40.3675 56.8052 42.4137C56.8052 44.4613 55.1415 46.1275 53.0952 46.1275C51.049 46.1275 49.3852 44.4613 49.3852 42.4137ZM54.2965 48.575H51.894C47.6402 48.575 44.1802 52.0337 44.1802 56.285V61.845C44.1802 63.0325 45.1477 63.9987 46.3377 63.9987H59.8515C61.0415 63.9987 62.009 63.0325 62.009 61.845V56.285C62.0102 52.035 58.5502 48.575 54.2965 48.575ZM60.0115 61.845C60.0115 61.9275 59.9365 62.0013 59.8515 62.0013H46.3377C46.2527 62.0013 46.1777 61.9288 46.1777 61.845V56.285C46.1777 53.135 48.7415 50.5737 51.8927 50.5737H54.2952C57.4465 50.5737 60.0102 53.1362 60.0102 56.285V61.845H60.0115ZM32.2427 9.55C32.2427 8.9975 32.6902 8.55125 33.2415 8.55125H44.3527C44.9052 8.55125 45.3515 8.99875 45.3515 9.55C45.3515 10.1012 44.904 10.5487 44.3527 10.5487H33.2415C32.6902 10.5487 32.2427 10.1012 32.2427 9.55ZM54.679 14.8612C54.679 15.4137 54.2315 15.86 53.6802 15.86H36.339C35.7877 15.86 35.3402 15.4125 35.3402 14.8612C35.3402 14.31 35.7877 13.8625 36.339 13.8625H53.6802C54.2315 13.8612 54.679 14.3088 54.679 14.8612ZM54.679 20.1725C54.679 20.725 54.2315 21.1712 53.6802 21.1712H36.339C35.7877 21.1712 35.3402 20.7238 35.3402 20.1725C35.3402 19.6213 35.7877 19.1737 36.339 19.1737H53.6802C54.2315 19.1737 54.679 19.62 54.679 20.1725ZM54.679 25.4875C54.679 26.04 54.2315 26.4862 53.6802 26.4862H40.789C40.2365 26.4862 39.7902 26.0387 39.7902 25.4875C39.7902 24.9362 40.2377 24.4888 40.789 24.4888H53.679C54.2315 24.4888 54.679 24.935 54.679 25.4875ZM46.2602 9.55C46.2602 8.99875 46.7077 8.55125 47.259 8.55125H53.679C54.2302 8.55125 54.6777 8.99875 54.6777 9.55C54.6777 10.1012 54.2302 10.5487 53.679 10.5487H47.259C46.7077 10.5487 46.2602 10.1012 46.2602 9.55ZM38.4152 25.4875C38.4152 26.04 37.9677 26.4862 37.4165 26.4862H33.2427C32.6902 26.4862 32.244 26.0387 32.244 25.4875C32.244 24.9362 32.6915 24.4888 33.2427 24.4888H37.4165C37.9677 24.4888 38.4152 24.935 38.4152 25.4875Z" fill="#C01E6C"/>
</g>
<defs>
<clipPath id="clip0_156_1440">
<rect width="64" height="64" fill="white"/>
</clipPath>
</defs>
</svg>
