<svg xmlns="http://www.w3.org/2000/svg" width="46" height="46" fill="none"><g clip-path="url(#a)"><path fill="url(#b)" d="M31.896 19.333a4.03 4.03 0 0 0 2.827-1.17l4.562-4.563a4.038 4.038 0 1 0-1.885-1.885l-4.563 4.562c-.25.25-.588.39-.941.39h-8.23V14h3.891a3.33 3.33 0 0 0 3.166-2.277l1.021-3.056a4.03 4.03 0 1 0-2.528-.854L28.2 10.88a.66.66 0 0 1-.632.453h-3.901a1.334 1.334 0 0 0-2.667 0v5.47a6.667 6.667 0 0 0 0 13.066v5.464a1.333 1.333 0 0 0 2.667 0h3.89a.66.66 0 0 1 .632.456l1.027 3.075A3.984 3.984 0 1 0 31.744 38l-1.021-3.061a3.33 3.33 0 0 0-3.166-2.272h-3.89V30h8.229c.353 0 .691.14.941.39l4.563 4.562a4.037 4.037 0 1 0 1.885-1.885l-4.562-4.563a4.03 4.03 0 0 0-2.827-1.17h-8.23v-2.667h13.58a4 4 0 1 0 0-2.667h-13.58v-2.667zM41 8.667a1.334 1.334 0 1 1 0 2.667 1.334 1.334 0 0 1 0-2.667m-9.333-5.334a1.333 1.333 0 1 1 0 2.666 1.333 1.333 0 0 1 0-2.666M21 27.088a3.975 3.975 0 0 1 0-7.51zm10.667 13.579a1.333 1.333 0 1 1 0 2.666 1.333 1.333 0 0 1 0-2.666M41 35.333a1.334 1.334 0 1 1 0 2.668 1.334 1.334 0 0 1 0-2.668M41 22a1.334 1.334 0 1 1 0 2.667A1.334 1.334 0 0 1 41 22M1.68 17.813a2.666 2.666 0 0 1-.459-3.248l2.963-5.128a2.67 2.67 0 0 1 3.043-1.232l3.733 1.067 4.877-2.816.944-3.773A2.67 2.67 0 0 1 19.376.667h4.29a1.333 1.333 0 0 1 0 2.666h-4.29l-1.083 4.323a1.33 1.33 0 0 1-.626.832l-5.856 3.379a1.33 1.33 0 0 1-1.035.128L6.493 10.77l-2.962 5.125 3.2 3.099a1.33 1.33 0 0 1 .408.957v6.763a1.33 1.33 0 0 1-.408.957l-3.2 3.099 2.96 5.125 4.282-1.227a1.32 1.32 0 0 1 1.035.128l5.867 3.382a1.33 1.33 0 0 1 .626.832l1.075 4.322h4.29a1.334 1.334 0 0 1 0 2.667h-4.29a2.666 2.666 0 0 1-2.59-2.021l-.943-3.774-4.878-2.816-3.733 1.067a2.67 2.67 0 0 1-3.045-1.232l-2.963-5.12a2.67 2.67 0 0 1 .459-3.25l2.784-2.705v-5.632z"/></g><defs><linearGradient id="b" x1="22.97" x2="22.97" y1=".608" y2="46" gradientUnits="userSpaceOnUse"><stop stop-color="#C01E6C"/><stop offset="1" stop-color="#461148"/></linearGradient><clipPath id="a"><path fill="#fff" d="M0 0h46v46H0z"/></clipPath></defs></svg>