<svg width="64" height="64" viewBox="0 0 64 64" fill="none" xmlns="http://www.w3.org/2000/svg">
<g clip-path="url(#clip0_244_12957)">
<path d="M55.2153 49.8215C58.0855 48.6327 59.4484 45.3421 58.2595 42.472C57.0706 39.6018 53.7801 38.2388 50.9099 39.4277C48.0398 40.6166 46.6768 43.9071 47.8657 46.7773C49.0546 49.6475 52.3451 51.0104 55.2153 49.8215Z" stroke="url(#paint0_linear_244_12957)" stroke-width="4" stroke-miterlimit="2.6131"/>
<path d="M13.0901 49.8232C15.9603 48.6343 17.3233 45.3438 16.1344 42.4736C14.9455 39.6034 11.655 38.2405 8.7848 39.4294C5.91463 40.6182 4.55168 43.9088 5.74057 46.7789C6.92946 49.6491 10.22 51.0121 13.0901 49.8232Z" stroke="url(#paint1_linear_244_12957)" stroke-width="4" stroke-miterlimit="2.6131"/>
<path fill-rule="evenodd" clip-rule="evenodd" d="M10.9365 50.25C15.5771 50.25 19.3739 54.047 19.3739 58.6875V60.4999C19.3739 61.0522 18.9262 61.4999 18.3739 61.4999H3.49903C2.94674 61.4999 2.49902 61.0522 2.49902 60.4999V58.6875C2.4989 54.0467 6.29575 50.25 10.9365 50.25Z" stroke="url(#paint2_linear_244_12957)" stroke-width="4" stroke-miterlimit="2.6131"/>
<path fill-rule="evenodd" clip-rule="evenodd" d="M53.0605 50.25C57.7011 50.25 61.4979 54.047 61.4979 58.6875V60.4999C61.4979 61.0522 61.0502 61.4999 60.4979 61.4999H45.623C45.0708 61.4999 44.623 61.0522 44.623 60.4999V58.6875C44.623 54.0467 48.4199 50.25 53.0605 50.25Z" stroke="url(#paint3_linear_244_12957)" stroke-width="4" stroke-miterlimit="2.6131"/>
<path fill-rule="evenodd" clip-rule="evenodd" d="M31.2916 4.2423C31.6821 3.85176 32.3153 3.85175 32.7058 4.24228L36.9484 8.48483C37.1437 8.68009 37.4588 8.67778 37.6724 8.50275C39.6364 6.89316 42.5394 7.00504 44.3729 8.8385C46.2064 10.672 46.3182 13.5749 44.7086 15.539C44.5336 15.7526 44.5313 16.0677 44.7266 16.263L50.737 22.2734C51.1275 22.664 51.1275 23.2971 50.737 23.6876L46.4944 27.9302C46.2992 28.1255 45.984 28.1232 45.7704 27.9481C43.8063 26.3383 40.9033 26.4503 39.0698 28.2836C37.2363 30.1171 37.1245 33.0202 38.7343 34.9843C38.9093 35.1978 38.9116 35.513 38.7164 35.7083L32.7061 41.7187C32.3156 42.1092 31.6824 42.1092 31.2919 41.7187L25.2814 35.7083C25.0862 35.513 25.0885 35.1978 25.2635 34.9843C26.8734 33.0202 26.7615 30.1171 24.928 28.2836C23.0945 26.4502 20.1915 26.3383 18.2274 27.9481C18.0138 28.1232 17.6986 28.1255 17.5034 27.9302L13.2608 23.6877C12.8703 23.2971 12.8703 22.664 13.2608 22.2734L19.2711 16.2631C19.4664 16.0679 19.4641 15.7527 19.289 15.5391C17.6793 13.5751 17.7912 10.6721 19.6247 8.83862C21.4581 7.00517 24.3612 6.89328 26.3252 8.50286C26.5387 8.6779 26.8539 8.68021 27.0492 8.48494L31.2916 4.2423Z" stroke="url(#paint4_linear_244_12957)" stroke-width="4" stroke-miterlimit="2.6131"/>
</g>
<defs>
<linearGradient id="paint0_linear_244_12957" x1="3.76658" y1="59.5678" x2="71.6871" y2="34.2354" gradientUnits="userSpaceOnUse">
<stop stop-color="#6549F6"/>
<stop offset="0.79" stop-color="#FF611D"/>
</linearGradient>
<linearGradient id="paint1_linear_244_12957" x1="3.76658" y1="59.5678" x2="71.6871" y2="34.2354" gradientUnits="userSpaceOnUse">
<stop stop-color="#6549F6"/>
<stop offset="0.79" stop-color="#FF611D"/>
</linearGradient>
<linearGradient id="paint2_linear_244_12957" x1="3.76658" y1="59.5678" x2="71.6871" y2="34.2354" gradientUnits="userSpaceOnUse">
<stop stop-color="#6549F6"/>
<stop offset="0.79" stop-color="#FF611D"/>
</linearGradient>
<linearGradient id="paint3_linear_244_12957" x1="3.76658" y1="59.5678" x2="71.6871" y2="34.2354" gradientUnits="userSpaceOnUse">
<stop stop-color="#6549F6"/>
<stop offset="0.79" stop-color="#FF611D"/>
</linearGradient>
<linearGradient id="paint4_linear_244_12957" x1="3.76658" y1="59.5678" x2="71.6871" y2="34.2354" gradientUnits="userSpaceOnUse">
<stop stop-color="#6549F6"/>
<stop offset="0.79" stop-color="#FF611D"/>
</linearGradient>
<clipPath id="clip0_244_12957">
<rect width="64" height="64" fill="white"/>
</clipPath>
</defs>
</svg>
