<svg width="46" height="46" viewBox="0 0 46 46" fill="none" xmlns="http://www.w3.org/2000/svg">
<g clip-path="url(#clip0_383_1293)">
<path d="M42 0.667969H28.6666C27.6317 0.667969 26.6109 0.908937 25.6852 1.37179C24.7595 1.83464 23.9543 2.50666 23.3333 3.33464C22.7123 2.50666 21.9071 1.83464 20.9814 1.37179C20.0557 0.908937 19.0349 0.667969 18 0.667969H4.66663C3.60576 0.667969 2.58834 1.0894 1.8382 1.83954C1.08805 2.58969 0.666626 3.6071 0.666626 4.66797V31.3346C0.666626 32.3955 1.08805 33.4129 1.8382 34.1631C2.58834 34.9132 3.60576 35.3346 4.66663 35.3346H18C18.6284 35.3345 19.248 35.4824 19.8086 35.7664C20.3692 36.0504 20.855 36.4625 21.2266 36.9693C21.4803 37.2833 21.8011 37.5366 22.1654 37.7106C22.5297 37.8846 22.9283 37.9749 23.332 37.9749C23.7357 37.9749 24.1343 37.8846 24.4985 37.7106C24.8628 37.5366 25.1836 37.2833 25.4373 36.9693C25.8074 36.4603 26.2932 36.0465 26.8547 35.7623C27.4162 35.4781 28.0373 35.3315 28.6666 35.3346H30C30.3536 35.3346 30.6927 35.1942 30.9428 34.9441C31.1928 34.6941 31.3333 34.3549 31.3333 34.0013C31.3333 33.6477 31.1928 33.3085 30.9428 33.0585C30.6927 32.8084 30.3536 32.668 30 32.668H28.6666C27.2147 32.6744 25.8067 33.1663 24.6666 34.0653V7.33464C24.67 6.51029 24.9281 5.70713 25.4054 5.03504C25.8827 4.36294 26.5561 3.85475 27.3333 3.57997V18.0013C27.3333 19.0622 27.7547 20.0796 28.5049 20.8297C29.255 21.5799 30.2724 22.0013 31.3333 22.0013C32.3942 22.0013 33.4116 21.5799 34.1617 20.8297C34.9119 20.0796 35.3333 19.0622 35.3333 18.0013C35.3333 17.6477 35.4738 17.3085 35.7238 17.0585C35.9739 16.8084 36.313 16.668 36.6666 16.668C37.0202 16.668 37.3594 16.8084 37.6094 17.0585C37.8595 17.3085 38 17.6477 38 18.0013V27.4706C36.4946 27.7779 35.1416 28.5957 34.1697 29.7857C33.1979 30.9757 32.6669 32.4649 32.6666 34.0013V39.3346C32.6666 41.1027 33.369 42.7984 34.6192 44.0487C35.8695 45.2989 37.5652 46.0013 39.3333 46.0013C41.1014 46.0013 42.7971 45.2989 44.0473 44.0487C45.2976 42.7984 46 41.1027 46 39.3346V34.0013C45.9997 32.4649 45.4687 30.9757 44.4969 29.7857C43.525 28.5957 42.172 27.7779 40.6666 27.4706V18.0013C40.6666 16.9404 40.2452 15.923 39.4951 15.1729C38.7449 14.4227 37.7275 14.0013 36.6666 14.0013C35.6058 14.0013 34.5883 14.4227 33.8382 15.1729C33.0881 15.923 32.6666 16.9404 32.6666 18.0013C32.6666 18.3549 32.5262 18.6941 32.2761 18.9441C32.0261 19.1942 31.6869 19.3346 31.3333 19.3346C30.9797 19.3346 30.6405 19.1942 30.3905 18.9441C30.1404 18.6941 30 18.3549 30 18.0013V3.33464H42C42.3536 3.33464 42.6927 3.47511 42.9428 3.72516C43.1928 3.97521 43.3333 4.31435 43.3333 4.66797V26.0013C43.3333 26.3549 43.4738 26.6941 43.7238 26.9441C43.9739 27.1942 44.313 27.3346 44.6666 27.3346C45.0202 27.3346 45.3594 27.1942 45.6094 26.9441C45.8595 26.6941 46 26.3549 46 26.0013V4.66797C46 3.6071 45.5785 2.58969 44.8284 1.83954C44.0782 1.0894 43.0608 0.667969 42 0.667969ZM18 32.668H4.66663C4.313 32.668 3.97387 32.5275 3.72382 32.2774C3.47377 32.0274 3.33329 31.6883 3.33329 31.3346V4.66797C3.33329 4.31435 3.47377 3.97521 3.72382 3.72516C3.97387 3.47511 4.313 3.33464 4.66663 3.33464H18C19.0608 3.33464 20.0782 3.75606 20.8284 4.50621C21.5785 5.25635 22 6.27377 22 7.33464V34.044C20.8514 33.1632 19.4473 32.6803 18 32.668ZM43.3333 34.0013V39.3346C43.3333 40.3955 42.9119 41.4129 42.1617 42.1631C41.4116 42.9132 40.3942 43.3346 39.3333 43.3346C38.2724 43.3346 37.255 42.9132 36.5049 42.1631C35.7547 41.4129 35.3333 40.3955 35.3333 39.3346V34.0013C35.3333 32.9404 35.7547 31.923 36.5049 31.1729C37.255 30.4227 38.2724 30.0013 39.3333 30.0013C40.3942 30.0013 41.4116 30.4227 42.1617 31.1729C42.9119 31.923 43.3333 32.9404 43.3333 34.0013Z" fill="url(#paint0_linear_383_1293)"/>
<path d="M18 8.66797H7.33333C6.97971 8.66797 6.64057 8.80844 6.39052 9.05849C6.14048 9.30854 6 9.64768 6 10.0013C6 10.3549 6.14048 10.6941 6.39052 10.9441C6.64057 11.1942 6.97971 11.3346 7.33333 11.3346H18C18.3536 11.3346 18.6928 11.1942 18.9428 10.9441C19.1929 10.6941 19.3333 10.3549 19.3333 10.0013C19.3333 9.64768 19.1929 9.30854 18.9428 9.05849C18.6928 8.80844 18.3536 8.66797 18 8.66797Z" fill="url(#paint1_linear_383_1293)"/>
<path d="M18 19.332H7.33333C6.97971 19.332 6.64057 19.4725 6.39052 19.7226C6.14048 19.9726 6 20.3117 6 20.6654C6 21.019 6.14048 21.3581 6.39052 21.6082C6.64057 21.8582 6.97971 21.9987 7.33333 21.9987H18C18.3536 21.9987 18.6928 21.8582 18.9428 21.6082C19.1929 21.3581 19.3333 21.019 19.3333 20.6654C19.3333 20.3117 19.1929 19.9726 18.9428 19.7226C18.6928 19.4725 18.3536 19.332 18 19.332Z" fill="url(#paint2_linear_383_1293)"/>
<path d="M18 14H7.33333C6.97971 14 6.64057 14.1405 6.39052 14.3905C6.14048 14.6406 6 14.9797 6 15.3333C6 15.687 6.14048 16.0261 6.39052 16.2761C6.64057 16.5262 6.97971 16.6667 7.33333 16.6667H18C18.3536 16.6667 18.6928 16.5262 18.9428 16.2761C19.1929 16.0261 19.3333 15.687 19.3333 15.3333C19.3333 14.9797 19.1929 14.6406 18.9428 14.3905C18.6928 14.1405 18.3536 14 18 14Z" fill="url(#paint3_linear_383_1293)"/>
<path d="M18 24.668H7.33333C6.97971 24.668 6.64057 24.8084 6.39052 25.0585C6.14048 25.3085 6 25.6477 6 26.0013C6 26.3549 6.14048 26.6941 6.39052 26.9441C6.64057 27.1942 6.97971 27.3346 7.33333 27.3346H18C18.3536 27.3346 18.6928 27.1942 18.9428 26.9441C19.1929 26.6941 19.3333 26.3549 19.3333 26.0013C19.3333 25.6477 19.1929 25.3085 18.9428 25.0585C18.6928 24.8084 18.3536 24.668 18 24.668Z" fill="url(#paint4_linear_383_1293)"/>
<path d="M34 8.66797C33.6463 8.66797 33.3072 8.80844 33.0571 9.05849C32.8071 9.30854 32.6666 9.64768 32.6666 10.0013C32.6666 10.3549 32.8071 10.6941 33.0571 10.9441C33.3072 11.1942 33.6463 11.3346 34 11.3346H39.3333C39.6869 11.3346 40.0261 11.1942 40.2761 10.9441C40.5262 10.6941 40.6666 10.3549 40.6666 10.0013C40.6666 9.64768 40.5262 9.30854 40.2761 9.05849C40.0261 8.80844 39.6869 8.66797 39.3333 8.66797H34Z" fill="url(#paint5_linear_383_1293)"/>
<path d="M35.3334 26.0013C35.3334 25.6477 35.1929 25.3085 34.9429 25.0585C34.6928 24.8084 34.3537 24.668 34 24.668H28.6667C28.3131 24.668 27.9739 24.8084 27.7239 25.0585C27.4738 25.3085 27.3334 25.6477 27.3334 26.0013C27.3334 26.3549 27.4738 26.6941 27.7239 26.9441C27.9739 27.1942 28.3131 27.3346 28.6667 27.3346H34C34.3537 27.3346 34.6928 27.1942 34.9429 26.9441C35.1929 26.6941 35.3334 26.3549 35.3334 26.0013Z" fill="url(#paint6_linear_383_1293)"/>
<path d="M38 34.0013V35.3346C38 35.6883 38.1405 36.0274 38.3905 36.2774C38.6406 36.5275 38.9797 36.668 39.3333 36.668C39.687 36.668 40.0261 36.5275 40.2761 36.2774C40.5262 36.0274 40.6667 35.6883 40.6667 35.3346V34.0013C40.6667 33.6477 40.5262 33.3085 40.2761 33.0585C40.0261 32.8084 39.687 32.668 39.3333 32.668C38.9797 32.668 38.6406 32.8084 38.3905 33.0585C38.1405 33.3085 38 33.6477 38 34.0013Z" fill="url(#paint7_linear_383_1293)"/>
</g>
<defs>
<linearGradient id="paint0_linear_383_1293" x1="1.64058" y1="44.4902" x2="54.0515" y2="25.2851" gradientUnits="userSpaceOnUse">
<stop stop-color="#6549F6"/>
<stop offset="0.79" stop-color="#FF611D"/>
</linearGradient>
<linearGradient id="paint1_linear_383_1293" x1="6.28646" y1="11.2457" x2="10.2996" y2="3.89292" gradientUnits="userSpaceOnUse">
<stop stop-color="#6549F6"/>
<stop offset="0.79" stop-color="#FF611D"/>
</linearGradient>
<linearGradient id="paint2_linear_383_1293" x1="6.28646" y1="21.9098" x2="10.2996" y2="14.557" gradientUnits="userSpaceOnUse">
<stop stop-color="#6549F6"/>
<stop offset="0.79" stop-color="#FF611D"/>
</linearGradient>
<linearGradient id="paint3_linear_383_1293" x1="6.28646" y1="16.5778" x2="10.2996" y2="9.22495" gradientUnits="userSpaceOnUse">
<stop stop-color="#6549F6"/>
<stop offset="0.79" stop-color="#FF611D"/>
</linearGradient>
<linearGradient id="paint4_linear_383_1293" x1="6.28646" y1="27.2457" x2="10.2996" y2="19.8929" gradientUnits="userSpaceOnUse">
<stop stop-color="#6549F6"/>
<stop offset="0.79" stop-color="#FF611D"/>
</linearGradient>
<linearGradient id="paint5_linear_383_1293" x1="32.8385" y1="11.2457" x2="37.5888" y2="6.02373" gradientUnits="userSpaceOnUse">
<stop stop-color="#6549F6"/>
<stop offset="0.79" stop-color="#FF611D"/>
</linearGradient>
<linearGradient id="paint6_linear_383_1293" x1="27.5052" y1="27.2457" x2="32.2556" y2="22.0237" gradientUnits="userSpaceOnUse">
<stop stop-color="#6549F6"/>
<stop offset="0.79" stop-color="#FF611D"/>
</linearGradient>
<linearGradient id="paint7_linear_383_1293" x1="38.0573" y1="36.5346" x2="41.3573" y2="35.7285" gradientUnits="userSpaceOnUse">
<stop stop-color="#6549F6"/>
<stop offset="0.79" stop-color="#FF611D"/>
</linearGradient>
<clipPath id="clip0_383_1293">
<rect width="46" height="46" fill="white"/>
</clipPath>
</defs>
</svg>
