<svg width="72" height="72" viewBox="0 0 72 72" fill="none" xmlns="http://www.w3.org/2000/svg">
<path d="M63.2088 26.4595C62.668 26.0562 62.2461 25.5146 61.9874 24.8915C61.7286 24.2685 61.6428 23.5873 61.7388 22.9195C62.9988 14.9995 61.5588 12.5695 60.4788 11.4895C59.3988 10.4095 56.9988 8.99953 49.0788 10.2595C48.4115 10.3492 47.7323 10.2603 47.1105 10.0021C46.4887 9.7439 45.9464 9.32551 45.5388 8.78953C40.3188 1.82953 37.5888 1.01953 35.9988 1.01953C34.4088 1.01953 31.6788 1.82953 26.4588 8.78953C26.0513 9.32551 25.509 9.7439 24.8871 10.0021C24.2653 10.2603 23.5862 10.3492 22.9188 10.2595C14.9988 8.99953 12.5988 10.4395 11.5188 11.4895C10.4388 12.5395 8.99883 14.9995 10.2588 22.9195C10.3549 23.5873 10.269 24.2685 10.0103 24.8915C9.75159 25.5146 9.32961 26.0562 8.78883 26.4595C1.82883 31.6795 1.04883 34.4095 1.04883 35.9995C1.04883 37.5895 1.82883 40.3195 8.78883 45.5395C9.32961 45.9428 9.75159 46.4845 10.0103 47.1075C10.269 47.7305 10.3549 48.4118 10.2588 49.0795C9.11883 57.0595 10.4388 59.4295 11.5188 60.5095C12.5988 61.5895 14.9388 62.8795 22.9188 61.7395C23.5866 61.6435 24.2678 61.7294 24.8908 61.9881C25.5139 62.2468 26.0555 62.6688 26.4588 63.2095C31.6788 70.1695 34.4088 70.9795 35.9988 70.9795C37.5888 70.9795 40.3188 70.1695 45.5388 63.2095C45.9421 62.6688 46.4838 62.2468 47.1068 61.9881C47.7298 61.7294 48.4111 61.6435 49.0788 61.7395C57.0888 62.8795 59.3988 61.5595 60.4788 60.5095C61.5588 59.4595 62.8788 57.0595 61.7388 49.0795C61.6428 48.4118 61.7286 47.7305 61.9874 47.1075C62.2461 46.4845 62.668 45.9428 63.2088 45.5395C70.1688 40.3195 70.9488 37.5895 70.9488 35.9995C70.9488 34.4095 70.1688 31.6795 63.2088 26.4595Z" fill="url(#paint0_linear_259_5396)"/>
<path d="M37.7703 48V44.416H27.7543V40.352L35.0183 24.96H40.0103L32.7463 40.352H37.7703V34.592H42.1863V40.352H44.2343V44.416H42.1863V48H37.7703Z" fill="white"/>
<defs>
<linearGradient id="paint0_linear_259_5396" x1="2.55058" y1="68.6475" x2="83.38" y2="39.0543" gradientUnits="userSpaceOnUse">
<stop stop-color="#6549F6"/>
<stop offset="0.79" stop-color="#FF611D"/>
</linearGradient>
</defs>
</svg>
