<svg width="64" height="64" viewBox="0 0 64 64" fill="none" xmlns="http://www.w3.org/2000/svg">
<mask id="path-1-inside-1_382_2934" fill="white">
<path d="M29.1254 32.6006L20.0021 58.2156C19.9458 58.3875 19.805 58.5881 19.5797 58.8173L16.8765 61.482C16.3697 61.9977 15.793 62.1272 15.1465 61.8705C14.5 61.6138 14.1193 61.1404 14.0044 60.4505L13.6665 56.7544L13.751 55.9808L23.2122 29.3342C24.0569 30.1365 24.9726 30.8104 25.9593 31.3559C26.946 31.9014 28.0013 32.3163 29.1254 32.6006ZM24.9861 26.4976C23.0151 24.492 22.0295 22.0565 22.0295 19.1913C22.0295 16.9565 22.6636 14.9657 23.9319 13.2191C25.2001 11.4724 26.8187 10.2541 28.7875 9.56419V5.43828C28.7875 4.4641 29.1119 3.64809 29.7607 2.99023C30.4094 2.33238 31.2114 2.0023 32.1665 2.00001C33.1216 1.99772 33.9247 2.32779 34.5757 2.99023C35.2267 3.65267 35.55 4.46868 35.5455 5.43828V9.56419C37.5166 10.2518 39.1362 11.4701 40.4045 13.2191C41.6727 14.968 42.3057 16.9587 42.3035 19.1913C42.3035 22.0565 41.3179 24.492 39.3469 26.4976C37.3758 28.5033 34.9823 29.5061 32.1665 29.5061C29.3507 29.5061 26.9572 28.5033 24.9861 26.4976ZM34.5757 21.6428C35.2222 20.9827 35.5455 20.1655 35.5455 19.1913C35.5455 18.2172 35.2211 17.4011 34.5723 16.7433C33.9236 16.0854 33.1216 15.7554 32.1665 15.7531C31.2114 15.7508 30.4094 16.0808 29.7607 16.7433C29.1119 17.4057 28.7875 18.2217 28.7875 19.1913C28.7875 20.1609 29.1119 20.9781 29.7607 21.6428C30.4094 22.3075 31.2114 22.6365 32.1665 22.6296C33.1216 22.6227 33.9247 22.2926 34.5757 21.6394M35.2076 32.6006C36.3339 32.314 37.3904 31.898 38.3771 31.3525C39.3638 30.8069 40.2783 30.1342 41.1208 29.3342L50.582 55.9808C50.6383 56.1527 50.6665 56.4105 50.6665 56.7544L50.3286 60.4505C50.216 61.1381 49.8353 61.6115 49.1865 61.8705C48.5377 62.1295 47.9611 62 47.4565 61.482L44.7533 58.8173L44.3309 58.2156L35.2076 32.6006Z"/>
</mask>
<path d="M29.1254 32.6006L20.0021 58.2156C19.9458 58.3875 19.805 58.5881 19.5797 58.8173L16.8765 61.482C16.3697 61.9977 15.793 62.1272 15.1465 61.8705C14.5 61.6138 14.1193 61.1404 14.0044 60.4505L13.6665 56.7544L13.751 55.9808L23.2122 29.3342C24.0569 30.1365 24.9726 30.8104 25.9593 31.3559C26.946 31.9014 28.0013 32.3163 29.1254 32.6006ZM24.9861 26.4976C23.0151 24.492 22.0295 22.0565 22.0295 19.1913C22.0295 16.9565 22.6636 14.9657 23.9319 13.2191C25.2001 11.4724 26.8187 10.2541 28.7875 9.56419V5.43828C28.7875 4.4641 29.1119 3.64809 29.7607 2.99023C30.4094 2.33238 31.2114 2.0023 32.1665 2.00001C33.1216 1.99772 33.9247 2.32779 34.5757 2.99023C35.2267 3.65267 35.55 4.46868 35.5455 5.43828V9.56419C37.5166 10.2518 39.1362 11.4701 40.4045 13.2191C41.6727 14.968 42.3057 16.9587 42.3035 19.1913C42.3035 22.0565 41.3179 24.492 39.3469 26.4976C37.3758 28.5033 34.9823 29.5061 32.1665 29.5061C29.3507 29.5061 26.9572 28.5033 24.9861 26.4976ZM34.5757 21.6428C35.2222 20.9827 35.5455 20.1655 35.5455 19.1913C35.5455 18.2172 35.2211 17.4011 34.5723 16.7433C33.9236 16.0854 33.1216 15.7554 32.1665 15.7531C31.2114 15.7508 30.4094 16.0808 29.7607 16.7433C29.1119 17.4057 28.7875 18.2217 28.7875 19.1913C28.7875 20.1609 29.1119 20.9781 29.7607 21.6428C30.4094 22.3075 31.2114 22.6365 32.1665 22.6296C33.1216 22.6227 33.9247 22.2926 34.5757 21.6394M35.2076 32.6006C36.3339 32.314 37.3904 31.898 38.3771 31.3525C39.3638 30.8069 40.2783 30.1342 41.1208 29.3342L50.582 55.9808C50.6383 56.1527 50.6665 56.4105 50.6665 56.7544L50.3286 60.4505C50.216 61.1381 49.8353 61.6115 49.1865 61.8705C48.5377 62.1295 47.9611 62 47.4565 61.482L44.7533 58.8173L44.3309 58.2156L35.2076 32.6006Z" fill="url(#paint0_linear_382_2934)"/>
<path d="M29.1254 32.6006L30.0674 32.9361L30.4363 31.9005L29.3705 31.6311L29.1254 32.6006ZM20.0021 58.2156L19.0601 57.8801L19.0558 57.8922L19.0518 57.9043L20.0021 58.2156ZM19.5797 58.8173L20.2818 59.5295L20.2874 59.5239L20.293 59.5182L19.5797 58.8173ZM16.8765 61.482L16.1745 60.7698L16.1689 60.7754L16.1633 60.781L16.8765 61.482ZM14.0044 60.4505L13.0086 60.5415L13.0119 60.5783L13.018 60.6147L14.0044 60.4505ZM13.6665 56.7544L12.6724 56.6458L12.6615 56.7455L12.6707 56.8454L13.6665 56.7544ZM13.751 55.9808L12.8086 55.6462L12.7696 55.7562L12.7569 55.8722L13.751 55.9808ZM23.2122 29.3342L23.9008 28.6091L22.7848 27.5492L22.2698 28.9996L23.2122 29.3342ZM28.7875 9.56419L29.1182 10.5079L29.7875 10.2734V9.56419H28.7875ZM35.5455 5.43828L34.5455 5.43363V5.43828H35.5455ZM35.5455 9.56419H34.5455V10.2744L35.2161 10.5084L35.5455 9.56419ZM42.3035 19.1913L41.3035 19.1903V19.1913H42.3035ZM35.2076 32.6006L34.9611 31.6314L33.8973 31.902L34.2656 32.9361L35.2076 32.6006ZM41.1208 29.3342L42.0632 28.9996L41.5483 27.5494L40.4323 28.609L41.1208 29.3342ZM50.582 55.9808L51.5323 55.6694L51.5285 55.6577L51.5244 55.6462L50.582 55.9808ZM50.6665 56.7544L51.6623 56.8454L51.6665 56.8V56.7544H50.6665ZM50.3286 60.4505L51.3155 60.6121L51.3212 60.577L51.3245 60.5415L50.3286 60.4505ZM47.4565 61.482L48.1728 60.7842L48.1657 60.7769L48.1585 60.7698L47.4565 61.482ZM44.7533 58.8173L43.9348 59.3919L43.9868 59.4659L44.0513 59.5295L44.7533 58.8173ZM44.3309 58.2156L43.3889 58.5511L43.4344 58.679L43.5124 58.7902L44.3309 58.2156ZM29.1254 32.6006L28.1834 32.265L19.0601 57.8801L20.0021 58.2156L20.9442 58.5511L30.0674 32.9361L29.1254 32.6006ZM20.0021 58.2156L19.0518 57.9043C19.0631 57.87 19.0682 57.8743 19.0358 57.9204C19.0049 57.9644 18.9518 58.0296 18.8665 58.1164L19.5797 58.8173L20.293 59.5182C20.5547 59.2519 20.8242 58.9184 20.9524 58.5269L20.0021 58.2156ZM19.5797 58.8173L18.8777 58.1051L16.1745 60.7698L16.8765 61.482L17.5786 62.1941L20.2818 59.5295L19.5797 58.8173ZM16.8765 61.482L16.1633 60.781C16.0144 60.9325 15.9073 60.9762 15.8448 60.9902C15.7855 61.0035 15.6857 61.0087 15.5156 60.9411L15.1465 61.8705L14.7774 62.7999C15.2538 62.9891 15.7657 63.0578 16.283 62.9416C16.7972 62.8261 17.2318 62.5472 17.5898 62.1829L16.8765 61.482ZM15.1465 61.8705L15.5156 60.9411C15.1969 60.8145 15.0486 60.6329 14.9908 60.2862L14.0044 60.4505L13.018 60.6147C13.19 61.6479 13.8031 62.413 14.7774 62.7999L15.1465 61.8705ZM14.0044 60.4505L15.0003 60.3595L14.6624 56.6633L13.6665 56.7544L12.6707 56.8454L13.0086 60.5415L14.0044 60.4505ZM13.6665 56.7544L14.6606 56.8629L14.7451 56.0893L13.751 55.9808L12.7569 55.8722L12.6724 56.6458L13.6665 56.7544ZM13.751 55.9808L14.6933 56.3153L24.1545 29.6688L23.2122 29.3342L22.2698 28.9996L12.8086 55.6462L13.751 55.9808ZM23.2122 29.3342L22.5235 30.0593C23.4278 30.9181 24.412 31.643 25.4754 32.231L25.9593 31.3559L26.4432 30.4808C25.5333 29.9777 24.686 29.3548 23.9008 28.6091L23.2122 29.3342ZM25.9593 31.3559L25.4754 32.231C26.5394 32.8193 27.6753 33.2654 28.8803 33.57L29.1254 32.6006L29.3705 31.6311C28.3274 31.3673 27.3525 30.9836 26.4432 30.4808L25.9593 31.3559ZM24.9861 26.4976L25.6994 25.7967C23.9159 23.982 23.0295 21.7999 23.0295 19.1913H22.0295H21.0295C21.0295 22.3132 22.1142 25.002 24.2729 27.1986L24.9861 26.4976ZM22.0295 19.1913H23.0295C23.0295 17.1596 23.6015 15.3761 24.7411 13.8066L23.9319 13.2191L23.1227 12.6315C21.7258 14.5553 21.0295 16.7534 21.0295 19.1913H22.0295ZM23.9319 13.2191L24.7411 13.8066C25.8942 12.2186 27.3484 11.1281 29.1182 10.5079L28.7875 9.56419L28.4568 8.62046C26.289 9.38013 24.5061 10.7263 23.1227 12.6315L23.9319 13.2191ZM28.7875 9.56419H29.7875V5.43828H28.7875H27.7875V9.56419H28.7875ZM28.7875 5.43828H29.7875C29.7875 4.71106 30.0193 4.15215 30.4727 3.6924L29.7607 2.99023L29.0487 2.28806C28.2045 3.14402 27.7875 4.21714 27.7875 5.43828H28.7875ZM29.7607 2.99023L30.4727 3.6924C30.9271 3.23157 31.4705 3.00169 32.1689 3.00001L32.1665 2.00001L32.1641 1.00001C30.9523 1.00292 29.8917 1.43319 29.0487 2.28806L29.7607 2.99023ZM32.1665 2.00001L32.1689 3.00001C32.8635 2.99834 33.406 3.22666 33.8625 3.69116L34.5757 2.99023L35.289 2.2893C34.4434 1.42893 33.3797 0.997097 32.1641 1.00001L32.1665 2.00001ZM34.5757 2.99023L33.8625 3.69116C34.3197 4.15644 34.5488 4.71495 34.5455 5.43363L35.5455 5.43828L36.5455 5.44292C36.5512 4.22242 36.1337 3.14891 35.289 2.2893L34.5757 2.99023ZM35.5455 5.43828H34.5455V9.56419H35.5455H36.5455V5.43828H35.5455ZM35.5455 9.56419L35.2161 10.5084C36.9874 11.1263 38.4421 12.2163 39.5949 13.8061L40.4045 13.2191L41.214 12.632C39.8304 10.7239 38.0458 9.37735 35.8749 8.62L35.5455 9.56419ZM40.4045 13.2191L39.5949 13.8061C40.7348 15.378 41.3055 17.1614 41.3035 19.1903L42.3035 19.1913L43.3035 19.1923C43.3059 16.7561 42.6106 14.5579 41.214 12.632L40.4045 13.2191ZM42.3035 19.1913H41.3035C41.3035 21.7999 40.4171 23.982 38.6336 25.7967L39.3469 26.4976L40.0601 27.1986C42.2188 25.002 43.3035 22.3132 43.3035 19.1913H42.3035ZM39.3469 26.4976L38.6336 25.7967C36.8509 27.6108 34.7145 28.5061 32.1665 28.5061V29.5061V30.5061C35.2502 30.5061 37.9007 29.3958 40.0601 27.1986L39.3469 26.4976ZM32.1665 29.5061V28.5061C29.6185 28.5061 27.4822 27.6108 25.6994 25.7967L24.9861 26.4976L24.2729 27.1986C26.4323 29.3958 29.0828 30.5061 32.1665 30.5061V29.5061ZM34.5757 21.6428L35.2902 22.3425C36.1305 21.4845 36.5455 20.4114 36.5455 19.1913H35.5455H34.5455C34.5455 19.9196 34.314 20.4808 33.8613 20.9431L34.5757 21.6428ZM35.5455 19.1913H36.5455C36.5455 17.9702 36.1285 16.8971 35.2844 16.0411L34.5723 16.7433L33.8603 17.4455C34.3137 17.9052 34.5455 18.4641 34.5455 19.1913H35.5455ZM34.5723 16.7433L35.2844 16.0411C34.4413 15.1862 33.3807 14.756 32.1689 14.7531L32.1665 15.7531L32.1641 16.7531C32.8625 16.7547 33.4059 16.9846 33.8603 17.4455L34.5723 16.7433ZM32.1665 15.7531L32.1689 14.7531C30.9532 14.7502 29.89 15.1821 29.0462 16.0436L29.7607 16.7433L30.4751 17.443C30.9289 16.9796 31.4695 16.7514 32.1641 16.7531L32.1665 15.7531ZM29.7607 16.7433L29.0462 16.0436C28.2053 16.9022 27.7875 17.9734 27.7875 19.1913H28.7875H29.7875C29.7875 18.4701 30.0185 17.9092 30.4751 17.443L29.7607 16.7433ZM28.7875 19.1913H27.7875C27.7875 20.4092 28.2052 21.4808 29.045 22.3413L29.7607 21.6428L30.4763 20.9443C30.0185 20.4753 29.7875 19.9126 29.7875 19.1913H28.7875ZM29.7607 21.6428L29.045 22.3413C29.8897 23.2067 30.9553 23.6383 32.1737 23.6296L32.1665 22.6296L32.1593 21.6296C31.4674 21.6346 30.9292 21.4084 30.4763 20.9443L29.7607 21.6428ZM32.1665 22.6296L32.1737 23.6296C33.3817 23.6209 34.4399 23.1923 35.2841 22.3453L34.5757 21.6394L33.8674 20.9335C33.4095 21.393 32.8616 21.6246 32.1593 21.6296L32.1665 22.6296ZM35.2076 32.6006L35.4541 33.5697C36.6607 33.2628 37.7972 32.8157 38.861 32.2276L38.3771 31.3525L37.8932 30.4773C36.9836 30.9803 36.0072 31.3653 34.9611 31.6314L35.2076 32.6006ZM38.3771 31.3525L38.861 32.2276C39.9242 31.6397 40.9072 30.916 41.8094 30.0594L41.1208 29.3342L40.4323 28.609C39.6495 29.3523 38.8033 29.9741 37.8932 30.4773L38.3771 31.3525ZM41.1208 29.3342L40.1785 29.6688L49.6397 56.3153L50.582 55.9808L51.5244 55.6462L42.0632 28.9996L41.1208 29.3342ZM50.582 55.9808L49.6317 56.2921C49.6312 56.2906 49.6418 56.3246 49.6513 56.4116C49.6604 56.4951 49.6665 56.6078 49.6665 56.7544H50.6665H51.6665C51.6665 56.382 51.6392 55.9955 51.5323 55.6694L50.582 55.9808ZM50.6665 56.7544L49.6707 56.6633L49.3328 60.3595L50.3286 60.4505L51.3245 60.5415L51.6623 56.8454L50.6665 56.7544ZM50.3286 60.4505L49.3418 60.2889C49.286 60.6294 49.1399 60.8124 48.8157 60.9418L49.1865 61.8705L49.5573 62.7992C50.5307 62.4106 51.146 61.6469 51.3155 60.6121L50.3286 60.4505ZM49.1865 61.8705L48.8157 60.9418C48.6439 61.0104 48.5443 61.0049 48.4865 60.9919C48.4259 60.9783 48.3202 60.9356 48.1728 60.7842L47.4565 61.482L46.7401 62.1797C47.0973 62.5464 47.5323 62.8274 48.0483 62.9433C48.5672 63.0599 49.0804 62.9896 49.5573 62.7992L49.1865 61.8705ZM47.4565 61.482L48.1585 60.7698L45.4553 58.1051L44.7533 58.8173L44.0513 59.5295L46.7544 62.1941L47.4565 61.482ZM44.7533 58.8173L45.5717 58.2428L45.1494 57.6411L44.3309 58.2156L43.5124 58.7902L43.9348 59.3919L44.7533 58.8173ZM44.3309 58.2156L45.2729 57.8801L36.1496 32.265L35.2076 32.6006L34.2656 32.9361L43.3889 58.5511L44.3309 58.2156Z" fill="white" mask="url(#path-1-inside-1_382_2934)"/>
<defs>
<linearGradient id="paint0_linear_382_2934" x1="11.8266" y1="62.7692" x2="82.8574" y2="11.0028" gradientUnits="userSpaceOnUse">
<stop stop-color="#C01E6C"/>
<stop offset="1" stop-color="#FF9A3C"/>
</linearGradient>
</defs>
</svg>
