<svg width="32" height="44" viewBox="0 0 32 44" fill="none" xmlns="http://www.w3.org/2000/svg">
<path d="M4 0.200195H19.1719C20.1796 0.200411 21.1459 0.600815 21.8584 1.31348L30.6865 10.1416C31.3992 10.8541 31.7996 11.8204 31.7998 12.8281V36C31.7998 37.0078 31.3992 37.9739 30.6865 38.6865C29.9739 39.3992 29.0078 39.7998 28 39.7998H4C2.99218 39.7998 2.02611 39.3992 1.31348 38.6865C0.600838 37.9739 0.200195 37.0078 0.200195 36V4C0.200195 2.99218 0.600838 2.02611 1.31348 1.31348C2.02611 0.600838 2.99218 0.200195 4 0.200195ZM3.7998 36.2002H28.2002V15.7998H19C18.2574 15.7998 17.5456 15.5046 17.0205 14.9795C16.4954 14.4544 16.2002 13.7426 16.2002 13V3.7998H3.7998V36.2002ZM16 28.2002C16.4774 28.2002 16.9349 28.39 17.2725 28.7275C17.61 29.0651 17.7998 29.5226 17.7998 30C17.7998 30.4774 17.61 30.9349 17.2725 31.2725C16.9349 31.61 16.4774 31.7998 16 31.7998C15.5226 31.7998 15.0651 31.61 14.7275 31.2725C14.39 30.9349 14.2002 30.4774 14.2002 30C14.2002 29.5226 14.39 29.0651 14.7275 28.7275C15.0651 28.39 15.5226 28.2002 16 28.2002ZM16 18.2002C16.4774 18.2002 16.9349 18.39 17.2725 18.7275C17.61 19.0651 17.7998 19.5226 17.7998 20V24C17.7998 24.4774 17.61 24.9349 17.2725 25.2725C16.9349 25.61 16.4774 25.7998 16 25.7998C15.5226 25.7998 15.0651 25.61 14.7275 25.2725C14.39 24.9349 14.2002 24.4774 14.2002 24V20C14.2002 19.5226 14.39 19.0651 14.7275 18.7275C15.0651 18.39 15.5226 18.2002 16 18.2002ZM19.7998 12.2002H27.6553L19.7998 4.34473V12.2002Z" fill="#F37A3A" stroke="white" stroke-width="0.4"/>
</svg>
