<svg width="64" height="74" viewBox="0 0 64 74" fill="none" xmlns="http://www.w3.org/2000/svg">
<path d="M39.278 58.2917C39.278 58.2917 33.6907 54.2336 33.6907 54.2337C34.9389 53.3142 37.5544 51.4125 38.7983 50.5153L42.8164 53.444C44.4056 54.6134 46.4147 54.7733 48.1738 53.8739C54.6258 50.2274 48.857 40.9776 42.7565 45.1678C39.7131 47.3751 34.9848 50.8107 31.9915 52.9943C30.2045 54.1695 24.0713 59.1301 22.0962 59.7009C15.0736 62.5661 6.81316 56.8818 7.00322 49.2761C6.88335 40.2834 17.4994 34.9044 24.7049 40.2602L30.2922 44.3283L25.1846 48.0365L21.1665 45.1179C19.5572 43.9584 17.5482 43.8085 15.8091 44.698C9.40093 48.307 15.0401 57.522 21.1665 53.444C26.6882 49.4235 33.7288 44.305 39.278 40.2602C42.6262 37.8187 47.1913 37.4408 50.8926 39.3505C64.7681 47.164 52.4484 67.1162 39.278 58.2917ZM31.9905 26.5006C35.3005 26.5006 37.9905 23.8106 37.9905 20.5006C37.7109 12.5593 26.2688 12.5613 25.9905 20.5007C25.9905 23.8106 28.6805 26.5006 31.9905 26.5006ZM15.7405 24.2705C15.1656 21.811 15.1656 19.1903 15.7405 16.7307C15.8404 16.3107 16.1905 16.0108 16.6104 15.9606C18.2044 15.9208 19.6479 15.0213 20.3404 13.6107C21.0105 12.4708 21.0904 11.0608 20.5405 9.84077C20.2644 9.34639 20.1369 8.73957 20.6004 8.3108C22.5107 6.56428 24.8764 5.08936 27.4205 4.50099C27.9241 4.47749 28.2292 4.87617 28.4704 5.25081C30.0801 7.61659 34.2444 7.4485 35.6805 5.02089C35.9004 4.62093 36.4205 4.40089 36.8705 4.55092C38.0705 4.91091 39.2304 5.42092 40.3305 6.05086C41.4305 6.69087 42.4604 7.45088 43.3805 8.31087C43.6604 8.58083 43.7605 8.98085 43.6505 9.35085C42.8731 10.7782 42.8708 12.5313 43.8004 13.8808C44.4405 15.0207 45.6205 15.7807 46.9505 15.9208C47.5027 15.9176 48.1112 16.123 48.2405 16.7307C48.8153 19.1903 48.8153 21.811 48.2404 24.2705C48.119 24.8811 47.4943 25.0799 46.9505 25.0805C45.4977 25.2252 44.2691 26.1255 43.6405 27.4005C42.8523 28.6935 42.9339 30.3255 43.6504 31.6504C43.7605 32.0204 43.6604 32.4204 43.3805 32.6905C41.4712 34.4387 39.0973 35.9017 36.5705 36.5004C36.2256 36.497 35.8919 36.3148 35.7104 36.0205C34.0559 33.3483 29.8147 33.4397 28.216 36.0932C27.9466 36.4054 27.5047 36.5943 27.0979 36.4494C24.7013 35.7159 22.4221 34.4064 20.6005 32.6905C20.129 32.2535 20.2685 31.6623 20.5404 31.1605C21.8047 28.451 19.6031 25.0387 16.6104 25.0406C16.1905 24.9906 15.8404 24.6906 15.7405 24.2705ZM23.9905 20.5006C24.4301 31.1102 39.5492 31.1132 39.9905 20.5006C39.9905 16.0907 36.4004 12.5008 31.9905 12.5008C27.5805 12.5008 23.9905 16.0907 23.9905 20.5006Z" fill="url(#paint0_linear_826_10427)"/>
<defs>
<linearGradient id="paint0_linear_826_10427" x1="11.9057" y1="9.7849" x2="56.2262" y2="48.7207" gradientUnits="userSpaceOnUse">
<stop stop-color="#F94229"/>
<stop offset="1" stop-color="#BB0A55"/>
</linearGradient>
</defs>
</svg>
