<svg width="56" height="56" viewBox="0 0 56 56" fill="none" xmlns="http://www.w3.org/2000/svg">
<rect width="56" height="56" rx="4" fill="url(#paint0_linear_152_2998)" fill-opacity="0.1"/>
<rect x="0.5" y="0.5" width="55" height="55" rx="3.5" stroke="url(#paint1_linear_152_2998)" stroke-opacity="0.5"/>
<path d="M28.0007 18.89L27.6877 18.985L15.1877 23.173L12.3457 24.11L14.0007 24.64V33.39C13.4037 33.737 13.0007 34.37 13.0007 35.11C13.0007 35.6404 13.2114 36.1492 13.5865 36.5242C13.9616 36.8993 14.4703 37.11 15.0007 37.11C15.5311 37.11 16.0398 36.8993 16.4149 36.5242C16.79 36.1492 17.0007 35.6404 17.0007 35.11C17.0007 34.37 16.5977 33.737 16.0007 33.39V25.33L18.0007 25.985V31.11C18.0007 31.93 18.5007 32.61 19.0947 33.08C19.6887 33.547 20.4267 33.877 21.3127 34.173C23.0867 34.763 25.4247 35.11 28.0007 35.11C30.5767 35.11 32.9147 34.764 34.6887 34.172C35.5747 33.877 36.3127 33.547 36.9067 33.079C37.5007 32.61 38.0007 31.93 38.0007 31.11V25.985L40.8137 25.047L43.6557 24.11L40.8127 23.172L28.3127 18.985L28.0007 18.89ZM28.0007 20.985L37.3757 24.11L28.0007 27.235L18.6257 24.11L28.0007 20.985ZM20.0007 26.673L27.6887 29.235L28.0007 29.329L28.3137 29.234L36.0007 26.672V31.11C36.0007 31.12 36.0047 31.236 35.6877 31.485C35.3717 31.735 34.8047 32.05 34.0627 32.298C32.5807 32.791 30.3957 33.11 28.0007 33.11C25.6057 33.11 23.4207 32.792 21.9377 32.297C21.1977 32.05 20.6297 31.734 20.3137 31.485C19.9957 31.235 20.0007 31.12 20.0007 31.11V26.673Z" fill="url(#paint2_linear_152_2998)"/>
<defs>
<linearGradient id="paint0_linear_152_2998" x1="47.0418" y1="40.3077" x2="4.70857" y2="40.2435" gradientUnits="userSpaceOnUse">
<stop stop-color="#F37A3A"/>
<stop offset="1" stop-color="#CA1C69"/>
</linearGradient>
<linearGradient id="paint1_linear_152_2998" x1="56" y1="42.708" x2="0.204749" y2="43.4342" gradientUnits="userSpaceOnUse">
<stop stop-color="#F37A3A"/>
<stop offset="1" stop-color="#CA1C69"/>
</linearGradient>
<linearGradient id="paint2_linear_152_2998" x1="38.6471" y1="32.0044" x2="14.9784" y2="31.9427" gradientUnits="userSpaceOnUse">
<stop stop-color="#F37A3A"/>
<stop offset="1" stop-color="#CA1C69"/>
</linearGradient>
</defs>
</svg>
