<svg width="48" height="48" viewBox="0 0 48 48" fill="none" xmlns="http://www.w3.org/2000/svg">
<path d="M22.5 19.5V15C22.5 14.1716 23.1716 13.5 24 13.5C24.8284 13.5 25.5 14.1716 25.5 15V19.5C25.5 20.3284 24.8284 21 24 21C23.1716 21 22.5 20.3284 22.5 19.5ZM30 21C30.8284 21 31.5 20.3284 31.5 19.5V18C31.5 17.1716 30.8284 16.5 30 16.5C29.1716 16.5 28.5 17.1716 28.5 18V19.5C28.5 20.3284 29.1716 21 30 21ZM18 21C18.8284 21 19.5 20.3284 19.5 19.5V10.5C19.5 9.67163 18.8284 9 18 9C17.1716 9 16.5 9.67163 16.5 10.5V19.5C16.5 20.3284 17.1716 21 18 21ZM45 7.5V28.5C45 30.9814 42.9814 33 40.5 33H30.4212L31.1711 36H43.5C44.3284 36 45 36.6716 45 37.5V43.5C45 44.3284 44.3284 45 43.5 45H4.5C3.67163 45 3 44.3284 3 43.5V37.5C3 36.6716 3.67163 36 4.5 36H16.8287L17.5787 33H7.5C5.01855 33 3 30.9814 3 28.5V7.5C3 5.01855 5.01855 3 7.5 3H40.5C42.9814 3 45 5.01855 45 7.5ZM6 7.5V24H42V7.5C42 6.6731 41.3269 6 40.5 6H7.5C6.6731 6 6 6.6731 6 7.5ZM42 39H30.03H30H18H6V42H42V39ZM27.3289 33H20.6711L19.9211 36H28.0789L27.3289 33ZM42 28.5V27H6V28.5C6 29.3269 6.6731 30 7.5 30H19.5H28.5H40.5C41.3269 30 42 29.3269 42 28.5Z" fill="url(#paint0_linear_244_12783)"/>
<defs>
<linearGradient id="paint0_linear_244_12783" x1="0.911442" y1="45.5385" x2="52.4218" y2="-15.3374" gradientUnits="userSpaceOnUse">
<stop stop-color="#C01E6C"/>
<stop offset="1" stop-color="#FF9A3C"/>
</linearGradient>
</defs>
</svg>
