<svg xmlns="http://www.w3.org/2000/svg" width="46" height="46" fill="none"><g clip-path="url(#a)"><path fill="url(#b)" d="M42 .667H28.667a6.67 6.67 0 0 0-5.333 2.666A6.67 6.67 0 0 0 18 .667H4.667a4 4 0 0 0-4 4v26.666a4 4 0 0 0 4 4H18a4 4 0 0 1 3.227 1.635 2.707 2.707 0 0 0 4.21 0 3.97 3.97 0 0 1 3.23-1.635H30a1.333 1.333 0 0 0 0-2.666h-1.333a6.5 6.5 0 0 0-4 1.397V7.334a4 4 0 0 1 2.667-3.755V18a4 4 0 1 0 8 0A1.333 1.333 0 1 1 38 18v9.47A6.67 6.67 0 0 0 32.667 34v5.333a6.667 6.667 0 0 0 13.333 0V34a6.666 6.666 0 0 0-5.333-6.53V18a4 4 0 1 0-8 0A1.334 1.334 0 0 1 30 18V3.333h12a1.333 1.333 0 0 1 1.334 1.334V26A1.333 1.333 0 1 0 46 26V4.667a4 4 0 0 0-4-4m-24 32H4.667a1.333 1.333 0 0 1-1.333-1.334V4.667a1.333 1.333 0 0 1 1.333-1.334H18a4 4 0 0 1 4 4v26.71a6.67 6.67 0 0 0-4-1.376M43.334 34v5.333a4 4 0 0 1-8 0V34a4 4 0 1 1 8 0"/><path fill="url(#c)" d="M18 8.667H7.333a1.333 1.333 0 1 0 0 2.666H18a1.333 1.333 0 0 0 0-2.666"/><path fill="url(#d)" d="M18 19.333H7.333a1.333 1.333 0 1 0 0 2.667H18a1.333 1.333 0 0 0 0-2.667"/><path fill="url(#e)" d="M18 14H7.333a1.334 1.334 0 0 0 0 2.667H18A1.333 1.333 0 1 0 18 14"/><path fill="url(#f)" d="M18 24.667H7.333a1.333 1.333 0 0 0 0 2.666H18a1.333 1.333 0 0 0 0-2.666"/><path fill="url(#g)" d="M34 8.667a1.333 1.333 0 0 0 0 2.666h5.334a1.334 1.334 0 0 0 0-2.666z"/><path fill="url(#h)" d="M35.333 26A1.333 1.333 0 0 0 34 24.667h-5.334a1.333 1.333 0 0 0 0 2.666H34A1.334 1.334 0 0 0 35.333 26"/><path fill="url(#i)" d="M38 34v1.333a1.333 1.333 0 0 0 2.667 0V34A1.333 1.333 0 1 0 38 34"/></g><defs><linearGradient id="b" x1="1.641" x2="54.052" y1="44.489" y2="25.284" gradientUnits="userSpaceOnUse"><stop stop-color="#6549F6"/><stop offset=".79" stop-color="#FF611D"/></linearGradient><linearGradient id="c" x1="6.286" x2="10.3" y1="11.245" y2="3.892" gradientUnits="userSpaceOnUse"><stop stop-color="#6549F6"/><stop offset=".79" stop-color="#FF611D"/></linearGradient><linearGradient id="d" x1="6.286" x2="10.3" y1="21.911" y2="14.558" gradientUnits="userSpaceOnUse"><stop stop-color="#6549F6"/><stop offset=".79" stop-color="#FF611D"/></linearGradient><linearGradient id="e" x1="6.286" x2="10.3" y1="16.578" y2="9.225" gradientUnits="userSpaceOnUse"><stop stop-color="#6549F6"/><stop offset=".79" stop-color="#FF611D"/></linearGradient><linearGradient id="f" x1="6.286" x2="10.3" y1="27.244" y2="19.892" gradientUnits="userSpaceOnUse"><stop stop-color="#6549F6"/><stop offset=".79" stop-color="#FF611D"/></linearGradient><linearGradient id="g" x1="32.839" x2="37.589" y1="11.245" y2="6.023" gradientUnits="userSpaceOnUse"><stop stop-color="#6549F6"/><stop offset=".79" stop-color="#FF611D"/></linearGradient><linearGradient id="h" x1="27.505" x2="32.255" y1="27.244" y2="22.023" gradientUnits="userSpaceOnUse"><stop stop-color="#6549F6"/><stop offset=".79" stop-color="#FF611D"/></linearGradient><linearGradient id="i" x1="38.057" x2="41.357" y1="36.533" y2="35.727" gradientUnits="userSpaceOnUse"><stop stop-color="#6549F6"/><stop offset=".79" stop-color="#FF611D"/></linearGradient><clipPath id="a"><path fill="#fff" d="M0 0h46v46H0z"/></clipPath></defs></svg>