<svg width="58" height="58" viewBox="0 0 58 58" fill="none" xmlns="http://www.w3.org/2000/svg">
<path d="M8.21657 22.175V44.9691M22.0298 22.175V44.9691M35.8471 22.175V44.9691M49.6603 22.175V44.9691M53.4317 22.175H4.44518C2.12433 22.175 1.12968 19.6469 2.95321 18.445L27.4465 2.4063C27.8987 2.14028 28.4138 2 28.9385 2C29.4631 2 29.9782 2.14028 30.4304 2.4063L54.9237 18.445C56.7472 19.6469 55.7526 22.175 53.4317 22.175ZM53.8047 44.9691H4.07219C3.52261 44.9691 2.99554 45.1874 2.60693 45.576C2.21832 45.9646 2 46.4917 2 47.0412V53.2578C2 53.8074 2.21832 54.3345 2.60693 54.7231C2.99554 55.1117 3.52261 55.33 4.07219 55.33H53.8047C54.3543 55.33 54.8814 55.1117 55.27 54.7231C55.6586 54.3345 55.8769 53.8074 55.8769 53.2578V47.0412C55.8769 46.4917 55.6586 45.9646 55.27 45.576C54.8814 45.1874 54.3543 44.9691 53.8047 44.9691Z" stroke="url(#paint0_linear_696_6731)" stroke-width="4" stroke-linecap="round" stroke-linejoin="round"/>
<defs>
<linearGradient id="paint0_linear_696_6731" x1="2" y1="2" x2="64.2944" y2="15.0027" gradientUnits="userSpaceOnUse">
<stop stop-color="#511F5E"/>
<stop offset="1" stop-color="#C01E6C"/>
</linearGradient>
</defs>
</svg>
