<svg width="64" height="74" viewBox="0 0 64 74" fill="none" xmlns="http://www.w3.org/2000/svg">
<g clip-path="url(#clip0_828_11332)">
<path fill-rule="evenodd" clip-rule="evenodd" d="M33.8126 40.5668C32.3731 39.1023 31.5643 37.1324 31.5593 35.0789C31.5543 33.0254 32.3536 31.0516 33.786 29.5801C33.8236 27.5126 34.6617 25.5402 36.1239 24.078C37.5861 22.6158 39.5584 21.7777 41.626 21.7401C43.0888 20.3046 45.0565 19.5004 47.106 19.5004C49.1555 19.5004 51.1231 20.3046 52.586 21.7401C52.6437 21.8057 52.7203 21.8519 52.8052 21.8726C52.8901 21.8932 52.9794 21.8873 53.0608 21.8556C53.1423 21.8239 53.212 21.7679 53.2606 21.6953C53.3092 21.6226 53.3344 21.5368 53.3326 21.4494V15.5001C53.4877 14.4134 53.3876 13.3056 53.0404 12.2642C52.6932 11.2229 52.1084 10.2767 51.3322 9.50054C50.556 8.72436 49.6098 8.13952 48.5685 7.79231C47.5272 7.4451 46.4193 7.34506 45.3326 7.5001H13.3326C12.2459 7.34506 11.1381 7.4451 10.0968 7.79231C9.05544 8.13952 8.10924 8.72436 7.33306 9.50054C6.55688 10.2767 5.97204 11.2229 5.62483 12.2642C5.27762 13.3056 5.17758 14.4134 5.33262 15.5001V36.8334C5.17758 37.9201 5.27762 39.028 5.62483 40.0693C5.97204 41.1106 6.55688 42.0568 7.33306 42.833C8.10924 43.6092 9.05544 44.194 10.0968 44.5412C11.1381 44.8884 12.2459 44.9885 13.3326 44.8334H33.7913C33.9225 44.8358 34.0522 44.8052 34.1685 44.7444C34.2848 44.6836 34.384 44.5946 34.457 44.4855C34.53 44.3765 34.5744 44.2508 34.5863 44.1201C34.5981 43.9894 34.5769 43.8578 34.5246 43.7374C34.0585 42.7453 33.8154 41.663 33.8126 40.5668ZM15.9993 18.8334H31.9993C32.5297 18.8334 33.0384 19.0441 33.4135 19.4192C33.7886 19.7943 33.9993 20.303 33.9993 20.8334C33.9993 21.3639 33.7886 21.8726 33.4135 22.2476C33.0384 22.6227 32.5297 22.8334 31.9993 22.8334H15.9993C15.4689 22.8334 14.9601 22.6227 14.5851 22.2476C14.21 21.8726 13.9993 21.3639 13.9993 20.8334C13.9993 20.303 14.21 19.7943 14.5851 19.4192C14.9601 19.0441 15.4689 18.8334 15.9993 18.8334ZM23.9993 33.5001H15.9993C15.4689 33.5001 14.9601 33.2894 14.5851 32.9143C14.21 32.5392 13.9993 32.0305 13.9993 31.5001C13.9993 30.9697 14.21 30.461 14.5851 30.0859C14.9601 29.7108 15.4689 29.5001 15.9993 29.5001H23.9993C24.5297 29.5001 25.0384 29.7108 25.4135 30.0859C25.7886 30.461 25.9993 30.9697 25.9993 31.5001C25.9993 32.0305 25.7886 32.5392 25.4135 32.9143C25.0384 33.2894 24.5297 33.5001 23.9993 33.5001ZM57.5353 32.3348C57.1041 32.0372 56.7681 31.6215 56.5675 31.1376C56.3669 30.6536 56.3104 30.1221 56.4046 29.6068C56.3904 29.0353 56.2539 28.4736 56.0043 27.9594C55.7547 27.4451 55.3977 26.9904 54.9575 26.6258C54.5173 26.2611 54.0041 25.9951 53.4524 25.8455C52.9007 25.6959 52.3234 25.6664 51.7593 25.7588C51.3753 25.721 51.004 25.6004 50.6711 25.4052C50.3382 25.21 50.0517 24.9448 49.8313 24.6281C49.1092 23.9061 48.1298 23.5004 47.1086 23.5004C46.0874 23.5004 45.1081 23.9061 44.386 24.6281C44.1665 24.9457 43.8801 25.2115 43.5471 25.4068C43.214 25.6021 42.8423 25.7223 42.458 25.7588C41.825 25.6583 41.1772 25.7091 40.5676 25.907C39.9579 26.1049 39.4038 26.4442 38.9505 26.8973C38.4972 27.3504 38.1575 27.9043 37.9593 28.5138C37.761 29.1233 37.7099 29.771 37.81 30.4041C37.7726 30.7886 37.6521 31.1604 37.4569 31.4938C37.2617 31.8271 36.9963 32.1141 36.6793 32.3348C35.9581 33.0568 35.553 34.0356 35.553 35.0561C35.553 36.0766 35.9581 37.0554 36.6793 37.7774C37.1112 38.0736 37.4479 38.4887 37.6486 38.9725C37.8493 39.4562 37.9054 39.9878 37.81 40.5028C37.812 41.4773 38.1846 42.4146 38.8521 43.1247C39.5196 43.8348 40.4321 44.2645 41.4046 44.3268L38.2206 55.5001L43.146 53.5268C45.6915 52.5134 48.5284 52.5134 51.074 53.5268L55.9993 55.5001L52.8153 44.3268C53.7871 44.2638 54.6987 43.8337 55.3652 43.1237C56.0317 42.4136 56.4033 41.4766 56.4046 40.5028C56.3361 40.1237 56.3512 39.7342 56.4488 39.3616C56.5465 38.989 56.7243 38.6422 56.97 38.3454C57.4351 38.0121 57.8232 37.5827 58.1083 37.0865C58.3933 36.5903 58.5685 36.0387 58.6221 35.4689C58.6757 34.8992 58.6064 34.3245 58.4189 33.7839C58.2314 33.2432 57.9301 32.749 57.5353 32.3348ZM47.1113 39.5001C46.232 39.5006 45.3723 39.2404 44.6409 38.7522C43.9095 38.2641 43.3393 37.57 43.0024 36.7578C42.6656 35.9455 42.5772 35.0516 42.7484 34.1892C42.9196 33.3267 43.3428 32.5343 43.9644 31.9124C44.5859 31.2904 45.378 30.8668 46.2404 30.695C47.1028 30.5233 47.9967 30.6112 48.8092 30.9476C49.6216 31.2839 50.316 31.8537 50.8046 32.5848C51.2932 33.3159 51.554 34.1755 51.554 35.0548C51.554 36.2333 51.086 37.3636 50.2529 38.1972C49.4198 39.0307 48.2898 39.4994 47.1113 39.5001Z" fill="url(#paint0_linear_828_11332)"/>
</g>
<defs>
<linearGradient id="paint0_linear_828_11332" x1="10.4989" y1="11.9658" x2="48.7138" y2="53.7176" gradientUnits="userSpaceOnUse">
<stop stop-color="#F94229"/>
<stop offset="1" stop-color="#BB0A55"/>
</linearGradient>
<clipPath id="clip0_828_11332">
<rect width="64" height="74" fill="white"/>
</clipPath>
</defs>
</svg>
