<svg width="48" height="48" viewBox="0 0 48 48" fill="none" xmlns="http://www.w3.org/2000/svg">
<g clip-path="url(#clip0_244_12641)">
<path d="M31.125 24.0938H34.875C34.875 30.0901 29.9967 34.9688 24 34.9688C18.0033 34.9688 13.125 30.0901 13.125 24.0938H16.875C16.875 28.0225 20.0713 31.2188 24 31.2188C27.9287 31.2188 31.125 28.0225 31.125 24.0938ZM45.6075 23.7916L44.5547 24.0938H44.25V24.1813L38.4404 25.8486L38.2108 26.9583C37.8439 28.7307 37.1455 30.4098 36.1351 31.9486L35.502 32.9132L38.4683 38.0658L38.0658 38.4683L32.9132 35.5016L31.9486 36.1348C30.4098 37.1451 28.7307 37.8435 26.9583 38.2104L25.8241 38.4456L24.2802 44.25H23.7198L22.1759 38.4456L21.0417 38.2108C19.2689 37.8439 17.5902 37.1455 16.051 36.1351L15.0864 35.502L9.93384 38.4683L9.53137 38.0658L12.498 32.9136L11.8649 31.949C10.8545 30.4098 10.1561 28.7311 9.78918 26.9583L9.55957 25.849L3.75 24.1813V24.0938H3.44531L2.39246 23.7916L2.30566 24.0938H0V27.0062L6.38672 28.8395C6.78552 30.2915 7.36487 31.6864 8.11743 33.0066L4.8479 38.6854L9.31458 43.1521L14.9934 39.8826C16.3063 40.6311 17.6927 41.2079 19.1364 41.6067L20.837 48H27.163L28.8636 41.6067C30.3073 41.2079 31.6937 40.6311 33.0066 39.8826L38.6854 43.1521L43.1521 38.6854L39.8826 33.0066C40.6351 31.6864 41.2145 30.2915 41.6133 28.8395L48 27.0062V24.0938H45.6943L45.6075 23.7916ZM3.75 20.3438H0C0 16.8999 1.89221 13.89 4.69116 12.2977C4.09717 11.406 3.75 10.3367 3.75 9.1875C3.75 6.08569 6.27319 3.5625 9.375 3.5625C12.4768 3.5625 15 6.08569 15 9.1875C15 10.3784 14.6268 11.4836 13.9929 12.394C14.5404 12.7203 15.0535 13.1038 15.524 13.5388C16.4524 12.3845 17.6115 11.4232 18.9305 10.7252C17.9982 9.5918 17.4375 8.14124 17.4375 6.5625C17.4375 2.94397 20.3815 0 24 0C27.6185 0 30.5625 2.94397 30.5625 6.5625C30.5625 8.14124 30.0018 9.5918 29.0695 10.7252C30.3885 11.4232 31.5476 12.3845 32.4763 13.5388C32.9469 13.1038 33.46 12.7203 34.0074 12.394C33.3732 11.4836 33 10.3784 33 9.1875C33 6.08569 35.5232 3.5625 38.625 3.5625C41.7268 3.5625 44.25 6.08569 44.25 9.1875C44.25 10.3367 43.9028 11.406 43.3088 12.2977C46.1078 13.89 48 16.8999 48 20.3438H44.25C44.25 17.3112 41.7828 14.8436 38.7499 14.8436C36.9946 14.8436 35.3862 15.6617 34.3579 17.0299C34.6934 18.0751 34.875 19.1887 34.875 20.3438H31.125C31.125 16.415 27.9287 13.2188 24 13.2188C20.0713 13.2188 16.875 16.415 16.875 20.3438H13.125C13.125 19.1887 13.3066 18.0751 13.6421 17.0299C12.6138 15.6617 11.0054 14.844 9.25012 14.844C6.21716 14.8436 3.75 17.3112 3.75 20.3438ZM36.75 9.1875C36.75 10.2213 37.5912 11.0625 38.625 11.0625C39.6588 11.0625 40.5 10.2213 40.5 9.1875C40.5 8.15369 39.6588 7.3125 38.625 7.3125C37.5912 7.3125 36.75 8.15369 36.75 9.1875ZM21.1875 6.5625C21.1875 8.1134 22.4491 9.375 24 9.375C25.5509 9.375 26.8125 8.1134 26.8125 6.5625C26.8125 5.0116 25.5509 3.75 24 3.75C22.4491 3.75 21.1875 5.0116 21.1875 6.5625ZM7.5 9.1875C7.5 10.2213 8.34119 11.0625 9.375 11.0625C10.4088 11.0625 11.25 10.2213 11.25 9.1875C11.25 8.15369 10.4088 7.3125 9.375 7.3125C8.34119 7.3125 7.5 8.15369 7.5 9.1875Z" fill="url(#paint0_linear_244_12641)"/>
</g>
<defs>
<linearGradient id="paint0_linear_244_12641" x1="-2.38692" y1="48.6154" x2="56.482" y2="-20.957" gradientUnits="userSpaceOnUse">
<stop stop-color="#C01E6C"/>
<stop offset="1" stop-color="#FF9A3C"/>
</linearGradient>
<clipPath id="clip0_244_12641">
<rect width="48" height="48" fill="white"/>
</clipPath>
</defs>
</svg>
