<svg width="24" height="24" viewBox="0 0 24 24" fill="none" xmlns="http://www.w3.org/2000/svg">
<g clip-path="url(#clip0_221_10791)">
<path d="M23.3081 9.00937C23.2359 9.02674 23.1734 9.07197 23.1345 9.13521C23.0955 9.19844 23.0831 9.27453 23.1 9.34687C23.305 10.217 23.4088 11.1079 23.4094 12.0019C23.4057 15.0267 22.2025 17.9266 20.0636 20.0655C17.9247 22.2044 15.0248 23.4076 12 23.4112C9.5156 23.42 7.09789 22.6079 5.12248 21.1012C5.38772 20.7058 5.49369 20.2247 5.41917 19.7543C5.34465 19.284 5.09514 18.8593 4.72064 18.5651C4.34614 18.271 3.87433 18.1293 3.39975 18.1684C2.92517 18.2075 2.4829 18.4245 2.16156 18.7759C1.84022 19.1273 1.66356 19.5872 1.66698 20.0633C1.6704 20.5395 1.85365 20.9968 2.18001 21.3436C2.50637 21.6903 2.95172 21.9009 3.42681 21.9332C3.9019 21.9654 4.37163 21.817 4.74186 21.5175C6.82178 23.1187 9.37512 23.9828 12 23.9737C13.8083 23.9718 15.5927 23.5607 17.2195 22.7712C18.8464 21.9817 20.2735 20.8343 21.394 19.415C22.5144 17.9957 23.2992 16.3412 23.6894 14.5755C24.0797 12.8098 24.0654 10.9787 23.6475 9.21937C23.6391 9.18324 23.6237 9.14912 23.602 9.11897C23.5804 9.08883 23.553 9.06327 23.5215 9.04375C23.49 9.02423 23.4549 9.01114 23.4182 9.00524C23.3816 8.99934 23.3442 9.00075 23.3081 9.00937Z" fill="white"/>
<path d="M0.590618 12.0019C0.590741 9.9724 1.13216 7.97969 2.15904 6.22919C3.18593 4.47868 4.66112 3.03375 6.43252 2.04335C8.20392 1.05296 10.2074 0.552946 12.2365 0.594872C14.2655 0.636799 16.2466 1.21915 17.9756 2.28187C17.7972 2.66367 17.7686 3.09857 17.8956 3.50043C18.0226 3.90229 18.2959 4.2418 18.6613 4.45172C19.0268 4.66164 19.4577 4.72665 19.8688 4.63388C20.2799 4.54112 20.6412 4.29734 20.8811 3.95083C21.121 3.60432 21.222 3.18035 21.1641 2.76289C21.1063 2.34544 20.8937 1.96495 20.5686 1.69678C20.2435 1.42861 19.8295 1.29232 19.4086 1.31491C18.9878 1.3375 18.5908 1.51732 18.2962 1.81875C16.4827 0.697626 14.4026 0.0811421 12.271 0.0330054C10.1395 -0.0151312 8.03371 0.506826 6.17138 1.54494C4.30906 2.58304 2.75773 4.09964 1.67773 5.93799C0.597733 7.77634 0.0282438 9.86975 0.028118 12.0019C0.0271097 12.7327 0.0936426 13.462 0.226868 14.1806C0.238303 14.2454 0.272218 14.304 0.322639 14.3462C0.373059 14.3884 0.436751 14.4114 0.502493 14.4112C0.519523 14.4112 0.5365 14.4093 0.553118 14.4056C0.626434 14.3924 0.691501 14.3506 0.734036 14.2894C0.776571 14.2283 0.7931 14.1527 0.779993 14.0794C0.653602 13.3941 0.590213 12.6987 0.590618 12.0019Z" fill="white"/>
<path d="M10.3125 10.1437V10.3125H13.6875V10.1437C13.6613 7.86375 10.3388 7.86375 10.3125 10.1437Z" fill="white"/>
<path d="M19.8656 6.1575C16.7006 6.18937 13.6556 4.23375 12.4912 3.39C12.3483 3.28671 12.1764 3.23111 12 3.23111C11.8236 3.23111 11.6517 3.28671 11.5087 3.39C10.3444 4.23375 7.29185 6.18187 4.13435 6.1575C4.02222 6.15638 3.91097 6.17746 3.80701 6.21952C3.70306 6.26158 3.60845 6.32378 3.52863 6.40255C3.44881 6.48133 3.38536 6.57511 3.34194 6.6785C3.29851 6.78189 3.27597 6.89285 3.2756 7.005C3.27748 11.3344 4.14373 17.5275 11.6194 21.3112C11.7372 21.3713 11.8677 21.4027 12 21.4027C12.1323 21.4027 12.2627 21.3713 12.3806 21.3112C19.8562 17.5275 20.7225 11.3344 20.7244 7.005C20.7227 6.77879 20.6313 6.5625 20.4703 6.40361C20.3093 6.24471 20.0918 6.1562 19.8656 6.1575ZM15.0937 14.7187C15.0937 15.0917 14.9456 15.4494 14.6818 15.7131C14.4181 15.9768 14.0604 16.125 13.6875 16.125H10.3125C9.93952 16.125 9.58183 15.9768 9.31811 15.7131C9.05439 15.4494 8.90623 15.0917 8.90623 14.7187V11.7187C8.90637 11.4452 8.98626 11.1777 9.13612 10.9489C9.28599 10.7201 9.49931 10.54 9.74998 10.4306V10.14C9.78373 7.13062 14.2162 7.13062 14.25 10.14V10.4306C14.5006 10.54 14.714 10.7201 14.8638 10.9489C15.0137 11.1777 15.0936 11.4452 15.0937 11.7187V14.7187Z" fill="white"/>
<path d="M12.4605 12.8959C12.4563 12.8707 12.4575 12.8449 12.464 12.8202C12.4704 12.7956 12.482 12.7725 12.498 12.7526C12.5608 12.6618 12.5976 12.5555 12.6043 12.4453C12.611 12.3351 12.5875 12.2251 12.5362 12.1273C12.4849 12.0295 12.4079 11.9476 12.3134 11.8905C12.2189 11.8333 12.1106 11.8031 12.0002 11.8031C11.8897 11.8031 11.7814 11.8333 11.6869 11.8905C11.5925 11.9476 11.5154 12.0295 11.4641 12.1273C11.4129 12.2251 11.3893 12.3351 11.3961 12.4453C11.4028 12.5555 11.4396 12.6618 11.5024 12.7526C11.5183 12.7723 11.5298 12.7951 11.5363 12.8196C11.5427 12.844 11.544 12.8696 11.5399 12.8946C11.4958 13.1141 11.3711 13.7419 11.2832 14.1776C11.2725 14.232 11.274 14.288 11.2875 14.3417C11.3011 14.3954 11.3263 14.4455 11.3615 14.4882C11.3967 14.531 11.441 14.5655 11.491 14.5891C11.5411 14.6128 11.5958 14.625 11.6512 14.625H12.3487C12.4042 14.625 12.459 14.6127 12.5092 14.589C12.5594 14.5653 12.6036 14.5307 12.6388 14.4878C12.674 14.4449 12.6993 14.3947 12.7127 14.3409C12.7262 14.2871 12.7275 14.2309 12.7166 14.1765L12.4605 12.8959Z" fill="white"/>
</g>
<defs>
<clipPath id="clip0_221_10791">
<rect width="24" height="24" fill="white"/>
</clipPath>
</defs>
</svg>
