<svg width="163" height="107" viewBox="0 0 163 107" fill="none" xmlns="http://www.w3.org/2000/svg">
<path d="M137.672 79.0646C134.634 82.1028 127.704 80.0976 122.193 74.5879C116.684 69.0775 114.679 62.1475 117.717 59.1097C120.755 56.0715 127.685 58.0763 133.194 63.5866C138.705 69.0967 140.71 76.0263 137.672 79.0646ZM134.345 63.4254C127.586 56.6661 119.163 54.1301 115.532 57.7604C111.901 61.3913 114.437 69.8145 121.197 76.5735C127.956 83.3335 136.379 85.8695 140.01 82.2385C143.641 78.6082 141.104 70.1854 134.345 63.4254Z" fill="#212C57"/>
<mask id="mask0_836_8250" style="mask-type:luminance" maskUnits="userSpaceOnUse" x="120" y="59" width="13" height="14">
<path d="M130.538 67.2339C129.562 66.2574 128.4 65.6927 127.404 65.6128L120.715 59.3199L125.548 66.353C124.78 67.4413 125.31 69.4166 126.832 70.9397C128.464 72.5714 130.616 73.0636 131.639 72.0412C132.663 71.0176 132.17 68.8653 130.538 67.2339Z" fill="white"/>
</mask>
<g mask="url(#mask0_836_8250)">
<path d="M130.538 67.2339C129.562 66.2574 128.4 65.6927 127.404 65.6128L120.715 59.3199L125.548 66.353C124.78 67.4413 125.31 69.4166 126.832 70.9397C128.464 72.5714 130.616 73.0636 131.639 72.0412C132.663 71.0176 132.17 68.8653 130.538 67.2339Z" fill="url(#paint0_linear_836_8250)"/>
</g>
<path d="M113.277 91.6897C113.277 91.4854 113.257 91.3189 113.216 91.1888C113.176 91.0589 113.108 90.9583 113.012 90.887C112.916 90.816 112.791 90.7664 112.64 90.738C112.488 90.7107 112.301 90.6968 112.079 90.6968H110.779V92.8129H112.079C112.301 92.8129 112.488 92.7994 112.64 92.7712C112.791 92.7429 112.916 92.6939 113.012 92.6222C113.108 92.5515 113.176 92.4509 113.216 92.3205C113.257 92.191 113.277 92.0237 113.277 91.8201V91.6897ZM110.779 93.8614V96.2566H109.555V89.6478H112.116C112.97 89.6478 113.582 89.804 113.954 90.117C114.325 90.4291 114.511 90.9072 114.511 91.5508V91.9594C114.511 92.6149 114.319 93.0962 113.935 93.4029C113.552 93.7087 112.945 93.8614 112.116 93.8614H110.779Z" fill="#212C57"/>
<path d="M120.115 89.6478L119.902 90.7154H116.673V92.3399H119.847L119.642 93.4076H116.673V95.1896H120.125L119.921 96.2566H115.438V89.6478H120.115Z" fill="#212C57"/>
<path d="M122.129 89.6478L125.294 94.2332V89.6478H126.52V96.2566H125.443L122.297 91.7083V96.2566H121.062V89.6478H122.129Z" fill="#212C57"/>
<path d="M135.325 89.6478L135.122 90.7154H133.015V96.2566H131.78V90.7154H129.516L129.72 89.6478H135.325Z" fill="#212C57"/>
<path d="M140.768 89.6478L140.554 90.7154H137.325V92.3399H140.499L140.295 93.4076H137.325V95.1896H140.777L140.573 96.2566H136.09V89.6478H140.768Z" fill="#212C57"/>
<path d="M144.636 92.4507C144.939 92.5069 145.196 92.5818 145.406 92.6776C145.616 92.7741 145.783 92.8963 145.908 93.0444C146.032 93.1934 146.121 93.3697 146.176 93.574C146.233 93.7782 146.26 94.0133 146.26 94.2796V94.4275C146.26 94.7437 146.218 95.0159 146.135 95.2444C146.051 95.4735 145.91 95.6649 145.712 95.8205C145.514 95.9748 145.253 96.0892 144.929 96.1631C144.603 96.2372 144.2 96.2749 143.717 96.2749C143.482 96.2749 143.183 96.2749 142.821 96.2749C142.459 96.2749 141.985 96.2683 141.396 96.2564L141.591 95.2073C141.839 95.2136 142.06 95.2186 142.255 95.2217C142.45 95.2243 142.632 95.2258 142.803 95.2258C142.973 95.2258 143.132 95.2258 143.281 95.2258C143.429 95.2258 143.581 95.2258 143.735 95.2258C143.996 95.2258 144.207 95.2136 144.371 95.1894C144.535 95.1639 144.665 95.1211 144.761 95.0583C144.857 94.9973 144.922 94.9153 144.956 94.8128C144.99 94.7107 145.007 94.5797 145.007 94.4178C145.007 94.2827 144.998 94.166 144.979 94.0705C144.961 93.9746 144.922 93.8942 144.863 93.8288C144.804 93.7638 144.721 93.7123 144.612 93.6714C144.504 93.6312 144.361 93.5957 144.181 93.5642L143.059 93.3791C142.723 93.3228 142.45 93.2455 142.236 93.1468C142.023 93.0478 141.854 92.9256 141.73 92.7798C141.607 92.6349 141.522 92.4636 141.476 92.2656C141.429 92.0679 141.406 91.841 141.406 91.5874V91.4208C141.406 91.1417 141.45 90.8915 141.536 90.6687C141.623 90.4459 141.762 90.2592 141.953 90.1071C142.146 89.9559 142.397 89.8383 142.71 89.7547C143.023 89.6708 143.407 89.6291 143.865 89.6291C144.039 89.6291 144.2 89.6291 144.348 89.6291C144.497 89.6291 144.654 89.6291 144.822 89.6291C144.989 89.6291 145.171 89.6306 145.369 89.6341C145.567 89.6372 145.799 89.6419 146.065 89.6476L145.871 90.6966C145.406 90.6847 145.015 90.6785 144.697 90.6785C144.377 90.6785 144.079 90.6785 143.801 90.6785C143.565 90.6785 143.373 90.6913 143.225 90.7152C143.076 90.7395 142.959 90.7822 142.872 90.84C142.786 90.8988 142.725 90.9782 142.691 91.0773C142.657 91.1763 142.64 91.3001 142.64 91.4481C142.64 91.5779 142.65 91.6863 142.669 91.7734C142.687 91.8601 142.723 91.9343 142.78 91.9963C142.835 92.0581 142.916 92.1088 143.021 92.149C143.126 92.1892 143.262 92.2222 143.429 92.2464L144.636 92.4507Z" fill="#212C57"/>
<path d="M152.495 89.6478L152.292 90.7154H150.185V96.2566H148.95V90.7154H146.686L146.89 89.6478H152.495Z" fill="#212C57"/>
<path d="M98.2871 51.3574V107" stroke="#766F96" stroke-width="0.432742" stroke-miterlimit="10"/>
<path d="M161.863 51.3574V107" stroke="#766F96" stroke-width="0.432742" stroke-miterlimit="10"/>
<mask id="mask1_836_8250" style="mask-type:luminance" maskUnits="userSpaceOnUse" x="0" y="0" width="79" height="78">
<path d="M77.9885 61.4745C77.9314 60.9647 77.859 60.4468 77.7721 59.9213C77.5975 58.87 77.3642 57.7889 77.0737 56.6813C76.9281 56.1277 76.768 55.5678 76.5934 55.0013C76.4196 54.4349 76.2313 53.8629 76.0294 53.2852C75.5233 51.8418 74.9303 50.3638 74.2521 48.8609C73.9817 48.259 73.6969 47.654 73.3992 47.0449C72.3927 44.9876 71.2325 42.8893 69.9299 40.7717C69.551 40.1546 69.1591 39.5367 68.7561 38.9172C67.8799 37.5719 66.9483 36.221 65.9609 34.8702C65.7035 34.5186 65.4414 34.1662 65.1764 33.8146C64.9659 33.5346 64.7537 33.2546 64.5384 32.9746C64.3153 32.6849 64.089 32.3953 63.8611 32.1057C63.5922 31.7645 63.3206 31.4226 63.0453 31.0822C62.5358 30.4515 62.0147 29.8231 61.4823 29.1955C61.2161 28.8817 60.9471 28.568 60.6753 28.2558C59.0438 26.3779 57.3111 24.5177 55.482 22.6889C55.4807 22.6873 55.4794 22.6865 55.4782 22.6849C55.0828 22.2899 54.6859 21.9013 54.288 21.5143C54.183 21.4129 54.0781 21.3115 53.9728 21.2101C53.6139 20.865 53.254 20.5222 52.8932 20.1843C52.8485 20.1425 52.804 20.0998 52.7593 20.058C52.3599 19.6855 51.9592 19.3178 51.5575 18.9541C51.4537 18.8608 51.3497 18.7675 51.2457 18.6741C50.9037 18.3668 50.5612 18.0619 50.218 17.7618C50.1458 17.699 50.0741 17.6346 50.0017 17.5719C49.5994 17.2211 49.1963 16.8759 48.7924 16.5348C48.6946 16.4527 48.597 16.3715 48.4995 16.2894C48.1616 16.0062 47.8238 15.7262 47.4853 15.4502C47.3976 15.3786 47.3102 15.3062 47.2225 15.2354C46.8284 14.9152 46.434 14.6006 46.039 14.29C44.3685 15.2362 42.6858 16.2894 41.0044 17.4415C41.0129 17.448 41.9526 18.1496 42.2666 18.3901C42.2968 18.4135 42.3269 18.436 42.3571 18.4593C42.6931 18.7176 43.029 18.9815 43.3653 19.247C43.459 19.3218 43.5526 19.3958 43.6463 19.4707C43.9709 19.7305 44.2953 19.992 44.6196 20.2583C44.6394 20.2744 44.6589 20.2905 44.6787 20.3066C45.0185 20.5858 45.3576 20.8706 45.6967 21.1578C45.7875 21.2351 45.8783 21.3123 45.9691 21.3896C46.3013 21.6736 46.6329 21.9592 46.9642 22.2505C46.9755 22.2601 46.9868 22.2698 46.9984 22.2802C47.3395 22.5795 47.6795 22.8845 48.0193 23.1918C48.1063 23.2707 48.1934 23.3503 48.2804 23.4292C48.6173 23.7365 48.9539 24.0455 49.2893 24.36C49.2943 24.3649 49.2993 24.3697 49.3047 24.3745C49.6441 24.6931 49.9829 25.0174 50.3207 25.3432C50.4056 25.4245 50.4899 25.5066 50.5744 25.5886C50.9132 25.9177 51.2514 26.2492 51.5879 26.5863C52.5956 27.5936 53.5702 28.6114 54.5096 29.6348C54.9795 30.1465 55.4405 30.6598 55.8927 31.174C56.571 31.9455 57.2291 32.7195 57.8667 33.4943C58.292 34.0109 58.7081 34.5282 59.1148 35.0448C59.3181 35.3038 59.519 35.5621 59.7176 35.8204C60.0552 36.2597 60.3842 36.6982 60.7076 37.1366C60.7651 37.2147 60.8242 37.2927 60.8811 37.3708C61.2444 37.8664 61.5986 38.3612 61.944 38.8552C61.9581 38.8761 61.9729 38.8962 61.987 38.9164C62.3459 39.4305 62.6951 39.9438 63.0343 40.4555C63.3734 40.9672 63.7028 41.4773 64.0217 41.9858C64.4372 42.648 64.8338 43.3053 65.2147 43.9594C65.4188 44.3102 65.6196 44.6602 65.8138 45.0086C65.9728 45.2942 66.1278 45.579 66.2802 45.863C66.9254 47.065 67.509 48.2494 68.0271 49.4088C68.9878 51.5594 69.7256 53.6255 70.2236 55.5694C70.5012 56.6499 70.7039 57.6915 70.831 58.6884C70.8817 59.0872 70.9195 59.4788 70.9461 59.8629C70.9718 60.2469 70.9855 60.6234 70.9863 60.9918C70.9879 61.5446 70.9606 62.0789 70.9051 62.594C70.8487 63.1092 70.7643 63.6045 70.65 64.079C70.5736 64.3952 70.4843 64.7022 70.3813 64.9993C69.9701 66.1879 69.3466 67.2203 68.4986 68.0682C68.3924 68.1745 68.2838 68.2766 68.1727 68.375C68.1253 68.4174 68.0754 68.4561 68.0271 68.4972C67.9619 68.5519 67.8976 68.6082 67.83 68.6607C67.76 68.716 67.6876 68.7666 67.616 68.8197C67.5677 68.8546 67.521 68.8914 67.472 68.9259C67.3891 68.9831 67.303 69.0372 67.2185 69.0919C67.1775 69.1176 67.1382 69.145 67.0967 69.1707C67.0068 69.2254 66.9141 69.277 66.8217 69.3282C66.7831 69.3499 66.7453 69.3735 66.7061 69.3951C66.6111 69.4457 66.5134 69.4932 66.416 69.5407C66.3767 69.5593 66.339 69.5803 66.2997 69.5988C66.1998 69.6453 66.0969 69.6887 65.9945 69.7324C65.9553 69.7484 65.9175 69.767 65.8779 69.783C65.7777 69.8232 65.6749 69.8603 65.5724 69.898C65.5284 69.9141 65.4854 69.9316 65.4407 69.9471C65.3405 69.9817 65.2374 70.013 65.1349 70.0451C65.0862 70.0605 65.0384 70.0765 64.9894 70.091C64.8901 70.1199 64.7886 70.1457 64.6874 70.1724C64.6324 70.1868 64.5783 70.2023 64.523 70.2158C64.4278 70.239 64.3303 70.2592 64.2336 70.2793C64.1698 70.2931 64.1069 70.3081 64.0421 70.321C63.9488 70.3396 63.8536 70.354 63.7587 70.3704C63.6886 70.3823 63.6194 70.3958 63.5485 70.4065C63.458 70.4201 63.3652 70.4308 63.2735 70.4427C63.1958 70.4524 63.1191 70.4644 63.0402 70.4725C62.9522 70.4819 62.8623 70.4892 62.7731 70.4974C62.6889 70.5046 62.6053 70.5134 62.5201 70.52C62.4327 70.5256 62.3438 70.5288 62.2551 70.5335C62.1659 70.5385 62.0772 70.5442 61.987 70.5473C61.9003 70.5505 61.8117 70.5505 61.7237 70.552C61.637 70.5536 61.5508 70.5561 61.4632 70.5561C61.4575 70.5561 61.4518 70.5561 61.4465 70.5561C61.2029 70.5561 60.9546 70.548 60.7041 70.5376C60.6416 70.5345 60.5787 70.5313 60.5155 70.5272C60.2836 70.5144 60.0495 70.4983 59.8119 70.4757C59.7864 70.4732 59.7613 70.4725 59.7355 70.47C59.4768 70.4443 59.2141 70.4128 58.9489 70.3767C58.8819 70.3678 58.8147 70.3581 58.7474 70.3484C58.5016 70.3132 58.2537 70.2736 58.0026 70.2296C57.9765 70.2246 57.9507 70.2214 57.9246 70.2167C57.6518 70.1667 57.3752 70.1111 57.0964 70.0508C57.026 70.0363 56.9553 70.0203 56.8846 70.0049C56.6269 69.9471 56.3677 69.8858 56.1055 69.8201C56.0772 69.8129 56.0495 69.8063 56.0213 69.799C55.7369 69.7268 55.449 69.6469 55.1595 69.5639C55.0841 69.5432 55.009 69.5206 54.9332 69.4989C54.6642 69.4193 54.3936 69.3374 54.1205 69.2493C54.0925 69.2399 54.0648 69.2317 54.0369 69.2229C53.7415 69.127 53.4429 69.0249 53.1428 68.9196C53.0639 68.8914 52.9847 68.8634 52.9054 68.8345C52.6273 68.7346 52.3476 68.6314 52.0657 68.523C52.0365 68.5117 52.0072 68.5013 51.978 68.49C51.6731 68.3719 51.3658 68.2477 51.0569 68.1198C50.9741 68.0862 50.8912 68.0507 50.8082 68.0161C50.5229 67.8964 50.2365 67.7731 49.948 67.6452C49.9166 67.6314 49.8852 67.6179 49.8535 67.6041C49.5407 67.4641 49.2258 67.3187 48.9096 67.1697C48.8238 67.1294 48.7378 67.0883 48.6516 67.0465C48.359 66.9073 48.0651 66.7643 47.7697 66.6162C47.738 66.5999 47.7062 66.5855 47.6742 66.5694C47.3542 66.4085 46.3384 65.8749 46.2847 65.8462C44.5794 67.1527 42.858 68.3838 41.1301 69.5344C41.4727 69.7449 42.3574 70.2752 42.4574 70.3339C42.8332 70.5561 43.2082 70.7733 43.5821 70.9858C43.6174 71.0049 43.6522 71.026 43.6871 71.0451C44.0926 71.2746 44.4968 71.4968 44.8999 71.7146C44.9967 71.7677 45.0936 71.8192 45.1904 71.8708C45.5389 72.0574 45.8868 72.2401 46.2335 72.418C46.2957 72.45 46.3579 72.483 46.4202 72.5144C46.818 72.7172 47.2144 72.9142 47.6094 73.106C47.6996 73.1493 47.7892 73.1917 47.8788 73.2345C48.2129 73.3954 48.5457 73.5516 48.8773 73.7037C48.9543 73.7389 49.0316 73.775 49.1086 73.81C49.4992 73.9869 49.888 74.1582 50.2752 74.3247C50.3537 74.3577 50.4317 74.3898 50.5103 74.4237C50.8362 74.5614 51.1606 74.695 51.4836 74.8244C51.571 74.8596 51.658 74.8952 51.7451 74.9298C52.1267 75.0803 52.5063 75.2258 52.8838 75.365C52.9469 75.3883 53.0098 75.4109 53.0729 75.4335C53.397 75.5517 53.7194 75.6651 54.0404 75.7746C54.1324 75.8059 54.2248 75.838 54.3169 75.8688C54.689 75.9932 55.0596 76.1133 55.427 76.2259C55.4653 76.2372 55.5033 76.2485 55.5417 76.2598C55.8749 76.361 56.2061 76.4559 56.5352 76.5477C56.6269 76.5728 56.7193 76.5986 56.8107 76.6234C57.5352 76.8179 58.2483 76.9896 58.9495 77.1351C59.0403 77.1546 59.1308 77.1727 59.2213 77.1907C59.5375 77.2542 59.8515 77.313 60.1623 77.3661C60.1972 77.3717 60.2327 77.379 60.2673 77.3846C60.6077 77.4415 60.9439 77.4909 61.2777 77.5348C61.3626 77.5462 61.4471 77.5569 61.532 77.5672C61.8154 77.6018 62.0968 77.6332 62.3752 77.659C62.4321 77.6647 62.4896 77.6709 62.5462 77.6756C62.8689 77.7039 63.1876 77.725 63.5035 77.7401C63.5811 77.7442 63.6581 77.7467 63.7351 77.7498C63.9969 77.7602 64.2562 77.7659 64.513 77.7674C64.5846 77.7684 64.6569 77.7699 64.7283 77.769C64.8775 77.769 65.0246 77.7652 65.172 77.7618C65.2694 77.7595 65.3678 77.7586 65.4646 77.7545C65.6255 77.7489 65.7843 77.7385 65.9429 77.7288C66.0234 77.724 66.1055 77.7209 66.1853 77.7153C66.4219 77.6973 66.6564 77.6756 66.8877 77.6499C66.911 77.6477 66.9333 77.6436 66.9566 77.6411C67.1646 77.6169 67.3706 77.5895 67.5741 77.5584C67.657 77.5462 67.7375 77.5301 67.8195 77.5163C67.9619 77.4931 68.1043 77.4688 68.2443 77.4415C68.3385 77.4239 68.4294 77.4022 68.5219 77.3831C68.6474 77.3557 68.7738 77.329 68.8977 77.2991C68.9934 77.2768 69.0875 77.251 69.1833 77.2259C69.3008 77.1954 69.4182 77.164 69.5341 77.131C69.6298 77.103 69.7232 77.0741 69.8173 77.0443C69.9299 77.0087 70.0426 76.9735 70.1528 76.9355C70.2469 76.9041 70.3394 76.8705 70.4312 76.8365C70.5398 76.7972 70.6468 76.7569 70.753 76.7142C70.8447 76.6791 70.9348 76.641 71.0249 76.6033C71.1295 76.559 71.2333 76.5131 71.3355 76.4666C71.424 76.4263 71.5109 76.3852 71.5978 76.3434C71.6992 76.2943 71.7997 76.2428 71.9003 76.1906C71.984 76.1469 72.0677 76.103 72.1505 76.0577C72.2503 76.0024 72.3485 75.9442 72.4466 75.8864C72.5255 75.8396 72.6051 75.7931 72.6832 75.7446C72.7813 75.6828 72.8779 75.6177 72.9744 75.5533C73.0484 75.5042 73.1225 75.4559 73.1949 75.4043C73.2946 75.3346 73.3912 75.2604 73.4885 75.1872C73.5545 75.1375 73.6213 75.0891 73.6857 75.0375C73.7919 74.953 73.8957 74.8647 73.9986 74.7755C74.0509 74.7311 74.104 74.6893 74.1547 74.6434C74.3076 74.5074 74.4572 74.3675 74.6029 74.2217C75.162 73.6619 75.6528 73.0478 76.0768 72.3824C76.5017 71.7171 76.8589 71.0002 77.1509 70.2374C77.3698 69.6655 77.5524 69.0677 77.6989 68.4448C77.8944 67.6148 78.0255 66.7407 78.0947 65.8286C78.1977 64.4603 78.1607 63.0038 77.9885 61.4745ZM37.5602 60.2733C35.8577 61.4394 34.1536 62.5051 32.4618 63.4589C32.0837 63.161 31.7059 62.8599 31.3285 62.5534C31.2417 62.4834 31.1553 62.412 31.0689 62.3414C30.7294 62.0641 30.3903 61.7835 30.0516 61.4994C29.9544 61.418 29.857 61.3369 29.7599 61.2549C29.3557 60.9132 28.9521 60.5678 28.5493 60.2171C28.4786 60.1555 28.4078 60.0923 28.3368 60.0301C27.992 59.7284 27.6479 59.4225 27.304 59.1139C27.2016 59.0219 27.0988 58.9294 26.9964 58.8367C26.5938 58.4725 26.1921 58.1042 25.7917 57.7304C25.7483 57.6899 25.7053 57.6487 25.6619 57.6082C25.2995 57.2688 24.9384 56.9243 24.5779 56.5783C24.4736 56.4777 24.3695 56.3772 24.2653 56.2758C23.8658 55.8888 23.467 55.4978 23.07 55.1011C19.9928 52.0236 17.1887 48.8576 14.682 45.6731C14.2342 45.1035 13.7955 44.5339 13.3668 43.9634C12.1001 42.2795 10.921 40.5971 9.82723 38.9196L9.82506 38.9172C9.42092 38.2976 9.02869 37.6789 8.64869 37.0626C0.00107962 23.0212 -2.31673 9.83431 3.94919 3.56831C4.09466 3.42268 4.24431 3.28268 4.39702 3.1459C4.44859 3.10004 4.50234 3.05741 4.55447 3.01235C4.65754 2.92466 4.76036 2.83616 4.86624 2.75248C4.93133 2.70099 4.99859 2.65191 5.06457 2.60203C5.16136 2.52881 5.25783 2.45478 5.35719 2.38479C5.42944 2.3341 5.50395 2.28502 5.57748 2.23594C5.67395 2.17158 5.77042 2.10721 5.86914 2.04526C5.9471 1.99618 6.0266 1.94952 6.10576 1.90285C6.20352 1.84492 6.30192 1.7878 6.40153 1.73228C6.48424 1.68642 6.56815 1.64297 6.65199 1.59872C6.752 1.54723 6.85257 1.49574 6.95435 1.44666C7.04084 1.40401 7.12846 1.36298 7.21648 1.32275C7.31898 1.27609 7.42269 1.23103 7.52696 1.18678C7.61691 1.14816 7.70743 1.11115 7.7985 1.07494C7.90479 1.0331 8.01228 0.992081 8.12033 0.952652C8.2131 0.918861 8.30546 0.885864 8.39944 0.853683C8.50974 0.815872 8.62166 0.780472 8.73357 0.745872C8.82811 0.716103 8.92241 0.68634 9.01831 0.658981C9.13393 0.625191 9.2518 0.594612 9.36935 0.564041C9.46397 0.539101 9.55794 0.513359 9.65409 0.490028C9.77791 0.460258 9.9039 0.433701 10.0297 0.40715C10.1223 0.387039 10.2141 0.366119 10.3078 0.347618C10.4464 0.320259 10.5878 0.296921 10.7289 0.27359C10.8123 0.259911 10.8939 0.24382 10.9778 0.230949C11.178 0.200371 11.3805 0.17382 11.5847 0.15049C11.6118 0.14727 11.6378 0.142441 11.6645 0.139221C11.8959 0.11348 12.13 0.0925674 12.3667 0.0748672C12.4465 0.068428 12.5283 0.0660095 12.6087 0.060379C12.7674 0.0507202 12.9264 0.041069 13.0874 0.0346375C13.1838 0.0314178 13.2825 0.0306091 13.38 0.0281906C13.5274 0.0241699 13.6744 0.0209503 13.8237 0.0201492C13.8951 0.0201492 13.9673 0.021759 14.0393 0.021759C14.2957 0.0233688 14.5551 0.029808 14.8169 0.0402603C14.8942 0.0426788 14.9709 0.0458908 15.0485 0.0491104C15.364 0.0643997 15.6831 0.0861282 16.0058 0.11348C16.0623 0.119118 16.1202 0.125549 16.1771 0.130379C16.4552 0.156929 16.7362 0.1875 17.0194 0.222099C17.1046 0.23336 17.1894 0.24382 17.2752 0.255089C17.6086 0.299339 17.9446 0.348419 18.2844 0.404739C18.3196 0.41037 18.3551 0.41761 18.3903 0.424049C18.7011 0.476341 19.0148 0.535881 19.3307 0.59864C19.4212 0.617149 19.5117 0.635651 19.6028 0.654152C20.3033 0.799782 21.0162 0.971153 21.7396 1.16586C21.8323 1.1908 21.9254 1.21655 22.0187 1.2423C22.3459 1.33321 22.6753 1.42815 23.0068 1.52872C23.0464 1.54079 23.086 1.55206 23.1259 1.56413C23.493 1.67677 23.863 1.79665 24.2348 1.92055C24.3271 1.95193 24.4198 1.98331 24.5123 2.01549C24.8325 2.12411 25.1543 2.23755 25.4781 2.35582C25.5419 2.37916 25.605 2.40088 25.6688 2.42421C26.0456 2.5634 26.4247 2.70903 26.8056 2.85948C26.8936 2.89408 26.9819 2.93028 27.0699 2.96568C27.3924 3.09522 27.7157 3.22798 28.041 3.36556C28.1196 3.39935 28.1982 3.43153 28.2774 3.46533C28.6637 3.63107 29.0521 3.80244 29.4418 3.97945C29.5201 4.01485 29.599 4.05106 29.6772 4.08727C30.0079 4.23933 30.3398 4.3946 30.6725 4.55471C30.7627 4.59735 30.8524 4.64 30.9426 4.68425C31.3373 4.87573 31.7333 5.07206 32.1305 5.27481C32.1943 5.30699 32.2581 5.34078 32.3219 5.37377C32.6673 5.55077 33.0137 5.73261 33.3606 5.91846C33.4581 5.97076 33.5552 6.02225 33.6526 6.07536C34.0552 6.29259 34.4591 6.51466 34.8639 6.74315C34.9003 6.76407 34.9371 6.78579 34.9735 6.80671C35.3457 7.0175 35.7184 7.23313 36.0921 7.45358C36.1939 7.51393 37.0881 8.04977 37.4341 8.26299C35.7269 9.40146 34.0266 10.6196 32.3417 11.9109C32.1834 11.8256 31.27 11.3469 30.9736 11.1973C30.9027 11.1619 30.8319 11.1273 30.7612 11.0919C30.5009 10.9623 30.2417 10.8352 29.9837 10.7121C29.8777 10.6614 29.7722 10.6107 29.6662 10.5608C29.3714 10.4225 29.0772 10.2865 28.7853 10.1561C28.7174 10.1256 28.6504 10.0966 28.5832 10.0668C28.3302 9.9558 28.0788 9.84719 27.828 9.74179C27.7249 9.69834 27.6218 9.65489 27.519 9.61224C27.2267 9.49236 26.9354 9.37409 26.6466 9.26226C26.5865 9.23893 26.5272 9.21721 26.4671 9.19468C26.2192 9.09974 25.9727 9.00802 25.7276 8.91951C25.6305 8.88492 25.5333 8.85033 25.4366 8.81573C25.1503 8.71516 24.8655 8.6178 24.5833 8.52688C24.5292 8.50918 24.4758 8.4931 24.4218 8.4754C24.1779 8.39816 23.9359 8.32413 23.6955 8.25253C23.6049 8.22598 23.5144 8.19943 23.4242 8.17368C23.1457 8.09403 22.8685 8.01759 22.5948 7.94759C22.5473 7.93552 22.5005 7.92506 22.453 7.91299C22.2133 7.85265 21.9757 7.79633 21.7396 7.74403C21.6567 7.72553 21.5737 7.70703 21.4913 7.68933C21.2211 7.6314 20.953 7.57749 20.6884 7.52922C20.6484 7.52198 20.6088 7.51635 20.5689 7.50911C20.3329 7.46807 20.0997 7.43026 19.8684 7.39727C19.7942 7.38681 19.72 7.37554 19.6465 7.36589C19.3856 7.33129 19.1273 7.29991 18.873 7.27497C18.8407 7.27175 18.8089 7.26934 18.7769 7.26693C18.5456 7.24521 18.3174 7.22912 18.0914 7.21705C18.0266 7.21302 17.9619 7.20981 17.8978 7.20659C17.6477 7.19532 17.4003 7.18808 17.157 7.18808C17.1516 7.18808 17.146 7.18728 17.1407 7.18728C17.0578 7.18728 16.9767 7.19049 16.8946 7.1921C16.8013 7.1929 16.7073 7.19371 16.6152 7.19693C16.5353 7.19935 16.4577 7.20497 16.3789 7.20899C16.2792 7.21382 16.179 7.21785 16.0809 7.22509C16.0124 7.22992 15.9454 7.23716 15.8776 7.24279C15.7713 7.25244 15.6645 7.26049 15.5598 7.27175C15.5011 7.27819 15.4442 7.28704 15.386 7.29428C15.2742 7.30796 15.1619 7.32164 15.052 7.33854C15.0026 7.34578 14.9548 7.35543 14.9058 7.36347C14.7892 7.38278 14.6723 7.40129 14.5582 7.42382C14.5164 7.43186 14.4762 7.44151 14.4347 7.45036C14.315 7.4753 14.1952 7.50026 14.0779 7.52922C14.0428 7.53727 14.0092 7.54772 13.9739 7.55657C13.8523 7.58714 13.731 7.61852 13.6122 7.65392C13.5823 7.66197 13.5534 7.67242 13.5236 7.68208C13.4013 7.71909 13.28 7.7561 13.1609 7.79794C13.1355 7.80679 13.1112 7.81644 13.0857 7.8261C12.9639 7.86955 12.8428 7.9138 12.724 7.96208C12.7036 7.97093 12.6841 7.97977 12.6637 7.98862C12.5418 8.03931 12.4211 8.09081 12.3029 8.14552C12.2818 8.15598 12.2617 8.16724 12.2406 8.1777C12.1244 8.23241 12.0093 8.28954 11.8968 8.34988C11.8749 8.36195 11.8541 8.37482 11.8324 8.38689C11.7221 8.44723 11.6131 8.50919 11.5065 8.57436C11.4782 8.59126 11.4512 8.61056 11.4229 8.62826C11.3249 8.69021 11.2268 8.75216 11.1318 8.81814C11.0935 8.84549 11.057 8.87446 11.019 8.90182C10.9363 8.96135 10.8534 9.02009 10.7736 9.08284C10.7135 9.13031 10.656 9.181 10.5976 9.23007C10.5419 9.27674 10.4854 9.321 10.431 9.36847C10.3455 9.4449 10.2628 9.52455 10.1805 9.60501C10.156 9.62914 10.1299 9.65167 10.1054 9.67581C8.62102 11.1602 7.82401 13.2079 7.65271 15.6715C7.62818 16.0231 7.61691 16.3843 7.61748 16.752C7.61876 17.1205 7.63196 17.497 7.65803 17.8808C7.74886 19.2253 7.99216 20.663 8.37997 22.174C8.49059 22.6061 8.61313 23.0446 8.74733 23.4879C8.88154 23.9312 9.02773 24.381 9.18486 24.8355C9.89264 26.8808 10.8326 29.0314 11.988 31.2488C12.1024 31.4684 12.2199 31.6881 12.3384 31.9093C12.4861 32.1837 12.636 32.4597 12.7903 32.7356C12.989 33.0929 13.1955 33.4509 13.4048 33.8113C14.3719 35.4704 15.4501 37.1568 16.6362 38.8552C17.036 39.4281 17.449 40.0009 17.8724 40.5754C20.4881 44.1219 23.5543 47.6966 27.0162 51.1579C27.3528 51.495 27.691 51.8265 28.0298 52.1556C28.1139 52.2376 28.1982 52.3189 28.2827 52.401C28.6212 52.7276 28.96 53.0511 29.3001 53.3705C29.3036 53.3737 29.3073 53.3769 29.3107 53.3801C29.6483 53.6963 29.9868 54.0077 30.3256 54.3166C30.4114 54.3947 30.4969 54.4727 30.583 54.5508C30.9237 54.8589 31.265 55.1647 31.6072 55.4656C31.6151 55.4728 31.6233 55.4793 31.6311 55.4865C31.9671 55.7818 32.3034 56.0714 32.64 56.3587C32.727 56.4335 32.8141 56.5075 32.9015 56.5815C33.2434 56.8712 33.586 57.1588 33.9286 57.4406C33.9414 57.4513 33.9543 57.4614 33.9675 57.4721C34.2994 57.7453 34.6319 58.0133 34.9641 58.2785C35.0534 58.3496 35.1423 58.4203 35.2312 58.4907C35.5729 58.7616 35.9149 59.0297 36.2565 59.2921C36.2732 59.305 36.2898 59.3176 36.3068 59.3305C36.6349 59.5823 37.4705 60.207 37.5602 60.2733Z" fill="white"/>
</mask>
<g mask="url(#mask1_836_8250)">
<path d="M77.9885 61.4745C77.9314 60.9647 77.859 60.4468 77.7721 59.9213C77.5975 58.87 77.3642 57.7889 77.0737 56.6813C76.9281 56.1277 76.768 55.5678 76.5934 55.0013C76.4196 54.4349 76.2313 53.8629 76.0294 53.2852C75.5233 51.8418 74.9303 50.3638 74.2521 48.8609C73.9817 48.259 73.6969 47.654 73.3992 47.0449C72.3927 44.9876 71.2325 42.8893 69.9299 40.7717C69.551 40.1546 69.1591 39.5367 68.7561 38.9172C67.8799 37.5719 66.9483 36.221 65.9609 34.8702C65.7035 34.5186 65.4414 34.1662 65.1764 33.8146C64.9659 33.5346 64.7537 33.2546 64.5384 32.9746C64.3153 32.6849 64.089 32.3953 63.8611 32.1057C63.5922 31.7645 63.3206 31.4226 63.0453 31.0822C62.5358 30.4515 62.0147 29.8231 61.4823 29.1955C61.2161 28.8817 60.9471 28.568 60.6753 28.2558C59.0438 26.3779 57.3111 24.5177 55.482 22.6889C55.4807 22.6873 55.4794 22.6865 55.4782 22.6849C55.0828 22.2899 54.6859 21.9013 54.288 21.5143C54.183 21.4129 54.0781 21.3115 53.9728 21.2101C53.6139 20.865 53.254 20.5222 52.8932 20.1843C52.8485 20.1425 52.804 20.0998 52.7593 20.058C52.3599 19.6855 51.9592 19.3178 51.5575 18.9541C51.4537 18.8608 51.3497 18.7675 51.2457 18.6741C50.9037 18.3668 50.5612 18.0619 50.218 17.7618C50.1458 17.699 50.0741 17.6346 50.0017 17.5719C49.5994 17.2211 49.1963 16.8759 48.7924 16.5348C48.6946 16.4527 48.597 16.3715 48.4995 16.2894C48.1616 16.0062 47.8238 15.7262 47.4853 15.4502C47.3976 15.3786 47.3102 15.3062 47.2225 15.2354C46.8284 14.9152 46.434 14.6006 46.039 14.29C44.3685 15.2362 42.6858 16.2894 41.0044 17.4415C41.0129 17.448 41.9526 18.1496 42.2666 18.3901C42.2968 18.4135 42.3269 18.436 42.3571 18.4593C42.6931 18.7176 43.029 18.9815 43.3653 19.247C43.459 19.3218 43.5526 19.3958 43.6463 19.4707C43.9709 19.7305 44.2953 19.992 44.6196 20.2583C44.6394 20.2744 44.6589 20.2905 44.6787 20.3066C45.0185 20.5858 45.3576 20.8706 45.6967 21.1578C45.7875 21.2351 45.8783 21.3123 45.9691 21.3896C46.3013 21.6736 46.6329 21.9592 46.9642 22.2505C46.9755 22.2601 46.9868 22.2698 46.9984 22.2802C47.3395 22.5795 47.6795 22.8845 48.0193 23.1918C48.1063 23.2707 48.1934 23.3503 48.2804 23.4292C48.6173 23.7365 48.9539 24.0455 49.2893 24.36C49.2943 24.3649 49.2993 24.3697 49.3047 24.3745C49.6441 24.6931 49.9829 25.0174 50.3207 25.3432C50.4056 25.4245 50.4899 25.5066 50.5744 25.5886C50.9132 25.9177 51.2514 26.2492 51.5879 26.5863C52.5956 27.5936 53.5702 28.6114 54.5096 29.6348C54.9795 30.1465 55.4405 30.6598 55.8927 31.174C56.571 31.9455 57.2291 32.7195 57.8667 33.4943C58.292 34.0109 58.7081 34.5282 59.1148 35.0448C59.3181 35.3038 59.519 35.5621 59.7176 35.8204C60.0552 36.2597 60.3842 36.6982 60.7076 37.1366C60.7651 37.2147 60.8242 37.2927 60.8811 37.3708C61.2444 37.8664 61.5986 38.3612 61.944 38.8552C61.9581 38.8761 61.9729 38.8962 61.987 38.9164C62.3459 39.4305 62.6951 39.9438 63.0343 40.4555C63.3734 40.9672 63.7028 41.4773 64.0217 41.9858C64.4372 42.648 64.8338 43.3053 65.2147 43.9594C65.4188 44.3102 65.6196 44.6602 65.8138 45.0086C65.9728 45.2942 66.1278 45.579 66.2802 45.863C66.9254 47.065 67.509 48.2494 68.0271 49.4088C68.9878 51.5594 69.7256 53.6255 70.2236 55.5694C70.5012 56.6499 70.7039 57.6915 70.831 58.6884C70.8817 59.0872 70.9195 59.4788 70.9461 59.8629C70.9718 60.2469 70.9855 60.6234 70.9863 60.9918C70.9879 61.5446 70.9606 62.0789 70.9051 62.594C70.8487 63.1092 70.7643 63.6045 70.65 64.079C70.5736 64.3952 70.4843 64.7022 70.3813 64.9993C69.9701 66.1879 69.3466 67.2203 68.4986 68.0682C68.3924 68.1745 68.2838 68.2766 68.1727 68.375C68.1253 68.4174 68.0754 68.4561 68.0271 68.4972C67.9619 68.5519 67.8976 68.6082 67.83 68.6607C67.76 68.716 67.6876 68.7666 67.616 68.8197C67.5677 68.8546 67.521 68.8914 67.472 68.9259C67.3891 68.9831 67.303 69.0372 67.2185 69.0919C67.1775 69.1176 67.1382 69.145 67.0967 69.1707C67.0068 69.2254 66.9141 69.277 66.8217 69.3282C66.7831 69.3499 66.7453 69.3735 66.7061 69.3951C66.6111 69.4457 66.5134 69.4932 66.416 69.5407C66.3767 69.5593 66.339 69.5803 66.2997 69.5988C66.1998 69.6453 66.0969 69.6887 65.9945 69.7324C65.9553 69.7484 65.9175 69.767 65.8779 69.783C65.7777 69.8232 65.6749 69.8603 65.5724 69.898C65.5284 69.9141 65.4854 69.9316 65.4407 69.9471C65.3405 69.9817 65.2374 70.013 65.1349 70.0451C65.0862 70.0605 65.0384 70.0765 64.9894 70.091C64.8901 70.1199 64.7886 70.1457 64.6874 70.1724C64.6324 70.1868 64.5783 70.2023 64.523 70.2158C64.4278 70.239 64.3303 70.2592 64.2336 70.2793C64.1698 70.2931 64.1069 70.3081 64.0421 70.321C63.9488 70.3396 63.8536 70.354 63.7587 70.3704C63.6886 70.3823 63.6194 70.3958 63.5485 70.4065C63.458 70.4201 63.3652 70.4308 63.2735 70.4427C63.1958 70.4524 63.1191 70.4644 63.0402 70.4725C62.9522 70.4819 62.8623 70.4892 62.7731 70.4974C62.6889 70.5046 62.6053 70.5134 62.5201 70.52C62.4327 70.5256 62.3438 70.5288 62.2551 70.5335C62.1659 70.5385 62.0772 70.5442 61.987 70.5473C61.9003 70.5505 61.8117 70.5505 61.7237 70.552C61.637 70.5536 61.5508 70.5561 61.4632 70.5561C61.4575 70.5561 61.4518 70.5561 61.4465 70.5561C61.2029 70.5561 60.9546 70.548 60.7041 70.5376C60.6416 70.5345 60.5787 70.5313 60.5155 70.5272C60.2836 70.5144 60.0495 70.4983 59.8119 70.4757C59.7864 70.4732 59.7613 70.4725 59.7355 70.47C59.4768 70.4443 59.2141 70.4128 58.9489 70.3767C58.8819 70.3678 58.8147 70.3581 58.7474 70.3484C58.5016 70.3132 58.2537 70.2736 58.0026 70.2296C57.9765 70.2246 57.9507 70.2214 57.9246 70.2167C57.6518 70.1667 57.3752 70.1111 57.0964 70.0508C57.026 70.0363 56.9553 70.0203 56.8846 70.0049C56.6269 69.9471 56.3677 69.8858 56.1055 69.8201C56.0772 69.8129 56.0495 69.8063 56.0213 69.799C55.7369 69.7268 55.449 69.6469 55.1595 69.5639C55.0841 69.5432 55.009 69.5206 54.9332 69.4989C54.6642 69.4193 54.3936 69.3374 54.1205 69.2493C54.0925 69.2399 54.0648 69.2317 54.0369 69.2229C53.7415 69.127 53.4429 69.0249 53.1428 68.9196C53.0639 68.8914 52.9847 68.8634 52.9054 68.8345C52.6273 68.7346 52.3476 68.6314 52.0657 68.523C52.0365 68.5117 52.0072 68.5013 51.978 68.49C51.6731 68.3719 51.3658 68.2477 51.0569 68.1198C50.9741 68.0862 50.8912 68.0507 50.8082 68.0161C50.5229 67.8964 50.2365 67.7731 49.948 67.6452C49.9166 67.6314 49.8852 67.6179 49.8535 67.6041C49.5407 67.4641 49.2258 67.3187 48.9096 67.1697C48.8238 67.1294 48.7378 67.0883 48.6516 67.0465C48.359 66.9073 48.0651 66.7643 47.7697 66.6162C47.738 66.5999 47.7062 66.5855 47.6742 66.5694C47.3542 66.4085 46.3384 65.8749 46.2847 65.8462C44.5794 67.1527 42.858 68.3838 41.1301 69.5344C41.4727 69.7449 42.3574 70.2752 42.4574 70.3339C42.8332 70.5561 43.2082 70.7733 43.5821 70.9858C43.6174 71.0049 43.6522 71.026 43.6871 71.0451C44.0926 71.2746 44.4968 71.4968 44.8999 71.7146C44.9967 71.7677 45.0936 71.8192 45.1904 71.8708C45.5389 72.0574 45.8868 72.2401 46.2335 72.418C46.2957 72.45 46.3579 72.483 46.4202 72.5144C46.818 72.7172 47.2144 72.9142 47.6094 73.106C47.6996 73.1493 47.7892 73.1917 47.8788 73.2345C48.2129 73.3954 48.5457 73.5516 48.8773 73.7037C48.9543 73.7389 49.0316 73.775 49.1086 73.81C49.4992 73.9869 49.888 74.1582 50.2752 74.3247C50.3537 74.3577 50.4317 74.3898 50.5103 74.4237C50.8362 74.5614 51.1606 74.695 51.4836 74.8244C51.571 74.8596 51.658 74.8952 51.7451 74.9298C52.1267 75.0803 52.5063 75.2258 52.8838 75.365C52.9469 75.3883 53.0098 75.4109 53.0729 75.4335C53.397 75.5517 53.7194 75.6651 54.0404 75.7746C54.1324 75.8059 54.2248 75.838 54.3169 75.8688C54.689 75.9932 55.0596 76.1133 55.427 76.2259C55.4653 76.2372 55.5033 76.2485 55.5417 76.2598C55.8749 76.361 56.2061 76.4559 56.5352 76.5477C56.6269 76.5728 56.7193 76.5986 56.8107 76.6234C57.5352 76.8179 58.2483 76.9896 58.9495 77.1351C59.0403 77.1546 59.1308 77.1727 59.2213 77.1907C59.5375 77.2542 59.8515 77.313 60.1623 77.3661C60.1972 77.3717 60.2327 77.379 60.2673 77.3846C60.6077 77.4415 60.9439 77.4909 61.2777 77.5348C61.3626 77.5462 61.4471 77.5569 61.532 77.5672C61.8154 77.6018 62.0968 77.6332 62.3752 77.659C62.4321 77.6647 62.4896 77.6709 62.5462 77.6756C62.8689 77.7039 63.1876 77.725 63.5035 77.7401C63.5811 77.7442 63.6581 77.7467 63.7351 77.7498C63.9969 77.7602 64.2562 77.7659 64.513 77.7674C64.5846 77.7684 64.6569 77.7699 64.7283 77.769C64.8775 77.769 65.0246 77.7652 65.172 77.7618C65.2694 77.7595 65.3678 77.7586 65.4646 77.7545C65.6255 77.7489 65.7843 77.7385 65.9429 77.7288C66.0234 77.724 66.1055 77.7209 66.1853 77.7153C66.4219 77.6973 66.6564 77.6756 66.8877 77.6499C66.911 77.6477 66.9333 77.6436 66.9566 77.6411C67.1646 77.6169 67.3706 77.5895 67.5741 77.5584C67.657 77.5462 67.7375 77.5301 67.8195 77.5163C67.9619 77.4931 68.1043 77.4688 68.2443 77.4415C68.3385 77.4239 68.4294 77.4022 68.5219 77.3831C68.6474 77.3557 68.7738 77.329 68.8977 77.2991C68.9934 77.2768 69.0875 77.251 69.1833 77.2259C69.3008 77.1954 69.4182 77.164 69.5341 77.131C69.6298 77.103 69.7232 77.0741 69.8173 77.0443C69.9299 77.0087 70.0426 76.9735 70.1528 76.9355C70.2469 76.9041 70.3394 76.8705 70.4312 76.8365C70.5398 76.7972 70.6468 76.7569 70.753 76.7142C70.8447 76.6791 70.9348 76.641 71.0249 76.6033C71.1295 76.559 71.2333 76.5131 71.3355 76.4666C71.424 76.4263 71.5109 76.3852 71.5978 76.3434C71.6992 76.2943 71.7997 76.2428 71.9003 76.1906C71.984 76.1469 72.0677 76.103 72.1505 76.0577C72.2503 76.0024 72.3485 75.9442 72.4466 75.8864C72.5255 75.8396 72.6051 75.7931 72.6832 75.7446C72.7813 75.6828 72.8779 75.6177 72.9744 75.5533C73.0484 75.5042 73.1225 75.4559 73.1949 75.4043C73.2946 75.3346 73.3912 75.2604 73.4885 75.1872C73.5545 75.1375 73.6213 75.0891 73.6857 75.0375C73.7919 74.953 73.8957 74.8647 73.9986 74.7755C74.0509 74.7311 74.104 74.6893 74.1547 74.6434C74.3076 74.5074 74.4572 74.3675 74.6029 74.2217C75.162 73.6619 75.6528 73.0478 76.0768 72.3824C76.5017 71.7171 76.8589 71.0002 77.1509 70.2374C77.3698 69.6655 77.5524 69.0677 77.6989 68.4448C77.8944 67.6148 78.0255 66.7407 78.0947 65.8286C78.1977 64.4603 78.1607 63.0038 77.9885 61.4745ZM37.5602 60.2733C35.8577 61.4394 34.1536 62.5051 32.4618 63.4589C32.0837 63.161 31.7059 62.8599 31.3285 62.5534C31.2417 62.4834 31.1553 62.412 31.0689 62.3414C30.7294 62.0641 30.3903 61.7835 30.0516 61.4994C29.9544 61.418 29.857 61.3369 29.7599 61.2549C29.3557 60.9132 28.9521 60.5678 28.5493 60.2171C28.4786 60.1555 28.4078 60.0923 28.3368 60.0301C27.992 59.7284 27.6479 59.4225 27.304 59.1139C27.2016 59.0219 27.0988 58.9294 26.9964 58.8367C26.5938 58.4725 26.1921 58.1042 25.7917 57.7304C25.7483 57.6899 25.7053 57.6487 25.6619 57.6082C25.2995 57.2688 24.9384 56.9243 24.5779 56.5783C24.4736 56.4777 24.3695 56.3772 24.2653 56.2758C23.8658 55.8888 23.467 55.4978 23.07 55.1011C19.9928 52.0236 17.1887 48.8576 14.682 45.6731C14.2342 45.1035 13.7955 44.5339 13.3668 43.9634C12.1001 42.2795 10.921 40.5971 9.82723 38.9196L9.82506 38.9172C9.42092 38.2976 9.02869 37.6789 8.64869 37.0626C0.00107962 23.0212 -2.31673 9.83431 3.94919 3.56831C4.09466 3.42268 4.24431 3.28268 4.39702 3.1459C4.44859 3.10004 4.50234 3.05741 4.55447 3.01235C4.65754 2.92466 4.76036 2.83616 4.86624 2.75248C4.93133 2.70099 4.99859 2.65191 5.06457 2.60203C5.16136 2.52881 5.25783 2.45478 5.35719 2.38479C5.42944 2.3341 5.50395 2.28502 5.57748 2.23594C5.67395 2.17158 5.77042 2.10721 5.86914 2.04526C5.9471 1.99618 6.0266 1.94952 6.10576 1.90285C6.20352 1.84492 6.30192 1.7878 6.40153 1.73228C6.48424 1.68642 6.56815 1.64297 6.65199 1.59872C6.752 1.54723 6.85257 1.49574 6.95435 1.44666C7.04084 1.40401 7.12846 1.36298 7.21648 1.32275C7.31898 1.27609 7.42269 1.23103 7.52696 1.18678C7.61691 1.14816 7.70743 1.11115 7.7985 1.07494C7.90479 1.0331 8.01228 0.992081 8.12033 0.952652C8.2131 0.918861 8.30546 0.885864 8.39944 0.853683C8.50974 0.815872 8.62166 0.780472 8.73357 0.745872C8.82811 0.716103 8.92241 0.68634 9.01831 0.658981C9.13393 0.625191 9.2518 0.594612 9.36935 0.564041C9.46397 0.539101 9.55794 0.513359 9.65409 0.490028C9.77791 0.460258 9.9039 0.433701 10.0297 0.40715C10.1223 0.387039 10.2141 0.366119 10.3078 0.347618C10.4464 0.320259 10.5878 0.296921 10.7289 0.27359C10.8123 0.259911 10.8939 0.24382 10.9778 0.230949C11.178 0.200371 11.3805 0.17382 11.5847 0.15049C11.6118 0.14727 11.6378 0.142441 11.6645 0.139221C11.8959 0.11348 12.13 0.0925674 12.3667 0.0748672C12.4465 0.068428 12.5283 0.0660095 12.6087 0.060379C12.7674 0.0507202 12.9264 0.041069 13.0874 0.0346375C13.1838 0.0314178 13.2825 0.0306091 13.38 0.0281906C13.5274 0.0241699 13.6744 0.0209503 13.8237 0.0201492C13.8951 0.0201492 13.9673 0.021759 14.0393 0.021759C14.2957 0.0233688 14.5551 0.029808 14.8169 0.0402603C14.8942 0.0426788 14.9709 0.0458908 15.0485 0.0491104C15.364 0.0643997 15.6831 0.0861282 16.0058 0.11348C16.0623 0.119118 16.1202 0.125549 16.1771 0.130379C16.4552 0.156929 16.7362 0.1875 17.0194 0.222099C17.1046 0.23336 17.1894 0.24382 17.2752 0.255089C17.6086 0.299339 17.9446 0.348419 18.2844 0.404739C18.3196 0.41037 18.3551 0.41761 18.3903 0.424049C18.7011 0.476341 19.0148 0.535881 19.3307 0.59864C19.4212 0.617149 19.5117 0.635651 19.6028 0.654152C20.3033 0.799782 21.0162 0.971153 21.7396 1.16586C21.8323 1.1908 21.9254 1.21655 22.0187 1.2423C22.3459 1.33321 22.6753 1.42815 23.0068 1.52872C23.0464 1.54079 23.086 1.55206 23.1259 1.56413C23.493 1.67677 23.863 1.79665 24.2348 1.92055C24.3271 1.95193 24.4198 1.98331 24.5123 2.01549C24.8325 2.12411 25.1543 2.23755 25.4781 2.35582C25.5419 2.37916 25.605 2.40088 25.6688 2.42421C26.0456 2.5634 26.4247 2.70903 26.8056 2.85948C26.8936 2.89408 26.9819 2.93028 27.0699 2.96568C27.3924 3.09522 27.7157 3.22798 28.041 3.36556C28.1196 3.39935 28.1982 3.43153 28.2774 3.46533C28.6637 3.63107 29.0521 3.80244 29.4418 3.97945C29.5201 4.01485 29.599 4.05106 29.6772 4.08727C30.0079 4.23933 30.3398 4.3946 30.6725 4.55471C30.7627 4.59735 30.8524 4.64 30.9426 4.68425C31.3373 4.87573 31.7333 5.07206 32.1305 5.27481C32.1943 5.30699 32.2581 5.34078 32.3219 5.37377C32.6673 5.55077 33.0137 5.73261 33.3606 5.91846C33.4581 5.97076 33.5552 6.02225 33.6526 6.07536C34.0552 6.29259 34.4591 6.51466 34.8639 6.74315C34.9003 6.76407 34.9371 6.78579 34.9735 6.80671C35.3457 7.0175 35.7184 7.23313 36.0921 7.45358C36.1939 7.51393 37.0881 8.04977 37.4341 8.26299C35.7269 9.40146 34.0266 10.6196 32.3417 11.9109C32.1834 11.8256 31.27 11.3469 30.9736 11.1973C30.9027 11.1619 30.8319 11.1273 30.7612 11.0919C30.5009 10.9623 30.2417 10.8352 29.9837 10.7121C29.8777 10.6614 29.7722 10.6107 29.6662 10.5608C29.3714 10.4225 29.0772 10.2865 28.7853 10.1561C28.7174 10.1256 28.6504 10.0966 28.5832 10.0668C28.3302 9.9558 28.0788 9.84719 27.828 9.74179C27.7249 9.69834 27.6218 9.65489 27.519 9.61224C27.2267 9.49236 26.9354 9.37409 26.6466 9.26226C26.5865 9.23893 26.5272 9.21721 26.4671 9.19468C26.2192 9.09974 25.9727 9.00802 25.7276 8.91951C25.6305 8.88492 25.5333 8.85033 25.4366 8.81573C25.1503 8.71516 24.8655 8.6178 24.5833 8.52688C24.5292 8.50918 24.4758 8.4931 24.4218 8.4754C24.1779 8.39816 23.9359 8.32413 23.6955 8.25253C23.6049 8.22598 23.5144 8.19943 23.4242 8.17368C23.1457 8.09403 22.8685 8.01759 22.5948 7.94759C22.5473 7.93552 22.5005 7.92506 22.453 7.91299C22.2133 7.85265 21.9757 7.79633 21.7396 7.74403C21.6567 7.72553 21.5737 7.70703 21.4913 7.68933C21.2211 7.6314 20.953 7.57749 20.6884 7.52922C20.6484 7.52198 20.6088 7.51635 20.5689 7.50911C20.3329 7.46807 20.0997 7.43026 19.8684 7.39727C19.7942 7.38681 19.72 7.37554 19.6465 7.36589C19.3856 7.33129 19.1273 7.29991 18.873 7.27497C18.8407 7.27175 18.8089 7.26934 18.7769 7.26693C18.5456 7.24521 18.3174 7.22912 18.0914 7.21705C18.0266 7.21302 17.9619 7.20981 17.8978 7.20659C17.6477 7.19532 17.4003 7.18808 17.157 7.18808C17.1516 7.18808 17.146 7.18728 17.1407 7.18728C17.0578 7.18728 16.9767 7.19049 16.8946 7.1921C16.8013 7.1929 16.7073 7.19371 16.6152 7.19693C16.5353 7.19935 16.4577 7.20497 16.3789 7.20899C16.2792 7.21382 16.179 7.21785 16.0809 7.22509C16.0124 7.22992 15.9454 7.23716 15.8776 7.24279C15.7713 7.25244 15.6645 7.26049 15.5598 7.27175C15.5011 7.27819 15.4442 7.28704 15.386 7.29428C15.2742 7.30796 15.1619 7.32164 15.052 7.33854C15.0026 7.34578 14.9548 7.35543 14.9058 7.36347C14.7892 7.38278 14.6723 7.40129 14.5582 7.42382C14.5164 7.43186 14.4762 7.44151 14.4347 7.45036C14.315 7.4753 14.1952 7.50026 14.0779 7.52922C14.0428 7.53727 14.0092 7.54772 13.9739 7.55657C13.8523 7.58714 13.731 7.61852 13.6122 7.65392C13.5823 7.66197 13.5534 7.67242 13.5236 7.68208C13.4013 7.71909 13.28 7.7561 13.1609 7.79794C13.1355 7.80679 13.1112 7.81644 13.0857 7.8261C12.9639 7.86955 12.8428 7.9138 12.724 7.96208C12.7036 7.97093 12.6841 7.97977 12.6637 7.98862C12.5418 8.03931 12.4211 8.09081 12.3029 8.14552C12.2818 8.15598 12.2617 8.16724 12.2406 8.1777C12.1244 8.23241 12.0093 8.28954 11.8968 8.34988C11.8749 8.36195 11.8541 8.37482 11.8324 8.38689C11.7221 8.44723 11.6131 8.50919 11.5065 8.57436C11.4782 8.59126 11.4512 8.61056 11.4229 8.62826C11.3249 8.69021 11.2268 8.75216 11.1318 8.81814C11.0935 8.84549 11.057 8.87446 11.019 8.90182C10.9363 8.96135 10.8534 9.02009 10.7736 9.08284C10.7135 9.13031 10.656 9.181 10.5976 9.23007C10.5419 9.27674 10.4854 9.321 10.431 9.36847C10.3455 9.4449 10.2628 9.52455 10.1805 9.60501C10.156 9.62914 10.1299 9.65167 10.1054 9.67581C8.62102 11.1602 7.82401 13.2079 7.65271 15.6715C7.62818 16.0231 7.61691 16.3843 7.61748 16.752C7.61876 17.1205 7.63196 17.497 7.65803 17.8808C7.74886 19.2253 7.99216 20.663 8.37997 22.174C8.49059 22.6061 8.61313 23.0446 8.74733 23.4879C8.88154 23.9312 9.02773 24.381 9.18486 24.8355C9.89264 26.8808 10.8326 29.0314 11.988 31.2488C12.1024 31.4684 12.2199 31.6881 12.3384 31.9093C12.4861 32.1837 12.636 32.4597 12.7903 32.7356C12.989 33.0929 13.1955 33.4509 13.4048 33.8113C14.3719 35.4704 15.4501 37.1568 16.6362 38.8552C17.036 39.4281 17.449 40.0009 17.8724 40.5754C20.4881 44.1219 23.5543 47.6966 27.0162 51.1579C27.3528 51.495 27.691 51.8265 28.0298 52.1556C28.1139 52.2376 28.1982 52.3189 28.2827 52.401C28.6212 52.7276 28.96 53.0511 29.3001 53.3705C29.3036 53.3737 29.3073 53.3769 29.3107 53.3801C29.6483 53.6963 29.9868 54.0077 30.3256 54.3166C30.4114 54.3947 30.4969 54.4727 30.583 54.5508C30.9237 54.8589 31.265 55.1647 31.6072 55.4656C31.6151 55.4728 31.6233 55.4793 31.6311 55.4865C31.9671 55.7818 32.3034 56.0714 32.64 56.3587C32.727 56.4335 32.8141 56.5075 32.9015 56.5815C33.2434 56.8712 33.586 57.1588 33.9286 57.4406C33.9414 57.4513 33.9543 57.4614 33.9675 57.4721C34.2994 57.7453 34.6319 58.0133 34.9641 58.2785C35.0534 58.3496 35.1423 58.4203 35.2312 58.4907C35.5729 58.7616 35.9149 59.0297 36.2565 59.2921C36.2732 59.305 36.2898 59.3176 36.3068 59.3305C36.6349 59.5823 37.4705 60.207 37.5602 60.2733Z" fill="url(#paint1_linear_836_8250)"/>
</g>
<mask id="mask2_836_8250" style="mask-type:luminance" maskUnits="userSpaceOnUse" x="0" y="0" width="79" height="78">
<path d="M77.9574 11.264C77.8576 10.3709 77.6943 9.51888 77.4666 8.71029C77.2397 7.9025 76.9476 7.13897 76.5896 6.4229C76.5003 6.24429 76.4069 6.06889 76.3088 5.8959C76.1133 5.55074 75.9017 5.21764 75.6724 4.89823C75.3296 4.41871 74.9483 3.96815 74.5291 3.54816C74.3834 3.40334 74.2338 3.26254 74.0809 3.12656C74.0302 3.0815 73.9779 3.03967 73.9265 2.99541C73.8227 2.90611 73.7181 2.81681 73.6111 2.73152C73.5483 2.68164 73.4839 2.63497 73.4196 2.5867C73.3206 2.51107 73.2208 2.43624 73.1195 2.36383C73.0495 2.31475 72.9787 2.26808 72.9079 2.22061C72.8081 2.15383 72.7083 2.08706 72.6061 2.0235C72.5321 1.97683 72.4557 1.93259 72.3809 1.88753C72.2787 1.82719 72.1757 1.76764 72.0711 1.70972C71.9939 1.66627 71.9142 1.62524 71.8354 1.58421C71.73 1.52869 71.6238 1.47478 71.5168 1.42329C71.4355 1.38306 71.3534 1.34525 71.2714 1.30743C71.1619 1.25835 71.0517 1.20927 70.9407 1.16261C70.857 1.12721 70.7733 1.09261 70.6889 1.05882C70.5754 1.01376 70.4604 0.971123 70.3445 0.928474C70.2592 0.897102 70.1739 0.866524 70.0878 0.836754C69.9688 0.796524 69.8481 0.757912 69.7266 0.720901C69.6413 0.69355 69.5552 0.666183 69.4683 0.641243C69.3428 0.605034 69.2157 0.571251 69.0878 0.538261C69.0025 0.516541 68.9172 0.493202 68.8303 0.472282C68.6959 0.439293 68.5592 0.410332 68.4216 0.381363C68.3395 0.363663 68.259 0.345169 68.1762 0.329079C68.0225 0.299309 67.8672 0.272758 67.7111 0.247009C67.6419 0.235741 67.5744 0.222061 67.5044 0.211601C67.2799 0.177811 67.0533 0.14724 66.8236 0.12149C66.8211 0.120689 66.8185 0.120682 66.816 0.119881C66.5832 0.0941315 66.3478 0.0724182 66.1096 0.054718C66.0344 0.0490799 65.9581 0.046669 65.8827 0.0418396C65.7192 0.0313797 65.5555 0.0209198 65.3899 0.0152893C65.2943 0.0112686 65.1972 0.0104599 65.101 0.00804138C64.9527 0.00482178 64.8043 0.000801086 64.6544 0C64.583 0 64.5108 0.0016098 64.4388 0.00241852C64.1824 0.00402832 63.9231 0.00965118 63.6612 0.0201111C63.5842 0.0233307 63.5073 0.0257492 63.4296 0.0297699C63.1141 0.0450516 62.7951 0.065979 62.4727 0.0941391C62.4158 0.0989685 62.3579 0.1054 62.3007 0.111031C62.0232 0.13678 61.7428 0.167351 61.4603 0.202751C61.3742 0.213211 61.2884 0.223671 61.2017 0.23494C60.8695 0.27919 60.5344 0.32827 60.1956 0.38459C60.1576 0.391022 60.119 0.399071 60.0806 0.40551C59.7732 0.457802 59.4631 0.515732 59.1507 0.578491C59.0582 0.597 58.9655 0.615501 58.8725 0.634804C58.5286 0.706413 58.1829 0.782043 57.8335 0.865723C57.8275 0.867325 57.8215 0.868942 57.8159 0.869743C57.4617 0.955032 57.1033 1.04755 56.7439 1.14491C56.6473 1.17065 56.5505 1.19801 56.4534 1.22456C56.1329 1.31306 55.8107 1.40639 55.4861 1.50455C55.4399 1.51823 55.3943 1.53111 55.3481 1.54559C54.9851 1.65662 54.6187 1.77569 54.2506 1.89879C54.1523 1.93097 54.0535 1.96476 53.9549 1.99936C53.6447 2.10476 53.3326 2.21499 53.0193 2.32844C52.9469 2.35499 52.8753 2.37993 52.8027 2.40728C52.4312 2.54406 52.0572 2.68727 51.6817 2.83611C51.5854 2.87393 51.4886 2.91336 51.3925 2.95198C51.0826 3.07668 50.7715 3.20461 50.4594 3.33656C50.3698 3.37437 50.2806 3.41138 50.1906 3.45C49.811 3.61253 49.4297 3.78069 49.0467 3.95447C48.9574 3.9947 48.8675 4.03654 48.778 4.07838C48.4621 4.2232 48.1447 4.37204 47.8266 4.52491C47.7257 4.57318 47.6249 4.62066 47.5233 4.66973C47.1362 4.858 46.7476 5.05109 46.3577 5.24902C46.2816 5.28844 46.2052 5.32868 46.1292 5.3673C45.7989 5.53787 45.4672 5.71165 45.1348 5.88947C45.0279 5.94659 44.9207 6.00372 44.8133 6.06165C44.4182 6.27567 44.0219 6.49369 43.6246 6.71736C43.5725 6.74713 43.5203 6.77771 43.4684 6.80748C43.1133 7.00862 42.7572 7.2154 42.4008 7.42539C42.2898 7.49056 42.1792 7.55573 42.0682 7.6217C41.7169 7.83089 41.3649 8.04491 41.0126 8.26215C40.968 8.28951 40.9237 8.31525 40.8793 8.34261C40.8661 8.35065 40.8533 8.35869 40.8404 8.36674C40.4396 8.61455 40.038 8.87041 39.636 9.12867C39.5238 9.20109 39.4119 9.27349 39.2997 9.34671C39.2557 9.37487 39.2114 9.40463 39.1674 9.4336C39.1674 9.4336 39.1674 9.4336 39.1665 9.4344C38.8522 9.63957 38.5382 9.84554 38.2236 10.0563C38.1695 10.0925 38.1155 10.128 38.0611 10.1642C37.6573 10.4369 37.2531 10.7153 36.8486 10.9977C36.7402 11.0741 36.6314 11.1506 36.5227 11.227C36.1808 11.4676 35.8388 11.7122 35.4966 11.96C35.4196 12.0163 35.3423 12.071 35.2649 12.1273C34.8853 12.4041 34.5053 12.6873 34.1257 12.9729C34.1244 12.9745 34.1257 12.9729 34.1244 12.9745C34.1002 12.9922 34.0759 13.0091 34.0521 13.0276C33.9506 13.1041 33.8494 13.1813 33.7482 13.2585C33.4131 13.5136 33.0784 13.771 32.7434 14.0325C32.6519 14.1041 32.5605 14.1741 32.4691 14.2466C32.4493 14.2618 32.4295 14.2779 32.4096 14.2932C32.0253 14.5965 31.6412 14.9031 31.2571 15.2136C31.1682 15.2861 31.0792 15.3593 30.9903 15.4325C30.6537 15.7076 30.3175 15.986 29.9818 16.2668C29.8828 16.3497 29.7838 16.4326 29.6848 16.5162C29.2813 16.8566 28.8783 17.2017 28.4764 17.5517C28.4047 17.6145 28.3336 17.678 28.2624 17.74C27.9178 18.0417 27.5744 18.3466 27.2315 18.6548C27.1284 18.7473 27.0253 18.8398 26.9222 18.9332C26.5202 19.2976 26.1186 19.6653 25.7188 20.0387C25.6748 20.0797 25.6311 20.1215 25.5874 20.1626C25.2248 20.5021 24.863 20.8464 24.5019 21.194C24.3995 21.293 24.2964 21.3919 24.1939 21.4917C23.7935 21.8795 23.3937 22.2713 22.9961 22.6688C19.9177 25.7479 17.1124 28.9155 14.6048 32.1016C15.5451 33.7671 16.6023 35.4502 17.7573 37.1358C18.0861 36.6901 18.4208 36.2443 18.7637 35.7978C19.3595 35.0222 19.9768 34.2466 20.6145 33.471C21.2522 32.6962 21.9103 31.9222 22.5888 31.1506C23.0408 30.6365 23.5022 30.1232 23.9717 29.6114C24.9114 28.588 25.8857 27.5711 26.8936 26.5629C27.2302 26.2266 27.5684 25.8951 27.9072 25.5653C27.9914 25.484 28.0756 25.4019 28.1599 25.3207C28.4987 24.994 28.8378 24.6698 29.1778 24.3504C29.1807 24.3479 29.1832 24.3455 29.1857 24.3431C29.5245 24.0261 29.8643 23.7131 30.2043 23.4034C30.2892 23.3261 30.3737 23.2489 30.4585 23.1725C30.8008 22.8627 31.1434 22.5554 31.4869 22.2536C31.4904 22.2504 31.4935 22.248 31.497 22.2448C31.838 21.9455 32.1793 21.651 32.5209 21.3598C32.6058 21.2873 32.6903 21.2149 32.7749 21.1433C33.12 20.8505 33.465 20.5608 33.8108 20.2768C33.8145 20.2736 33.8182 20.2704 33.8223 20.2672C34.1643 19.9856 34.5066 19.7104 34.8488 19.4368C34.9331 19.3701 35.017 19.3033 35.1012 19.2365C35.4469 18.9621 35.7929 18.691 36.139 18.4255C36.1455 18.4199 36.1525 18.415 36.1591 18.4102C36.4994 18.1487 36.8395 17.8929 37.1796 17.6394C37.2622 17.5783 37.3448 17.5163 37.4276 17.456C37.4335 17.4512 37.4391 17.4471 37.4448 17.4431C37.7852 17.1913 38.1255 16.9427 38.4653 16.6997C38.4729 16.6941 38.4801 16.6892 38.4873 16.6844C38.7133 16.5227 38.9389 16.3634 39.1645 16.2057L39.1668 16.2041C39.2784 16.126 39.3899 16.0496 39.5015 15.9724C39.5838 15.916 39.6659 15.8589 39.7482 15.8026C40.0927 15.566 40.4365 15.3327 40.7797 15.1058C40.7882 15.1002 40.7967 15.0946 40.8051 15.0889C41.1405 14.8669 41.4749 14.6512 41.8087 14.4372C41.8895 14.3857 41.9699 14.3342 42.0507 14.2836C42.3923 14.0671 42.7336 13.8539 43.0736 13.6463C43.0828 13.6407 43.0919 13.6351 43.101 13.6294C43.4322 13.4283 43.7623 13.232 44.0917 13.0389C44.1296 13.0164 44.1683 12.9922 44.2066 12.9705C44.1843 12.9777 44.2221 12.948 44.2082 12.9689C44.2481 12.9456 44.2881 12.9238 44.328 12.9005C44.6656 12.7042 45.0024 12.5119 45.3378 12.3252C45.3482 12.3196 45.3589 12.314 45.3692 12.3083C45.615 12.1716 45.8601 12.0372 46.1043 11.906C46.1832 11.8634 46.2615 11.8224 46.34 11.7805C46.4174 11.7395 46.4947 11.6985 46.5717 11.6582C46.9029 11.4837 47.2333 11.3123 47.5617 11.1473C47.5764 11.1401 47.5909 11.1329 47.6057 11.1256C47.9209 10.9671 48.2342 10.8151 48.5463 10.6662C48.6217 10.63 48.6965 10.5938 48.7717 10.5592C49.0967 10.4055 49.4203 10.2559 49.7415 10.1127C49.7554 10.1062 49.7689 10.1006 49.7824 10.095C50.0904 9.95737 50.3962 9.82623 50.7007 9.69911C50.7743 9.66773 50.8478 9.63715 50.9213 9.60658C51.2369 9.47624 51.5512 9.34912 51.863 9.22844C51.8797 9.222 51.8963 9.21637 51.9133 9.20913C52.2093 9.09569 52.5032 8.98706 52.7957 8.88166C52.8671 8.85592 52.9385 8.83098 53.0095 8.80524C53.3153 8.69742 53.6196 8.59363 53.9206 8.49627C53.9385 8.49064 53.9561 8.48501 53.9737 8.47938C54.2585 8.38766 54.5404 8.30238 54.8207 8.21951C54.8902 8.19939 54.9596 8.17847 55.0288 8.15916C55.323 8.07468 55.6149 7.99422 55.9037 7.9202C55.9242 7.91537 55.944 7.91055 55.9641 7.90572C56.2347 7.83733 56.5022 7.77457 56.7678 7.71503C56.8353 7.70055 56.9025 7.68527 56.9695 7.67079C57.2505 7.61045 57.5295 7.55412 57.8045 7.50424C57.8269 7.50021 57.8489 7.49699 57.8712 7.49297C58.1267 7.44791 58.3788 7.40769 58.6286 7.37228C58.6937 7.36263 58.7588 7.35298 58.8231 7.34413C59.0897 7.30873 59.3537 7.27654 59.6139 7.2516C59.6384 7.24919 59.6626 7.24758 59.6871 7.24517C59.9257 7.22344 60.1614 7.20655 60.3943 7.19367C60.4568 7.19046 60.5191 7.18643 60.5809 7.18402C60.8317 7.17276 61.08 7.16552 61.3239 7.16471C61.3293 7.16471 61.3352 7.16471 61.3405 7.16471C61.4305 7.16471 61.5179 7.16792 61.6064 7.16953C61.6925 7.17034 61.779 7.17115 61.8638 7.17356C61.9616 7.17678 62.0575 7.18321 62.1543 7.18884C62.2347 7.19286 62.3161 7.19608 62.3957 7.20172C62.4921 7.20815 62.5871 7.21781 62.6822 7.22666C62.7602 7.23391 62.8391 7.23954 62.9161 7.24758C63.0103 7.25804 63.1028 7.27172 63.1955 7.28378C63.2713 7.29424 63.3479 7.30229 63.4227 7.31355C63.5176 7.32804 63.6103 7.34573 63.704 7.36263C63.7747 7.3747 63.8461 7.38597 63.9158 7.39884C64.0111 7.41735 64.1041 7.43987 64.1977 7.46078C64.2638 7.47446 64.3307 7.48814 64.3954 7.50343C64.4904 7.52676 64.5824 7.55251 64.6755 7.57826C64.7374 7.59516 64.8005 7.61044 64.8615 7.62814C64.9548 7.6555 65.0453 7.68607 65.1368 7.71584C65.1956 7.73515 65.2557 7.75204 65.3134 7.77216C65.4036 7.80354 65.4913 7.83814 65.5797 7.87193C65.6366 7.89365 65.6947 7.91376 65.751 7.93629C65.8393 7.97169 65.9254 8.01112 66.0115 8.04974C66.0652 8.07388 66.1203 8.0956 66.1734 8.12054C66.2594 8.16077 66.3434 8.20502 66.4279 8.24766C66.4785 8.27341 66.5303 8.29754 66.5803 8.3249C66.6646 8.36995 66.746 8.41823 66.828 8.4665C66.8754 8.49386 66.9248 8.52041 66.972 8.54938C67.0536 8.59926 67.1329 8.65317 67.2123 8.70628C67.2574 8.73524 67.3032 8.7634 67.3475 8.79397C67.4328 8.8527 67.5148 8.91627 67.5969 8.97822C67.6339 9.00558 67.6709 9.03131 67.7071 9.05947C67.798 9.13108 67.8857 9.2059 67.9734 9.28153C67.9984 9.30325 68.0249 9.32337 68.0499 9.3451C68.1617 9.44486 68.2703 9.54623 68.3757 9.65244C72.5032 13.7799 71.318 22.2681 66.1284 31.9133C67.4368 33.6206 68.6686 35.34 69.8167 37.0626C72.615 32.5232 74.7503 28.0723 76.1487 23.9151C76.205 23.7485 76.2597 23.582 76.3136 23.4162C76.4761 22.9142 76.6298 22.4162 76.7706 21.9238C77.2501 20.243 77.6009 18.6194 77.8182 17.0658C78.107 14.9948 78.1577 13.0493 77.9574 11.264ZM60.5926 40.5745C61.7629 42.2802 62.8334 43.9835 63.7835 45.6691C61.2802 48.8487 58.4803 52.0091 55.4081 55.081C55.4068 55.0826 55.4056 55.0834 55.4043 55.085C55.0093 55.48 54.6121 55.8686 54.2141 56.2548C54.1092 56.357 54.0039 56.4584 53.8986 56.5598C53.5403 56.9041 53.1808 57.2464 52.8206 57.5843C52.7753 57.6264 52.7304 57.6697 52.6851 57.7121C52.2857 58.0846 51.8853 58.4517 51.484 58.815C51.3796 58.9096 51.2753 59.0032 51.1709 59.0969C50.8306 59.4027 50.4898 59.7054 50.1482 60.0046C50.074 60.0693 49.9999 60.1354 49.9257 60.2C49.5253 60.5489 49.1237 60.8928 48.7217 61.2321C48.6208 61.3174 48.5203 61.4013 48.4194 61.4858C48.0862 61.7646 47.7531 62.0405 47.4193 62.3133C47.3278 62.3882 47.2361 62.4639 47.1443 62.5384C46.7586 62.8511 46.3727 63.1591 45.9865 63.4633C45.9701 63.4759 45.9538 63.4894 45.9374 63.5022C45.8444 63.5755 45.7511 63.6471 45.6581 63.72C45.3249 63.98 44.9917 64.2364 44.6586 64.4898C44.5558 64.5677 44.4534 64.6463 44.3509 64.7233C44.3242 64.7434 44.2975 64.7628 44.2711 64.7826C44.2079 64.7462 44.2076 64.7468 44.2702 64.7833C43.8937 65.0665 43.5174 65.3468 43.1409 65.6215C43.062 65.679 42.9831 65.7353 42.9039 65.7925C42.5636 66.0392 42.2232 66.2824 41.8829 66.522C41.7734 66.5992 41.6644 66.6765 41.555 66.753C41.1509 67.0346 40.7473 67.313 40.3438 67.5848C40.2888 67.6219 40.2338 67.6581 40.1788 67.6952C39.8409 67.9211 39.5037 68.143 39.1665 68.3627C38.8264 68.1408 38.8258 68.1414 39.1655 68.3636C39.1454 68.3765 39.125 68.39 39.1048 68.4029C38.9927 68.4762 38.8804 68.5488 38.7686 68.621C38.3707 68.8769 37.9731 69.1296 37.5765 69.3756C37.5554 69.3885 37.5344 69.4014 37.513 69.4143C37.4477 69.4554 37.3826 69.4932 37.3172 69.5334C36.9907 69.7345 36.6641 69.9325 36.3385 70.1264C36.226 70.1931 36.1138 70.26 36.0016 70.3261C35.6458 70.535 35.291 70.7412 34.9368 70.9424C34.8846 70.9719 34.8322 71.0027 34.7799 71.0322C34.3834 71.256 33.988 71.4732 33.5935 71.6872C33.4845 71.746 33.3751 71.8038 33.2661 71.8625C32.9358 72.0389 32.6064 72.2117 32.278 72.3809C32.2007 72.4201 32.1233 72.4613 32.0463 72.5006C31.6566 72.6995 31.2685 72.8918 30.8816 73.0801C30.7798 73.1292 30.6782 73.1772 30.5764 73.2257C30.259 73.3784 29.9421 73.5264 29.6267 73.6713C29.537 73.7131 29.4472 73.7552 29.3576 73.7951C28.9745 73.9689 28.5933 74.1374 28.2136 74.2998C28.124 74.3385 28.0345 74.3753 27.9449 74.4134C27.6328 74.545 27.322 74.6729 27.0124 74.7977C26.9159 74.8363 26.8191 74.876 26.723 74.9136C26.3474 75.0626 25.9734 75.2056 25.6016 75.3433C25.5293 75.3697 25.4573 75.3949 25.385 75.4212C25.0717 75.5357 24.7599 75.645 24.4494 75.7512C24.3507 75.7848 24.2521 75.8188 24.1537 75.8518C23.786 75.9741 23.4198 76.0931 23.0568 76.2041C23.0096 76.2186 22.9628 76.2315 22.9154 76.2459C22.5923 76.3443 22.2714 76.4367 21.9521 76.5254C21.8547 76.5526 21.7569 76.5791 21.6595 76.6058C21.3002 76.7023 20.9429 76.7956 20.589 76.8802C20.5822 76.8817 20.5756 76.8833 20.5683 76.8848C20.2198 76.9679 19.8749 77.0433 19.5321 77.1149C19.4388 77.1341 19.346 77.1526 19.2533 77.1712C18.9419 77.234 18.6323 77.2919 18.3259 77.3443C18.2869 77.3506 18.2473 77.3588 18.2084 77.3651C17.8699 77.4213 17.5351 77.4707 17.2032 77.5147C17.1161 77.526 17.0301 77.5364 16.9436 77.5477C16.6611 77.5822 16.3811 77.6131 16.1035 77.6388C16.0464 77.6445 15.9889 77.6508 15.932 77.6555C15.6092 77.6838 15.2905 77.7049 14.9746 77.7209C14.897 77.724 14.8203 77.7265 14.743 77.7296C14.4812 77.74 14.2219 77.7466 13.9654 77.7482C13.8938 77.7482 13.8212 77.7498 13.7501 77.7498C13.5999 77.7489 13.4519 77.7457 13.3036 77.7416C13.2071 77.7394 13.1099 77.7385 13.0144 77.7354C12.8501 77.7288 12.6879 77.7184 12.5261 77.7086C12.4491 77.7039 12.3708 77.7008 12.2944 77.6951C12.0565 77.6775 11.8214 77.6564 11.5888 77.6297C11.5816 77.6291 11.5747 77.6282 11.5675 77.6275C11.3425 77.6017 11.1202 77.5719 10.9006 77.5382C10.8292 77.5276 10.7595 77.5141 10.6887 77.5018C10.5344 77.4764 10.3804 77.4506 10.2289 77.4213C10.1453 77.4047 10.0633 77.3862 9.98032 77.3682C9.84427 77.3393 9.70814 77.3104 9.57426 77.2784C9.48688 77.2573 9.40111 77.2331 9.3147 77.2108C9.18798 77.1778 9.06134 77.1448 8.93688 77.1087C8.84894 77.0835 8.76244 77.0561 8.67571 77.0288C8.55535 76.9917 8.43563 76.9534 8.31744 76.9128C8.2307 76.884 8.14494 76.8528 8.05941 76.8214C7.94403 76.7796 7.82938 76.7359 7.71618 76.6909C7.63138 76.657 7.54714 76.6225 7.46322 76.5872C7.35227 76.5404 7.24229 76.4923 7.13319 76.4423C7.05088 76.4047 6.96913 76.3666 6.88803 76.3274C6.78054 76.2748 6.67466 76.2211 6.56934 76.1664C6.48985 76.1246 6.41068 76.0834 6.3324 76.04C6.22837 75.9828 6.12627 75.9225 6.02441 75.8622C5.9487 75.8173 5.87258 75.7729 5.7984 75.7261C5.6963 75.6626 5.5967 75.596 5.49701 75.5291C5.42629 75.4816 5.35468 75.4351 5.28525 75.386C5.18339 75.3144 5.08411 75.2386 4.98442 75.1632C4.92094 75.1148 4.85593 75.068 4.79333 75.0183C4.68616 74.9329 4.58181 74.8436 4.47778 74.7543C4.42661 74.711 4.37375 74.6682 4.32322 74.6239C4.17043 74.4872 4.02086 74.3473 3.87564 74.2015C2.61689 72.9431 1.70458 71.405 1.1203 69.6371C0.990526 69.2445 0.876759 68.8398 0.779004 68.4249C0.68157 68.0098 0.599826 67.5839 0.533851 67.148C0.468118 66.7118 0.418155 66.2651 0.383639 65.8088C0.349042 65.3528 0.330215 64.8867 0.326756 64.4115C0.319836 63.4614 0.374466 62.4742 0.489198 61.4547C0.546403 60.9449 0.618975 60.427 0.70603 59.9015C0.749718 59.6388 0.796866 59.3742 0.847796 59.1076C1.00058 58.3081 1.1866 57.4922 1.40472 56.6611C1.98707 54.447 2.79952 52.1282 3.82946 49.7394C4.08684 49.1424 4.35806 48.5414 4.64248 47.9356C5.0693 47.028 5.5263 46.1116 6.0125 45.1879C6.7803 43.7309 7.62317 42.2561 8.53523 40.7725C9.67266 42.4781 10.8921 44.179 12.1866 45.867C9.29081 51.2697 7.65334 56.3055 7.50595 60.4104C7.49935 60.5983 7.49557 60.7846 7.49524 60.9688C7.49372 61.5213 7.52075 62.0559 7.57667 62.571C7.63259 63.0858 7.71747 63.5815 7.83188 64.0557C7.90791 64.3722 7.99746 64.6789 8.10028 64.9763C8.51102 66.1649 9.13488 67.197 9.98314 68.0459C10.0888 68.1512 10.1975 68.2533 10.3091 68.3524C10.3411 68.3806 10.375 68.407 10.4075 68.4343C10.4882 68.5035 10.5684 68.573 10.652 68.6386C10.6906 68.6694 10.7318 68.6968 10.7711 68.7266C10.8505 68.7867 10.9295 68.847 11.0112 68.9042C11.0564 68.9357 11.1039 68.9639 11.1501 68.9944C11.2284 69.0465 11.3063 69.0997 11.3867 69.1487C11.4355 69.1786 11.4861 69.2053 11.5354 69.2342C11.6162 69.2808 11.696 69.3291 11.7787 69.3734C11.8299 69.4008 11.8836 69.4256 11.9358 69.4523C12.0185 69.4948 12.1008 69.5375 12.1853 69.5777C12.2419 69.6041 12.3007 69.6277 12.3579 69.6525C12.4409 69.6896 12.5229 69.7273 12.6074 69.7612C12.6678 69.7861 12.7297 69.8072 12.7907 69.8304C12.8752 69.8625 12.9588 69.8954 13.0449 69.9253C13.1068 69.947 13.1706 69.9655 13.2335 69.9856C13.3209 70.0146 13.4076 70.0435 13.4969 70.0702C13.5616 70.0888 13.6283 70.1048 13.6936 70.1224C13.7832 70.1466 13.8718 70.1724 13.9626 70.194C14.0315 70.211 14.1021 70.2245 14.172 70.2399C14.2618 70.26 14.3511 70.2808 14.4426 70.2987C14.5158 70.3132 14.5909 70.3244 14.6651 70.3373C14.755 70.3534 14.8442 70.3704 14.9357 70.3839C15.0136 70.3958 15.0935 70.4049 15.1723 70.4153C15.2622 70.4266 15.3512 70.4401 15.4423 70.4499C15.5234 70.4587 15.6067 70.4652 15.6887 70.4725C15.7798 70.4804 15.87 70.4901 15.9621 70.4964C16.0464 70.503 16.1325 70.5055 16.2174 70.5102C16.3097 70.5149 16.4012 70.5215 16.4945 70.5247C16.5809 70.5272 16.6693 70.5272 16.757 70.5287C16.844 70.5303 16.9301 70.5335 17.0185 70.5335C17.0238 70.5335 17.0294 70.5328 17.0351 70.5328C17.2787 70.5328 17.5266 70.5256 17.7771 70.5143C17.8397 70.5112 17.9029 70.5077 17.9657 70.5046C18.1983 70.4916 18.4331 70.4747 18.6715 70.453C18.6961 70.4508 18.7206 70.4489 18.7452 70.4467C19.0047 70.4216 19.2681 70.3895 19.534 70.3534C19.6 70.3446 19.666 70.3358 19.732 70.3261C19.9799 70.2899 20.2298 70.2503 20.4828 70.206C20.5073 70.2013 20.5312 70.1981 20.5557 70.1931C20.8295 70.1441 21.107 70.0878 21.3864 70.0275C21.4555 70.013 21.525 69.9976 21.5945 69.9825C21.8553 69.9238 22.118 69.8625 22.3839 69.7949C22.4088 69.7886 22.4332 69.783 22.4581 69.7764C22.7447 69.7032 23.0348 69.6236 23.3268 69.54C23.3984 69.5199 23.4707 69.4982 23.5427 69.4772C23.8165 69.3967 24.0915 69.3131 24.3693 69.2239C24.3938 69.2157 24.418 69.2084 24.4428 69.2003C24.7404 69.1038 25.0415 69.0007 25.3442 68.8948C25.4193 68.8681 25.4947 68.8407 25.5702 68.8134C25.8556 68.7112 26.1422 68.605 26.4313 68.494C26.4542 68.485 26.4769 68.4771 26.4998 68.4683C26.8081 68.3491 27.1193 68.2228 27.4316 68.094C27.5093 68.0619 27.5872 68.0289 27.6652 67.9969C27.9609 67.8721 28.2583 67.7448 28.5575 67.6113C28.5791 67.6018 28.6005 67.5927 28.6222 67.5833C28.9396 67.4415 29.2589 67.2935 29.5798 67.1423C29.66 67.1053 29.7404 67.0666 29.8209 67.028C30.1264 66.8824 30.4331 66.7328 30.7417 66.5782C30.7612 66.5688 30.7803 66.5596 30.8002 66.5492C31.1255 66.3858 31.4526 66.2165 31.7811 66.0436C31.8625 66.0005 31.9442 65.9572 32.0259 65.9135C32.0711 65.8892 32.1167 65.8657 32.162 65.8415C32.431 65.6973 32.701 65.5504 32.9719 65.3999C32.9898 65.3898 33.0074 65.3804 33.0257 65.3704C33.3575 65.1856 33.6913 64.9945 34.0257 64.8003C34.0373 64.7937 34.0489 64.7871 34.0609 64.7801C34.4506 65.0737 34.4512 65.0734 34.0615 64.7798C34.1323 64.739 34.203 64.6972 34.2734 64.6557C34.5946 64.4674 34.9164 64.276 35.2391 64.0796C35.2561 64.0692 35.2727 64.0595 35.2897 64.0491C35.6264 63.8435 35.9642 63.6323 36.3027 63.418C36.3872 63.3646 36.4715 63.3108 36.556 63.2568C36.8829 63.0478 37.2103 62.836 37.5385 62.6191C37.5532 62.6091 37.568 62.5997 37.5828 62.5899C37.9235 62.3643 38.2648 62.1329 38.6067 61.8985C38.6916 61.84 38.7767 61.7816 38.8619 61.7225C38.9634 61.6521 39.0649 61.5829 39.1668 61.5119C39.2771 61.5889 39.2784 61.587 39.169 61.5103C39.3988 61.3497 39.6288 61.1873 39.8588 61.0229C39.8714 61.0138 39.884 61.0053 39.8965 60.9962C40.2269 60.7601 40.5578 60.5184 40.8887 60.2742C40.9016 60.2648 40.9145 60.2551 40.9274 60.2457C41.0126 60.1825 41.0981 60.1189 41.1835 60.0555C41.5198 59.805 41.8562 59.5524 42.1924 59.294C42.2021 59.2865 42.2119 59.2792 42.2217 59.2716C42.5661 59.007 42.9109 58.7368 43.2553 58.4639C43.3412 58.3958 43.4269 58.3276 43.513 58.259C43.8515 57.9884 44.1906 57.7153 44.5291 57.4369C44.536 57.4312 44.5429 57.4256 44.5502 57.4199C44.8943 57.1364 45.2388 56.8478 45.5826 56.5557C45.6681 56.4833 45.7536 56.4109 45.8391 56.3377C46.1804 56.0464 46.5214 55.752 46.862 55.4535C46.8652 55.4503 46.8686 55.447 46.8721 55.4446C47.215 55.1429 47.5576 54.8364 47.8995 54.5266C47.985 54.4494 48.0705 54.3713 48.1559 54.2941C48.4954 53.9843 48.8349 53.6722 49.1733 53.3552C49.1758 53.3527 49.1783 53.3495 49.1809 53.3479C49.5215 53.0277 49.861 52.7034 50.2001 52.376C50.2837 52.2955 50.367 52.2151 50.4506 52.1338C50.7897 51.8039 51.1282 51.4717 51.4654 51.1345C52.7021 49.8987 53.888 48.6476 55.0213 47.3884C55.0681 47.3361 55.1149 47.2839 55.1614 47.2324C55.5957 46.7472 56.0232 46.2612 56.4418 45.7745C56.8479 45.303 57.2454 44.8299 57.6364 44.3568C57.929 44.002 58.2172 43.6472 58.5013 43.2932C58.8732 42.8289 59.2386 42.3647 59.595 41.9005C59.9081 41.4934 60.5665 40.6099 60.5926 40.5745Z" fill="white"/>
</mask>
<g mask="url(#mask2_836_8250)">
<path d="M77.9574 11.264C77.8576 10.3709 77.6943 9.51888 77.4666 8.71029C77.2397 7.9025 76.9476 7.13897 76.5896 6.4229C76.5003 6.24429 76.4069 6.06889 76.3088 5.8959C76.1133 5.55074 75.9017 5.21764 75.6724 4.89823C75.3296 4.41871 74.9483 3.96815 74.5291 3.54816C74.3834 3.40334 74.2338 3.26254 74.0809 3.12656C74.0302 3.0815 73.9779 3.03967 73.9265 2.99541C73.8227 2.90611 73.7181 2.81681 73.6111 2.73152C73.5483 2.68164 73.4839 2.63497 73.4196 2.5867C73.3206 2.51107 73.2208 2.43624 73.1195 2.36383C73.0495 2.31475 72.9787 2.26808 72.9079 2.22061C72.8081 2.15383 72.7083 2.08706 72.6061 2.0235C72.5321 1.97683 72.4557 1.93259 72.3809 1.88753C72.2787 1.82719 72.1757 1.76764 72.0711 1.70972C71.9939 1.66627 71.9142 1.62524 71.8354 1.58421C71.73 1.52869 71.6238 1.47478 71.5168 1.42329C71.4355 1.38306 71.3534 1.34525 71.2714 1.30743C71.1619 1.25835 71.0517 1.20927 70.9407 1.16261C70.857 1.12721 70.7733 1.09261 70.6889 1.05882C70.5754 1.01376 70.4604 0.971123 70.3445 0.928474C70.2592 0.897102 70.1739 0.866524 70.0878 0.836754C69.9688 0.796524 69.8481 0.757912 69.7266 0.720901C69.6413 0.69355 69.5552 0.666183 69.4683 0.641243C69.3428 0.605034 69.2157 0.571251 69.0878 0.538261C69.0025 0.516541 68.9172 0.493202 68.8303 0.472282C68.6959 0.439293 68.5592 0.410332 68.4216 0.381363C68.3395 0.363663 68.259 0.345169 68.1762 0.329079C68.0225 0.299309 67.8672 0.272758 67.7111 0.247009C67.6419 0.235741 67.5744 0.222061 67.5044 0.211601C67.2799 0.177811 67.0533 0.14724 66.8236 0.12149C66.8211 0.120689 66.8185 0.120682 66.816 0.119881C66.5832 0.0941315 66.3478 0.0724182 66.1096 0.054718C66.0344 0.0490799 65.9581 0.046669 65.8827 0.0418396C65.7192 0.0313797 65.5555 0.0209198 65.3899 0.0152893C65.2943 0.0112686 65.1972 0.0104599 65.101 0.00804138C64.9527 0.00482178 64.8043 0.000801086 64.6544 0C64.583 0 64.5108 0.0016098 64.4388 0.00241852C64.1824 0.00402832 63.9231 0.00965118 63.6612 0.0201111C63.5842 0.0233307 63.5073 0.0257492 63.4296 0.0297699C63.1141 0.0450516 62.7951 0.065979 62.4727 0.0941391C62.4158 0.0989685 62.3579 0.1054 62.3007 0.111031C62.0232 0.13678 61.7428 0.167351 61.4603 0.202751C61.3742 0.213211 61.2884 0.223671 61.2017 0.23494C60.8695 0.27919 60.5344 0.32827 60.1956 0.38459C60.1576 0.391022 60.119 0.399071 60.0806 0.40551C59.7732 0.457802 59.4631 0.515732 59.1507 0.578491C59.0582 0.597 58.9655 0.615501 58.8725 0.634804C58.5286 0.706413 58.1829 0.782043 57.8335 0.865723C57.8275 0.867325 57.8215 0.868942 57.8159 0.869743C57.4617 0.955032 57.1033 1.04755 56.7439 1.14491C56.6473 1.17065 56.5505 1.19801 56.4534 1.22456C56.1329 1.31306 55.8107 1.40639 55.4861 1.50455C55.4399 1.51823 55.3943 1.53111 55.3481 1.54559C54.9851 1.65662 54.6187 1.77569 54.2506 1.89879C54.1523 1.93097 54.0535 1.96476 53.9549 1.99936C53.6447 2.10476 53.3326 2.21499 53.0193 2.32844C52.9469 2.35499 52.8753 2.37993 52.8027 2.40728C52.4312 2.54406 52.0572 2.68727 51.6817 2.83611C51.5854 2.87393 51.4886 2.91336 51.3925 2.95198C51.0826 3.07668 50.7715 3.20461 50.4594 3.33656C50.3698 3.37437 50.2806 3.41138 50.1906 3.45C49.811 3.61253 49.4297 3.78069 49.0467 3.95447C48.9574 3.9947 48.8675 4.03654 48.778 4.07838C48.4621 4.2232 48.1447 4.37204 47.8266 4.52491C47.7257 4.57318 47.6249 4.62066 47.5233 4.66973C47.1362 4.858 46.7476 5.05109 46.3577 5.24902C46.2816 5.28844 46.2052 5.32868 46.1292 5.3673C45.7989 5.53787 45.4672 5.71165 45.1348 5.88947C45.0279 5.94659 44.9207 6.00372 44.8133 6.06165C44.4182 6.27567 44.0219 6.49369 43.6246 6.71736C43.5725 6.74713 43.5203 6.77771 43.4684 6.80748C43.1133 7.00862 42.7572 7.2154 42.4008 7.42539C42.2898 7.49056 42.1792 7.55573 42.0682 7.6217C41.7169 7.83089 41.3649 8.04491 41.0126 8.26215C40.968 8.28951 40.9237 8.31525 40.8793 8.34261C40.8661 8.35065 40.8533 8.35869 40.8404 8.36674C40.4396 8.61455 40.038 8.87041 39.636 9.12867C39.5238 9.20109 39.4119 9.27349 39.2997 9.34671C39.2557 9.37487 39.2114 9.40463 39.1674 9.4336C39.1674 9.4336 39.1674 9.4336 39.1665 9.4344C38.8522 9.63957 38.5382 9.84554 38.2236 10.0563C38.1695 10.0925 38.1155 10.128 38.0611 10.1642C37.6573 10.4369 37.2531 10.7153 36.8486 10.9977C36.7402 11.0741 36.6314 11.1506 36.5227 11.227C36.1808 11.4676 35.8388 11.7122 35.4966 11.96C35.4196 12.0163 35.3423 12.071 35.2649 12.1273C34.8853 12.4041 34.5053 12.6873 34.1257 12.9729C34.1244 12.9745 34.1257 12.9729 34.1244 12.9745C34.1002 12.9922 34.0759 13.0091 34.0521 13.0276C33.9506 13.1041 33.8494 13.1813 33.7482 13.2585C33.4131 13.5136 33.0784 13.771 32.7434 14.0325C32.6519 14.1041 32.5605 14.1741 32.4691 14.2466C32.4493 14.2618 32.4295 14.2779 32.4096 14.2932C32.0253 14.5965 31.6412 14.9031 31.2571 15.2136C31.1682 15.2861 31.0792 15.3593 30.9903 15.4325C30.6537 15.7076 30.3175 15.986 29.9818 16.2668C29.8828 16.3497 29.7838 16.4326 29.6848 16.5162C29.2813 16.8566 28.8783 17.2017 28.4764 17.5517C28.4047 17.6145 28.3336 17.678 28.2624 17.74C27.9178 18.0417 27.5744 18.3466 27.2315 18.6548C27.1284 18.7473 27.0253 18.8398 26.9222 18.9332C26.5202 19.2976 26.1186 19.6653 25.7188 20.0387C25.6748 20.0797 25.6311 20.1215 25.5874 20.1626C25.2248 20.5021 24.863 20.8464 24.5019 21.194C24.3995 21.293 24.2964 21.3919 24.1939 21.4917C23.7935 21.8795 23.3937 22.2713 22.9961 22.6688C19.9177 25.7479 17.1124 28.9155 14.6048 32.1016C15.5451 33.7671 16.6023 35.4502 17.7573 37.1358C18.0861 36.6901 18.4208 36.2443 18.7637 35.7978C19.3595 35.0222 19.9768 34.2466 20.6145 33.471C21.2522 32.6962 21.9103 31.9222 22.5888 31.1506C23.0408 30.6365 23.5022 30.1232 23.9717 29.6114C24.9114 28.588 25.8857 27.5711 26.8936 26.5629C27.2302 26.2266 27.5684 25.8951 27.9072 25.5653C27.9914 25.484 28.0756 25.4019 28.1599 25.3207C28.4987 24.994 28.8378 24.6698 29.1778 24.3504C29.1807 24.3479 29.1832 24.3455 29.1857 24.3431C29.5245 24.0261 29.8643 23.7131 30.2043 23.4034C30.2892 23.3261 30.3737 23.2489 30.4585 23.1725C30.8008 22.8627 31.1434 22.5554 31.4869 22.2536C31.4904 22.2504 31.4935 22.248 31.497 22.2448C31.838 21.9455 32.1793 21.651 32.5209 21.3598C32.6058 21.2873 32.6903 21.2149 32.7749 21.1433C33.12 20.8505 33.465 20.5608 33.8108 20.2768C33.8145 20.2736 33.8182 20.2704 33.8223 20.2672C34.1643 19.9856 34.5066 19.7104 34.8488 19.4368C34.9331 19.3701 35.017 19.3033 35.1012 19.2365C35.4469 18.9621 35.7929 18.691 36.139 18.4255C36.1455 18.4199 36.1525 18.415 36.1591 18.4102C36.4994 18.1487 36.8395 17.8929 37.1796 17.6394C37.2622 17.5783 37.3448 17.5163 37.4276 17.456C37.4335 17.4512 37.4391 17.4471 37.4448 17.4431C37.7852 17.1913 38.1255 16.9427 38.4653 16.6997C38.4729 16.6941 38.4801 16.6892 38.4873 16.6844C38.7133 16.5227 38.9389 16.3634 39.1645 16.2057L39.1668 16.2041C39.2784 16.126 39.3899 16.0496 39.5015 15.9724C39.5838 15.916 39.6659 15.8589 39.7482 15.8026C40.0927 15.566 40.4365 15.3327 40.7797 15.1058C40.7882 15.1002 40.7967 15.0946 40.8051 15.0889C41.1405 14.8669 41.4749 14.6512 41.8087 14.4372C41.8895 14.3857 41.9699 14.3342 42.0507 14.2836C42.3923 14.0671 42.7336 13.8539 43.0736 13.6463C43.0828 13.6407 43.0919 13.6351 43.101 13.6294C43.4322 13.4283 43.7623 13.232 44.0917 13.0389C44.1296 13.0164 44.1683 12.9922 44.2066 12.9705C44.1843 12.9777 44.2221 12.948 44.2082 12.9689C44.2481 12.9456 44.2881 12.9238 44.328 12.9005C44.6656 12.7042 45.0024 12.5119 45.3378 12.3252C45.3482 12.3196 45.3589 12.314 45.3692 12.3083C45.615 12.1716 45.8601 12.0372 46.1043 11.906C46.1832 11.8634 46.2615 11.8224 46.34 11.7805C46.4174 11.7395 46.4947 11.6985 46.5717 11.6582C46.9029 11.4837 47.2333 11.3123 47.5617 11.1473C47.5764 11.1401 47.5909 11.1329 47.6057 11.1256C47.9209 10.9671 48.2342 10.8151 48.5463 10.6662C48.6217 10.63 48.6965 10.5938 48.7717 10.5592C49.0967 10.4055 49.4203 10.2559 49.7415 10.1127C49.7554 10.1062 49.7689 10.1006 49.7824 10.095C50.0904 9.95737 50.3962 9.82623 50.7007 9.69911C50.7743 9.66773 50.8478 9.63715 50.9213 9.60658C51.2369 9.47624 51.5512 9.34912 51.863 9.22844C51.8797 9.222 51.8963 9.21637 51.9133 9.20913C52.2093 9.09569 52.5032 8.98706 52.7957 8.88166C52.8671 8.85592 52.9385 8.83098 53.0095 8.80524C53.3153 8.69742 53.6196 8.59363 53.9206 8.49627C53.9385 8.49064 53.9561 8.48501 53.9737 8.47938C54.2585 8.38766 54.5404 8.30238 54.8207 8.21951C54.8902 8.19939 54.9596 8.17847 55.0288 8.15916C55.323 8.07468 55.6149 7.99422 55.9037 7.9202C55.9242 7.91537 55.944 7.91055 55.9641 7.90572C56.2347 7.83733 56.5022 7.77457 56.7678 7.71503C56.8353 7.70055 56.9025 7.68527 56.9695 7.67079C57.2505 7.61045 57.5295 7.55412 57.8045 7.50424C57.8269 7.50021 57.8489 7.49699 57.8712 7.49297C58.1267 7.44791 58.3788 7.40769 58.6286 7.37228C58.6937 7.36263 58.7588 7.35298 58.8231 7.34413C59.0897 7.30873 59.3537 7.27654 59.6139 7.2516C59.6384 7.24919 59.6626 7.24758 59.6871 7.24517C59.9257 7.22344 60.1614 7.20655 60.3943 7.19367C60.4568 7.19046 60.5191 7.18643 60.5809 7.18402C60.8317 7.17276 61.08 7.16552 61.3239 7.16471C61.3293 7.16471 61.3352 7.16471 61.3405 7.16471C61.4305 7.16471 61.5179 7.16792 61.6064 7.16953C61.6925 7.17034 61.779 7.17115 61.8638 7.17356C61.9616 7.17678 62.0575 7.18321 62.1543 7.18884C62.2347 7.19286 62.3161 7.19608 62.3957 7.20172C62.4921 7.20815 62.5871 7.21781 62.6822 7.22666C62.7602 7.23391 62.8391 7.23954 62.9161 7.24758C63.0103 7.25804 63.1028 7.27172 63.1955 7.28378C63.2713 7.29424 63.3479 7.30229 63.4227 7.31355C63.5176 7.32804 63.6103 7.34573 63.704 7.36263C63.7747 7.3747 63.8461 7.38597 63.9158 7.39884C64.0111 7.41735 64.1041 7.43987 64.1977 7.46078C64.2638 7.47446 64.3307 7.48814 64.3954 7.50343C64.4904 7.52676 64.5824 7.55251 64.6755 7.57826C64.7374 7.59516 64.8005 7.61044 64.8615 7.62814C64.9548 7.6555 65.0453 7.68607 65.1368 7.71584C65.1956 7.73515 65.2557 7.75204 65.3134 7.77216C65.4036 7.80354 65.4913 7.83814 65.5797 7.87193C65.6366 7.89365 65.6947 7.91376 65.751 7.93629C65.8393 7.97169 65.9254 8.01112 66.0115 8.04974C66.0652 8.07388 66.1203 8.0956 66.1734 8.12054C66.2594 8.16077 66.3434 8.20502 66.4279 8.24766C66.4785 8.27341 66.5303 8.29754 66.5803 8.3249C66.6646 8.36995 66.746 8.41823 66.828 8.4665C66.8754 8.49386 66.9248 8.52041 66.972 8.54938C67.0536 8.59926 67.1329 8.65317 67.2123 8.70628C67.2574 8.73524 67.3032 8.7634 67.3475 8.79397C67.4328 8.8527 67.5148 8.91627 67.5969 8.97822C67.6339 9.00558 67.6709 9.03131 67.7071 9.05947C67.798 9.13108 67.8857 9.2059 67.9734 9.28153C67.9984 9.30325 68.0249 9.32337 68.0499 9.3451C68.1617 9.44486 68.2703 9.54623 68.3757 9.65244C72.5032 13.7799 71.318 22.2681 66.1284 31.9133C67.4368 33.6206 68.6686 35.34 69.8167 37.0626C72.615 32.5232 74.7503 28.0723 76.1487 23.9151C76.205 23.7485 76.2597 23.582 76.3136 23.4162C76.4761 22.9142 76.6298 22.4162 76.7706 21.9238C77.2501 20.243 77.6009 18.6194 77.8182 17.0658C78.107 14.9948 78.1577 13.0493 77.9574 11.264ZM60.5926 40.5745C61.7629 42.2802 62.8334 43.9835 63.7835 45.6691C61.2802 48.8487 58.4803 52.0091 55.4081 55.081C55.4068 55.0826 55.4056 55.0834 55.4043 55.085C55.0093 55.48 54.6121 55.8686 54.2141 56.2548C54.1092 56.357 54.0039 56.4584 53.8986 56.5598C53.5403 56.9041 53.1808 57.2464 52.8206 57.5843C52.7753 57.6264 52.7304 57.6697 52.6851 57.7121C52.2857 58.0846 51.8853 58.4517 51.484 58.815C51.3796 58.9096 51.2753 59.0032 51.1709 59.0969C50.8306 59.4027 50.4898 59.7054 50.1482 60.0046C50.074 60.0693 49.9999 60.1354 49.9257 60.2C49.5253 60.5489 49.1237 60.8928 48.7217 61.2321C48.6208 61.3174 48.5203 61.4013 48.4194 61.4858C48.0862 61.7646 47.7531 62.0405 47.4193 62.3133C47.3278 62.3882 47.2361 62.4639 47.1443 62.5384C46.7586 62.8511 46.3727 63.1591 45.9865 63.4633C45.9701 63.4759 45.9538 63.4894 45.9374 63.5022C45.8444 63.5755 45.7511 63.6471 45.6581 63.72C45.3249 63.98 44.9917 64.2364 44.6586 64.4898C44.5558 64.5677 44.4534 64.6463 44.3509 64.7233C44.3242 64.7434 44.2975 64.7628 44.2711 64.7826C44.2079 64.7462 44.2076 64.7468 44.2702 64.7833C43.8937 65.0665 43.5174 65.3468 43.1409 65.6215C43.062 65.679 42.9831 65.7353 42.9039 65.7925C42.5636 66.0392 42.2232 66.2824 41.8829 66.522C41.7734 66.5992 41.6644 66.6765 41.555 66.753C41.1509 67.0346 40.7473 67.313 40.3438 67.5848C40.2888 67.6219 40.2338 67.6581 40.1788 67.6952C39.8409 67.9211 39.5037 68.143 39.1665 68.3627C38.8264 68.1408 38.8258 68.1414 39.1655 68.3636C39.1454 68.3765 39.125 68.39 39.1048 68.4029C38.9927 68.4762 38.8804 68.5488 38.7686 68.621C38.3707 68.8769 37.9731 69.1296 37.5765 69.3756C37.5554 69.3885 37.5344 69.4014 37.513 69.4143C37.4477 69.4554 37.3826 69.4932 37.3172 69.5334C36.9907 69.7345 36.6641 69.9325 36.3385 70.1264C36.226 70.1931 36.1138 70.26 36.0016 70.3261C35.6458 70.535 35.291 70.7412 34.9368 70.9424C34.8846 70.9719 34.8322 71.0027 34.7799 71.0322C34.3834 71.256 33.988 71.4732 33.5935 71.6872C33.4845 71.746 33.3751 71.8038 33.2661 71.8625C32.9358 72.0389 32.6064 72.2117 32.278 72.3809C32.2007 72.4201 32.1233 72.4613 32.0463 72.5006C31.6566 72.6995 31.2685 72.8918 30.8816 73.0801C30.7798 73.1292 30.6782 73.1772 30.5764 73.2257C30.259 73.3784 29.9421 73.5264 29.6267 73.6713C29.537 73.7131 29.4472 73.7552 29.3576 73.7951C28.9745 73.9689 28.5933 74.1374 28.2136 74.2998C28.124 74.3385 28.0345 74.3753 27.9449 74.4134C27.6328 74.545 27.322 74.6729 27.0124 74.7977C26.9159 74.8363 26.8191 74.876 26.723 74.9136C26.3474 75.0626 25.9734 75.2056 25.6016 75.3433C25.5293 75.3697 25.4573 75.3949 25.385 75.4212C25.0717 75.5357 24.7599 75.645 24.4494 75.7512C24.3507 75.7848 24.2521 75.8188 24.1537 75.8518C23.786 75.9741 23.4198 76.0931 23.0568 76.2041C23.0096 76.2186 22.9628 76.2315 22.9154 76.2459C22.5923 76.3443 22.2714 76.4367 21.9521 76.5254C21.8547 76.5526 21.7569 76.5791 21.6595 76.6058C21.3002 76.7023 20.9429 76.7956 20.589 76.8802C20.5822 76.8817 20.5756 76.8833 20.5683 76.8848C20.2198 76.9679 19.8749 77.0433 19.5321 77.1149C19.4388 77.1341 19.346 77.1526 19.2533 77.1712C18.9419 77.234 18.6323 77.2919 18.3259 77.3443C18.2869 77.3506 18.2473 77.3588 18.2084 77.3651C17.8699 77.4213 17.5351 77.4707 17.2032 77.5147C17.1161 77.526 17.0301 77.5364 16.9436 77.5477C16.6611 77.5822 16.3811 77.6131 16.1035 77.6388C16.0464 77.6445 15.9889 77.6508 15.932 77.6555C15.6092 77.6838 15.2905 77.7049 14.9746 77.7209C14.897 77.724 14.8203 77.7265 14.743 77.7296C14.4812 77.74 14.2219 77.7466 13.9654 77.7482C13.8938 77.7482 13.8212 77.7498 13.7501 77.7498C13.5999 77.7489 13.4519 77.7457 13.3036 77.7416C13.2071 77.7394 13.1099 77.7385 13.0144 77.7354C12.8501 77.7288 12.6879 77.7184 12.5261 77.7086C12.4491 77.7039 12.3708 77.7008 12.2944 77.6951C12.0565 77.6775 11.8214 77.6564 11.5888 77.6297C11.5816 77.6291 11.5747 77.6282 11.5675 77.6275C11.3425 77.6017 11.1202 77.5719 10.9006 77.5382C10.8292 77.5276 10.7595 77.5141 10.6887 77.5018C10.5344 77.4764 10.3804 77.4506 10.2289 77.4213C10.1453 77.4047 10.0633 77.3862 9.98032 77.3682C9.84427 77.3393 9.70814 77.3104 9.57426 77.2784C9.48688 77.2573 9.40111 77.2331 9.3147 77.2108C9.18798 77.1778 9.06134 77.1448 8.93688 77.1087C8.84894 77.0835 8.76244 77.0561 8.67571 77.0288C8.55535 76.9917 8.43563 76.9534 8.31744 76.9128C8.2307 76.884 8.14494 76.8528 8.05941 76.8214C7.94403 76.7796 7.82938 76.7359 7.71618 76.6909C7.63138 76.657 7.54714 76.6225 7.46322 76.5872C7.35227 76.5404 7.24229 76.4923 7.13319 76.4423C7.05088 76.4047 6.96913 76.3666 6.88803 76.3274C6.78054 76.2748 6.67466 76.2211 6.56934 76.1664C6.48985 76.1246 6.41068 76.0834 6.3324 76.04C6.22837 75.9828 6.12627 75.9225 6.02441 75.8622C5.9487 75.8173 5.87258 75.7729 5.7984 75.7261C5.6963 75.6626 5.5967 75.596 5.49701 75.5291C5.42629 75.4816 5.35468 75.4351 5.28525 75.386C5.18339 75.3144 5.08411 75.2386 4.98442 75.1632C4.92094 75.1148 4.85593 75.068 4.79333 75.0183C4.68616 74.9329 4.58181 74.8436 4.47778 74.7543C4.42661 74.711 4.37375 74.6682 4.32322 74.6239C4.17043 74.4872 4.02086 74.3473 3.87564 74.2015C2.61689 72.9431 1.70458 71.405 1.1203 69.6371C0.990526 69.2445 0.876759 68.8398 0.779004 68.4249C0.68157 68.0098 0.599826 67.5839 0.533851 67.148C0.468118 66.7118 0.418155 66.2651 0.383639 65.8088C0.349042 65.3528 0.330215 64.8867 0.326756 64.4115C0.319836 63.4614 0.374466 62.4742 0.489198 61.4547C0.546403 60.9449 0.618975 60.427 0.70603 59.9015C0.749718 59.6388 0.796866 59.3742 0.847796 59.1076C1.00058 58.3081 1.1866 57.4922 1.40472 56.6611C1.98707 54.447 2.79952 52.1282 3.82946 49.7394C4.08684 49.1424 4.35806 48.5414 4.64248 47.9356C5.0693 47.028 5.5263 46.1116 6.0125 45.1879C6.7803 43.7309 7.62317 42.2561 8.53523 40.7725C9.67266 42.4781 10.8921 44.179 12.1866 45.867C9.29081 51.2697 7.65334 56.3055 7.50595 60.4104C7.49935 60.5983 7.49557 60.7846 7.49524 60.9688C7.49372 61.5213 7.52075 62.0559 7.57667 62.571C7.63259 63.0858 7.71747 63.5815 7.83188 64.0557C7.90791 64.3722 7.99746 64.6789 8.10028 64.9763C8.51102 66.1649 9.13488 67.197 9.98314 68.0459C10.0888 68.1512 10.1975 68.2533 10.3091 68.3524C10.3411 68.3806 10.375 68.407 10.4075 68.4343C10.4882 68.5035 10.5684 68.573 10.652 68.6386C10.6906 68.6694 10.7318 68.6968 10.7711 68.7266C10.8505 68.7867 10.9295 68.847 11.0112 68.9042C11.0564 68.9357 11.1039 68.9639 11.1501 68.9944C11.2284 69.0465 11.3063 69.0997 11.3867 69.1487C11.4355 69.1786 11.4861 69.2053 11.5354 69.2342C11.6162 69.2808 11.696 69.3291 11.7787 69.3734C11.8299 69.4008 11.8836 69.4256 11.9358 69.4523C12.0185 69.4948 12.1008 69.5375 12.1853 69.5777C12.2419 69.6041 12.3007 69.6277 12.3579 69.6525C12.4409 69.6896 12.5229 69.7273 12.6074 69.7612C12.6678 69.7861 12.7297 69.8072 12.7907 69.8304C12.8752 69.8625 12.9588 69.8954 13.0449 69.9253C13.1068 69.947 13.1706 69.9655 13.2335 69.9856C13.3209 70.0146 13.4076 70.0435 13.4969 70.0702C13.5616 70.0888 13.6283 70.1048 13.6936 70.1224C13.7832 70.1466 13.8718 70.1724 13.9626 70.194C14.0315 70.211 14.1021 70.2245 14.172 70.2399C14.2618 70.26 14.3511 70.2808 14.4426 70.2987C14.5158 70.3132 14.5909 70.3244 14.6651 70.3373C14.755 70.3534 14.8442 70.3704 14.9357 70.3839C15.0136 70.3958 15.0935 70.4049 15.1723 70.4153C15.2622 70.4266 15.3512 70.4401 15.4423 70.4499C15.5234 70.4587 15.6067 70.4652 15.6887 70.4725C15.7798 70.4804 15.87 70.4901 15.9621 70.4964C16.0464 70.503 16.1325 70.5055 16.2174 70.5102C16.3097 70.5149 16.4012 70.5215 16.4945 70.5247C16.5809 70.5272 16.6693 70.5272 16.757 70.5287C16.844 70.5303 16.9301 70.5335 17.0185 70.5335C17.0238 70.5335 17.0294 70.5328 17.0351 70.5328C17.2787 70.5328 17.5266 70.5256 17.7771 70.5143C17.8397 70.5112 17.9029 70.5077 17.9657 70.5046C18.1983 70.4916 18.4331 70.4747 18.6715 70.453C18.6961 70.4508 18.7206 70.4489 18.7452 70.4467C19.0047 70.4216 19.2681 70.3895 19.534 70.3534C19.6 70.3446 19.666 70.3358 19.732 70.3261C19.9799 70.2899 20.2298 70.2503 20.4828 70.206C20.5073 70.2013 20.5312 70.1981 20.5557 70.1931C20.8295 70.1441 21.107 70.0878 21.3864 70.0275C21.4555 70.013 21.525 69.9976 21.5945 69.9825C21.8553 69.9238 22.118 69.8625 22.3839 69.7949C22.4088 69.7886 22.4332 69.783 22.4581 69.7764C22.7447 69.7032 23.0348 69.6236 23.3268 69.54C23.3984 69.5199 23.4707 69.4982 23.5427 69.4772C23.8165 69.3967 24.0915 69.3131 24.3693 69.2239C24.3938 69.2157 24.418 69.2084 24.4428 69.2003C24.7404 69.1038 25.0415 69.0007 25.3442 68.8948C25.4193 68.8681 25.4947 68.8407 25.5702 68.8134C25.8556 68.7112 26.1422 68.605 26.4313 68.494C26.4542 68.485 26.4769 68.4771 26.4998 68.4683C26.8081 68.3491 27.1193 68.2228 27.4316 68.094C27.5093 68.0619 27.5872 68.0289 27.6652 67.9969C27.9609 67.8721 28.2583 67.7448 28.5575 67.6113C28.5791 67.6018 28.6005 67.5927 28.6222 67.5833C28.9396 67.4415 29.2589 67.2935 29.5798 67.1423C29.66 67.1053 29.7404 67.0666 29.8209 67.028C30.1264 66.8824 30.4331 66.7328 30.7417 66.5782C30.7612 66.5688 30.7803 66.5596 30.8002 66.5492C31.1255 66.3858 31.4526 66.2165 31.7811 66.0436C31.8625 66.0005 31.9442 65.9572 32.0259 65.9135C32.0711 65.8892 32.1167 65.8657 32.162 65.8415C32.431 65.6973 32.701 65.5504 32.9719 65.3999C32.9898 65.3898 33.0074 65.3804 33.0257 65.3704C33.3575 65.1856 33.6913 64.9945 34.0257 64.8003C34.0373 64.7937 34.0489 64.7871 34.0609 64.7801C34.4506 65.0737 34.4512 65.0734 34.0615 64.7798C34.1323 64.739 34.203 64.6972 34.2734 64.6557C34.5946 64.4674 34.9164 64.276 35.2391 64.0796C35.2561 64.0692 35.2727 64.0595 35.2897 64.0491C35.6264 63.8435 35.9642 63.6323 36.3027 63.418C36.3872 63.3646 36.4715 63.3108 36.556 63.2568C36.8829 63.0478 37.2103 62.836 37.5385 62.6191C37.5532 62.6091 37.568 62.5997 37.5828 62.5899C37.9235 62.3643 38.2648 62.1329 38.6067 61.8985C38.6916 61.84 38.7767 61.7816 38.8619 61.7225C38.9634 61.6521 39.0649 61.5829 39.1668 61.5119C39.2771 61.5889 39.2784 61.587 39.169 61.5103C39.3988 61.3497 39.6288 61.1873 39.8588 61.0229C39.8714 61.0138 39.884 61.0053 39.8965 60.9962C40.2269 60.7601 40.5578 60.5184 40.8887 60.2742C40.9016 60.2648 40.9145 60.2551 40.9274 60.2457C41.0126 60.1825 41.0981 60.1189 41.1835 60.0555C41.5198 59.805 41.8562 59.5524 42.1924 59.294C42.2021 59.2865 42.2119 59.2792 42.2217 59.2716C42.5661 59.007 42.9109 58.7368 43.2553 58.4639C43.3412 58.3958 43.4269 58.3276 43.513 58.259C43.8515 57.9884 44.1906 57.7153 44.5291 57.4369C44.536 57.4312 44.5429 57.4256 44.5502 57.4199C44.8943 57.1364 45.2388 56.8478 45.5826 56.5557C45.6681 56.4833 45.7536 56.4109 45.8391 56.3377C46.1804 56.0464 46.5214 55.752 46.862 55.4535C46.8652 55.4503 46.8686 55.447 46.8721 55.4446C47.215 55.1429 47.5576 54.8364 47.8995 54.5266C47.985 54.4494 48.0705 54.3713 48.1559 54.2941C48.4954 53.9843 48.8349 53.6722 49.1733 53.3552C49.1758 53.3527 49.1783 53.3495 49.1809 53.3479C49.5215 53.0277 49.861 52.7034 50.2001 52.376C50.2837 52.2955 50.367 52.2151 50.4506 52.1338C50.7897 51.8039 51.1282 51.4717 51.4654 51.1345C52.7021 49.8987 53.888 48.6476 55.0213 47.3884C55.0681 47.3361 55.1149 47.2839 55.1614 47.2324C55.5957 46.7472 56.0232 46.2612 56.4418 45.7745C56.8479 45.303 57.2454 44.8299 57.6364 44.3568C57.929 44.002 58.2172 43.6472 58.5013 43.2932C58.8732 42.8289 59.2386 42.3647 59.595 41.9005C59.9081 41.4934 60.5665 40.6099 60.5926 40.5745Z" fill="url(#paint2_linear_836_8250)"/>
</g>
<path d="M8.29561 89.6766C7.3323 89.6766 6.55162 89.7436 5.95383 89.8771C5.35603 90.0113 4.88777 90.2784 4.54897 90.6801C4.20984 91.0815 3.98263 91.639 3.86669 92.3527C3.75067 93.0664 3.6929 93.9939 3.6929 95.1357V97.2229C3.6929 98.3468 3.75984 99.2654 3.8934 99.9791C4.02728 100.693 4.26801 101.249 4.61591 101.651C4.9638 102.053 5.43625 102.325 6.03428 102.468C6.63176 102.61 7.40302 102.682 8.34904 102.682C8.6699 102.682 8.99519 102.682 9.32546 102.682C9.6555 102.682 10.0213 102.682 10.4227 102.682C10.824 102.682 11.2612 102.677 11.7339 102.668C12.2062 102.659 12.7462 102.647 13.3527 102.628L12.7641 105.705C11.7113 105.741 10.8149 105.759 10.0751 105.759C9.33431 105.759 8.72364 105.759 8.24187 105.759C6.67167 105.759 5.36046 105.607 4.30824 105.304C3.25538 105.001 2.4084 104.515 1.76628 103.845C1.12391 103.177 0.669161 102.298 0.401319 101.209C0.13388 100.122 0 98.7836 0 97.1962V95.1357C0 93.5297 0.14273 92.183 0.428353 91.0952C0.713091 90.0066 1.18143 89.1278 1.83289 88.4594C2.48411 87.7899 3.33173 87.3129 4.37518 87.0272C5.41863 86.7424 6.69838 86.5991 8.21515 86.5991C8.8214 86.5991 9.50368 86.5991 10.2624 86.5991C11.0201 86.5991 11.997 86.6176 13.1922 86.6531L12.6035 89.7306C11.997 89.7131 11.2963 89.6992 10.5028 89.6904C9.70924 89.6816 8.97314 89.6766 8.29561 89.6766Z" fill="#212C57"/>
<path d="M26.5995 92.5668C26.5995 91.9603 26.5413 91.4694 26.4257 91.0954C26.3094 90.7204 26.122 90.426 25.8637 90.2119C25.6048 89.9979 25.2571 89.8555 24.82 89.7839C24.3825 89.7132 23.8435 89.6767 23.2011 89.6767H19.4281V95.6708H23.2011C23.8435 95.6708 24.3825 95.6306 24.82 95.5501C25.2571 95.4697 25.6048 95.3231 25.8637 95.1085C26.122 94.8945 26.3094 94.601 26.4257 94.226C26.5413 93.851 26.5995 93.3611 26.5995 92.7542V92.5668ZM23.121 98.6678H19.4281V105.706H15.8691V86.6532H23.2816C25.6717 86.6532 27.4157 87.0855 28.5128 87.9509C29.61 88.8168 30.1584 90.2481 30.1584 92.2456V93.0487C30.1584 94.4576 29.8552 95.5768 29.2489 96.4062C28.642 97.2366 27.7409 97.8296 26.546 98.186L31.0149 105.706H27.0545L23.121 98.6678Z" fill="#212C57"/>
<path d="M46.6679 86.6532L46.0526 89.7307H36.7407V94.4133H45.892L45.3034 97.4908H36.7407V102.628H46.6947L46.106 105.706H33.1816V86.6532H46.6679Z" fill="#212C57"/>
<path d="M57.8253 94.7341C58.699 94.8943 59.4394 95.1131 60.0461 95.39C60.6523 95.6669 61.1341 96.0182 61.4911 96.4463C61.8475 96.8753 62.1065 97.3838 62.2671 97.9718C62.4277 98.5608 62.5078 99.239 62.5078 100.006V100.434C62.5078 101.344 62.3875 102.129 62.1467 102.789C61.906 103.449 61.4999 104.002 60.9292 104.448C60.3581 104.894 59.6045 105.223 58.6679 105.437C57.7317 105.651 56.5675 105.759 55.1759 105.759C54.498 105.759 53.6374 105.759 52.5937 105.759C51.5503 105.759 50.1809 105.741 48.4863 105.705L49.0479 102.682C49.7617 102.699 50.3994 102.713 50.9613 102.722C51.5233 102.731 52.0494 102.735 52.5402 102.735C53.0305 102.735 53.49 102.735 53.9184 102.735C54.3465 102.735 54.7833 102.735 55.2296 102.735C55.9786 102.735 56.5896 102.699 57.0626 102.628C57.5349 102.557 57.9095 102.433 58.1864 102.254C58.463 102.075 58.6503 101.839 58.7484 101.544C58.8461 101.249 58.8955 100.871 58.8955 100.407C58.8955 100.015 58.8688 99.68 58.8153 99.404C58.7619 99.1272 58.6503 98.8946 58.4806 98.7079C58.3109 98.5205 58.0701 98.3694 57.7584 98.2525C57.446 98.1368 57.0311 98.0347 56.5141 97.9451L53.276 97.4102C52.3127 97.2493 51.5233 97.0265 50.9078 96.7407C50.2925 96.456 49.8063 96.1037 49.4496 95.6844C49.0926 95.2652 48.8474 94.7705 48.7135 94.1992C48.58 93.6278 48.513 92.9769 48.513 92.2455V91.7637C48.513 90.9608 48.6378 90.2382 48.8876 89.5962C49.1372 88.954 49.5385 88.4144 50.0917 87.9775C50.6445 87.5407 51.3714 87.2009 52.2728 86.9605C53.1733 86.7198 54.2839 86.5991 55.6043 86.5991C56.1034 86.5991 56.5675 86.5991 56.9956 86.5991C57.4237 86.5991 57.8784 86.5991 58.3605 86.5991C58.842 86.5991 59.3678 86.6041 59.9392 86.6129C60.5099 86.6217 61.1788 86.6356 61.9459 86.6531L61.3839 89.6766C60.0461 89.6414 58.9178 89.6234 57.9991 89.6234C57.0801 89.6234 56.2196 89.6234 55.4169 89.6234C54.7387 89.6234 54.1859 89.659 53.7575 89.7306C53.3294 89.8013 52.9903 89.922 52.7411 90.0911C52.4909 90.2608 52.3168 90.4883 52.2191 90.774C52.1211 91.0597 52.072 91.4162 52.072 91.8442C52.072 92.2191 52.0987 92.5312 52.1521 92.7808C52.2055 93.0309 52.3127 93.245 52.4733 93.4229C52.6337 93.6014 52.8655 93.7485 53.1692 93.8644C53.4724 93.9804 53.865 94.0744 54.3465 94.1454L57.8253 94.7341Z" fill="#212C57"/>
<path d="M80.4912 86.6532L79.903 89.7307H73.8285V105.706H70.2691V89.7307H63.7402L64.3289 86.6532H80.4912Z" fill="#212C57"/>
<defs>
<linearGradient id="paint0_linear_836_8250" x1="120.715" y1="65.9471" x2="132.172" y2="65.9471" gradientUnits="userSpaceOnUse">
<stop stop-color="#52C4AC"/>
<stop offset="1" stop-color="#50B4E9"/>
</linearGradient>
<linearGradient id="paint1_linear_836_8250" x1="0.400469" y1="38.8946" x2="78.1519" y2="38.8946" gradientUnits="userSpaceOnUse">
<stop stop-color="#52C4AC"/>
<stop offset="1" stop-color="#50B4E9"/>
</linearGradient>
<linearGradient id="paint2_linear_836_8250" x1="0.326273" y1="38.8753" x2="78.0782" y2="38.8753" gradientUnits="userSpaceOnUse">
<stop stop-color="#212C57"/>
<stop offset="0.378094" stop-color="#212C57"/>
<stop offset="1" stop-color="#4FB4E9"/>
</linearGradient>
</defs>
</svg>
