<svg width="46" height="46" viewBox="0 0 46 46" fill="none" xmlns="http://www.w3.org/2000/svg">
<g clip-path="url(#clip0_383_680)">
<path d="M40.6667 6.1373V4.66797C40.6667 3.6071 40.2452 2.58969 39.4951 1.83954C38.7449 1.0894 37.7275 0.667969 36.6667 0.667969H9.99999C8.93912 0.667969 7.92171 1.0894 7.17156 1.83954C6.42142 2.58969 5.99999 3.6071 5.99999 4.66797V6.1373C4.49462 6.44458 3.14159 7.26239 2.16976 8.4524C1.19793 9.6424 0.666957 11.1316 0.666656 12.668V34.0013C0.666656 35.7694 1.36904 37.4651 2.61928 38.7153C3.86952 39.9656 5.56521 40.668 7.33332 40.668H15.8427L14.5093 43.3346H12.6667C12.313 43.3346 11.9739 43.4751 11.7238 43.7252C11.4738 43.9752 11.3333 44.3143 11.3333 44.668C11.3333 45.0216 11.4738 45.3607 11.7238 45.6108C11.9739 45.8608 12.313 46.0013 12.6667 46.0013H34C34.3536 46.0013 34.6928 45.8608 34.9428 45.6108C35.1928 45.3607 35.3333 45.0216 35.3333 44.668C35.3333 44.3143 35.1928 43.9752 34.9428 43.7252C34.6928 43.4751 34.3536 43.3346 34 43.3346H32.1573L30.824 40.668H39.3333C41.1014 40.668 42.7971 39.9656 44.0474 38.7153C45.2976 37.4651 46 35.7694 46 34.0013V12.668C45.9997 11.1316 45.4687 9.6424 44.4969 8.4524C43.5251 7.26239 42.172 6.44458 40.6667 6.1373ZM8.66666 4.66797C8.66666 4.31435 8.80713 3.97521 9.05718 3.72516C9.30723 3.47511 9.64637 3.33464 9.99999 3.33464H36.6667C37.0203 3.33464 37.3594 3.47511 37.6095 3.72516C37.8595 3.97521 38 4.31435 38 4.66797V10.0013C38 10.3549 37.8595 10.6941 37.6095 10.9441C37.3594 11.1942 37.0203 11.3346 36.6667 11.3346H28.6667C28.313 11.3346 27.9739 11.4751 27.7238 11.7252C27.4738 11.9752 27.3333 12.3143 27.3333 12.668V14.3133L22.6853 11.524C22.4787 11.399 22.2415 11.3335 22 11.3346H9.99999C9.64637 11.3346 9.30723 11.1942 9.05718 10.9441C8.80713 10.6941 8.66666 10.3549 8.66666 10.0013V4.66797ZM3.33332 12.668C3.33674 11.8436 3.59477 11.0405 4.07211 10.3684C4.54945 9.69628 5.22278 9.18808 5.99999 8.9133V10.0013C5.99999 11.0622 6.42142 12.0796 7.17156 12.8297C7.92171 13.5799 8.93912 14.0013 9.99999 14.0013H21.6293L22 14.2226V32.668H19.3333C19.3341 31.5769 19.067 30.5022 18.5556 29.5384C18.0442 28.5746 17.304 27.751 16.4 27.14C17.1588 26.3993 17.6796 25.4493 17.8959 24.4113C18.1121 23.3732 18.0141 22.2943 17.6143 21.3122C17.2144 20.3302 16.5309 19.4896 15.6511 18.8979C14.7713 18.3061 13.735 17.99 12.6747 17.99C11.6143 17.99 10.5781 18.3061 9.69822 18.8979C8.81837 19.4896 8.13488 20.3302 7.73504 21.3122C7.33521 22.2943 7.23717 23.3732 7.45346 24.4113C7.66975 25.4493 8.19054 26.3993 8.94932 27.14C8.04238 27.7492 7.29906 28.572 6.78477 29.5359C6.27048 30.4998 6.00098 31.5754 5.99999 32.668H3.33332V12.668ZM12.6667 28.668C13.7275 28.668 14.7449 29.0894 15.4951 29.8395C16.2452 30.5897 16.6667 31.6071 16.6667 32.668H8.66666C8.66666 31.6071 9.08808 30.5897 9.83823 29.8395C10.5884 29.0894 11.6058 28.668 12.6667 28.668ZM9.99999 23.3346C9.99999 22.8072 10.1564 22.2916 10.4494 21.8531C10.7424 21.4146 11.1589 21.0728 11.6462 20.871C12.1334 20.6691 12.6696 20.6163 13.1869 20.7192C13.7042 20.8221 14.1793 21.0761 14.5523 21.449C14.9252 21.822 15.1792 22.2971 15.2821 22.8144C15.385 23.3317 15.3322 23.8679 15.1303 24.3551C14.9285 24.8424 14.5867 25.2589 14.1482 25.5519C13.7096 25.8449 13.1941 26.0013 12.6667 26.0013C11.9594 26.0013 11.2811 25.7204 10.781 25.2203C10.2809 24.7202 9.99999 24.0419 9.99999 23.3346ZM17.4907 43.3346L18.824 40.668H27.8427L29.176 43.3346H17.4907ZM39.3333 38.0013H7.33332C6.50898 37.9979 5.70582 37.7399 5.03372 37.2625C4.36163 36.7852 3.85343 36.1118 3.57866 35.3346H43.088C42.8132 36.1118 42.305 36.7852 41.6329 37.2625C40.9608 37.7399 40.1577 37.9979 39.3333 38.0013ZM34 28.668C35.0609 28.668 36.0783 29.0894 36.8284 29.8395C37.5786 30.5897 38 31.6071 38 32.668H30C30 31.6071 30.4214 30.5897 31.1716 29.8395C31.9217 29.0894 32.9391 28.668 34 28.668ZM31.3333 23.3346C31.3333 22.8072 31.4897 22.2916 31.7827 21.8531C32.0758 21.4146 32.4922 21.0728 32.9795 20.871C33.4668 20.6691 34.003 20.6163 34.5202 20.7192C35.0375 20.8221 35.5127 21.0761 35.8856 21.449C36.2586 21.822 36.5125 22.2971 36.6154 22.8144C36.7183 23.3317 36.6655 23.8679 36.4637 24.3551C36.2618 24.8424 35.92 25.2589 35.4815 25.5519C35.043 25.8449 34.5274 26.0013 34 26.0013C33.2927 26.0013 32.6145 25.7204 32.1144 25.2203C31.6143 24.7202 31.3333 24.0419 31.3333 23.3346ZM43.3333 32.668H40.6667C40.6674 31.5769 40.4004 30.5022 39.8889 29.5384C39.3775 28.5746 38.6373 27.751 37.7333 27.14C38.4921 26.3993 39.0129 25.4493 39.2292 24.4113C39.4455 23.3732 39.3474 22.2943 38.9476 21.3122C38.5478 20.3302 37.8643 19.4896 36.9844 18.8979C36.1046 18.3061 35.0683 17.99 34.008 17.99C32.9477 17.99 31.9114 18.3061 31.0316 18.8979C30.1517 19.4896 29.4682 20.3302 29.0684 21.3122C28.6685 22.2943 28.5705 23.3732 28.7868 24.4113C29.0031 25.4493 29.5239 26.3993 30.2827 27.14C29.3757 27.7492 28.6324 28.572 28.1181 29.5359C27.6038 30.4998 27.3343 31.5754 27.3333 32.668H24.6667V15.8226L27.9813 17.812C28.1837 17.9332 28.4146 17.9986 28.6505 18.0015C28.8864 18.0043 29.1188 17.9446 29.324 17.8283C29.5293 17.7119 29.7 17.5433 29.8187 17.3394C29.9375 17.1356 30 16.9039 30 16.668V14.0013H36.6667C37.7275 14.0013 38.7449 13.5799 39.4951 12.8297C40.2452 12.0796 40.6667 11.0622 40.6667 10.0013V8.9133C41.4439 9.18808 42.1172 9.69628 42.5945 10.3684C43.0719 11.0405 43.3299 11.8436 43.3333 12.668V32.668ZM11.3333 7.33464C11.3333 6.98101 11.4738 6.64188 11.7238 6.39183C11.9739 6.14178 12.313 6.0013 12.6667 6.0013H34C34.3536 6.0013 34.6928 6.14178 34.9428 6.39183C35.1928 6.64188 35.3333 6.98101 35.3333 7.33464C35.3333 7.68826 35.1928 8.0274 34.9428 8.27744C34.6928 8.52749 34.3536 8.66797 34 8.66797H12.6667C12.313 8.66797 11.9739 8.52749 11.7238 8.27744C11.4738 8.0274 11.3333 7.68826 11.3333 7.33464Z" fill="url(#paint0_linear_383_680)"/>
</g>
<defs>
<linearGradient id="paint0_linear_383_680" x1="1.64061" y1="44.4902" x2="54.0515" y2="25.2851" gradientUnits="userSpaceOnUse">
<stop stop-color="#6549F6"/>
<stop offset="0.79" stop-color="#FF611D"/>
</linearGradient>
<clipPath id="clip0_383_680">
<rect width="46" height="46" fill="white"/>
</clipPath>
</defs>
</svg>
