<svg width="49" height="48" viewBox="0 0 49 48" fill="none" xmlns="http://www.w3.org/2000/svg">
<g clip-path="url(#clip0_244_12643)">
<path d="M29.4903 16.755C29.25 16.755 29.0093 16.6632 28.8258 16.4798C24.6278 12.2814 17.796 12.2814 13.598 16.4798C13.2311 16.8467 12.6363 16.8467 12.2693 16.4798C11.9024 16.1132 11.9024 15.5184 12.2693 15.1515C17.2001 10.2203 25.2233 10.2203 30.1545 15.1515C30.5214 15.518 30.5214 16.1128 30.1545 16.4798C29.971 16.6632 29.7307 16.755 29.4903 16.755Z" fill="url(#paint0_linear_244_12643)"/>
<path d="M32.7035 13.5419C32.4617 13.5419 32.2202 13.4494 32.0364 13.2641L32.025 13.2528C31.6566 12.8873 31.6541 12.2925 32.0195 11.9241C32.385 11.5561 32.9798 11.5535 33.3478 11.919L33.3702 11.941C33.7356 12.3094 33.7331 12.9042 33.3647 13.2696C33.1816 13.4513 32.9423 13.5419 32.7035 13.5419Z" fill="url(#paint1_linear_244_12643)"/>
<path d="M9.71863 13.542C9.47829 13.542 9.23796 13.4503 9.05449 13.2668C8.68757 12.9002 8.68757 12.3054 9.05449 11.9385C11.8395 9.15354 15.3759 7.44989 19.2815 7.01105C23.0719 6.58541 26.9407 7.44145 30.1759 9.42103C30.6181 9.69182 30.7575 10.2701 30.4867 10.7126C30.2159 11.1551 29.6377 11.2942 29.1951 11.0234C23.1434 7.32 15.4075 8.24209 10.3828 13.2668C10.1997 13.4503 9.95897 13.542 9.71863 13.542Z" fill="url(#paint2_linear_244_12643)"/>
<path d="M21.2117 36.6885C17.9732 36.6885 14.7347 35.4559 12.2693 32.9902C11.9024 32.6236 11.9024 32.0288 12.2693 31.6619C12.6363 31.295 13.2311 31.295 13.598 31.6619C17.796 35.8603 24.6278 35.8603 28.8258 31.6619C29.1928 31.295 29.7876 31.295 30.1545 31.6619C30.5214 32.0288 30.5214 32.6236 30.1545 32.9902C27.6891 35.4559 24.4502 36.6885 21.2117 36.6885Z" fill="url(#paint3_linear_244_12643)"/>
<path d="M21.2223 41.2381C17.8638 41.2381 14.5523 40.2554 11.7497 38.405C11.3171 38.1192 11.1978 37.5361 11.4837 37.1035C11.7695 36.6705 12.3522 36.5517 12.7852 36.8371C18.8197 40.8223 26.917 39.9967 32.0393 34.8748C32.4059 34.5079 33.0007 34.5079 33.3676 34.8748C33.7345 35.2417 33.7345 35.8365 33.3676 36.2031C30.55 39.0207 26.818 40.7812 22.8581 41.1603C22.3132 41.212 21.7668 41.2381 21.2223 41.2381Z" fill="url(#paint4_linear_244_12643)"/>
<path d="M9.75214 36.5128C9.51363 36.5128 9.27513 36.4225 9.09203 36.2416L9.05241 36.2023C8.68731 35.8339 8.68988 35.2392 9.05828 34.8737C9.42667 34.5086 10.0211 34.5112 10.3866 34.8796L10.4119 34.9049C10.781 35.2692 10.785 35.864 10.4203 36.2335C10.2368 36.4192 9.99431 36.5128 9.75214 36.5128Z" fill="url(#paint5_linear_244_12643)"/>
<path d="M21.1984 27.543C19.2842 27.543 17.7266 25.9854 17.7266 24.0711C17.7266 22.1569 19.2842 20.5996 21.1984 20.5996C23.1127 20.5996 24.6699 22.1569 24.6699 24.0711C24.6699 25.9854 23.1127 27.543 21.1984 27.543ZM21.1984 22.4783C20.32 22.4783 19.6052 23.1927 19.6052 24.0711C19.6052 24.9495 20.32 25.6643 21.1984 25.6643C22.0769 25.6643 22.7913 24.9495 22.7913 24.0711C22.7913 23.1927 22.0769 22.4783 21.1984 22.4783Z" fill="url(#paint6_linear_244_12643)"/>
<path d="M3.47187 33.2652C1.55724 33.2652 0 31.7079 0 29.7937V18.3488C0 16.4346 1.55724 14.877 3.47187 14.877C5.38613 14.877 6.94337 16.4346 6.94337 18.3488V29.7937C6.94337 31.7079 5.38613 33.2652 3.47187 33.2652ZM3.47187 16.7556C2.59344 16.7556 1.87867 17.4704 1.87867 18.3488V29.7937C1.87867 30.6721 2.59344 31.3865 3.47187 31.3865C4.34993 31.3865 5.0647 30.6721 5.0647 29.7937V18.3488C5.0647 17.4704 4.34993 16.7556 3.47187 16.7556Z" fill="url(#paint7_linear_244_12643)"/>
<path d="M40.9823 33.266C39.3006 33.266 37.9324 31.8981 37.9324 30.2165V21.0444H36.9197C35.2384 21.0444 33.8701 19.6761 33.8701 17.9948C33.8701 16.3132 35.2384 14.9453 36.9197 14.9453H45.0445C46.7262 14.9453 48.0941 16.3132 48.0941 17.9948C48.0941 19.6761 46.7262 21.0444 45.0445 21.0444H44.0318V30.2165C44.0318 31.8981 42.6635 33.266 40.9823 33.266ZM36.9197 16.824C36.2742 16.824 35.7488 17.3491 35.7488 17.9948C35.7488 18.6406 36.2742 19.1657 36.9197 19.1657H38.8717C39.3905 19.1657 39.811 19.5862 39.811 20.105V30.2165C39.811 30.8623 40.3365 31.3873 40.9823 31.3873C41.6277 31.3873 42.1531 30.8623 42.1531 30.2165V20.105C42.1531 19.5862 42.5736 19.1657 43.0925 19.1657H45.0445C45.6903 19.1657 46.2154 18.6403 46.2154 17.9948C46.2154 17.3491 45.6903 16.824 45.0445 16.824H36.9197Z" fill="url(#paint8_linear_244_12643)"/>
<path d="M21.1978 32.1007C16.7701 32.1007 13.168 28.4986 13.168 24.0709C13.168 19.6435 16.7701 16.041 21.1978 16.041C25.6255 16.041 29.2277 19.6435 29.2277 24.0709C29.2277 28.4986 25.6255 32.1007 21.1978 32.1007ZM21.1978 17.9197C17.8059 17.9197 15.0466 20.679 15.0466 24.0709C15.0466 27.4627 17.8059 30.222 21.1978 30.222C24.5893 30.222 27.349 27.4627 27.349 24.0709C27.349 20.679 24.5893 17.9197 21.1978 17.9197Z" fill="url(#paint9_linear_244_12643)"/>
</g>
<defs>
<linearGradient id="paint0_linear_244_12643" x1="-2.3916" y1="41.6782" x2="35.4014" y2="-20.8868" gradientUnits="userSpaceOnUse">
<stop stop-color="#C01E6C"/>
<stop offset="1" stop-color="#FF9A3C"/>
</linearGradient>
<linearGradient id="paint1_linear_244_12643" x1="-2.3916" y1="41.6782" x2="35.4014" y2="-20.8868" gradientUnits="userSpaceOnUse">
<stop stop-color="#C01E6C"/>
<stop offset="1" stop-color="#FF9A3C"/>
</linearGradient>
<linearGradient id="paint2_linear_244_12643" x1="-2.3916" y1="41.6782" x2="35.4014" y2="-20.8868" gradientUnits="userSpaceOnUse">
<stop stop-color="#C01E6C"/>
<stop offset="1" stop-color="#FF9A3C"/>
</linearGradient>
<linearGradient id="paint3_linear_244_12643" x1="-2.3916" y1="41.6782" x2="35.4014" y2="-20.8868" gradientUnits="userSpaceOnUse">
<stop stop-color="#C01E6C"/>
<stop offset="1" stop-color="#FF9A3C"/>
</linearGradient>
<linearGradient id="paint4_linear_244_12643" x1="-2.3916" y1="41.6782" x2="35.4014" y2="-20.8868" gradientUnits="userSpaceOnUse">
<stop stop-color="#C01E6C"/>
<stop offset="1" stop-color="#FF9A3C"/>
</linearGradient>
<linearGradient id="paint5_linear_244_12643" x1="-2.3916" y1="41.6782" x2="35.4014" y2="-20.8868" gradientUnits="userSpaceOnUse">
<stop stop-color="#C01E6C"/>
<stop offset="1" stop-color="#FF9A3C"/>
</linearGradient>
<linearGradient id="paint6_linear_244_12643" x1="-2.3916" y1="41.6782" x2="35.4014" y2="-20.8868" gradientUnits="userSpaceOnUse">
<stop stop-color="#C01E6C"/>
<stop offset="1" stop-color="#FF9A3C"/>
</linearGradient>
<linearGradient id="paint7_linear_244_12643" x1="-2.3916" y1="41.6782" x2="35.4014" y2="-20.8868" gradientUnits="userSpaceOnUse">
<stop stop-color="#C01E6C"/>
<stop offset="1" stop-color="#FF9A3C"/>
</linearGradient>
<linearGradient id="paint8_linear_244_12643" x1="-2.3916" y1="41.6782" x2="35.4014" y2="-20.8868" gradientUnits="userSpaceOnUse">
<stop stop-color="#C01E6C"/>
<stop offset="1" stop-color="#FF9A3C"/>
</linearGradient>
<linearGradient id="paint9_linear_244_12643" x1="-2.3916" y1="41.6782" x2="35.4014" y2="-20.8868" gradientUnits="userSpaceOnUse">
<stop stop-color="#C01E6C"/>
<stop offset="1" stop-color="#FF9A3C"/>
</linearGradient>
<clipPath id="clip0_244_12643">
<rect width="48.0939" height="48" fill="white"/>
</clipPath>
</defs>
</svg>
