<svg width="65" height="65" viewBox="0 0 65 65" fill="none" xmlns="http://www.w3.org/2000/svg">
<rect width="65" height="65" rx="8" fill="white" fill-opacity="0.1"/>
<path d="M33.0002 53.299C30.1538 53.299 27.7317 52.2963 25.7337 50.291C23.736 48.2856 22.7372 45.8553 22.7372 43V25.299C21.6212 25.243 20.6695 24.8175 19.8822 24.0225C19.0948 23.2271 18.7012 22.2715 18.7012 21.1555V16.8815C18.7012 15.7248 19.1163 14.737 19.9467 13.918C20.7767 13.0986 21.7745 12.689 22.9402 12.689H43.0717C44.2333 12.689 45.2303 13.0986 46.0627 13.918C46.895 14.737 47.3112 15.7248 47.3112 16.8815V21.1555C47.3112 22.2715 46.9155 23.2271 46.1242 24.0225C45.3328 24.8175 44.3832 25.243 43.2752 25.299V43C43.2752 45.8553 42.2743 48.2856 40.2727 50.291C38.2707 52.2963 35.8465 53.299 33.0002 53.299ZM22.0242 22.012H43.9882V16.012H22.0242V22.012ZM32.9872 49.976C34.9155 49.976 36.5583 49.2975 37.9157 47.9405C39.2733 46.5831 39.9522 44.9363 39.9522 43V42H34.4882C34.0312 42 33.649 41.8426 33.3417 41.528C33.0343 41.2133 32.8807 40.8271 32.8807 40.3695C32.8807 39.9115 33.0343 39.5288 33.3417 39.2215C33.649 38.9145 34.0312 38.761 34.4882 38.761H39.9522V34.036H34.4882C34.0312 34.036 33.649 33.8786 33.3417 33.564C33.0343 33.2493 32.8807 32.863 32.8807 32.405C32.8807 31.9473 33.0343 31.5648 33.3417 31.2575C33.649 30.9501 34.0312 30.7965 34.4882 30.7965H39.9522V25.335H26.0602V42.996C26.0602 44.935 26.7325 46.5831 28.0772 47.9405C29.4222 49.2975 31.0588 49.976 32.9872 49.976Z" fill="url(#paint0_linear_155_881)"/>
<defs>
<linearGradient id="paint0_linear_155_881" x1="42.7345" y1="41.9192" x2="21.1067" y2="41.8961" gradientUnits="userSpaceOnUse">
<stop stop-color="#F37A3A"/>
<stop offset="1" stop-color="#CA1C69"/>
</linearGradient>
</defs>
</svg>
