<svg width="64" height="64" viewBox="0 0 64 64" fill="none" xmlns="http://www.w3.org/2000/svg">
<path d="M16.3111 8.36645C16.5857 8.64111 16.9457 8.77778 17.3044 8.77778C17.6644 8.77778 18.0231 8.64045 18.2977 8.36645C18.8464 7.81778 18.8464 6.92911 18.2977 6.38045L14.9977 3.08045C14.4491 2.53178 13.5604 2.53178 13.0117 3.08045C12.4631 3.62911 12.4631 4.51778 13.0117 5.06645L16.3111 8.36645Z" fill="#C01E6C"/>
<path d="M46.6977 8.77851C47.0577 8.77851 47.4177 8.64118 47.6924 8.36718L50.9924 5.06718C51.5411 4.51851 51.5411 3.62984 50.9924 3.08118C50.4437 2.53251 49.5551 2.53251 49.0064 3.08118L45.7051 6.38118C45.1564 6.92984 45.1564 7.81851 45.7051 8.36718C45.9791 8.64118 46.3397 8.77851 46.6977 8.77851Z" fill="#C01E6C"/>
<path d="M31.595 14.299C32.857 14.275 34.037 14.9064 34.7064 15.9697C34.9737 16.395 35.4304 16.6264 35.8964 16.6264C36.1537 16.6264 36.411 16.5577 36.6444 16.4104C37.301 15.997 37.4984 15.129 37.085 14.4744C35.8877 12.5724 33.7324 11.4197 31.5177 11.4904C30.7424 11.511 30.1304 12.1577 30.151 12.933C30.1737 13.707 30.8237 14.2577 31.595 14.299Z" fill="#C01E6C"/>
<path d="M56.6404 16.8872C52.963 16.2852 49.195 16.2585 45.419 16.7418C44.9817 13.8205 43.661 11.1258 41.5017 9.02383C38.845 6.43783 35.3397 5.0605 31.6297 5.1685C25.0424 5.34317 19.583 10.3785 18.5884 16.7378C14.769 16.2345 10.8177 16.2825 7.3257 16.8925C5.93103 17.1585 4.95703 18.3332 4.95703 19.7498V57.5085C4.95703 58.0745 5.23503 58.6012 5.70503 58.9185C5.99636 59.1158 6.6017 59.2238 6.9537 59.1772L8.35303 58.9698C15.4844 57.9405 22.567 58.4878 29.4124 60.6078L31.5904 61.2752C31.7237 61.3152 31.863 61.3358 32.0017 61.3358C32.151 61.3358 32.8817 61.1178 32.8817 61.1178C40.179 58.5918 48.0257 57.8525 55.5837 58.9692C55.5837 58.9692 56.455 59.0232 56.7364 59.0925C57.2757 59.2265 57.8357 59.2332 58.299 58.9178C58.685 58.6572 59.047 57.9745 59.047 57.5078V19.7492C59.0464 18.3325 58.0724 17.1578 56.6404 16.8872ZM31.705 7.97717C31.8044 7.97383 31.9037 7.97383 32.0037 7.97383C34.8384 7.97383 37.5057 9.0545 39.541 11.0372C41.6504 13.0898 42.8117 15.8412 42.8117 18.7838C42.8117 21.7952 41.541 24.6925 39.323 26.7332C38.071 27.8872 37.3817 29.4018 37.3817 31.0005C37.3817 32.7518 35.9564 34.1765 34.2057 34.1765H33.405V26.7912C33.405 26.0158 32.7757 25.3865 32.0004 25.3865C31.225 25.3865 30.5957 26.0158 30.5957 26.7912V34.1758H29.795C28.0437 34.1758 26.619 32.7505 26.619 30.9998C26.619 29.3998 25.9297 27.8852 24.6777 26.7325C22.4364 24.6692 21.165 21.7398 21.189 18.6938C21.2364 12.9372 25.953 8.12983 31.705 7.97717ZM32.005 40.9645C30.153 40.9645 28.647 39.4572 28.647 37.6045V36.8692C29.019 36.9418 29.4017 36.9852 29.7944 36.9852H34.2057C34.5917 36.9852 34.969 36.9412 35.3344 36.8712V37.6045C35.3344 39.4572 33.8404 40.9645 32.005 40.9645ZM7.94503 56.1892L7.76836 56.2185L7.8317 19.6572C11.0764 19.0925 14.8517 19.0545 18.465 19.5525C18.6677 23.0678 20.1697 26.4052 22.775 28.8018C23.4424 29.4138 23.809 30.1965 23.809 31.0005C23.809 32.7785 24.603 34.3592 25.8364 35.4565V37.6052C25.8364 40.5212 27.8757 42.9558 30.597 43.5972V58.0325L30.2384 57.9232C22.9957 55.6765 15.4977 55.0945 7.94503 56.1892ZM56.237 56.2232L55.9864 56.1892C48.4764 55.0725 40.709 55.7665 33.4064 58.0578V43.5965C36.1164 42.9558 38.145 40.5212 38.145 37.6045V35.4718C39.3904 34.3745 40.191 32.7865 40.191 30.9998C40.191 30.1952 40.5597 29.4132 41.227 28.7992C43.827 26.4065 45.3377 23.0665 45.5404 19.5552C49.125 19.0752 52.7057 19.0985 56.237 19.7492V56.2232Z" fill="#C01E6C"/>
<path d="M13.4364 31.7378H17.9537C18.7291 31.7378 19.3584 31.1085 19.3584 30.3331C19.3584 29.5578 18.7291 28.9285 17.9537 28.9285H13.4364C12.6611 28.9285 12.0317 29.5578 12.0317 30.3331C12.0317 31.1078 12.6611 31.7378 13.4364 31.7378Z" fill="#C01E6C"/>
<path d="M13.4363 40.5545H21.4643C22.241 40.5545 22.869 39.9251 22.869 39.1498C22.869 38.3745 22.241 37.7451 21.4643 37.7451H13.4363C12.6597 37.7451 12.0297 38.3745 12.0297 39.1498C12.0297 39.9251 12.6597 40.5545 13.4363 40.5545Z" fill="#C01E6C"/>
<path d="M23.7503 45.9944H13.4363C12.6597 45.9944 12.0297 46.6237 12.0297 47.3991C12.0297 48.1744 12.659 48.8037 13.4363 48.8037H23.7503C24.5257 48.8037 25.155 48.1744 25.155 47.3991C25.155 46.6237 24.5257 45.9944 23.7503 45.9944Z" fill="#C01E6C"/>
<path d="M44.647 30.9005C44.647 31.6758 45.2763 32.3052 46.0536 32.3052H50.5696C51.345 32.3052 51.9743 31.6758 51.9743 30.9005C51.9743 30.1252 51.345 29.4958 50.5696 29.4958H46.0536C45.2763 29.4958 44.647 30.1252 44.647 30.9005Z" fill="#C01E6C"/>
<path d="M50.5671 37.7451H42.5391C41.7624 37.7451 41.1344 38.3745 41.1344 39.1498C41.1344 39.9251 41.7624 40.5545 42.5391 40.5545H50.5671C51.3437 40.5545 51.9737 39.9251 51.9737 39.1498C51.9737 38.3745 51.3437 37.7451 50.5671 37.7451Z" fill="#C01E6C"/>
<path d="M49.5623 45.9858H40.2496C39.4743 45.9858 38.845 46.6152 38.845 47.3905C38.845 48.1658 39.4743 48.7952 40.2496 48.7952H49.5623C50.3376 48.7952 50.967 48.1658 50.967 47.3905C50.967 46.6152 50.337 45.9858 49.5623 45.9858Z" fill="#C01E6C"/>
</svg>
