<svg width="64" height="64" viewBox="0 0 64 64" fill="none" xmlns="http://www.w3.org/2000/svg">
<path d="M22.625 23.9764V29.5171C22.625 35.5908 26.3659 40.985 32 43.1346C37.6341 40.985 41.375 35.5906 41.375 29.5171V23.9764L32 20.8508L22.625 23.9764ZM33.875 39.5H30.125V35.75H33.875V39.5ZM33.875 32H30.125V24.5H33.875V32Z" fill="url(#paint0_linear_828_17042)"/>
<path d="M47 0H17C13.8983 0 11.375 2.52325 11.375 5.625V58.375C11.375 61.4767 13.8983 64 17 64H47C50.1017 64 52.625 61.4767 52.625 58.375V5.625C52.625 2.52325 50.1017 0 47 0ZM28.25 7.5H35.75V11.25H28.25V7.5ZM35.75 56.5H28.25V52.75H35.75V56.5ZM45.125 29.5171C45.125 37.4181 40.0896 44.4054 32.5933 46.903L32 47.1007L31.4067 46.903C23.9104 44.4054 18.875 37.4181 18.875 29.5171V21.2738L32 16.8994L45.125 21.2738V29.5171Z" fill="url(#paint1_linear_828_17042)"/>
<defs>
<linearGradient id="paint0_linear_828_17042" x1="15.4222" y1="6.03989" x2="61.6246" y2="35.3402" gradientUnits="userSpaceOnUse">
<stop stop-color="#F94229"/>
<stop offset="1" stop-color="#BB0A55"/>
</linearGradient>
<linearGradient id="paint1_linear_828_17042" x1="15.4222" y1="6.03989" x2="61.6246" y2="35.3402" gradientUnits="userSpaceOnUse">
<stop stop-color="#F94229"/>
<stop offset="1" stop-color="#BB0A55"/>
</linearGradient>
</defs>
</svg>
