<svg width="48" height="45" viewBox="0 0 48 45" fill="none" xmlns="http://www.w3.org/2000/svg">
<path d="M37.6275 0.959969L36.9875 5.63197C35.3235 5.50397 34.1075 5.8453 33.3395 6.65597C32.5715 7.46664 32.1022 8.55464 31.9315 9.91997C31.7608 11.2853 31.7182 12.7573 31.8035 14.336H37.6275V27.84H26.6835V11.776C26.6835 7.85064 27.6648 4.90664 29.6275 2.94397C31.6328 0.981303 34.2995 0.319969 37.6275 0.959969ZM21.3715 0.959969L20.7315 5.63197C19.0675 5.50397 17.8515 5.8453 17.0835 6.65597C16.3155 7.46664 15.8462 8.55464 15.6755 9.91997C15.5048 11.2853 15.4622 12.7573 15.5475 14.336H21.3715V27.84H10.4275V11.776C10.4275 7.85064 11.4088 4.90664 13.3715 2.94397C15.3768 0.981303 18.0435 0.319969 21.3715 0.959969Z" fill="url(#paint0_linear_170_2054)"/>
<defs>
<linearGradient id="paint0_linear_170_2054" x1="40.3215" y1="53.6152" x2="4.03596" y2="53.5491" gradientUnits="userSpaceOnUse">
<stop stop-color="#F37A3A"/>
<stop offset="1" stop-color="#CA1C69"/>
</linearGradient>
</defs>
</svg>
