<svg width="48" height="48" viewBox="0 0 48 48" fill="none" xmlns="http://www.w3.org/2000/svg">
<mask id="path-1-inside-1_244_12541" fill="white">
<path d="M37.6408 29.9581C37.6408 28.2981 36.3008 26.9581 34.6408 26.9581H25.7208C26.4008 24.8181 26.4608 22.9581 25.9008 20.6581C25.4808 18.8981 23.9608 17.0781 22.1408 17.0781C20.5608 17.0781 19.2808 18.3581 19.2808 19.9381V22.6381C19.2808 25.0181 17.3408 26.9581 14.9608 26.9581H14.2208V25.9981C14.2208 25.4381 13.7808 24.9981 13.2208 24.9981H3.80078C3.24078 24.9981 2.80078 25.4381 2.80078 25.9981V43.9581C2.80078 44.5181 3.24078 44.9581 3.80078 44.9581H13.2208C13.7808 44.9581 14.2208 44.5181 14.2208 43.9581V42.9581H14.2608C14.9008 42.9581 15.5208 43.2181 15.9608 43.6581C16.8008 44.4981 17.9008 44.9581 19.0808 44.9581H32.2608C33.9208 44.9581 35.2608 43.6181 35.2608 41.9581C35.2608 41.5181 35.1608 41.0981 34.9808 40.7181C36.0608 40.2581 36.8008 39.1981 36.8008 37.9581C36.8008 37.3181 36.6008 36.7381 36.2608 36.2581C36.9208 35.6981 37.3608 34.8981 37.3608 33.9581C37.3608 33.2581 37.1008 32.6181 36.7008 32.1181C37.2608 31.5781 37.6208 30.8181 37.6208 29.9581H37.6408ZM12.2208 42.9581H4.80078V26.9981H12.2208V42.9581ZM32.2808 42.9581H19.1008C18.4608 42.9581 17.8608 42.6981 17.4008 42.2581C16.5808 41.4381 15.4408 40.9581 14.2808 40.9581H14.2408V28.9581H14.9808C18.4608 28.9581 21.3008 26.1181 21.3008 22.6381V19.9381C21.3008 19.4581 21.6808 19.0781 22.1608 19.0781C22.9208 19.0781 23.7608 20.1781 23.9808 21.1181C24.5408 23.4581 24.3608 25.1981 23.3808 27.5581C23.2608 27.8581 23.2808 28.2181 23.4608 28.4981C23.6408 28.7781 23.9608 28.9381 24.3008 28.9381H34.6608C35.2208 28.9381 35.6608 29.3781 35.6608 29.9381C35.6608 30.4981 35.2208 30.9381 34.6608 30.9381H28.4808C27.9208 30.9381 27.4808 31.3781 27.4808 31.9381C27.4808 32.4981 27.9208 32.9381 28.4808 32.9381H34.4008C34.9608 32.9381 35.4008 33.3781 35.4008 33.9381C35.4008 34.4981 34.9608 34.9381 34.4008 34.9381H28.4808C27.9208 34.9381 27.4808 35.3781 27.4808 35.9381C27.4808 36.4981 27.9208 36.9381 28.4808 36.9381H33.8408C34.4008 36.9381 34.8408 37.3781 34.8408 37.9381C34.8408 38.4981 34.4008 38.9381 33.8408 38.9381H28.3008C27.7408 38.9381 27.3008 39.3781 27.3008 39.9381C27.3008 40.4981 27.7408 40.9381 28.3008 40.9381H32.3008C32.8608 40.9381 33.3008 41.3781 33.3008 41.9381C33.3008 42.4981 32.8608 42.9381 32.3008 42.9381L32.2808 42.9581Z"/>
<path d="M8.5 38.7188C7.94 38.7188 7.5 39.1587 7.5 39.7188V40.4587C7.5 41.0187 7.94 41.4587 8.5 41.4587C9.06 41.4587 9.5 41.0187 9.5 40.4587V39.7188C9.5 39.1587 9.06 38.7188 8.5 38.7188Z"/>
<path d="M45.7606 11.0189C45.6406 10.6589 45.3406 10.3989 44.9606 10.3389L37.1606 9.19891L33.6806 2.13891C33.3406 1.45891 32.2206 1.45891 31.8806 2.13891L28.4006 9.19891L20.6006 10.3389C20.2206 10.3989 19.9206 10.6589 19.8006 11.0189C19.6806 11.3789 19.8006 11.7789 20.0606 12.0389L23.9606 15.8389C24.3606 16.2189 24.9806 16.2189 25.3806 15.8389C25.7606 15.4389 25.7606 14.8189 25.3806 14.4189L22.9406 12.0389L29.2606 11.1189C29.5806 11.0789 29.8606 10.8589 30.0206 10.5789L32.8406 4.85891L35.6606 10.5789C35.8006 10.8789 36.0806 11.0789 36.4206 11.1189L42.7406 12.0389L38.1806 16.4989C37.9406 16.7389 37.8406 17.0589 37.9006 17.3789L38.9806 23.6589L33.3406 20.6989C33.0606 20.5389 32.7006 20.5389 32.4206 20.6989L28.4606 22.7789C27.9606 23.0389 27.7806 23.6389 28.0406 24.1189C28.3006 24.6189 28.9006 24.7989 29.3806 24.5389L32.8806 22.6989L39.8606 26.3589C40.0006 26.4389 40.1606 26.4789 40.3206 26.4789C40.5206 26.4789 40.7406 26.4189 40.9006 26.2789C41.2006 26.0589 41.3606 25.6789 41.3006 25.2989L39.9606 17.5389L45.6006 12.0389C45.8806 11.7789 45.9806 11.3789 45.8606 11.0189H45.7606Z"/>
</mask>
<path d="M37.6408 29.9581C37.6408 28.2981 36.3008 26.9581 34.6408 26.9581H25.7208C26.4008 24.8181 26.4608 22.9581 25.9008 20.6581C25.4808 18.8981 23.9608 17.0781 22.1408 17.0781C20.5608 17.0781 19.2808 18.3581 19.2808 19.9381V22.6381C19.2808 25.0181 17.3408 26.9581 14.9608 26.9581H14.2208V25.9981C14.2208 25.4381 13.7808 24.9981 13.2208 24.9981H3.80078C3.24078 24.9981 2.80078 25.4381 2.80078 25.9981V43.9581C2.80078 44.5181 3.24078 44.9581 3.80078 44.9581H13.2208C13.7808 44.9581 14.2208 44.5181 14.2208 43.9581V42.9581H14.2608C14.9008 42.9581 15.5208 43.2181 15.9608 43.6581C16.8008 44.4981 17.9008 44.9581 19.0808 44.9581H32.2608C33.9208 44.9581 35.2608 43.6181 35.2608 41.9581C35.2608 41.5181 35.1608 41.0981 34.9808 40.7181C36.0608 40.2581 36.8008 39.1981 36.8008 37.9581C36.8008 37.3181 36.6008 36.7381 36.2608 36.2581C36.9208 35.6981 37.3608 34.8981 37.3608 33.9581C37.3608 33.2581 37.1008 32.6181 36.7008 32.1181C37.2608 31.5781 37.6208 30.8181 37.6208 29.9581H37.6408ZM12.2208 42.9581H4.80078V26.9981H12.2208V42.9581ZM32.2808 42.9581H19.1008C18.4608 42.9581 17.8608 42.6981 17.4008 42.2581C16.5808 41.4381 15.4408 40.9581 14.2808 40.9581H14.2408V28.9581H14.9808C18.4608 28.9581 21.3008 26.1181 21.3008 22.6381V19.9381C21.3008 19.4581 21.6808 19.0781 22.1608 19.0781C22.9208 19.0781 23.7608 20.1781 23.9808 21.1181C24.5408 23.4581 24.3608 25.1981 23.3808 27.5581C23.2608 27.8581 23.2808 28.2181 23.4608 28.4981C23.6408 28.7781 23.9608 28.9381 24.3008 28.9381H34.6608C35.2208 28.9381 35.6608 29.3781 35.6608 29.9381C35.6608 30.4981 35.2208 30.9381 34.6608 30.9381H28.4808C27.9208 30.9381 27.4808 31.3781 27.4808 31.9381C27.4808 32.4981 27.9208 32.9381 28.4808 32.9381H34.4008C34.9608 32.9381 35.4008 33.3781 35.4008 33.9381C35.4008 34.4981 34.9608 34.9381 34.4008 34.9381H28.4808C27.9208 34.9381 27.4808 35.3781 27.4808 35.9381C27.4808 36.4981 27.9208 36.9381 28.4808 36.9381H33.8408C34.4008 36.9381 34.8408 37.3781 34.8408 37.9381C34.8408 38.4981 34.4008 38.9381 33.8408 38.9381H28.3008C27.7408 38.9381 27.3008 39.3781 27.3008 39.9381C27.3008 40.4981 27.7408 40.9381 28.3008 40.9381H32.3008C32.8608 40.9381 33.3008 41.3781 33.3008 41.9381C33.3008 42.4981 32.8608 42.9381 32.3008 42.9381L32.2808 42.9581Z" fill="url(#paint0_linear_244_12541)"/>
<path d="M8.5 38.7188C7.94 38.7188 7.5 39.1587 7.5 39.7188V40.4587C7.5 41.0187 7.94 41.4587 8.5 41.4587C9.06 41.4587 9.5 41.0187 9.5 40.4587V39.7188C9.5 39.1587 9.06 38.7188 8.5 38.7188Z" fill="url(#paint1_linear_244_12541)"/>
<path d="M45.7606 11.0189C45.6406 10.6589 45.3406 10.3989 44.9606 10.3389L37.1606 9.19891L33.6806 2.13891C33.3406 1.45891 32.2206 1.45891 31.8806 2.13891L28.4006 9.19891L20.6006 10.3389C20.2206 10.3989 19.9206 10.6589 19.8006 11.0189C19.6806 11.3789 19.8006 11.7789 20.0606 12.0389L23.9606 15.8389C24.3606 16.2189 24.9806 16.2189 25.3806 15.8389C25.7606 15.4389 25.7606 14.8189 25.3806 14.4189L22.9406 12.0389L29.2606 11.1189C29.5806 11.0789 29.8606 10.8589 30.0206 10.5789L32.8406 4.85891L35.6606 10.5789C35.8006 10.8789 36.0806 11.0789 36.4206 11.1189L42.7406 12.0389L38.1806 16.4989C37.9406 16.7389 37.8406 17.0589 37.9006 17.3789L38.9806 23.6589L33.3406 20.6989C33.0606 20.5389 32.7006 20.5389 32.4206 20.6989L28.4606 22.7789C27.9606 23.0389 27.7806 23.6389 28.0406 24.1189C28.3006 24.6189 28.9006 24.7989 29.3806 24.5389L32.8806 22.6989L39.8606 26.3589C40.0006 26.4389 40.1606 26.4789 40.3206 26.4789C40.5206 26.4789 40.7406 26.4189 40.9006 26.2789C41.2006 26.0589 41.3606 25.6789 41.3006 25.2989L39.9606 17.5389L45.6006 12.0389C45.8806 11.7789 45.9806 11.3789 45.8606 11.0189H45.7606Z" fill="url(#paint2_linear_244_12541)"/>
<path d="M37.6408 29.9581C37.6408 28.2981 36.3008 26.9581 34.6408 26.9581H25.7208C26.4008 24.8181 26.4608 22.9581 25.9008 20.6581C25.4808 18.8981 23.9608 17.0781 22.1408 17.0781C20.5608 17.0781 19.2808 18.3581 19.2808 19.9381V22.6381C19.2808 25.0181 17.3408 26.9581 14.9608 26.9581H14.2208V25.9981C14.2208 25.4381 13.7808 24.9981 13.2208 24.9981H3.80078C3.24078 24.9981 2.80078 25.4381 2.80078 25.9981V43.9581C2.80078 44.5181 3.24078 44.9581 3.80078 44.9581H13.2208C13.7808 44.9581 14.2208 44.5181 14.2208 43.9581V42.9581H14.2608C14.9008 42.9581 15.5208 43.2181 15.9608 43.6581C16.8008 44.4981 17.9008 44.9581 19.0808 44.9581H32.2608C33.9208 44.9581 35.2608 43.6181 35.2608 41.9581C35.2608 41.5181 35.1608 41.0981 34.9808 40.7181C36.0608 40.2581 36.8008 39.1981 36.8008 37.9581C36.8008 37.3181 36.6008 36.7381 36.2608 36.2581C36.9208 35.6981 37.3608 34.8981 37.3608 33.9581C37.3608 33.2581 37.1008 32.6181 36.7008 32.1181C37.2608 31.5781 37.6208 30.8181 37.6208 29.9581H37.6408ZM12.2208 42.9581H4.80078V26.9981H12.2208V42.9581ZM32.2808 42.9581H19.1008C18.4608 42.9581 17.8608 42.6981 17.4008 42.2581C16.5808 41.4381 15.4408 40.9581 14.2808 40.9581H14.2408V28.9581H14.9808C18.4608 28.9581 21.3008 26.1181 21.3008 22.6381V19.9381C21.3008 19.4581 21.6808 19.0781 22.1608 19.0781C22.9208 19.0781 23.7608 20.1781 23.9808 21.1181C24.5408 23.4581 24.3608 25.1981 23.3808 27.5581C23.2608 27.8581 23.2808 28.2181 23.4608 28.4981C23.6408 28.7781 23.9608 28.9381 24.3008 28.9381H34.6608C35.2208 28.9381 35.6608 29.3781 35.6608 29.9381C35.6608 30.4981 35.2208 30.9381 34.6608 30.9381H28.4808C27.9208 30.9381 27.4808 31.3781 27.4808 31.9381C27.4808 32.4981 27.9208 32.9381 28.4808 32.9381H34.4008C34.9608 32.9381 35.4008 33.3781 35.4008 33.9381C35.4008 34.4981 34.9608 34.9381 34.4008 34.9381H28.4808C27.9208 34.9381 27.4808 35.3781 27.4808 35.9381C27.4808 36.4981 27.9208 36.9381 28.4808 36.9381H33.8408C34.4008 36.9381 34.8408 37.3781 34.8408 37.9381C34.8408 38.4981 34.4008 38.9381 33.8408 38.9381H28.3008C27.7408 38.9381 27.3008 39.3781 27.3008 39.9381C27.3008 40.4981 27.7408 40.9381 28.3008 40.9381H32.3008C32.8608 40.9381 33.3008 41.3781 33.3008 41.9381C33.3008 42.4981 32.8608 42.9381 32.3008 42.9381L32.2808 42.9581Z" stroke="url(#paint3_linear_244_12541)" stroke-width="4" mask="url(#path-1-inside-1_244_12541)"/>
<path d="M8.5 38.7188C7.94 38.7188 7.5 39.1587 7.5 39.7188V40.4587C7.5 41.0187 7.94 41.4587 8.5 41.4587C9.06 41.4587 9.5 41.0187 9.5 40.4587V39.7188C9.5 39.1587 9.06 38.7188 8.5 38.7188Z" stroke="url(#paint4_linear_244_12541)" stroke-width="4" mask="url(#path-1-inside-1_244_12541)"/>
<path d="M45.7606 11.0189C45.6406 10.6589 45.3406 10.3989 44.9606 10.3389L37.1606 9.19891L33.6806 2.13891C33.3406 1.45891 32.2206 1.45891 31.8806 2.13891L28.4006 9.19891L20.6006 10.3389C20.2206 10.3989 19.9206 10.6589 19.8006 11.0189C19.6806 11.3789 19.8006 11.7789 20.0606 12.0389L23.9606 15.8389C24.3606 16.2189 24.9806 16.2189 25.3806 15.8389C25.7606 15.4389 25.7606 14.8189 25.3806 14.4189L22.9406 12.0389L29.2606 11.1189C29.5806 11.0789 29.8606 10.8589 30.0206 10.5789L32.8406 4.85891L35.6606 10.5789C35.8006 10.8789 36.0806 11.0789 36.4206 11.1189L42.7406 12.0389L38.1806 16.4989C37.9406 16.7389 37.8406 17.0589 37.9006 17.3789L38.9806 23.6589L33.3406 20.6989C33.0606 20.5389 32.7006 20.5389 32.4206 20.6989L28.4606 22.7789C27.9606 23.0389 27.7806 23.6389 28.0406 24.1189C28.3006 24.6189 28.9006 24.7989 29.3806 24.5389L32.8806 22.6989L39.8606 26.3589C40.0006 26.4389 40.1606 26.4789 40.3206 26.4789C40.5206 26.4789 40.7406 26.4189 40.9006 26.2789C41.2006 26.0589 41.3606 25.6789 41.3006 25.2989L39.9606 17.5389L45.6006 12.0389C45.8806 11.7789 45.9806 11.3789 45.8606 11.0189H45.7606Z" stroke="url(#paint5_linear_244_12541)" stroke-width="4" mask="url(#path-1-inside-1_244_12541)"/>
<defs>
<linearGradient id="paint0_linear_244_12541" x1="0.657038" y1="45.5136" x2="53.8416" y2="-17.0225" gradientUnits="userSpaceOnUse">
<stop stop-color="#C01E6C"/>
<stop offset="1" stop-color="#FF9A3C"/>
</linearGradient>
<linearGradient id="paint1_linear_244_12541" x1="0.657038" y1="45.5136" x2="53.8416" y2="-17.0225" gradientUnits="userSpaceOnUse">
<stop stop-color="#C01E6C"/>
<stop offset="1" stop-color="#FF9A3C"/>
</linearGradient>
<linearGradient id="paint2_linear_244_12541" x1="0.657038" y1="45.5136" x2="53.8416" y2="-17.0225" gradientUnits="userSpaceOnUse">
<stop stop-color="#C01E6C"/>
<stop offset="1" stop-color="#FF9A3C"/>
</linearGradient>
<linearGradient id="paint3_linear_244_12541" x1="0.657038" y1="45.5136" x2="53.8416" y2="-17.0225" gradientUnits="userSpaceOnUse">
<stop stop-color="#C01E6C"/>
<stop offset="1" stop-color="#FF9A3C"/>
</linearGradient>
<linearGradient id="paint4_linear_244_12541" x1="0.657038" y1="45.5136" x2="53.8416" y2="-17.0225" gradientUnits="userSpaceOnUse">
<stop stop-color="#C01E6C"/>
<stop offset="1" stop-color="#FF9A3C"/>
</linearGradient>
<linearGradient id="paint5_linear_244_12541" x1="0.657038" y1="45.5136" x2="53.8416" y2="-17.0225" gradientUnits="userSpaceOnUse">
<stop stop-color="#C01E6C"/>
<stop offset="1" stop-color="#FF9A3C"/>
</linearGradient>
</defs>
</svg>
