<svg xmlns="http://www.w3.org/2000/svg" width="46" height="46" fill="none"><g clip-path="url(#reg_a)"><path fill="#D4C2C2" d="M40.667 39.333a1.333 1.333 0 0 1-1.334 1.334H34A1.333 1.333 0 0 1 34 38h5.333a1.334 1.334 0 0 1 1.334 1.333m5.333 0A6.667 6.667 0 0 1 39.333 46h-32A6.667 6.667 0 0 1 6 32.803V13.77a4.03 4.03 0 0 1 1.17-2.827l9.107-9.107a3.97 3.97 0 0 1 2.827-1.17h8.459a3.97 3.97 0 0 1 2.826 1.17l4.224 4.224a3.981 3.981 0 0 1 .72 7.694v.864l2.814 1.866a2.67 2.67 0 0 1 1.186 2.22v1.962a1.333 1.333 0 0 1-2.666 0v-1.952L34 16.936l-2.667 1.779v1.952a1.333 1.333 0 0 1-2.666 0v-1.952a2.67 2.67 0 0 1 1.186-2.219l2.813-1.877v-.864a4 4 0 0 1-2.522-2.744L24.01 8.963 19.44 18.1l4.853 14.566h3.176a3 3 0 0 1-.136-.667v-4a3.34 3.34 0 0 1 3.334-3.333h6.666A3.34 3.34 0 0 1 40.667 28v4a3 3 0 0 1-.16.784A6.666 6.666 0 0 1 46 39.334M32.667 10a1.334 1.334 0 1 0 2.667 0 1.334 1.334 0 0 0-2.668 0M30 32a.667.667 0 0 0 .666.667h6.667A.667.667 0 0 0 38 32v-4a.667.667 0 0 0-.667-.667h-6.666A.667.667 0 0 0 30 28zM26.565 7.005l3.837 1.278A4.04 4.04 0 0 1 31.6 6.819l-3.096-3.096a1.79 1.79 0 0 0-1.416-.39 3.88 3.88 0 0 1-.523 3.672M22 4.667a1.333 1.333 0 1 0 2.667 0 1.333 1.333 0 0 0-2.667 0M9.973 11.915a6.61 6.61 0 0 1 8.312 2.53l3.144-6.282a3.94 3.94 0 0 1-1.85-4.83 1.77 1.77 0 0 0-1.416.39zM8.666 18a4 4 0 1 0 8 0 4 4 0 0 0-8 0m0 14.667h12.817l-3.544-10.635A6.57 6.57 0 0 1 8.667 23.3zm34.667 6.666a4 4 0 0 0-4-4h-32a4 4 0 0 0 0 8h32a4 4 0 0 0 4-4M26 38h-5.334a1.333 1.333 0 0 0 0 2.667H26A1.333 1.333 0 1 0 26 38m-13.333 0H7.333a1.334 1.334 0 0 0 0 2.667h5.333a1.333 1.333 0 1 0 0-2.667"/></g><defs><clipPath id="reg_a"><path fill="#fff" d="M0 0h46v46H0z"/></clipPath></defs></svg>