<svg width="48" height="48" viewBox="0 0 48 48" fill="none" xmlns="http://www.w3.org/2000/svg">
<path d="M4.6875 45.75H33.9375C34.2359 45.75 34.522 45.6315 34.733 45.4205C34.944 45.2095 35.0625 44.9234 35.0625 44.625V6C35.0625 5.70163 34.944 5.41548 34.733 5.2045C34.522 4.99353 34.2359 4.875 33.9375 4.875H26.4375V3.375C26.4375 3.07663 26.319 2.79048 26.108 2.5795C25.897 2.36853 25.6109 2.25 25.3125 2.25H13.3125C13.0141 2.25 12.728 2.36853 12.517 2.5795C12.306 2.79048 12.1875 3.07663 12.1875 3.375V4.875H4.6875C4.38913 4.875 4.10298 4.99353 3.892 5.2045C3.68103 5.41548 3.5625 5.70163 3.5625 6V44.625C3.5625 44.9234 3.68103 45.2095 3.892 45.4205C4.10298 45.6315 4.38913 45.75 4.6875 45.75ZM14.4375 4.5H24.1875V9H14.4375V4.5ZM5.8125 7.125H12.1875V10.125C12.1875 10.4234 12.306 10.7095 12.517 10.9205C12.728 11.1315 13.0141 11.25 13.3125 11.25H25.3125C25.6109 11.25 25.897 11.1315 26.108 10.9205C26.319 10.7095 26.4375 10.4234 26.4375 10.125V7.125H32.8125V43.5H5.8125V7.125Z" fill="url(#paint0_linear_244_12846)"/>
<path d="M15.5179 14.204L11.2504 18.4865L10.5004 17.3765C10.4186 17.2534 10.3134 17.1475 10.1908 17.0651C10.0681 16.9826 9.93045 16.9251 9.78559 16.8959C9.64073 16.8666 9.49153 16.8662 9.34651 16.8946C9.20148 16.923 9.06347 16.9797 8.94035 17.0615C8.69171 17.2266 8.51884 17.4837 8.45977 17.7762C8.40069 18.0688 8.46026 18.3728 8.62535 18.6215L10.1254 20.8715C10.2169 21.0106 10.3386 21.1273 10.4814 21.213C10.6242 21.2987 10.7845 21.3511 10.9504 21.3665H11.0629C11.3611 21.3662 11.6471 21.2475 11.8579 21.0365L17.1079 15.7865C17.3066 15.5732 17.4148 15.2911 17.4096 14.9997C17.4045 14.7082 17.2864 14.4302 17.0803 14.224C16.8742 14.0179 16.5961 13.8998 16.3046 13.8947C16.0132 13.8896 15.7311 13.9977 15.5179 14.1965V14.204Z" fill="url(#paint1_linear_244_12846)"/>
<path d="M28.3125 17.625H19.3125C19.0141 17.625 18.728 17.7435 18.517 17.9545C18.306 18.1655 18.1875 18.4516 18.1875 18.75C18.1875 19.0484 18.306 19.3345 18.517 19.5455C18.728 19.7565 19.0141 19.875 19.3125 19.875H28.3125C28.6109 19.875 28.897 19.7565 29.108 19.5455C29.319 19.3345 29.4375 19.0484 29.4375 18.75C29.4375 18.4516 29.319 18.1655 29.108 17.9545C28.897 17.7435 28.6109 17.625 28.3125 17.625Z" fill="url(#paint2_linear_244_12846)"/>
<path d="M15.6077 24.7052C15.5038 24.6 15.38 24.5164 15.2435 24.4594C15.107 24.4024 14.9606 24.373 14.8127 24.373C14.6648 24.373 14.5184 24.4024 14.3819 24.4594C14.2454 24.5164 14.1216 24.6 14.0177 24.7052L12.1877 26.5352L10.3577 24.7052C10.1444 24.5065 9.86236 24.3983 9.57091 24.4034C9.27946 24.4086 9.00138 24.5266 8.79526 24.7328C8.58914 24.9389 8.47107 25.217 8.46593 25.5084C8.46079 25.7999 8.56897 26.0819 8.76769 26.2952L10.5977 28.1252L8.76769 29.9552C8.66248 30.0591 8.57894 30.1829 8.52192 30.3194C8.46491 30.4559 8.43555 30.6023 8.43555 30.7502C8.43555 30.8981 8.46491 31.0445 8.52192 31.181C8.57894 31.3175 8.66248 31.4413 8.76769 31.5452C8.97863 31.7559 9.26457 31.8742 9.56269 31.8742C9.86082 31.8742 10.1468 31.7559 10.3577 31.5452L12.1877 29.7152L14.0177 31.5452C14.2286 31.7559 14.5146 31.8742 14.8127 31.8742C15.1108 31.8742 15.3968 31.7559 15.6077 31.5452C15.7129 31.4413 15.7964 31.3175 15.8535 31.181C15.9105 31.0445 15.9398 30.8981 15.9398 30.7502C15.9398 30.6023 15.9105 30.4559 15.8535 30.3194C15.7964 30.1829 15.7129 30.0591 15.6077 29.9552L13.7777 28.1252L15.6077 26.2952C15.7129 26.1913 15.7964 26.0675 15.8535 25.931C15.9105 25.7945 15.9398 25.6481 15.9398 25.5002C15.9398 25.3523 15.9105 25.2059 15.8535 25.0694C15.7964 24.9329 15.7129 24.8091 15.6077 24.7052Z" fill="url(#paint3_linear_244_12846)"/>
<path d="M28.3125 26.625H19.3125C19.0141 26.625 18.728 26.7435 18.517 26.9545C18.306 27.1655 18.1875 27.4516 18.1875 27.75C18.1875 28.0484 18.306 28.3345 18.517 28.5455C18.728 28.7565 19.0141 28.875 19.3125 28.875H28.3125C28.6109 28.875 28.897 28.7565 29.108 28.5455C29.319 28.3345 29.4375 28.0484 29.4375 27.75C29.4375 27.4516 29.319 27.1655 29.108 26.9545C28.897 26.7435 28.6109 26.625 28.3125 26.625Z" fill="url(#paint4_linear_244_12846)"/>
<path d="M39.7494 44.895C39.8531 45.0435 39.9911 45.1648 40.1517 45.2486C40.3123 45.3324 40.4908 45.3761 40.6719 45.3761C40.8531 45.3761 41.0315 45.3324 41.1921 45.2486C41.3527 45.1648 41.4907 45.0435 41.5944 44.895L44.2194 41.145C44.3533 40.9567 44.4241 40.731 44.4219 40.5V19.5C44.4219 19.2016 44.3034 18.9155 44.0924 18.7045C43.8814 18.4935 43.5953 18.375 43.2969 18.375H38.0469C37.7486 18.375 37.4624 18.4935 37.2514 18.7045C37.0405 18.9155 36.9219 19.2016 36.9219 19.5V40.5C36.9197 40.731 36.9906 40.9567 37.1244 41.145L39.7494 44.895ZM40.6719 42.285L39.1719 40.1475V25.1475H42.1719V40.1475L40.6719 42.285ZM42.1719 20.625V22.875H39.1719V20.625H42.1719Z" fill="url(#paint5_linear_244_12846)"/>
<defs>
<linearGradient id="paint0_linear_244_12846" x1="1.53066" y1="46.3077" x2="55.3331" y2="-13.4174" gradientUnits="userSpaceOnUse">
<stop stop-color="#C01E6C"/>
<stop offset="1" stop-color="#FF9A3C"/>
</linearGradient>
<linearGradient id="paint1_linear_244_12846" x1="1.53066" y1="46.3077" x2="55.3331" y2="-13.4174" gradientUnits="userSpaceOnUse">
<stop stop-color="#C01E6C"/>
<stop offset="1" stop-color="#FF9A3C"/>
</linearGradient>
<linearGradient id="paint2_linear_244_12846" x1="1.53066" y1="46.3077" x2="55.3331" y2="-13.4174" gradientUnits="userSpaceOnUse">
<stop stop-color="#C01E6C"/>
<stop offset="1" stop-color="#FF9A3C"/>
</linearGradient>
<linearGradient id="paint3_linear_244_12846" x1="1.53066" y1="46.3077" x2="55.3331" y2="-13.4174" gradientUnits="userSpaceOnUse">
<stop stop-color="#C01E6C"/>
<stop offset="1" stop-color="#FF9A3C"/>
</linearGradient>
<linearGradient id="paint4_linear_244_12846" x1="1.53066" y1="46.3077" x2="55.3331" y2="-13.4174" gradientUnits="userSpaceOnUse">
<stop stop-color="#C01E6C"/>
<stop offset="1" stop-color="#FF9A3C"/>
</linearGradient>
<linearGradient id="paint5_linear_244_12846" x1="1.53066" y1="46.3077" x2="55.3331" y2="-13.4174" gradientUnits="userSpaceOnUse">
<stop stop-color="#C01E6C"/>
<stop offset="1" stop-color="#FF9A3C"/>
</linearGradient>
</defs>
</svg>
