<svg width="48" height="48" viewBox="0 0 48 48" fill="none" xmlns="http://www.w3.org/2000/svg">
<path d="M23.5723 1.8252C23.8142 1.73764 24.0763 1.72629 24.3232 1.79199L24.4277 1.8252H24.4287C24.4295 1.82549 24.431 1.82656 24.4326 1.82715C24.4359 1.82833 24.4411 1.82977 24.4473 1.83203C24.4601 1.83669 24.479 1.8435 24.5039 1.85254C24.5541 1.87081 24.6283 1.89858 24.7246 1.93359C24.9174 2.0037 25.1987 2.10534 25.5508 2.2334C26.255 2.4895 27.2444 2.84958 28.3857 3.26465C30.6686 4.09486 33.5593 5.14582 35.9893 6.0293C36.4844 6.20934 36.8133 6.67944 36.8135 7.2041C36.8135 9.83214 38.4572 12.1812 40.9277 13.0781C41.4213 13.2582 41.75 13.7282 41.75 14.2529V26.8887C41.75 30.9961 39.8462 34.8622 36.6113 37.3672L36.2939 37.6055C33.8633 39.3732 30.9734 41.4743 28.6914 43.1338C27.5504 43.9636 26.5613 44.6835 25.8574 45.1953C25.5056 45.4512 25.2248 45.6549 25.0322 45.7949C24.9359 45.865 24.8618 45.9195 24.8115 45.9561C24.7864 45.9743 24.7667 45.9878 24.7539 45.9971C24.7477 46.0015 24.7434 46.0055 24.7402 46.0078C24.7386 46.009 24.7371 46.0102 24.7363 46.0107H24.7354L24.7344 46.0117C24.2973 46.3299 23.7027 46.3299 23.2656 46.0117L23.2646 46.0107H23.2637C23.2629 46.0102 23.2614 46.009 23.2598 46.0078C23.2566 46.0055 23.2523 46.0015 23.2461 45.9971C23.2333 45.9878 23.2136 45.9743 23.1885 45.9561C23.1382 45.9195 23.0641 45.865 22.9678 45.7949C22.7752 45.6549 22.4944 45.4512 22.1426 45.1953C21.4387 44.6835 20.4496 43.9636 19.3086 43.1338L11.7061 37.6055C8.27867 35.1115 6.25 31.1287 6.25 26.8887V14.2529L6.25391 14.1553C6.29183 13.6706 6.60954 13.247 7.07227 13.0781C9.54275 12.1812 11.1865 9.83214 11.1865 7.2041C11.1867 6.67944 11.5156 6.20934 12.0107 6.0293C14.4407 5.14582 17.3314 4.09486 19.6143 3.26465C20.7556 2.84958 21.745 2.4895 22.4492 2.2334C22.8013 2.10534 23.0826 2.0037 23.2754 1.93359C23.3717 1.89858 23.4459 1.87081 23.4961 1.85254C23.521 1.8435 23.5399 1.83669 23.5527 1.83203C23.559 1.82977 23.5641 1.82833 23.5674 1.82715C23.569 1.82656 23.5705 1.82549 23.5713 1.8252H23.5723ZM23.999 12.25C25.6998 12.25 27.277 13.1632 28.1357 14.6582L34.3516 25.4805C35.1553 26.8779 35.2109 28.5871 34.5166 30.0283L34.3672 30.3135C33.5143 31.8239 31.9279 32.7499 30.2158 32.75H17.7832C16.1781 32.7499 14.6832 31.9362 13.7998 30.5898L13.6318 30.3135C12.7844 28.8169 12.7901 26.9713 13.6475 25.4805L19.8633 14.6582C20.722 13.1633 22.2984 12.2502 23.999 12.25ZM23.999 14.75C23.184 14.7502 22.4389 15.1949 22.0312 15.9023L22.0303 15.9033L15.8145 26.7256C15.3971 27.4531 15.3935 28.353 15.8076 29.084V29.083C16.2122 29.7998 16.9631 30.2499 17.7832 30.25H30.2158C31.0359 30.2499 31.7864 29.8002 32.1924 29.084V29.083C32.5788 28.398 32.6004 27.5651 32.2578 26.8643L32.1846 26.7256L25.9678 15.9033V15.9023C25.5601 15.1947 24.8142 14.75 23.999 14.75ZM24 26.5C24.6899 26.5 25.25 27.0601 25.25 27.75C25.25 28.4399 24.6899 29 24 29C23.3101 29 22.75 28.4399 22.75 27.75C22.75 27.0601 23.3101 26.5 24 26.5ZM24 17.5C24.6899 17.5 25.25 18.0601 25.25 18.75V23.25C25.25 23.9399 24.6899 24.5 24 24.5C23.3101 24.5 22.75 23.9399 22.75 23.25V18.75C22.75 18.0601 23.3101 17.5 24 17.5ZM39.25 15.082L39.1123 15.0127C36.5038 13.6945 34.7236 11.1508 34.375 8.24902L34.3564 8.0957L34.2119 8.04395L24.085 4.36133L24 4.33008L23.915 4.36133L13.7881 8.04395L13.6436 8.0957L13.625 8.24902C13.2764 11.1508 11.4962 13.6945 8.8877 15.0127L8.75 15.082V26.8887C8.75 30.3287 10.3966 33.5605 13.1777 35.583L23.8525 43.3467L24 43.4541L24.1475 43.3467L34.8223 35.583C37.6034 33.5605 39.25 30.3287 39.25 26.8887V15.082Z" fill="url(#paint0_linear_815_7049)" stroke="white" stroke-width="0.5"/>
<defs>
<linearGradient id="paint0_linear_815_7049" x1="4.20981" y1="47.0773" x2="60.0839" y2="-5.74866" gradientUnits="userSpaceOnUse">
<stop stop-color="#C01E6C"/>
<stop offset="1" stop-color="#FF9A3C"/>
</linearGradient>
</defs>
</svg>
