<svg width="64" height="64" viewBox="0 0 64 64" fill="none" xmlns="http://www.w3.org/2000/svg">
<g clip-path="url(#clip0_244_12909)">
<path d="M6.36133 6.86816C14.3734 -1.14348 27.3394 -1.14269 35.3506 6.86816C42.7655 14.2834 43.2637 25.8458 37.1396 33.8184L36.9531 34.0615L37.1699 34.2793L43.1855 40.2939L43.4326 40.542L45.2383 38.7363C46.1764 37.7983 47.6988 37.7987 48.6367 38.7363H48.6377L60.4824 50.582C63.3517 53.4514 63.3517 58.1209 60.4824 60.9902C57.6128 63.8597 52.9434 63.8595 50.0742 60.9902L38.2285 49.1455C37.29 48.2069 37.2901 46.6848 38.2285 45.7461L39.7861 44.1885L40.0342 43.9414L33.5527 37.46L33.3096 37.6465C25.2797 43.7962 13.7077 43.2047 6.36133 35.8584C-1.65111 27.8463 -1.65002 14.8795 6.36133 6.86816ZM43.5752 47.1982L43.3271 47.4453L43.5752 47.6934L53.4727 57.5918H53.4736C54.4693 58.5864 56.0872 58.587 57.083 57.5918V57.5908C58.0782 56.5954 58.0789 54.977 57.084 53.9814H57.083L47.1855 44.083L46.9375 43.8359L43.5752 47.1982ZM31.9512 10.2676C25.8182 4.13493 15.8921 4.13531 9.75977 10.2676C3.6269 16.4004 3.6276 26.3265 9.75977 32.459C15.8927 38.5919 25.8187 38.5914 31.9512 32.459C38.0843 26.326 38.0833 16.3996 31.9512 10.2676ZM13.4297 13.9385C17.396 9.9725 23.7725 9.84838 27.8896 13.5664L28.2812 13.9385C32.2475 17.9049 32.3718 24.2816 28.6533 28.3984L28.2812 28.7891C24.1869 32.8836 17.5236 32.8833 13.4297 28.7891C9.3359 24.695 9.33598 18.0327 13.4297 13.9385ZM46.3799 24.8818H61.248C62.5753 24.8818 63.6522 25.9578 63.6523 27.2852C63.6523 28.6126 62.5755 29.6895 61.248 29.6895H46.3799C45.0524 29.6895 43.9756 28.6126 43.9756 27.2852C43.9757 25.9578 45.0525 24.8818 46.3799 24.8818ZM24.8818 17.3369C22.6614 15.1168 19.0491 15.1171 16.8291 17.3369C14.6089 19.5571 14.6089 23.1693 16.8291 25.3896C19.0494 27.61 22.6614 27.6101 24.8818 25.3896C27.1021 23.1694 27.1021 19.5572 24.8818 17.3369ZM48.2148 12.873H61.248C62.5752 12.873 63.6521 13.9493 63.6523 15.2764C63.6523 16.6038 62.5755 17.6807 61.248 17.6807H48.2148C46.8876 17.6804 45.8115 16.6037 45.8115 15.2764C45.8118 13.9493 46.8877 12.8733 48.2148 12.873ZM42.3408 0.864258H61.248C62.5755 0.864258 63.6523 1.9411 63.6523 3.26855C63.6522 4.59588 62.5754 5.67188 61.248 5.67188H42.3408C41.0135 5.67185 39.9376 4.59587 39.9375 3.26855C39.9375 1.94111 41.0134 0.86428 42.3408 0.864258Z" fill="black"/>
<path d="M6.36133 6.86816C14.3734 -1.14348 27.3394 -1.14269 35.3506 6.86816C42.7655 14.2834 43.2637 25.8458 37.1396 33.8184L36.9531 34.0615L37.1699 34.2793L43.1855 40.2939L43.4326 40.542L45.2383 38.7363C46.1764 37.7983 47.6988 37.7987 48.6367 38.7363H48.6377L60.4824 50.582C63.3517 53.4514 63.3517 58.1209 60.4824 60.9902C57.6128 63.8597 52.9434 63.8595 50.0742 60.9902L38.2285 49.1455C37.29 48.2069 37.2901 46.6848 38.2285 45.7461L39.7861 44.1885L40.0342 43.9414L33.5527 37.46L33.3096 37.6465C25.2797 43.7962 13.7077 43.2047 6.36133 35.8584C-1.65111 27.8463 -1.65002 14.8795 6.36133 6.86816ZM43.5752 47.1982L43.3271 47.4453L43.5752 47.6934L53.4727 57.5918H53.4736C54.4693 58.5864 56.0872 58.587 57.083 57.5918V57.5908C58.0782 56.5954 58.0789 54.977 57.084 53.9814H57.083L47.1855 44.083L46.9375 43.8359L43.5752 47.1982ZM31.9512 10.2676C25.8182 4.13493 15.8921 4.13531 9.75977 10.2676C3.6269 16.4004 3.6276 26.3265 9.75977 32.459C15.8927 38.5919 25.8187 38.5914 31.9512 32.459C38.0843 26.326 38.0833 16.3996 31.9512 10.2676ZM13.4297 13.9385C17.396 9.9725 23.7725 9.84838 27.8896 13.5664L28.2812 13.9385C32.2475 17.9049 32.3718 24.2816 28.6533 28.3984L28.2812 28.7891C24.1869 32.8836 17.5236 32.8833 13.4297 28.7891C9.3359 24.695 9.33598 18.0327 13.4297 13.9385ZM46.3799 24.8818H61.248C62.5753 24.8818 63.6522 25.9578 63.6523 27.2852C63.6523 28.6126 62.5755 29.6895 61.248 29.6895H46.3799C45.0524 29.6895 43.9756 28.6126 43.9756 27.2852C43.9757 25.9578 45.0525 24.8818 46.3799 24.8818ZM24.8818 17.3369C22.6614 15.1168 19.0491 15.1171 16.8291 17.3369C14.6089 19.5571 14.6089 23.1693 16.8291 25.3896C19.0494 27.61 22.6614 27.6101 24.8818 25.3896C27.1021 23.1694 27.1021 19.5572 24.8818 17.3369ZM48.2148 12.873H61.248C62.5752 12.873 63.6521 13.9493 63.6523 15.2764C63.6523 16.6038 62.5755 17.6807 61.248 17.6807H48.2148C46.8876 17.6804 45.8115 16.6037 45.8115 15.2764C45.8118 13.9493 46.8877 12.8733 48.2148 12.873ZM42.3408 0.864258H61.248C62.5755 0.864258 63.6523 1.9411 63.6523 3.26855C63.6522 4.59588 62.5754 5.67188 61.248 5.67188H42.3408C41.0135 5.67185 39.9376 4.59587 39.9375 3.26855C39.9375 1.94111 41.0134 0.86428 42.3408 0.864258Z" fill="url(#paint0_linear_244_12909)"/>
<path d="M6.36133 6.86816C14.3734 -1.14348 27.3394 -1.14269 35.3506 6.86816C42.7655 14.2834 43.2637 25.8458 37.1396 33.8184L36.9531 34.0615L37.1699 34.2793L43.1855 40.2939L43.4326 40.542L45.2383 38.7363C46.1764 37.7983 47.6988 37.7987 48.6367 38.7363H48.6377L60.4824 50.582C63.3517 53.4514 63.3517 58.1209 60.4824 60.9902C57.6128 63.8597 52.9434 63.8595 50.0742 60.9902L38.2285 49.1455C37.29 48.2069 37.2901 46.6848 38.2285 45.7461L39.7861 44.1885L40.0342 43.9414L33.5527 37.46L33.3096 37.6465C25.2797 43.7962 13.7077 43.2047 6.36133 35.8584C-1.65111 27.8463 -1.65002 14.8795 6.36133 6.86816ZM43.5752 47.1982L43.3271 47.4453L43.5752 47.6934L53.4727 57.5918H53.4736C54.4693 58.5864 56.0872 58.587 57.083 57.5918V57.5908C58.0782 56.5954 58.0789 54.977 57.084 53.9814H57.083L47.1855 44.083L46.9375 43.8359L43.5752 47.1982ZM31.9512 10.2676C25.8182 4.13493 15.8921 4.13531 9.75977 10.2676C3.6269 16.4004 3.6276 26.3265 9.75977 32.459C15.8927 38.5919 25.8187 38.5914 31.9512 32.459C38.0843 26.326 38.0833 16.3996 31.9512 10.2676ZM13.4297 13.9385C17.396 9.9725 23.7725 9.84838 27.8896 13.5664L28.2812 13.9385C32.2475 17.9049 32.3718 24.2816 28.6533 28.3984L28.2812 28.7891C24.1869 32.8836 17.5236 32.8833 13.4297 28.7891C9.3359 24.695 9.33598 18.0327 13.4297 13.9385ZM46.3799 24.8818H61.248C62.5753 24.8818 63.6522 25.9578 63.6523 27.2852C63.6523 28.6126 62.5755 29.6895 61.248 29.6895H46.3799C45.0524 29.6895 43.9756 28.6126 43.9756 27.2852C43.9757 25.9578 45.0525 24.8818 46.3799 24.8818ZM24.8818 17.3369C22.6614 15.1168 19.0491 15.1171 16.8291 17.3369C14.6089 19.5571 14.6089 23.1693 16.8291 25.3896C19.0494 27.61 22.6614 27.6101 24.8818 25.3896C27.1021 23.1694 27.1021 19.5572 24.8818 17.3369ZM48.2148 12.873H61.248C62.5752 12.873 63.6521 13.9493 63.6523 15.2764C63.6523 16.6038 62.5755 17.6807 61.248 17.6807H48.2148C46.8876 17.6804 45.8115 16.6037 45.8115 15.2764C45.8118 13.9493 46.8877 12.8733 48.2148 12.873ZM42.3408 0.864258H61.248C62.5755 0.864258 63.6523 1.9411 63.6523 3.26855C63.6522 4.59588 62.5754 5.67188 61.248 5.67188H42.3408C41.0135 5.67185 39.9376 4.59587 39.9375 3.26855C39.9375 1.94111 41.0134 0.86428 42.3408 0.864258Z" stroke="white" stroke-width="0.7"/>
</g>
<defs>
<linearGradient id="paint0_linear_244_12909" x1="1.37695" y1="61.393" x2="75.0847" y2="33.9477" gradientUnits="userSpaceOnUse">
<stop stop-color="#6549F6"/>
<stop offset="0.79" stop-color="#FF611D"/>
</linearGradient>
<clipPath id="clip0_244_12909">
<rect width="64" height="64" fill="white"/>
</clipPath>
</defs>
</svg>
