<svg width="48" height="48" viewBox="0 0 48 48" fill="none" xmlns="http://www.w3.org/2000/svg">
<path d="M43.06 24.94L41.06 22.94C40.779 22.6586 40.3977 22.5004 40 22.5H35.5V8C35.4947 7.07336 35.1243 6.18617 34.4691 5.53093C33.8138 4.87568 32.9266 4.50525 32 4.5H8C7.07336 4.50525 6.18617 4.87568 5.53093 5.53093C4.87568 6.18617 4.50525 7.07336 4.5 8V40C4.50525 40.9266 4.87568 41.8138 5.53093 42.4691C6.18617 43.1243 7.07336 43.4948 8 43.5H32C32.4584 43.4936 32.9095 43.3842 33.32 43.18C33.5463 43.1993 33.7737 43.1993 34 43.18C34.5408 43.1821 35.0748 43.0589 35.56 42.82L37.14 42.02C39.0543 41.0713 40.6646 39.6055 41.7887 37.7886C42.9127 35.9718 43.5056 33.8765 43.5 31.74V26C43.4996 25.6023 43.3414 25.221 43.06 24.94ZM8 40.5C7.86739 40.5 7.74021 40.4473 7.64645 40.3536C7.55268 40.2598 7.5 40.1326 7.5 40V8C7.5 7.86739 7.55268 7.74021 7.64645 7.64645C7.74021 7.55268 7.86739 7.5 8 7.5H32C32.1326 7.5 32.2598 7.55268 32.3536 7.64645C32.4473 7.74021 32.5 7.86739 32.5 8V22.5H28C27.6023 22.5004 27.221 22.6586 26.94 22.94L24.94 24.94C24.6586 25.221 24.5004 25.6023 24.5 26V31.82C24.5034 32.3149 24.5368 32.8091 24.6 33.3C24.5922 33.4466 24.5922 33.5934 24.6 33.74C24.6 34.08 24.72 34.4 24.8 34.74C24.8374 34.896 24.8842 35.0496 24.94 35.2C25.0368 35.5569 25.1639 35.9048 25.32 36.24C25.3513 36.3433 25.3915 36.4436 25.44 36.54C25.6211 36.9756 25.835 37.3968 26.08 37.8L26.3 38.1C26.4886 38.3993 26.6956 38.6865 26.92 38.96L27.22 39.34C27.44 39.6 27.68 39.84 27.92 40.08L28.24 40.38L28.36 40.5H8ZM40.5 31.82C40.5063 33.3997 40.0692 34.9495 39.2383 36.293C38.4074 37.6366 37.2162 38.72 35.8 39.42L34.22 40.22C34.1505 40.2497 34.0756 40.265 34 40.265C33.9244 40.265 33.8495 40.2497 33.78 40.22H33.68L32.24 39.5C31.0056 38.8919 29.939 37.9906 29.1336 36.8749C28.3282 35.7592 27.8085 34.4631 27.62 33.1C27.59 32.7006 27.59 32.2994 27.62 31.9V26.7L28.74 25.58H39.5L40.62 26.7L40.5 31.82Z" fill="url(#paint0_linear_244_12251)"/>
<path d="M12 13.5H28C28.3978 13.5 28.7794 13.342 29.0607 13.0607C29.342 12.7794 29.5 12.3978 29.5 12C29.5 11.6022 29.342 11.2206 29.0607 10.9393C28.7794 10.658 28.3978 10.5 28 10.5H12C11.6022 10.5 11.2206 10.658 10.9393 10.9393C10.658 11.2206 10.5 11.6022 10.5 12C10.5 12.3978 10.658 12.7794 10.9393 13.0607C11.2206 13.342 11.6022 13.5 12 13.5Z" fill="url(#paint1_linear_244_12251)"/>
<path d="M12 19.5H28C28.3978 19.5 28.7794 19.342 29.0607 19.0607C29.342 18.7794 29.5 18.3978 29.5 18C29.5 17.6022 29.342 17.2206 29.0607 16.9393C28.7794 16.658 28.3978 16.5 28 16.5H12C11.6022 16.5 11.2206 16.658 10.9393 16.9393C10.658 17.2206 10.5 17.6022 10.5 18C10.5 18.3978 10.658 18.7794 10.9393 19.0607C11.2206 19.342 11.6022 19.5 12 19.5Z" fill="url(#paint2_linear_244_12251)"/>
<path d="M20 22.5H12C11.6022 22.5 11.2206 22.658 10.9393 22.9393C10.658 23.2206 10.5 23.6022 10.5 24C10.5 24.3978 10.658 24.7794 10.9393 25.0607C11.2206 25.342 11.6022 25.5 12 25.5H20C20.3978 25.5 20.7794 25.342 21.0607 25.0607C21.342 24.7794 21.5 24.3978 21.5 24C21.5 23.6022 21.342 23.2206 21.0607 22.9393C20.7794 22.658 20.3978 22.5 20 22.5Z" fill="url(#paint3_linear_244_12251)"/>
<path d="M35.9999 28.9416L32.9999 31.8816L31.9999 30.9416C31.8763 30.751 31.711 30.5909 31.5165 30.4735C31.3219 30.3561 31.1032 30.2844 30.8769 30.2638C30.6506 30.2433 30.4226 30.2744 30.2101 30.3549C29.9976 30.4354 29.8062 30.5631 29.6502 30.7283C29.4943 30.8936 29.378 31.0922 29.31 31.309C29.242 31.5258 29.2242 31.7553 29.2579 31.98C29.2916 32.2047 29.3759 32.4189 29.5044 32.6062C29.633 32.7936 29.8024 32.9493 29.9999 33.0616L31.9999 35.0616C32.2812 35.3426 32.6624 35.5003 33.0599 35.5003C33.4574 35.5003 33.8387 35.3426 34.1199 35.0616L38.1199 31.0616C38.3849 30.7773 38.5291 30.4012 38.5223 30.0126C38.5154 29.624 38.358 29.2532 38.0832 28.9784C37.8084 28.7036 37.4376 28.5462 37.049 28.5393C36.6604 28.5324 36.2843 28.6767 35.9999 28.9416Z" fill="url(#paint4_linear_244_12251)"/>
<defs>
<linearGradient id="paint0_linear_244_12251" x1="2.56062" y1="44" x2="50.3916" y2="-12.5276" gradientUnits="userSpaceOnUse">
<stop stop-color="#C01E6C"/>
<stop offset="1" stop-color="#FF9A3C"/>
</linearGradient>
<linearGradient id="paint1_linear_244_12251" x1="2.56062" y1="44" x2="50.3916" y2="-12.5276" gradientUnits="userSpaceOnUse">
<stop stop-color="#C01E6C"/>
<stop offset="1" stop-color="#FF9A3C"/>
</linearGradient>
<linearGradient id="paint2_linear_244_12251" x1="2.56062" y1="44" x2="50.3916" y2="-12.5276" gradientUnits="userSpaceOnUse">
<stop stop-color="#C01E6C"/>
<stop offset="1" stop-color="#FF9A3C"/>
</linearGradient>
<linearGradient id="paint3_linear_244_12251" x1="2.56062" y1="44" x2="50.3916" y2="-12.5276" gradientUnits="userSpaceOnUse">
<stop stop-color="#C01E6C"/>
<stop offset="1" stop-color="#FF9A3C"/>
</linearGradient>
<linearGradient id="paint4_linear_244_12251" x1="2.56062" y1="44" x2="50.3916" y2="-12.5276" gradientUnits="userSpaceOnUse">
<stop stop-color="#C01E6C"/>
<stop offset="1" stop-color="#FF9A3C"/>
</linearGradient>
</defs>
</svg>
