<svg width="48" height="48" viewBox="0 0 48 48" fill="none" xmlns="http://www.w3.org/2000/svg">
<path d="M24 16V24M40 20.33C40 33.4666 30.0638 39.3562 25.8516 41.2628L25.8462 41.265C25.4032 41.4656 25.1812 41.5662 24.6778 41.6526C24.359 41.7074 23.643 41.7074 23.3242 41.6526C22.8188 41.5658 22.5944 41.465 22.148 41.2628C17.9356 39.3562 8 33.4666 8 20.33V12.4004C8 10.1602 8 9.03924 8.43598 8.1836C8.81946 7.43094 9.43094 6.81946 10.1836 6.43598C11.0392 6 12.1602 6 14.4004 6H33.6004C35.8406 6 36.9592 6 37.8148 6.43598C38.5674 6.81946 39.181 7.43094 39.5644 8.1836C40 9.0384 40 10.158 40 12.3938V20.33ZM24.0996 30V30.2L23.9004 30.2004V30H24.0996Z" stroke="url(#paint0_linear_244_12587)" stroke-width="4" stroke-linecap="round" stroke-linejoin="round"/>
<defs>
<linearGradient id="paint0_linear_244_12587" x1="6.40872" y1="42.1513" x2="50.7229" y2="-4.8005" gradientUnits="userSpaceOnUse">
<stop stop-color="#C01E6C"/>
<stop offset="1" stop-color="#FF9A3C"/>
</linearGradient>
</defs>
</svg>
