<svg width="267" height="220" viewBox="0 0 267 220" fill="none" xmlns="http://www.w3.org/2000/svg">
<path d="M211.375 119.875H203.875V119.875H211.375ZM211.375 85.8102H218.875V85.8064L211.375 85.8102ZM167.576 42L167.582 34.5H167.576V42ZM99.413 42V34.5L99.4054 34.5L99.413 42ZM55.625 85.8102L48.125 85.8064V85.8102H55.625ZM55.625 119.875H63.125V119.875H55.625ZM133.5 197.75V205.25V197.75ZM168.9 1.03797L163.596 6.34127L163.596 6.34127L168.9 1.03797ZM98.1005 1.03797L103.404 6.34127V6.34127L98.1005 1.03797ZM211.375 101.25C207.233 101.25 203.875 104.608 203.875 108.75C203.875 112.892 207.233 116.25 211.375 116.25V108.75V101.25ZM244.75 116.25C248.892 116.25 252.25 112.892 252.25 108.75C252.25 104.608 248.892 101.25 244.75 101.25V108.75V116.25ZM55.625 116.25C59.7671 116.25 63.125 112.892 63.125 108.75C63.125 104.608 59.7671 101.25 55.625 101.25V108.75V116.25ZM22.25 101.25C18.1079 101.25 14.75 104.608 14.75 108.75C14.75 112.892 18.1079 116.25 22.25 116.25V108.75V101.25ZM157.454 -14.4937C153.902 -12.3626 152.75 -7.75563 154.881 -4.20378C157.012 -0.65193 161.619 0.499807 165.171 -1.6313L161.312 -8.0625L157.454 -14.4937ZM192.984 -18.3188C196.536 -20.4499 197.687 -25.0569 195.556 -28.6087C193.425 -32.1606 188.818 -33.3123 185.266 -31.1812L189.125 -24.75L192.984 -18.3188ZM101.829 -1.6313C105.381 0.499807 109.988 -0.65193 112.119 -4.20378C114.25 -7.75563 113.098 -12.3626 109.546 -14.4937L105.688 -8.0625L101.829 -1.6313ZM81.7337 -31.1812C78.1819 -33.3123 73.5749 -32.1606 71.4438 -28.6087C69.3127 -25.0569 70.4644 -20.4499 74.0163 -18.3188L77.875 -24.75L81.7337 -31.1812ZM225.277 182.464C229.123 184.002 233.488 182.131 235.026 178.285C236.564 174.44 234.694 170.075 230.848 168.536L228.062 175.5L225.277 182.464ZM208.598 159.636C204.752 158.098 200.387 159.969 198.849 163.815C197.311 167.66 199.181 172.025 203.027 173.564L205.812 166.6L208.598 159.636ZM230.848 48.9636C234.694 47.4252 236.564 43.0604 235.026 39.2146C233.488 35.3687 229.123 33.4981 225.277 35.0364L228.062 42L230.848 48.9636ZM203.027 43.9364C199.181 45.4748 197.311 49.8396 198.849 53.6854C200.387 57.5313 204.752 59.4019 208.598 57.8636L205.812 50.9L203.027 43.9364ZM36.1521 168.536C32.3062 170.075 30.4356 174.44 31.9739 178.285C33.5123 182.131 37.8771 184.002 41.7229 182.464L38.9375 175.5L36.1521 168.536ZM63.9729 173.564C67.8188 172.025 69.6894 167.66 68.1511 163.815C66.6127 159.969 62.2479 158.098 58.4021 159.636L61.1875 166.6L63.9729 173.564ZM41.7229 35.0364C37.8771 33.4981 33.5123 35.3687 31.9739 39.2146C30.4356 43.0604 32.3062 47.4252 36.1521 48.9636L38.9375 42L41.7229 35.0364ZM58.4021 57.8636C62.2479 59.4019 66.6127 57.5313 68.1511 53.6854C69.6894 49.8396 67.8188 45.4748 63.9729 43.9364L61.1875 50.9L58.4021 57.8636ZM126 192.188C126 196.33 129.358 199.688 133.5 199.688C137.642 199.688 141 196.33 141 192.188H133.5H126ZM141 119.875C141 115.733 137.642 112.375 133.5 112.375C129.358 112.375 126 115.733 126 119.875H133.5H141ZM211.375 119.875H218.875V85.8102H211.375H203.875V119.875H211.375ZM211.375 85.8102L218.875 85.8064C218.868 72.2035 213.462 59.1595 203.845 49.5395L198.541 54.8422L193.237 60.1448C200.044 66.9537 203.87 76.1861 203.875 85.814L211.375 85.8102ZM198.541 54.8422L203.845 49.5395C194.227 39.9196 181.185 34.5104 167.582 34.5L167.576 42L167.57 49.5C177.198 49.5073 186.43 53.3359 193.237 60.1448L198.541 54.8422ZM167.576 42V34.5H99.413V42V49.5H167.576V42ZM99.413 42L99.4054 34.5C85.8047 34.5138 72.7654 39.9246 63.1507 49.5441L68.4554 54.8461L73.76 60.148C80.5652 53.3394 89.7942 49.5098 99.4206 49.5L99.413 42ZM68.4554 54.8461L63.1507 49.5441C53.536 59.1637 48.1319 72.2058 48.125 85.8064L55.625 85.8102L63.125 85.814C63.1299 76.1877 66.9549 66.9567 73.76 60.148L68.4554 54.8461ZM55.625 85.8102H48.125V119.875H55.625H63.125V85.8102H55.625ZM55.625 119.875H48.125C48.125 131.087 50.3333 142.188 54.6238 152.547L61.5529 149.676L68.482 146.806C64.9453 138.268 63.125 129.117 63.125 119.875H55.625ZM61.5529 149.676L54.6238 152.547C58.9143 162.905 65.203 172.316 73.1308 180.244L78.4341 174.941L83.7374 169.638C77.2024 163.103 72.0187 155.345 68.482 146.806L61.5529 149.676ZM78.4341 174.941L73.1308 180.244C81.0586 188.172 90.4702 194.461 100.828 198.751L103.699 191.822L106.569 184.893C98.0304 181.356 90.2723 176.173 83.7374 169.638L78.4341 174.941ZM103.699 191.822L100.828 198.751C111.187 203.042 122.288 205.25 133.5 205.25V197.75V190.25C124.258 190.25 115.107 188.43 106.569 184.893L103.699 191.822ZM133.5 197.75V205.25C144.712 205.25 155.813 203.042 166.172 198.751L163.301 191.822L160.431 184.893C151.893 188.43 142.742 190.25 133.5 190.25V197.75ZM163.301 191.822L166.172 198.751C176.53 194.461 185.941 188.172 193.869 180.244L188.566 174.941L183.263 169.638C176.728 176.173 168.97 181.356 160.431 184.893L163.301 191.822ZM188.566 174.941L193.869 180.244C201.797 172.316 208.086 162.905 212.376 152.547L205.447 149.676L198.518 146.806C194.981 155.345 189.798 163.103 183.263 169.638L188.566 174.941ZM205.447 149.676L212.376 152.547C216.667 142.188 218.875 131.087 218.875 119.875H211.375H203.875C203.875 129.117 202.055 138.268 198.518 146.806L205.447 149.676ZM183.562 47.5625H191.062V36.4375H183.562H176.062V47.5625H183.562ZM183.562 36.4375H191.062C191.062 21.171 184.998 6.52973 174.203 -4.26534L168.9 1.03797L163.596 6.34127C171.578 14.3233 176.062 25.1492 176.062 36.4375H183.562ZM168.9 1.03797L174.203 -4.26534C163.408 -15.0604 148.767 -21.125 133.5 -21.125V-13.625V-6.125C144.788 -6.125 155.614 -1.64075 163.596 6.34127L168.9 1.03797ZM133.5 -13.625V-21.125C118.233 -21.125 103.592 -15.0604 92.7972 -4.26534L98.1005 1.03797L103.404 6.34127C111.386 -1.64075 122.212 -6.125 133.5 -6.125V-13.625ZM98.1005 1.03797L92.7972 -4.26534C82.0021 6.52972 75.9375 21.171 75.9375 36.4375H83.4375H90.9375C90.9375 25.1492 95.4218 14.3233 103.404 6.34127L98.1005 1.03797ZM83.4375 36.4375H75.9375V47.5625H83.4375H90.9375V36.4375H83.4375ZM211.375 108.75V116.25H244.75V108.75V101.25H211.375V108.75ZM55.625 108.75V101.25H22.25V108.75V116.25H55.625V108.75ZM161.312 -8.0625L165.171 -1.6313L192.984 -18.3188L189.125 -24.75L185.266 -31.1812L157.454 -14.4937L161.312 -8.0625ZM105.688 -8.0625L109.546 -14.4937L81.7337 -31.1812L77.875 -24.75L74.0163 -18.3188L101.829 -1.6313L105.688 -8.0625ZM228.062 175.5L230.848 168.536L208.598 159.636L205.812 166.6L203.027 173.564L225.277 182.464L228.062 175.5ZM228.062 42L225.277 35.0364L203.027 43.9364L205.812 50.9L208.598 57.8636L230.848 48.9636L228.062 42ZM38.9375 175.5L41.7229 182.464L63.9729 173.564L61.1875 166.6L58.4021 159.636L36.1521 168.536L38.9375 175.5ZM38.9375 42L36.1521 48.9636L58.4021 57.8636L61.1875 50.9L63.9729 43.9364L41.7229 35.0364L38.9375 42ZM133.5 192.188H141V119.875H133.5H126V192.188H133.5Z" fill="url(#paint0_linear_851_8847)"/>
<defs>
<linearGradient id="paint0_linear_851_8847" x1="11.1856" y1="200.603" x2="284.068" y2="-121.895" gradientUnits="userSpaceOnUse">
<stop stop-color="#C01E6C" stop-opacity="0.5"/>
<stop offset="1" stop-color="#FF9A3C" stop-opacity="0"/>
</linearGradient>
</defs>
</svg>
