<svg width="48" height="48" viewBox="0 0 48 48" fill="none" xmlns="http://www.w3.org/2000/svg">
<path d="M24 1.89551C29.8625 1.89563 35.4845 4.2247 39.6299 8.37012C43.7754 12.5157 46.1045 18.1383 46.1045 24.001C46.1044 28.3727 44.8086 32.6463 42.3799 36.2812C39.951 39.9164 36.4981 42.7497 32.459 44.4229C28.4199 46.0959 23.9754 46.5335 19.6875 45.6807C15.3995 44.8277 11.4606 42.7223 8.36914 39.6309C5.2778 36.5395 3.17233 32.6013 2.31934 28.3135C1.4664 24.0255 1.90405 19.5802 3.57715 15.541C5.25025 11.5019 8.08365 8.05 11.7188 5.62109C15.3539 3.19214 19.628 1.89551 24 1.89551ZM41.0537 25.2188C40.8931 27.4582 40.2916 29.6438 39.2842 31.6504C38.2776 33.6553 36.8857 35.4423 35.1875 36.9082L35.0234 37.0469L35.0215 37.0488C32.2671 39.399 28.8308 40.8029 25.2188 41.0547L24.6309 41.0957V44.8818L25.3008 44.8418C30.382 44.533 35.1748 42.375 38.7744 38.7754C42.374 35.1758 44.532 30.383 44.8408 25.3018L44.8809 24.6318H41.0957L41.0537 25.2188ZM24 29.7939C21.9778 29.7939 19.9961 30.365 18.2842 31.4414C16.5723 32.5179 15.1995 34.0564 14.3232 35.8789L14.0996 36.3428L14.5098 36.6553C16.881 38.4558 19.7174 39.5426 22.6846 39.7881L23.3682 39.8447V36.6318C23.3682 36.4645 23.4344 36.3039 23.5527 36.1855C23.6712 36.0671 23.8325 36.001 24 36.001C24.1673 36.0011 24.328 36.0672 24.4463 36.1855C24.5646 36.3039 24.6308 36.4645 24.6309 36.6318V39.8447L25.3145 39.7881C28.2817 39.5426 31.118 38.4558 33.4893 36.6553L33.8994 36.3428L33.6758 35.8789C32.7995 34.0564 31.4268 32.5179 29.7148 31.4414C28.003 30.365 26.0221 29.794 24 29.7939ZM22.6836 8.27637C18.9673 8.58953 15.4819 10.2085 12.8447 12.8457C10.2076 15.4829 8.58855 18.9682 8.27539 22.6846L8.21777 23.3691H11.3682C11.5355 23.3692 11.6961 23.4354 11.8145 23.5537C11.9329 23.6722 12 23.8335 12 24.001C11.9999 24.1683 11.9328 24.3289 11.8145 24.4473C11.6961 24.5656 11.5355 24.6318 11.3682 24.6318H8.21777L8.27539 25.3174C8.57482 28.8482 10.0531 32.1758 12.4727 34.7646L13.0703 35.4033L13.4883 34.6357C14.5174 32.7491 16.0379 31.1759 17.8877 30.082C19.7374 28.9882 21.8482 28.4146 23.9971 28.4219H24.001C26.1585 28.4179 28.2778 28.9924 30.1377 30.0859C31.9975 31.1795 33.5297 32.7524 34.5752 34.6396L34.9961 35.3994L35.5898 34.7646C38.0093 32.1758 39.4877 28.8481 39.7871 25.3174L39.8447 24.6318H36.6309C36.4635 24.6318 36.3029 24.5656 36.1846 24.4473C36.0662 24.3289 36.0001 24.1683 36 24.001C36 23.8335 36.0661 23.6722 36.1846 23.5537C36.3029 23.4354 36.4635 23.3692 36.6309 23.3691H39.8447L39.7871 22.6846C39.4718 18.958 37.8438 15.4637 35.1934 12.8252C32.5429 10.1867 29.0414 8.5748 25.3135 8.27637L24.6309 8.22168V11.3691C24.6308 11.5365 24.5646 11.697 24.4463 11.8154C24.328 11.9338 24.1673 12.0009 24 12.001C23.8325 12.001 23.6712 11.9339 23.5527 11.8154C23.4344 11.697 23.3682 11.5365 23.3682 11.3691V8.21875L22.6836 8.27637ZM22.6963 3.22266C17.6371 3.54507 12.8688 5.70053 9.28418 9.28516C5.69955 12.8698 3.5441 17.6381 3.22168 22.6973L3.17871 23.3691H6.96582L7.00879 22.7832C7.30525 18.6979 9.06165 14.8553 11.958 11.959C14.8544 9.06263 18.6969 7.30623 22.7822 7.00977L23.3682 6.9668V3.17969L22.6963 3.22266ZM24.6309 6.96875L25.2197 7.00977C29.3157 7.2923 33.1723 9.04287 36.0811 11.9404C38.9899 14.8381 40.7555 18.6882 41.0537 22.7832L41.0967 23.3691H44.8838L44.8408 22.6973C44.5167 17.6277 42.3519 12.8507 38.7539 9.26465C35.1558 5.67854 30.3715 3.52981 25.3008 3.22266L24.6309 3.18262V6.96875ZM23.3682 41.0977L22.7822 41.0547C18.6872 40.7565 14.8371 38.9909 11.9395 36.082C9.0419 33.1733 7.29133 29.3167 7.00879 25.2207L6.96777 24.6318H3.18164L3.22168 25.3018C3.52883 30.3725 5.67756 35.1568 9.26367 38.7549C12.8498 42.3529 17.6267 44.5177 22.6963 44.8418L23.3682 44.8848V41.0977Z" fill="url(#paint0_linear_244_12658)" stroke="url(#paint1_linear_244_12658)" stroke-width="1.26316"/>
<path d="M24 14.5264C24.7465 14.5264 25.4861 14.6733 26.1758 14.959C26.8653 15.2446 27.4918 15.6636 28.0195 16.1914C28.5473 16.7192 28.9663 17.3456 29.252 18.0352C29.5375 18.7247 29.6845 19.4637 29.6846 20.21C29.6846 21.3342 29.3511 22.4334 28.7266 23.3682C28.102 24.3029 27.2144 25.0317 26.1758 25.4619C25.1372 25.8921 23.9942 26.0044 22.8916 25.7852C21.789 25.5658 20.7764 25.0244 19.9814 24.2295C19.1865 23.4346 18.6451 22.4219 18.4258 21.3193C18.2065 20.2167 18.3188 19.0738 18.749 18.0352C19.1792 16.9965 19.908 16.109 20.8428 15.4844C21.7774 14.8599 22.8759 14.5264 24 14.5264ZM25.6924 16.126C24.8845 15.7914 23.9953 15.7034 23.1377 15.874C22.2801 16.0446 21.4923 16.4657 20.874 17.084C20.2558 17.7023 19.8347 18.4901 19.6641 19.3477C19.4935 20.2053 19.5814 21.0945 19.916 21.9023C20.2506 22.7101 20.817 23.401 21.5439 23.8867C22.2709 24.3724 23.1257 24.6318 24 24.6318C25.1725 24.6318 26.2978 24.166 27.127 23.3369C27.9561 22.5078 28.4219 21.3825 28.4219 20.21C28.4218 19.3357 28.1625 18.4808 27.6768 17.7539C27.191 17.0269 26.5001 16.4606 25.6924 16.126Z" fill="url(#paint2_linear_244_12658)" stroke="url(#paint3_linear_244_12658)" stroke-width="1.26316"/>
<defs>
<linearGradient id="paint0_linear_244_12658" x1="89.4816" y1="-45.2559" x2="-51.5323" y2="103.852" gradientUnits="userSpaceOnUse">
<stop stop-color="#FFF33B"/>
<stop offset="0.04" stop-color="#FEE72E"/>
<stop offset="0.12" stop-color="#FED51B"/>
<stop offset="0.2" stop-color="#FDCA10"/>
<stop offset="0.28" stop-color="#FDC70C"/>
<stop offset="0.67" stop-color="#F3903F"/>
<stop offset="0.89" stop-color="#ED683C"/>
<stop offset="1" stop-color="#E93E3A"/>
</linearGradient>
<linearGradient id="paint1_linear_244_12658" x1="-0.998601" y1="47.3204" x2="54.772" y2="-18.5904" gradientUnits="userSpaceOnUse">
<stop stop-color="#C01E6C"/>
<stop offset="1" stop-color="#FF9A3C"/>
</linearGradient>
<linearGradient id="paint2_linear_244_12658" x1="42.1898" y1="0.972426" x2="3.01931" y2="42.3914" gradientUnits="userSpaceOnUse">
<stop stop-color="#FFF33B"/>
<stop offset="0.04" stop-color="#FEE72E"/>
<stop offset="0.12" stop-color="#FED51B"/>
<stop offset="0.2" stop-color="#FDCA10"/>
<stop offset="0.28" stop-color="#FDC70C"/>
<stop offset="0.67" stop-color="#F3903F"/>
<stop offset="0.89" stop-color="#ED683C"/>
<stop offset="1" stop-color="#E93E3A"/>
</linearGradient>
<linearGradient id="paint3_linear_244_12658" x1="17.0564" y1="26.6881" x2="32.5483" y2="8.37952" gradientUnits="userSpaceOnUse">
<stop stop-color="#C01E6C"/>
<stop offset="1" stop-color="#FF9A3C"/>
</linearGradient>
</defs>
</svg>
