<svg width="48" height="48" viewBox="0 0 48 48" fill="none" xmlns="http://www.w3.org/2000/svg">
<path d="M24.001 15.0879C28.731 15.0882 32.5791 18.9369 32.5791 23.667C32.579 26.526 31.1726 29.0623 29.0156 30.6221L28.9521 30.668L29.0254 30.6953C34.5168 32.7405 38.4393 38.0365 38.4395 44.2314C38.4395 44.9087 37.8901 45.458 37.2129 45.458H10.7881C10.1108 45.458 9.56152 44.9087 9.56152 44.2314C9.56165 38.0365 13.4841 32.7405 18.9756 30.6953L19.0488 30.668L18.9854 30.6221C16.8285 29.0623 15.422 26.5259 15.4219 23.667C15.4219 18.9368 19.2708 15.0879 24.001 15.0879ZM24.001 32.2451C17.8215 32.2451 12.7189 36.946 12.0811 42.959L12.0762 43.0059H35.9248L35.9199 42.959C35.2821 36.9461 30.1803 32.2453 24.001 32.2451ZM24 2.54199C28.793 2.54199 33.4868 4.19162 37.2168 7.18652C37.7449 7.6104 37.8293 8.38208 37.4053 8.91016C36.9812 9.43807 36.2099 9.52261 35.6816 9.09863C32.3378 6.41376 28.2979 4.99414 24 4.99414C13.7041 4.99425 5.32726 13.371 5.32715 23.667C5.32715 27.1615 6.29885 30.5685 8.13574 33.5195C8.49369 34.0945 8.31711 34.8512 7.74219 35.209C7.54055 35.3345 7.3168 35.3945 7.0957 35.3945C6.68605 35.3945 6.28605 35.1894 6.05371 34.8164C3.97437 31.476 2.875 27.6203 2.875 23.667C2.87503 18.0243 5.07232 12.7194 9.0625 8.72949C13.0524 4.73939 18.3572 2.54204 24 2.54199ZM39.1514 10.709C39.692 10.3009 40.4611 10.4078 40.8691 10.9482C43.6538 14.636 45.125 19.0341 45.125 23.667C45.125 27.6203 44.0266 31.476 41.9473 34.8164C41.715 35.1896 41.314 35.3945 40.9043 35.3945C40.6833 35.3944 40.4594 35.3345 40.2578 35.209C39.6831 34.8512 39.5076 34.0953 39.8652 33.5205C41.7022 30.5692 42.6729 27.1616 42.6729 23.667C42.6728 19.5722 41.3724 15.6852 38.9121 12.4268C38.5041 11.8863 38.611 11.1171 39.1514 10.709ZM9.54395 19.7988C9.71861 19.1446 10.391 18.7563 11.0449 18.9307C11.6992 19.1054 12.0887 19.7773 11.9141 20.4316C11.634 21.481 11.4922 22.5696 11.4922 23.667C11.4922 25.874 12.0742 28.043 13.1758 29.9395C13.5159 30.5251 13.3169 31.2751 12.7314 31.6152C12.5376 31.7279 12.3253 31.7822 12.1162 31.7822C11.6936 31.7821 11.2822 31.5626 11.0547 31.1709C9.73628 28.901 9.0391 26.3062 9.03906 23.667C9.03906 22.3561 9.20879 21.0542 9.54395 19.7988ZM24 8.70605C32.2495 8.70606 38.9608 15.4173 38.9609 23.667C38.9609 26.3063 38.264 28.9018 36.9453 31.1719C36.7178 31.5634 36.3065 31.7822 35.8838 31.7822C35.6748 31.7822 35.4633 31.7286 35.2695 31.6162C34.6838 31.276 34.4841 30.5251 34.8242 29.9395C35.926 28.0429 36.5088 25.8741 36.5088 23.667C36.5088 16.7697 30.8973 11.1582 24 11.1582C20.2043 11.1582 16.6569 12.8534 14.2676 15.8086C13.8417 16.3353 13.0696 16.417 12.543 15.9912C12.0164 15.5655 11.9347 14.7942 12.3604 14.2676C15.2177 10.7333 19.4598 8.70605 24 8.70605ZM24 17.541C20.6223 17.5412 17.874 20.2892 17.874 23.667C17.8742 27.0448 20.6224 29.7927 24 29.793C27.3779 29.793 30.1258 27.0448 30.126 23.667C30.126 20.289 27.3779 17.541 24 17.541Z" fill="url(#paint0_linear_244_12545)" stroke="url(#paint1_linear_244_12545)" stroke-width="0.0839851"/>
<defs>
<linearGradient id="paint0_linear_244_12545" x1="0.72782" y1="46.0513" x2="53.5947" y2="-15.4607" gradientUnits="userSpaceOnUse">
<stop stop-color="#C01E6C"/>
<stop offset="1" stop-color="#FF9A3C"/>
</linearGradient>
<linearGradient id="paint1_linear_244_12545" x1="0.72782" y1="46.0513" x2="53.5947" y2="-15.4607" gradientUnits="userSpaceOnUse">
<stop stop-color="#C01E6C"/>
<stop offset="1" stop-color="#FF9A3C"/>
</linearGradient>
</defs>
</svg>
