<svg width="63" height="63" viewBox="0 0 63 63" fill="none" xmlns="http://www.w3.org/2000/svg">
<path d="M59.347 3.358C57.182 1.192 54.308 0 51.254 0H11.451C5.137 0 0 5.137 0 11.451V37.986C0 44.299 5.137 49.436 11.451 49.436H13.268V57.887C13.268 59.897 14.417 61.611 16.267 62.36C16.867 62.602 17.485 62.721 18.092 62.72C19.342 62.72 20.548 62.219 21.465 61.272L33.365 49.436H51.255C57.569 49.436 62.706 44.299 62.706 37.986V11.451C62.705 8.398 61.513 5.524 59.347 3.358ZM59.705 37.986C59.705 42.645 55.914 46.436 51.254 46.436H32.745C32.349 46.436 31.968 46.593 31.687 46.873L19.329 59.164C18.556 59.962 17.652 59.684 17.393 59.578C17.129 59.472 16.268 59.033 16.268 57.887V47.936C16.268 47.108 15.597 46.436 14.768 46.436H11.451C6.791 46.436 3 42.645 3 37.986V11.451C3 6.791 6.791 3 11.451 3H51.254C53.506 3 55.627 3.88 57.226 5.479C58.825 7.079 59.705 9.199 59.705 11.451V37.986Z" fill="url(#paint0_linear_266_5772)"/>
<path d="M31.35 17.893C27.585 17.893 24.521 20.956 24.521 24.722C24.521 28.488 27.584 31.551 31.35 31.551C35.116 31.551 38.179 28.488 38.179 24.722C38.179 20.956 35.115 17.893 31.35 17.893ZM31.35 28.55C29.239 28.55 27.521 26.833 27.521 24.721C27.521 22.609 29.238 20.892 31.35 20.892C33.461 20.892 35.179 22.609 35.179 24.721C35.179 26.833 33.46 28.55 31.35 28.55Z" fill="url(#paint1_linear_266_5772)"/>
<path d="M47.49 20.744L46.186 20.426C45.984 19.727 45.732 19.044 45.434 18.382L46.218 17.299C47.07 16.125 47.008 14.534 46.07 13.43L44.862 12.009C43.924 10.905 42.363 10.589 41.069 11.238L39.869 11.841C38.56 10.972 37.143 10.317 35.639 9.884L35.322 8.585C34.978 7.177 33.726 6.194 32.277 6.194H30.412C28.963 6.194 27.711 7.177 27.367 8.586L27.05 9.888C25.652 10.292 24.327 10.889 23.095 11.671L21.908 11.045C20.625 10.369 19.06 10.655 18.099 11.74L16.863 13.137C15.904 14.223 15.81 15.812 16.636 17.002L17.398 18.098C17.041 18.849 16.745 19.628 16.514 20.427L15.246 20.728C13.836 21.064 12.846 22.31 12.837 23.76L12.827 25.624C12.819 27.073 13.795 28.331 15.201 28.682L16.511 29.01C16.713 29.71 16.965 30.395 17.264 31.06L16.493 32.111C15.637 33.279 15.689 34.871 16.622 35.981L17.821 37.407C18.754 38.517 20.313 38.843 21.611 38.2L22.821 37.6C24.131 38.47 25.549 39.127 27.057 39.561L27.358 40.827C27.693 42.236 28.939 43.226 30.39 43.236L32.255 43.246H32.272C33.715 43.246 34.964 42.271 35.312 40.871L35.639 39.561C37.05 39.155 38.385 38.552 39.626 37.762L40.773 38.375C42.052 39.058 43.619 38.781 44.585 37.701L45.83 36.31C46.796 35.229 46.897 33.64 46.077 32.447L45.309 31.328C45.663 30.581 45.955 29.808 46.184 29.015L47.485 28.699C48.893 28.356 49.877 27.104 49.877 25.656L49.878 23.79C49.879 22.339 48.897 21.088 47.49 20.744ZM46.878 25.653C46.878 25.715 46.836 25.768 46.776 25.782L44.602 26.311C44.047 26.446 43.618 26.884 43.493 27.441C43.237 28.586 42.82 29.688 42.255 30.715C41.981 31.212 42.011 31.82 42.332 32.288L43.605 34.143C43.64 34.194 43.635 34.262 43.595 34.307L42.35 35.698C42.308 35.745 42.24 35.755 42.188 35.726L40.24 34.685C39.733 34.414 39.116 34.456 38.651 34.794C37.271 35.797 35.731 36.492 34.075 36.862C33.52 36.985 33.084 37.412 32.946 37.963L32.401 40.142C32.387 40.201 32.333 40.243 32.272 40.243L30.409 40.233C30.346 40.233 30.292 40.19 30.278 40.129L29.766 37.982C29.633 37.423 29.193 36.99 28.633 36.866C26.894 36.478 25.288 35.736 23.862 34.659C23.596 34.459 23.279 34.356 22.958 34.356C22.731 34.356 22.503 34.408 22.292 34.511L20.278 35.508C20.223 35.533 20.157 35.522 20.116 35.473L18.917 34.047C18.877 33.999 18.875 33.931 18.912 33.881L20.218 32.1C20.557 31.637 20.603 31.021 20.335 30.514C19.824 29.544 19.443 28.51 19.205 27.442C19.081 26.888 18.656 26.451 18.105 26.313L15.928 25.769C15.868 25.754 15.826 25.7 15.827 25.638L15.837 23.774C15.837 23.711 15.88 23.658 15.94 23.644L18.089 23.133C18.648 23 19.081 22.56 19.206 22C19.462 20.848 19.883 19.74 20.456 18.706C20.732 18.206 20.701 17.593 20.375 17.123L19.1 15.288C19.065 15.237 19.069 15.169 19.11 15.122L20.345 13.726C20.387 13.68 20.454 13.668 20.508 13.696L22.49 14.741C22.993 15.007 23.606 14.965 24.069 14.63C25.443 13.637 26.974 12.946 28.621 12.578C29.178 12.453 29.616 12.024 29.751 11.47L30.281 9.294C30.296 9.233 30.349 9.191 30.411 9.191H32.276C32.338 9.191 32.392 9.233 32.407 9.294L32.937 11.467C33.072 12.022 33.51 12.451 34.068 12.576C35.804 12.963 37.408 13.704 38.834 14.78C39.289 15.124 39.899 15.178 40.41 14.924L42.415 13.918C42.473 13.891 42.538 13.905 42.576 13.951L43.784 15.372C43.824 15.419 43.827 15.487 43.79 15.537L42.477 17.349C42.142 17.811 42.099 18.424 42.365 18.929C42.875 19.895 43.255 20.928 43.494 21.996C43.618 22.553 44.048 22.991 44.602 23.126L46.778 23.658C46.839 23.673 46.881 23.726 46.881 23.788L46.878 25.653Z" fill="url(#paint2_linear_266_5772)"/>
<path d="M59.347 3.358C57.182 1.192 54.308 0 51.254 0H11.451C5.137 0 0 5.137 0 11.451V37.986C0 44.299 5.137 49.436 11.451 49.436H13.268V57.887C13.268 59.897 14.417 61.611 16.267 62.36C16.867 62.602 17.485 62.721 18.092 62.72C19.342 62.72 20.548 62.219 21.465 61.272L33.365 49.436H51.255C57.569 49.436 62.706 44.299 62.706 37.986V11.451C62.705 8.398 61.513 5.524 59.347 3.358ZM59.705 37.986C59.705 42.645 55.914 46.436 51.254 46.436H32.745C32.349 46.436 31.968 46.593 31.687 46.873L19.329 59.164C18.556 59.962 17.652 59.684 17.393 59.578C17.129 59.472 16.268 59.033 16.268 57.887V47.936C16.268 47.108 15.597 46.436 14.768 46.436H11.451C6.791 46.436 3 42.645 3 37.986V11.451C3 6.791 6.791 3 11.451 3H51.254C53.506 3 55.627 3.88 57.226 5.479C58.825 7.079 59.705 9.199 59.705 11.451V37.986Z" stroke="url(#paint3_linear_266_5772)"/>
<path d="M31.35 17.893C27.585 17.893 24.521 20.956 24.521 24.722C24.521 28.488 27.584 31.551 31.35 31.551C35.116 31.551 38.179 28.488 38.179 24.722C38.179 20.956 35.115 17.893 31.35 17.893ZM31.35 28.55C29.239 28.55 27.521 26.833 27.521 24.721C27.521 22.609 29.238 20.892 31.35 20.892C33.461 20.892 35.179 22.609 35.179 24.721C35.179 26.833 33.46 28.55 31.35 28.55Z" stroke="url(#paint4_linear_266_5772)"/>
<path d="M47.49 20.744L46.186 20.426C45.984 19.727 45.732 19.044 45.434 18.382L46.218 17.299C47.07 16.125 47.008 14.534 46.07 13.43L44.862 12.009C43.924 10.905 42.363 10.589 41.069 11.238L39.869 11.841C38.56 10.972 37.143 10.317 35.639 9.884L35.322 8.585C34.978 7.177 33.726 6.194 32.277 6.194H30.412C28.963 6.194 27.711 7.177 27.367 8.586L27.05 9.888C25.652 10.292 24.327 10.889 23.095 11.671L21.908 11.045C20.625 10.369 19.06 10.655 18.099 11.74L16.863 13.137C15.904 14.223 15.81 15.812 16.636 17.002L17.398 18.098C17.041 18.849 16.745 19.628 16.514 20.427L15.246 20.728C13.836 21.064 12.846 22.31 12.837 23.76L12.827 25.624C12.819 27.073 13.795 28.331 15.201 28.682L16.511 29.01C16.713 29.71 16.965 30.395 17.264 31.06L16.493 32.111C15.637 33.279 15.689 34.871 16.622 35.981L17.821 37.407C18.754 38.517 20.313 38.843 21.611 38.2L22.821 37.6C24.131 38.47 25.549 39.127 27.057 39.561L27.358 40.827C27.693 42.236 28.939 43.226 30.39 43.236L32.255 43.246H32.272C33.715 43.246 34.964 42.271 35.312 40.871L35.639 39.561C37.05 39.155 38.385 38.552 39.626 37.762L40.773 38.375C42.052 39.058 43.619 38.781 44.585 37.701L45.83 36.31C46.796 35.229 46.897 33.64 46.077 32.447L45.309 31.328C45.663 30.581 45.955 29.808 46.184 29.015L47.485 28.699C48.893 28.356 49.877 27.104 49.877 25.656L49.878 23.79C49.879 22.339 48.897 21.088 47.49 20.744ZM46.878 25.653C46.878 25.715 46.836 25.768 46.776 25.782L44.602 26.311C44.047 26.446 43.618 26.884 43.493 27.441C43.237 28.586 42.82 29.688 42.255 30.715C41.981 31.212 42.011 31.82 42.332 32.288L43.605 34.143C43.64 34.194 43.635 34.262 43.595 34.307L42.35 35.698C42.308 35.745 42.24 35.755 42.188 35.726L40.24 34.685C39.733 34.414 39.116 34.456 38.651 34.794C37.271 35.797 35.731 36.492 34.075 36.862C33.52 36.985 33.084 37.412 32.946 37.963L32.401 40.142C32.387 40.201 32.333 40.243 32.272 40.243L30.409 40.233C30.346 40.233 30.292 40.19 30.278 40.129L29.766 37.982C29.633 37.423 29.193 36.99 28.633 36.866C26.894 36.478 25.288 35.736 23.862 34.659C23.596 34.459 23.279 34.356 22.958 34.356C22.731 34.356 22.503 34.408 22.292 34.511L20.278 35.508C20.223 35.533 20.157 35.522 20.116 35.473L18.917 34.047C18.877 33.999 18.875 33.931 18.912 33.881L20.218 32.1C20.557 31.637 20.603 31.021 20.335 30.514C19.824 29.544 19.443 28.51 19.205 27.442C19.081 26.888 18.656 26.451 18.105 26.313L15.928 25.769C15.868 25.754 15.826 25.7 15.827 25.638L15.837 23.774C15.837 23.711 15.88 23.658 15.94 23.644L18.089 23.133C18.648 23 19.081 22.56 19.206 22C19.462 20.848 19.883 19.74 20.456 18.706C20.732 18.206 20.701 17.593 20.375 17.123L19.1 15.288C19.065 15.237 19.069 15.169 19.11 15.122L20.345 13.726C20.387 13.68 20.454 13.668 20.508 13.696L22.49 14.741C22.993 15.007 23.606 14.965 24.069 14.63C25.443 13.637 26.974 12.946 28.621 12.578C29.178 12.453 29.616 12.024 29.751 11.47L30.281 9.294C30.296 9.233 30.349 9.191 30.411 9.191H32.276C32.338 9.191 32.392 9.233 32.407 9.294L32.937 11.467C33.072 12.022 33.51 12.451 34.068 12.576C35.804 12.963 37.408 13.704 38.834 14.78C39.289 15.124 39.899 15.178 40.41 14.924L42.415 13.918C42.473 13.891 42.538 13.905 42.576 13.951L43.784 15.372C43.824 15.419 43.827 15.487 43.79 15.537L42.477 17.349C42.142 17.811 42.099 18.424 42.365 18.929C42.875 19.895 43.255 20.928 43.494 21.996C43.618 22.553 44.048 22.991 44.602 23.126L46.778 23.658C46.839 23.673 46.881 23.726 46.881 23.788L46.878 25.653Z" stroke="url(#paint5_linear_266_5772)"/>
<defs>
<linearGradient id="paint0_linear_266_5772" x1="1.3472" y1="60.6293" x2="73.8469" y2="34.0689" gradientUnits="userSpaceOnUse">
<stop stop-color="#6549F6"/>
<stop offset="0.79" stop-color="#FF611D"/>
</linearGradient>
<linearGradient id="paint1_linear_266_5772" x1="1.3472" y1="60.6293" x2="73.8469" y2="34.0689" gradientUnits="userSpaceOnUse">
<stop stop-color="#6549F6"/>
<stop offset="0.79" stop-color="#FF611D"/>
</linearGradient>
<linearGradient id="paint2_linear_266_5772" x1="1.3472" y1="60.6293" x2="73.8469" y2="34.0689" gradientUnits="userSpaceOnUse">
<stop stop-color="#6549F6"/>
<stop offset="0.79" stop-color="#FF611D"/>
</linearGradient>
<linearGradient id="paint3_linear_266_5772" x1="1.3472" y1="60.6293" x2="73.8469" y2="34.0689" gradientUnits="userSpaceOnUse">
<stop stop-color="#6549F6"/>
<stop offset="0.79" stop-color="#FF611D"/>
</linearGradient>
<linearGradient id="paint4_linear_266_5772" x1="1.3472" y1="60.6293" x2="73.8469" y2="34.0689" gradientUnits="userSpaceOnUse">
<stop stop-color="#6549F6"/>
<stop offset="0.79" stop-color="#FF611D"/>
</linearGradient>
<linearGradient id="paint5_linear_266_5772" x1="1.3472" y1="60.6293" x2="73.8469" y2="34.0689" gradientUnits="userSpaceOnUse">
<stop stop-color="#6549F6"/>
<stop offset="0.79" stop-color="#FF611D"/>
</linearGradient>
</defs>
</svg>
