<svg width="62" height="62" viewBox="0 0 62 62" fill="none" xmlns="http://www.w3.org/2000/svg">
<path fill-rule="evenodd" clip-rule="evenodd" d="M8.0505 26.6665H10.8945C11.4438 28.2198 12.9265 29.3332 14.6665 29.3332C15.2838 29.3332 15.8692 29.1932 16.3905 28.9425L19.0572 31.6092C18.8065 32.1305 18.6665 32.7158 18.6665 33.3332C18.6665 35.5412 20.4585 37.3332 22.6665 37.3332C24.8745 37.3332 26.6665 35.5412 26.6665 33.3332C26.6665 32.7158 26.5265 32.1305 26.2758 31.6092L28.9425 28.9425C29.4638 29.1932 30.0492 29.3332 30.6665 29.3332C32.4065 29.3332 33.8892 28.2198 34.4385 26.6665H53.5612C54.1105 28.2198 55.5932 29.3332 57.3332 29.3332C59.5412 29.3332 61.3332 27.5412 61.3332 25.3332C61.3332 23.1252 59.5412 21.3332 57.3332 21.3332C55.5932 21.3332 54.1105 22.4465 53.5612 23.9998H34.4385C33.8892 22.4465 32.4065 21.3332 30.6665 21.3332C28.4585 21.3332 26.6665 23.1252 26.6665 25.3332C26.6665 25.9505 26.8065 26.5358 27.0572 27.0572L24.3905 29.7238C23.8692 29.4732 23.2838 29.3332 22.6665 29.3332C22.0492 29.3332 21.4638 29.4732 20.9425 29.7238L18.2758 27.0572C18.5265 26.5358 18.6665 25.9505 18.6665 25.3332C18.6665 23.1252 16.8745 21.3332 14.6665 21.3332C12.9265 21.3332 11.4438 22.4465 10.8945 23.9998H8.0505C8.73183 15.0558 16.2158 7.99984 25.3332 7.99984C33.1785 7.99984 39.8145 13.2239 41.9478 20.3812C42.1585 21.0865 42.9012 21.4878 43.6065 21.2772C44.3118 21.0678 44.7132 20.3238 44.5038 19.6185C42.0412 11.3612 34.3852 5.33317 25.3332 5.33317C14.2945 5.33317 5.33317 14.2945 5.33317 25.3332C5.33317 36.3718 14.2945 45.3332 25.3332 45.3332C34.3852 45.3332 42.0412 39.3052 44.5038 31.0479C44.7132 30.3425 44.3118 29.5985 43.6065 29.3892C42.9012 29.1785 42.1585 29.5798 41.9478 30.2852C39.8145 37.4425 33.1785 42.6665 25.3332 42.6665C16.2158 42.6665 8.73183 35.6105 8.0505 26.6665ZM22.6665 31.9998C23.4025 31.9998 23.9998 32.5972 23.9998 33.3332C23.9998 34.0692 23.4025 34.6665 22.6665 34.6665C21.9305 34.6665 21.3332 34.0692 21.3332 33.3332C21.3332 32.5972 21.9305 31.9998 22.6665 31.9998ZM14.6665 23.9998C15.4025 23.9998 15.9998 24.5972 15.9998 25.3332C15.9998 26.0692 15.4025 26.6665 14.6665 26.6665C13.9305 26.6665 13.3332 26.0692 13.3332 25.3332C13.3332 24.5972 13.9305 23.9998 14.6665 23.9998ZM57.3332 23.9998C58.0692 23.9998 58.6665 24.5972 58.6665 25.3332C58.6665 26.0692 58.0692 26.6665 57.3332 26.6665C56.5972 26.6665 55.9998 26.0692 55.9998 25.3332C55.9998 24.5972 56.5972 23.9998 57.3332 23.9998ZM30.6665 23.9998C31.4025 23.9998 31.9998 24.5972 31.9998 25.3332C31.9998 26.0692 31.4025 26.6665 30.6665 26.6665C29.9305 26.6665 29.3332 26.0692 29.3332 25.3332C29.3332 24.5972 29.9305 23.9998 30.6665 23.9998Z" fill="url(#paint0_linear_266_5758)"/>
<path fill-rule="evenodd" clip-rule="evenodd" d="M39.268 46.488L53.172 60.3907C53.9213 61.1413 54.9387 61.5627 56 61.5627C57.0613 61.5627 58.0787 61.14 58.828 60.3907C59.336 59.884 59.884 59.336 60.3907 58.828C61.14 58.0787 61.5627 57.0613 61.5627 56C61.5627 54.9387 61.1413 53.9213 60.3907 53.172L46.4867 39.268C48.136 36.772 49.3547 33.9693 50.0374 30.9626C50.2014 30.244 49.7507 29.5293 49.0333 29.3667C48.316 29.204 47.6 29.6534 47.4373 30.3707C45.144 40.4614 36.112 48 25.3333 48C12.8227 48 2.66667 37.844 2.66667 25.3333C2.66667 12.8227 12.8227 2.66667 25.3333 2.66667C36.112 2.66667 45.144 10.2053 47.4373 20.296C47.6 21.0133 48.316 21.4627 49.0333 21.3C49.7507 21.1373 50.2014 20.4227 50.0374 19.704C47.4747 8.42802 37.38 0 25.3333 0C11.352 0 0 11.352 0 25.3333C0 39.3147 11.352 50.6667 25.3333 50.6667C30.48 50.6667 35.2693 49.128 39.268 46.488ZM49.3333 45.8853L45.8853 49.3333L55.0573 58.5053C55.3067 58.7547 55.6467 58.896 56 58.896C56.3533 58.896 56.6933 58.7547 56.9427 58.5053L58.5053 56.9427C58.7547 56.6933 58.896 56.3533 58.896 56C58.896 55.6467 58.7547 55.3067 58.5053 55.0573L49.3333 45.8853ZM44.884 41.436C43.848 42.6933 42.692 43.848 41.436 44.884L44 47.448L47.448 44L44.884 41.436Z" fill="url(#paint1_linear_266_5758)"/>
<defs>
<linearGradient id="paint0_linear_266_5758" x1="1.32263" y1="59.5106" x2="72.4966" y2="33.43" gradientUnits="userSpaceOnUse">
<stop stop-color="#6549F6"/>
<stop offset="0.79" stop-color="#FF611D"/>
</linearGradient>
<linearGradient id="paint1_linear_266_5758" x1="1.32263" y1="59.5106" x2="72.4966" y2="33.43" gradientUnits="userSpaceOnUse">
<stop stop-color="#6549F6"/>
<stop offset="0.79" stop-color="#FF611D"/>
</linearGradient>
</defs>
</svg>
