<svg width="64" height="64" viewBox="0 0 64 64" fill="none" xmlns="http://www.w3.org/2000/svg">
<path d="M24.8866 44.2127L8.39891 61.5274C6.76904 63.1572 4.10218 63.1572 2.47231 61.5274C0.842564 59.8975 0.842564 57.2306 2.47231 55.6008L19.576 39.3141M15.1353 44.3341L19.6657 48.8646M47.4928 32.7899L49.9928 28.4599L47.5865 26.6897C47.6935 26.1429 47.75 25.5781 47.75 24.9999C47.75 24.4218 47.6935 23.8568 47.5865 23.3101L49.9928 21.5398L47.4928 17.2097L44.755 18.4092C43.9082 17.6691 42.9173 17.0893 41.8298 16.7178L41.5 13.7497H36.5001L36.1703 16.7178C35.0829 17.0892 34.0921 17.669 33.2451 18.4092L30.5073 17.2097M47.4928 32.7899L44.755 31.5904C43.908 32.3307 42.9172 32.9104 41.8298 33.2819L41.4999 36.2499H36.5001L36.1703 33.2819C35.0828 32.9104 34.0918 32.3308 33.2449 31.5904L30.5072 32.7899L28.0072 28.4599L30.4137 26.6896C30.3067 26.1428 30.2501 25.5779 30.2501 24.9999C30.2501 24.4218 30.3066 23.8569 30.4136 23.3101L28.0073 21.5398L30.5073 17.2097M47.4928 32.7899L51.9038 37.2007V53.6719M30.5073 17.2097L26.0962 12.7986H9.62509M24.2213 24.9997H9.62509M39.0001 41.2501V53.6722M55.7931 8.20612C65.068 17.4809 65.068 32.5184 55.7931 41.7932C46.5183 51.0681 31.4808 51.0681 22.206 41.7932C12.9312 32.5184 12.9312 17.4809 22.206 8.20612C31.4808 -1.06871 46.5183 -1.06871 55.7931 8.20612ZM51.8158 12.1835C58.894 19.2617 58.894 30.7377 51.8158 37.8158C44.7376 44.894 33.2617 44.894 26.1835 37.8158C19.1054 30.7377 19.1054 19.2617 26.1835 12.1835C33.2617 5.10538 44.7376 5.10538 51.8158 12.1835ZM42.1251 24.9997C42.1251 26.7256 40.726 28.1247 39.0001 28.1247C37.2742 28.1247 35.8751 26.7256 35.8751 24.9997C35.8751 23.2738 37.2742 21.8747 39.0001 21.8747C40.726 21.8747 42.1251 23.2738 42.1251 24.9997ZM9.41342 12.7986C9.41342 14.3518 8.15423 15.611 6.60093 15.611C5.04764 15.611 3.78844 14.3518 3.78844 12.7986C3.78844 11.2453 5.04764 9.98607 6.60093 9.98607C8.15423 9.98607 9.41342 11.2453 9.41342 12.7986ZM9.41342 24.9997C9.41342 26.553 8.15423 27.8122 6.60093 27.8122C5.04764 27.8122 3.78844 26.553 3.78844 24.9997C3.78844 23.4464 5.04764 22.1872 6.60093 22.1872C8.15423 22.1872 9.41342 23.4464 9.41342 24.9997ZM54.7163 56.6958C54.7163 58.2491 53.4571 59.5083 51.9039 59.5083C50.3506 59.5083 49.0914 58.2491 49.0914 56.6958C49.0914 55.1425 50.3506 53.8834 51.9039 53.8834C53.4571 53.8834 54.7163 55.1425 54.7163 56.6958ZM41.8126 56.6958C41.8126 58.2491 40.5534 59.5083 39.0001 59.5083C37.4468 59.5083 36.1876 58.2491 36.1876 56.6958C36.1876 55.1425 37.4468 53.8834 39.0001 53.8834C40.5534 53.8834 41.8126 55.1425 41.8126 56.6958Z" stroke="url(#paint0_linear_251_4505)" stroke-width="2.49999" stroke-miterlimit="22.9256" stroke-linecap="round" stroke-linejoin="round"/>
<defs>
<linearGradient id="paint0_linear_251_4505" x1="2.57127" y1="60.6998" x2="73.6721" y2="34.6462" gradientUnits="userSpaceOnUse">
<stop stop-color="#6549F6"/>
<stop offset="0.79" stop-color="#FF611D"/>
</linearGradient>
</defs>
</svg>
