<svg width="60" height="64" viewBox="0 0 60 64" fill="none" xmlns="http://www.w3.org/2000/svg">
<path d="M57.6275 54.7296H57.1799V26.2086C57.1783 24.9476 56.6766 23.7387 55.785 22.8471C54.8933 21.9554 53.6845 21.4538 52.4235 21.4522H41.5735C41.5323 20.338 41.4303 19.227 41.2681 18.1239C40.1263 10.4043 36.1609 4.02344 30.1012 0.156939C29.9405 0.0544487 29.7539 0 29.5632 0C29.3726 0 29.186 0.0544487 29.0252 0.156939C22.9661 4.02344 19.0002 10.4043 17.8584 18.1239C17.6962 19.227 17.5942 20.338 17.553 21.4522H6.703C5.44203 21.4538 4.23317 21.9554 3.34152 22.8471C2.44988 23.7387 1.94825 24.9476 1.94662 26.2086V54.7296H1.5C1.23478 54.7296 0.98043 54.8349 0.792893 55.0225C0.605357 55.21 0.5 55.4643 0.5 55.7296V59.3648C0.501423 60.5937 0.990239 61.7719 1.85921 62.6408C2.72819 63.5098 3.90635 63.9986 5.13525 63.9999H53.9924C55.2212 63.9985 56.3994 63.5097 57.2683 62.6408C58.1373 61.7718 58.6261 60.5937 58.6275 59.3648V55.7296C58.6275 55.4643 58.5221 55.21 58.3346 55.0225C58.1471 54.8349 57.8927 54.7296 57.6275 54.7296ZM29.5637 51.7828C26.9061 49.6959 26.3989 46.0221 27.2849 43.0694H31.8426C32.7286 46.0221 32.2214 49.6959 29.5637 51.7828ZM33.184 41.0694H25.9435C24.8939 39.7925 23.9673 38.4192 23.1762 36.9678H35.9513C35.1602 38.4192 34.2336 39.7925 33.184 41.0694ZM18.6696 31.1423C19.0673 32.5957 19.5692 34.0186 20.1714 35.3999L18.0887 36.1671C17.852 36.2543 17.6569 36.4278 17.5426 36.6527L15.6638 40.3506L13.5013 33.4411L16.6101 27.5623L17.8422 27.1142C18.0321 28.4731 18.3084 29.8186 18.6696 31.1423ZM41.2853 27.1142L42.5174 27.5623L45.6263 33.4411L43.4638 40.3506L41.5858 36.6527C41.4714 36.4278 41.2764 36.2543 41.0396 36.1671L38.9561 35.3999C39.5583 34.0186 40.0602 32.5956 40.4579 31.1421C40.8191 29.8184 41.0954 28.473 41.2853 27.1142ZM29.5637 2.19756C32.5018 4.20621 34.9075 6.89904 36.5736 10.0441C32.0451 8.3994 27.0824 8.3994 22.5539 10.0441C24.22 6.89904 26.6257 4.20621 29.5637 2.19756ZM19.8372 18.4167C20.1141 16.515 20.5966 14.6491 21.2762 12.8516C23.5546 11.5347 26.4815 10.8106 29.5637 10.8106C32.646 10.8106 35.5732 11.5347 37.8512 12.8516C38.5308 14.6491 39.0132 16.515 39.2899 18.4167C40.116 24.0026 39.2319 29.8843 36.9458 34.9678H22.1814C19.8952 29.8843 19.0111 24.0026 19.8372 18.4167ZM3.94762 26.2086C3.94845 25.4778 4.23912 24.7772 4.75586 24.2604C5.2726 23.7437 5.97322 23.453 6.704 23.4522H17.5427C17.5563 23.9897 17.5835 24.5274 17.6241 25.0653L15.5645 25.8144C15.3315 25.8992 15.1383 26.0675 15.0223 26.2867L11.5388 32.8749C11.477 32.9917 11.4391 33.1195 11.427 33.251C11.4149 33.3825 11.429 33.5151 11.4684 33.6412L14.4896 43.2922C14.549 43.4819 14.6636 43.6497 14.8188 43.774C14.9739 43.8983 15.1627 43.9735 15.3608 43.9901C15.5589 44.0066 15.7575 43.9637 15.9311 43.8669C16.1048 43.77 16.2456 43.6236 16.3356 43.4463L19.1481 37.9088L21.0326 37.2149C22.0443 39.187 23.2818 41.0347 24.7201 42.7209C24.8525 42.8746 25.0285 42.9843 25.2247 43.0354C24.2947 46.8286 25.2359 51.4314 29.0265 53.8504C29.1872 53.953 29.3739 54.0075 29.5645 54.0075C29.7551 54.0075 29.9418 53.953 30.1025 53.8504C33.8931 51.4314 34.8343 46.8286 33.9043 43.0354C34.1005 42.9843 34.2765 42.8746 34.4089 42.7209C35.8472 41.0347 37.0847 39.187 38.0964 37.2149L39.9809 37.9088L42.7934 43.4463C42.877 43.6109 43.0045 43.7491 43.1618 43.8457C43.3192 43.9423 43.5001 43.9934 43.6847 43.9934C43.7124 43.9934 43.7403 43.9924 43.7681 43.9901C43.9663 43.9735 44.155 43.8983 44.3102 43.774C44.4654 43.6497 44.58 43.482 44.6394 43.2922L47.6606 33.6412C47.6998 33.515 47.7136 33.3824 47.7013 33.2509C47.689 33.1194 47.6507 32.9916 47.5888 32.8749L44.1049 26.2874C43.9889 26.0683 43.7956 25.9 43.5626 25.8152L41.503 25.0661C41.5437 24.5283 41.5708 23.9908 41.5844 23.4536H52.4231C53.1539 23.4544 53.8545 23.7451 54.3713 24.2618C54.888 24.7785 55.1787 25.4792 55.1795 26.2099V54.7296H3.94762V26.2086ZM38.3868 56.7296L37.6394 59.0296H21.4887L20.7414 56.7296H38.3868ZM56.6275 59.3648C56.6267 60.0634 56.3488 60.7332 55.8548 61.2273C55.3608 61.7213 54.691 61.9991 53.9924 61.9999H5.13525C4.43659 61.9992 3.76677 61.7213 3.27273 61.2273C2.77869 60.7333 2.50079 60.0635 2.5 59.3648V56.7296H18.6375L19.8101 60.3386C19.8754 60.5394 20.0025 60.7144 20.1734 60.8386C20.3442 60.9627 20.55 61.0296 20.7611 61.0296H38.366C38.5772 61.0296 38.7829 60.9627 38.9538 60.8386C39.1246 60.7144 39.2518 60.5394 39.317 60.3386L40.4896 56.7296H56.6271L56.6275 59.3648ZM28.5637 22.1764V28.7487C28.5637 29.0139 28.6691 29.2683 28.8566 29.4558C29.0442 29.6433 29.2985 29.7487 29.5637 29.7487C29.829 29.7487 30.0833 29.6433 30.2709 29.4558C30.4584 29.2683 30.5637 29.0139 30.5637 28.7487V22.1764C31.6424 21.9306 32.5928 21.296 33.2332 20.3938C33.8736 19.4917 34.1592 18.3852 34.0355 17.2858C33.9118 16.1864 33.3875 15.1711 32.5626 14.4338C31.7377 13.6965 30.6701 13.289 29.5637 13.289C28.4574 13.289 27.3898 13.6965 26.5649 14.4338C25.74 15.1711 25.2157 16.1864 25.092 17.2858C24.9683 18.3852 25.2539 19.4917 25.8943 20.3938C26.5347 21.296 27.4851 21.9306 28.5637 22.1764ZM29.5637 15.2909C30.0582 15.2909 30.5416 15.4376 30.9527 15.7123C31.3638 15.987 31.6842 16.3774 31.8734 16.8342C32.0627 17.291 32.1122 17.7937 32.0157 18.2787C31.9192 18.7636 31.6811 19.2091 31.3315 19.5587C30.9819 19.9083 30.5364 20.1464 30.0515 20.2429C29.5665 20.3394 29.0639 20.2899 28.607 20.1006C28.1502 19.9114 27.7598 19.591 27.4851 19.1799C27.2104 18.7687 27.0637 18.2854 27.0637 17.7909C27.0643 17.1281 27.3279 16.4925 27.7966 16.0238C28.2654 15.5551 28.9009 15.2915 29.5637 15.2909Z" fill="black"/>
<path d="M57.6275 54.7296H57.1799V26.2086C57.1783 24.9476 56.6766 23.7387 55.785 22.8471C54.8933 21.9554 53.6845 21.4538 52.4235 21.4522H41.5735C41.5323 20.338 41.4303 19.227 41.2681 18.1239C40.1263 10.4043 36.1609 4.02344 30.1012 0.156939C29.9405 0.0544487 29.7539 0 29.5632 0C29.3726 0 29.186 0.0544487 29.0252 0.156939C22.9661 4.02344 19.0002 10.4043 17.8584 18.1239C17.6962 19.227 17.5942 20.338 17.553 21.4522H6.703C5.44203 21.4538 4.23317 21.9554 3.34152 22.8471C2.44988 23.7387 1.94825 24.9476 1.94662 26.2086V54.7296H1.5C1.23478 54.7296 0.98043 54.8349 0.792893 55.0225C0.605357 55.21 0.5 55.4643 0.5 55.7296V59.3648C0.501423 60.5937 0.990239 61.7719 1.85921 62.6408C2.72819 63.5098 3.90635 63.9986 5.13525 63.9999H53.9924C55.2212 63.9985 56.3994 63.5097 57.2683 62.6408C58.1373 61.7718 58.6261 60.5937 58.6275 59.3648V55.7296C58.6275 55.4643 58.5221 55.21 58.3346 55.0225C58.1471 54.8349 57.8927 54.7296 57.6275 54.7296ZM29.5637 51.7828C26.9061 49.6959 26.3989 46.0221 27.2849 43.0694H31.8426C32.7286 46.0221 32.2214 49.6959 29.5637 51.7828ZM33.184 41.0694H25.9435C24.8939 39.7925 23.9673 38.4192 23.1762 36.9678H35.9513C35.1602 38.4192 34.2336 39.7925 33.184 41.0694ZM18.6696 31.1423C19.0673 32.5957 19.5692 34.0186 20.1714 35.3999L18.0887 36.1671C17.852 36.2543 17.6569 36.4278 17.5426 36.6527L15.6638 40.3506L13.5013 33.4411L16.6101 27.5623L17.8422 27.1142C18.0321 28.4731 18.3084 29.8186 18.6696 31.1423ZM41.2853 27.1142L42.5174 27.5623L45.6263 33.4411L43.4638 40.3506L41.5858 36.6527C41.4714 36.4278 41.2764 36.2543 41.0396 36.1671L38.9561 35.3999C39.5583 34.0186 40.0602 32.5956 40.4579 31.1421C40.8191 29.8184 41.0954 28.473 41.2853 27.1142ZM29.5637 2.19756C32.5018 4.20621 34.9075 6.89904 36.5736 10.0441C32.0451 8.3994 27.0824 8.3994 22.5539 10.0441C24.22 6.89904 26.6257 4.20621 29.5637 2.19756ZM19.8372 18.4167C20.1141 16.515 20.5966 14.6491 21.2762 12.8516C23.5546 11.5347 26.4815 10.8106 29.5637 10.8106C32.646 10.8106 35.5732 11.5347 37.8512 12.8516C38.5308 14.6491 39.0132 16.515 39.2899 18.4167C40.116 24.0026 39.2319 29.8843 36.9458 34.9678H22.1814C19.8952 29.8843 19.0111 24.0026 19.8372 18.4167ZM3.94762 26.2086C3.94845 25.4778 4.23912 24.7772 4.75586 24.2604C5.2726 23.7437 5.97322 23.453 6.704 23.4522H17.5427C17.5563 23.9897 17.5835 24.5274 17.6241 25.0653L15.5645 25.8144C15.3315 25.8992 15.1383 26.0675 15.0223 26.2867L11.5388 32.8749C11.477 32.9917 11.4391 33.1195 11.427 33.251C11.4149 33.3825 11.429 33.5151 11.4684 33.6412L14.4896 43.2922C14.549 43.4819 14.6636 43.6497 14.8188 43.774C14.9739 43.8983 15.1627 43.9735 15.3608 43.9901C15.5589 44.0066 15.7575 43.9637 15.9311 43.8669C16.1048 43.77 16.2456 43.6236 16.3356 43.4463L19.1481 37.9088L21.0326 37.2149C22.0443 39.187 23.2818 41.0347 24.7201 42.7209C24.8525 42.8746 25.0285 42.9843 25.2247 43.0354C24.2947 46.8286 25.2359 51.4314 29.0265 53.8504C29.1872 53.953 29.3739 54.0075 29.5645 54.0075C29.7551 54.0075 29.9418 53.953 30.1025 53.8504C33.8931 51.4314 34.8343 46.8286 33.9043 43.0354C34.1005 42.9843 34.2765 42.8746 34.4089 42.7209C35.8472 41.0347 37.0847 39.187 38.0964 37.2149L39.9809 37.9088L42.7934 43.4463C42.877 43.6109 43.0045 43.7491 43.1618 43.8457C43.3192 43.9423 43.5001 43.9934 43.6847 43.9934C43.7124 43.9934 43.7403 43.9924 43.7681 43.9901C43.9663 43.9735 44.155 43.8983 44.3102 43.774C44.4654 43.6497 44.58 43.482 44.6394 43.2922L47.6606 33.6412C47.6998 33.515 47.7136 33.3824 47.7013 33.2509C47.689 33.1194 47.6507 32.9916 47.5888 32.8749L44.1049 26.2874C43.9889 26.0683 43.7956 25.9 43.5626 25.8152L41.503 25.0661C41.5437 24.5283 41.5708 23.9908 41.5844 23.4536H52.4231C53.1539 23.4544 53.8545 23.7451 54.3713 24.2618C54.888 24.7785 55.1787 25.4792 55.1795 26.2099V54.7296H3.94762V26.2086ZM38.3868 56.7296L37.6394 59.0296H21.4887L20.7414 56.7296H38.3868ZM56.6275 59.3648C56.6267 60.0634 56.3488 60.7332 55.8548 61.2273C55.3608 61.7213 54.691 61.9991 53.9924 61.9999H5.13525C4.43659 61.9992 3.76677 61.7213 3.27273 61.2273C2.77869 60.7333 2.50079 60.0635 2.5 59.3648V56.7296H18.6375L19.8101 60.3386C19.8754 60.5394 20.0025 60.7144 20.1734 60.8386C20.3442 60.9627 20.55 61.0296 20.7611 61.0296H38.366C38.5772 61.0296 38.7829 60.9627 38.9538 60.8386C39.1246 60.7144 39.2518 60.5394 39.317 60.3386L40.4896 56.7296H56.6271L56.6275 59.3648ZM28.5637 22.1764V28.7487C28.5637 29.0139 28.6691 29.2683 28.8566 29.4558C29.0442 29.6433 29.2985 29.7487 29.5637 29.7487C29.829 29.7487 30.0833 29.6433 30.2709 29.4558C30.4584 29.2683 30.5637 29.0139 30.5637 28.7487V22.1764C31.6424 21.9306 32.5928 21.296 33.2332 20.3938C33.8736 19.4917 34.1592 18.3852 34.0355 17.2858C33.9118 16.1864 33.3875 15.1711 32.5626 14.4338C31.7377 13.6965 30.6701 13.289 29.5637 13.289C28.4574 13.289 27.3898 13.6965 26.5649 14.4338C25.74 15.1711 25.2157 16.1864 25.092 17.2858C24.9683 18.3852 25.2539 19.4917 25.8943 20.3938C26.5347 21.296 27.4851 21.9306 28.5637 22.1764ZM29.5637 15.2909C30.0582 15.2909 30.5416 15.4376 30.9527 15.7123C31.3638 15.987 31.6842 16.3774 31.8734 16.8342C32.0627 17.291 32.1122 17.7937 32.0157 18.2787C31.9192 18.7636 31.6811 19.2091 31.3315 19.5587C30.9819 19.9083 30.5364 20.1464 30.0515 20.2429C29.5665 20.3394 29.0639 20.2899 28.607 20.1006C28.1502 19.9114 27.7598 19.591 27.4851 19.1799C27.2104 18.7687 27.0637 18.2854 27.0637 17.7909C27.0643 17.1281 27.3279 16.4925 27.7966 16.0238C28.2654 15.5551 28.9009 15.2915 29.5637 15.2909Z" fill="url(#paint0_linear_266_5774)"/>
<path d="M57.6275 54.7296H57.1799V26.2086C57.1783 24.9476 56.6766 23.7387 55.785 22.8471C54.8933 21.9554 53.6845 21.4538 52.4235 21.4522H41.5735C41.5323 20.338 41.4303 19.227 41.2681 18.1239C40.1263 10.4043 36.1609 4.02344 30.1012 0.156939C29.9405 0.0544487 29.7539 0 29.5632 0C29.3726 0 29.186 0.0544487 29.0252 0.156939C22.9661 4.02344 19.0002 10.4043 17.8584 18.1239C17.6962 19.227 17.5942 20.338 17.553 21.4522H6.703C5.44203 21.4538 4.23317 21.9554 3.34152 22.8471C2.44988 23.7387 1.94825 24.9476 1.94662 26.2086V54.7296H1.5C1.23478 54.7296 0.98043 54.8349 0.792893 55.0225C0.605357 55.21 0.5 55.4643 0.5 55.7296V59.3648C0.501423 60.5937 0.990239 61.7719 1.85921 62.6408C2.72819 63.5098 3.90635 63.9986 5.13525 63.9999H53.9924C55.2212 63.9985 56.3994 63.5097 57.2683 62.6408C58.1373 61.7718 58.6261 60.5937 58.6275 59.3648V55.7296C58.6275 55.4643 58.5221 55.21 58.3346 55.0225C58.1471 54.8349 57.8927 54.7296 57.6275 54.7296ZM29.5637 51.7828C26.9061 49.6959 26.3989 46.0221 27.2849 43.0694H31.8426C32.7286 46.0221 32.2214 49.6959 29.5637 51.7828ZM33.184 41.0694H25.9435C24.8939 39.7925 23.9673 38.4192 23.1762 36.9678H35.9513C35.1602 38.4192 34.2336 39.7925 33.184 41.0694ZM18.6696 31.1423C19.0673 32.5957 19.5692 34.0186 20.1714 35.3999L18.0887 36.1671C17.852 36.2543 17.6569 36.4278 17.5426 36.6527L15.6638 40.3506L13.5013 33.4411L16.6101 27.5623L17.8422 27.1142C18.0321 28.4731 18.3084 29.8186 18.6696 31.1423ZM41.2853 27.1142L42.5174 27.5623L45.6263 33.4411L43.4638 40.3506L41.5858 36.6527C41.4714 36.4278 41.2764 36.2543 41.0396 36.1671L38.9561 35.3999C39.5583 34.0186 40.0602 32.5956 40.4579 31.1421C40.8191 29.8184 41.0954 28.473 41.2853 27.1142ZM29.5637 2.19756C32.5018 4.20621 34.9075 6.89904 36.5736 10.0441C32.0451 8.3994 27.0824 8.3994 22.5539 10.0441C24.22 6.89904 26.6257 4.20621 29.5637 2.19756ZM19.8372 18.4167C20.1141 16.515 20.5966 14.6491 21.2762 12.8516C23.5546 11.5347 26.4815 10.8106 29.5637 10.8106C32.646 10.8106 35.5732 11.5347 37.8512 12.8516C38.5308 14.6491 39.0132 16.515 39.2899 18.4167C40.116 24.0026 39.2319 29.8843 36.9458 34.9678H22.1814C19.8952 29.8843 19.0111 24.0026 19.8372 18.4167ZM3.94762 26.2086C3.94845 25.4778 4.23912 24.7772 4.75586 24.2604C5.2726 23.7437 5.97322 23.453 6.704 23.4522H17.5427C17.5563 23.9897 17.5835 24.5274 17.6241 25.0653L15.5645 25.8144C15.3315 25.8992 15.1383 26.0675 15.0223 26.2867L11.5388 32.8749C11.477 32.9917 11.4391 33.1195 11.427 33.251C11.4149 33.3825 11.429 33.5151 11.4684 33.6412L14.4896 43.2922C14.549 43.4819 14.6636 43.6497 14.8188 43.774C14.9739 43.8983 15.1627 43.9735 15.3608 43.9901C15.5589 44.0066 15.7575 43.9637 15.9311 43.8669C16.1048 43.77 16.2456 43.6236 16.3356 43.4463L19.1481 37.9088L21.0326 37.2149C22.0443 39.187 23.2818 41.0347 24.7201 42.7209C24.8525 42.8746 25.0285 42.9843 25.2247 43.0354C24.2947 46.8286 25.2359 51.4314 29.0265 53.8504C29.1872 53.953 29.3739 54.0075 29.5645 54.0075C29.7551 54.0075 29.9418 53.953 30.1025 53.8504C33.8931 51.4314 34.8343 46.8286 33.9043 43.0354C34.1005 42.9843 34.2765 42.8746 34.4089 42.7209C35.8472 41.0347 37.0847 39.187 38.0964 37.2149L39.9809 37.9088L42.7934 43.4463C42.877 43.6109 43.0045 43.7491 43.1618 43.8457C43.3192 43.9423 43.5001 43.9934 43.6847 43.9934C43.7124 43.9934 43.7403 43.9924 43.7681 43.9901C43.9663 43.9735 44.155 43.8983 44.3102 43.774C44.4654 43.6497 44.58 43.482 44.6394 43.2922L47.6606 33.6412C47.6998 33.515 47.7136 33.3824 47.7013 33.2509C47.689 33.1194 47.6507 32.9916 47.5888 32.8749L44.1049 26.2874C43.9889 26.0683 43.7956 25.9 43.5626 25.8152L41.503 25.0661C41.5437 24.5283 41.5708 23.9908 41.5844 23.4536H52.4231C53.1539 23.4544 53.8545 23.7451 54.3713 24.2618C54.888 24.7785 55.1787 25.4792 55.1795 26.2099V54.7296H3.94762V26.2086ZM38.3868 56.7296L37.6394 59.0296H21.4887L20.7414 56.7296H38.3868ZM56.6275 59.3648C56.6267 60.0634 56.3488 60.7332 55.8548 61.2273C55.3608 61.7213 54.691 61.9991 53.9924 61.9999H5.13525C4.43659 61.9992 3.76677 61.7213 3.27273 61.2273C2.77869 60.7333 2.50079 60.0635 2.5 59.3648V56.7296H18.6375L19.8101 60.3386C19.8754 60.5394 20.0025 60.7144 20.1734 60.8386C20.3442 60.9627 20.55 61.0296 20.7611 61.0296H38.366C38.5772 61.0296 38.7829 60.9627 38.9538 60.8386C39.1246 60.7144 39.2518 60.5394 39.317 60.3386L40.4896 56.7296H56.6271L56.6275 59.3648ZM28.5637 22.1764V28.7487C28.5637 29.0139 28.6691 29.2683 28.8566 29.4558C29.0442 29.6433 29.2985 29.7487 29.5637 29.7487C29.829 29.7487 30.0833 29.6433 30.2709 29.4558C30.4584 29.2683 30.5637 29.0139 30.5637 28.7487V22.1764C31.6424 21.9306 32.5928 21.296 33.2332 20.3938C33.8736 19.4917 34.1592 18.3852 34.0355 17.2858C33.9118 16.1864 33.3875 15.1711 32.5626 14.4338C31.7377 13.6965 30.6701 13.289 29.5637 13.289C28.4574 13.289 27.3898 13.6965 26.5649 14.4338C25.74 15.1711 25.2157 16.1864 25.092 17.2858C24.9683 18.3852 25.2539 19.4917 25.8943 20.3938C26.5347 21.296 27.4851 21.9306 28.5637 22.1764ZM29.5637 15.2909C30.0582 15.2909 30.5416 15.4376 30.9527 15.7123C31.3638 15.987 31.6842 16.3774 31.8734 16.8342C32.0627 17.291 32.1122 17.7937 32.0157 18.2787C31.9192 18.7636 31.6811 19.2091 31.3315 19.5587C30.9819 19.9083 30.5364 20.1464 30.0515 20.2429C29.5665 20.3394 29.0639 20.2899 28.607 20.1006C28.1502 19.9114 27.7598 19.591 27.4851 19.1799C27.2104 18.7687 27.0637 18.2854 27.0637 17.7909C27.0643 17.1281 27.3279 16.4925 27.7966 16.0238C28.2654 15.5551 28.9009 15.2915 29.5637 15.2909Z" stroke="black"/>
<path d="M57.6275 54.7296H57.1799V26.2086C57.1783 24.9476 56.6766 23.7387 55.785 22.8471C54.8933 21.9554 53.6845 21.4538 52.4235 21.4522H41.5735C41.5323 20.338 41.4303 19.227 41.2681 18.1239C40.1263 10.4043 36.1609 4.02344 30.1012 0.156939C29.9405 0.0544487 29.7539 0 29.5632 0C29.3726 0 29.186 0.0544487 29.0252 0.156939C22.9661 4.02344 19.0002 10.4043 17.8584 18.1239C17.6962 19.227 17.5942 20.338 17.553 21.4522H6.703C5.44203 21.4538 4.23317 21.9554 3.34152 22.8471C2.44988 23.7387 1.94825 24.9476 1.94662 26.2086V54.7296H1.5C1.23478 54.7296 0.98043 54.8349 0.792893 55.0225C0.605357 55.21 0.5 55.4643 0.5 55.7296V59.3648C0.501423 60.5937 0.990239 61.7719 1.85921 62.6408C2.72819 63.5098 3.90635 63.9986 5.13525 63.9999H53.9924C55.2212 63.9985 56.3994 63.5097 57.2683 62.6408C58.1373 61.7718 58.6261 60.5937 58.6275 59.3648V55.7296C58.6275 55.4643 58.5221 55.21 58.3346 55.0225C58.1471 54.8349 57.8927 54.7296 57.6275 54.7296ZM29.5637 51.7828C26.9061 49.6959 26.3989 46.0221 27.2849 43.0694H31.8426C32.7286 46.0221 32.2214 49.6959 29.5637 51.7828ZM33.184 41.0694H25.9435C24.8939 39.7925 23.9673 38.4192 23.1762 36.9678H35.9513C35.1602 38.4192 34.2336 39.7925 33.184 41.0694ZM18.6696 31.1423C19.0673 32.5957 19.5692 34.0186 20.1714 35.3999L18.0887 36.1671C17.852 36.2543 17.6569 36.4278 17.5426 36.6527L15.6638 40.3506L13.5013 33.4411L16.6101 27.5623L17.8422 27.1142C18.0321 28.4731 18.3084 29.8186 18.6696 31.1423ZM41.2853 27.1142L42.5174 27.5623L45.6263 33.4411L43.4638 40.3506L41.5858 36.6527C41.4714 36.4278 41.2764 36.2543 41.0396 36.1671L38.9561 35.3999C39.5583 34.0186 40.0602 32.5956 40.4579 31.1421C40.8191 29.8184 41.0954 28.473 41.2853 27.1142ZM29.5637 2.19756C32.5018 4.20621 34.9075 6.89904 36.5736 10.0441C32.0451 8.3994 27.0824 8.3994 22.5539 10.0441C24.22 6.89904 26.6257 4.20621 29.5637 2.19756ZM19.8372 18.4167C20.1141 16.515 20.5966 14.6491 21.2762 12.8516C23.5546 11.5347 26.4815 10.8106 29.5637 10.8106C32.646 10.8106 35.5732 11.5347 37.8512 12.8516C38.5308 14.6491 39.0132 16.515 39.2899 18.4167C40.116 24.0026 39.2319 29.8843 36.9458 34.9678H22.1814C19.8952 29.8843 19.0111 24.0026 19.8372 18.4167ZM3.94762 26.2086C3.94845 25.4778 4.23912 24.7772 4.75586 24.2604C5.2726 23.7437 5.97322 23.453 6.704 23.4522H17.5427C17.5563 23.9897 17.5835 24.5274 17.6241 25.0653L15.5645 25.8144C15.3315 25.8992 15.1383 26.0675 15.0223 26.2867L11.5388 32.8749C11.477 32.9917 11.4391 33.1195 11.427 33.251C11.4149 33.3825 11.429 33.5151 11.4684 33.6412L14.4896 43.2922C14.549 43.4819 14.6636 43.6497 14.8188 43.774C14.9739 43.8983 15.1627 43.9735 15.3608 43.9901C15.5589 44.0066 15.7575 43.9637 15.9311 43.8669C16.1048 43.77 16.2456 43.6236 16.3356 43.4463L19.1481 37.9088L21.0326 37.2149C22.0443 39.187 23.2818 41.0347 24.7201 42.7209C24.8525 42.8746 25.0285 42.9843 25.2247 43.0354C24.2947 46.8286 25.2359 51.4314 29.0265 53.8504C29.1872 53.953 29.3739 54.0075 29.5645 54.0075C29.7551 54.0075 29.9418 53.953 30.1025 53.8504C33.8931 51.4314 34.8343 46.8286 33.9043 43.0354C34.1005 42.9843 34.2765 42.8746 34.4089 42.7209C35.8472 41.0347 37.0847 39.187 38.0964 37.2149L39.9809 37.9088L42.7934 43.4463C42.877 43.6109 43.0045 43.7491 43.1618 43.8457C43.3192 43.9423 43.5001 43.9934 43.6847 43.9934C43.7124 43.9934 43.7403 43.9924 43.7681 43.9901C43.9663 43.9735 44.155 43.8983 44.3102 43.774C44.4654 43.6497 44.58 43.482 44.6394 43.2922L47.6606 33.6412C47.6998 33.515 47.7136 33.3824 47.7013 33.2509C47.689 33.1194 47.6507 32.9916 47.5888 32.8749L44.1049 26.2874C43.9889 26.0683 43.7956 25.9 43.5626 25.8152L41.503 25.0661C41.5437 24.5283 41.5708 23.9908 41.5844 23.4536H52.4231C53.1539 23.4544 53.8545 23.7451 54.3713 24.2618C54.888 24.7785 55.1787 25.4792 55.1795 26.2099V54.7296H3.94762V26.2086ZM38.3868 56.7296L37.6394 59.0296H21.4887L20.7414 56.7296H38.3868ZM56.6275 59.3648C56.6267 60.0634 56.3488 60.7332 55.8548 61.2273C55.3608 61.7213 54.691 61.9991 53.9924 61.9999H5.13525C4.43659 61.9992 3.76677 61.7213 3.27273 61.2273C2.77869 60.7333 2.50079 60.0635 2.5 59.3648V56.7296H18.6375L19.8101 60.3386C19.8754 60.5394 20.0025 60.7144 20.1734 60.8386C20.3442 60.9627 20.55 61.0296 20.7611 61.0296H38.366C38.5772 61.0296 38.7829 60.9627 38.9538 60.8386C39.1246 60.7144 39.2518 60.5394 39.317 60.3386L40.4896 56.7296H56.6271L56.6275 59.3648ZM28.5637 22.1764V28.7487C28.5637 29.0139 28.6691 29.2683 28.8566 29.4558C29.0442 29.6433 29.2985 29.7487 29.5637 29.7487C29.829 29.7487 30.0833 29.6433 30.2709 29.4558C30.4584 29.2683 30.5637 29.0139 30.5637 28.7487V22.1764C31.6424 21.9306 32.5928 21.296 33.2332 20.3938C33.8736 19.4917 34.1592 18.3852 34.0355 17.2858C33.9118 16.1864 33.3875 15.1711 32.5626 14.4338C31.7377 13.6965 30.6701 13.289 29.5637 13.289C28.4574 13.289 27.3898 13.6965 26.5649 14.4338C25.74 15.1711 25.2157 16.1864 25.092 17.2858C24.9683 18.3852 25.2539 19.4917 25.8943 20.3938C26.5347 21.296 27.4851 21.9306 28.5637 22.1764ZM29.5637 15.2909C30.0582 15.2909 30.5416 15.4376 30.9527 15.7123C31.3638 15.987 31.6842 16.3774 31.8734 16.8342C32.0627 17.291 32.1122 17.7937 32.0157 18.2787C31.9192 18.7636 31.6811 19.2091 31.3315 19.5587C30.9819 19.9083 30.5364 20.1464 30.0515 20.2429C29.5665 20.3394 29.0639 20.2899 28.607 20.1006C28.1502 19.9114 27.7598 19.591 27.4851 19.1799C27.2104 18.7687 27.0637 18.2854 27.0637 17.7909C27.0643 17.1281 27.3279 16.4925 27.7966 16.0238C28.2654 15.5551 28.9009 15.2915 29.5637 15.2909Z" stroke="url(#paint1_linear_266_5774)"/>
<defs>
<linearGradient id="paint0_linear_266_5774" x1="1.74883" y1="61.8666" x2="70.3738" y2="39.0275" gradientUnits="userSpaceOnUse">
<stop stop-color="#6549F6"/>
<stop offset="0.79" stop-color="#FF611D"/>
</linearGradient>
<linearGradient id="paint1_linear_266_5774" x1="1.74883" y1="61.8666" x2="70.3738" y2="39.0275" gradientUnits="userSpaceOnUse">
<stop stop-color="#6549F6"/>
<stop offset="0.79" stop-color="#FF611D"/>
</linearGradient>
</defs>
</svg>
