<svg width="64" height="74" viewBox="0 0 64 74" fill="none" xmlns="http://www.w3.org/2000/svg">
<path fill-rule="evenodd" clip-rule="evenodd" d="M15.8389 40.9011L18.8853 41.4886C19.0398 41.5181 19.1822 41.5928 19.2943 41.7032C19.4065 41.8136 19.4834 41.9548 19.5154 42.1088C19.8377 43.6402 20.4398 45.0989 21.2917 46.4116C21.3797 46.5412 21.4275 46.694 21.429 46.8507C21.4306 47.0074 21.3859 47.1611 21.3005 47.2925L19.5783 49.9458L21.5848 51.914L24.1565 50.1735L24.1574 50.1747C24.287 50.0874 24.4394 50.0401 24.5957 50.0388C24.7519 50.0374 24.9051 50.0821 25.0362 50.1672C26.3421 51.0198 27.7937 51.6252 29.3184 51.9533C29.4767 51.9795 29.6234 52.0528 29.7393 52.1636C29.8553 52.2744 29.9351 52.4177 29.9684 52.5746L30.6264 55.6673L33.4359 55.6401L34.0234 52.5937C34.053 52.4392 34.1277 52.2968 34.2381 52.1847C34.3485 52.0725 34.4896 51.9955 34.6437 51.9635C36.1747 51.6413 37.6332 51.0392 38.9457 50.1875C39.0753 50.0994 39.2281 50.0516 39.3848 50.05C39.5415 50.0484 39.6952 50.0931 39.8267 50.1785L42.48 51.9008L44.4482 49.8942L42.7077 47.3227L42.7089 47.322C42.6215 47.1924 42.5742 47.0399 42.5729 46.8836C42.5716 46.7274 42.6163 46.5741 42.7014 46.4431C43.5539 45.137 44.1592 43.6855 44.4874 42.1608C44.5136 42.0026 44.5868 41.8559 44.6977 41.7399C44.8085 41.624 44.9517 41.5441 45.1087 41.5108L48.2013 40.8528L48.1742 38.0433L45.1278 37.4558C44.9732 37.4262 44.8309 37.3515 44.7187 37.2411C44.6066 37.1308 44.5296 36.9896 44.4975 36.8356C44.1754 35.3042 43.5732 33.8455 42.7214 32.5328C42.6334 32.4032 42.5855 32.2504 42.5839 32.0937C42.5823 31.937 42.627 31.7833 42.7124 31.6518L44.4347 28.9986L42.4282 27.0303L39.8565 28.7715L39.8557 28.7702C39.7261 28.8575 39.5737 28.9048 39.4174 28.9061C39.2612 28.9075 39.108 28.8628 38.9769 28.7777C37.6709 27.9252 36.2194 27.3198 34.6947 26.9916C34.5364 26.9654 34.3897 26.8921 34.2737 26.7813C34.1578 26.6705 34.0779 26.5273 34.0447 26.3703L33.3867 23.2777L30.5772 23.3048L29.9897 26.3508C29.9601 26.5054 29.8854 26.6477 29.775 26.7599C29.6646 26.872 29.5235 26.949 29.3694 26.9811C27.8379 27.3032 26.379 27.9054 25.0662 28.7573C24.9365 28.8454 24.7837 28.8932 24.627 28.8948C24.4703 28.8964 24.3166 28.8517 24.1852 28.7663L21.5324 27.0443L19.5642 29.051L21.3049 31.6227L21.3037 31.6235C21.391 31.7531 21.4383 31.9055 21.4396 32.0618C21.441 32.2181 21.3963 32.3713 21.3112 32.5023C20.4558 33.8142 19.8491 35.2723 19.5215 36.8037C19.492 36.9579 19.4176 37.0999 19.3078 37.212C19.1979 37.3241 19.0573 37.4013 18.9038 37.4338L15.811 38.0917L15.8389 40.9011ZM31.9153 29.8546C33.8175 29.8366 35.6823 30.383 37.274 31.4249C38.8656 32.4667 40.1126 33.9571 40.8572 35.7076C41.6018 37.4582 41.8106 39.3902 41.4571 41.2593C41.1037 43.1285 40.204 44.8509 38.8717 46.2087C37.5393 47.5666 35.8343 48.4988 33.9722 48.8876C32.11 49.2764 30.1744 49.1043 28.4101 48.393C26.6458 47.6818 25.132 46.4633 24.0601 44.8917C22.9883 43.3201 22.4066 41.4659 22.3885 39.5637C22.3763 38.3006 22.6131 37.0475 23.0853 35.8759C23.5575 34.7043 24.2559 33.6372 25.1406 32.7356C26.0253 31.834 27.0789 31.1155 28.2413 30.6211C29.4037 30.1268 30.6522 29.8663 31.9153 29.8546Z" fill="url(#paint0_linear_829_18181)"/>
<path fill-rule="evenodd" clip-rule="evenodd" d="M39.4738 42.4227L36.4758 40.6652C36.3011 40.5642 36.1584 40.4159 36.0641 40.2375C35.9698 40.059 35.9277 39.8576 35.9427 39.6563C36.1552 36.7428 33.5991 34.5523 30.8062 35.3321L33.0687 36.6584C33.2328 36.7533 33.3688 36.8901 33.4626 37.0549C33.5564 37.2196 33.6047 37.4064 33.6025 37.5959L33.5865 40.0303C33.5863 40.2206 33.5356 40.4075 33.4396 40.5718C33.3436 40.7361 33.2057 40.872 33.04 40.9656L30.9237 42.1688C30.7589 42.2628 30.5721 42.3115 30.3824 42.3101C30.1927 42.3087 30.0067 42.2571 29.8433 42.1607L27.5801 40.8339C28.2706 43.6623 31.4336 44.8089 33.864 43.2061C34.0319 43.0943 34.228 43.0323 34.4297 43.027C34.6313 43.0217 34.8304 43.0734 35.004 43.1762L37.929 44.8906C38.59 44.1689 39.1135 43.3326 39.4738 42.4227Z" fill="url(#paint1_linear_829_18181)"/>
<path fill-rule="evenodd" clip-rule="evenodd" d="M26.994 38.7891C27.1696 38.7957 27.3408 38.8466 27.4915 38.9371L30.394 40.6381L31.9986 39.7256L32.0111 37.8818L29.1084 36.1802C28.943 36.083 28.8064 35.9436 28.7126 35.7763C28.6188 35.6089 28.5712 35.4197 28.5747 35.2279C28.5782 35.0361 28.6325 34.8487 28.7323 34.6848C28.832 34.521 28.9736 34.3866 29.1424 34.2954C33.0607 32.1871 37.641 34.9772 37.5494 39.4493L39.9189 40.8384C40.2359 39.0054 39.9068 37.119 38.9876 35.5017C38.0684 33.8843 36.6162 32.6363 34.8791 31.9707C33.1419 31.305 31.2276 31.2632 29.463 31.8522C27.6984 32.4412 26.1931 33.6246 25.204 35.2002C24.215 36.7758 23.8037 38.646 24.0403 40.4911C24.277 42.3363 25.1469 44.0421 26.5015 45.3172C27.8561 46.5923 29.6113 47.3575 31.4674 47.4822C33.3235 47.6069 35.1654 47.0833 36.6784 46.0009L34.4659 44.7042C31.706 46.3236 28.2125 45.4917 26.6294 42.7126C26.1419 41.8495 25.8792 40.8777 25.8656 39.8866C25.8625 39.7389 25.8898 39.5923 25.9458 39.4557C26.0019 39.3191 26.0854 39.1955 26.1912 39.0925C26.2971 38.9896 26.4229 38.9095 26.561 38.8573C26.6991 38.8051 26.8465 38.7819 26.994 38.7891Z" fill="url(#paint2_linear_829_18181)"/>
<path fill-rule="evenodd" clip-rule="evenodd" d="M49.7724 38.7891H50.7008C53.2763 38.7891 55.7464 37.766 57.5675 35.9448C59.3887 34.1236 60.4118 31.6536 60.4118 29.0781C60.4118 26.5026 59.3887 24.0325 57.5675 22.2114C55.7464 20.3902 53.2763 19.3671 50.7008 19.3671H48.1418C47.9507 19.367 47.766 19.2984 47.6212 19.1737C47.4763 19.049 47.3811 18.8764 47.3527 18.6875C46.7226 14.5173 42.4434 11.9321 38.4573 13.2821C37.7547 13.5202 37.096 13.8719 36.5073 14.3233C36.4209 14.3891 36.3219 14.4358 36.2165 14.4619C36.1111 14.488 36.0014 14.4924 35.8943 14.4746C35.7872 14.4568 35.6848 14.4174 35.5934 14.3587C35.5021 14.2999 35.4237 14.2232 35.3631 14.1331C31.7347 8.71834 24.1756 7.71509 19.2732 11.9921C17.3142 13.6966 16.0353 16.0501 15.6709 18.6211C15.6577 18.8234 15.568 19.0131 15.42 19.1517C15.2721 19.2903 15.0769 19.3675 14.8742 19.3675H13.3126C12.0373 19.3675 10.7745 19.6186 9.59632 20.1067C8.41813 20.5947 7.3476 21.31 6.44585 22.2117C5.5441 23.1135 4.82879 24.184 4.34077 25.3622C3.85274 26.5404 3.60156 27.8032 3.60156 29.0785C3.60156 30.3537 3.85274 31.6165 4.34077 32.7947C4.82879 33.9729 5.5441 35.0434 6.44585 35.9452C7.3476 36.8469 8.41813 37.5622 9.59632 38.0503C10.7745 38.5383 12.0373 38.7895 13.3126 38.7895H14.2277L14.2152 37.4538C14.2137 37.2705 14.2757 37.0922 14.3906 36.9492C14.5054 36.8063 14.6662 36.7074 14.8456 36.6693V36.6677L18.0777 35.9802C18.4205 34.6096 18.9653 33.2977 19.6942 32.0875L17.8789 29.4057C17.7717 29.2465 17.7254 29.054 17.7486 28.8634C17.7718 28.6729 17.8629 28.497 18.0052 28.3682L20.8533 25.4646C20.985 25.3308 21.1597 25.2478 21.3466 25.2302C21.5335 25.2126 21.7206 25.2616 21.8749 25.3686L24.6282 27.1561C25.8399 26.4286 27.1527 25.8848 28.5239 25.5423L29.1364 22.3673C29.1728 22.1776 29.2767 22.0076 29.429 21.8887C29.5812 21.7699 29.7715 21.7104 29.9643 21.7212L34.0268 21.682C34.2102 21.6806 34.3884 21.7425 34.5314 21.8574C34.6743 21.9722 34.7732 22.133 34.8113 22.3123H34.8128L35.5003 25.5448C36.8711 25.887 38.1833 26.4317 39.3934 27.1608L42.0749 25.3458C42.2341 25.2385 42.4267 25.1923 42.6172 25.2154C42.8078 25.2386 42.9836 25.3297 43.1124 25.4721L46.0162 28.3202C46.15 28.4519 46.233 28.6266 46.2505 28.8135C46.2681 29.0004 46.219 29.1876 46.1121 29.3418L44.3246 32.0957C45.052 33.3072 45.5958 34.6199 45.9383 35.9908L49.1133 36.6033C49.303 36.6396 49.4731 36.7435 49.5919 36.8958C49.7108 37.048 49.7703 37.2383 49.7594 37.4311L49.7724 38.7891Z" fill="url(#paint3_linear_829_18181)"/>
<defs>
<linearGradient id="paint0_linear_829_18181" x1="9.17546" y1="13.7057" x2="45.5127" y2="57.5426" gradientUnits="userSpaceOnUse">
<stop stop-color="#F94229"/>
<stop offset="1" stop-color="#BB0A55"/>
</linearGradient>
<linearGradient id="paint1_linear_829_18181" x1="9.17546" y1="13.7057" x2="45.5127" y2="57.5426" gradientUnits="userSpaceOnUse">
<stop stop-color="#F94229"/>
<stop offset="1" stop-color="#BB0A55"/>
</linearGradient>
<linearGradient id="paint2_linear_829_18181" x1="9.17546" y1="13.7057" x2="45.5127" y2="57.5426" gradientUnits="userSpaceOnUse">
<stop stop-color="#F94229"/>
<stop offset="1" stop-color="#BB0A55"/>
</linearGradient>
<linearGradient id="paint3_linear_829_18181" x1="9.17546" y1="13.7057" x2="45.5127" y2="57.5426" gradientUnits="userSpaceOnUse">
<stop stop-color="#F94229"/>
<stop offset="1" stop-color="#BB0A55"/>
</linearGradient>
</defs>
</svg>
